<svg id="Layer_1" data-name="Layer 1" xmlns="http://www.w3.org/2000/svg" viewBox="0 0 993.56 353.18"><defs><style>.cls-1{fill:#f5ffff;stroke:#cedded;}.cls-1,.cls-2{stroke-miterlimit:10;}.cls-1,.cls-2,.cls-3{isolation:isolate;}.cls-2{fill:#c4d7f9;stroke:#000;}.cls-3{fill:none;}.cls-4{font-size:20px;font-family:Tahoma;}.cls-5{letter-spacing:-0.01em;}.cls-6{letter-spacing:-0.01em;}.cls-7{letter-spacing:0em;}.cls-8{letter-spacing:0em;}.cls-9{letter-spacing:0em;}.cls-10{letter-spacing:-0.01em;}.cls-11{letter-spacing:0.01em;}.cls-12{letter-spacing:-0.02em;}.cls-13{letter-spacing:-0.02em;}.cls-14{letter-spacing:0.01em;}.cls-15{letter-spacing:0.02em;}.cls-16{letter-spacing:-0.01em;}.cls-17{letter-spacing:0em;}.cls-18{letter-spacing:-0.09em;}</style></defs><rect class="cls-1" x="9.28" y="37.59" width="259.75" height="30.64"/><rect class="cls-1" x="269.03" y="37.59" width="306.75" height="30.64"/><rect class="cls-1" x="575.78" y="37.59" width="249.75" height="30.64"/><rect class="cls-1" x="825.53" y="37.59" width="158.75" height="30.64"/><rect class="cls-1" x="9.28" y="68.23" width="259.75" height="30.64"/><rect class="cls-1" x="269.03" y="68.23" width="306.75" height="30.64"/><rect class="cls-1" x="575.78" y="68.23" width="249.75" height="30.64"/><rect class="cls-1" x="825.53" y="68.23" width="158.75" height="30.64"/><rect class="cls-1" x="9.28" y="98.86" width="259.75" height="30.64"/><rect class="cls-1" x="269.03" y="98.86" width="306.75" height="30.64"/><rect class="cls-1" x="575.78" y="98.86" width="249.75" height="30.64"/><rect class="cls-1" x="825.53" y="98.86" width="158.75" height="30.64"/><rect class="cls-1" x="9.28" y="129.5" width="259.75" height="30.64"/><rect class="cls-1" x="269.03" y="129.5" width="306.75" height="30.64"/><rect class="cls-1" x="575.78" y="129.5" width="249.75" height="30.64"/><rect class="cls-1" x="825.53" y="129.5" width="158.75" height="30.64"/><rect class="cls-1" x="9.28" y="160.14" width="259.75" height="30.64"/><rect class="cls-1" x="269.03" y="160.14" width="306.75" height="30.64"/><rect class="cls-1" x="575.78" y="160.14" width="249.75" height="30.64"/><rect class="cls-1" x="825.53" y="160.14" width="158.75" height="30.64"/><rect class="cls-1" x="9.28" y="190.77" width="259.75" height="30.64"/><rect class="cls-1" x="269.03" y="190.77" width="306.75" height="30.64"/><rect class="cls-1" x="575.78" y="190.77" width="249.75" height="30.64"/><rect class="cls-1" x="825.53" y="190.77" width="158.75" height="30.64"/><rect class="cls-1" x="9.28" y="221.41" width="259.75" height="30.64"/><rect class="cls-1" x="269.03" y="221.41" width="306.75" height="30.64"/><rect class="cls-1" x="575.78" y="221.41" width="249.75" height="30.64"/><rect class="cls-1" x="825.53" y="221.41" width="158.75" height="30.64"/><rect class="cls-1" x="9.28" y="252.05" width="259.75" height="30.64"/><rect class="cls-1" x="269.03" y="252.05" width="306.75" height="30.64"/><rect class="cls-1" x="575.78" y="252.05" width="249.75" height="30.64"/><rect class="cls-1" x="825.53" y="252.05" width="158.75" height="30.64"/><rect class="cls-1" x="9.28" y="282.68" width="259.75" height="30.64"/><rect class="cls-1" x="269.03" y="282.68" width="306.75" height="30.64"/><rect class="cls-1" x="575.78" y="282.68" width="249.75" height="30.64"/><rect class="cls-1" x="825.53" y="282.68" width="158.75" height="30.64"/><rect class="cls-1" x="9.28" y="313.32" width="259.75" height="30.64"/><rect class="cls-1" x="269.03" y="313.32" width="306.75" height="30.64"/><rect class="cls-1" x="575.78" y="313.32" width="249.75" height="30.64"/><rect class="cls-1" x="825.53" y="313.32" width="158.75" height="30.64"/><rect class="cls-2" x="9.28" y="6.96" width="259.75" height="30.64"/><rect class="cls-2" x="269.03" y="6.96" width="306.75" height="30.64"/><rect class="cls-2" x="575.78" y="6.96" width="249.75" height="30.64"/><rect class="cls-2" x="825.53" y="6.96" width="158.75" height="30.64"/><rect class="cls-3" x="9.28" y="37.59" width="259.75" height="30.64"/><rect class="cls-3" x="269.03" y="37.59" width="306.75" height="30.64"/><rect class="cls-3" x="575.78" y="37.59" width="249.75" height="30.64"/><rect class="cls-3" x="825.53" y="37.59" width="158.75" height="30.64"/><rect class="cls-3" x="9.28" y="68.23" width="259.75" height="30.64"/><rect class="cls-3" x="269.03" y="68.23" width="306.75" height="30.64"/><rect class="cls-3" x="575.78" y="68.23" width="249.75" height="30.64"/><rect class="cls-3" x="825.53" y="68.23" width="158.75" height="30.64"/><rect class="cls-3" x="9.28" y="98.86" width="259.75" height="30.64"/><rect class="cls-3" x="269.03" y="98.86" width="306.75" height="30.64"/><rect class="cls-3" x="575.78" y="98.86" width="249.75" height="30.64"/><rect class="cls-3" x="825.53" y="98.86" width="158.75" height="30.64"/><rect class="cls-3" x="9.28" y="129.5" width="259.75" height="30.64"/><rect class="cls-3" x="269.03" y="129.5" width="306.75" height="30.64"/><rect class="cls-3" x="575.78" y="129.5" width="249.75" height="30.64"/><rect class="cls-3" x="825.53" y="129.5" width="158.75" height="30.64"/><rect class="cls-3" x="9.28" y="160.14" width="259.75" height="30.64"/><rect class="cls-3" x="269.03" y="160.14" width="306.75" height="30.64"/><rect class="cls-3" x="575.78" y="160.14" width="249.75" height="30.64"/><rect class="cls-3" x="825.53" y="160.14" width="158.75" height="30.64"/><rect class="cls-3" x="9.28" y="190.77" width="259.75" height="30.64"/><rect class="cls-3" x="269.03" y="190.77" width="306.75" height="30.64"/><rect class="cls-3" x="575.78" y="190.77" width="249.75" height="30.64"/><rect class="cls-3" x="825.53" y="190.77" width="158.75" height="30.64"/><rect class="cls-3" x="9.28" y="221.41" width="259.75" height="30.64"/><rect class="cls-3" x="269.03" y="221.41" width="306.75" height="30.64"/><rect class="cls-3" x="575.78" y="221.41" width="249.75" height="30.64"/><rect class="cls-3" x="825.53" y="221.41" width="158.75" height="30.64"/><rect class="cls-3" x="9.28" y="252.05" width="259.75" height="30.64"/><rect class="cls-3" x="269.03" y="252.05" width="306.75" height="30.64"/><rect class="cls-3" x="575.78" y="252.05" width="249.75" height="30.64"/><rect class="cls-3" x="825.53" y="252.05" width="158.75" height="30.64"/><rect class="cls-3" x="9.28" y="282.73" width="259.75" height="30.64"/><rect class="cls-3" x="269.03" y="282.68" width="306.75" height="30.64"/><rect class="cls-3" x="575.78" y="282.68" width="249.75" height="30.64"/><rect class="cls-3" x="825.53" y="282.68" width="158.75" height="30.64"/><rect class="cls-3" x="9.28" y="313.32" width="259.75" height="30.64"/><rect class="cls-3" x="269.03" y="313.32" width="306.75" height="30.64"/><rect class="cls-3" x="575.78" y="313.32" width="249.75" height="30.64"/><rect class="cls-3" x="825.53" y="313.32" width="158.75" height="30.64"/><rect class="cls-3" x="9.28" y="6.96" width="259.75" height="30.64"/><rect class="cls-3" x="269.03" y="6.96" width="306.75" height="30.64"/><rect class="cls-3" x="575.78" y="6.96" width="249.75" height="30.64"/><rect class="cls-3" x="825.53" y="6.96" width="158.75" height="30.64"/><text class="cls-4" transform="translate(13.73 29.27)">Empl<tspan class="cls-5" x="43.64" y="0">o</tspan><tspan class="cls-6" x="54.38" y="0">y</tspan><tspan x="64.19" y="0">ee G</tspan><tspan class="cls-7" x="104.84" y="0">r</tspan><tspan x="111.95" y="0">oup</tspan></text><text class="cls-4" transform="translate(13.73 61.98)">1- Civ<tspan class="cls-8" x="50.98" y="0">il</tspan><tspan x="60.16" y="0">ians</tspan></text><text class="cls-4" transform="translate(13.73 304.58)">2- M<tspan class="cls-8" x="39.84" y="0">il</tspan><tspan class="cls-9" x="49.02" y="0">i</tspan><tspan x="53.63" y="0">tary</tspan></text><text class="cls-4" transform="translate(13.73 335.3)">2- M<tspan class="cls-8" x="39.84" y="0">il</tspan><tspan class="cls-9" x="49.02" y="0">i</tspan><tspan x="53.63" y="0">tary</tspan></text><text class="cls-4" transform="translate(275.08 29.27)">Empl<tspan class="cls-5" x="43.64" y="0">o</tspan><tspan class="cls-6" x="54.38" y="0">y</tspan><tspan x="64.19" y="0">ee Subg</tspan><tspan class="cls-7" x="135.9" y="0">r</tspan><tspan x="143.01" y="0">oup</tspan></text><text class="cls-4" transform="translate(275.08 59.98)">U0 = APF Ar<tspan class="cls-10" x="109.98" y="0">m</tspan><tspan x="126.6" y="0">y </tspan><tspan class="cls-11" x="142.81" y="0">(</tspan><tspan x="150.66" y="0">T</tspan><tspan class="cls-9" x="162.34" y="0">i</tspan><tspan x="166.95" y="0">tle 5)</tspan></text><text class="cls-4" transform="translate(275.08 90.9)">U1 = APF DOD Non<tspan class="cls-12" x="173.67" y="0">-</tspan><tspan x="180.48" y="0">Ar</tspan><tspan class="cls-10" x="199.68" y="0">m</tspan><tspan x="216.3" y="0">y</tspan></text><text class="cls-4" transform="translate(275.08 304.58)">U8 = Ar<tspan class="cls-10" x="70.28" y="0">m</tspan><tspan x="86.9" y="0">y Acti</tspan><tspan class="cls-6" x="135.6" y="0">v</tspan><tspan x="145.4" y="0">e Compon.</tspan></text><text class="cls-4" transform="translate(275.08 335.3)">U9 = Ar<tspan class="cls-10" x="70.28" y="0">m</tspan><tspan x="86.9" y="0">y </tspan><tspan class="cls-13" x="103.12" y="0">R</tspan><tspan x="115.17" y="0">eser</tspan><tspan class="cls-6" x="152.35" y="0">v</tspan><tspan x="162.16" y="0">e</tspan></text><text class="cls-4" transform="translate(275.08 243.14)">U6 = NAF LN</text><text class="cls-4" transform="translate(275.08 274.86)">U7 = Ar<tspan class="cls-10" x="70.28" y="0">m</tspan><tspan x="86.9" y="0">y Na</tspan><tspan class="cls-14" x="126.96" y="0">t</tspan><tspan class="cls-15" x="133.83" y="0">’</tspan><tspan x="138.45" y="0">l Gua</tspan><tspan class="cls-7" x="184.27" y="0">r</tspan><tspan x="191.38" y="0">d </tspan><tspan class="cls-11" x="208.68" y="0">(</tspan><tspan x="216.53" y="0">T</tspan><tspan class="cls-9" x="228.21" y="0">i</tspan><tspan x="232.82" y="0">tle 32)</tspan></text><text class="cls-4" transform="translate(275.08 181.71)">U4 = LN <tspan class="cls-7" x="80.63" y="0">I</tspan><tspan x="88" y="0">ndi</tspan><tspan class="cls-7" x="114.78" y="0">r</tspan><tspan x="121.88" y="0">ect Hi</tspan><tspan class="cls-7" x="172.66" y="0">r</tspan><tspan x="179.77" y="0">e</tspan></text><text class="cls-4" transform="translate(275.08 212.42)">U5 = NAF</text><text class="cls-4" transform="translate(275.08 120.27)">U2 = APF Non-DOD</text><text class="cls-4" transform="translate(275.08 150.99)">U3 = LN Di<tspan class="cls-7" x="98.77" y="0">r</tspan><tspan x="105.88" y="0">ect Hi</tspan><tspan class="cls-7" x="156.65" y="0">r</tspan><tspan x="163.76" y="0">e</tspan></text><text class="cls-4" transform="translate(579.58 29.27)">C<tspan class="cls-7" x="12.01" y="0">r</tspan><tspan x="19.12" y="0">eated </tspan><tspan class="cls-8" x="74.67" y="0">B</tspan><tspan x="86.47" y="0">y</tspan></text><text class="cls-4" transform="translate(579.58 59.98)">ACPERS</text><text class="cls-4" transform="translate(579.58 90.9)">Cur<tspan class="cls-7" x="30.37" y="0">r</tspan><tspan x="37.48" y="0">ently N/A</tspan></text><text class="cls-4" transform="translate(579.58 304.58)">Cur<tspan class="cls-7" x="30.37" y="0">r</tspan><tspan x="37.48" y="0">ently N/A</tspan></text><text class="cls-4" transform="translate(579.58 335.3)">Cur<tspan class="cls-7" x="30.37" y="0">r</tspan><tspan x="37.48" y="0">ently N/A</tspan></text><text class="cls-4" transform="translate(579.58 243.14)">Cur<tspan class="cls-7" x="30.37" y="0">r</tspan><tspan x="37.48" y="0">ently N/A</tspan></text><text class="cls-4" transform="translate(579.58 274.86)">DCPS MER <tspan class="cls-7" x="99.29" y="0">I</tspan><tspan x="106.65" y="0">nter</tspan><tspan class="cls-16" x="142.23" y="0">f</tspan><tspan x="148.35" y="0">ace</tspan></text><text class="cls-4" transform="translate(579.58 181.71)">Manua<tspan class="cls-17" x="58.71" y="0">l</tspan><tspan x="63.34" y="0">ly or Sp</tspan><tspan class="cls-7" x="130.63" y="0">r</tspan><tspan x="137.74" y="0">eadsheet</tspan></text><text class="cls-4" transform="translate(579.58 212.42)">Cur<tspan class="cls-7" x="30.37" y="0">r</tspan><tspan x="37.48" y="0">ently N/A</tspan></text><text class="cls-4" transform="translate(579.58 120.27)">Cur<tspan class="cls-7" x="30.37" y="0">r</tspan><tspan x="37.48" y="0">ently N/A</tspan></text><text class="cls-4" transform="translate(579.58 150.99)">Manua<tspan class="cls-17" x="58.71" y="0">l</tspan><tspan x="63.34" y="0">ly or Sp</tspan><tspan class="cls-7" x="130.63" y="0">r</tspan><tspan x="137.74" y="0">eadsheet</tspan></text><text class="cls-4" transform="translate(829.52 29.27)">Empl<tspan class="cls-5" x="43.64" y="0">o</tspan><tspan class="cls-6" x="54.38" y="0">y</tspan><tspan x="64.19" y="0">ee </tspan><tspan class="cls-18" x="91.49" y="0">T</tspan><tspan x="101.32" y="0">ype</tspan></text><text class="cls-4" transform="translate(967.52 59.98)">1</text><text class="cls-4" transform="translate(967.52 90.9)">2</text><text class="cls-4" transform="translate(829.52 304.58)">N/A</text><text class="cls-4" transform="translate(829.52 335.3)">N/A</text><text class="cls-4" transform="translate(967.52 243.14)">7</text><text class="cls-4" transform="translate(967.52 274.86)">8</text><text class="cls-4" transform="translate(967.52 181.71)">5</text><text class="cls-4" transform="translate(967.52 212.42)">6</text><text class="cls-4" transform="translate(967.52 120.27)">3</text><text class="cls-4" transform="translate(967.52 150.99)">4</text></svg>