<svg id="Layer_1" data-name="Layer 1" xmlns="http://www.w3.org/2000/svg" viewBox="0 0 305.39 305.39"><defs><style>.cls-1{fill:#55b6fa;}.cls-2{fill:#3e9cd6;}.cls-3{fill:#7f4c4c;}.cls-4{fill:#fff;}.cls-11,.cls-12,.cls-5,.cls-6,.cls-7{fill:none;stroke:#414a59;stroke-miterlimit:10;}.cls-5{stroke-width:1.53px;}.cls-6{stroke-width:1.15px;}.cls-7{stroke-width:0.72px;}.cls-8{fill:#59b3c6;}.cls-9{fill:#2c5871;}.cls-10{fill:#a4d8e7;}.cls-11{stroke-width:0.51px;}.cls-12{stroke-width:0.58px;}.cls-13{fill:#ffdd50;}.cls-14{fill:#e0a126;}.cls-15{fill:#2d353a;}.cls-16{fill:#353d44;}.cls-17{fill:#647184;}.cls-18{fill:#ffe969;}.cls-19{fill:#f4b30f;}.cls-20{fill:#feffca;}.cls-21{fill:#414a59;}.cls-22{fill:#727d8e;}.cls-23{fill:#fa4138;}.cls-24{fill:#49b5f2;}.cls-25{opacity:0.5;}.cls-26{fill:#020202;opacity:0.09;}.cls-27{fill:#f45353;}.cls-28{fill:#e0e0e0;}.cls-29{fill:#ce3232;}.cls-30{fill:#ffbc9f;}.cls-31{fill:#3f3f3f;}</style></defs><rect class="cls-1" width="305.39" height="305.39"/><ellipse class="cls-2" cx="152.69" cy="257.19" rx="110.07" ry="4.19"/><rect class="cls-3" x="86.73" y="65.92" width="151.17" height="191.27" rx="3.91"/><rect class="cls-4" x="94.55" y="73.74" width="135.53" height="175.62"/><rect class="cls-5" x="103.59" y="87.95" width="116.24" height="7.26"/><line class="cls-5" x1="103.59" y1="106.11" x2="203.84" y2="106.11"/><line class="cls-6" x1="103.59" y1="111.45" x2="183.23" y2="111.45"/><line class="cls-5" x1="103.59" y1="188.12" x2="203.84" y2="188.12"/><line class="cls-6" x1="103.59" y1="193.46" x2="196.97" y2="193.46"/><line class="cls-5" x1="103.59" y1="206.52" x2="203.84" y2="206.52"/><line class="cls-6" x1="103.59" y1="211.87" x2="195.45" y2="211.87"/><line class="cls-6" x1="103.59" y1="217.69" x2="195.45" y2="217.69"/><line class="cls-6" x1="103.59" y1="223.51" x2="195.45" y2="223.51"/><line class="cls-6" x1="103.59" y1="229.33" x2="195.45" y2="229.33"/><line class="cls-6" x1="103.59" y1="235.16" x2="195.45" y2="235.16"/><line class="cls-7" x1="112.4" y1="119.35" x2="126.94" y2="119.35"/><rect class="cls-8" x="103.62" y="116.68" width="5.33" height="5.33"/><line class="cls-7" x1="139.19" y1="119.35" x2="153.73" y2="119.35"/><rect class="cls-9" x="130.4" y="116.68" width="5.33" height="5.33"/><line class="cls-7" x1="165.97" y1="119.35" x2="180.88" y2="119.35"/><rect class="cls-10" x="157.19" y="116.68" width="5.33" height="5.33"/><line class="cls-7" x1="193.12" y1="119.35" x2="207.66" y2="119.35"/><rect class="cls-11" x="184.33" y="116.68" width="5.33" height="5.33"/><rect class="cls-8" x="107.71" y="155.03" width="4.36" height="25.67"/><rect class="cls-9" x="112.29" y="166.48" width="4.36" height="14.22"/><rect class="cls-10" x="116.87" y="145.86" width="4.36" height="34.83"/><rect class="cls-8" x="125.14" y="152.74" width="4.36" height="27.96"/><rect class="cls-9" x="129.72" y="158.84" width="4.36" height="21.85"/><rect class="cls-10" x="134.3" y="162.66" width="4.36" height="18.03"/><rect class="cls-8" x="142.74" y="162.66" width="4.36" height="18.03"/><rect class="cls-9" x="147.32" y="166.48" width="4.36" height="14.22"/><rect class="cls-10" x="151.9" y="155.03" width="4.36" height="25.67"/><rect class="cls-8" x="160.33" y="138.99" width="4.36" height="41.7"/><rect class="cls-9" x="164.91" y="150.45" width="4.36" height="30.25"/><rect class="cls-10" x="169.49" y="143.57" width="4.36" height="37.12"/><rect class="cls-8" x="177.92" y="166.48" width="4.36" height="14.22"/><rect class="cls-9" x="182.5" y="171.82" width="4.36" height="8.87"/><rect class="cls-10" x="187.08" y="162.66" width="4.36" height="18.03"/><rect class="cls-8" x="195.51" y="155.79" width="4.36" height="24.91"/><rect class="cls-9" x="200.09" y="136.7" width="4.36" height="43.99"/><rect class="cls-10" x="204.67" y="147.39" width="4.36" height="33.3"/><polyline class="cls-12" points="103.83 125 103.83 180.69 221.04 180.69"/><path class="cls-13" d="M199.15,55.18H177.27A4.4,4.4,0,0,1,173.06,52a11.21,11.21,0,0,0-21.49,0,4.4,4.4,0,0,1-4.21,3.17H125.48a4.39,4.39,0,0,0-4.39,4.4V75.94a4.4,4.4,0,0,0,4.4,4.4h73.67A4.39,4.39,0,0,0,203.54,76V59.57A4.4,4.4,0,0,0,199.15,55.18ZM162.32,60.4a4.87,4.87,0,1,1,4.86-4.86A4.87,4.87,0,0,1,162.32,60.4Z"/><rect class="cls-14" x="121.09" y="73.69" width="82.46" height="6.66"/><rect class="cls-15" x="179.02" y="176.02" width="5.08" height="10.08" rx="1.55" transform="translate(250.69 427.98) rotate(-150.56)"/><rect class="cls-16" x="175.46" y="181.04" width="9.21" height="5.34" rx="1.34" transform="translate(246.6 432.19) rotate(-150.56)"/><polygon class="cls-17" points="179.63 184.48 179.63 184.48 183.64 186.74 162.5 224.21 147.41 247.88 144.71 246.36 144.71 246.36 142.01 244.83 154.48 219.68 175.62 182.21 179.63 184.48"/><polygon class="cls-16" points="177.99 183.55 156.85 221.02 144.38 246.17 142.01 244.83 154.48 219.68 175.62 182.21 177.99 183.55"/><polygon class="cls-18" points="148.99 245.35 147.4 247.87 144.71 246.36 144.71 246.36 142.01 244.83 143.36 242.18 148.99 245.35"/><path class="cls-16" d="M138.64,257.11a.65.65,0,0,0,.87-.25l2.54-4.51a.63.63,0,1,0-1.1-.61l-2.54,4.5A.64.64,0,0,0,138.64,257.11Z"/><rect class="cls-18" x="154.61" y="219.16" width="9.21" height="2.98" transform="matrix(-0.87, -0.49, 0.49, -0.87, 189.45, 491.06)"/><polygon class="cls-17" points="142.09 244.87 143.33 245.57 147.41 247.88 146.37 249.72 142.28 247.42 141.04 246.72 140.97 246.68 142.01 244.83 142.09 244.87"/><polygon class="cls-16" points="145.78 249.4 141.17 255.63 138.6 254.18 141.56 247.01 145.78 249.4"/><rect class="cls-19" x="155.03" y="217.56" width="2.72" height="2.97" transform="translate(184.94 486.68) rotate(-150.56)"/><polygon class="cls-19" points="145.73 243.51 144.27 246.1 142.01 244.83 143.36 242.18 145.73 243.51"/><rect class="cls-17" x="179.3" y="179.6" width="5.08" height="1.91" transform="translate(251.48 427.16) rotate(-150.56)"/><rect class="cls-13" x="169.94" y="187.13" width="3.23" height="22.86" rx="0.37" transform="translate(223.38 455.81) rotate(-150.57)"/><path class="cls-16" d="M163.4,212l.86.49a1.14,1.14,0,0,0,1.55-.45l-.74,1.31a1.14,1.14,0,0,1-1.55.45l-.86-.49a1.13,1.13,0,0,1-.41-1.55l.74-1.31A1.13,1.13,0,0,0,163.4,212Z"/><rect class="cls-13" x="168.85" y="186.85" width="3.23" height="27.27" rx="1.49" transform="translate(220.4 458.87) rotate(-150.56)"/><path class="cls-20" d="M164.08,210.8l.86.49a1.13,1.13,0,0,0,1.54-.45l-.74,1.31a1.13,1.13,0,0,1-1.54.45l-.86-.49a1.13,1.13,0,0,1-.41-1.55l.74-1.31A1.13,1.13,0,0,0,164.08,210.8Z"/><path class="cls-21" d="M247.26,257.19H190.6a4.79,4.79,0,0,1-4.79-4.78V168a4.79,4.79,0,0,1,4.79-4.79h56.66a4.79,4.79,0,0,1,4.79,4.79v84.42A4.79,4.79,0,0,1,247.26,257.19Z"/><path class="cls-13" d="M242.69,187.81H195.16a1.6,1.6,0,0,1-1.59-1.59V172.49a1.59,1.59,0,0,1,1.59-1.59h47.53a1.6,1.6,0,0,1,1.6,1.59v13.73A1.6,1.6,0,0,1,242.69,187.81Z"/><path class="cls-14" d="M242.69,170.9H195.16a1.59,1.59,0,0,0-1.59,1.59V179h0v-3a1.59,1.59,0,0,1,1.59-1.59h47.53a1.6,1.6,0,0,1,1.6,1.59v3h0v-6.51A1.6,1.6,0,0,0,242.69,170.9Z"/><rect class="cls-22" x="194.41" y="210.52" width="9.63" height="9.63" rx="1.31"/><rect class="cls-22" x="207.55" y="210.52" width="9.63" height="9.63" rx="1.31"/><rect class="cls-22" x="220.68" y="210.52" width="9.63" height="9.63" rx="1.31"/><rect class="cls-22" x="194.41" y="225.53" width="9.63" height="9.63" rx="1.31"/><rect class="cls-22" x="207.55" y="225.53" width="9.63" height="9.63" rx="1.31"/><rect class="cls-22" x="220.68" y="225.53" width="9.63" height="9.63" rx="1.31"/><rect class="cls-22" x="194.41" y="195.5" width="9.63" height="9.63" rx="1.31"/><rect class="cls-22" x="207.55" y="195.5" width="9.63" height="9.63" rx="1.31"/><rect class="cls-22" x="220.68" y="195.5" width="9.63" height="9.63" rx="1.31"/><rect class="cls-22" x="194.41" y="240.55" width="9.63" height="9.63" rx="1.31"/><rect class="cls-22" x="207.55" y="240.55" width="9.63" height="9.63" rx="1.31"/><rect class="cls-22" x="220.68" y="240.55" width="9.63" height="9.63" rx="1.31"/><rect class="cls-23" x="233.82" y="210.52" width="9.63" height="9.63" rx="1.31"/><rect class="cls-24" x="233.82" y="195.5" width="9.63" height="9.63" rx="1.31"/><rect class="cls-13" x="233.82" y="225.53" width="9.63" height="24.64" rx="1.31"/><g class="cls-25"><polygon class="cls-4" points="204.01 170.9 214.71 187.81 223.74 187.81 213.58 170.9 204.01 170.9"/></g><g class="cls-25"><polygon class="cls-4" points="217.74 170.92 228.45 187.83 237.47 187.83 227.32 170.92 217.74 170.92"/></g><path class="cls-26" d="M135,170.86h-1.62v-.2a3.79,3.79,0,0,0-3.79-3.79H129a3.81,3.81,0,0,0-1.61.38,3.78,3.78,0,0,0-1.61-.38h-.56a3.79,3.79,0,0,0-3.44,2.23,3.79,3.79,0,0,0-3.44-2.23h-.56a3.86,3.86,0,0,0-1.62.38,3.78,3.78,0,0,0-1.61-.38H114a3.79,3.79,0,0,0-3.44,2.23,3.79,3.79,0,0,0-3.44-2.23h-.56a3.78,3.78,0,0,0-1.61.38,3.81,3.81,0,0,0-1.61-.38h-.57a3.79,3.79,0,0,0-3.44,2.23,3.79,3.79,0,0,0-3.44-2.23h-.56a3.78,3.78,0,0,0-1.61.38,3.78,3.78,0,0,0-1.61-.38h-.57a3.79,3.79,0,0,0-3.44,2.23,3.79,3.79,0,0,0-1.39-1.6v85.78a3.91,3.91,0,0,0,3.91,3.91h47.42V173.91A3,3,0,0,0,135,170.86Z"/><rect class="cls-27" x="52.47" y="173.91" width="82.54" height="17.92"/><rect class="cls-4" x="52.47" y="191.83" width="82.54" height="65.36"/><rect class="cls-28" x="81.06" y="201.88" width="5.82" height="5.82"/><rect class="cls-28" x="90.83" y="201.88" width="5.82" height="5.82"/><rect class="cls-28" x="100.6" y="201.88" width="5.82" height="5.82"/><rect class="cls-28" x="110.37" y="201.88" width="5.82" height="5.82"/><rect class="cls-28" x="120.15" y="201.88" width="5.82" height="5.82"/><rect class="cls-28" x="61.51" y="212" width="5.82" height="5.82"/><rect class="cls-28" x="71.28" y="212" width="5.82" height="5.82"/><rect class="cls-28" x="81.06" y="212" width="5.82" height="5.82"/><rect class="cls-28" x="90.83" y="212" width="5.82" height="5.82"/><rect class="cls-28" x="100.6" y="212" width="5.82" height="5.82"/><rect class="cls-28" x="110.37" y="212" width="5.82" height="5.82"/><rect class="cls-28" x="120.15" y="212" width="5.82" height="5.82"/><rect class="cls-28" x="61.51" y="222.12" width="5.82" height="5.82"/><rect class="cls-28" x="71.28" y="222.12" width="5.82" height="5.82"/><rect class="cls-28" x="81.06" y="222.12" width="5.82" height="5.82"/><rect class="cls-28" x="90.83" y="222.12" width="5.82" height="5.82"/><rect class="cls-27" x="100.6" y="222.12" width="5.82" height="5.82"/><rect class="cls-28" x="110.37" y="222.12" width="5.82" height="5.82"/><rect class="cls-28" x="120.15" y="222.12" width="5.82" height="5.82"/><rect class="cls-28" x="61.51" y="232.24" width="5.82" height="5.82"/><rect class="cls-28" x="71.28" y="232.24" width="5.82" height="5.82"/><rect class="cls-28" x="81.06" y="232.24" width="5.82" height="5.82"/><rect class="cls-28" x="90.83" y="232.24" width="5.82" height="5.82"/><rect class="cls-28" x="100.6" y="232.24" width="5.82" height="5.82"/><rect class="cls-28" x="110.37" y="232.24" width="5.82" height="5.82"/><rect class="cls-28" x="120.15" y="232.24" width="5.82" height="5.82"/><rect class="cls-28" x="61.51" y="242.36" width="5.82" height="5.82"/><rect class="cls-28" x="71.28" y="242.36" width="5.82" height="5.82"/><rect class="cls-28" x="81.06" y="242.36" width="5.82" height="5.82"/><rect class="cls-28" x="90.83" y="242.36" width="5.82" height="5.82"/><rect class="cls-28" x="100.6" y="242.36" width="5.82" height="5.82"/><rect class="cls-29" x="61.51" y="183.4" width="64.46" height="3.36"/><rect class="cls-30" x="57.15" y="171.28" width="2.03" height="7.27" rx="0.96"/><rect class="cls-30" x="60.93" y="171.28" width="2.03" height="7.27" rx="0.96"/><rect class="cls-30" x="68.37" y="171.28" width="2.03" height="7.27" rx="0.96"/><rect class="cls-30" x="72.16" y="171.28" width="2.03" height="7.27" rx="0.96"/><rect class="cls-30" x="79.6" y="171.28" width="2.03" height="7.27" rx="0.96"/><rect class="cls-30" x="83.39" y="171.28" width="2.03" height="7.27" rx="0.96"/><rect class="cls-30" x="90.83" y="171.28" width="2.03" height="7.27" rx="0.96"/><rect class="cls-30" x="94.62" y="171.28" width="2.03" height="7.27" rx="0.96"/><rect class="cls-30" x="102.06" y="171.28" width="2.03" height="7.27" rx="0.96"/><rect class="cls-30" x="105.84" y="171.28" width="2.03" height="7.27" rx="0.96"/><rect class="cls-30" x="113.29" y="171.28" width="2.03" height="7.27" rx="0.96"/><rect class="cls-30" x="117.07" y="171.28" width="2.03" height="7.27" rx="0.96"/><rect class="cls-30" x="124.51" y="171.28" width="2.03" height="7.27" rx="0.96"/><rect class="cls-30" x="128.3" y="171.28" width="2.03" height="7.27" rx="0.96"/><rect class="cls-31" x="57.15" y="169.93" width="2.03" height="7.27" rx="0.96"/><rect class="cls-31" x="60.93" y="169.93" width="2.03" height="7.27" rx="0.96"/><rect class="cls-31" x="68.37" y="169.93" width="2.03" height="7.27" rx="0.96"/><rect class="cls-31" x="72.16" y="169.93" width="2.03" height="7.27" rx="0.96"/><rect class="cls-31" x="79.6" y="169.93" width="2.03" height="7.27" rx="0.96"/><rect class="cls-31" x="83.39" y="169.93" width="2.03" height="7.27" rx="0.96"/><rect class="cls-31" x="90.83" y="169.93" width="2.03" height="7.27" rx="0.96"/><rect class="cls-31" x="94.62" y="169.93" width="2.03" height="7.27" rx="0.96"/><rect class="cls-31" x="102.06" y="169.93" width="2.03" height="7.27" rx="0.96"/><rect class="cls-31" x="105.84" y="169.93" width="2.03" height="7.27" rx="0.96"/><rect class="cls-31" x="113.29" y="169.93" width="2.03" height="7.27" rx="0.96"/><rect class="cls-31" x="117.07" y="169.93" width="2.03" height="7.27" rx="0.96"/><rect class="cls-31" x="124.51" y="169.93" width="2.03" height="7.27" rx="0.96"/><rect class="cls-31" x="128.3" y="169.93" width="2.03" height="7.27" rx="0.96"/></svg>