<svg id="Layer_1" data-name="Layer 1" xmlns="http://www.w3.org/2000/svg" viewBox="0 0 300 300"><defs><style>.cls-1{fill:#558c59;}.cls-2{fill:#dfe8ea;}.cls-10,.cls-25,.cls-3,.cls-4,.cls-5,.cls-9{fill:none;}.cls-10,.cls-3,.cls-4,.cls-5,.cls-9{stroke:#414a59;}.cls-10,.cls-20,.cls-25,.cls-3,.cls-4,.cls-5,.cls-9{stroke-miterlimit:10;}.cls-3{stroke-width:1.53px;}.cls-4{stroke-width:1.15px;}.cls-5{stroke-width:0.72px;}.cls-6{fill:#59b3c6;}.cls-7{fill:#2c5871;}.cls-8{fill:#a4d8e7;}.cls-9{stroke-width:0.51px;}.cls-10{stroke-width:0.58px;}.cls-11{fill:#fff;}.cls-12{fill:#e5e5e5;}.cls-13{fill:#f8faf8;}.cls-14{fill:#263547;}.cls-15{fill:#68899f;}.cls-16{fill:#5c6d7d;}.cls-17{fill:#c7dde5;}.cls-18{fill:#6bc2ce;}.cls-19{fill:#f7d286;}.cls-20{fill:#d7d7d7;stroke:#c3c3c3;}.cls-21{opacity:0.1;}.cls-22{fill:#ec8558;}.cls-23{fill:#d1ecfb;}.cls-24{fill:#a6dae9;}.cls-25{stroke:#666d7d;}.cls-26{fill:#ed895c;}</style></defs><rect class="cls-1" x="-6.78" y="-5.91" width="315" height="310.92"/><rect class="cls-2" x="143.8" y="73.43" width="122.8" height="94.77" transform="translate(31.08 283.26) rotate(-73.5)"/><rect class="cls-3" x="178.05" y="71.25" width="81.28" height="5.08" transform="translate(29.96 -59.07) rotate(16.5)"/><line class="cls-3" x1="176.84" y1="71.99" x2="244.05" y2="91.9"/><line class="cls-4" x1="175.78" y1="75.57" x2="229.17" y2="91.38"/><line class="cls-3" x1="160.55" y1="126.97" x2="227.77" y2="146.88"/><line class="cls-4" x1="159.49" y1="130.55" x2="222.1" y2="149.1"/><line class="cls-3" x1="156.9" y1="139.31" x2="224.11" y2="159.22"/><line class="cls-4" x1="155.84" y1="142.89" x2="217.42" y2="161.13"/><line class="cls-4" x1="154.68" y1="146.8" x2="216.27" y2="165.04"/><line class="cls-4" x1="153.52" y1="150.7" x2="215.11" y2="168.94"/><line class="cls-4" x1="152.37" y1="154.6" x2="213.95" y2="172.84"/><line class="cls-4" x1="151.21" y1="158.51" x2="212.8" y2="176.75"/><line class="cls-5" x1="180.12" y1="82.61" x2="189.87" y2="85.5"/><rect class="cls-6" x="174.15" y="79.53" width="3.73" height="3.73" transform="translate(30.36 -46.64) rotate(16.5)"/><line class="cls-5" x1="198.08" y1="87.93" x2="207.83" y2="90.82"/><rect class="cls-7" x="192.11" y="84.85" width="3.73" height="3.73" transform="translate(32.61 -51.52) rotate(16.5)"/><line class="cls-5" x1="216.04" y1="93.25" x2="226.03" y2="96.21"/><rect class="cls-8" x="210.07" y="90.17" width="3.73" height="3.73" transform="translate(34.86 -56.4) rotate(16.5)"/><line class="cls-5" x1="234.24" y1="98.64" x2="243.99" y2="101.53"/><rect class="cls-9" x="228.27" y="95.56" width="3.73" height="3.73" transform="matrix(0.96, 0.28, -0.28, 0.96, 37.14, -61.34)"/><rect class="cls-6" x="167.27" y="105.66" width="3.05" height="17.95" transform="translate(39.51 -43.22) rotate(16.5)"/><rect class="cls-7" x="169.21" y="114.42" width="3.05" height="9.94" transform="translate(40.94 -43.57) rotate(16.5)"/><rect class="cls-8" x="174.33" y="101.21" width="3.05" height="24.36" transform="translate(39.44 -45.27) rotate(16.5)"/><rect class="cls-6" x="179.19" y="107.56" width="3.05" height="19.55" transform="translate(40.76 -46.49) rotate(16.5)"/><rect class="cls-7" x="181.66" y="112.65" width="3.05" height="15.28" transform="translate(41.7 -47.07) rotate(16.5)"/><rect class="cls-8" x="184.35" y="116.17" width="3.05" height="12.61" transform="translate(42.44 -47.74) rotate(16.5)"/><rect class="cls-6" x="190" y="117.85" width="3.05" height="12.61" transform="translate(43.14 -49.28) rotate(16.5)"/><rect class="cls-7" x="192.69" y="121.37" width="3.05" height="9.94" transform="translate(43.88 -49.95) rotate(16.5)"/><rect class="cls-8" x="196.9" y="114.44" width="3.05" height="17.95" transform="translate(43.22 -51.27) rotate(16.5)"/><rect class="cls-6" x="204.14" y="105.13" width="3.05" height="29.16" transform="matrix(0.96, 0.28, -0.28, 0.96, 42.47, -53.48)"/><rect class="cls-7" x="206.08" y="113.89" width="3.05" height="21.15" transform="translate(43.89 -53.83) rotate(16.5)"/><rect class="cls-8" x="209.83" y="110.09" width="3.05" height="25.96" transform="translate(43.65 -54.96) rotate(16.5)"/><rect class="cls-6" x="213.21" y="127.45" width="3.05" height="9.94" transform="translate(46.45 -55.53) rotate(16.5)"/><rect class="cls-7" x="215.75" y="132.02" width="3.05" height="6.2" transform="translate(47.32 -56.14) rotate(16.5)"/><rect class="cls-8" x="219.73" y="126.65" width="3.05" height="12.61" transform="translate(46.87 -57.36) rotate(16.5)"/><rect class="cls-6" x="226.07" y="123.62" width="3.05" height="17.41" transform="translate(46.95 -59.19) rotate(16.5)"/><rect class="cls-7" x="231.03" y="111.46" width="3.05" height="30.76" transform="translate(45.6 -60.82) rotate(16.5)"/><rect class="cls-8" x="233.04" y="119.69" width="3.05" height="23.29" transform="translate(46.96 -61.21) rotate(16.5)"/><polyline class="cls-10" points="173.25 84.7 162.19 122.04 240.77 145.31"/><rect class="cls-11" x="143.8" y="73.43" width="122.8" height="94.77" transform="translate(12.8 261.12) rotate(-66.59)"/><rect class="cls-3" x="183.61" y="73.21" width="81.28" height="5.08" transform="translate(48.56 -82.87) rotate(23.41)"/><line class="cls-3" x1="182.92" y1="68.93" x2="247.25" y2="96.78"/><line class="cls-4" x1="181.44" y1="72.36" x2="232.54" y2="94.48"/><line class="cls-3" x1="160.14" y1="121.55" x2="224.47" y2="149.41"/><line class="cls-4" x1="158.65" y1="124.98" x2="218.57" y2="150.93"/><line class="cls-3" x1="155.02" y1="133.36" x2="219.36" y2="161.22"/><line class="cls-4" x1="153.54" y1="136.79" x2="212.48" y2="162.31"/><line class="cls-4" x1="151.92" y1="140.53" x2="210.86" y2="166.05"/><line class="cls-4" x1="150.3" y1="144.26" x2="209.25" y2="169.78"/><line class="cls-4" x1="148.69" y1="148" x2="207.63" y2="173.52"/><line class="cls-4" x1="147.07" y1="151.74" x2="206.01" y2="177.26"/><line class="cls-5" x1="184.9" y1="79.87" x2="194.23" y2="83.91"/><rect class="cls-6" x="179.11" y="76.31" width="3.73" height="3.73" transform="translate(45.96 -65.47) rotate(23.41)"/><line class="cls-5" x1="202.09" y1="87.31" x2="211.42" y2="91.35"/><rect class="cls-7" x="196.3" y="83.75" width="3.73" height="3.73" transform="translate(50.33 -71.69) rotate(23.41)"/><line class="cls-5" x1="219.27" y1="94.75" x2="228.84" y2="98.89"/><rect class="cls-8" x="213.48" y="91.19" width="3.73" height="3.73" transform="translate(54.7 -77.9) rotate(23.41)"/><line class="cls-5" x1="236.69" y1="102.3" x2="246.03" y2="106.34"/><rect class="cls-9" x="230.9" y="98.73" width="3.73" height="3.73" transform="translate(59.13 -84.2) rotate(23.41)"/><rect class="cls-6" x="168.28" y="101.33" width="3.05" height="17.95" transform="translate(57.8 -58.39) rotate(23.41)"/><rect class="cls-7" x="169.63" y="110.28" width="3.05" height="9.94" transform="translate(59.88 -58.52) rotate(23.41)"/><rect class="cls-8" x="175.43" y="97.73" width="3.05" height="24.36" transform="translate(58.24 -61.26) rotate(23.41)"/><rect class="cls-6" x="179.79" y="104.64" width="3.05" height="19.55" transform="translate(60.38 -62.62) rotate(23.41)"/><rect class="cls-7" x="181.88" y="110" width="3.05" height="15.28" transform="translate(61.84 -63.19) rotate(23.41)"/><rect class="cls-8" x="184.29" y="113.84" width="3.05" height="12.61" transform="translate(63.03 -63.94) rotate(23.41)"/><rect class="cls-6" x="189.7" y="116.18" width="3.05" height="12.61" transform="translate(64.41 -65.89) rotate(23.41)"/><rect class="cls-7" x="192.11" y="120.01" width="3.05" height="9.94" transform="translate(65.6 -66.65) rotate(23.41)"/><rect class="cls-8" x="196.64" y="113.6" width="3.05" height="17.95" transform="translate(65.02 -68.64) rotate(23.41)"/><rect class="cls-6" x="204.27" y="105.2" width="3.05" height="29.16" transform="translate(64.53 -71.91) rotate(23.41)"/><rect class="cls-7" x="205.62" y="114.15" width="3.05" height="21.15" transform="translate(66.61 -72.04) rotate(23.41)"/><rect class="cls-8" x="209.52" y="110.81" width="3.05" height="25.96" transform="translate(66.56 -73.66) rotate(23.41)"/><rect class="cls-6" x="211.75" y="128.51" width="3.05" height="9.94" transform="translate(70.59 -73.75) rotate(23.41)"/><rect class="cls-7" x="213.94" y="133.37" width="3.05" height="6.2" transform="translate(71.96 -74.38) rotate(23.41)"/><rect class="cls-8" x="218.15" y="128.5" width="3.05" height="12.61" transform="translate(71.65 -76.19) rotate(23.41)"/><rect class="cls-6" x="224.52" y="126.23" width="3.05" height="17.41" transform="translate(72.22 -78.7) rotate(23.41)"/><rect class="cls-7" x="230.11" y="114.71" width="3.05" height="30.76" transform="translate(70.76 -81.32) rotate(23.41)"/><rect class="cls-8" x="231.56" y="123.15" width="3.05" height="23.29" transform="translate(72.74 -81.52) rotate(23.41)"/><polyline class="cls-10" points="177.83 81.12 162.36 116.86 237.56 149.42"/><path class="cls-12" d="M111.57,222.12h51.56c-4.78-2.83-7.11-7.87-6.51-15.57H118.07C119.27,213.63,117.08,218.81,111.57,222.12Z"/><rect class="cls-13" x="111.05" y="221.5" width="52.6" height="4.74"/><path class="cls-14" d="M219.29,99.79a7.59,7.59,0,0,0-7.6-7.59H63a7.59,7.59,0,0,0-7.59,7.59v88.37H219.29Z"/><path class="cls-11" d="M55.41,188.16v11.38A7.59,7.59,0,0,0,63,207.13H211.69a7.59,7.59,0,0,0,7.6-7.59V188.16Z"/><rect class="cls-15" x="61.67" y="98.66" width="151.37" height="84.96"/><rect class="cls-16" x="69.19" y="105.95" width="136.11" height="3.57"/><rect class="cls-17" x="69.19" y="109.52" width="136.11" height="67.37"/><rect class="cls-18" x="75.74" y="110.48" width="7.7" height="3.02"/><rect class="cls-18" x="97.65" y="110.48" width="7.7" height="3.02"/><rect class="cls-18" x="108.05" y="110.48" width="7.7" height="3.02"/><rect class="cls-11" x="120.27" y="110.48" width="70.73" height="3.02"/><rect class="cls-16" x="191" y="110.48" width="7.75" height="3.02"/><rect class="cls-11" x="73.83" y="115.98" width="126.83" height="58.57"/><rect class="cls-18" x="80.98" y="120.93" width="112.89" height="18.56"/><rect class="cls-19" x="87.43" y="121.96" width="102.49" height="3.92"/><rect class="cls-19" x="87.43" y="128.46" width="24.18" height="3.92"/><rect class="cls-19" x="124.33" y="133.87" width="13.86" height="3.92"/><rect class="cls-19" x="154.71" y="130.29" width="35.14" height="3.92"/><rect class="cls-18" x="166" y="161.35" width="25.57" height="10.52"/><line class="cls-20" x1="80.63" y1="142.38" x2="172.19" y2="142.38"/><line class="cls-20" x1="80.63" y1="145.27" x2="183.9" y2="145.27"/><line class="cls-20" x1="80.63" y1="148.15" x2="186.59" y2="148.15"/><line class="cls-20" x1="80.63" y1="151.04" x2="162.29" y2="151.04"/><line class="cls-20" x1="80.63" y1="155.38" x2="185.66" y2="155.38"/><line class="cls-20" x1="80.63" y1="158.27" x2="189.27" y2="158.27"/><line class="cls-20" x1="80.63" y1="161.16" x2="161.77" y2="161.16"/><line class="cls-20" x1="80.63" y1="164.04" x2="136.72" y2="164.04"/><line class="cls-20" x1="80.63" y1="167.75" x2="161.77" y2="167.75"/><line class="cls-20" x1="80.63" y1="170.64" x2="161.73" y2="170.64"/><polygon class="cls-21" points="97.16 171.24 30.77 171.24 30.77 254.35 101.71 254.35 101.71 175.78 97.16 171.24"/><polygon class="cls-11" points="79.76 152.48 26.92 152.48 26.92 250.37 98.68 250.37 98.68 172.23 79.76 152.48"/><polygon class="cls-22" points="79.44 171.87 79.76 152.48 98.68 172.23 79.44 171.87"/><polygon class="cls-23" points="98.68 172.23 98.36 191.62 79.44 171.87 98.68 172.23"/><rect class="cls-22" x="40.46" y="175.37" width="22.89" height="2.27"/><rect class="cls-24" x="40.46" y="184.48" width="44.66" height="2.27"/><rect class="cls-24" x="40.46" y="189.7" width="44.66" height="2.27"/><rect class="cls-24" x="40.46" y="194.92" width="44.66" height="2.27"/><rect class="cls-24" x="40.46" y="200.15" width="44.66" height="2.27"/><rect class="cls-24" x="40.46" y="205.37" width="44.66" height="2.27"/><rect class="cls-24" x="40.46" y="210.6" width="44.66" height="2.27"/><rect class="cls-24" x="40.46" y="215.82" width="44.66" height="2.27"/><circle class="cls-25" cx="44.98" cy="232.92" r="3.6"/><path class="cls-25" d="M41.38,240.34a3.6,3.6,0,0,1,7.2,0"/><path class="cls-26" d="M84.73,233.8a5.87,5.87,0,0,0-3.13.26,2.21,2.21,0,0,0-1.18,2.35,3.8,3.8,0,0,0,.07.65s0,0,0,.07l0,0c-.1-.05-.18,0-.11,0A2.18,2.18,0,0,0,81,236a1.73,1.73,0,0,0-.77-2.22,5.18,5.18,0,0,0-2.89-.15A3.81,3.81,0,0,0,74.85,235a3.12,3.12,0,0,0-.41,2.67c0,.11.08.19.11.29a.16.16,0,0,1,.06.08s0,0,0,0c-.28,0-.24.06-.19,0a.91.91,0,0,0,.16-.23,3.15,3.15,0,0,0,.37-1.35,2.9,2.9,0,0,0-1-2.47,5.6,5.6,0,0,0-2.77-1,6.25,6.25,0,0,0-2.95.14,1.24,1.24,0,0,0-.74.87,2.94,2.94,0,0,0,.07,1.37A8.69,8.69,0,0,0,68.79,238c.07.11.15.21.22.3l.1.11,0,0-.12-.05a.52.52,0,0,0-.35,0,.44.44,0,0,0-.18.2c0,.1,0,0,0,0,.1-.24.18-.49.26-.74a8.71,8.71,0,0,0,.29-1.49,3.31,3.31,0,0,0-.6-2.8,4.85,4.85,0,0,0-2.78-1.38,4.79,4.79,0,0,1,3.15,1,3.46,3.46,0,0,1,1,1.49,5.54,5.54,0,0,1,.24,1.76,7.43,7.43,0,0,1-.34,1.7q-.12.41-.27.81l0,.07a.7.7,0,0,1-.21.21.52.52,0,0,1-.39,0,.43.43,0,0,1-.21-.1.43.43,0,0,1-.14-.12,1.41,1.41,0,0,1-.17-.18,4.22,4.22,0,0,1-.27-.36,9.89,9.89,0,0,1-1.47-3.11,4,4,0,0,1-.06-1.85,2.25,2.25,0,0,1,1.29-1.54,4.35,4.35,0,0,1,1.81-.33,13.57,13.57,0,0,1,1.69.11,6.57,6.57,0,0,1,3.27,1.25,3.91,3.91,0,0,1,1.42,3.3,4.22,4.22,0,0,1-.5,1.78,1.93,1.93,0,0,1-.31.43.84.84,0,0,1-.28.23,1,1,0,0,1-.26.09.74.74,0,0,1-.35,0,1.48,1.48,0,0,1-.73-1,4.12,4.12,0,0,1,.54-3.57,4.83,4.83,0,0,1,3.09-1.76,6.11,6.11,0,0,1,3.52.23A2.45,2.45,0,0,1,82,234.35a3.37,3.37,0,0,1,0,1.89,2.94,2.94,0,0,1-1,1.66A.86.86,0,0,1,80,238a.88.88,0,0,1-.34-.32,1.28,1.28,0,0,1-.14-.29,2.65,2.65,0,0,1-.13-1,3.73,3.73,0,0,1,.54-1.76,2.66,2.66,0,0,1,1.46-1.09A5.66,5.66,0,0,1,84.73,233.8Z"/></svg>