<svg xmlns="http://www.w3.org/2000/svg" xmlns:xlink="http://www.w3.org/1999/xlink" viewBox="0 0 300 300"><defs><style>.cls-1{isolation:isolate;}.cls-2{fill:#24465f;}.cls-3{mix-blend-mode:multiply;opacity:0.2;fill:url(#linear-gradient);}.cls-4{fill:#fdd264;}.cls-5{fill:#1fbcc0;}.cls-6{fill:#f05832;}.cls-7{fill:#5ec5c9;}</style><linearGradient id="linear-gradient" x1="557.44" y1="395.66" x2="389.22" y2="220.58" gradientTransform="matrix(0.89, 0.02, 0.02, 0.89, -177.24, -12.2)" gradientUnits="userSpaceOnUse"><stop offset="0" stop-color="#fff"/><stop offset="0.14" stop-color="#f9f9fa"/><stop offset="0.32" stop-color="#e9e9ea"/><stop offset="0.53" stop-color="#cecfd0"/><stop offset="0.75" stop-color="#a9aaac"/><stop offset="0.99" stop-color="#7a7c7f"/><stop offset="1" stop-color="#77797c"/></linearGradient></defs><g class="cls-1"><g id="Layer_1" data-name="Layer 1"><path class="cls-2" d="M300.51,300.51H1.65a2.16,2.16,0,0,1-2.16-2.16V1.65A2.16,2.16,0,0,1,1.65-.51H300.51"/><path class="cls-3" d="M300.13,299.51H157.41a2.17,2.17,0,0,1-1.54-.64L87.81,230a2.16,2.16,0,0,1-.59-1.89l1.68-9.66a2.15,2.15,0,0,1,1.58-1.72L138.58,204a2.17,2.17,0,0,0,1.54-1.55L172.67,75.28a2.17,2.17,0,0,1,3.63-1L300.13,198.12"/><path class="cls-4" d="M117.19,66a7,7,0,0,0-6.2,4.43s-6.47,18.93-6.47,33.08c0,33.59,16.79,60.82,37.51,60.82s37.5-27.23,37.5-60.82c0-14.15-6.46-33.08-6.46-33.08a7,7,0,0,0-6.2-4.43Z"/><path class="cls-5" d="M173.62,146.58H112.2a14.83,14.83,0,0,0-14.83,14.84v5.4l2.33,3.6c12,5.12,27,8.12,43.54,8.12,16.09,0,30.77-2.85,42.59-7.73l2.63-4v-5.39A14.83,14.83,0,0,0,173.62,146.58Z"/><path class="cls-6" d="M173.62,146.58H112.2a14.83,14.83,0,0,0-14.83,14.84v.64a2.16,2.16,0,0,0,1.2,1.95c11.76,5.7,27.44,9.18,44.67,9.18,16.9,0,32.31-3.36,44-8.86a2.17,2.17,0,0,0,1.23-2v-.94A14.83,14.83,0,0,0,173.62,146.58Z"/><path class="cls-7" d="M91.58,162.83a6.41,6.41,0,0,0,2.43,5,2.16,2.16,0,0,0,3.46-1.74V131.41a2.16,2.16,0,0,0-2.16-2.16H93.74a2.16,2.16,0,0,0-2.16,2.16Z"/><path class="cls-6" d="M102.83,127.55a3,3,0,0,1-3,3H88.81a3,3,0,0,1-3-3h0a3,3,0,0,1,3-2.94H99.88a3,3,0,0,1,3,2.94Z"/><path class="cls-7" d="M194.27,163.72a6.41,6.41,0,0,1-2.43,5,2.16,2.16,0,0,1-3.46-1.74V132.3a2.16,2.16,0,0,1,2.16-2.16h1.57a2.16,2.16,0,0,1,2.16,2.16Z"/><path class="cls-6" d="M183,128.44a3,3,0,0,0,2.94,2.95H197a2.94,2.94,0,0,0,2.94-2.95h0A2.94,2.94,0,0,0,197,125.5H186a2.94,2.94,0,0,0-2.94,2.94Z"/><rect class="cls-6" x="139.53" y="178.68" width="6.4" height="9.41" rx="2.16"/><rect class="cls-6" x="85.18" y="224.01" width="4.32" height="5.76" rx="2.16"/><path class="cls-5" d="M89.58,212.75c-2.32.88-5.76,2.58-5.76,5.76v5.64H88.5A2.15,2.15,0,0,0,90.66,222v-1.94A2.15,2.15,0,0,1,92.17,218a98.54,98.54,0,0,1,10.71-2.72c13.35-2.61,25.88-2.37,35.07.13a2.14,2.14,0,0,0,2.7-2.08v-7a2.16,2.16,0,0,0-2.21-2.17C114.29,204.71,89.58,212.75,89.58,212.75Z"/><rect class="cls-6" x="195.96" y="224.01" width="4.32" height="5.76" rx="2.16"/><path class="cls-5" d="M195.88,212.75c2.32.88,5.76,2.58,5.76,5.76v5.64H197A2.16,2.16,0,0,1,194.8,222v-1.94a2.15,2.15,0,0,0-1.5-2.07,99.32,99.32,0,0,0-10.72-2.72c-13.35-2.61-25.87-2.37-35.07.13a2.14,2.14,0,0,1-2.7-2.08v-7a2.17,2.17,0,0,1,2.21-2.17C171.17,204.71,195.88,212.75,195.88,212.75Z"/><rect class="cls-7" x="138.81" y="204.34" width="7.84" height="31.3" rx="2.16"/><rect class="cls-6" x="140.57" y="235.48" width="4.32" height="5.76" rx="2.16"/><rect class="cls-7" x="99.41" y="186" width="39.41" height="2.05"/><rect class="cls-4" x="135.85" y="186" width="13.77" height="18.26" rx="2.16"/><path class="cls-4" d="M104,184.53h-2.54a3.52,3.52,0,0,0-3.51,3.52h9.56A3.52,3.52,0,0,0,104,184.53Z"/></g></g></svg>