<?xml version="1.0" encoding="utf-8"?>
<!-- Generator: Adobe Illustrator 25.4.1, SVG Export Plug-In . SVG Version: 6.00 Build 0)  -->
<svg version="1.1" id="Layer_1" xmlns="http://www.w3.org/2000/svg" xmlns:xlink="http://www.w3.org/1999/xlink" x="0px" y="0px"
	 viewBox="0 0 100.1 150" style="enable-background:new 0 0 100.1 150;" xml:space="preserve">
<style type="text/css">
	.st0{fill:#F2A74E;}
	.st1{fill:#F9B65D;}
	.st2{fill:#B7B5AB;}
	.st3{fill:#F4F0DC;}
	.st4{fill:#53AA5B;}
</style>
<path class="st0" d="M50.1,0.1l-4.7,1.2l1,139.3l3.7,9.4c0,0,50-72.3,50-100C100.1,22.4,77.7,0.1,50.1,0.1z"/>
<path class="st1" d="M0,50c0,27.7,50.1,99.9,50.1,99.9V0.1C22.5,0,0.1,22.3,0,49.9C0,50,0,50,0,50z"/>
<circle class="st2" cx="51.9" cy="51.2" r="39.2"/>
<circle class="st3" cx="50" cy="48.9" r="39.2"/>
<path class="st4" d="M46.9,62.3c0-0.8-0.1-1.5-0.1-1.9c0-2.2,0.3-4.3,1.1-6.4c0.6-1.5,1.4-2.8,2.5-4c1.4-1.6,2.9-3,4.5-4.4
	c1.6-1.3,3.1-2.9,4.2-4.6c0.7-1.1,1-2.4,1-3.7c0-2.4-1.1-4.8-2.9-6.4c-1.9-1.8-4.4-2.8-7-2.8c-2.5-0.1-4.9,0.8-6.7,2.5
	c-1.8,1.7-3,4.3-3.5,7.8l-6.5-0.8c0.6-4.8,2.3-8.4,5.2-10.9c2.9-2.5,6.6-3.8,11.3-3.8c5,0,9,1.3,12,4.1c2.9,2.5,4.5,6.1,4.5,9.9
	c0,2.2-0.5,4.3-1.6,6.2c-1.7,2.6-3.7,4.9-6.1,6.9c-1.5,1.2-2.8,2.5-4,4c-0.6,0.9-1.1,1.9-1.4,3c-0.4,1.8-0.6,3.6-0.5,5.4L46.9,62.3z
	 M46.5,74.9v-7.1h7.2v7.2L46.5,74.9z"/>
</svg>
