<svg xmlns="http://www.w3.org/2000/svg" viewBox="0 0 634 768"><defs><style>.a{fill:#e0ae0c;}.b{fill:#333;}</style></defs><path class="a" d="M148,555.83H479.54a15.66,15.66,0,0,0,3.45-.43c.11,0,.19,0,.26,0a15.19,15.19,0,0,0,15.19-15.2V111.15A15.19,15.19,0,0,0,483.25,96H148a73.34,73.34,0,0,0-73.27,73.28c0,.52.1,1,.14,1.59,0,37.29-.51,380.24,0,425.31,0,.89-.14,1.74-.14,2.63a73.32,73.32,0,0,0,68.68,73.06,15.72,15.72,0,0,0,2.3.23H544.15a15.2,15.2,0,0,0,15.19-15.2V514.35a15.18,15.18,0,1,0-30.36,0V641.68H148a43,43,0,0,1-42.84-41.18,11.69,11.69,0,0,0,.11-1.19c0-.66,0-1.7-.07-3.11A43,43,0,0,1,148,555.83Z"/><path class="a" d="M559.34,274a15.24,15.24,0,0,1-15.24,15.24h0A15.25,15.25,0,0,1,528.86,274V111.19A15.25,15.25,0,0,1,544.1,96h0a15.24,15.24,0,0,1,15.24,15.24Z"/><polygon class="b" points="214.84 196.88 181.2 174.12 147.56 196.88 147.56 95.95 214.84 95.95 214.84 196.88"/></svg>