<svg id="Layer_1" data-name="Layer 1" xmlns="http://www.w3.org/2000/svg" viewBox="0 0 150 150"><defs><style>.cls-1{fill:#a9d9ed;}.cls-2{fill:#333;opacity:0.1;}.cls-3{fill:#808285;}.cls-4{fill:#ea821d;}.cls-5{fill:#f99b1d;}.cls-6{fill:#f2f2f5;}.cls-7{fill:#3b4e67;}.cls-8{fill:#4a697e;}.cls-9{fill:#25847e;}.cls-10{fill:#d84440;}</style></defs><rect class="cls-1" x="8.45" y="2.91" width="133.09" height="144.18" rx="8.22"/><path class="cls-2" d="M141.55,138.87V56.35c-17.25-12.14-33.47-23.23-33.47-23.23L41.73,123.74l38.44,23.35h53.16A8.22,8.22,0,0,0,141.55,138.87Z"/><path class="cls-1" d="M108.08,33.12s16.22,11.09,33.47,23.23V11.13a8.22,8.22,0,0,0-8.22-8.22H16.67a8.22,8.22,0,0,0-8.22,8.22V138.87a8.22,8.22,0,0,0,8.22,8.22h63.5L41.92,123.53Z"/><path class="cls-3" d="M107.49,123.53h-65a1,1,0,0,1-.59-.18.41.41,0,0,1-.19-.33v.72a.43.43,0,0,0,.19.34,1.06,1.06,0,0,0,.59.17h65c.43,0,.78-.23.78-.51V123C108.27,123.3,107.92,123.53,107.49,123.53Z"/><path class="cls-4" d="M41.92,123.53a.77.77,0,0,0,.59.27h65a.78.78,0,0,0,.78-.78V33.64a.79.79,0,0,0-.19-.52l-4.24,4.17v82.07H46.16Z"/><path class="cls-5" d="M107.49,32.85h-65a.78.78,0,0,0-.78.79V123a.76.76,0,0,0,.19.51l4.24-4.17V37.29h57.68l4.24-4.17A.8.8,0,0,0,107.49,32.85Z"/><rect class="cls-6" x="33.96" y="49.49" width="82.07" height="57.67" transform="translate(153.33 3.33) rotate(90)"/><path class="cls-7" d="M75,28.42a4.54,4.54,0,0,1,4.18,2.21H75v8.88H88.31l-2.22-8.88H81.52C80.9,28.1,78.22,26.2,75,26.2h0v2.22Z"/><path class="cls-8" d="M68.48,30.63H63.91l-2.22,8.88H75V30.63H70.82A4.54,4.54,0,0,1,75,28.42V26.2C71.78,26.2,69.1,28.1,68.48,30.63Z"/><path class="cls-9" d="M63,99.4H56a3.13,3.13,0,0,0-3.13,3.13v7A3.13,3.13,0,0,0,56,112.71h7a3.13,3.13,0,0,0,3.13-3.13v-7A3.13,3.13,0,0,0,63,99.4Zm1.46,10.08a1.56,1.56,0,0,1-1.56,1.57H56.05a1.57,1.57,0,0,1-1.57-1.57v-6.85a1.57,1.57,0,0,1,1.57-1.57H62.9a1.56,1.56,0,0,1,1.56,1.57Z"/><path class="cls-9" d="M63,81.66H56a3.13,3.13,0,0,0-3.13,3.13v7A3.13,3.13,0,0,0,56,95h7a3.13,3.13,0,0,0,3.13-3.13v-7A3.13,3.13,0,0,0,63,81.66Zm1.46,10.08A1.56,1.56,0,0,1,62.9,93.3H56.05a1.56,1.56,0,0,1-1.57-1.56V84.88a1.56,1.56,0,0,1,1.57-1.56H62.9a1.56,1.56,0,0,1,1.56,1.56Z"/><path class="cls-9" d="M63,63.91H56A3.13,3.13,0,0,0,52.82,67v7A3.13,3.13,0,0,0,56,77.22h7a3.13,3.13,0,0,0,3.13-3.13V67A3.13,3.13,0,0,0,63,63.91ZM64.46,74a1.57,1.57,0,0,1-1.56,1.57H56.05A1.57,1.57,0,0,1,54.48,74V67.14a1.57,1.57,0,0,1,1.57-1.57H62.9a1.56,1.56,0,0,1,1.56,1.57Z"/><path class="cls-9" d="M63,46.16H56a3.13,3.13,0,0,0-3.13,3.13v7.05A3.13,3.13,0,0,0,56,59.47h7a3.13,3.13,0,0,0,3.13-3.13V49.29A3.13,3.13,0,0,0,63,46.16Zm1.46,10.08a1.56,1.56,0,0,1-1.56,1.57H56.05a1.57,1.57,0,0,1-1.57-1.57V49.39a1.56,1.56,0,0,1,1.57-1.56H62.9a1.56,1.56,0,0,1,1.56,1.56Z"/><path class="cls-10" d="M58.33,74.45s-.45-3.49-2.67-4.84c.75,0,1.26-1.43,1.23-2.18a6.13,6.13,0,0,1,2.16,3.41,18.34,18.34,0,0,1,3.63-5.4,24.77,24.77,0,0,1,5.26-4.3,1.37,1.37,0,0,0,.89,1.42,25.45,25.45,0,0,0-5.35,4.85,21.08,21.08,0,0,0-3.22,6A3.13,3.13,0,0,0,58.33,74.45Z"/><path class="cls-10" d="M58.33,56.7s-.45-3.49-2.67-4.83c.75-.06,1.26-1.43,1.23-2.19a6.18,6.18,0,0,1,2.16,3.42,18.22,18.22,0,0,1,3.63-5.4,24.53,24.53,0,0,1,5.26-4.31,1.38,1.38,0,0,0,.89,1.43,25.13,25.13,0,0,0-5.35,4.84,21.34,21.34,0,0,0-3.22,6A3.13,3.13,0,0,0,58.33,56.7Z"/><path class="cls-7" d="M95.21,53.65H72.53c-.47,0-.86-.26-.86-.59v-.49c0-.32.39-.58.86-.58H95.21c.48,0,.86.26.86.58v.49C96.07,53.39,95.69,53.65,95.21,53.65Z"/><path class="cls-7" d="M95.21,71.39H72.53c-.47,0-.86-.26-.86-.58v-.49c0-.33.39-.59.86-.59H95.21c.48,0,.86.26.86.59v.49C96.07,71.13,95.69,71.39,95.21,71.39Z"/><path class="cls-7" d="M95.21,89.14H72.53c-.47,0-.86-.26-.86-.59v-.49c0-.32.39-.58.86-.58H95.21c.48,0,.86.26.86.58v.49C96.07,88.88,95.69,89.14,95.21,89.14Z"/><path class="cls-7" d="M95.21,106.89H72.53c-.47,0-.86-.27-.86-.59v-.49c0-.32.39-.59.86-.59H95.21c.48,0,.86.27.86.59v.49C96.07,106.62,95.69,106.89,95.21,106.89Z"/></svg>