<svg id="Layer_1" data-name="Layer 1" xmlns="http://www.w3.org/2000/svg" viewBox="0 0 301.03 301.02"><defs><style>.cls-1,.cls-12,.cls-13{fill:#fff;}.cls-2{fill:#76d3dd;}.cls-3{fill:#3db3e1;}.cls-4{fill:#fdc966;}.cls-5{fill:#f9903b;}.cls-6{fill:#e04b5a;}.cls-7{fill:#89163f;}.cls-8{fill:#10557f;}.cls-10,.cls-11,.cls-12,.cls-13,.cls-9{isolation:isolate;}.cls-10,.cls-11{font-size:17.77px;}.cls-10,.cls-11,.cls-12,.cls-13{font-family:Arial-BoldMT, Arial;font-weight:700;}.cls-10{letter-spacing:-0.03em;}.cls-11{letter-spacing:-0.03em;}.cls-12{font-size:10.15px;}.cls-13{font-size:15.23px;}</style></defs><ellipse class="cls-1" cx="150.51" cy="150.51" rx="148.34" ry="148.62"/><path class="cls-2" d="M84.91,73.82,104,111.62a60.45,60.45,0,0,1,44.17-21.7l17.67-38.51L148.24,13.5a136.72,136.72,0,0,0-104,50.42Z"/><path class="cls-3" d="M49.64,154l41.47,8.65a60.69,60.69,0,0,1,10.59-48.07L82.58,76.74,42,66.87a136.44,136.44,0,0,0-28.5,83.67,138.74,138.74,0,0,0,3.09,29.09Z"/><path class="cls-4" d="M169.56,51.4,151.89,89.9a60.47,60.47,0,0,1,44.51,21l41.14-10.22,18.68-37.41A136.76,136.76,0,0,0,152,13.49Z"/><path class="cls-5" d="M258.54,66.21l-18.68,37.4-41.09,10.23a60.56,60.56,0,0,1,11.34,47.86l33.61,25.8,40.91-8.71a137.28,137.28,0,0,0-26-112.57Z"/><path class="cls-6" d="M242.87,191.13l-33.58-25.77a60.77,60.77,0,0,1-30.39,38.72l.78,42.34L212,273a137.31,137.31,0,0,0,71.79-90.56Z"/><path class="cls-7" d="M176.32,248.05l-.78-42.34a60.58,60.58,0,0,1-49.22.39l-32.63,27L93.09,275a137.3,137.3,0,0,0,115.56-.35Z"/><path class="cls-8" d="M90.34,231.51l32.6-27a60.82,60.82,0,0,1-31-38.2L50.48,157.6,17.4,183.21a137.28,137.28,0,0,0,72.32,90.13Z"/><g class="cls-9"><text class="cls-10" transform="translate(118.64 124.33)">GFEBS </text><text class="cls-11" transform="translate(97.12 145.64)">HR &amp; Payroll </text><text class="cls-10" transform="translate(107.28 166.96)">and Labor </text><text class="cls-10" transform="translate(117.38 188.27)">Process</text></g><g class="cls-9"><text class="cls-12" transform="translate(205.74 215.31)">Payroll</text><text class="cls-12" transform="translate(198.69 227.49)">Data Flow</text></g><path class="cls-1" d="M231.9,118.8v-7.26h1.46v2.86h2.87v-2.86h1.47v7.26h-1.46v-3.17h-2.88v3.17Z"/><path class="cls-1" d="M242.66,118.8V118a2,2,0,0,1-.76.66,2.1,2.1,0,0,1-1,.24,1.78,1.78,0,0,1-.93-.23,1.38,1.38,0,0,1-.61-.65,2.91,2.91,0,0,1-.19-1.17v-3.33h1.4V116a7,7,0,0,0,.07,1.37.79.79,0,0,0,.28.39.8.8,0,0,0,.52.15,1.07,1.07,0,0,0,.63-.2.92.92,0,0,0,.39-.48,5.67,5.67,0,0,0,.1-1.42V113.6H244v5.2Z"/><path class="cls-1" d="M245.32,113.58h1.28v.71a2,2,0,0,1,1.64-.83,1.58,1.58,0,0,1,1.48.83,2.69,2.69,0,0,1,.76-.62,1.78,1.78,0,0,1,.85-.21,1.89,1.89,0,0,1,1,.24,1.47,1.47,0,0,1,.59.69,2.86,2.86,0,0,1,.15,1.08v3.33h-1.39v-3a2.17,2.17,0,0,0-.15-1,.66.66,0,0,0-.6-.3.93.93,0,0,0-.55.18,1.09,1.09,0,0,0-.37.52,3.93,3.93,0,0,0-.11,1.08v2.53H248.5v-2.88a4.1,4.1,0,0,0-.08-1,.52.52,0,0,0-.23-.33.68.68,0,0,0-.42-.11,1,1,0,0,0-.58.18.89.89,0,0,0-.37.5,3.55,3.55,0,0,0-.11,1.08v2.55h-1.39Z"/><path class="cls-1" d="M255.49,115.19l-1.27-.24a2,2,0,0,1,.74-1.12,2.6,2.6,0,0,1,1.54-.37,3.3,3.3,0,0,1,1.39.22,1.39,1.39,0,0,1,.64.56,2.76,2.76,0,0,1,.18,1.24v1.63a5.77,5.77,0,0,0,.07,1,2.85,2.85,0,0,0,.25.71h-1.38a2.46,2.46,0,0,0-.14-.41,1,1,0,0,0,0-.17,2.45,2.45,0,0,1-.76.52,2.19,2.19,0,0,1-.87.18,1.76,1.76,0,0,1-1.28-.44,1.46,1.46,0,0,1-.48-1.11,1.51,1.51,0,0,1,.22-.8,1.34,1.34,0,0,1,.6-.53,4.3,4.3,0,0,1,1.11-.33,7.85,7.85,0,0,0,1.35-.34v-.14a.74.74,0,0,0-.2-.58,1.22,1.22,0,0,0-.75-.16.9.9,0,0,0-.58.14A1,1,0,0,0,255.49,115.19Zm1.86,1.12a6.21,6.21,0,0,1-.85.21,2.88,2.88,0,0,0-.75.25.58.58,0,0,0-.28.49.7.7,0,0,0,.22.51.76.76,0,0,0,.55.21,1.22,1.22,0,0,0,.73-.25.84.84,0,0,0,.32-.46,2.57,2.57,0,0,0,.06-.68Z"/><path class="cls-1" d="M264.88,118.8h-1.4v-2.68a4.5,4.5,0,0,0-.08-1.1.79.79,0,0,0-.77-.53,1.08,1.08,0,0,0-.65.19,1,1,0,0,0-.4.53,5,5,0,0,0-.11,1.21v2.38h-1.39v-5.26h1.29v.77a2.15,2.15,0,0,1,1.74-.93,2.21,2.21,0,0,1,.84.17,1.38,1.38,0,0,1,.58.43,1.4,1.4,0,0,1,.27.58,4.87,4.87,0,0,1,.08.93Z"/><path class="cls-1" d="M226,131v-7.26h3.1a5.36,5.36,0,0,1,1.69.19,1.7,1.7,0,0,1,.84.7,2.18,2.18,0,0,1,.32,1.14,2,2,0,0,1-.48,1.35,2.35,2.35,0,0,1-1.44.68,3.1,3.1,0,0,1,.79.61,7.58,7.58,0,0,1,.83,1.18l.93,1.41h-1.76l-1-1.58a9,9,0,0,0-.78-1.06,1.18,1.18,0,0,0-.43-.31,2.74,2.74,0,0,0-.75-.08h-.29v3Zm1.47-4.19h1.09a5.87,5.87,0,0,0,1.32-.09.93.93,0,0,0,.41-.3,1,1,0,0,0,.14-.55.81.81,0,0,0-.73-.88h-2.23Z"/><path class="cls-1" d="M236.34,129.35l1.38.23a2.22,2.22,0,0,1-.84,1.16,2.47,2.47,0,0,1-1.45.4,2.35,2.35,0,0,1-2-.93,2.93,2.93,0,0,1-.52-1.81,2.88,2.88,0,0,1,.68-2.06,2.22,2.22,0,0,1,1.72-.74,2.34,2.34,0,0,1,1.86.78,3.49,3.49,0,0,1,.65,2.38h-3.51a1.34,1.34,0,0,0,.34.93,1,1,0,0,0,.8.34.82.82,0,0,0,.55-.17A1.14,1.14,0,0,0,236.34,129.35Zm.08-1.41a1.37,1.37,0,0,0-.32-.93.89.89,0,0,0-.72-.31.94.94,0,0,0-.75.33,1.25,1.25,0,0,0-.29.93Z"/><path class="cls-1" d="M238.45,129.52l1.39-.21a1,1,0,0,0,.36.61,1.24,1.24,0,0,0,.77.22,1.36,1.36,0,0,0,.81-.2.43.43,0,0,0,.18-.37.35.35,0,0,0-.09-.26,1.14,1.14,0,0,0-.47-.19,7.74,7.74,0,0,1-2.14-.68,1.35,1.35,0,0,1-.62-1.19,1.42,1.42,0,0,1,.54-1.14,2.44,2.44,0,0,1,1.67-.47,2.91,2.91,0,0,1,1.61.35,1.82,1.82,0,0,1,.72,1l-1.31.24a.8.8,0,0,0-.32-.46,1.08,1.08,0,0,0-.68-.17,1.5,1.5,0,0,0-.78.16.32.32,0,0,0-.16.28.32.32,0,0,0,.14.25,5.11,5.11,0,0,0,1.3.39,4.16,4.16,0,0,1,1.56.62,1.32,1.32,0,0,1,.43,1,1.57,1.57,0,0,1-.6,1.24,2.68,2.68,0,0,1-1.79.52,2.94,2.94,0,0,1-1.71-.44A1.93,1.93,0,0,1,238.45,129.52Z"/><path class="cls-1" d="M244.26,128.31a2.9,2.9,0,0,1,.34-1.34,2.34,2.34,0,0,1,.93-1,2.87,2.87,0,0,1,1.4-.34,2.58,2.58,0,0,1,2,.78,2.69,2.69,0,0,1,.76,2,2.75,2.75,0,0,1-.76,2,2.63,2.63,0,0,1-1.95.78,3,3,0,0,1-1.38-.33,2.19,2.19,0,0,1-1-.93A3.13,3.13,0,0,1,244.26,128.31Zm1.43.08a1.74,1.74,0,0,0,.37,1.2,1.18,1.18,0,0,0,.93.42,1.21,1.21,0,0,0,.93-.42,2.18,2.18,0,0,0,0-2.4,1.17,1.17,0,0,0-.93-.41,1.14,1.14,0,0,0-.93.41A1.74,1.74,0,0,0,245.69,128.39Z"/><path class="cls-1" d="M254.24,131v-.78a2,2,0,0,1-.75.66,2.1,2.1,0,0,1-1,.24,2,2,0,0,1-.93-.23,1.45,1.45,0,0,1-.6-.65,2.92,2.92,0,0,1-.2-1.17v-3.33h1.4v2.41a7.82,7.82,0,0,0,.07,1.37.71.71,0,0,0,.29.39.79.79,0,0,0,.51.15,1,1,0,0,0,.64-.2.92.92,0,0,0,.39-.48,5.64,5.64,0,0,0,.11-1.42v-2.22h1.38V131Z"/><path class="cls-1" d="M258.31,131h-1.39v-5.26h1.29v.75a2.27,2.27,0,0,1,.61-.7,1.1,1.1,0,0,1,.59-.17,1.71,1.71,0,0,1,.93.27l-.43,1.2a1.27,1.27,0,0,0-.66-.22.8.8,0,0,0-.49.16,1.21,1.21,0,0,0-.33.58,9.57,9.57,0,0,0-.11,1.77Z"/><path class="cls-1" d="M265.52,127.32l-1.38.24a1,1,0,0,0-.3-.61,1,1,0,0,0-.65-.22,1,1,0,0,0-.82.37,1.87,1.87,0,0,0-.32,1.19,2.13,2.13,0,0,0,.32,1.33,1.07,1.07,0,0,0,.84.39.91.91,0,0,0,.65-.23,1.29,1.29,0,0,0,.36-.78l1.37.24a2.49,2.49,0,0,1-.81,1.43,2.64,2.64,0,0,1-1.63.47,2.39,2.39,0,0,1-1.86-.73,2.84,2.84,0,0,1-.69-2,2.81,2.81,0,0,1,.7-2,2.41,2.41,0,0,1,1.86-.73,2.48,2.48,0,0,1,1.52.41A2.33,2.33,0,0,1,265.52,127.32Z"/><path class="cls-1" d="M269.62,129.35l1.38.23a2.18,2.18,0,0,1-.84,1.16,2.49,2.49,0,0,1-1.45.4,2.36,2.36,0,0,1-2-.93,3.06,3.06,0,0,1-.52-1.81,2.87,2.87,0,0,1,.69-2.06,2.23,2.23,0,0,1,1.73-.74,2.32,2.32,0,0,1,1.86.78,3.49,3.49,0,0,1,.65,2.38h-3.5a1.45,1.45,0,0,0,.35.93,1,1,0,0,0,.8.34.81.81,0,0,0,.54-.17A1.15,1.15,0,0,0,269.62,129.35Zm.07-1.41a1.31,1.31,0,0,0-.31-.93.92.92,0,0,0-.72-.31.9.9,0,0,0-.75.33,1.26,1.26,0,0,0-.3.93Z"/><path class="cls-1" d="M224.56,143.21v-7.27h2.36a7.83,7.83,0,0,1,1.74.11,1.91,1.91,0,0,1,1.05.71,2.62,2.62,0,0,1,.17,2.54,1.93,1.93,0,0,1-.61.72,2.17,2.17,0,0,1-.76.34,8.74,8.74,0,0,1-1.53.1h-.93v2.75Zm1.47-6.05v2.1h.82a3.79,3.79,0,0,0,1.16-.12.93.93,0,0,0,.63-.93,1.06,1.06,0,0,0-.23-.66,1,1,0,0,0-.6-.31,6.17,6.17,0,0,0-1.05-.06Z"/><path class="cls-1" d="M234.37,141.52l1.39.24a2.32,2.32,0,0,1-.85,1.17,2.53,2.53,0,0,1-1.45.39,2.33,2.33,0,0,1-2-.93,3,3,0,0,1-.52-1.81,2.91,2.91,0,0,1,.68-2.06,2.52,2.52,0,0,1,3.59,0,3.37,3.37,0,0,1,.65,2.38h-3.5a1.44,1.44,0,0,0,.34.93,1,1,0,0,0,.8.35A.83.83,0,0,0,234,142,1.13,1.13,0,0,0,234.37,141.52Zm.08-1.4a1.32,1.32,0,0,0-.32-.93,1,1,0,0,0-1.47,0,1.25,1.25,0,0,0-.29.93Z"/><path class="cls-1" d="M238.3,143.21h-1.39v-5.27h1.29v.75a2.24,2.24,0,0,1,.6-.7,1.16,1.16,0,0,1,.6-.17,1.79,1.79,0,0,1,.93.26l-.42,1.22a1.19,1.19,0,0,0-.65-.23.86.86,0,0,0-.51.16,1.1,1.1,0,0,0-.31.58,7.54,7.54,0,0,0-.12,1.77Z"/><path class="cls-1" d="M240.43,141.7l1.39-.21a1.15,1.15,0,0,0,.36.62,1.24,1.24,0,0,0,.77.2,1.35,1.35,0,0,0,.81-.19.47.47,0,0,0,.19-.37.35.35,0,0,0-.1-.26,1.14,1.14,0,0,0-.47-.19,7.74,7.74,0,0,1-2.14-.68,1.35,1.35,0,0,1-.62-1.19,1.42,1.42,0,0,1,.54-1.14,2.51,2.51,0,0,1,1.67-.47,2.83,2.83,0,0,1,1.61.36,1.78,1.78,0,0,1,.73,1l-1.32.25a.82.82,0,0,0-.32-.47,1.12,1.12,0,0,0-.67-.17,1.46,1.46,0,0,0-.79.16.37.37,0,0,0-.16.28.32.32,0,0,0,.14.25,5.51,5.51,0,0,0,1.31.4,4,4,0,0,1,1.55.61,1.32,1.32,0,0,1,.43,1,1.58,1.58,0,0,1-.6,1.24,2.68,2.68,0,0,1-1.79.52,3,3,0,0,1-1.71-.43A2,2,0,0,1,240.43,141.7Z"/><path class="cls-1" d="M246.24,140.5a2.91,2.91,0,0,1,.34-1.35,2.4,2.4,0,0,1,.93-1,3,3,0,0,1,1.4-.34,2.68,2.68,0,0,1,2,.78,2.92,2.92,0,0,1,0,3.94,2.63,2.63,0,0,1-1.95.78,3,3,0,0,1-1.37-.33,2.17,2.17,0,0,1-1-.93A3.21,3.21,0,0,1,246.24,140.5Zm1.43.08a1.74,1.74,0,0,0,.37,1.2,1.22,1.22,0,0,0,1.73.12l.13-.12a1.86,1.86,0,0,0,.37-1.22,1.67,1.67,0,0,0-.37-1.18,1.2,1.2,0,0,0-1.7-.16l-.16.16A1.71,1.71,0,0,0,247.67,140.58Z"/><path class="cls-1" d="M257.53,143.21h-1.39v-2.69a4.17,4.17,0,0,0-.09-1.11.79.79,0,0,0-.29-.39.91.91,0,0,0-.49-.14,1.07,1.07,0,0,0-.64.21,1,1,0,0,0-.4.52,4.91,4.91,0,0,0-.1,1.21v2.39h-1.39v-5.27H254v.78a2.1,2.1,0,0,1,1.74-.93,2,2,0,0,1,.83.16,1.36,1.36,0,0,1,.58.42,1.88,1.88,0,0,1,.28.59,4.86,4.86,0,0,1,.07.93Z"/><path class="cls-1" d="M263.75,143.21h-1.39v-2.69a4.17,4.17,0,0,0-.09-1.11A.75.75,0,0,0,262,139a.91.91,0,0,0-.49-.14,1.1,1.1,0,0,0-.65.21,1.06,1.06,0,0,0-.39.52,4.47,4.47,0,0,0-.1,1.21v2.39H259v-5.27h1.29v.78a2.07,2.07,0,0,1,1.73-.93,2,2,0,0,1,.84.16,1.45,1.45,0,0,1,.58.42,1.88,1.88,0,0,1,.28.59,4.86,4.86,0,0,1,.07.93Z"/><path class="cls-1" d="M268.22,141.52l1.38.24a2.26,2.26,0,0,1-.85,1.17,2.52,2.52,0,0,1-1.44.39,2.36,2.36,0,0,1-2-.93,3,3,0,0,1-.52-1.81,3,3,0,0,1,.68-2.06,2.52,2.52,0,0,1,3.59,0,3.37,3.37,0,0,1,.65,2.38H266.2a1.38,1.38,0,0,0,.33.93,1,1,0,0,0,.8.35.83.83,0,0,0,.55-.18A1.21,1.21,0,0,0,268.22,141.52Zm.07-1.4a1.31,1.31,0,0,0-.31-.93,1,1,0,0,0-.72-.32,1,1,0,0,0-.76.34,1.3,1.3,0,0,0-.29.93Z"/><path class="cls-1" d="M270.81,143.21v-7.27h1.39v7.27Z"/><path class="cls-1" d="M221.27,155.39h-1.59l-.64-1.66h-2.91l-.59,1.66H214l2.83-7.27h1.55Zm-2.7-2.88-1-2.69-1,2.69Z"/><path class="cls-1" d="M226.85,155.39h-1.3v-.78a2.1,2.1,0,0,1-.75.67,2,2,0,0,1-2.48-.51,3,3,0,0,1-.65-2,2.94,2.94,0,0,1,.63-2,2.11,2.11,0,0,1,1.6-.7,2,2,0,0,1,1.52.74v-2.62h1.43Zm-3.72-2.75a2.35,2.35,0,0,0,.24,1.22,1,1,0,0,0,.93.54,1,1,0,0,0,.81-.41,1.87,1.87,0,0,0,.34-1.22,2,2,0,0,0-.33-1.31,1.07,1.07,0,0,0-1.51-.14.67.67,0,0,0-.15.14,1.79,1.79,0,0,0-.33,1.18Z"/><path class="cls-1" d="M228.12,150.12h1.28v.72a2.1,2.1,0,0,1,1.65-.84,1.78,1.78,0,0,1,.87.21,1.52,1.52,0,0,1,.6.63,2.56,2.56,0,0,1,.76-.63,1.81,1.81,0,0,1,.85-.21,1.89,1.89,0,0,1,1,.24,1.37,1.37,0,0,1,.59.69,2.88,2.88,0,0,1,.15,1.09v3.37h-1.39v-3a2,2,0,0,0-.18-1,.65.65,0,0,0-.59-.3.91.91,0,0,0-.55.18,1,1,0,0,0-.37.52,4,4,0,0,0-.12,1.09v2.53h-1.39v-2.88a3.72,3.72,0,0,0-.08-1,.55.55,0,0,0-.23-.33.68.68,0,0,0-.42-.11,1.09,1.09,0,0,0-.58.17,1,1,0,0,0-.36.5,3.69,3.69,0,0,0-.12,1.09v2.56h-1.39Z"/><path class="cls-1" d="M237.25,149.41v-1.29h1.39v1.29Zm0,6v-5.27h1.39v5.27Z"/><path class="cls-1" d="M244.85,155.39h-1.39V152.7a4.17,4.17,0,0,0-.09-1.11.83.83,0,0,0-.28-.39,1.05,1.05,0,0,0-.49-.13,1.16,1.16,0,0,0-.65.2.89.89,0,0,0-.39.52,4.44,4.44,0,0,0-.11,1.21v2.39h-1.4v-5.27h1.3v.78a2.17,2.17,0,0,1,2.58-.73,1.42,1.42,0,0,1,.58.42,1.54,1.54,0,0,1,.27.58,4.17,4.17,0,0,1,.07.93Z"/><path class="cls-1" d="M246.27,149.41v-1.29h1.39v1.29Zm0,6v-5.27h1.39v5.27Z"/><path class="cls-1" d="M248.6,153.88l1.39-.21a1.11,1.11,0,0,0,.37.62,1.2,1.2,0,0,0,.76.2,1.4,1.4,0,0,0,.82-.19.45.45,0,0,0,.17-.37.35.35,0,0,0-.09-.26,1.15,1.15,0,0,0-.46-.19,7,7,0,0,1-2.14-.68,1.34,1.34,0,0,1-.63-1.18,1.49,1.49,0,0,1,.54-1.15A2.58,2.58,0,0,1,251,150a3,3,0,0,1,1.6.36,1.84,1.84,0,0,1,.73,1l-1.32.24a.82.82,0,0,0-.32-.47A1.11,1.11,0,0,0,251,151a1.55,1.55,0,0,0-.79.15.32.32,0,0,0-.1.43.52.52,0,0,0,.1.11,6,6,0,0,0,1.31.39,4,4,0,0,1,1.55.61,1.36,1.36,0,0,1,.44,1,1.64,1.64,0,0,1-.61,1.25,2.73,2.73,0,0,1-1.79.52,3,3,0,0,1-1.7-.44A2,2,0,0,1,248.6,153.88Z"/><path class="cls-1" d="M257.14,150.12v1.11h-.93v2.12a4.7,4.7,0,0,0,0,.75.29.29,0,0,0,.12.18.45.45,0,0,0,.25.07,1.71,1.71,0,0,0,.55-.14l.12,1.08a2.77,2.77,0,0,1-1.1.22,2,2,0,0,1-.68-.13,1.09,1.09,0,0,1-.44-.33,1.25,1.25,0,0,1-.19-.54,5.32,5.32,0,0,1-.05-1v-2.3h-.64v-1.11h.64v-1.05l1.39-.81v1.86Z"/><path class="cls-1" d="M259.45,155.39h-1.4v-5.27h1.34v.75a2.24,2.24,0,0,1,.6-.7,1.16,1.16,0,0,1,.6-.17,1.79,1.79,0,0,1,.93.26l-.44,1.22a1.14,1.14,0,0,0-.65-.23.69.69,0,0,0-.49.17,1,1,0,0,0-.32.57,8.78,8.78,0,0,0-.12,1.77Z"/><path class="cls-1" d="M263.11,151.72l-1.26-.22a2.05,2.05,0,0,1,.73-1.13,2.72,2.72,0,0,1,1.55-.37,3.28,3.28,0,0,1,1.39.23,1.38,1.38,0,0,1,.64.55,3,3,0,0,1,.19,1.25v1.63a5,5,0,0,0,.07,1,3,3,0,0,0,.24.71h-1.37a3.24,3.24,0,0,1-.13-.41l-.06-.17a2.45,2.45,0,0,1-.76.52,2.19,2.19,0,0,1-.87.18,1.85,1.85,0,0,1-1.29-.45,1.42,1.42,0,0,1-.46-1.11,1.44,1.44,0,0,1,.21-.79,1.31,1.31,0,0,1,.6-.54,4.23,4.23,0,0,1,1.1-.33A7.12,7.12,0,0,0,265,152v-.13a.69.69,0,0,0-.21-.58,1.2,1.2,0,0,0-.74-.17,1.08,1.08,0,0,0-.58.14A1.07,1.07,0,0,0,263.11,151.72Zm1.86,1.14c-.18,0-.46.13-.85.21a2.92,2.92,0,0,0-.76.24.6.6,0,0,0-.27.5.68.68,0,0,0,.22.5.76.76,0,0,0,.55.21,1.17,1.17,0,0,0,.72-.25.87.87,0,0,0,.33-.45,2.65,2.65,0,0,0,.06-.68Z"/><path class="cls-1" d="M270.12,150.12v1.11h-.93v2.12a4.7,4.7,0,0,0,0,.75.29.29,0,0,0,.12.18.39.39,0,0,0,.23.07,1.83,1.83,0,0,0,.57-.14l.11,1.08a2.72,2.72,0,0,1-1.09.22,1.91,1.91,0,0,1-.68-.13,1.06,1.06,0,0,1-.45-.33,1.29,1.29,0,0,1-.19-.54,6.37,6.37,0,0,1-.05-1v-2.3h-.63v-1.11h.63v-1.05l1.4-.81v1.86Z"/><path class="cls-1" d="M271.09,149.41v-1.29h1.39v1.29Zm0,6v-5.27h1.39v5.27Z"/><path class="cls-1" d="M273.59,152.68a2.91,2.91,0,0,1,.34-1.35,2.37,2.37,0,0,1,.93-1,2.75,2.75,0,0,1,1.4-.35,2.63,2.63,0,0,1,2.72,2.52v.22a2.72,2.72,0,0,1-.77,2,2.62,2.62,0,0,1-1.94.79,3.15,3.15,0,0,1-1.38-.33,2.18,2.18,0,0,1-1-.93A3.06,3.06,0,0,1,273.59,152.68Zm1.42.08a1.82,1.82,0,0,0,.37,1.19,1.17,1.17,0,0,0,.93.42,1.15,1.15,0,0,0,.93-.42,2.11,2.11,0,0,0,0-2.39,1.15,1.15,0,0,0-.93-.42,1.17,1.17,0,0,0-.93.42A1.83,1.83,0,0,0,275,152.76Z"/><path class="cls-1" d="M284.89,155.39h-1.38V152.7a4.63,4.63,0,0,0-.09-1.11.93.93,0,0,0-.29-.39,1.05,1.05,0,0,0-.49-.13,1.18,1.18,0,0,0-.65.2.93.93,0,0,0-.39.52,4.44,4.44,0,0,0-.11,1.21v2.39H280.1v-5.27h1.29v.78a2.17,2.17,0,0,1,2.58-.73,1.36,1.36,0,0,1,.58.42,1.54,1.54,0,0,1,.27.58,4.17,4.17,0,0,1,.07.93Z"/><path class="cls-1" d="M235.42,169.7h-.92a9.38,9.38,0,0,1-1.16-2.38,8,8,0,0,1-.4-2.39,7.65,7.65,0,0,1,.5-2.71,9.53,9.53,0,0,1,1.07-2.05h.93a14.8,14.8,0,0,0-.93,2.56,9.84,9.84,0,0,0-.25,2.23,9.34,9.34,0,0,0,.15,1.67,11.34,11.34,0,0,0,.42,1.62A13.87,13.87,0,0,0,235.42,169.7Z"/><path class="cls-1" d="M236.51,167.57V160.3H238v2.86h2.87V160.3h1.47v7.27h-1.47v-3.21H238v3.18Z"/><path class="cls-1" d="M243.84,167.57V160.3h3.09a5.09,5.09,0,0,1,1.69.2,1.63,1.63,0,0,1,.84.69,2,2,0,0,1,.32,1.15,2,2,0,0,1-.47,1.35,2.39,2.39,0,0,1-1.45.67,3.62,3.62,0,0,1,.79.61,7.44,7.44,0,0,1,.84,1.18l.88,1.42h-1.75L247.56,166a9,9,0,0,0-.77-1.06,1,1,0,0,0-.44-.3,2.34,2.34,0,0,0-.75-.09h-.29v3Zm1.47-4.2h1.07a4.9,4.9,0,0,0,1.32-.09.78.78,0,0,0,.41-.31.93.93,0,0,0,.14-.54.81.81,0,0,0-.19-.59.93.93,0,0,0-.56-.29h-2.21Z"/><path class="cls-1" d="M251.16,167.57V160.3h2.36a7.8,7.8,0,0,1,1.74.11,1.9,1.9,0,0,1,1.06.71,2.24,2.24,0,0,1,.41,1.42,2.43,2.43,0,0,1-.24,1.12,2.07,2.07,0,0,1-1.37,1.06,8.74,8.74,0,0,1-1.53.1h-.93v2.75Zm1.47-6v2.06h.8a3.85,3.85,0,0,0,1.17-.12.91.91,0,0,0,.45-.35,1,1,0,0,0,.17-.57,1,1,0,0,0-.23-.65,1,1,0,0,0-.59-.32,6.25,6.25,0,0,0-1.06,0Z"/><path class="cls-1" d="M263.73,167.57h-1.55l-.63-1.66h-2.9l-.61,1.66h-1.55l2.79-7.27h1.55ZM261,164.69,260,162l-1,2.69Z"/><path class="cls-1" d="M264.12,169.7c.27-.58.47-1,.58-1.35a8.76,8.76,0,0,0,.31-1.08q.14-.59.21-1.17a10.92,10.92,0,0,0,.08-1.14,9.85,9.85,0,0,0-.26-2.23,14.8,14.8,0,0,0-.93-2.56H265a9.66,9.66,0,0,1,1.16,2.26,7.42,7.42,0,0,1,.41,2.43,8.34,8.34,0,0,1-.33,2.22,9.08,9.08,0,0,1-1.22,2.62Z"/><g class="cls-9"><text class="cls-12" transform="translate(183.28 52.73)">Overview</text><text class="cls-12" transform="translate(172.02 64.91)">of GFEBS HR </text><text class="cls-12" transform="translate(172 77.09)">&amp; Payroll and </text><text class="cls-12" transform="translate(190.34 89.28)">Labor</text></g><g class="cls-9"><text class="cls-12" transform="translate(125.89 234.63)">Maintain</text><text class="cls-12" transform="translate(130.11 246.81)">Master</text><text class="cls-12" transform="translate(121.08 258.99)">Employee </text><text class="cls-12" transform="translate(126.16 271.18)">Records</text></g><text class="cls-13" transform="translate(63.63 61.17)">01</text><text class="cls-13" transform="translate(169.83 35.43)">02</text><text class="cls-13" transform="translate(251.84 104.02)">03</text><text class="cls-13" transform="translate(207.66 196.4)">04</text><text class="cls-13" transform="translate(98.2 243.09)">05</text><text class="cls-13" transform="translate(35.42 205.26)">06</text><text class="cls-13" transform="translate(24.96 120.75)">07</text><text class="cls-12" transform="translate(90.14 59.98)">Introduction</text><text class="cls-12" transform="translate(59.6 203.61)">Reports</text><text class="cls-12" transform="translate(49.14 119.9)">Review</text></svg>