<svg id="Layer_1" data-name="Layer 1" xmlns="http://www.w3.org/2000/svg" viewBox="0 0 300 300"><defs><style>.cls-1{fill:#d36446;}.cls-2,.cls-7{fill:#343843;}.cls-3{fill:#f1b97c;}.cls-4{fill:#4c5aa5;}.cls-5{fill:#f8cfa3;}.cls-6{fill:none;}.cls-7{opacity:0.05;}.cls-8{fill:#fcfcfc;}.cls-9{fill:#5e86c3;}.cls-10{fill:#6fb1e1;}</style></defs><circle class="cls-1" cx="150" cy="150" r="145.67"/><path class="cls-2" d="M169.86,102s36.31,11.51,40.29,54.9,6.64,44.72,6.64,44.72S205.72,199.43,201.3,191c0,0-3.1,6.64,5.75,15.5,0,0-27.45-13.73-37.19-74.38S169.86,102,169.86,102Z"/><path class="cls-3" d="M181.44,269.42V171.65c-9.43-8.7-9.59-17.53-9.59-17.53V133.73H128.16v20.39S128,164,116.78,173.21v96.21Z"/><path class="cls-4" d="M215.53,280.12c-.71.37-1.41.71-2.12,1.05a6.76,6.76,0,0,1-.77.36l.77-4,1.28-6.63Z"/><path class="cls-4" d="M87.38,281.53a6.76,6.76,0,0,1-.77-.36c-.7-.34-1.41-.68-2.12-1.05l.85-9.24,1.27,6.63Z"/><ellipse class="cls-2" cx="150.01" cy="78.1" rx="53" ry="61.61"/><ellipse class="cls-5" cx="102.51" cy="99.67" rx="9.64" ry="18.03" transform="translate(-19.58 25.27) rotate(-12.84)"/><path class="cls-3" d="M105.34,113.51c-2.28,0-6.61-4.47-8.45-12.56-1.89-8.3.24-14.57,2.48-15.08a1.55,1.55,0,0,1,.31,0c2.29,0,6.61,4.48,8.45,12.56a24,24,0,0,1,.12,11.18c-.59,2.14-1.6,3.68-2.59,3.9A1.75,1.75,0,0,1,105.34,113.51Z"/><ellipse class="cls-5" cx="197.5" cy="99.67" rx="18.03" ry="9.64" transform="translate(56.44 270.09) rotate(-77.16)"/><path class="cls-3" d="M194.67,113.51a1.55,1.55,0,0,1-.31,0c-1-.22-2-1.76-2.6-3.9a24.18,24.18,0,0,1,.12-11.18c1.85-8.08,6.17-12.56,8.45-12.56a1.75,1.75,0,0,1,.32,0c2.23.51,4.36,6.78,2.47,15.08-1.84,8.08-6.16,12.56-8.45,12.56Z"/><path class="cls-5" d="M198.22,93.9c0,29.1-21.59,64.22-48.21,64.22S101.79,123,101.79,93.9,123.38,41.22,150,41.22,198.22,64.81,198.22,93.9Z"/><path class="cls-2" d="M102.86,82.83s21.49-3.8,28-34.77c0,0,10.37,20.4,26.09,25.49,0,0-6.9-4.17-6.9-17.58,0,0,12.68,20.61,27,21.54,0,0-.44-3.87-4.14-13.81,0,0,12.14,17.11,24.62,19L191.89,56,177.22,31.14l-10.65-1.92-32.3,2.37L117,37.13l-2.58,8.73-4.31,8-5.55,10.69Z"/><path class="cls-6" d="M171.85,150v4.13s.15,8.07,8.41,16.39a153.86,153.86,0,0,1-7-21.65C172.79,149.25,172.32,149.62,171.85,150Z"/><path class="cls-7" d="M201.3,191c4.42,8.41,15.49,10.63,15.49,10.63s-2.65-1.33-6.64-44.72c-1.63-17.76-8.68-30.18-16.44-38.66q.18-.47.33-.93c5.06.6,10.73-6.16,12.86-15.53,2-8.82.2-16.91-4-19.21.09-1.48.14-3,.14-4.5,0-34-23.72-61.61-53-61.61h-.07V269.42h31.5V173.27c11.56,26.22,25.61,33.25,25.61,33.25C198.2,197.66,201.3,191,201.3,191Zm-29.45-36.9V150c.47-.37.94-.74,1.4-1.13a153.86,153.86,0,0,0,7,21.65C172,162.19,171.85,154.12,171.85,154.12Z"/><path class="cls-8" d="M213.41,204.76v76.41a6.76,6.76,0,0,1-.77.36A144,144,0,0,1,171.94,294c-2.59.41-5.21.73-7.85,1-4.62.45-9.33.68-14.09.68s-9.45-.23-14.07-.68c-2.64-.25-5.25-.57-7.85-1a144,144,0,0,1-40.7-12.48,6.76,6.76,0,0,1-.77-.36V204.76c8.72,12.91,19.42,22.38,31.05,28.43a71,71,0,0,0,15.43,5.94,68,68,0,0,0,33.82,0,70,70,0,0,0,15.46-5.94C194,227.14,204.69,217.67,213.41,204.76Z"/><path class="cls-9" d="M135.93,295a145,145,0,0,1-87.19-40.31v-34c2.71-30,21.21-34,29.56-34.28a66.14,66.14,0,0,0,13.86-1.8c13.62-3.41,22.08-8.67,27.34-13.86A433.23,433.23,0,0,1,135.93,295Z"/><path class="cls-9" d="M251.29,220.72v34A145.09,145.09,0,0,1,164.09,295a432.5,432.5,0,0,1,16.43-124.21c5.26,5.19,13.73,10.45,27.34,13.86a66,66,0,0,0,13.86,1.8C230.05,186.71,248.55,190.72,251.29,220.72Z"/><path class="cls-10" d="M135.93,295c-2.64-.25-5.25-.57-7.85-1a213.15,213.15,0,0,0-10.42-60.82,215.55,215.55,0,0,0-11-27.15L99.24,190.7l20.26-19.92a424.9,424.9,0,0,1,13.59,68.35A415.58,415.58,0,0,1,135.93,295Z"/><path class="cls-10" d="M200.78,190.7,193.31,206a213.92,213.92,0,0,0-21.37,88c-2.59.41-5.21.73-7.85,1a412.47,412.47,0,0,1,2.82-55.86,428.88,428.88,0,0,1,13.61-68.35Z"/></svg>