<svg id="Layer_1" data-name="Layer 1" xmlns="http://www.w3.org/2000/svg" xmlns:xlink="http://www.w3.org/1999/xlink" viewBox="0 0 300 300"><defs><style>.cls-1{fill:none;}.cls-2{fill:#d36446;}.cls-3{clip-path:url(#clip-path);}.cls-4{fill:#93724a;}.cls-5{fill:#ccc;}.cls-6{fill:#b3b3b3;}.cls-11,.cls-7{fill:#2f3f52;}.cls-8{fill:#666;}.cls-9{fill:#515151;}.cls-10{fill:#e6e6e6;}.cls-11{stroke:#1f2a35;stroke-miterlimit:10;stroke-width:0.39px;}.cls-12{fill:#293a4c;}.cls-13{fill:#967245;}.cls-14{fill:#ab8351;}</style><clipPath id="clip-path"><circle class="cls-1" cx="150" cy="150" r="146.84"/></clipPath></defs><circle class="cls-2" cx="150" cy="150" r="146.84"/><g class="cls-3"><polygon class="cls-4" points="179.97 175.65 179.97 152.63 119.83 152.63 119.83 175.71 98.66 183.07 98.66 237.97 197.84 237.97 197.84 181.87 179.97 175.65"/><polygon class="cls-5" points="189.13 178.84 179.96 175.66 149.6 187.26 119.81 175.66 110.07 179.21 91 185.8 91 299.97 216.99 299.97 216.99 188.54 189.13 178.84"/><polygon class="cls-6" points="218.72 189.14 189.13 178.84 179.96 175.66 149.6 187.26 149.6 299.97 218.72 299.97 218.72 189.14"/><path class="cls-7" d="M149.87,299.91c-40-46.44-38.91-107.42-38-121.3l-1.73.57-11.17,3.87c-25.23,8.51-56.12,14.37-62.8,38.8-.63,2.91-1.22,29.4-1.77,51.37C34,287.91,46,300,61,300H150Z"/><path class="cls-7" d="M263.8,221.85c-5.49-20.09-27.35-26.32-27.93-26.72l-35.53-12.46-11.18-3.87-1.73-.56c1,13.12,3,74.76-37.37,121.67l-.09.1h89c15,0,27-12.08,26.67-26.76C265.11,251.27,264.5,224.76,263.8,221.85Z"/><polygon class="cls-8" points="130.96 284.31 149.87 299.91 167.06 285.28 158.54 219.46 158.56 219.46 168.03 203.39 158.56 187.31 139.62 187.31 130.15 203.39 139.62 219.46 130.96 284.31"/><polygon class="cls-9" points="167.37 285.56 158.54 219.46 158.56 219.46 168.03 203.39 158.56 187.31 149.53 187.31 149.94 299.97 167.37 285.56"/><path class="cls-10" d="M149.53,187.2l-17.19,21a6.86,6.86,0,0,1-11.66-1.75L110,179.14l-.1-.29,9.91-14.95Z"/><path class="cls-10" d="M189.15,178.8v0l-10.77,27.6a6.86,6.86,0,0,1-11.66,1.75l-17.19-21L180,163.37Z"/><path class="cls-11" d="M201.4,224.59a3.59,3.59,0,0,0-1.06,4.24l4.14,8.78a3.56,3.56,0,0,1,0,3.12c-18.49,34.64-52.3,57.77-54.42,59.18C190.42,253,188.4,191.36,187.43,178.24c-.1-1.7-.19-2.55-.19-2.55l13.1,7,10,32.48a3.5,3.5,0,0,1-1.25,3.77Z"/><path class="cls-11" d="M149.87,299.91c-2.12-1.41-36.5-24.54-55-59.18a3.56,3.56,0,0,1-.1-3.12l4.15-8.78a3.37,3.37,0,0,0-1.07-4.24l-7.6-5.67A3.5,3.5,0,0,1,89,215.15l9.92-32.1.09-.38,13-7s-.09,1-.19,2.92C111,192.49,109.9,253.47,149.87,299.91Z"/><path class="cls-12" d="M201.4,224.59a3.59,3.59,0,0,0-1.06,4.24l4.14,8.78a3.56,3.56,0,0,1,0,3.12c-18.49,34.64-52.3,57.77-54.42,59.18C190.42,253,188.4,191.36,187.43,178.24c-.1-1.7-.19-2.55-.19-2.55l13.1,7,10,32.48a3.5,3.5,0,0,1-1.25,3.77Z"/><path class="cls-12" d="M149.87,299.91c-2.12-1.41-36.5-24.54-55-59.18a3.56,3.56,0,0,1-.1-3.12l4.15-8.78a3.37,3.37,0,0,0-1.07-4.24l-7.6-5.67A3.5,3.5,0,0,1,89,215.15l9.92-32.1.09-.38,13-7s-.09,1-.19,2.92C111,192.49,109.9,253.47,149.87,299.91Z"/><path class="cls-13" d="M196,100.1s5.83-8.89,7.59-3.61-1.39,13.15-2.78,16.76.65,16.58-8.42,14.17S196,100.1,196,100.1Z"/><path class="cls-14" d="M104.12,100.1s-5.84-8.89-7.59-3.61,1.38,13.15,2.77,16.76-.64,16.58,8.43,14.17S104.12,100.1,104.12,100.1Z"/><path class="cls-14" d="M191.05,62.49,180.39,52.08l-24.53-1.73L149.63,68l-29.9-16L109.08,62.49,101.4,87l6.74,45.71c3.44,23.34,29.94,40.7,41.92,41.51h0c13.1-.89,38.62-19.06,41.93-41.51L198.73,87Z"/><path class="cls-8" d="M200.68,66.74c-2.23-14.89-3.57-39.9-49-43-45.41,3.13-50,28.14-52.26,43-2,13.39,1.18,34.74,1.84,38.89a1.33,1.33,0,0,0,2.64-.22C103.74,94.66,111,78.35,111,78.35a29.14,29.14,0,0,1,3-11.66,4.11,4.11,0,0,1,4.12-2.2l32,3.59,32-3.59a4.11,4.11,0,0,1,4.12,2.2,29.31,29.31,0,0,1,3,11.66s7,15.7,7.08,26.45a1.87,1.87,0,0,0,1.87,1.83h0a1.34,1.34,0,0,0,.77-1C199.5,101.48,202.69,80.13,200.68,66.74Z"/><path class="cls-13" d="M191.05,62.49,180.39,52.08l-24.53-1.73L149.63,68V174.2l.43,0c13.1-.89,38.62-19.06,41.93-41.51L198.73,87Z"/><path class="cls-9" d="M200.68,66.74c-2.23-14.89-3.57-39.9-49-43l-2.07.16V68l.43,0,32-3.59a4.11,4.11,0,0,1,4.12,2.2,29.31,29.31,0,0,1,3,11.66s7,15.7,7.08,26.45a1.87,1.87,0,0,0,1.87,1.83h0a1.34,1.34,0,0,0,.77-1C199.5,101.48,202.69,80.13,200.68,66.74Z"/></g></svg>