<svg id="Layer_1" data-name="Layer 1" xmlns="http://www.w3.org/2000/svg" xmlns:xlink="http://www.w3.org/1999/xlink" viewBox="0 0 150 150"><defs><style>.cls-1{fill:none;}.cls-2{fill:#97d8e7;}.cls-3{fill:#cccbca;}.cls-4{fill:#e6e5e5;}.cls-5{fill:#353f49;}.cls-6{fill:#fff;}.cls-7{fill:#ff916e;}.cls-8{fill:#f77b55;}.cls-9{fill:#ee643c;}.cls-10{fill:#474f59;}.cls-11{clip-path:url(#clip-path);}.cls-12{fill:#656a73;}</style><clipPath id="clip-path"><path class="cls-1" d="M111.56,82a11.41,11.41,0,1,1-11.41-11.42A11.4,11.4,0,0,1,111.56,82Z"/></clipPath></defs><rect class="cls-2" x="2.54" y="2.06" width="144.94" height="144.94"/><circle class="cls-2" cx="75.01" cy="74.53" r="47.11"/><polygon class="cls-3" points="93.25 113.63 71.03 113.63 72.25 102.97 92.04 102.97 93.25 113.63"/><path class="cls-4" d="M97.69,114.87H66.59v-.53a.75.75,0,0,1,.21-.51.74.74,0,0,1,.5-.2H97a.74.74,0,0,1,.5.2.8.8,0,0,1,.21.51Z"/><path class="cls-4" d="M122.12,101.19a1.8,1.8,0,0,1-1.78,1.78H43.94a1.8,1.8,0,0,1-1.78-1.78V95.86h80Z"/><path class="cls-5" d="M122.12,44.67a1.77,1.77,0,0,0-1.76-1.78H43.94a1.77,1.77,0,0,0-1.78,1.76V95.86h80Z"/><rect class="cls-6" x="46.16" y="46.88" width="71.96" height="44.97"/><rect class="cls-7" x="51.27" y="80.21" width="5.15" height="7.43"/><rect class="cls-8" x="56.42" y="67.38" width="5.15" height="20.27"/><rect class="cls-9" x="61.56" y="74.13" width="5.15" height="13.51"/><rect class="cls-7" x="66.71" y="71.2" width="5.15" height="16.44"/><rect class="cls-8" x="71.85" y="76.49" width="5.15" height="11.15"/><rect class="cls-9" x="77" y="63.09" width="5.15" height="24.55"/><rect class="cls-7" x="82.14" y="71.65" width="5.15" height="15.99"/><rect class="cls-8" x="87.28" y="73.23" width="5.15" height="14.41"/><rect class="cls-9" x="92.44" y="67.38" width="5.15" height="20.27"/><rect class="cls-7" x="97.58" y="60.84" width="5.15" height="26.8"/><rect class="cls-8" x="102.73" y="57.91" width="5.15" height="29.73"/><rect class="cls-9" x="107.87" y="64.78" width="5.15" height="22.86"/><rect class="cls-9" x="77" y="52.15" width="2.8" height="2.8"/><rect class="cls-4" x="81.2" y="53.55" width="6.31" height="1.41"/><rect class="cls-7" x="89.75" y="52.15" width="2.8" height="2.8"/><rect class="cls-4" x="93.95" y="53.55" width="6.31" height="1.41"/><rect class="cls-8" x="102.49" y="52.15" width="2.8" height="2.8"/><rect class="cls-4" x="106.7" y="53.55" width="6.31" height="1.41"/><rect class="cls-5" x="51.27" y="49.81" width="20.58" height="5.15"/><rect class="cls-6" x="53.62" y="51.77" width="7.94" height="1.41"/><rect class="cls-4" x="51.27" y="56.35" width="20.58" height="1.4"/><rect class="cls-4" x="51.27" y="59.16" width="10.29" height="1.4"/><rect class="cls-10" x="98.44" y="95.93" width="3.43" height="4.18"/><path class="cls-5" d="M114.42,82a14.27,14.27,0,1,1-14.27-14.26h0A14.26,14.26,0,0,1,114.42,82Z"/><path class="cls-6" d="M111.56,82a11.41,11.41,0,1,1-11.41-11.42A11.4,11.4,0,0,1,111.56,82Z"/><rect class="cls-10" x="97.45" y="102.97" width="5.41" height="11.9"/><rect class="cls-5" x="97" y="100.11" width="6.3" height="2.86"/><g class="cls-11"><rect class="cls-9" x="88.75" y="87.88" width="7.6" height="29.96"/><rect class="cls-7" x="96.35" y="78.23" width="7.6" height="39.61"/><rect class="cls-8" x="103.95" y="73.9" width="7.61" height="43.94"/></g><rect class="cls-5" x="27.91" y="73.5" width="28.51" height="41.37" rx="1.55"/><rect class="cls-10" x="39.9" y="111.59" width="4.52" height="1.55" rx="0.69"/><path class="cls-10" d="M42.16,76.23a.73.73,0,0,1-.72-.73.72.72,0,0,1,.72-.72.73.73,0,0,1,.73.72A.73.73,0,0,1,42.16,76.23Z"/><path class="cls-5" d="M42.16,75.81a.3.3,0,0,1,0-.59.3.3,0,1,1,0,.59Z"/><rect class="cls-6" x="29.52" y="77.54" width="25.28" height="32.32"/><rect class="cls-4" x="32.94" y="104.11" width="18.44" height="0.64"/><rect class="cls-3" x="32.94" y="101.24" width="18.44" height="2.24"/><rect class="cls-4" x="32.94" y="105.38" width="18.44" height="0.64"/><rect class="cls-4" x="32.94" y="106.65" width="9.22" height="0.64"/><path class="cls-4" d="M47,90.39a4.81,4.81,0,0,1-1.45,3.41L48,96.27a8.18,8.18,0,0,0,2.42-5.85Z"/><path class="cls-8" d="M45.57,93.81A4.82,4.82,0,1,1,38.77,87a5,5,0,0,1,1.54-1L39,82.76A8.26,8.26,0,1,0,45.45,98,8.14,8.14,0,0,0,48,96.27Z"/><path class="cls-12" d="M42.16,85.57V82.13a8.18,8.18,0,0,0-3.16.63l1.31,3.18A4.92,4.92,0,0,1,42.16,85.57Z"/><path class="cls-5" d="M42.16,85.57A4.82,4.82,0,0,1,47,90.39h3.44a8.25,8.25,0,0,0-8.24-8.26h0Z"/></svg>