<svg id="Layer_1" data-name="Layer 1" xmlns="http://www.w3.org/2000/svg" viewBox="0 0 452.52 219.91"><defs><style>.cls-1{fill:#fff;stroke:#000;stroke-miterlimit:10;}.cls-2{fill:#231f20;}.cls-3{fill:#fed431;}.cls-4{fill:#fad232;}.cls-5{fill:#fcd230;}.cls-6{fill:#fed533;}.cls-7{fill:#fdd331;}.cls-8{fill:#292627;}.cls-9{fill:#292422;}.cls-10{fill:#c8b15e;}.cls-11{fill:#b8a870;}.cls-12{fill:#c7c6c6;}.cls-13{fill:#fad030;}.cls-14{fill:#272322;}.cls-15{fill:#282425;}.cls-16{fill:#262223;}.cls-17{fill:#292526;}.cls-18{fill:#252120;}.cls-19{fill:#efefef;}</style></defs><rect class="cls-1" x="0.89" y="0.86" width="450.84" height="217.45"/><path class="cls-2" d="M87.58,91.69V88.75H72.78V70.91h36.06v10.3c0,.48,0,1,0,1.44v41.49c-18.13,5.77-36.39,8-55,2.34l-5.43-2.23A41.19,41.19,0,0,1,29.9,106.44,56.05,56.05,0,0,1,23.54,82a6.58,6.58,0,0,0-.23-1.07V78.06c.16-1.55.33-3.1.47-4.66,1.08-11.4,4.9-21.72,12.79-30.27C43.88,35.21,53,30.49,63.47,28.27a76.2,76.2,0,0,1,38.22,1.61c1.32.4,2.6.95,4,1.48-1.54,6.19-3.06,12.28-4.59,18.44a2.47,2.47,0,0,1-.6-.13,47.06,47.06,0,0,0-18.1-4A44.22,44.22,0,0,0,67.82,47C56.7,50.27,49.9,57.65,47.51,68.94A41.18,41.18,0,0,0,49.7,94.4a26.39,26.39,0,0,0,14.16,14.23l4.71,1.54a67.78,67.78,0,0,0,7,1,35.89,35.89,0,0,0,11.17-.94c.51-.14,1-.22,1-1,0-4.59,0-9.18-.06-13.77Z"/><path class="cls-2" d="M38.21,138.26H27.68v-3h7.9c1.55,0,3.1-.06,4.64-.1l8.51.07H334.52c1.13,0,1.65-.27,2-1.43,1.18-4.38,2.49-8.72,3.75-13.08.53-1.71,1.08-3.41,1.59-5.12.07-.24.08-.69-.05-.78-1-.63-1.64-1.78-3.08-1.53-2.59.46-5.2.79-7.79,1.26a333.21,333.21,0,0,0-40.83,10.17c-3.84,1.2-7.67,2.43-11.5,3.64a4.44,4.44,0,0,1-.31-1.19V30.09a10.23,10.23,0,0,1,.06-1.25c4.23-.45,8.42-1.1,12.63-1.29,7.42-.33,14.85-.57,22.27-.46,6.85.09,13.59,1.14,19.84,4.26,6,3,10.63,7.31,12.64,13.94,3.51,11.56-1.46,22.4-12.68,27.75-.72.35-1.44.66-2.39,1.09,9.36,2.8,15.82,8.37,18.68,18.07,1.82-4.8,3.55-9.33,5.37-14.13.5,1.43.93,2.63,1.33,3.84,1.94,5.73,3.88,11.46,5.78,17.21a1.45,1.45,0,0,0,1.66,1.2h22.73L374.79,109c2.26.54,4.27,1.12,6.32,1.5,5.09.94,10.22,1.42,15.32.12,3.68-.94,6.75-2.76,8.19-6.5,1.72-4.45.26-9-3.86-12-3.37-2.5-7.24-4-11.13-5.44a63.56,63.56,0,0,1-16.24-8.55c-16.7-12.49-13.59-36.76,3-46.36A42.1,42.1,0,0,1,396,26.27c8.41-.37,16.66.5,24.56,3.61,1,.41,2,.89,3.14,1.37l-4.9,18.36a42.84,42.84,0,0,0-11.8-4c-5.19-.89-10.39-1.47-15.5.37-3.63,1.31-6.31,3.6-6.8,7.71a8.47,8.47,0,0,0,3.48,8,39.62,39.62,0,0,0,9.11,5c4.57,2,9.23,3.78,13.65,6,5.77,3,10.65,7.06,13.65,13,6,11.88,4.05,32-14.38,40.37l-2.73,1.2a35,35,0,0,0-9-7.2c-7.52-4.11-15.69-6.09-24.07-7.48-2.43-.4-4.49-.37-6.28,1.55a1.4,1.4,0,0,0-.49,1.62c.78,2.42,1.53,4.86,2.2,7.32a1.73,1.73,0,0,0,1.38,1.37A53,53,0,0,1,384.57,130l-13.15-1.82c.59,2,1.2,4.15,1.9,6.3a1.22,1.22,0,0,0,.89.68h17.61l18.95.06a5.36,5.36,0,0,0,.7-.1c.47,0,.95.08,1.42.08h23.17v3H47.27ZM326.92,99.88a14.4,14.4,0,0,0-.83-6.85c-1.73-4.25-5.18-6.43-9.33-7.72-5.45-1.69-11.07-1.23-16.65-1.22-.06,0-.11.1-.11.1V112.5c.81.06,1.52.13,2.23.16,4.59.19,9.19.4,13.69-.82s8-3.4,9.94-7.71a1.05,1.05,0,0,0-.28-1.47.6.6,0,0,0-.15-.09c-1.15-.81-2.26-1.67-3.63-2.69ZM300,44.13V67.71c2.43,0,4.78.06,7.13,0a26.69,26.69,0,0,0,10.74-2,11.06,11.06,0,0,0,6.82-11.41c-.37-5-3.27-8.32-8.45-9.76a32.17,32.17,0,0,0-10.93-.78C303.52,43.83,301.74,44,300,44.13Zm33.33,59.1,1.48,1.13c3.49,2.6,7,5.22,10.48,7.79.82.61,1.2,1.13.78,2.24-.71,1.9-1.2,3.88-1.77,5.83-.72,2.46-1.43,4.92-2.22,7.63.64-.43,1-.68,1.43-.95,3.49-2.45,7-4.89,10.47-7.37a1.17,1.17,0,0,1,1.66,0c1.71,1.3,3.48,2.53,5.24,3.79l6.7,4.78-.23-.84q-1.82-6-3.62-12c-.7-2.36-.7-2.36,1.21-3.85l1.72-1.3,8.67-6.65H359.67c-1.64-4.82-3.25-9.57-4.95-14.58-1.77,4.66-3.44,9-5.05,13.39-.28.75-.61,1.08-1.45,1-1.35-.09-2.72,0-4.08,0-3.5,0-7,0-10.82,0Zm5.55,32h31.49L354.78,124Z"/><path class="cls-2" d="M263.31,109.93v18.68h-61.5V27.75H261.2V46.43H223.64V67.38h35.42V86H223.65v24Z"/><path class="cls-2" d="M126.07,27.74h59V46.43H148V69.48h34.58V88.09H148v40.5H126.1Z"/><path class="cls-2" d="M400.38,161.14c2.63,0,5.26.05,7.9.05H436.1v3H27.68v-3.06H49.14c.43,0,.87.05,1.31.05H388.77a13.48,13.48,0,0,0,1.44-.05Z"/><path class="cls-3" d="M178.51,164.17h3.35c-4.13,1.65-8.23,3.41-12.41,4.93-4.87,1.78-9.79,3.48-14.75,5-10.33,3.15-20.65,6.33-31.07,9.15a155.61,155.61,0,0,1-16,3.06c-3.79.6-7.64.9-11.46,1.24-2.77.25-5.55.33-8.32.5a28.8,28.8,0,0,1-3.08.22c-4-.2-8.06-.41-12.09-.72a69.41,69.41,0,0,1-17-3.55c-6.17-2.09-11.79-5.11-16.31-9.91a24.52,24.52,0,0,1-5.86-9.9H52c.1.12.2.25.31.37A64.45,64.45,0,0,0,58,168.85c11.16,6.69,23.41,9.67,36.31,10.08,4.61.15,9.25,0,13.86-.2s9.3-.38,13.89-1c7.68-1,15.36-2.14,22.94-3.68a191.34,191.34,0,0,0,32.83-9.65Z"/><path class="cls-4" d="M384.57,130a52.8,52.8,0,0,0-13.36-5.66,1.73,1.73,0,0,1-1.38-1.37c-.67-2.46-1.42-4.9-2.2-7.32a1.4,1.4,0,0,1,.49-1.62c1.79-1.92,3.85-2,6.28-1.55,8.38,1.39,16.55,3.37,24.07,7.48a35,35,0,0,1,9,7.2,23.94,23.94,0,0,1,3.77,7.13c.07.27.13.54.19.81a5.46,5.46,0,0,1-.69.1l-18.95-.06Z"/><path class="cls-5" d="M278.56,128.38c3.83-1.21,7.66-2.44,11.5-3.64a333.21,333.21,0,0,1,40.83-10.17c2.59-.47,5.2-.8,7.79-1.26,1.44-.25,2.12.9,3.08,1.53.13.09.12.54.05.78-.51,1.71-1.06,3.41-1.59,5.12h-.52c-4.46.25-8.93.36-13.38.79a254.78,254.78,0,0,0-30.45,4.94c-3.58.79-7.12,1.71-10.68,2.58a13.89,13.89,0,0,0-1.41.25q-10.3,2.79-20.61,5.62l-.95.25H261l-.06-.24,17-6.26C278.14,128.59,278.34,128.48,278.56,128.38Z"/><path class="cls-6" d="M388,164.17h9.6c-5.57,6.05-12.06,11-18.64,15.9a185.32,185.32,0,0,1-37.31,21.13c-5,2.15-10.07,4-15.12,6a4.06,4.06,0,0,1-1.25.23,367.28,367.28,0,0,0,41.43-23.91A88.61,88.61,0,0,0,387.35,165c.14-.19.27-.39.39-.59Z"/><path class="cls-5" d="M49.14,161.14H32.73v-6.25c2.74,1.72,5.68,1.53,8.68,1,1.12-.19,1.64-.62,1.52-1.86s0-2.79,0-4.18v-2H37.5v2.59h2v2.95c-1.94.31-3.68.17-5-1.43-1.54-1.93-1-4-.07-5.9.8-1.57,2.42-1.8,4-1.75a25.83,25.83,0,0,1,3.2.42l.6-2.49a12.65,12.65,0,0,0-5.75-.69c.55-1.11,1.09-2.23,1.63-3.35h9.06a21.68,21.68,0,0,0-1.05,3.16c-.44,2.44-.73,4.91-1.08,7.37h0l-.2.83a7,7,0,0,0,.83,4.71A18,18,0,0,0,49.14,161.14Z"/><path class="cls-7" d="M394.77,138.26h14.91l1.58.36a20.9,20.9,0,0,1-1.57,7.15l-2.86-.15v6.63l-2.38,3.48h-.2c-.12-.73-.23-1.45-.35-2.17-4.4.51-5.49.2-5.63-1.63h6.4c.95-3.4-1.14-6.45-4.38-6.51a5.33,5.33,0,0,0-4.51,2.26C395.94,144.48,396,141.31,394.77,138.26Z"/><path class="cls-8" d="M406.83,152.25v-6.63l2.86.15v.78a18.22,18.22,0,0,1,3.22-1.09,2.88,2.88,0,0,1,2.88,1.56,11.85,11.85,0,0,1,1.5-1.14,3.47,3.47,0,0,1,4.78,1.1,3.5,3.5,0,0,1,.53,1.81c.21,2.41,0,4.84,0,7.32h-3.13v-5.05a9.9,9.9,0,0,0-.13-1.54c-.14-.82-.54-1.48-1.47-1.4a1.52,1.52,0,0,0-1.47,1.57v0c0,1.63,0,3.27,0,4.91v1.46h-3.21v-4.77a11.75,11.75,0,0,0-.08-1.67c-.08-.89-.47-1.61-1.46-1.53a1.56,1.56,0,0,0-1.49,1.63s0,.06,0,.09v5.38a5.44,5.44,0,0,1-.05.87h-3.29Z"/><path class="cls-9" d="M36.58,141.61a12.65,12.65,0,0,1,5.75.69l-.6,2.49c-1.11-.15-2.15-.38-3.2-.42-1.6-.05-3.22.18-4,1.75-1,1.92-1.47,4,.07,5.9,1.27,1.6,3,1.74,5,1.43V150.5h-2v-2.59H43v2c0,1.39-.1,2.8,0,4.18s-.4,1.67-1.52,1.86c-3,.52-5.94.71-8.68-1-3.67-2.92-3.2-9.06-.23-11.28A22.94,22.94,0,0,1,36.58,141.61Z"/><path class="cls-6" d="M68.57,110.17l-4.71-1.54c5.54-4.1,11-8.23,16.63-12.27,2.29-1.66,4.72-3.12,7.09-4.67v3.83c-5.32,3.84-10.66,7.65-15.93,11.55A29.08,29.08,0,0,0,68.57,110.17Z"/><path class="cls-10" d="M48.73,135.19l-8.51-.07c2.24-3,4.47-6.09,6.72-9.13.45-.6,1-1.16,1.44-1.74l5.43,2.23c-1.55,2.53-3.11,5.07-4.65,7.61A7,7,0,0,0,48.73,135.19Z"/><path class="cls-4" d="M400.38,161.14H390.21q1.23-2.37,2.48-4.74h0l.24-.16c1.18-.19.49-1.17.75-1.75l1.21-2.77c1,3.29,2.34,4.54,5.33,4.55a28.11,28.11,0,0,0,3.89-.47l.16.17Z"/><path class="cls-8" d="M432.26,146.12c-.19.7-.38,1.42-.55,2.06a16.31,16.31,0,0,0-2.41-.37c-.35,0-.71.36-1.07.55.24.33.4.77.72.95.65.38,1.4.57,2.07.92a2.89,2.89,0,0,1,1.69,2.91,3,3,0,0,1-1.87,2.7,7.45,7.45,0,0,1-6.06-.31l.55-2.16A15.24,15.24,0,0,0,428,154a4,4,0,0,0,1.47-.66,5.56,5.56,0,0,0-1-1.11c-.6-.38-1.35-.51-2-.89a3,3,0,0,1-1-4.11,3,3,0,0,1,1-1A6,6,0,0,1,432.26,146.12Z"/><path class="cls-11" d="M108.87,81.21V79.43c1.64-.72,3.26-1.46,4.9-2.16.62-.26,1.26-.45,1.9-.67h0Z"/><path class="cls-10" d="M261,134.94l.06.24h-1Z"/><path class="cls-11" d="M115.64,76.6l.27-.2.07.13-.31.11Z"/><path class="cls-4" d="M404.25,155.72h.2l-.2.27-.16-.17A.18.18,0,0,1,404.25,155.72Z"/><path class="cls-12" d="M388,164.17l-.21.24c0-.08-.07-.16-.1-.23Z"/><path class="cls-13" d="M333.32,103.23h14.9c.84.06,1.17-.27,1.45-1,1.61-4.37,3.28-8.73,5.05-13.39,1.7,5,3.31,9.76,4.95,14.58h15.65l-8.67,6.65-1.72,1.3c-1.91,1.49-1.91,1.49-1.21,3.85l3.62,12,.23.84-6.7-4.78c-1.76-1.26-3.53-2.49-5.24-3.79a1.19,1.19,0,0,0-1.66,0c-3.47,2.48-7,4.92-10.47,7.37-.39.27-.79.52-1.43,1,.79-2.71,1.5-5.17,2.22-7.63.57-2,1.06-3.93,1.77-5.83.42-1.11,0-1.63-.78-2.24-3.51-2.57-7-5.19-10.48-7.79Zm28.87,17.54h-.05a5.34,5.34,0,0,0-.1-1.13c-.53-1.87-1.1-3.74-1.66-5.61-.69-2.27-.69-2.26,1.21-3.72l5.24-4c-.75,0-1.13-.08-1.5-.08-2.12,0-4.24-.06-6.36,0a1.54,1.54,0,0,1-1.83-1.16s0-.09,0-.13c-.63-2.18-1.43-4.31-2.16-6.46-.1-.29-.26-.58-.49-1.08-.71,1.89-1.32,3.53-2,5.16-.45,1.15-.63,2.75-1.48,3.29s-2.46.17-3.73.18h-5.48c2.52,1.89,4.7,3.57,6.94,5.17a1.34,1.34,0,0,1,.6,1.77c-.8,2.53-1.51,5.08-2.33,7.88l7.74-5.41Z"/><path class="cls-10" d="M263.17,134.94v.26h-.95Z"/><path class="cls-12" d="M177.83,164.41l-.07-.23h.75Z"/><path class="cls-12" d="M52.35,164.18l-.06.35c-.11-.12-.21-.25-.31-.37Z"/><path class="cls-14" d="M339.7,120.76a29.89,29.89,0,0,1-10.93,5.7A78.58,78.58,0,0,1,308,129.63a187.17,187.17,0,0,1-22.84-.56c3.56-.87,7.1-1.79,10.68-2.58a254.78,254.78,0,0,1,30.45-4.94C330.77,121.12,335.24,121,339.7,120.76Z"/><path class="cls-15" d="M45.14,148.79a5.78,5.78,0,0,1,3.38-3.14c4-1.13,6.93,1.75,6.16,6.24H48.13a2.1,2.1,0,0,0,2.26,1.93h.1c1.1,0,2.2-.12,3.37-.19l.39,1.94a7.25,7.25,0,0,1-8.47-1.25,7.13,7.13,0,0,1-.84-4.72l.21-.83Zm6.62.87c-.08-1.22-.61-1.94-1.74-2s-1.7.71-1.91,2Z"/><path class="cls-14" d="M394.87,151.75c.31-1.36.61-2.72.92-4.08a5.33,5.33,0,0,1,4.5-2.26c3.24.06,5.33,3.11,4.38,6.51h-6.4c.14,1.83,1.23,2.14,5.63,1.63.12.72.23,1.44.35,2.17a.19.19,0,0,0-.16.11,28.11,28.11,0,0,1-3.89.47C397.21,156.29,395.83,155,394.87,151.75Zm3.32-2.14h3.59c-.07-1.19-.6-1.88-1.72-2C399.11,147.55,398.41,148.29,398.19,149.61Z"/><path class="cls-16" d="M392.69,156.4c-.28,0-.55-.07-.82-.07-2.68,0-3.73-1.07-3.73-3.79v-4.37l-1.37-.13v-2.32l1.32-.11v-2.17l3.16-.74v2.9h2.35V148l-2.3.1v3.26c0,2,.22,2.16,2.24,2.24l.12.88c-.26.58.43,1.56-.75,1.75l-.24.16Z"/><path class="cls-16" d="M268,156.15V141.74c2.11,0,4.17-.09,6.22,0a3.84,3.84,0,0,1,3.8,2.57c.5,1.54,0,2.53-1.94,4.06,1.85.86,2.67,2.06,2.56,3.74a3.91,3.91,0,0,1-3,3.6C273.14,156.56,270.6,156.2,268,156.15Zm3.26-2.4c1.35.07,2.77.35,3.59-1a2.2,2.2,0,0,0,0-2c-.85-1.2-2.21-1.12-3.57-1Zm0-6.43c1.27.07,2.58.33,3.34-.92a2,2,0,0,0-.19-1.72c-.46-.75-2-.84-3.15-.37Z"/><path class="cls-17" d="M153.54,141h3.28v15h-2.73l-.3-1.14a4.22,4.22,0,0,1-4.22,1.31l-.24,0c-2.26-.67-3.57-3.26-3.19-6.28.33-2.58,2.17-4.48,4.5-4.46a13.66,13.66,0,0,1,2.9.64Zm0,9.83c0-2.08-.66-3-2.14-2.85-1.14.09-1.91,1.15-2,2.72-.06,1.76.86,3,2.17,3s2-1,2-2.84Z"/><path class="cls-16" d="M218.82,155.52v4.72h-3.31V145.71h2.74l.15,1.15a5.39,5.39,0,0,0,.5-.33,4.24,4.24,0,0,1,6,.23,4.16,4.16,0,0,1,.89,1.48,6.87,6.87,0,0,1,.08,4.91C224.83,156.16,221.94,157.14,218.82,155.52Zm4.12-4.33a6.22,6.22,0,0,0-.09-1.09,2.16,2.16,0,0,0-2.21-2c-1.12.07-1.82,1-1.85,2.34V152a1.86,1.86,0,0,0,1.46,1.81,1.8,1.8,0,0,0,2.2-1A8.3,8.3,0,0,0,222.94,151.19Z"/><path class="cls-17" d="M173,141.85v2.58h-5.47v2.9h5.13v2.72h-5.09v3.27h5.67v2.77h-9V141.85Z"/><path class="cls-15" d="M364.91,142.21c-.25.91-.49,1.74-.7,2.5a17.15,17.15,0,0,0-3.34-.42c-.6,0-1.17.71-1.75,1.1.4.53.7,1.23,1.23,1.55.93.58,2,.87,3,1.4a3.76,3.76,0,0,1,2.09,3.74,3.9,3.9,0,0,1-2.62,3.66,9.69,9.69,0,0,1-7.31-.23c.24-.94.45-1.8.64-2.54,1.39.22,2.66.5,4,.6a1.57,1.57,0,0,0,1.89-1.16.24.24,0,0,0,0-.08c.18-1-.53-1.42-1.27-1.77-1-.48-2.07-.85-3-1.39a3.62,3.62,0,0,1-2-3.68,3.88,3.88,0,0,1,2.58-3.43A8.74,8.74,0,0,1,364.91,142.21Z"/><path class="cls-15" d="M367.85,160.83c-.22-1-.41-1.81-.6-2.62a23,23,0,0,0,2-1.27,1.62,1.62,0,0,0,.5-2.19c-1.13-2.58-2.13-5.22-3.17-7.84-.14-.37-.26-.74-.41-1.2h3.61c.67,2.17,1.35,4.39,2.09,6.83.61-2.41,1.15-4.57,1.7-6.8h3.56c-1.66,4.16-2.6,8.59-5,12.42A5.7,5.7,0,0,1,367.85,160.83Z"/><path class="cls-8" d="M178.78,156.12h-3.29V145.71h2.71l.22.88a14.64,14.64,0,0,1,2.93-1.12,3.38,3.38,0,0,1,3.94,2.7,3.47,3.47,0,0,1,.06.64c.21,2.4,0,4.83,0,7.3H182.1v-5.38c0-1.78-.53-2.63-1.59-2.63s-1.76,1-1.76,2.65Z"/><path class="cls-17" d="M280.79,145.68h3.29v4.73a15.23,15.23,0,0,0,.13,1.79c.12.89.58,1.53,1.56,1.45a1.63,1.63,0,0,0,1.61-1.65v-6.27h3.28v10.35H288c-.05-.33-.11-.67-.16-1a13.29,13.29,0,0,1-2.26,1.14,3.45,3.45,0,0,1-4.43-2.05,3.22,3.22,0,0,1-.21-1.06,9.45,9.45,0,0,1-.1-1.07Z"/><path class="cls-8" d="M131.35,156.14h-2.67l-.22-1a15.26,15.26,0,0,1-2.81,1.16c-2.35.46-4.08-1.23-4.19-4-.08-2.15,0-4.31,0-6.56h3.32v4.6a13.36,13.36,0,0,0,0,1.55c.15,1.24.76,1.89,1.69,1.77a1.75,1.75,0,0,0,1.58-1.9v-6h3.27Z"/><path class="cls-8" d="M134.11,145.7h2.68l.21.88a13.82,13.82,0,0,1,2.93-1.11,3.3,3.3,0,0,1,3.86,2.62,3.93,3.93,0,0,1,.06.48c.22,2.48.05,5,.05,7.54h-3.19V152a21.13,21.13,0,0,0-.09-2.39,1.45,1.45,0,0,0-1.41-1.49h-.14a1.56,1.56,0,0,0-1.61,1.48c-.1,1.27-.07,2.55-.09,3.82v2.68h-3.26Z"/><path class="cls-15" d="M119.62,144.47h-5.38v3.21h5v2.7h-5v5.69H111V141.82h8.71Z"/><path class="cls-17" d="M308.81,145.68h2.72l.14,1.08c.12,0,.26,0,.33-.09a4,4,0,0,1,4.51-.93c1.62.67,2.12,2.12,2.16,3.71.07,2.18,0,4.37,0,6.64h-3.28v-4.76a11.37,11.37,0,0,0,0-1.43c-.15-1.2-.8-1.92-1.7-1.79a1.77,1.77,0,0,0-1.61,1.91v6.06h-3.21Z"/><path class="cls-17" d="M66.71,156.1H63.48v-5.52c0-1.82-.52-2.5-1.58-2.48s-1.68.9-1.68,2.55v5.44H56.93V145.72H59.6l.26,1.18A4.19,4.19,0,0,1,64,145.54a3.28,3.28,0,0,1,2.68,3.12C66.8,151.12,66.71,153.59,66.71,156.1Z"/><path class="cls-17" d="M97.62,156.1H94.91l-.23-.56a16.47,16.47,0,0,1-3.25.82A3.08,3.08,0,0,1,88.32,154a3.3,3.3,0,0,1,1.57-3.9,11.61,11.61,0,0,1,2.69-.88,9,9,0,0,1,1.64-.18c-.29-1.6-1.7-1.78-4.66-.63l-.62-2.11a8.32,8.32,0,0,1,6.21-.57,3.55,3.55,0,0,1,2.45,3.49C97.7,151.51,97.62,153.78,97.62,156.1Zm-3.31-5a12,12,0,0,0-1.87.39,1.33,1.33,0,0,0-.93,1.64,1.53,1.53,0,0,0,.11.27,1.38,1.38,0,0,0,1.91.4,1,1,0,0,0,.16-.12c.89-.61.81-1.5.62-2.55Z"/><path class="cls-15" d="M77.86,153.56l.44,2.16c-2.51.73-5,1.11-7.28-.29s-2.82-4.92-1.33-7.51a4.91,4.91,0,0,1,9,4H72.22C72.42,153.77,73.59,154.11,77.86,153.56Zm-5.71-3.95h3.61c-.25-1.44-.82-2-1.84-2S72.32,148.38,72.15,149.61Z"/><path class="cls-15" d="M204.21,153.54c.15.72.29,1.37.45,2.16-2.43.75-4.83,1.12-7.14-.19s-3-4.9-1.49-7.55a5.23,5.23,0,0,1,6.76-2c1.86.94,2.71,3.15,2.26,6h-6.53C198.55,153.58,200.35,154.29,204.21,153.54Zm-2.14-3.89c-.17-1.4-.76-2.05-1.72-2a1.9,1.9,0,0,0-1.8,2h3.52Z"/><path class="cls-15" d="M324,151.91c.46,1.81.7,1.88,5.74,1.69.12.68.25,1.37.39,2.13a9.74,9.74,0,0,1-6.06.26c-2.89-.92-4.16-4.28-2.85-7.41a4.93,4.93,0,0,1,9.29,3.33H324Zm3.58-2.25c-.1-1.34-.7-2-1.7-2s-1.73.76-1.86,2Z"/><path class="cls-15" d="M260.33,153.57l.46,2.13a9.18,9.18,0,0,1-6.78,0c-2.56-1.18-3.43-4.72-1.94-7.57a5.21,5.21,0,0,1,7-2.15,4.48,4.48,0,0,1,2.19,3.52,19.54,19.54,0,0,1,0,2.42H254.7C254.81,153.7,256.05,154.07,260.33,153.57Zm-2.19-3.94c0-1.26-.57-1.94-1.55-2a2.06,2.06,0,0,0-2,2Z"/><path class="cls-8" d="M293.31,153.38a18.42,18.42,0,0,0,2.84.61c.44,0,.89-.45,1.34-.7a5,5,0,0,0-.95-1c-.61-.37-1.35-.52-2-.89a3,3,0,0,1-1.14-4.09,3.07,3.07,0,0,1,1.2-1.17,6.17,6.17,0,0,1,5.61,0l-.51,2.08a21.34,21.34,0,0,0-2.51-.35c-.33,0-.66.41-1,.64.23.29.39.69.69.85.66.36,1.4.57,2.07.91a2.89,2.89,0,0,1,1.7,2.91A3,3,0,0,1,298.7,156a8,8,0,0,1-5.94-.29C293,154.88,293.15,154.13,293.31,153.38Z"/><path class="cls-8" d="M191.67,145.66h2.24v2.4H191.7v4.4c0,1.4,1.17,1.12,2.1,1.13v2.58c-.65.06-1.23.15-1.82.15-2.28,0-3.34-.89-3.49-3.17-.12-1.62,0-3.26,0-5l-1.32-.17v-2.3l1.2-.16c.25-2.48.33-2.54,3.31-2.78Z"/><path class="cls-17" d="M242,155.66l.56-2.27a20,20,0,0,0,2.87.6c.41,0,.85-.41,1.27-.64a4.53,4.53,0,0,0-.88-1.07c-.6-.38-1.33-.54-2-.88a2.73,2.73,0,0,1-1.6-2.6A3,3,0,0,1,244,146a6.41,6.41,0,0,1,5.48,0l-.54,2.11a23.31,23.31,0,0,0-2.63-.32,1.14,1.14,0,0,0-.83.66c-.07.15.29.62.55.76.63.34,1.32.55,2,.86a3.11,3.11,0,0,1-.36,5.88A8.2,8.2,0,0,1,242,155.66Z"/><path class="cls-17" d="M339.13,148.18a14.25,14.25,0,0,0-2.34-.37c-.39,0-.78.38-1.16.59a4.84,4.84,0,0,0,.86,1,11.11,11.11,0,0,0,1.44.58,3.11,3.11,0,0,1,2.19,3.21,3.27,3.27,0,0,1-2.58,2.93,8.12,8.12,0,0,1-5.34-.53l.51-2.18a23.74,23.74,0,0,0,3,.59c.38,0,.81-.45,1.21-.7a3.89,3.89,0,0,0-.85-1c-.68-.4-1.49-.58-2.15-1a3,3,0,0,1-1-4.13,3,3,0,0,1,1-1c1.82-1.11,3.72-.89,5.73-.16Z"/><path class="cls-17" d="M385.17,146c-.21.81-.38,1.49-.54,2.13a23.16,23.16,0,0,0-2.62-.33,1.14,1.14,0,0,0-.81.65c-.07.17.27.63.53.77.55.31,1.17.48,1.75.74a3.07,3.07,0,0,1,2.12,3.25,3.15,3.15,0,0,1-2.62,2.88,8.1,8.1,0,0,1-5.27-.46c.16-.77.32-1.52.48-2.26a19.64,19.64,0,0,0,2.84.6c.44,0,.9-.44,1.36-.68a5,5,0,0,0-.94-1c-.57-.35-1.25-.51-1.84-.82a2.76,2.76,0,0,1-1.67-2.56,3,3,0,0,1,1.68-2.82A6.43,6.43,0,0,1,385.17,146Z"/><path class="cls-17" d="M349.07,146l-.55,2.15a21.21,21.21,0,0,0-2.52-.35c-.32,0-.64.35-1,.54.2.31.32.73.6.9a15.82,15.82,0,0,0,1.75.74,3.14,3.14,0,0,1,1.88,4,3.1,3.1,0,0,1-2.19,2,8.1,8.1,0,0,1-5.53-.38l.57-2.26a18.86,18.86,0,0,0,2.78.6c.44,0,.91-.42,1.37-.65a5.08,5.08,0,0,0-1-1.12c-.6-.38-1.35-.51-1.94-.89a3,3,0,0,1-1-4.11,2.92,2.92,0,0,1,1.1-1.08C345.22,145.05,347.11,145.3,349.07,146Z"/><path class="cls-17" d="M100.37,141h3.17v15h-3.17Z"/><path class="cls-8" d="M210,145.73l.2,1.37c1.41-1.51,1.92-1.75,3.55-1.59v3h-.89a2,2,0,0,0-2.24,1.73,2,2,0,0,0,0,.35c-.08,1.39,0,2.79-.05,4.19v1.32h-3.28V145.73Z"/><path class="cls-17" d="M231.32,147.27a3.29,3.29,0,0,1,3.42-1.81v3h-.89a2,2,0,0,0-2.14,1.85,1.82,1.82,0,0,0,0,.33V156H228.4V145.74h2.66Z"/><path class="cls-16" d="M80.94,145.7h2.68l.18,1.57c.86-1.25,1.87-2.05,3.47-1.8v3h-.63c-1.66,0-2.42.73-2.44,2.38s0,3.41,0,5.19H80.94Z"/><path class="cls-15" d="M306,145.72v10.37h-3.18V145.72Z"/><path class="cls-15" d="M236.67,145.71h3.15V156.1h-3.15Z"/><path class="cls-8" d="M238.29,141.13a1.67,1.67,0,1,1,.09,3.34h-.22a1.67,1.67,0,1,1-.09-3.34Z"/><path class="cls-8" d="M306.14,142.81a1.72,1.72,0,1,1-1.72-1.72A1.72,1.72,0,0,1,306.14,142.81Z"/><path class="cls-18" d="M362.19,120.78l-7.37-5.3-7.74,5.41c.82-2.8,1.53-5.35,2.33-7.88a1.34,1.34,0,0,0-.6-1.77c-2.24-1.6-4.42-3.28-6.94-5.17h5.48c1.27,0,2.82.4,3.73-.18s1-2.14,1.48-3.29c.63-1.63,1.24-3.27,1.95-5.16.23.5.39.79.49,1.08.73,2.15,1.53,4.28,2.16,6.46a1.52,1.52,0,0,0,1.72,1.31l.13,0c2.12-.09,4.24,0,6.36,0a12.16,12.16,0,0,1,1.5.08l-5.24,4c-1.9,1.46-1.9,1.45-1.21,3.72.56,1.87,1.13,3.74,1.66,5.61a5.34,5.34,0,0,1,.1,1.13Z"/><path class="cls-19" d="M51.76,149.66H48.11c.21-1.33.92-2.12,1.91-2A1.92,1.92,0,0,1,51.76,149.66Z"/><path class="cls-13" d="M398.19,149.61c.22-1.32.92-2.06,1.87-2,1.12.1,1.65.79,1.72,2Z"/><path class="cls-19" d="M271.24,153.75v-3.92c1.36-.14,2.72-.22,3.57,1a2.2,2.2,0,0,1,0,2C274,154.1,272.59,153.82,271.24,153.75Z"/><path class="cls-19" d="M271.24,147.32v-3c1.12-.47,2.69-.38,3.15.37a2,2,0,0,1,.19,1.72C273.82,147.65,272.51,147.39,271.24,147.32Z"/><path class="cls-19" d="M94.31,151.13c.19,1.05.27,1.94-.62,2.58a1.39,1.39,0,0,1-2-.12l-.12-.16a1.33,1.33,0,0,1,.55-1.8,1.09,1.09,0,0,1,.27-.11A12,12,0,0,1,94.31,151.13Z"/><path class="cls-19" d="M72.15,149.61c.17-1.23.82-2,1.77-2s1.59.56,1.84,2Z"/><path class="cls-19" d="M202.07,149.65h-3.52a1.9,1.9,0,0,1,1.79-2h0C201.31,147.6,201.9,148.25,202.07,149.65Z"/><path class="cls-19" d="M327.61,149.66h-3.56c.13-1.29.83-2.06,1.86-2S327.51,148.32,327.61,149.66Z"/><path class="cls-19" d="M258.14,149.63h-3.51c.14-1.27.93-2.09,2-2S258.1,148.37,258.14,149.63Z"/></svg>