<svg id="Layer_1" data-name="Layer 1" xmlns="http://www.w3.org/2000/svg" viewBox="0 0 450 450"><defs><style>.cls-1{fill:#4dbfd9;}.cls-2{fill:#1ac;}.cls-3{fill:#fff;}.cls-4{fill:#1c90bf;}.cls-5{fill:#eaad8c;}.cls-6{fill:#d89273;}.cls-7{fill:#f4bd9a;}.cls-8{fill:#0f303f;}.cls-9{fill:#d39572;}.cls-10{fill:#cc9860;}.cls-11{fill:#f15723;}.cls-12{fill:#261b11;}.cls-13{fill:#161412;}.cls-14{fill:#915625;}.cls-15{fill:#050505;}.cls-15,.cls-23,.cls-41{opacity:0.1;}.cls-16{fill:#c0392b;}.cls-17{fill:#c63c17;}.cls-18{fill:#3f3f3f;}.cls-19{fill:#634335;}.cls-20{fill:#96281b;}.cls-21{fill:#7a1c15;}.cls-22{fill:#2d2d2d;}.cls-23{fill:#070707;}.cls-24{fill:#f5815a;}.cls-25{fill:#d36446;}.cls-26{fill:#4f3518;}.cls-27{fill:#eb9532;}.cls-28{fill:#2c566d;}.cls-29{fill:#d3cdcd;}.cls-30{fill:#443f37;}.cls-31{fill:#8e8078;}.cls-32{fill:#776963;}.cls-33{fill:#423733;}.cls-34{fill:#3a2613;}.cls-35{fill:#dbd2c3;}.cls-36{fill:#334056;}.cls-37{fill:#232e3f;}.cls-38{fill:#3a4b60;}.cls-39{fill:#6d370b;}.cls-40{fill:#f7c692;}.cls-41{fill:#11100f;}.cls-42{fill:#def1fc;}.cls-43{fill:#97b8c9;}.cls-44{fill:#3a4456;}.cls-45{fill:#d6d2d0;}.cls-46{fill:#afa5a0;}.cls-47{fill:#efedee;}.cls-48{fill:#922027;}.cls-49{fill:#7b1d25;}.cls-50{fill:#a06637;}.cls-51{fill:#c1874d;}.cls-52{fill:#e87e04;}.cls-53{fill:#95a5a6;}.cls-54{fill:#5f6d6d;}.cls-55{fill:#c6c6c6;}.cls-56{fill:#ffdbc7;}.cls-57{fill:#333;}.cls-58{fill:#95d8e9;}.cls-59{fill:#5c97bf;}.cls-60{fill:#4b77be;}.cls-61{fill:#a7a9ac;}.cls-62{fill:#d1d3d4;}.cls-63{fill:#7f9392;}.cls-64{fill:#87624d;}.cls-65{fill:#aa9185;}.cls-66{fill:#5fa88e;}.cls-67{fill:#468875;}.cls-68{fill:#f4a889;}.cls-69{fill:#e6e7e8;}.cls-70{fill:#7d77af;}.cls-71{fill:#6355a1;}</style></defs><rect class="cls-1" width="450" height="450"/><path class="cls-2" d="M28.91,182.3c.29.11.1,1.92-.09,2.26a3.88,3.88,0,0,1-2.68.46c-.77-.23.37-.8,1.33-1S28,181.92,28.91,182.3Zm-7.38,2.49c-1.14-.11-2.3,0-2.49.45s1.05.8,1.82.8,2.3-.58,2-.68ZM29.2,174.6c-.76,0-.38,0-1.34.33-.39.15.68.91,1.05.91S30,174.6,29.2,174.6Zm148.7,89.6c.09,1.13-1.05,3.51-1.16,4.08a13.85,13.85,0,0,1-3.06,4c-1.44,1.36-.58,2.94-.48,3.63s-1,3.17-.67,3.73-.39,1.81-1,2.61a25.5,25.5,0,0,0-1.34,2.94c-.38.68-1.63.46-2.78.79a8.51,8.51,0,0,0-1.73.68,32.65,32.65,0,0,0-3.16,2c-1.15.91.38,2.49-.2,3.75s-1,.13-1.61,1.59-1,1.24-1.45,1.57a3.25,3.25,0,0,0-.87,2.15c-.08.91-1.05,1.82-2.3,3.18s-2,1.13-3.35.67-1.15-4.3-1.34-3.74-.85,2.53-.66,2.88a13,13,0,0,0,2,2c.48.34.38.9,0,1.47s-1.43,2.61-1.82,2.72-3.36.56-3.93.22-.86.8-.77,1.49.57,1.46-.48,1.23-2.49-1-2.49-.44.29,1.81.86,1.81,1.16-.46.86.34a5,5,0,0,1-1.43,1.81,17.08,17.08,0,0,1-1.83,2.26c-.95.8-.95,1.24-.76,1.58s1.63.12,1.91.36-.28,1.81-.66,2.14-2,1.93-2.69,2.38-.67,1.81-.48,2.49a6.66,6.66,0,0,0,2.59,2.72c.86.34,2.68.23,2.49.56s-2.3.69-2.59.8a10.88,10.88,0,0,1-2.59.57c-.76,0-2.2-.92-2.49-.92s.2-.45,1.16-1.35-.39-1.92-.58-.68-.58,1.58-1.06,1.58-1.05-.79-1.34-1.13-1.54-.69-1.34-2-.58-1.24-1.15-1.81.76-1,.57-1.58-1.05-.24-1.15-1,.77-1.93.87-2.27-.58-1-.67-1.58.38-1.14,1.05-2A6.36,6.36,0,0,0,134,312a19.22,19.22,0,0,1-.48-2.5c0-.89.48-1.23.67-2.49s-.67-.78-.67-1.81,1-.68.77-1.7.48-1.7.76-2.38.58-1.81,1-2.6-.38-2.6-.38-2.95,1.25-.79.67-1.47.5-.9,1.08-1.47-.41-2.49-.12-4.54.58-5.55.58-5.88a5.83,5.83,0,0,0-.39-2.61,4.26,4.26,0,0,0-1.72-1.92c-.68-.35-1.54-1.37-2-1.48s-3.37-1.06-3.37-2.65-1-2.9-1.23-4-1.63-3.62-1.73-4.75-2.11-1.47-2.39-2.72.42-2,.61-2.85a10.52,10.52,0,0,0-.23-3.14,4.76,4.76,0,0,1,1.44-2.79c.57-.34,1.63-1.52,2-1.52s.29-1.25.67-2.5a4.24,4.24,0,0,0-.47-3.18c-.29-.22-.58-1.69-1.06-2.14s-1.44-.23-1.44-.23a1.65,1.65,0,0,1-.67,1.6c-.86.55-1.06-.12-1.34-.46s-1.34-.46-1.83-1a8.79,8.79,0,0,0-1.82-1.7c-.57-.34-2-.63-1.87-2a2.65,2.65,0,0,0-1.1-2.42c-.38-.23-1.15-.79-1.63-.45s-1.34-.68-2-.56-2-1.37-2.48-1.94-.86-1.36-1.73-1.36-1,.34-1.53,1.14-1.44-.57-1.73-.91-1.68.23-2.74.23-1.53-2.17-1.57-2.61c-.15-1.69-3.07-1.69-3.74-2.15s-1.34-2.15-1-2.6-.49-1.93-.49-1.93-1.34-1.81-1.82-1.81-2-3.17-2.88-4.08-2.87-2.95-3.25-4-.48-2.6-1.44-1.81-.19,1.59.76,2.49.78,1.81,2.11,3.07.77,2.48,1.35,3.05,2.59,1.93,1.72,2.84-1.72-1.15-2.11-1.25-1.24-.34-1.15-1-.76-1.25-1.43-2.27-1-.45-1.82-.45-.1-1.25.38-1.82-.48-1.35-1.06-1.58-1.34-2.83-2.11-4.42-1.34-2.37-2.2-2.26a5.13,5.13,0,0,1-2.86-1.21c-.58-.44-.4-3-1.36-4.12a7.83,7.83,0,0,1-1.73-4.52c.1-1.25.38-4.42.38-5.21a20.34,20.34,0,0,0-.73-2.65c0-.33-.22-1.33-.61-1.44s-1.62-1.22-2.49-1.22-1.24-1.6-.95-2.4a2.14,2.14,0,0,0-1.25-2.15c-.48,0-1.25-1.48-1.54-2.27s-1-.79-.86-.34-.1,1.25.38,1.48.87,2,.48,2.25-1.24-.67-2.2-1.24-.58-2.83-.58-3.39-1.34-1.14-1.91-1.14-1.16.12-1.25-1.35a2.8,2.8,0,0,0-2.4-2.27c-.57,0-3.8-1.1-4.76-1.1s-2.43-1.39-3-.94-1.63-.79-2.21-.79-.26,1.54-1.33,2.33-1.73-.75-2.31-.18-2,1.13-1.54-.23.48-1.58-.28-1.25a1.94,1.94,0,0,0-1,1.82c0,.57-1.35,1.47-1.35,1.47a8,8,0,0,0,1.73,0c.48-.11.1,1.25-.38,1.58s-1.16,1.25-1.92,1-.86-1-1.34-1.14-1,1.47-2.73,2.49-2-.45-2.64-.11a21.59,21.59,0,0,1-3.93,1.48c-.87.11-.68-1.25-.19-1.25a10.5,10.5,0,0,0,2.78-1.36c.47-.34,2.59-1.25,3.16-1.58s1.54-.91,1.16-1.59-1.64.34-1.64.34-1-1-1.24-1.25-.87.91-.87.91a1.17,1.17,0,0,1-1-1.47c.29-1.25-.67-1.25-.87-.68s-1.82,1.47-1.92.9-1.53-1.7-1.91-2.6.38-1,1.25-1.81a4.05,4.05,0,0,1,3.16-.91c1,.11,1.73-1.36,1.34-1.48a1.59,1.59,0,0,0-1.63.34c-.58.57-2,.46-2,.46a6.28,6.28,0,0,1-3-.68,5.42,5.42,0,0,1-1.35-1.7,11.05,11.05,0,0,1,3.07-.9l1.05-.58.58.58a4.3,4.3,0,0,0,2.39.9c.87.12.87-.57.2-1.25a1.84,1.84,0,0,0-1.44-.67c-.57-.12-.67-.8-2.2-.8s-1.34-.9-1.54-1.36,1.47-1.34,1.85-1.22a6.56,6.56,0,0,0,1.79-.25s2.5-1.14,2.78-.91,1.73-.23,2.4-.45,1.06-1.47,1.06-1.47a4,4,0,0,1,1.34.9c.48.57,1.53,0,1.82,0s1.88.37,1.88.37l2.32-.34c.77-.12,3,.88,3.76,1.11S55,160,55.37,160s1.73,2,3,1.67a2.42,2.42,0,0,1,2.1.34,1.64,1.64,0,0,1,1.06.79c.48.69,1,.12,1.63-.33s.57-.91.57-.91l.58-.12c.57-.11,1,.23,2.59.35s1.24-.35,2.39-.8,2.31.57,2.69.45.87-1,1.15-.56.77,1.36.77,1.36,1.24-1.13,1.63-1.13a32,32,0,0,0,3.24.1,4.07,4.07,0,0,1,2.8.69c.57.57,2,.45,2.78,1s1.53-.45,1.15-.68a13.48,13.48,0,0,1-1.35-1.13s-1.44-2-1.62-2.38-.48-.34-.86.56-1.83.91-3.46,1-.58-.9-2.39-1-1.16-.9-.58-.9,1-1.36,1.15-2.15.86-.68,2.21-.57,1.72-.23,3.07,0,1.24-.68,2.58-.57.67.34,1.43.91,1.26.45,2.31,1,.67.56,1.16.68a18.94,18.94,0,0,0,3.06-.34c1-.12,1.72-.23,2.2.45s.39,1.47,1.06,2-.38-2-.38-2.94,1.34-.12,2.2-.12,1.82-.34,2,.12-1.24,1.13-.38,2.15,1.44,1.35,2.21,1.35,2.49.23,1.72,1.48S100.05,163,99.38,163s-1.81.46-1.53,1.14,1.82.33,2.87.33,4.32.34,5.18,0,.67-1.7-.29-2-.19-1,.77-.8,1.91-.34,1.72,0,.1,1.13.1,2,.29,1.48,1,1.25.55-1,1.22-1.09.51-1.4.12-2.43a4.81,4.81,0,0,1-.58-2.15c.1-.56,1.16-.68,1.73-.11a14.55,14.55,0,0,1,1.35,1.7,4.92,4.92,0,0,1,1.53,1.7c.38.91.48.68,1.24.11s1-.45,1.64.11.19,1.7.19,2,1,0,1.15-.67,1-.68,1.44-.91.47-1.59.47-1.59a8.07,8.07,0,0,0-2.49-.23,2.81,2.81,0,0,1-2.59-.9c-1-.79-.38-1.36-.86-2.15s1.53-1.25,2.78-1.93,2.49-.22,2.2,1.48-.47,1.47,1,1.13-.1-1.82.58-1.93a14.33,14.33,0,0,1,3-.34c.57.12,3.74-.34,4.51-.34a7.16,7.16,0,0,1,2.87,1.36c.87.57,3.17,1.36,3.74,1.7a47.26,47.26,0,0,0,5,1.13c.38.12.38,1.47.76,2.61s1.44.34,1.82.34A4.39,4.39,0,0,1,145,165c.39.57,3.27,1,3.27,1s-.68,1-1,1.35a15.57,15.57,0,0,1-1.54,1c-.57.45-1.24-.12-2-.68s-2.11-.91-2.4-.68-.09.68.1,1,1.43.79,2.21,1.47.57,1.36.66,2.26-.76-.34-1.72-.56-1.06.9-1.06.9-1.24-.11-1.82-.11,0,0-1.05-.9-.86.56-1.44.11-1.15-1.13-1.44-.91-1.24-1-1.82-.91-2.88-.34-3.45-.11-1.06.23-1.53.46-.67-1.6-.39-2.16,1-.67,2.2-.33,1.35,0,1.64-.58a2.71,2.71,0,0,1,1.91-1.58c1.35-.45-.09-.8-.48-1s-.86-.68-1.15,0a6.82,6.82,0,0,1-1,1.48,18,18,0,0,1-1.83-.12c-1.05-.11-.28-.57.19-.79s1.06-1.59.58-1.93a1.4,1.4,0,0,0-1.54-.34c-.85.23-.28-.79-.85-1.14s-.39.23-.39.69-.86.34-.86.34a4.71,4.71,0,0,0-1.83,0c-.48.23-1.34.68-1.05,1s1.25.34,1.53,1.36-1.24,1.24-1.53,1.36-1.44.56-1.44.56a9.15,9.15,0,0,0-2.11-.33c-1,0-1.24.1-1,.56s.67.23,1,.23.29.56,1.16.33.67-.56,1.44.35,1.53.79,2.78,1.58-.2,1.7-.87,1.7-.66-.68-1-1.36-1.92.12-1.92.12a5.42,5.42,0,0,1-1.91.79c-.68,0-1.16-.11-.3-.91s-1-.91-1-2-.55,1.93-.55,2.5-.6-.69-2.23-.46-1.34.91-3.45,2.49-1.56,1.22-1.37,2.7-.35,1.72.51,1.95.57,1.92,1.25,1.81,1.15-.68,2.49.11a9.72,9.72,0,0,0,3.64,1.36,6,6,0,0,0,3.28-.08c.87-.23,1.7.88,1.7,1.67s.58.91.49,1.92,1.05-.9,1.05-.9.48,1.7.09,1.92.1,1.25.58,1.14,1.15.34,1.73-.24-.29-2.25-.29-2.93-.57-1-.87-1.7.77-.8,1.16-.12,1,.12,1.72-.45a2.31,2.31,0,0,0,.67-1.59,8.5,8.5,0,0,0-2-2.26c-.87-.46-.48-.57.38-.8s0-.56.2-1.81.18-2,.67-2a23.93,23.93,0,0,1,3.64-.22c1.44.11,2.11,1.36,3.07,1.47s2.49.34,2.78.9-1.7.93-1,1.83,1.41.56,2.08.9,1.44.11,2.3-1.25,1.25-1.48,1.53-1.25,2.12,2.72,2.59,3.29a8.05,8.05,0,0,1,1.05,2.78c.09.57,1.93.16,2.31.16a4.31,4.31,0,0,1,2,1.93c.19.68.57.91,1.81,1.24s0,1.59-.28,2.27-.48.9-.87,1.7,0,0,.48.34.67.79,1.44.57a1,1,0,0,1,1.44.67c.28.69.67,1.25,1,1.82s0,1.47-.39.9-1.62-.22-1.62-.22-.58.68-.77.34a1,1,0,0,0-1.25-.57,12.9,12.9,0,0,1-2.11.12c-.77.11-1.05-.46-.57-.91s.57-2.15,1.53-2.83.67-1.7,0-1.7-1,1-1.34,1.25-1.69-.43-2.36.14-1.77,1-1.09,1.21-1,1.14-1.53,1.14-.39-1.48-.39-2-.77.34-.77.34-1.53-1-2.1-.34-2.65.38-3.33,1.07a6.14,6.14,0,0,0-1,2.43,9,9,0,0,1,1.73-.67,5.91,5.91,0,0,0,2-.79c1-.57,1.92-.79,2.59.22a1.07,1.07,0,0,1-.28,1.59,2.83,2.83,0,0,0,.76,1c.38.23.48-.22,1.15-.67s.38.9.57,1.36.87.45,1.25-.12.67-1,1-.68a8.4,8.4,0,0,1,.86,1.93c.29.79-2,1-2.39,1.13s-2.21.57-2.5.68-1.24,1.13-2,1.13-.68-1.35-.77-2.15-1,.11-1.15.46-1,.22-1.63.34-1.82.9-1.82,1.81,1.35,1.87,1.06,2.33-2.5.27-3.17,0-1.63.34-1.34.8.09,1.13-.57,1-.77.68-.49,1.25-.86,1.69-1.15,1.24-.86-.68-.86,0a5.91,5.91,0,0,0,1.14,2.53c.57.9-1.62,1.1-2.29,1.77s-2.17,3-3.12,3.47-1.77,1.86-1.29,2.42,1,2.95,1.34,3.75-.09,3.05-1,2.94-.38-1.47-1.24-1.81-1.35-2.39-1.54-3.74-.38-.57-1-.12-1.16-.9-1.44-1.24-1.72.66-2.86.55-1.75.13-1.75.47-.19,1.35-1.24.68a3.06,3.06,0,0,0-2.3-.68c-1.06,0-2-.12-2.21.34a4.53,4.53,0,0,1-1.92,1.69c-.67.23-1.91,1.36-1.34,1.6s.57,1.8.19,2.71a9.47,9.47,0,0,0-.09,4.08c.19,1.59,1.34,2.6,2.39,3.63s1.45,1.35,2.5.45,1.44-.34,1.72-.22,1.06-.58.76-1.6a1.3,1.3,0,0,1,1.26-1.8c.86.11,2.11-.35,2.78-.24s1,2.27,0,3.17-.48,2.28-.67,3.29-1.06,1.25,0,1.25.77.22,1.43.33,1.35-.67,2-.79,2.4,1.71,2.11,2.62a11.78,11.78,0,0,0-.49,3.95,3.43,3.43,0,0,0,.68,2c.19.46,1,1.47,1.82,1a6.48,6.48,0,0,0,2-1.25c.28-.46,2.1.79,1.91,1.13s.67.68,1.24.34.87-.91,1.45-1.81a4.64,4.64,0,0,1,2-1.82c.48-.1,1.63-1.47,2.4-1.24s-.3,1.36-.39,2,0,2.61.39,2.71.19-1.35.67-2.37a2.68,2.68,0,0,1,1.91-1.59c.48,0,.87,2.38,1.54,1.7s2-.57,2.3.11a4.09,4.09,0,0,0,.57,1,1.59,1.59,0,0,0,.49-1c0-.56,1.53-1.13,2.49-.45s.57.91,1.05,1,1-1.47,1.24-1.59,0,1.82-.67,2.84.58.67.58.67l.29.35c.28.34,1.24-.35,1.63.34s1.06.91,1.63,2.15,1.23.14,2.38-.09,2.79,1.45,3.94,2.92,1,2.61,1.73,2.61,1,1.24,1,1.7-1.72,1.47-2.69,1.69-1,1.37.58,1,.86-1,1.82-1.37,1.92.46,1.06,1.82-2.6,1.47-1.06,1.69.68-.22,1.53-1.58.77-.91,1.35-.91a4.4,4.4,0,0,1,2.3.8c.48.45,1.72,1.13,2.49,1.69a2.4,2.4,0,0,0,2.3.12c.58-.22,2.2.68,2.78,1.58s2,1,2.69,1.37A4.29,4.29,0,0,1,177.9,264.2Zm-51.48-66.61s-1.73.79-1.82,1.13-.49,0-.19.69c.21.51,1.24.11,1.81-.58s1.83-.9,2.21-1.47.67-.45,1.63-.9,1.73-.57,1.34-1.14-2.39,0-2.68-.22S126.42,197.59,126.42,197.59ZM120.85,192a2.87,2.87,0,0,0-2.29,1.36c-.39.91,0,2.61-.1,3.28s-.29,2.61.57,2.73,1-1.48.86-1.93-.09-2.38.3-2.72.86-1.36,1.91-1.47a1.52,1.52,0,0,1,1.63,1.81c-.1,1,.19,2,.58,2s1.53-.79,1.15-1.46.28-2.95.28-2.16a1.23,1.23,0,0,0,1.25,1.25c.48-.11-.48-2.16-1.15-2.27a7.93,7.93,0,0,0-2.3,0C123.25,192.6,121.62,191.93,120.85,192Zm-6.41-1.35c0,.6,1,.67,1.52.33a9.91,9.91,0,0,1,1.83-.68c.38-.12.19.57,1,.57s1.92.33,2.21.23,1.14-1.48.47-1.59a5,5,0,0,1-2.29-1.59c-.58-.67-1.92.91-3.17,1.48S114.44,189.78,114.44,190.69Zm-36.06-1.14a8.83,8.83,0,0,0-2.11-1.81c-.28,0-.86-.68-1.15-.8-.78-.31.29,1.36.77,1.7s1.44.35,1.54.91.38,1.93.86,1.81S78.76,190,78.38,189.55Zm44.1-18.17c-.26.34,1.15.84,1.41.38S123.12,170.56,122.48,171.38Zm3.71.69c-1,.34-.06,1.2.58.9S127.09,171.76,126.19,172.07Zm-46.27-18a8.49,8.49,0,0,0,2.56-.22c.38-.23,2.3-.75,2.24-.08s.76,1.73,1.2,1.59,1.35-1.13,1.79-.76.52,1.29,1,1.51a3.72,3.72,0,0,0,2.24,0,7.48,7.48,0,0,1,2.88-.07c.7.15,2.75.6,2.94.15s.76-.53.84-1,.37-1.88.37-1.88-.37-.83-1-.46-.83.61-1.41.46-.57-1.36-1.6-1.13-1.21.91-1.53,1.2a1.5,1.5,0,0,1-1.28.38c-.25-.15-1.72-1.13-1.72-1.13s-3.07-.15-3.2-.6-.63-1.21-2.05-1.06-3.83,1.13-4.21,1.13.45.91-.07.91-1.14-.08-1.34.6C78.38,154.1,79.09,154.09,79.92,154.09Zm9.4-2.41c.51,0,1.78-.53,2.17-.15s1.34.08,1.27-.3.39-1.9-.38-2-1.85.83-3,1.28C88.64,150.83,88.8,151.68,89.32,151.68Zm10-1.14c.77,0,2.43-.45,2.56-.07s-.06.68.83.83a13.17,13.17,0,0,0,1.79.31c.51,0,.32-1-.13-1.67s-.32-.6-1.46-1a7.56,7.56,0,0,0-3.07-.3c-.78.07-1.61-.16-1.79.91C97.91,150.1,98.52,150.54,99.28,150.54Zm0,2.5c-.48.49,0,2-.19,2.18s.07.84.58.69.76-1.59,1.15-1.59,2.36-.53,2.68.3.32.45,1.22.53,1.59-1.06,1.66-1.44-.45-1.13-1.66-1S99.8,152.51,99.28,153Zm4.86,3.85c-.44.23-1.79-.38-2.49.15a.94.94,0,0,0,.51,1.51c.71.07,1.92-.53,2-.07s.57,2.49,1.72,1.81,1.09-1.29,1.4-1.36-.06-1.74-.57-2.12A3.92,3.92,0,0,0,104.14,156.89Zm6.14,1.28c.83-.15,2-.3,2.61-.38s.71-1.21.07-1.28-1.15-.76-1.73-.53-2.55,1.21-2.36,1.74A1.3,1.3,0,0,0,110.28,158.17Zm.64-3.32c-.32-.91-1.92-1.21-2.24-.3S111.23,155.75,110.92,154.85Zm-3.59-3.47c.71.37,1.86,1.05,2.69,1.43s2.43.45,2.94,1.21a5.82,5.82,0,0,0,2.24,1.36l2,.23a8.58,8.58,0,0,1,2.86-.23,41.08,41.08,0,0,0,4.87.3c1.21-.07,1.41-.53,1.53-.83s-2.23-.91-2.81-.83-3.84.07-4.79,0a18.12,18.12,0,0,0-3,0c-.76.07-1.34-.6-1.91-1s-1.86-1.59-2.62-1.74a22,22,0,0,1-2.24-.6c-.81-.24-2.17-.53-2.17-.76S106.63,151,107.33,151.38Zm92.22,16a5,5,0,0,0-2.3-1c-.58-.08-1.16.53-2.44.53s-2.1.6-2.62,0-2.62-.91-2.81-.53-.76.53-.25,1.59.89,1.66,1.34,1.58,2-.15,2.18.46.69,1.13,1.78.75,2-.6,2.24-1.05,2-.53,2-.53S200.06,167.92,199.55,167.38Zm-13.19-9c-.24-.53-.8-2.19.43-2.34s3.54,1.58,3.48.38a7.3,7.3,0,0,1,.35-3.18c.35-.68,1.1-1.13.7-1.36s-.94.31-1.35-.83a2.25,2.25,0,0,1,.82-2.41c.47-.45,2.92-3.4,4.27-3.85s2.28-2.19,1.34-2.57-2.8-1.06-4,.15-1.93,2.34-3.34,2-1.61-2.38-2.4-3.41c-1.15-1.5-.45-4.44-1.68-4.22l-1.23.23a6.5,6.5,0,0,0-2.32-.07c-1.17.29-1.93,1.12-2.6.93a4.42,4.42,0,0,0-2.82.55,9.89,9.89,0,0,1-5.58-.34,15.38,15.38,0,0,0,3.81,0c1.39-.25,3.73-.81,4.88-1s.22-.76-.18-.82c-1.48-.19-3.73-.91-5.5-1-1.39-.09-2.28.41-3.68.45-1.77.06-3.9-.07-5.29.95a10.9,10.9,0,0,1-2.93,1.14c-.69.91-1.33,3.18-2,2.57s-.76-2.11-1.58-1.51-.06,2.12-.76,3.17-2.69.91-3.27.54-1.17-.68-3.51-.54-4.91,1.06-4.38,2-1.06,1.43-1.46,1-2.28.53-2.16,1.44-.3,2-1.29,1.73a1.42,1.42,0,0,0-1.75,1.28c-.06.76-2.28,1.29-2.46,1.29s-3-.08-2,.83c.7.61,1.11.23,2,.45s1.58,1.89,2.05,2.12a1.15,1.15,0,0,0,1.4-.46,11.41,11.41,0,0,0,.7-2s0,1.51.7,1.81,2.45-.22,2.93-.16a18.81,18.81,0,0,1,4,1c.76.45,2.63.76,3.15,1.74s.59,4.38.89,4.75,1.28-1.2,1.51-1.58,1.46-.15,1.87.38,1.34,1.81,1.29,2.34-.24,1.35-.59,1.06-.93-.24-.7-.84.35-1.89-.12-1.89h-.87s-.88-.3-1.46.84-.12,2.26.29,2.26,1.34,0,1.34.3-1,1.22-.93,1.74a13.36,13.36,0,0,0,1,2.72c.23.38,1.46.75,1.81.83s-.82.15-.53.68.76,1.81,1.41,2.11a8.56,8.56,0,0,1,2.69,2.27c.23.6,1.64-.45,1.93-.53s.23,1.58,1.05,1.66,1.11-.15,1.81-.83.52-1.59.58-2.26,0-1.21.76-1,1.17-.15,1.11-.9-.7-1.66.53-1.9,1.87-1.2,2.63-1.2,2.86.38,3.1,0,1.23-2.63,1.87-2.71a21.1,21.1,0,0,0,3.85,0c1.52-.3,3.16-1.43,3.68-1.35s1.82.07,1.41-.38-1-1.51-1.88-1.51-1-2.33-.79-2.33,2.37.89,2.31,1.65.36,1.73,1.52,1.43A1.14,1.14,0,0,0,187,160,10.56,10.56,0,0,1,186.36,158.4ZM132.07,228c.1-.45-1-1.7-1.73-1.58s-2.11-.8-2.87-1.59a4,4,0,0,0-2.78-.79,18.84,18.84,0,0,0-2.87.79c-.1,1.13.85.79,2,.79s3.16-.22,3.54.34a24.52,24.52,0,0,0,2.59,1.93C130.44,228.29,132,228.4,132.07,228Zm-2.88-5.21c1.06-.23.49-1.25-.38-1.13S128.14,223,129.19,222.74Zm.1,8.25c-.88.18-.67,2.2.39,1.83S130.15,230.81,129.29,231Zm12.65-1.25c-.87.18-.66,2.21.39,1.84S142.81,229.55,141.94,229.74Zm-4.3-1.45a4.72,4.72,0,0,0-2.21.11c-.58.11-2.2,1.81-2.2,1.81a10.39,10.39,0,0,0,1.72.23c.67,0,1.05.45,1.63.79s1.63-.45,2-.45.87,1.35,1-.11A2.38,2.38,0,0,0,137.64,228.29Zm135.27,43c-1.2-.4-1.34,1.48-2.3,2.72s-2,2.26-2.4,2.15-2.49.79-1.82,2.49.57,3.4-.1,4.2.57,3.05.39,4.3.28,2,1.62,2,1.83-.57,2.4-2,.68-2.94,1.25-4.19,1.06-3.85,1.34-4.53a11.8,11.8,0,0,0,.77-4.08C274,273.15,273.58,271.55,272.91,271.33Zm34.8-29.11c-.62.33-1.26,5.78-.11,6.24s1.93-3.4,1.55-4S308.57,241.77,307.71,242.22ZM227.85,201.9A1.46,1.46,0,0,0,227,200c-.91,0-1.35,1.7-.78,2.27S227.37,202.69,227.85,201.9Zm-7.19,0c.19-.46-.29-1.37-1-.12C219.47,202.21,220.46,202.35,220.66,201.9ZM233.41,206c.38.11,1.63,0,1.25-1.13a1.49,1.49,0,0,0-1.54-1.13c-.29,0-1.53-.34-2,0s.57,1,1.06,1.24S233,205.86,233.41,206Zm-27.8-21.18c-.58.34.09,1.7.86,1.81s1.63-.56,2.3-.9,1.63-1,1.63-2a3.92,3.92,0,0,0-.58-2.38,1.69,1.69,0,0,0-1.63-.45c-.86.17-.95,1.24-1.53,1.24s-1.25.23-1,1S206.18,184.45,205.61,184.79Zm5.55-3.06c1,.45,3,.91,2.22,1.36a12.3,12.3,0,0,0-3.19,3.36c-.19.68,2.51.38,2.51.38s-.58.79-.1,1,.78-.79,1.54-.79,2.3.56,3.07.56,2-1.24,1.91-2a4.2,4.2,0,0,0-1.91-2.49c-.86-.45-1.82-2.49-2.4-2.94s2.13-2,1.46-2.75-2.7-.31-3.48-.88-1.43.12-1.91.8-1.06-.12-1.64.11c-.77.31-.47,1.47-.09,2A6.21,6.21,0,0,0,211.16,181.73Zm190.12-5.32c-.57,1.13.29.91,0,1.81a10.78,10.78,0,0,0-.76,2.72c0,.79-1.73.9-2.31,1.59a17.69,17.69,0,0,1-3.16,3.62,12.92,12.92,0,0,0-2.78,3.18,11.47,11.47,0,0,1,1.05-3.29c.77-1.36-.85-3.29-1-4.76s.48-1.93,1.44-3.29,3.26-1.81,4.22-2.49,4.89-3.85,4.89-3.85a11.59,11.59,0,0,1-1.72,1c-1,.45-2.11,1.36-2.88,1.36s-.47-.91-.58-1.81-1.91-.23-2.58.68-1.93,1.47-3.26,2.6-1,1-1.83,1.14a5,5,0,0,1-3-1.14c-.67-.57-1.34.45-3.44.57s-4.52-.23-5.47-.12-3.35,3.4-4.8,4-3.26,1.59-2.77,2.38,1.34-.68,1.72-.68-.29,1.59.57,1.59,1.34-.57,2.21-.68,1.33.55,1.6,1.52c0-1,1.27-.68,1.75-.84.67-.23.48.56.77.78s-.19,1.14-.57,1.25.28.57.76,1.36.87,2.73.48,2.84a1.77,1.77,0,0,0-1,1.25c0,.45.66,2.71.19,2.94s-1.25-.57-1.44-.91a17.87,17.87,0,0,1-.19-4.19,8.82,8.82,0,0,0-.58-4c.2,1.25-.37,2.27-.76,3.86a8.14,8.14,0,0,1-2.5,4.53,47.62,47.62,0,0,0-4.5,4.53c-.49.68-2.2.11-2.5-.35s-1.14,1-1.81,1.36a2.27,2.27,0,0,0-1.35,1.93c0,.91-1.91.91-1.91,1.48s1.15,2.15,1.62,2.94a4.12,4.12,0,0,1-.95,3.85c-.87.57-1.25,1.25-2.41.46s-.18-1.25.3-2.5a2.12,2.12,0,0,0-.68-2.26c-.19-.34-.95.68-1.33.79s-.39-1-.1-1.7a2.68,2.68,0,0,0-.48-2.26c-.28-.12-2.11,1.7-2.87,1.58s-.11-2.15.18-2.72-.58-.11-1.15.45-1.82,1.82-2.29,1.71-1.45.9-.68,1.58,1,1.25,1.54,1.36a7.36,7.36,0,0,0,2.2-.34c.47-.12,1.44.79.47,1.81s-3,1.14-2.57,1.81a34.64,34.64,0,0,1,2.1,3.29c.77,1.59.47,3.29.67,4.53s-2.77,3.85-3.64,4.64-1.72,2.73-3.17,3.63-4.5,1.7-5,1.36-1.82.57-1.73,1.81.77,1.14.77,1.47a10.67,10.67,0,0,1-1.34,2.27c-.38.56-1.73,0-1.54-1.69s1.16-2.39,1.05-3.19A.87.87,0,0,0,339,226c-.57.68-2.4,2.61-2.4,2.61a8.44,8.44,0,0,0,1.54,2.83,22.19,22.19,0,0,1,2.59,3.63c1.15,1.7.29,3.16,0,4.42s-1.25,1.24-2,1.46-.95.57-1.24,1.25-1.67,3.94-1.86,3.36-1.4-4.38-1.4-4.38a9.51,9.51,0,0,0-2.11-3.06c-1.25-1-1.72-1.46-1.72-.45s-.77,2.94-.77,3.62-1.73-2-1.73-3.17-.28-3-.19-4.87-2-.12-2-.12-1.63,4.07-2.1,4.07,0-3.72.08-5.09a5.39,5.39,0,0,0-.77-3c-.28-.45-1.91-2.26-2.2-3.51s-.86-.79-1.43-.11-.39.67-2.69.67-2.2,1.71-3.36,2.73-2.1,2.94-3.45,3.62-1.91,1.36-1.91,2.16.53,3.39.25,4.53a13.36,13.36,0,0,1-1.7,3.28c-.66,1.13-1.24,2.94-1.81,2.94s-.77-1.58-.77-2.6-1.63-3.4-2-4.19-1.82-4.31-1.82-4.31a25.14,25.14,0,0,1-1.06-4.75c.1-1,.1-3.85.1-3.85s-1.53,1.81-2.21,1.69-1.34-1.36-1.24-2.83-1.16-1.37-1.83-1.59-1.53-2.26-2-2.26a1,1,0,0,0-1.15.68c-.39.68-2.4.57-2.88.57a20.16,20.16,0,0,1-4.21-.46c-.87-.34-1.83-2.37-2.31-2.61s-1.91,1.25-2.48,1-1.74-1.36-3-2-1.62-2.26-2.1-3.28-2.11.57-1.92,1.7,2.3,2.6,2.3,3.41.39,1,1.44,2,.2,1.6.86,1.82,1.64-.91,2.59-1.47.86-1.36,1.35-1.36.38,1.47,1.14,1.59a6.78,6.78,0,0,1,3.26,2.37c.49.91-.47,1.47-.86,2.27a16.88,16.88,0,0,1-2.49,4c-1,.91-2,2.15-3.45,2.49s-1.63,1.26-2.79,1.36-4.31,1.94-4.78,2.28-3.08,1.23-3.84.9-1.06-2.61-1.34-4.31a13.16,13.16,0,0,0-1-3.28,15.53,15.53,0,0,0-2.4-2.83,12.57,12.57,0,0,1-1.44-4.19c-.1-1.14-1.14-.69-1.33-1.93s-1.26-2.94-1.44-3.74c-.17-.65-1.45-.17-2.34.09.17.33.34.68.51,1,.68,1.48,1.34,3.52,2.11,5.1s-.1,4.77.68,5.78,2.77,1.93,3.25,3.28a6.12,6.12,0,0,0,2,2.83,9.77,9.77,0,0,1,2.11,3.4c.1.68-.57,2.15,1,2.27a6.5,6.5,0,0,0,3.36-1c.48-.23,4.22-1.93,4.69-1.25s-.66,3.63-.76,4.42-2.88,4.65-3,5.66a4.77,4.77,0,0,1-2.78,3.06c-1.05.23-3.25,3.41-4,4.42s-2,3.28-2.59,3.51-1,3.23-.73,3.7.35,2.54,1.22,3.44,1.14,1.59.76,2.37.19,2.61,0,4.09-1.82,2.94-2.21,3.39a24,24,0,0,0-3,2.83c-.77,1.13-1.43,2.16-1.24,2.73a18.28,18.28,0,0,1,.85,4.07c-.08.68-2.63,1-3.4,1.48s.34,1.92.53,2.82-1.35,2.38-2,3.18a41.08,41.08,0,0,1-3.74,4.53c-1.25,1-3,.81-4.29.7a6.2,6.2,0,0,0-3.76,1.56c-.49.57-1.16.45-2.12-.11s-1.05-1.36-1.14-2.61a8.59,8.59,0,0,0-.39-2,6.39,6.39,0,0,0-1.15-2.83,14.87,14.87,0,0,1-1.63-2.61c-.48-.67.89-2.61.79-3.85s-1.74-2.71-2.23-3.51-1.44-2.94-1.82-3.73a10,10,0,0,1-.76-4.65,5.85,5.85,0,0,1,1.83-4.27c.78-.68.46-1.5-.21-2.86s.1-3.63-.48-4.42-1.46-5.21-2.51-5.89-2.18-.68-1.61-2.26,0-3.18,1-4.21.48-1.68-.57-2.36-.67-1-1.54-.23-2,1.24-2.68.45-.48-2-1.73-2.94a4.51,4.51,0,0,0-3.72-.37c-.48.22-1.45,2.18-2.8,2.41a19.27,19.27,0,0,1-3.64-.11c-1.34,0-2.49.11-2.68.9s-.48,1.24-1.34.46-2.6-2.62-2.6-2.62-1.59-3.12-2.07-4.48-2.14-1.41-4-2.43-.77-2.15-1-3.27-1.15-1.59-.68-1.71.39-.91,1.44-2.49.39-3.29.2-4.19-1.15-2.27-.2-3.74,1.56-5,2.33-5.89,3-1.82,4.09-2.38.39-2,1-3.74,1.45-2.49,1.73-2.49,1.35-1.18,2.49-1.92c.86-.57,2.88.11,3.27-.12s1.91-.79,2.78-1.24a24.56,24.56,0,0,1,4-1.59c.38,0,5.18.12,5.84-.23s3.28-.82,4,1.68-.88,1.5-1.64,1.94.28,1.48.67,1.48,1.72,1.47,2.39,1.47a8.65,8.65,0,0,1,2.31.8s1.62,1.47,2.49,1.47,2.32,1.76,3.28.63,1.42-3.46,2.37-3.24,2,1.14,3.26,1.14,3.55-.23,3.94.34-2.6,2.49-2.4,2.94.57.34,1.53-1,2.4-1.36,3.55-1.7c.57-.17,1,.29,1.32.87a2.43,2.43,0,0,1,1.17-.18c1,0,.58-.57,1.54-1.71s1.25-3.4,1.33-4.87-.66-.79-1.42-.57a7.14,7.14,0,0,1-2.31.46c-.39-.11-1.92-.68-2.2-.34a2.26,2.26,0,0,1-2.31-.46c-.38-.56-2.3-1.24-2.49-1.69s0-3.17-.39-3.86-1.24.12-1.72.57-1.82.8-1.44,1.14,1.63,1,1.53,1.92-1,1.14-1.43,1.59-2.22,2.24-2.51,1.68-.47-4.17-.75-4.63a10.78,10.78,0,0,1-1.44-2.61c-.29-1-1.34-1.36-2-2.15s-2.6-2-3.36-2.94-2.11-1.59-2.2-.45,1.34,1.36,1.91,2.48a5.58,5.58,0,0,0,2.49,2.16,26.17,26.17,0,0,1,2.5,1.81,3,3,0,0,1-1.44.23c-.67-.11.38,2.44.29,3.23s-1.24-.28-1.44-1.19a5,5,0,0,0-1.15-2.27c-.38-.34-2.88-1.25-3.26-1.47s-2-1.47-2.2-2.5-1.63-1.12-2-.9-1.82,1.47-2.49,1.47-1.73-.57-2.5-.67-.86,1.46-1.15,2.38-1.53.22-2.2,1-1.82,1.59-1.53,2.27.76.68-.1,1.24-1.34,1.7-2.2,1.82-2,.56-2.5.22-.86,1.14-1.15,1.48-.76-1-1.24-1.59-1.73-.11-2.11-.23-.77-1.13-1.25-1.58a1.43,1.43,0,0,1,0-1.81,1.72,1.72,0,0,0,.48-1.93c-.29-1-.48-3.28.48-3.74s3.26,0,4.41,0,3.13.47,3.45-.23a6.14,6.14,0,0,0,.57-3.17c-.09-1-2-1.93-3.26-2.15s-1.05-.91.29-1,1.25-.67,2.4-.91,2.31-.56,3.16-.67.87-1,.87-1.71,2.4-.9,2.4-.9,1.34-1.47,2.1-2.15a3.43,3.43,0,0,1,3.17-.23c1.06.34-.1-.79-.49-1.36a3.28,3.28,0,0,1,.2-2.49c.29-.68,2-1,2.49-.8s0,1.25.1,2.16a2.37,2.37,0,0,0,.86,1.47l.77-.11h1.24a4.55,4.55,0,0,0,2.27-.32c1-.34,1.66.09,2.06-.14a4,4,0,0,1,2.86.34c1.44.57.68-1,1-1.92s.87-2.49,1.83-2.38,1.73.79,2.49.23-1.45-1.36-1.45-1.7,1.83-.34,3.46-.46a22,22,0,0,0,3.36-.22c.76-.23-.58-1.82-.87-1.82a24,24,0,0,1-3.16.12c-1-.12-2,.68-2.88.9s-1.06-1.35-1.53-2a1.72,1.72,0,0,1,.58-2.61c1.24-.68,3.45-2.16,3.83-2.83s-1.54-.56-3.35-.45.28.68-1.44,2.72-2.59.68-3.93,2-.39,1.48.86,1.93.2,1.81-.1,2.15-1.73,1.59-1.52,2.5-1,1.47-1,1.47-3.55.9-4.22,1-.86-.57-.67-1.25-.77-2.26-.86-3.28-1.54.45-1.63,1.13-1.92.79-3,.34a2.83,2.83,0,0,1-1.44-2.49c.19-.35-.58-2-.58-2.5s2.24-3.75,4.06-4.2a13.39,13.39,0,0,0,5.25-2.71,20.21,20.21,0,0,0,2.2-2.83c.38-.34,7-4.09,9.4-4.55s7.67,2.29,8.52,2.51a30.44,30.44,0,0,1,3.46,1.48c2.11.9,4.1-.09,5.44.14s2,1.66,2.9,2.13,0,.79-2.12,1.57a6,6,0,0,1-4.68.12c-1.16-.45-1.83-.45-1,.22s.57,1,.66,2,1.45.12,1.73-.11.29-.67,1.34.11a1.55,1.55,0,0,0,1.91.23c.49-.11.1-1.36.4-1.81s1.44-.46,1.72-.68a4.36,4.36,0,0,1,1.53-.68c.57-.12.48,1,1.06,1.36s.28-1.48.09-1.92-.38-1.7-.09-2a3.38,3.38,0,0,1,2.78-.11c.48.46-.77,1.81-.48,2.6s1-.44,1.43-1.13,1.54,0,3.26-.33,1.34-1.48,3.17-.8,1.34.68,1.92,0,1.63.12,2.67-.34,1.06,0,1.83.46,1.73-.91,2.12-1.37,1.91-.45,2.68-.33a21.48,21.48,0,0,0,2.49.68,5.87,5.87,0,0,1,2,.67s1.64.68,2,.23-.1-1-1.54-1.81-.86-2.15,0-2.27.77-.68,1.44-1.13,1.53-2.15,2.3-1.81,1.44,1,2.4,1.59.09,1.35-.1,1.92a6.38,6.38,0,0,0,.48,3.06c.29.34-.29,1.58-1.05,2.15s-1.83,1.82-1.54,2,2.59-1,2.59-1a21.65,21.65,0,0,1,2.11-2.59c.67-.57,1.34-.57,1.53.11s1.26.9,2.21.45,0-.79-.09-1.81-1.63-.45-2.5-.23-1.53,1.25-1.82,1.25-.29-.68-.09-1.7-.39-1.59-.39-2.15.29-.57,1-1.7.67.79.76,1.81.77.57,1.35.45.29-1.47.77-2.15,1.53-.79,2.48.23.87.68,2,1.13,1.25.57,1.35,1.59.86,1.13,1.34.79.09-1.7-.19-2.15-2.6-1.25-3.36-2,.38-.8,1.24-.8,2.49.12,2.49.12a8.49,8.49,0,0,0,2.78-1.25,8.94,8.94,0,0,1,2.6-1.24,5.91,5.91,0,0,1,3.45-.23c1,.23,1.62-.45,2.59-.91s2.21-3.4,2.3-.56c0,.36,2.68.9,3.07.8a9.66,9.66,0,0,0,2.78-1.14,3.36,3.36,0,0,0,1.28-1.16,2.36,2.36,0,0,0,.15.25c.37.56,1.54-.45,3.55.57s0,0,.58.68.86-.11,2.2-.34a9,9,0,0,1,3.07.11c.86.12,2.78.12,3.64.79s-.57,2.15-1.06,2.61.78.79,1.16.68a28.54,28.54,0,0,1,5,.22c1.45.23,2,1,2.68,1a3.33,3.33,0,0,0,2.11-.79c.39-.45,2.79-.68,3.55-.79a9,9,0,0,1,3.17.23,4,4,0,0,1,.57,2.26,2,2,0,0,0,1.54,1.81c.67.11,1.91-1.35,2.4-1.58s1.05,1,1.34.68,2.68.11,3.64-.45,1.53,0,2-.23a3.51,3.51,0,0,0,1.24-1.93c0-.45.39-.79,0-1.47s-1.73-.23-3.16-.68.05-2.81.48-1.59c.23.7,1.53,0,2.49.24s.58-.35,1.05-.35,2.21.57,3.16.57,1.73,1.24,1.73,1.24a24.14,24.14,0,0,1-3.26.91c-.57,0-.19.9.29.9a3.32,3.32,0,0,1,1.82.91c.67.57,3.64,0,4,0a8,8,0,0,1,2.68,1.36,14.3,14.3,0,0,0,1.91,1.13,28,28,0,0,0,3.27-.22c1.62-.23,3.74-.23,4.12.11a14,14,0,0,1,2.21,1.47c.76.79,1.34.46,2.39.34s2.12-.34,3.07-.34,4.12-.12,4.7.91,1.25.79,1.25.79a12.27,12.27,0,0,1,1.24-2.15c.38-.34,1.63.23,2.4.68s4.5,0,5.46.23,2.31,1.35,1.54,2.26.57,2.49.29,3.4-1.06,1-1.83,1.24.77,1.37,1.44,2.16-.38,1-1.05.68-2.4.11-4.6.79-3.07,2-5.37,2.15-1.35-.11-4.22-.11S401.86,175.28,401.28,176.41Zm-148,78.38c-.28.58-.57,3.17.29,3.41s2.41-2.72,1.92-3.63C255.2,254.08,253.54,254.22,253.25,254.79Zm1.16-80.42c.48-.79-2.21-2.72-2.69-1.13C251.39,174.31,253.93,175.16,254.41,174.37ZM263,197.25c-1.25-.79-2.31-2-3.46-2.49s-1.53-.91-.86-1.13,1.53-1.14.58-1.14-1.82.34-1.93.91a2.5,2.5,0,0,1-1,1.47c-.38.23-1.35,1.14-1.64.45s-1.33-2.72-1.82-2.83-1.25,0-1.82,1.14a9.49,9.49,0,0,1-1.82,2.71c-.57.45-1.34,1.82-.77,2s0,2.27,0,2.27c.2.45,1.16-.68,1.92-.68s2.49.34,3-.45,2-.91,3.25-.69,2.31,1.25,3.16,1.36a14.55,14.55,0,0,0,3.93-.34C264.48,199.63,264.28,198,263,197.25Zm14.57-5a3.05,3.05,0,0,0-2.49-1c-.3.24-1.06.92-1.83,1.48s-2.3-.45-2.88,0c-1.16.92-1.53,2.15-1.05,2.95s1.82,3.28,2.5,3.5,3.06.68,2.1,1.71-1.15,1.36-2,1.24-.48,2.72.19,2.95,2.68,1,3.36,1.13,2.87-.23,2.78-.9-.48-3.4-1.25-4.08,1.06-1.37.58-1.93-1.16-.34-1.54-1a5.45,5.45,0,0,0-1.15-1.81c-.57-.45-1.05.45-1-.79s1.44-2,2-1.36,2.3.34,2.69,0S277.9,193,277.61,192.27Zm55-41.26c.4-.73-.46-.88,0,0Zm-57.28,8.52a11.45,11.45,0,0,1,2.88,1c1.06.67,2.55.95,3.25.11a1.31,1.31,0,0,0-.37-1.92c-.48-.12-.77-1,.48-1.81a11.34,11.34,0,0,1,4-2,20.09,20.09,0,0,1,5.85,0c1.15.33,2.88-1.48,3.36-2.27s-1.54-1.36-2.11-.45-3.36.68-3.93.45-5.18.91-6.14.91-1.34,1.36-2.68,2-3.17,1.69-3.84,2S274.73,159.3,275.3,159.53Zm104,36.25c-.38.11-1.05-1.25-1.82-1s-.95,1.36-.95,1.7-2.68,1-1.83,1.92,1.74.23,3.07.11a11.47,11.47,0,0,0,2.59-.56s2,.11,1.73-1S379.71,195.67,379.32,195.78ZM373,205.63a7.49,7.49,0,0,0-3,1.59c-.58.68-3.35-.57-3.74,0a12.57,12.57,0,0,1-1.64,1.7c-.48.45-1.81.11-1.53,1.47s1,2.61,1.53,2.61,1.35-.46,1.35-1.7,1.34,0,2-.12,1.06-.9,1.34-1.81c0-.11.06-.18.07-.23a.92.92,0,0,0,.7,1,1.09,1.09,0,0,0,1.53-.91c0-.34,2.12-.91,2.5-1.25s1.92-.9,2-1.36,0-3.06.48-3.28,1.15-.23.39-1.81-.77-3.07-1.73-2.39c-.7.51-.28,2.5-.87,3.86S373.38,205.63,373,205.63Zm-18.8,15.86c-1.41.26-2.29,3.86-1.14,3.74S355.45,221.27,354.2,221.49Zm27.91,88.92a13.1,13.1,0,0,1-1.53-.57c-1.07,1.25,1.05,1.25.76,2.49s1.44.8,1.92.57a6.1,6.1,0,0,0,1.43-3.5C384.5,308.71,382.59,310.52,382.11,310.41Zm5.13-27.81c.1-1-3.22-1-4.08-1.76s-1-3.16-1.43-4.53a12.84,12.84,0,0,0-2.41-3.5c-.95-1.26-1.43-4.08-1.72-3.85s-1.14,3.51-.48,4.53-.29,3.05-.76,4.41-1.64-.22-2.59-.91-2.31-1.12-3-1.92,1.15-2.95.66-3.74-3.06-.1-3.35-.1-.86-1.14-1.43-1.14-.49,2.26-.49,2.26-.57-.8-1.43-1.82.09.7-.78,1.71-.57.68-1,1.81-1.24.69-2.11-.45-1.34-.34-1.92,0-1.05,2.27-1.34,2.71-3.05-.81-3.53-.24.07,4.21.07,4.66-2,.23-2.67.8-1.73.23-2.4.23-3,2.15-3.74,2.71-2.07,2.61-1.69,3.18,2.46,1.92,2,2.15-.76,1.81.39,3.17a2.71,2.71,0,0,1,.86,2.38c.1.67.57.9,1.34,2s-1.34,2-1.62,2.72.67,1.7,1.24,2.27,2,.23,2.88-.12,1.81-1.24,2.39-1.35a20.23,20.23,0,0,1,3.84,1s.39-2.88,1.06-3.78,2.77-.12,2.77-.12A9.14,9.14,0,0,1,364,296.7c2.31-.57,1.35.57,2.21.91a9.55,9.55,0,0,1,2.69,1.13c.66.57,0,1.93-.11,2.5s1.64.33,1.73-.23.58-1.13,1.54-1.81.19,1,.58,2,.95-1.39.95-.23c0,.34.3.68.39,1s1.34.46,1.34,1.58,0,1.82.29,2,1.82,0,2.49,1.36,1.15.11,1.54-.45,1.72.23,2.11.68,1.43-.9,2.87-1.36,1.25-.34,1.63-1,.67-2.49,1.54-3.85,4-3.42,4-5.22-2-6.33-3.1-8.26A10.2,10.2,0,0,1,387.24,282.6ZM337,259c.49-.69.3-1.7-.48-1.59s-1.43-1.47-2.68-2.49a18,18,0,0,1-3.35-3.17,30,30,0,0,0-3.35-3.17,3.14,3.14,0,0,0-2.4-1c-1.19.28,1.73,2.71,2,3s2.88,2.94,2.88,4.19.83,5.13,1.31,5.58,3.77,1.22,4.15,2.13,1.25,1.13,1.25-.12A6.89,6.89,0,0,1,337,259Zm-7.28-12.8a26,26,0,0,0,1.82,4.86c.38.8,2,1.93,2.59,2.49s1.44-.22,1.06-.9a8.13,8.13,0,0,1-1.26-2.49,10.41,10.41,0,0,0-1.34-3.4c-.76-1.36-1.43-1.69-1.91-2.6a16.32,16.32,0,0,0-2.2-2.61c-.77.11-.77,1.81-.39,2.38S329.28,244.15,329.76,246.19Zm16.78,20.05c.1-.68-1.05-1.7-1.54-1.7a26.1,26.1,0,0,1-2.87-.69c-.43.23-1,.4-1.19.72a.74.74,0,0,0-.34-.37c-1.06-.68-2.31,0-2.7-.91s-.94-.91-1.34-.33a1.46,1.46,0,0,0,.48,2,4,4,0,0,0,2.31.34,2.86,2.86,0,0,0,1.58-.53.88.88,0,0,0,.24.42,2.5,2.5,0,0,0,2.4,1C344.71,266.12,346.44,266.92,346.54,266.24Zm5,1.35c-.23,1,1.43,1.48,1.53.34A.78.78,0,0,0,351.53,267.59Zm7.18.12s1.54-.23,1.54-1-1.54-1.81-2.11-.9-1.63,1.81-1.53,2.61C356.76,269.62,358.71,267.71,358.71,267.71Zm-7.28-7.59c.77.56,2.2-1.92,2.59-1.13s-.1,1.13.58,2.15a2.19,2.19,0,0,0,1.91.9s-.1-2.71-1.15-3.4-1.73-1.46-.49-1.24,1.93-.34,1.64-1-2.11-.33-2.69-.22a2.6,2.6,0,0,1-1.43-.45c-.58.22-.48.79-.68,1.91S350.66,259.55,351.43,260.12Zm6.9-7.14a28.35,28.35,0,0,0-3.35.68,9.7,9.7,0,0,1-2-.22c-.66.78-.19,1.58.86,1.47s3.27-.45,3.75-.45S358.71,253,358.33,253Zm4.41-1.13c-.88-.44-2.49,3.74-1.33,4.08S363.41,252.19,362.74,251.85Zm-15.52-3.52c-1.83,0-1.92,1.71-2.31,2a3.53,3.53,0,0,1-1.53.67c-.77.22-1,1.14-1.16,1.71s-1.53-1-1.91-.57-.1,2.6.57,4.42a4.9,4.9,0,0,0,2.88,2.94,7.22,7.22,0,0,1,2.11.23c.67.22,2.87.45,2.78-.56s-.29-2.61.66-3.63,1.93-1.59,1.45-3.06-1.45-2.38-.77-3.05,1.44-.91,1.44-1.48-1.63,1.59-1.82-2.16c0-.8-1.54.22-1.64,1S349,248.33,347.22,248.33ZM352,234.4c.57,1.36,2.6,2.39,2.11,2.95s-1.91,1.7-2.11,2.72,2.3-1.59,3-2.61,2-.44,2.29-1l.3-.57a14.93,14.93,0,0,1-1.93-.57c-.86-.34-1.91.9-1.44-.91s1.93-1.47,1.64-2.82-1.24-1.7-1.54-1.7c-.67,0,.1,1.25-.86,2S351.43,233,352,234.4Zm5.57,7.25c-.38-.56-1.35-2.37-2.4-1.92-.33.14-1.15,2.15-.1,2.15S358,242.22,357.57,241.65Zm.76-3.62c-.38,0-1.63,2.38.1,2.26S359.68,238.14,358.33,238Zm.29,4.19c-1.35,2-1.24,1.59-2.21,1.13s-2.49,1-2.21,1.59,2.41-.11,2.89.9.48,1.14,1.43.91a2.59,2.59,0,0,0,1.64-2.6A7.27,7.27,0,0,0,358.62,242.22Zm15.43,22.43c-.76,0-1.62,1.13-1.05,1.24s2.3-.33,2.39,0,1.07,2.5,2,2.39,1.53-2.16,2-2.72,2.4-.91,2.59.11a4,4,0,0,0,1.92,2.72c1.14.68,2.49,1.35,2.59.79s-.58-2.71-1.34-3.06a5.34,5.34,0,0,1-2.11-3.06c0-.79-1.15-1-1.73-1.58s-1-2.15-2.49-2.49-1.82-.91-3.35-1.81-5-.91-5.09-.35,0,0-1.15-.45-2,0-2.3-.79-1-1-1.82,0c-.72.84-1.06.91.57,1.24s2.11.35,1.44,1.25-1.15,2-.58,2.15,2.31-.45,2.5,0-.39.56,1.54.91a3.58,3.58,0,0,1,2.68,1.58C373.67,263.18,374.83,264.65,374.05,264.65Z"/><path class="cls-3" d="M137.65,191.4l-3.5-1.94.49-.88,3.49,1.95Zm-11.75-7.68-3.5-1.94-.48.87,3.49,1.95Zm-2.4,117.91,3,2.61.66-.76-3-2.61Zm18-54.18,3.76,1.39.34-.93-3.75-1.4Zm17.94,3.8-.39-4-1,.1.4,4Zm-2.6-57.36-.86-.5-2,3.44.86.51Zm-12.62,0-3.5-1.94-.48.87,3.49,1.95Zm-30.58-17-3.5-1.95-.49.87,3.5,1.95Zm-11.19-7.36-1.68-3.63-.91.42,1.68,3.63ZM98,185.21l-1-.29-1.14,3.84,1,.28Zm60.77,59.08-.39-4-1,.09.39,4ZM119,335.77l.95.33,1.28-3.79-.94-.32Zm-.19-39.46-.66.76,3,2.61.65-.76Zm.53-58.14-3.75-1.39-.35.93L119,239.1Zm.4-57.85-3.49-1.95-.49.88,3.5,1.94Zm6.16,60.28-3.75-1.39-.34.94,3.75,1.39ZM165.46,257l3.85,1.09.27-1-3.85-1.09Zm5.62-87.25-.86-.51-2,3.45.86.51ZM164,181.83l-.86-.51-2,3.45.86.51Zm3.55-6-.86-.51-2,3.45.86.51Zm4.66,83.13L176,260l.28-1L172.47,258Zm2.45-95.19-.86-.51-2,3.45.86.5ZM158.1,237.32l-.4-4-1,.1.39,4Zm9.44-40.65,3.86-1-.26-1-3.86,1.05Zm-10.82,26.72-.39-4-1,.1.4,4ZM154,205.57l.39,4,1-.09-.39-4Zm3.45,24.79-.39-4-1,.09.39,4ZM156,216.42l-.4-4-1,.1.39,4Zm4.38-28.56-.86-.51-2,3.45.86.51ZM98.91,171.48,95,172l.14,1,4-.56Zm65.73,26-.26-1-3.86,1.05.27,1Zm-79.59-24-4,.56.13,1,4-.56Zm-34.52,5.86-.14-1-4,.56.14,1Zm-4.81,2.61L48.29,185l.77-.65-2.58-3.06Zm11.74-3.58-.14-1-4,.55.14,1Zm8.87,28.05.77-.64-2.58-3.06-.76.64Zm-1.94-29-.14-1-4,.56.14,1Zm3.88,31.33,2.57,3.06.77-.65L69,208Zm-18-21.42,2.57,3.06.77-.64L51,186.61Zm127.66,5.57L174,193.87l.26,1,3.86-1.05ZM77.28,219.38l2.58,3.06.77-.65-2.58-3.06ZM54.74,192.61l2.57,3.06.77-.65L55.5,192Zm16.58-16.24-.14-1-4,.56.14,1ZM76,281.1l.42.91L80,280.33l-.42-.91ZM60,197.32l-.76.64L61.82,201l.77-.64ZM69.6,284,70,285l3.63-1.68-.42-.91ZM100,178.5l-1-.29-1.14,3.84,1,.28ZM73.54,213.38l-.77.64,2.58,3.06.77-.64ZM91.07,264l-.5-4-1,.12.5,4Zm2.06-35.53L89.38,227,89,228l3.75,1.39ZM92,270.91l-.5-4-1,.13.5,4ZM88.7,253.18l.5,4,1-.13-.5-4Zm10.84-90-1.68-3.63L97,160l1.68,3.63Zm-2.94-6.35-1.68-3.63-.91.42,1.68,3.63ZM96,191.92l-1-.29-1.14,3.84,1,.28Zm-7.88-51,1.68,3.63.9-.42L89,140.52ZM90,212.05l-1-.28-1.14,3.83,1,.28Zm3-13.71-1.14,3.84,1,.28L94,198.63ZM78.25,175.4l-.14-1-4,.56.14,1Zm15.41-24.9L92,146.87l-.9.42,1.68,3.63ZM92,205.34l-1-.28-1.14,3.83,1,.28Zm-6.09,17,1,.28L88,218.76l-1-.28Zm6-49.85L88,173l.14,1,4-.55Zm133.2,29.29,1,0,.14-4-1,0Zm93.18-7.68-1.74-3.6-.9.43,1.74,3.6Zm-5.69-9.47,1.74,3.6.9-.43-1.74-3.61Zm15.62-10.43-3.79-1.3-.32.95,3.78,1.29Zm-14.79,76.5,3.86-1-.26-1-3.86,1Zm11-44-1.74-3.6-.9.43,1.74,3.6Zm-.34,41.14-.26-1-3.86,1,.26,1Zm-4.45-51-.9.43,1.74,3.6.9-.43Zm2-24.87-3.79-1.3-.32.94,3.78,1.3ZM293.2,152.3l-2.6-3-.76.65,2.6,3Zm-9.87-10,.76-.65-2.6-3-.76.65Zm.43,30.09,3.95-.58-.14-1-4,.58Zm31.28-2.8-3.78-1.29-.32.94,3.78,1.3Zm-12.73-6.69-2.6-3-.76.66,2.6,3Zm-4.55-5.31-2.61-3-.76.65,2.61,3Zm-7.08,13.79,4-.58-.14-1-4,.58Zm-2-24.42L286,144l-.76.65,2.61,3Zm90.3,8.42.64,4,1-.16-.64-3.95Zm2.75,10.7-.64-4-1,.16.64,4Zm-52,53.6.9-.44-1.74-3.6-.9.43ZM368,187.8l-3.78-1.3-.32.95,3.78,1.29ZM383,180.09l1-.16-.64-4-1,.16Zm2.24,13.82,1-.16-.64-3.95-1,.16ZM384.08,187l1-.16-.64-4-1,.16Zm-9.44,3.07-3.79-1.3-.32.95,3.78,1.3Zm-38.88,42.24.9-.44-1.75-3.6-.9.44Zm-.85-55.87-3.79-1.3-.32,1,3.78,1.3Zm-1.13,68.77,3.86-1-.26-1-3.86,1Zm5.93-7-1.75-3.6-.9.44,1.75,3.6Zm15.06-54.92L351,182l-.33.94,3.79,1.3Zm-14.66,58.06,1.59,3.28,1.24-1.35-.74-.68-.24.27-.95-2Zm1.42-62.6-3.78-1.3-.33,1,3.79,1.3Zm-143.12,9.55-.26-1-3.86,1,.26,1Zm25.84,65.49-1,0-.15,4,1,0Zm-1.4,11,1,0,.15-4-1,0Zm1.66-17.95-1,0-.15,4,1,0Zm-142-21.22h0L84,227.3l.76-.65-.34-.4,1,.35.35,2.77,1-.13-.33-2.63.23-.61-.32-.12-.08-.61-1,.13v.08l-2.11-.78-.52-.61-.77.64.68.8ZM226.84,183.8l-1,0-.15,4,1,0ZM225,181l.37,0-.15-1-3.92,1,.26,1Zm-.24,58.75-1,0-.15,4,1,0Zm56.31-23.5,1.67-3.63-.9-.42-1.68,3.64Zm-62.41-33.52-.26-1-3.86,1.05.26,1Zm-6.75,1.84-.26-1-3.86,1,.26,1ZM225,232.77l-1,0-.15,4,1,0Zm-46.84-75.06-.86-.51-2,3.45.86.5Zm47.1,68.06-1,0-.15,4,1,0Zm.26-7-1,0-.15,4,1,0Zm.26-7-1,0-.15,4,1,0Zm.77-21-1,0-.14,4,1,0Zm19.58-12.88-.15-1-4,.58.15,1ZM231,268.77l-.69-.72-2.91,2.75.69.72Zm22.09-91.86-.14-1-4,.58.15,1Zm.43,70.56,2.9-2.75-.68-.72-2.91,2.75Zm20.34-19.24,2.91-2.75-.69-.73-2.91,2.75Zm-6.91-53.35-.15-1-4,.58.15,1Zm6.92-1-.14-1-4,.58.14,1Zm-13.85,2-.14-1-4,.58.14,1ZM236.07,264l-.68-.72L232.48,266l.69.72Zm2.18-2.06,2.91-2.75-.69-.72-2.9,2.75Zm-4.44,42.72,1-.22-.9-3.9-1,.23ZM232.3,179.94l-.14-1-4,.57.15,1Zm3.7,90.59-3.86,1,.26,1,3.86-1Zm3.23-91.6-.14-1-4,.58.14,1ZM367.67,225.2l2.94,2.72.68-.73-2.94-2.72Zm-74.09-38.41-1.68,3.63.91.42,1.67-3.63ZM293,255.17l.26,1,3.87-1-.26-1Zm7.74-83.82.91.42,1.67-3.63-.91-.42-.84,1.83-.11-.72-3.95.57.14,1,3.79-.55Zm-5.87,12.71.91.42,1.68-3.63-.91-.42Zm-6.21,15.86-.91-.42L286,203.13l.9.42Zm.35-3.14.91.42,1.67-3.64-.91-.42ZM286.21,257l.25,1,3.87-1-.26-1Zm20.36-85,1.74,3.6.9-.44-1.74-3.6Zm0,103.25.68.73,2.95-2.7-.68-.73ZM283.1,209.49l.91.42,1.68-3.63-.91-.42Zm23.38,42,.26,1,3.86-1.05-.26-1Zm-6.13-77-.91-.42-1.67,3.63.9.42Zm7.75-6.2.32-1-3.58-1.23-.25-.51-.32-.4-.76.65.21.25,1.54,3.19.9-.44-.71-1.47Zm-8.12,86,3.86-1-.26-1-3.86,1Zm4.42,22.95-.54.5a3.56,3.56,0,1,0,1.1,2.58,3.44,3.44,0,0,0-.49-1.78l.61-.56Zm-31.71-16.63.26,1,3.86-1.05-.26-1Zm-11.88-21.45-2.9,2.74.68.73,2.91-2.75Zm-15.16,28.74.26,1,3.87-1-.26-1Zm6.76-1.82.26,1,3.86-1-.26-1Zm-4.67-14.55.68.72,2.91-2.75-.69-.72Zm-2.18,2.06-2.91,2.75.69.72,2.9-2.75Zm-12.35,44-.9-3.9-1,.22.9,3.9Zm5.68-27.83.26,1,3.87-1-.26-1Zm40.56-10.93.26,1,3.86-1-.26-1Zm31.07-81-.9.44,1.74,3.6.9-.44Zm-29.88-6-3.95.58.14,1,4-.58Zm-1.73,46.71-1.67,3.63.91.42,1.67-3.63Zm-13,15.81L263,237.12l.69.73,2.9-2.75Zm-6.73,29.9.26,1,3.86-1-.26-1Zm6.76-1.82.26,1,3.86-1-.26-1Zm2.15-30.15.68.73,2.91-2.75-.69-.72Zm114.1-63.24-1,.16.64,4,1-.16ZM311.77,270.52l.68.74,2.95-2.71-.68-.73Zm56.13-55.95.73.67,2.71-2.94-.74-.68Zm-2,2.21-2.71,2.95,0,0-.65.7,2.93,2.72.68-.74-2.22-2.06,2.68-2.92Zm-4.48-31.25-3.78-1.3-.32.94,3.78,1.3ZM344,180.63l3.79,1.3.32-1-3.78-1.29ZM349,235.2l.74.67,2.7-3-.73-.67ZM353.7,230l.73.67,2.71-2.94-.74-.68Zm-7.38,62.42.58,4,1-.14-.58-4Zm29.75-85.32-.73-.68-2.71,2.95.74.68ZM230.74,286.86l-1,.22.9,3.9,1-.22ZM384.8,196.15l-2.7,2.95.74.67,2.7-2.94ZM378,234.71l2.94,2.72.68-.74L378.63,234ZM380.81,202l-.74-.67-2.7,2.94.73.68Zm-8,28,2.94,2.71.68-.73-2.94-2.72Zm8.45-37.62-3.79-1.3-.32,1,3.78,1.3Zm-22.83,32.54.74.68,2.7-2.95-.73-.67Zm-31.67,21.18.26,1,3.86-1-.26-1Zm19.54,39.33-1,.15.58,3.95,1-.14Zm-12.69-59.82-1.74-3.6-.91.44,1.75,3.6Zm-7.84-16.2-.9.43,1.74,3.6.9-.43Zm-8.84,56.42.68.74,2.95-2.71-.68-.73Zm5.16-4.73.68.74,3-2.71-.68-.73Zm10.33-9.46.67.74,3-2.7-.68-.74Zm-5.17,4.73.68.74,2.95-2.71-.68-.73Zm20.42-18.25-.74-.67-2.7,2.94.74.68Zm-7.43,5.75-1,.14.22,1.47-.15-.16-1.74,1.59.67.74,1.35-1.24.23,1.56,1-.14Zm5.05,34.63-1,.15.58,4,1-.15Zm-1-6.92-1,.14.58,4,1-.14Zm-1-6.93-1,.14.58,4,1-.14Zm-2-13.85-1,.14.58,4,1-.15ZM82.31,278.16l.42.91,3.63-1.68-.42-.91Zm260-20.48-1,.15.58,4,1-.15ZM132.62,299.63l.86.5,2-3.46-.86-.5Zm-4.21-57,3.75,1.39.35-.93-3.75-1.39Zm7.73,51,.86.5,2-3.46-.87-.5ZM135,245l3.75,1.39.35-.94-3.75-1.39Zm-11.43,77.5.95.32,1.29-3.79-1-.32Zm2.25-6.63.95.32,1.29-3.79-1-.32ZM132,187.13l-3.5-1.95-.49.87,3.5,1.95ZM128.81,306.2l.21.18-1,2.88,1,.32,1.2-3.52-.73-.62Zm17.89-30.77.87.5,2-3.45-.87-.51Zm3.52-6.05.87.5,2-3.45-.86-.51Zm4.22-69.14,3.45-.94-.26-1-3.67,1-1-.55-.49.88.93.51.24,2.41,1-.1Zm-11.26,81.24.87.5,2-3.45-.87-.51Zm4.92-31.59,3.75,1.39.35-.94L148.45,249Zm-8.44,37.64.86.5,2-3.45-.87-.51Zm10.71-90.19-3.5-2-.48.87,3.49,2ZM87.05,232.22l-1,.12.5,4,1-.12Zm12.64-1.36-3.75-1.39-.35.94,3.75,1.39Zm21.6,98.28.95.33,1.29-3.79-1-.32ZM97,278.81l3,2.61.65-.76-3-2.61ZM102.73,171l-.85.11.1.73-.94-.29-1.14,3.84,1,.28,1.13-3.8,0,.23.85-.11Zm51,92.38.86.5,2-3.45-.86-.51ZM88.81,246.11l-1,.12.5,4,1-.12Zm-.88-7-1,.13.5,4,1-.13Zm4.31,34.41-3.58,1.65.42.91,3.1-1.43,2.51,2.15.65-.75-3-2.61Zm16.48-38.29,3.75,1.39.35-.94-3.75-1.39Zm-1.14,52.66,3,2.61.65-.76-3-2.61Zm9,6.41-3-2.6-.65.75,3,2.61Zm-13-121.91,3.49,1.95.49-.88-3.5-1.94Zm-1.3,110.94,3,2.6.66-.75-3-2.61Zm-.11-50.54,3.75,1.4.34-.94-3.75-1.39ZM209,248l-2.31-3.27-.81.58,2.3,3.27Zm20.22,32-1,.22.9,3.9,1-.22Zm-23.3-11.56,3.84,1.1.28-1-3.85-1.09Zm-5.81-31.33.82-.57-.27-.4a3.81,3.81,0,1,0-.83.57Zm28,38-.85-1.25,2.3-.62-.26-1-3.25.88.16.59-.16.12,1.11,1.57.42,1.83,1-.23Zm-3-70.44-.15,4,1,0,.15-4Zm-25.94,61.82,3.85,1.1.27-1-3.85-1.09Zm11.55-16.1-.82.58,2.3,3.27.82-.58Zm-9.64-64,.27,1,3.86-1.05-.27-1Zm22.65,82.43,0-1.2-.91,0,0-.07-.81.57.72,1-.09,2.46,1,0,0-1.15.63.89.82-.57Zm.61,4.79.69.72.91-.87-.69-.72Zm-5-1.42,3.85,1.09.28-1-3.85-1.1Zm-6.73-1.91,3.85,1.09.27-1-3.85-1.09Zm8.44-5.21-2.3-3.27-.82.57,2.31,3.27Zm-7.15-8.42,2.3,3.27.82-.58-2.3-3.27Zm-12.1-17.17,2.31,3.27.81-.57-2.3-3.27Zm-35.88,32.23,1.52,3.7.92-.38-1.52-3.7Zm2.66,6.47,1.52,3.7.92-.38-1.52-3.7Zm2.66,6.48,1.52,3.7.92-.38-1.52-3.7Zm-10.64-25.9,1.52,3.7.92-.38-1.52-3.7Zm2.66,6.47,1.52,3.7.92-.37-1.52-3.7Zm29.15-.69,3.85,1.09.27-1-3.85-1.09Zm-29.83-8.46.28-1-3-.86,0-.13h0l-.91-2.22-.92.39,0,.07-3-1.1-.35.94,3.75,1.39,0-.07.35.85v.15l-1.53,2.64.86.5,1.18-2,.14.35.92-.39-.07-.16Zm13.76,38.37-1.52-3.7-.92.38,1.52,3.71Zm11.21-104.38.26,1,3.86-1.05-.26-1Zm-1.88,72.56,3.85,1.09.27-1-3.84-1.09ZM180.78,192l.27,1,3.86-1.05-.27-1Zm-1.85,68.81,3.85,1.09.27-1-3.85-1.09Zm.17-106.65-.25.42.86.51.24-.41a3.45,3.45,0,0,0,1.36.28,3.57,3.57,0,1,0-3.56-3.57A3.52,3.52,0,0,0,179.1,154.19Zm56.52,151.28a3.57,3.57,0,1,0,3.57,3.57A3.57,3.57,0,0,0,235.62,305.47ZM378.32,152h.07l.08.47,1-.16-.07-.48a3.51,3.51,0,1,0-1.06.18Zm10,88a3.55,3.55,0,0,0-2.24.81l-2.27-2.1-.68.73,2.26,2.1a3.51,3.51,0,0,0-.63,2,3.56,3.56,0,1,0,3.56-3.56ZM177.75,295.78a3.56,3.56,0,1,0,3.56,3.56A3.56,3.56,0,0,0,177.75,295.78ZM277.83,138.71a3.56,3.56,0,1,0-3.56-3.56A3.56,3.56,0,0,0,277.83,138.71Zm-212,144.42a3.56,3.56,0,1,0,3.56,3.56A3.56,3.56,0,0,0,65.85,283.13ZM85.64,137.94a3.75,3.75,0,0,0,1-.16l.21.44.9-.42-.2-.43a3.56,3.56,0,1,0-1.93.57Zm32.69,197.93a3.57,3.57,0,1,0,3.56,3.56A3.57,3.57,0,0,0,118.33,335.87Z"/><path class="cls-3" d="M102.78,189a18.54,18.54,0,1,1,18.55-18.54A18.56,18.56,0,0,1,102.78,189Z"/><path class="cls-4" d="M118.33,170.46a15.55,15.55,0,1,1-15.55-15.54A15.55,15.55,0,0,1,118.33,170.46Z"/><path class="cls-3" d="M273.45,244.08A18.55,18.55,0,1,1,292,225.54,18.57,18.57,0,0,1,273.45,244.08Z"/><path class="cls-4" d="M289,225.54A15.55,15.55,0,1,1,273.45,210,15.54,15.54,0,0,1,289,225.54Z"/><path class="cls-3" d="M129.3,321.42a18.54,18.54,0,1,1,18.54-18.54A18.56,18.56,0,0,1,129.3,321.42Z"/><path class="cls-4" d="M144.84,302.88a15.54,15.54,0,1,1-15.54-15.54A15.54,15.54,0,0,1,144.84,302.88Z"/><path class="cls-3" d="M153.89,217.39a18.55,18.55,0,1,1,18.54-18.55A18.57,18.57,0,0,1,153.89,217.39Z"/><path class="cls-4" d="M169.43,198.84a15.55,15.55,0,1,1-15.54-15.54A15.55,15.55,0,0,1,169.43,198.84Z"/><circle class="cls-3" cx="84.39" cy="225.54" r="18.54" transform="translate(-5.61 2.18) rotate(-1.43)"/><circle class="cls-4" cx="84.39" cy="225.54" r="15.54" transform="translate(-6.23 2.43) rotate(-1.59)"/><path class="cls-3" d="M159.21,270.68a18.55,18.55,0,1,1,18.54-18.54A18.57,18.57,0,0,1,159.21,270.68Z"/><path class="cls-4" d="M174.75,252.14a15.55,15.55,0,1,1-15.54-15.55A15.54,15.54,0,0,1,174.75,252.14Z"/><path class="cls-3" d="M341.76,260a18.55,18.55,0,1,1,18.54-18.54A18.56,18.56,0,0,1,341.76,260Z"/><path class="cls-4" d="M357.3,241.47a15.54,15.54,0,1,1-15.54-15.55A15.54,15.54,0,0,1,357.3,241.47Z"/><path class="cls-3" d="M347,314.61a18.55,18.55,0,1,1,18.54-18.54A18.57,18.57,0,0,1,347,314.61Z"/><path class="cls-4" d="M362.57,296.07A15.55,15.55,0,1,1,347,280.52,15.54,15.54,0,0,1,362.57,296.07Z"/><path class="cls-3" d="M383.38,211.91A18.57,18.57,0,1,1,402,193.34,18.58,18.58,0,0,1,383.38,211.91Z"/><path class="cls-4" d="M399.24,193.34a15.86,15.86,0,1,1-15.86-15.86A15.87,15.87,0,0,1,399.24,193.34Z"/><path class="cls-3" d="M226.13,290.8a18.55,18.55,0,1,1,18.55-18.54A18.56,18.56,0,0,1,226.13,290.8Z"/><path class="cls-4" d="M241.68,272.26a15.55,15.55,0,1,1-15.55-15.55A15.55,15.55,0,0,1,241.68,272.26Z"/><path class="cls-3" d="M224.83,197.58A18.54,18.54,0,1,1,243.37,179,18.57,18.57,0,0,1,224.83,197.58Z"/><path class="cls-4" d="M240.37,179a15.55,15.55,0,1,1-15.54-15.54A15.54,15.54,0,0,1,240.37,179Z"/><path class="cls-3" d="M45.43,196.93A18.54,18.54,0,1,1,64,178.39,18.56,18.56,0,0,1,45.43,196.93Z"/><path class="cls-4" d="M61,178.39a15.55,15.55,0,1,1-15.55-15.54A15.55,15.55,0,0,1,61,178.39Z"/><path class="cls-3" d="M304,185.51A18.55,18.55,0,1,1,322.49,167,18.57,18.57,0,0,1,304,185.51Z"/><path class="cls-4" d="M319.49,167A15.55,15.55,0,1,1,304,151.42,15.55,15.55,0,0,1,319.49,167Z"/><path class="cls-5" d="M273.44,232.72c-1.57,0-2.58-2.06-3.19-2.21-2.12-.51.56-1.79.56-3.08v-2.87h5.25v2.87c0,1.67,2.49,2.69.76,3.1C276.25,230.67,275.21,232.72,273.44,232.72Z"/><path class="cls-6" d="M270.81,225.84c.62.68,1.48,1.63,2.62,1.59s2-.91,2.63-1.59v-1.28h-5.25Z"/><path class="cls-7" d="M268.56,220.42c0-.74.55-.23.55-.23s-1.17-6.71,4.32-6.71,4.33,6.71,4.33,6.71.57-.51.54.23a4.91,4.91,0,0,1-.19,1.27,1.67,1.67,0,0,1-.87,1.26,4.33,4.33,0,0,1-.77,2.12c-.63.62-1.62,2-3,2s-2.41-1.37-3-2a4.33,4.33,0,0,1-.77-2.12,1.64,1.64,0,0,1-.87-1.26A4.64,4.64,0,0,1,268.56,220.42Z"/><path class="cls-8" d="M284.76,236.18c-.41-1.8-1.16-5.07-1.2-5.19s-.3-.8-.65-.9-5.66-1.64-6.43-2a3.14,3.14,0,0,1-3.07,2.3,3.21,3.21,0,0,1-3.11-2.3c-.77.33-6,1.87-6.35,2s-.57.67-.64.9-.79,3.39-1.2,5.17a15.52,15.52,0,0,0,22.65,0Z"/><path class="cls-9" d="M277.76,215.66a6.9,6.9,0,0,0-4.4-2.11,5.79,5.79,0,0,0-4,2.09c-.74,1.24-.38,3-.34,3.57,0,.41.5,1.5.5,1.3a5.21,5.21,0,0,1,.72-3.17c.64-.65,2.55,0,3.14,0s2.61-.64,3.25,0a5.14,5.14,0,0,1,.72,3.17c0,.2.48-.85.51-1.26C277.88,218.69,278.5,216.9,277.76,215.66Z"/><path class="cls-10" d="M277.91,215.21a7.54,7.54,0,0,0-4.55-2,7.19,7.19,0,0,0-4.44,2c-.74,1.24-.11,3.2-.06,3.77a3.56,3.56,0,0,0,.22,1.23c.18.46.09,1,.42,1v-1a5.19,5.19,0,0,1,.72-3.17c.64-.65,2.55,0,3.14,0s2.61-.64,3.25,0a5.13,5.13,0,0,1,.72,3.17v1c.33,0,.24-.5.43-1A3.78,3.78,0,0,0,278,219C278,218.41,278.65,216.45,277.91,215.21Z"/><path class="cls-5" d="M226.12,279.38c-1.57,0-2.58-2.07-3.18-2.21-2.13-.51.56-1.79.56-3.08v-2.87h5.24v2.87c0,1.66,2.5,2.69.77,3.1C228.93,277.33,227.89,279.38,226.12,279.38Z"/><path class="cls-6" d="M223.5,272.5a3.68,3.68,0,0,0,2.62,1.59c1.14,0,2-.91,2.62-1.59v-1.28H223.5Z"/><path class="cls-7" d="M221.25,267.08c0-.75.54-.23.54-.23s-1.17-6.71,4.33-6.71,4.32,6.71,4.32,6.71.58-.52.55.23a5.13,5.13,0,0,1-.2,1.26,1.66,1.66,0,0,1-.87,1.27,4.31,4.31,0,0,1-.77,2.11c-.62.62-1.61,2-3,2s-2.41-1.37-3-2a4.36,4.36,0,0,1-.78-2.11,1.67,1.67,0,0,1-.86-1.27A4.61,4.61,0,0,1,221.25,267.08Z"/><path class="cls-11" d="M237.46,282.89c-.41-1.79-1.18-5.13-1.22-5.25s-.29-.79-.64-.89-5.66-1.65-6.44-2a3.13,3.13,0,0,1-3.06,2.29,3.23,3.23,0,0,1-3.12-2.29c-.77.32-6,1.87-6.34,2s-.57.67-.65.89-.8,3.46-1.21,5.23a15.53,15.53,0,0,0,22.68,0Z"/><path class="cls-9" d="M230.44,262.32a6.85,6.85,0,0,0-4.4-2.11,5.78,5.78,0,0,0-4,2.09c-.73,1.23-.38,3-.33,3.56s.5,1.51.49,1.31a5.19,5.19,0,0,1,.73-3.17c.64-.66,2.54,0,3.13,0s2.61-.65,3.25,0a5.19,5.19,0,0,1,.73,3.17c0,.2.47-.85.5-1.27S231.18,263.55,230.44,262.32Z"/><path class="cls-12" d="M230.6,261.87a7.46,7.46,0,0,0-4.56-2,7.25,7.25,0,0,0-4.44,2c-.73,1.23-.11,3.2-.06,3.76a3.56,3.56,0,0,0,.22,1.23c.19.47.09,1,.43,1,0,0,0-.78,0-1a5.22,5.22,0,0,1,.73-3.18c.64-.65,2.54,0,3.13,0s2.61-.65,3.25,0a5.22,5.22,0,0,1,.73,3.18c0,.19,0,1,0,1,.34,0,.24-.5.43-1a4.1,4.1,0,0,0,.22-1.23C230.71,265.07,231.34,263.1,230.6,261.87Z"/><path class="cls-12" d="M228.72,270.07c0,.39-.19.88-1.05.88a2.13,2.13,0,0,1-1.49-.51,2.1,2.1,0,0,1-1.49.51c-.85,0-1.07-.49-1-.88s.54-.59.7-.19a.34.34,0,0,0-.52.25c0,.23.2.37.59.37s.88-.51,1-.62a.68.68,0,0,1,.73-.1.7.7,0,0,1,.74.1c.15.11.63.62,1,.62s.59-.14.59-.37c-.09-.47-.53-.25-.53-.25C228.18,269.48,228.69,269.69,228.72,270.07Z"/><path class="cls-13" d="M343.29,296.16a7.87,7.87,0,0,0,3.81.86,8.08,8.08,0,0,0,3.84-.86l.86-2.47-9.33-.24Z"/><path class="cls-14" d="M353.81,301.93s-4.12-2.3-4.49-4.28a19.05,19.05,0,0,1-.23-2.86l-1.82-.11v-.05l-2.26.16a19.05,19.05,0,0,1-.23,2.86c-.37,2-4.9,4.28-4.9,4.28l7.36.77v-.2Z"/><path class="cls-15" d="M349.09,294.79l-1.82-.11v-.05l-2.26.16s0,1-.11,2a3.88,3.88,0,0,0,2.24,1.27,3.71,3.71,0,0,0,2.08-1.11A20.92,20.92,0,0,1,349.09,294.79Z"/><path class="cls-14" d="M342.71,292.09c0-.64.47-.2.47-.2s-.76-5.29,4-5.29,3.95,5.29,3.95,5.29.49-.44.47.2a4.3,4.3,0,0,1-.18,1.08,1.43,1.43,0,0,1-.74,1.09,9.12,9.12,0,0,1-1,1.94,4,4,0,0,1-2.5,1.58,4.07,4.07,0,0,1-2.53-1.61,9,9,0,0,1-1-1.91,1.42,1.42,0,0,1-.75-1.09A4.07,4.07,0,0,1,342.71,292.09Z"/><path class="cls-13" d="M351.33,286.5a5,5,0,0,0-4.21-1.94,5.2,5.2,0,0,0-4.21,1.94c-1.7,2-1.53,6.42.06,9.84.17.37.94.47.94.47.08.2-1.05-3.66-.29-6.41.26-.28,1.11-.91,3.5-.91,2.15,0,3.05.51,3.41.82.84,2.73-.25,6.64-.19,6.5s.79-.15.94-.47C352.87,292.92,353.08,288.7,351.33,286.5Z"/><path class="cls-16" d="M358.6,306.44c-.28-1.05-.56-2.13-.81-3.17-.5-2-1.21-1.86-1.21-1.86l-5.94-2.07c.07.09-.28,1.6-3.58,1.6s-3.81-1.44-3.73-1.54l-5.86,2s-.72-.19-1.21,1.86c-.22.93-.52,2-.82,3.15a15.53,15.53,0,0,0,23.16,0Z"/><polygon class="cls-5" points="102.8 174.3 100.22 171.95 100.22 168.99 105.37 168.99 105.37 171.95 102.8 174.3"/><path class="cls-6" d="M100.22,170.31a2.94,2.94,0,0,0,5.15,0V169h-5.15Z"/><path class="cls-7" d="M98,164.92c0-.73.54-.22.54-.22s-1.15-6.06,4.25-6.06S107,164.7,107,164.7s.57-.51.54.22a4.75,4.75,0,0,1-.19,1.25,1.65,1.65,0,0,1-.86,1.24,4.26,4.26,0,0,1-.76,2.08c-.61.61-1.58,2-3,1.95s-2.37-1.34-3-1.95a4.26,4.26,0,0,1-.76-2.08,1.63,1.63,0,0,1-.85-1.24A5,5,0,0,1,98,164.92Z"/><path class="cls-11" d="M113.46,176.22c-.07-.22-.29-.78-.63-.88s-5.74-2.07-6.49-2.39l-3.52.9-3.56-.9c-.76.32-6.16,2.29-6.5,2.39s-.56.66-.63.88-.62,2.28-1.15,4.35A15.51,15.51,0,0,0,102.76,186c.54,0,1.08,0,1.62-.08a15.54,15.54,0,0,0,10.22-5.37C114.08,178.48,113.51,176.36,113.46,176.22Z"/><path class="cls-17" d="M102.5,174.17l-1.57,2.21L99,173.05l1.1-1.19Zm.59,0,1.57,2.21,1.93-3.33-1.11-1.19Z"/><path class="cls-18" d="M104.07,185.94c-.31-3.67-.77-10.18-.77-10.18.08-.34.54-.57.67-1a.26.26,0,0,0-.08-.32l-.44-.64a.33.33,0,0,0-.17-.07h-1a.33.33,0,0,0-.17.07l-.44.64a.26.26,0,0,0-.08.32c.13.41.58.59.65.94,0,0-.45,6.54-.75,10.23h.19c.31,0,.62,0,.93,0h.11C103.19,186,103.64,186,104.07,185.94Z"/><path class="cls-11" d="M102.5,173.75,100.93,176l-2.05-3.09,1.22-1.44Zm.59,0,1.57,2.22,2-3.09-1.23-1.44Z"/><path class="cls-9" d="M102.83,158.71c-4.16,0-4.45,3.92-4.35,5.12.08.81.53,1.22.53,1a3.93,3.93,0,0,1,.68-2.68c.61-.62,1.63.09,3,.09s2.59-.85,3.26-.09a4,4,0,0,1,.65,2.56c0,.19.36-.14.43-.95C107.14,162.6,106.91,158.71,102.83,158.71Z"/><path class="cls-19" d="M102.83,158.39c-4.16,0-4.65,3.94-4.54,5.13.08.82,0,.63.2,1.07s-.14.87.52.87v-.91a3.9,3.9,0,0,1,.68-2.67c.61-.63,1.63.09,3,.09s2.59-.85,3.26-.1a4.08,4.08,0,0,1,.65,2.57c0,.19,0,1,0,1,.58-.08.33-.34.51-.78s.08-.36.15-1.18C107.38,162.33,106.91,158.39,102.83,158.39Z"/><polygon class="cls-5" points="129.31 306.77 126.74 304.42 126.74 301.46 131.89 301.46 131.89 304.42 129.31 306.77"/><path class="cls-6" d="M126.74,302.78a2.94,2.94,0,0,0,5.15,0v-1.32h-5.15Z"/><path class="cls-7" d="M124.53,297.39c0-.73.54-.22.54-.22s-1.15-6.06,4.24-6.06,4.25,6.06,4.25,6.06.56-.51.54.22a4.59,4.59,0,0,1-.2,1.25,1.63,1.63,0,0,1-.85,1.24,4.26,4.26,0,0,1-.76,2.08c-.61.61-1.58,2-3,2s-2.36-1.34-3-2a4.26,4.26,0,0,1-.76-2.08,1.63,1.63,0,0,1-.85-1.24A4.59,4.59,0,0,1,124.53,297.39Z"/><path class="cls-20" d="M140,308.69c-.07-.22-.29-.78-.63-.88s-5.74-2.07-6.5-2.39l-3.51.9-3.57-.9c-.75.32-6.15,2.29-6.49,2.39s-.56.66-.63.88-.62,2.25-1.14,4.31a15.54,15.54,0,0,0,23.6,0C140.59,310.93,140,308.83,140,308.69Z"/><path class="cls-21" d="M129,306.64l-1.57,2.21-1.93-3.33,1.09-1.19Zm.58,0,1.58,2.21,1.93-3.33L132,304.33Z"/><path class="cls-22" d="M130.41,306.93l-.44-.64a.26.26,0,0,0-.17-.07h-1a.26.26,0,0,0-.16.07l-.44.64a.26.26,0,0,0-.08.32c.13.41.58.59.65.94,0,0-.44,6.48-.75,10.18.42,0,.84.05,1.26.05s.86,0,1.29-.05c-.31-3.69-.77-10.14-.77-10.14.08-.34.54-.57.67-1A.26.26,0,0,0,130.41,306.93Z"/><path class="cls-20" d="M129,306.22l-1.57,2.22-2-3.09,1.21-1.44Zm.58,0,1.58,2.22,2-3.09L132,303.91Z"/><path class="cls-9" d="M129.35,291.18c-4.16,0-4.46,3.92-4.35,5.12.07.81.53,1.22.53,1a3.93,3.93,0,0,1,.68-2.68c.61-.62,1.63.09,3,.09s2.59-.85,3.25-.09a4,4,0,0,1,.66,2.56c0,.19.36-.14.43-1C133.65,295.07,133.43,291.18,129.35,291.18Z"/><path class="cls-12" d="M129.35,290.86c-4.16,0-4.65,3.94-4.54,5.13.07.82,0,.63.2,1.07s-.14.87.52.87V297a3.89,3.89,0,0,1,.68-2.67c.61-.63,1.63.08,3,.08s2.59-.84,3.25-.09a4,4,0,0,1,.66,2.57c0,.18,0,1,0,1,.58-.07.33-.33.51-.77s.08-.36.15-1.18C133.9,294.8,133.43,290.86,129.35,290.86Z"/><polygon class="cls-14" points="153.9 202.73 151.32 200.38 151.32 197.43 156.48 197.43 156.48 200.38 153.9 202.73"/><path class="cls-23" d="M151.32,198.75a2.95,2.95,0,0,0,5.16,0v-1.32h-5.16Z"/><path class="cls-14" d="M149.11,193.36c0-.74.54-.23.54-.23s-1.15-6,4.25-6,4.25,6,4.25,6,.56-.51.54.23a5,5,0,0,1-.2,1.24,1.62,1.62,0,0,1-.86,1.24,4.21,4.21,0,0,1-.75,2.08c-.61.61-1.59,2-3,2s-2.37-1.34-3-2a4.26,4.26,0,0,1-.76-2.08,1.63,1.63,0,0,1-.85-1.24A5,5,0,0,1,149.11,193.36Z"/><path class="cls-24" d="M164.57,204.65c-.07-.22-.3-.78-.64-.88s-5.73-2.07-6.49-2.39l-3.52.9-3.56-.9c-.76.32-6.15,2.3-6.49,2.39s-.56.66-.64.88-.61,2.26-1.14,4.31a15.53,15.53,0,0,0,23.61,0C165.17,206.89,164.61,204.79,164.57,204.65Z"/><path class="cls-25" d="M153.92,202.28,152,204.82l-1.93-3.34,3.51.71Zm0,0,1.85,2.54,1.93-3.34-3.51.71Z"/><path class="cls-3" d="M153.61,202.19,152,204.4l-2-3.09,1.21-1.44Zm.58,0,1.58,2.21,2-3.09-1.23-1.44Z"/><path class="cls-26" d="M153.94,187.14c-4.17,0-4.46,3.92-4.35,5.12.07.81.53,1.22.52,1a3.94,3.94,0,0,1,.68-2.67c.62-.63,1.63.08,3,.08s2.59-.85,3.25-.09a4.05,4.05,0,0,1,.65,2.56c0,.19.36-.13.43-1C158.24,191,158,187.14,153.94,187.14Z"/><path class="cls-26" d="M153.94,186.83c-4.17,0-4.65,3.93-4.54,5.13.07.81,0,.62.2,1.06s-.15.88.52.88c0,0,0-.73,0-.91a4,4,0,0,1,.68-2.68c.62-.62,1.63.09,3,.09s2.59-.85,3.25-.09a4,4,0,0,1,.65,2.56c0,.19,0,1,0,1,.58-.08.34-.34.51-.78s.08-.36.16-1.17C158.48,190.76,158,186.83,153.94,186.83Z"/><polygon class="cls-5" points="383.3 199.22 380.62 195.61 380.62 192.53 385.98 192.53 385.98 195.61 383.3 199.22"/><path class="cls-6" d="M380.62,193.9a3.72,3.72,0,0,0,2.68,1.59,3.76,3.76,0,0,0,2.68-1.58v-1.38h-5.36Z"/><path class="cls-7" d="M378.32,188.3c0-.76.56-.23.56-.23s-1-6.31,4.42-6.31,4.42,6.31,4.42,6.31.58-.53.56.23a5,5,0,0,1-.21,1.29,1.7,1.7,0,0,1-.88,1.3,4.49,4.49,0,0,1-.79,2.16c-.64.63-1.65,2.08-3.1,2s-2.47-1.4-3.1-2a4.38,4.38,0,0,1-.79-2.16,1.73,1.73,0,0,1-.89-1.3A5.34,5.34,0,0,1,378.32,188.3Z"/><path class="cls-27" d="M383.38,209.21a15.83,15.83,0,0,0,11.5-5c-.49-2.1-.8-4.21-.85-4.35s-.3-.81-.66-.91-5.6-2-6.39-2.35l-3.66,1.41-3.7-1.41c-.79.33-6.07,2.21-6.43,2.31s-.58.69-.66.92-.35,2.16-.82,4.21A15.86,15.86,0,0,0,383.38,209.21Z"/><path class="cls-28" d="M383,197.69,381.36,200l-2.23-3.47,1.32-1.24Zm.61,0,1.64,2.31,2.26-3.47-1.29-1.24Z"/><path class="cls-9" d="M383.34,181.83c-4.34,0-4.64,4.08-4.53,5.33.08.84.56,1.27.55,1.08a4,4,0,0,1,.71-2.78c.64-.65,1.69.09,3.12.09s2.7-.89,3.39-.1a4.21,4.21,0,0,1,.68,2.67c0,.19.37-.14.44-1C387.81,185.89,387.58,181.83,383.34,181.83Z"/><path class="cls-19" d="M383.21,181.43c-4.72,0-4.72,4.27-4.61,5.48a4.56,4.56,0,0,0,.29,1.55c.17.45.31.62.35.74.17.5.21-.56.25-.74.47-2.29,4.73-1.39,6.34-3.17a9.28,9.28,0,0,0,1.29,3c.09.17.13,1.3.26,1a7.37,7.37,0,0,0,.36-.74,5.8,5.8,0,0,0,.27-1.67C388.12,185.58,387.93,181.43,383.21,181.43Z"/><polygon class="cls-5" points="84.34 229.93 81.67 227.5 81.67 224.44 87 224.44 87 227.5 84.34 229.93"/><path class="cls-6" d="M81.67,225.81a3,3,0,0,0,5.33,0v-1.37H81.67Z"/><path class="cls-7" d="M79.39,220.23c0-.75.56-.23.56-.23s-1.19-6,4.39-6,4.39,6,4.39,6,.58-.52.56.23a5.34,5.34,0,0,1-.2,1.29,1.72,1.72,0,0,1-.89,1.29,4.35,4.35,0,0,1-.78,2.14c-.63.64-1.64,2.08-3.08,2s-2.45-1.38-3.08-2a4.4,4.4,0,0,1-.79-2.14,1.73,1.73,0,0,1-.88-1.29A4.8,4.8,0,0,1,79.39,220.23Z"/><path class="cls-9" d="M84.35,214c-4.31,0-4.18,4-4.07,5.24.07.84-.29.67-.11,1.12s.12.36.11.17c0-.57.84-.34,3.32-1.34,3.14-1.27,2.91-2.23,4-1.06a3.26,3.26,0,0,1,.68,2.13c0,.19,0,.72.15.27a3.37,3.37,0,0,0,.33-1.39C88.84,217.93,88.57,214,84.35,214Z"/><path class="cls-19" d="M84.35,213.71c-4.31,0-4.81,4.07-4.7,5.31.08.84.16.61.34,1.07s-.28.87.41.87c0,0,0-.49,0-.69,0-.57.72-.38,3.2-1.38,3.14-1.27,2.91-2.22,4-1a3.23,3.23,0,0,1,.68,2.12c0,.2,0,1,0,1,.6-.08.18-.28.36-.74a2.45,2.45,0,0,0,.33-1.21C89.06,217.78,88.57,213.71,84.35,213.71Z"/><polygon class="cls-3" points="88.6 238.38 80.42 238.38 80.42 229.13 84.36 229.38 88.56 229.13 88.6 238.38"/><path class="cls-29" d="M83.85,229.71l-1.78,2.22-1.65-3.1,1.21-1.44Zm1,0,1.77,2.22,1.66-3.1L87,227.39Z"/><path class="cls-30" d="M85,231.45c.08-.34.38-.72.52-1.13a.27.27,0,0,0-.08-.32l-.44-.64a.28.28,0,0,0-.17-.07h-1a.28.28,0,0,0-.17.07l-.44.64a.26.26,0,0,0-.08.32c.13.41.44.79.52,1.13L83,238.93s-1.18.89-.76,2a16,16,0,0,0,2.2.16,14.38,14.38,0,0,0,2.09-.15c.42-1.1-1.16-1.72-1.16-1.72Z"/><path class="cls-31" d="M95.22,231.76c-.07-.22-.29-.78-.63-.88s-5.94-2.08-6.7-2.4l-3.81,11.87-3.29-11.87c-.76.32-6.36,2.3-6.7,2.4s-.56.66-.64.88-.53,1.84-1,3.7a15.55,15.55,0,0,0,23.9,0C95.82,233.68,95.26,231.88,95.22,231.76Z"/><path class="cls-3" d="M83.85,229.29l-1.78,2.22-1.19-3.23.75-1.3Zm1,0,1.77,2.22,1.2-3.23L87,227Z"/><path class="cls-32" d="M84.19,240.56,82,231.2h0v0l0-.07h0l-1-2.8s-.06-.15.15-.37-1.06.68-1.06.68l-.52,1.25.91.79-1.19,1.28Z"/><path class="cls-32" d="M88.26,230.65l.91-.79-.52-1.25s-1.14-.77-1.06-.68.14.37.14.37l-1,2.8h0l-2.64,9.24,0,.72h.08a2.86,2.86,0,0,1,.1-.49c.21-.45,5.17-8.65,5.17-8.65Z"/><path class="cls-33" d="M85.48,220.59c-.57.07-.79.19-1.14.2s-.57-.13-1.14-.2a12.73,12.73,0,0,0-2.92,0l.06.4a.37.37,0,0,1,.24.21c.07.18.21,1.07.79,1.17s1.73.26,2.25-.23.32-.92.72-.94.2.46.72.94,1.67.32,2.25.23.72-1,.79-1.17a.37.37,0,0,1,.24-.21l.06-.4A12.73,12.73,0,0,0,85.48,220.59Zm-1.75.72c-.23,1.23-1.5,1-2.15.89s-.65-1.08-.63-1.18c.16-.49,1.9-.27,2.4-.18S83.73,221.31,83.73,221.31Zm3.37.89c-.65.09-1.92.34-2.15-.89,0,0-.12-.38.38-.47s2.24-.31,2.4.18C87.75,221.12,87.75,222.12,87.1,222.2Z"/><path class="cls-34" d="M155.48,253.14a7.74,7.74,0,0,0,3.79.86,8.09,8.09,0,0,0,3.85-.86l.86-2.47-9.33-.24Z"/><path class="cls-5" d="M166,258.9s-4.12-2.3-4.48-4.27a17.68,17.68,0,0,1-.23-2.86l-1.82-.12v0l-2.27.16a17.68,17.68,0,0,1-.23,2.86c-.36,2-4.89,4.27-4.89,4.27l7.36.78v-.21Z"/><path class="cls-6" d="M161.27,251.77l-1.82-.12v0l-2.27.16a19.6,19.6,0,0,1-.1,2,3.86,3.86,0,0,0,2.23,1.26,3.77,3.77,0,0,0,2.09-1.1A20.92,20.92,0,0,1,161.27,251.77Z"/><path class="cls-7" d="M154.89,249.07c0-.64.47-.2.47-.2s-.76-5.29,3.95-5.29,3.95,5.29,3.95,5.29.49-.44.47.2a4.07,4.07,0,0,1-.17,1.08,1.43,1.43,0,0,1-.74,1.09,9.42,9.42,0,0,1-1,1.94,4,4,0,0,1-2.5,1.57,4.05,4.05,0,0,1-2.52-1.6,9,9,0,0,1-1-1.91,1.42,1.42,0,0,1-.75-1.09A4.07,4.07,0,0,1,154.89,249.07Z"/><path class="cls-9" d="M163.5,243.8a5,5,0,0,0-4.2-1.94,5.17,5.17,0,0,0-4.21,1.94c-1.7,2,.8,9.62.8,9.62.12.31-1.75-6.08,1.31-7.67a9.07,9.07,0,0,0,1.6,1.55,4.73,4.73,0,0,0,4.44.63c.39,2-.6,5.61-.51,5.4C162.73,253.33,165.25,246,163.5,243.8Z"/><path class="cls-26" d="M163.5,243.49a5,5,0,0,0-4.2-2,5.18,5.18,0,0,0-4.21,2c-1.7,2-1.53,6.4.06,9.83.17.37.94.46.94.46.13.32-2-6.75,1.11-8.34a9.07,9.07,0,0,0,1.6,1.55,4.16,4.16,0,0,0,4.26.79c.4,2-.63,6.22-.55,6,0,0,.8-.15.94-.46C165.05,249.9,165.25,245.68,163.5,243.49Z"/><path class="cls-35" d="M159.29,257.92c-3.14,0-3.43-1.59-3.35-1.69l-6,2.95s2.54,5.48,5.91,8.14a16,16,0,0,0,3.34.36,15.55,15.55,0,0,0,1.94-.12c2.6-2.53,7.11-8.34,7.11-8.34l-5.7-3C162.63,256.31,162.44,257.92,159.29,257.92Z"/><path class="cls-36" d="M170.59,262.72c-.22-.83-.44-1.67-.63-2.48-.5-2.05-1.21-1.86-1.21-1.86l-5.94-2.06c.07.08-3.57,10.58-3.57,10.58-.47.11-3.81-10.42-3.73-10.53l-5.86,2s-.71-.19-1.2,1.86c-.18.74-.41,1.59-.64,2.47a15.55,15.55,0,0,0,22.78,0Z"/><path class="cls-37" d="M159.18,267.23a1,1,0,0,0,0-.72c-.71-2.67-3.22-9.78-3.23-10.06s.15-.4.35-.61-1.3.62-1.3.62l-.43,1.49.88.76L154.29,260Z"/><path class="cls-37" d="M163.85,258l-.43-1.49s-1.38-.7-1.3-.62.35.26.34.61-2.6,7.59-3.33,10.29v.94h.17l.24-1,4.58-6.73L163,258.71Z"/><path class="cls-38" d="M160.42,248.65a9.53,9.53,0,0,1-1.11.19,9.8,9.8,0,0,1-1.1-.19,12.44,12.44,0,0,0-2.82,0l.06.39a.37.37,0,0,1,.23.2c.07.17.2,1,.76,1.13s1.68.25,2.18-.22.31-.89.69-.91.2.45.7.91,1.62.31,2.18.22.69-1,.76-1.13a.37.37,0,0,1,.23-.2l.06-.39A12.44,12.44,0,0,0,160.42,248.65Zm-1.7.7c-.22,1.18-1.45.94-2.07.86s-.64-1.05-.61-1.15c.16-.47,1.84-.26,2.32-.17S158.72,249.35,158.72,249.35Zm3.27.86c-.64.08-1.86.32-2.08-.86,0,0-.12-.37.36-.46s2.16-.3,2.32.17C162.61,249.16,162.61,250.13,162,250.21Z"/><path class="cls-34" d="M338,242.84a7.74,7.74,0,0,0,3.8.87,8,8,0,0,0,3.84-.87l.86-2.47-9.33-.23Z"/><path class="cls-5" d="M348.7,248.06s-4.28-2.13-4.64-4.1a17.75,17.75,0,0,1-.23-2.86L342,241v0l-2.27.16a19.13,19.13,0,0,1-.23,2.86c-.36,2-4.89,4.27-4.89,4.27L342,257Z"/><path class="cls-6" d="M343.83,241.1,342,241v0l-2.27.16s0,1-.11,2a3.91,3.91,0,0,0,2.24,1.26,3.75,3.75,0,0,0,2.08-1.1A19.4,19.4,0,0,1,343.83,241.1Z"/><path class="cls-7" d="M337.45,238.4c0-.64.47-.2.47-.2s-.76-5.29,3.95-5.29,3.95,5.29,3.95,5.29.49-.44.47.2a4.07,4.07,0,0,1-.17,1.08,1.45,1.45,0,0,1-.75,1.09,9.12,9.12,0,0,1-1,1.94,4,4,0,0,1-2.5,1.57,4.1,4.1,0,0,1-2.53-1.6,9.52,9.52,0,0,1-1-1.91,1.43,1.43,0,0,1-.74-1.09A4.07,4.07,0,0,1,337.45,238.4Z"/><path class="cls-28" d="M341.76,257a15.47,15.47,0,0,0,10.86-4.43c-.27-1-.54-2-.78-3-.49-2-1.2-1.86-1.2-1.86l-5.24-2.07a3.63,3.63,0,0,1-3.58,3,3.78,3.78,0,0,1-3.72-2.93l-5.16,2s-.72-.19-1.21,1.86c-.22.9-.5,2-.79,3.05A15.47,15.47,0,0,0,341.76,257Z"/><path class="cls-39" d="M343,238c-.55.07-.76.19-1.1.19s-.55-.12-1.1-.19a12.44,12.44,0,0,0-2.82,0l.06.39a.37.37,0,0,1,.23.2c.06.17.2,1,.76,1.13s1.68.25,2.18-.22.31-.89.69-.91.19.45.7.91,1.61.31,2.17.22.7-1,.76-1.13a.38.38,0,0,1,.24-.2l.05-.39A12.46,12.46,0,0,0,343,238Zm-1.69.7c-.22,1.18-1.45.94-2.08.86s-.63-1-.6-1.15c.15-.47,1.84-.26,2.32-.17S341.28,238.68,341.28,238.68Zm3.26.86c-.63.08-1.86.32-2.07-.86,0,0-.13-.37.36-.46s2.16-.3,2.32.17C345.17,238.49,345.17,239.46,344.54,239.54Z"/><path class="cls-26" d="M346,233a5,5,0,0,0-4.2-2,5.17,5.17,0,0,0-4.21,2c-1.71,2-1.53,6.41.05,9.84.17.37.94.46.94.46.09.2-1-3.65-.29-6.41.27-.28,1.12-.91,3.51-.91,2.14,0,3,.51,3.4.82.84,2.73-.24,6.64-.19,6.5s.8-.15.94-.46C347.54,239.44,347.75,235.22,346,233Z"/><polygon class="cls-40" points="303.98 171.08 301.4 168.73 301.4 165.77 306.55 165.77 306.55 168.73 303.98 171.08"/><path class="cls-41" d="M301.4,167.09a3.6,3.6,0,0,0,2.58,1.52,3.56,3.56,0,0,0,2.57-1.52v-1.32H301.4Z"/><path class="cls-40" d="M299.19,161.7c0-.73.54-.22.54-.22s-1.15-5.82,4.25-5.82,4.24,5.82,4.24,5.82.57-.51.54.22a4.85,4.85,0,0,1-.19,1.25,1.65,1.65,0,0,1-.86,1.24,4.21,4.21,0,0,1-.75,2.08c-.61.61-1.59,2-3,1.95s-2.37-1.34-3-1.95a4.26,4.26,0,0,1-.76-2.08,1.63,1.63,0,0,1-.85-1.24A5.1,5.1,0,0,1,299.19,161.7Z"/><polygon class="cls-42" points="308.09 179.24 300.19 179.24 300.19 170.3 304 170.55 308.06 170.3 308.09 179.24"/><path class="cls-43" d="M303.5,170.86,301.79,173l-1.6-3,1.17-1.39Zm.95,0,1.72,2.15,1.6-3-1.19-1.39Z"/><path class="cls-44" d="M305,174.93c-.21-1.13-.35-2.38-.35-2.38.07-.33.37-.7.49-1.09a.25.25,0,0,0-.07-.32l-.43-.61a.26.26,0,0,0-.16-.07h-.95a.26.26,0,0,0-.16.07l-.42.61a.26.26,0,0,0-.08.32c.13.39.42.76.5,1.09,0,0-.14,1.25-.36,2.38-.11.63-.41,2.48-.63,4.37,0,0-1.12,1.56-.2,2.64.55.05,1.11.08,1.68.08a17,17,0,0,0,2-.12c.83-1.09-.24-2.6-.24-2.6C305.38,177.41,305.09,175.56,305,174.93Z"/><path class="cls-45" d="M314.5,172.85c-.07-.21-.28-.76-.61-.85s-5.75-2-6.48-2.32l-3.52,11.95-3.34-11.95c-.74.31-6.15,2.22-6.48,2.32s-.55.64-.62.85-.66,2.29-1.19,4.36a15.54,15.54,0,0,0,11.69,5.3l.53,0h.43a15.58,15.58,0,0,0,10.73-5.27C315.12,175.18,314.55,173,314.5,172.85Z"/><path class="cls-42" d="M303.5,170.46l-1.71,2.15-1.15-3.13.72-1.26Zm.95,0,1.72,2.15,1.15-3.13-.74-1.26Z"/><path class="cls-46" d="M303.84,181.55l-2.23-9.25h0l0-.07h0l-1-2.71s-.05-.15.14-.36-1,.66-1,.66l-.5,1.2.88.78L299,173Z"/><path class="cls-46" d="M307.76,171.78l.89-.78-.5-1.2s-1.11-.74-1-.66.14.36.14.36l-1,2.71h0l-2.55,9.22,0,.77a5,5,0,0,1,.16-.54c.21-.44,5-8.66,5-8.66Z"/><path class="cls-9" d="M308.49,157.16a7.61,7.61,0,0,0-4.57-2,7.25,7.25,0,0,0-4.44,2c-.74,1.24.17,3.12.22,3.68a4.48,4.48,0,0,0,.36,1.31,5.21,5.21,0,0,1,.73-3.17c.64-.65,2.55,0,3.13,0s2.62-.64,3.26,0a5.14,5.14,0,0,1,.72,3.17c0,.2.32-.8.36-1.21C308.3,160.38,309.22,158.4,308.49,157.16Z"/><path class="cls-12" d="M308.49,156.85a7.55,7.55,0,0,0-4.57-2,7.25,7.25,0,0,0-4.44,2c-.74,1.24-.1,3.21-.06,3.77a4.1,4.1,0,0,0,.22,1.23c.19.46.09,1,.43,1,0,0,0-.77,0-1a5.24,5.24,0,0,1,.73-3.18c.64-.65,2.55,0,3.13,0s2.62-.65,3.26,0a5.18,5.18,0,0,1,.72,3.18v1c.33,0,.24-.5.43-1a3.78,3.78,0,0,0,.21-1.23C308.59,160.06,309.22,158.09,308.49,156.85Z"/><polygon class="cls-5" points="45.21 182.15 42.69 179.85 42.69 176.96 47.73 176.96 47.73 179.85 45.21 182.15"/><path class="cls-6" d="M42.69,178.25a3.51,3.51,0,0,0,2.52,1.49,3.49,3.49,0,0,0,2.52-1.49V177h-5Z"/><path class="cls-7" d="M40.53,173c0-.72.53-.22.53-.22s-1.13-5.92,4.15-5.92,4.15,5.92,4.15,5.92.55-.5.53.22a4.56,4.56,0,0,1-.19,1.22,1.59,1.59,0,0,1-.84,1.21,4.08,4.08,0,0,1-.74,2c-.6.6-1.55,2-2.91,1.91s-2.32-1.31-2.91-1.91a4.08,4.08,0,0,1-.74-2,1.59,1.59,0,0,1-.84-1.21A4.56,4.56,0,0,1,40.53,173Z"/><path class="cls-3" d="M56.91,188.87c-.55-2.19-1.22-4.7-1.27-4.84s-.28-.77-.62-.86-5.61-2-6.35-2.34l-3.44.88-3.48-.88c-.74.31-6,2.24-6.35,2.34s-.55.64-.62.86-.64,2.36-1.17,4.44a15.54,15.54,0,0,0,23.3.4Z"/><rect class="cls-47" x="44.6" y="181.62" width="1.21" height="9.47"/><path class="cls-3" d="M44.92,181.62l-1.54,1.87-2-2.73,1.19-1.41Zm.57,0L47,183.49l2-2.73-1.19-1.41Z"/><path class="cls-9" d="M45.23,166.53c-4.42,0-4.69,4.17-4.58,5.44.08.87.07.5.26,1s-.07.65.2.64a.56.56,0,0,0,.06-.31c0-.58.74-.39,3.29-1.42,3.23-1.3,3-2.28,4.08-1.08a3.32,3.32,0,0,1,.69,2.18c0,.2.06.53.06.53.25,0,.05-.47.23-.93s.21.15.28-.71C49.92,170.57,49.56,166.53,45.23,166.53Z"/><path class="cls-19" d="M45.23,166.29c-4.42,0-4.94,4.18-4.82,5.45.07.86.15.63.34,1.1s.15.91.42.9c0,0,0-.51,0-.71,0-.58.74-.39,3.29-1.42,3.23-1.3,3-2.28,4.08-1.08a3.32,3.32,0,0,1,.69,2.18c0,.2,0,1,0,1,.25,0,.18-.3.37-.76a2.74,2.74,0,0,0,.34-1.25C50.06,170.47,49.56,166.29,45.23,166.29Z"/><path class="cls-20" d="M49.28,181.07l-4.1,9.59-4.09-9.57c-1.4.53-4.35,1.61-5.36,2,.37.91,2.07,5.35,1.62,8.62a15.58,15.58,0,0,0,15.7.27c-.6-3.31,1.22-8,1.59-8.9C53.57,182.66,50.63,181.58,49.28,181.07Z"/><path class="cls-48" d="M45.52,182.08a4.83,4.83,0,0,1,2.09-1.25.25.25,0,0,1,.17.06,2.32,2.32,0,0,1,.31,1.55s.08,1.21-.36,1.39c-.37,0-.53-.16-1.1-.39a4.52,4.52,0,0,1-1.11-.62C45.25,182.62,45.52,182.08,45.52,182.08Zm-.68,0a4.86,4.86,0,0,0-2.07-1.26.24.24,0,0,0-.18,0,2.28,2.28,0,0,0-.33,1.56s0,1.19.43,1.37a4.48,4.48,0,0,0,1-.37,4.23,4.23,0,0,0,1.09-.61C45.08,182.62,44.84,182.09,44.84,182.09Z"/><path class="cls-49" d="M45.6,182.6v0l1.3.25c.21,0,0-.28,0-.43s.6-.47.48-.62a6.41,6.41,0,0,0-1.81.57l0-.11a.28.28,0,0,0,.15-.08c.39-.4.66-.81.33-.57a3.08,3.08,0,0,0-.51.45,1.38,1.38,0,0,0-.83,0,3.59,3.59,0,0,0-.51-.44c-.33-.24-.06.17.33.57a.32.32,0,0,0,.13.08l0,.11a6.45,6.45,0,0,0-1.82-.57c-.12.15.38.34.48.62s-.17.47,0,.43l1.32-.25v0A7.52,7.52,0,0,1,43,183.7a6.45,6.45,0,0,0,1.7-.82l0,0s0,0,0,0,.24,0,.43,0,.36,0,.45,0a6.62,6.62,0,0,0,1.7.82A7.93,7.93,0,0,1,45.6,182.6Z"/><path class="cls-50" d="M221.09,178.9a7.83,7.83,0,0,0,3.81.86,8.08,8.08,0,0,0,3.84-.86l.86-2.47-9.33-.24Z"/><path class="cls-5" d="M231.6,184.67s-4.12-2.31-4.48-4.28a19.13,19.13,0,0,1-.23-2.86l-1.82-.12v0l-2.27.16a17.75,17.75,0,0,1-.23,2.86c-.36,2-4.89,4.28-4.89,4.28l7.36.77v-.2Z"/><path class="cls-6" d="M226.89,177.53l-1.82-.12v0l-2.27.16a19.6,19.6,0,0,1-.1,2,3.86,3.86,0,0,0,2.24,1.26,3.75,3.75,0,0,0,2.08-1.1A20.92,20.92,0,0,1,226.89,177.53Z"/><path class="cls-7" d="M220.51,174.82c0-.64.47-.19.47-.19s-.76-5.29,4-5.29,3.95,5.29,3.95,5.29.49-.45.47.19a4.45,4.45,0,0,1-.18,1.09,1.43,1.43,0,0,1-.74,1.09,9.12,9.12,0,0,1-1,1.94,4,4,0,0,1-2.5,1.58,4.07,4.07,0,0,1-2.53-1.61,9,9,0,0,1-1-1.91,1.42,1.42,0,0,1-.75-1.09A4.21,4.21,0,0,1,220.51,174.82Z"/><path class="cls-9" d="M229.13,169.55a5,5,0,0,0-4.21-1.94,5.2,5.2,0,0,0-4.21,1.94c-1.7,2,.79,9.62.79,9.62.13.32-1.74-6.07,1.32-7.67a8.89,8.89,0,0,0,1.6,1.56,4.73,4.73,0,0,0,4.44.63c.4,2-.59,5.61-.51,5.4C228.35,179.09,230.88,171.75,229.13,169.55Z"/><path class="cls-51" d="M229.13,169.24a5,5,0,0,0-4.21-1.94,5.17,5.17,0,0,0-4.21,1.94c-1.7,2-1.53,6.41,0,9.84.17.37,1,.46,1,.46.13.32-2-6.75,1.11-8.35a9.3,9.3,0,0,0,1.6,1.56,4.17,4.17,0,0,0,4.27.79c.39,2-.64,6.22-.56,6,0,0,.8-.14,1-.46C230.67,175.66,230.88,171.44,229.13,169.24Z"/><path class="cls-52" d="M236.45,189.35c-.3-1.1-.6-2.25-.87-3.35-.49-2.05-1.2-1.86-1.2-1.86l-5.94-2.06c.07.08-.28,1.6-3.58,1.6s-3.81-1.44-3.73-1.55l-5.86,2s-.72-.19-1.21,1.86c-.24,1-.55,2.17-.87,3.34A15.48,15.48,0,0,0,224,194.56l.82,0A15.46,15.46,0,0,0,236.45,189.35Z"/><rect class="cls-3" x="34.5" y="352.23" width="100.75" height="32.34" rx="1.43"/><path class="cls-53" d="M116.6,356.51h6.34v6.34H116.6Zm-8.72,6.34h6.35v-6.34h-6.35Zm-8.71,0h6.34v-6.34H99.17Zm-8.72,0h6.34v-6.34H90.45Zm-8.72,0h6.34v-6.34H81.73Zm-8.72,0h6.34v-6.34H73Zm-8.72,0h6.34v-6.34H64.29Zm-8.72,0h6.34v-6.34H55.57Zm-8.72,0h6.34v-6.34H46.85Zm78.39,0h6.35v-6.34h-6.35Zm-87,0h6.34v-6.34H38.21Z"/><path class="cls-53" d="M116.6,365.23h6.34v6.34H116.6Zm-8.72,6.34h6.35v-6.34h-6.35Zm-8.71,0h6.34v-6.34H99.17Zm-8.72,0h6.34v-6.34H90.45Zm-8.72,0h6.34v-6.34H81.73Zm-8.72,0h6.34v-6.34H73Zm-8.72,0h6.34v-6.34H64.29Zm-8.72,0h6.34v-6.34H55.57Zm-8.72,0h6.34v-6.34H46.85Zm78.39,0h6.35v-6.34h-6.35Zm-87,0h6.34v-6.34H38.21Z"/><path class="cls-53" d="M116.6,374h6.34v6.34H116.6Zm8.64,6.34h6.35V374h-6.35Zm-17.36,0h6.35V374h-6.35Zm-8.71,0h6.34V374H99.17ZM73,374v6.34H96.79V374Zm-8.72,6.34h6.34V374H64.29Zm-8.72,0h6.34V374H55.57Zm-8.72,0h6.34V374H46.85Zm-8.64,0h6.34V374H38.21Z"/><path class="cls-54" d="M64.29,374.86V374h6.34v.91Zm-11.1,0V374H46.85v.91Zm-8.64,0V374H38.21v.91Zm52.24,0V374H73v.91Zm-34.88,0V374H55.57v.91Zm43.6,0V374H99.17v.91Zm17.43,0V374H116.6v.91Zm2.3,0h6.35V374h-6.35Zm-11,0V374h-6.35v.91Z"/><path class="cls-54" d="M81.73,366.14v-.91h6.34v.91Zm-11.1,0v-.91H64.29v.91Zm-8.72,0v-.91H55.57v.91Zm-17.36,0v-.91H38.21v.91Zm8.64,0v-.91H46.85v.91Zm26.16,0v-.91H73v.91Zm52.24,0v-.91h-6.35v.91Zm-8.65,0v-.91H116.6v.91Zm-26.15,0v-.91H90.45v.91Zm8.72,0v-.91H99.17v.91Zm8.72,0v-.91h-6.35v.91Z"/><path class="cls-54" d="M81.73,357.42v-.91h6.34v.91Zm-11.1,0v-.91H64.29v.91Zm-8.72,0v-.91H55.57v.91Zm-17.36,0v-.91H38.21v.91Zm8.64,0v-.91H46.85v.91Zm26.16,0v-.91H73v.91Zm52.24,0v-.91h-6.35v.91Zm-8.65,0v-.91H116.6v.91Zm-26.15,0v-.91H90.45v.91Zm8.72,0v-.91H99.17v.91Zm8.72,0v-.91h-6.35v.91Z"/><polygon class="cls-55" points="134.1 351.84 35.65 351.84 34.5 353.18 135.25 353.18 134.1 351.84"/><path class="cls-7" d="M118.32,400.59v25.14H100.63V403.21A5.19,5.19,0,0,1,96.72,400s-4.41-10.3-4.62-11.61a64,64,0,0,1,0-6.54c0-1.55.09-4.27,1.63-4.27,0,0,3.75-.74,3.68,6l-.05,3.67,1.75,2.92V367.61a2.42,2.42,0,0,1,4.84,0v14.6h1V362.78a2.42,2.42,0,0,1,4.84,0V382.2h1v-16a2.38,2.38,0,0,1,2.42-2.37,2.31,2.31,0,0,1,2.42,2.36V382.2h1V371.47a2.21,2.21,0,0,1,2.33-2.39,2.36,2.36,0,0,1,2.52,2.38v24.86C121.38,397.53,120,399.2,118.32,400.59Z"/><path class="cls-56" d="M103,367.3v.7l-2.91,0v-.73a1.31,1.31,0,0,1,1.43-1.42A1.35,1.35,0,0,1,103,367.3Z"/><path class="cls-56" d="M107.26,361.05a1.61,1.61,0,0,1,1.55,1.42v.7l-2.91,0v-.73C105.9,362.29,106.16,361.05,107.26,361.05Z"/><path class="cls-56" d="M114.62,365.85v.7l-2.92,0v-.73a1.46,1.46,0,0,1,2.91,0Z"/><path class="cls-56" d="M117.66,370.64c.29-.53.49-.9,1.23-.9h.18c.52,0,.53.17.88.47a1.24,1.24,0,0,1,.49,1v.7l-2.91,0v-.73a1.08,1.08,0,0,1,.13-.52Z"/><path class="cls-56" d="M92.09,381.12h1c.28,0,.28-.35.28-.35v-3.15C92.27,378,92.1,379.7,92.09,381.12Z"/><path class="cls-3" d="M99.29,449.68V407.93c0-1,.43-1,1-1h18.44c.53,0,1,0,1,1v41.75Z"/><path class="cls-16" d="M96.87,449.68V411.39c0-1,.17-1,1-1h23.27c.77,0,1,0,1,1v38.29Z"/><path class="cls-20" d="M109.47,449.68V410.42h11.64c.53,0,1,0,1,1v38.29Z"/><path class="cls-3" d="M100.64,413.3a1,1,0,1,1-1-1A1,1,0,0,1,100.64,413.3Z"/><path class="cls-7" d="M78.09,388.36c-.21,1.31-4.62,11.61-4.62,11.61a5.2,5.2,0,0,1-3.91,3.24v22.52H51.87V400.59c-1.64-1.39-3.06-3.06-3.06-4.27V371.46a2.36,2.36,0,0,1,2.52-2.38,2.21,2.21,0,0,1,2.32,2.39V382.2h1V366.15a2.31,2.31,0,0,1,2.43-2.36,2.38,2.38,0,0,1,2.42,2.37v16h1V362.77a2.42,2.42,0,0,1,4.84,0V382.2h1V367.6a2.42,2.42,0,0,1,4.84,0v22.53l1.75-2.92,0-3.67c-.07-6.74,3.68-6,3.68-6,1.54,0,1.63,2.72,1.63,4.27A64,64,0,0,1,78.09,388.36Z"/><path class="cls-56" d="M67.19,367.3v.7l2.91,0v-.73a1.31,1.31,0,0,0-1.43-1.42A1.35,1.35,0,0,0,67.19,367.3Z"/><path class="cls-56" d="M62.93,361.05a1.61,1.61,0,0,0-1.55,1.42v.7l2.91,0v-.73C64.29,362.29,64,361.05,62.93,361.05Z"/><path class="cls-56" d="M55.56,365.85v.7l2.92,0v-.73a1.46,1.46,0,0,0-2.92,0Z"/><path class="cls-56" d="M52.53,370.64c-.29-.53-.49-.9-1.23-.9h-.18c-.52,0-.53.17-.88.47a1.24,1.24,0,0,0-.49,1v.7l2.91,0v-.73a1.08,1.08,0,0,0-.13-.52Z"/><path class="cls-56" d="M78.1,381.12h-1c-.28,0-.28-.35-.28-.35v-3.15C77.92,378,78.09,379.7,78.1,381.12Z"/><path class="cls-3" d="M50.53,449.68V407.93c0-1,.44-1,1-1H69.94c.53,0,1,0,1,1v41.75Z"/><path class="cls-16" d="M48.12,449.68V411.39c0-1,.19-1,1-1H72.35c.8,0,1,0,1,1v38.29Z"/><path class="cls-20" d="M48.12,449.68V411.39c0-1,.43-1,1-1H60.72v39.26Z"/><path class="cls-3" d="M69.36,413.3a1,1,0,1,0,1-1A1,1,0,0,0,69.36,413.3Z"/><path class="cls-57" d="M248.24,60.72a1.62,1.62,0,0,0-1.56-1.65H203.91a1.62,1.62,0,0,0-1.56,1.65v48.53a1.62,1.62,0,0,0,1.56,1.65h42.77a1.62,1.62,0,0,0,1.56-1.65Z"/><rect class="cls-3" x="205.42" y="64.02" width="39.75" height="43.65"/><path class="cls-24" d="M241.27,85.35h-32v-2.5h32Zm0-8.16h-32v2.5h32Z"/><rect class="cls-58" x="209.3" y="71.38" width="31.97" height="2.5"/><path class="cls-58" d="M223.44,103.65H209.3V92h14.14Zm17.83-2.5H226.45v2.5h14.82Zm0-6.67H226.45V92h14.82Zm0,4.59H226.45v-2.5h14.82Z"/><path class="cls-7" d="M240.1,52.45c0-.86-1.17-2.52-2.41-3.56V24.08H220V46.75a5.38,5.38,0,0,0-3.42,3.14S212.1,60.7,211.88,62s0,6.56,0,6.56c0,1.55.08,4.28,1.63,4.28,0,0,3.76.74,3.69-6l0-3.68,1.75-3V83.79a2.65,2.65,0,0,0,2.82,2.4h.19a2.62,2.62,0,0,0,2.81-2.38V71a3,3,0,0,0,2.19.91h.19a2.64,2.64,0,0,0,2.82-2.39v-.61a3,3,0,0,0,2.33,1.06h.19a2.63,2.63,0,0,0,2.82-2.38V67a3,3,0,0,0,2.3,1h.19a2.64,2.64,0,0,0,2.82-2.39Z"/><path class="cls-56" d="M220,84.62a2,2,0,0,0,1.71.9h.19a2.14,2.14,0,0,0,1.37-.47,1.25,1.25,0,0,0,.48-1v-.7l-3.88,0v.73a1.06,1.06,0,0,0,.13.52Z"/><path class="cls-56" d="M211.88,69.28h1c.29,0,.29.34.29.34v3.17C212.06,72.41,211.89,70.71,211.88,69.28Z"/><path class="cls-3" d="M218.61.07V41.92c0,1,.43,1,1,1h18.48c.53,0,1,0,1-1V.07Z"/><path class="cls-59" d="M216.19.07V38.45c0,1,.17,1,1,1h23.32c.77,0,1,0,1-1V.07Z"/><path class="cls-60" d="M228.82.07V39.42h11.66c.53,0,1,0,1-1V.07Z"/><path class="cls-3" d="M220.15,36.54a1,1,0,1,0-1,1A1,1,0,0,0,220.15,36.54Z"/><path class="cls-7" d="M369,367.48l-.14-.13a2.81,2.81,0,0,0-4,.21l-4.51,5a2.8,2.8,0,0,0-.51.86,2.49,2.49,0,0,0-2-.89,2.21,2.21,0,0,0-2.32,2.38v16.18H344l-2.27-5.32,1-6.34c.07-6.73-3.67-6-3.67-6-1.54,0-1.62,2.72-1.62,4.26l-1.9,6.93a6.89,6.89,0,0,0,0,2.29c.22,1.31,1.66,13.38,1.66,13.38a4.41,4.41,0,0,0,2.43,2.79v23.08h17.66V404c1.62-1.39,3-3.05,3-4.26V395.6a2.38,2.38,0,0,0,2.55.34l5-2.69a2.61,2.61,0,0,0,.78-3.59l-.08-.16a2.84,2.84,0,0,0-2.6-1.59l1.9-1a2.63,2.63,0,0,0,.78-3.6l-.08-.16a2.85,2.85,0,0,0-2.57-1.59l1.87-1a2.61,2.61,0,0,0,.78-3.59l-.08-.17a2.77,2.77,0,0,0-2.92-1.54l3.44-3.81A2.81,2.81,0,0,0,369,367.48Z"/><path class="cls-56" d="M337.45,376.91h1c.28,0,.28-.35.28-.35v-3.14C337.63,373.79,337.46,375.49,337.45,376.91Z"/><path class="cls-3" d="M357.69,407.44H339.28c-.53,0-1,0-1,1v41.67h20.33V408.4C358.65,407.44,358.22,407.44,357.69,407.44Z"/><path class="cls-11" d="M360.1,410.89H336.87c-.79,0-1,0-1,1v38.21h25.15V411.86C361.06,410.89,360.87,410.89,360.1,410.89Z"/><path class="cls-24" d="M360.1,410.89H348.49v39.18h12.57V411.86C361.06,410.89,360.63,410.89,360.1,410.89Z"/><path class="cls-3" d="M359,413.76a1,1,0,1,1-1-1A1,1,0,0,1,359,413.76Z"/><path class="cls-57" d="M342.86,394.78a1.6,1.6,0,0,0,1.55,1.64h51.67a1.6,1.6,0,0,0,1.55-1.64V359a1.6,1.6,0,0,0-1.55-1.64H344.41a1.6,1.6,0,0,0-1.55,1.64Z"/><rect class="cls-3" x="345.91" y="360.6" width="48.66" height="31.47"/><path class="cls-58" d="M383.11,365.09c-4.09,0-7.42,2.21-7.42,4.93a4.36,4.36,0,0,0,2.28,3.55,14.92,14.92,0,0,1-3.62,2.56,12.7,12.7,0,0,0,6.78-1.36,10.57,10.57,0,0,0,2,.18c4.1,0,7.42-2.21,7.42-4.93S387.21,365.09,383.11,365.09Z"/><path class="cls-24" d="M368.3,369.45H349.66v-2.81H368.3Zm0,4H349.66v2.82H368.3Zm0,6.81H349.66v2.81H368.3Z"/><path class="cls-7" d="M401.89,382.45h-.18a2.93,2.93,0,0,0-2.29,1v-.58a2.63,2.63,0,0,0-2.81-2.37h-.19a3,3,0,0,0-2.32,1.05V381a2.63,2.63,0,0,0-2.81-2.38h-.19a3,3,0,0,0-2.18.91V366.7a2.63,2.63,0,0,0-2.81-2.37h-.19a2.62,2.62,0,0,0-2.8,2.38v23.58l-1.74-3,.05-3.66c.07-6.73-3.68-6-3.68-6-1.54,0-1.62,2.73-1.62,4.27a63.19,63.19,0,0,0,0,6.53c.22,1.31,4.62,12.07,4.62,12.07a5.41,5.41,0,0,0,3.41,3.14v22.57h17.67V401.46c1.23-1,2.39-2.69,2.39-3.54l.48-13.1A2.61,2.61,0,0,0,401.89,382.45Z"/><path class="cls-56" d="M384.24,365.88A2,2,0,0,1,386,365h.18a2.14,2.14,0,0,1,1.37.47,1.23,1.23,0,0,1,.48.94v.7l-3.87,0v-.73a1.08,1.08,0,0,1,.13-.52Z"/><path class="cls-56" d="M376.12,381.16h1c.28,0,.28-.34.28-.34v-3.15C376.3,378,376.14,379.74,376.12,381.16Z"/><path class="cls-3" d="M402.2,407.44H383.79c-.53,0-1,0-1,1v41.67h20.33V408.4C403.16,407.44,402.73,407.44,402.2,407.44Z"/><path class="cls-24" d="M404.61,410.89H381.38c-.79,0-1,0-1,1v38.21h25.15V411.86C405.57,410.89,405.38,410.89,404.61,410.89Z"/><path class="cls-11" d="M404.61,410.89H393v39.18h12.58V411.86C405.57,410.89,405.14,410.89,404.61,410.89Z"/><path class="cls-3" d="M384.37,413.77a1,1,0,1,1-1-1A1,1,0,0,1,384.37,413.77Z"/><rect class="cls-61" x="317.79" y="64.28" width="100.75" height="32.34" rx="1.43"/><path class="cls-62" d="M399.89,86h6.34v6.34h-6.34Zm-8.72,6.34h6.34V86h-6.34Zm-8.72,0h6.34V86h-6.34Zm-8.72,0h6.34V86h-6.34Zm-8.72,0h6.35V86H365Zm-8.72,0h6.35V86h-6.35Zm-8.71,0h6.34V86h-6.34Zm-8.72,0h6.34V86h-6.34Zm-8.72,0h6.34V86h-6.34Zm78.39,0h6.34V86h-6.34Zm-87,0h6.34V86H321.5Z"/><path class="cls-62" d="M399.89,77.28h6.34v6.34h-6.34Zm-8.72,6.34h6.34V77.28h-6.34Zm-8.72,0h6.34V77.28h-6.34Zm-8.72,0h6.34V77.28h-6.34Zm-8.72,0h6.35V77.28H365Zm-8.72,0h6.35V77.28h-6.35Zm-8.71,0h6.34V77.28h-6.34Zm-8.72,0h6.34V77.28h-6.34Zm-8.72,0h6.34V77.28h-6.34Zm78.39,0h6.34V77.28h-6.34Zm-87,0h6.34V77.28H321.5Z"/><path class="cls-62" d="M399.89,68.56h6.34V74.9h-6.34Zm8.64,6.34h6.34V68.56h-6.34Zm-17.36,0h6.34V68.56h-6.34Zm-8.72,0h6.34V68.56h-6.34Zm-2.38,0V68.56H356.29V74.9Zm-32.49,0h6.34V68.56h-6.34Zm-8.72,0h6.34V68.56h-6.34Zm-8.72,0h6.34V68.56h-6.34Zm-8.64,0h6.34V68.56H321.5Z"/><path class="cls-63" d="M353.92,74v.91h-6.34V74Zm-23.78,0v.91h6.34V74Zm-8.64,0v.91h6.34V74Zm34.79,0v.91h23.78V74Zm-17.43,0v.91h6.34V74Zm43.59,0v.91h6.34V74Zm17.44,0v.91h6.34V74Zm8.64.91h6.34V74h-6.34ZM391.17,74v.91h6.34V74Z"/><path class="cls-63" d="M371.36,82.71v.91H365v-.91Zm-23.78,0v.91h6.34v-.91Zm-8.72,0v.91h6.34v-.91Zm-17.36,0v.91h6.34v-.91Zm8.64,0v.91h6.34v-.91Zm26.15,0v.91h6.35v-.91Zm52.24,0v.91h6.34v-.91Zm-8.64,0v.91h6.34v-.91Zm-26.16,0v.91h6.34v-.91Zm8.72,0v.91h6.34v-.91Zm8.72,0v.91h6.34v-.91Z"/><path class="cls-63" d="M371.36,91.43v.91H365v-.91Zm-23.78,0v.91h6.34v-.91Zm-8.72,0v.91h6.34v-.91Zm-17.36,0v.91h6.34v-.91Zm8.64,0v.91h6.34v-.91Zm26.15,0v.91h6.35v-.91Zm52.24,0v.91h6.34v-.91Zm-8.64,0v.91h6.34v-.91Zm-26.16,0v.91h6.34v-.91Zm8.72,0v.91h6.34v-.91Zm8.72,0v.91h6.34v-.91Z"/><polygon class="cls-55" points="417.39 97.01 318.94 97.01 317.79 95.67 418.54 95.67 417.39 97.01"/><path class="cls-64" d="M401.61,48.26V23.12h-17.7V45.64a5.18,5.18,0,0,0-3.9,3.24s-4.41,10.3-4.63,11.61,0,6.54,0,6.54c0,1.55.08,4.27,1.63,4.27,0,0,3.75.74,3.68-6l-.05-3.67,1.75-2.92V81.24a2.43,2.43,0,0,0,4.85,0V66.65h1V86.07a2.42,2.42,0,0,0,4.84,0V66.65h1v16a2.38,2.38,0,0,0,2.42,2.37,2.31,2.31,0,0,0,2.42-2.36v-16h1V77.38a2.21,2.21,0,0,0,2.33,2.39,2.36,2.36,0,0,0,2.51-2.39V52.53C404.67,51.32,403.24,49.65,401.61,48.26Z"/><path class="cls-65" d="M386.29,81.55v-.7l-2.91,0v.73A1.32,1.32,0,0,0,384.81,83,1.36,1.36,0,0,0,386.29,81.55Z"/><path class="cls-65" d="M390.55,87.8a1.61,1.61,0,0,0,1.55-1.42v-.7l-2.91,0v.73C389.19,86.56,389.45,87.8,390.55,87.8Z"/><path class="cls-65" d="M397.91,83v-.7l-2.91,0V83a1.46,1.46,0,0,0,2.91,0Z"/><path class="cls-65" d="M401,78.21c.28.53.49.9,1.22.9h.19c.51,0,.53-.18.88-.47a1.26,1.26,0,0,0,.48-1V77l-2.91,0v.73a1.1,1.1,0,0,0,.14.52Z"/><path class="cls-65" d="M375.38,67.73h1c.28,0,.28.35.28.35v3.15C375.55,70.85,375.39,69.15,375.38,67.73Z"/><path class="cls-3" d="M382.57-.83V40.92c0,1,.44,1,1,1H402c.53,0,1,0,1-1V-.83Z"/><path class="cls-66" d="M380.16-.83V37.46c0,1,.17,1,1,1h23.26c.77,0,1,0,1-1V-.83Z"/><path class="cls-67" d="M392.76-.83V38.43h11.63c.53,0,1,0,1-1V-.83Z"/><path class="cls-64" d="M327.57,24.55l6,23.66c-.94,1.29-1.65,3.15-1.44,4l2.71,12.65a2.59,2.59,0,0,0,3.26,1.6l.18-.05a2.92,2.92,0,0,0,1.94-1.53l.14.55A2.6,2.6,0,0,0,343.6,67l.18,0a2.9,2.9,0,0,0,2-1.57l.15.58a2.6,2.6,0,0,0,3.26,1.6l.18,0a2.93,2.93,0,0,0,1.87-1.4l3.1,12.25a2.59,2.59,0,0,0,3.26,1.6l.18,0a2.6,2.6,0,0,0,2.11-3l-5.71-22.57,2.4,2.49.85,3.52c1.56,6.45,5,4.84,5,4.84,1.48-.37.9-3,.52-4.47a61.66,61.66,0,0,0-1.58-6.25c-.52-1.2-7.34-10.44-7.34-10.44a5.34,5.34,0,0,0-4-2.18l-5.45-21.61Z"/><path class="cls-65" d="M359,78a1.91,1.91,0,0,1-1.42,1.27l-.17,0a2.07,2.07,0,0,1-1.42-.12,1.22,1.22,0,0,1-.69-.79l-.17-.67,3.7-1,.17.7a1,1,0,0,1,0,.53Z"/><path class="cls-65" d="M363.06,61.43l-.92.23c-.27.07-.19.4-.19.4l.76,3C363.64,64.45,363.39,62.79,363.06,61.43Z"/><path class="cls-3" d="M330.59,41.89c.23.92.65.82,1.15.69l17.62-4.45c.51-.13.93-.24.69-1.16l-7.75-39-20.42.13Z"/><path class="cls-66" d="M327.45,39.16c.23.93.42.88,1.15.69l22.23-5.61c.76-.2.93-.24.69-1.16L344.36-2.07l-25.28.16Z"/><path class="cls-67" d="M327.45,39.16c.23.93.64.82,1.15.69L339.72,37,331.36-2l-12.65.08Z"/><path class="cls-57" d="M46.61,59.24h74.08a2.64,2.64,0,0,1,2.64,2.64V107.3a2.65,2.65,0,0,1-2.65,2.65H46.62A2.64,2.64,0,0,1,44,107.3V61.88a2.64,2.64,0,0,1,2.64-2.64Z"/><path class="cls-53" d="M59.34,105.07H54.48V100.2h4.86ZM66,100.2H61.16v4.87H66Zm6.68,0H67.85v4.87h4.86Zm6.69,0H74.54v4.87H79.4Zm6.69,0H81.22v4.87h4.87Zm6.68,0H87.91v4.87h4.86Zm6.69,0H94.59v4.87h4.87Zm6.68,0h-4.86v4.87h4.86Zm6.69,0H108v4.87h4.86Zm-60.12,0H47.85v4.87h4.86Zm66.75,0h-4.87v4.87h4.87Z"/><path class="cls-54" d="M81.22,100.91v-.71h4.87v.71Zm18.24,0v-.71H94.59v.71Zm6.68,0v-.71h-4.86v.71Zm13.32,0v-.71h-4.87v.71Zm-6.63,0v-.71H108v.71Zm-20.06,0v-.71H87.91v.71Zm-40.06,0v-.71H47.85v.71Zm6.63,0v-.71H54.48v.71Zm20.06,0v-.71H74.54v.71Zm-6.69,0v-.71H67.85v.71Zm-6.68,0v-.71H61.16v.71Z"/><path class="cls-53" d="M99.46,98H94.59V93.14h4.87ZM86.09,93.14H81.22V98h4.87Zm6.68,0H87.91V98h4.86Zm13.37,0h-4.86V98h4.86ZM66,93.14H61.16V98H66ZM59.34,98V93.14H47.85V98Zm13.37-4.86H67.85V98h4.86Zm6.69,0H74.54V98H79.4ZM119.46,98V93.14H108V98Z"/><path class="cls-54" d="M81.22,93.84v-.7h4.87v.7Zm18.24,0v-.7H94.59v.7Zm6.68,0v-.7h-4.86v.7Zm13.32,0v-.7H108v.7Zm-26.69,0v-.7H87.91v.7Zm-33.43,0v-.7H47.85v.7Zm20.06,0v-.7H74.54v.7Zm-6.69,0v-.7H67.85v.7Zm-6.68,0v-.7H61.16v.7Z"/><path class="cls-53" d="M59.34,90.93H54.48V86.07h4.86ZM66,86.07H61.16v4.86H66Zm6.68,0H67.85v4.86h4.86Zm6.69,0H74.54v4.86H79.4Zm6.69,0H81.22v4.86h4.87Zm6.68,0H87.91v4.86h4.86Zm6.69,0H94.59v4.86h4.87Zm6.68,0h-4.86v4.86h4.86Zm6.69,0H108v4.86h4.86Zm-60.12,0H47.85v4.86h4.86Zm66.75,0h-4.87v4.86h4.87Z"/><path class="cls-54" d="M81.22,86.77v-.7h4.87v.7Zm18.24,0v-.7H94.59v.7Zm6.68,0v-.7h-4.86v.7Zm13.32,0v-.7h-4.87v.7Zm-6.63,0v-.7H108v.7Zm-20.06,0v-.7H87.91v.7Zm-40.06,0v-.7H47.85v.7Zm6.63,0v-.7H54.48v.7Zm20.06,0v-.7H74.54v.7Zm-6.69,0v-.7H67.85v.7Zm-6.68,0v-.7H61.16v.7Z"/><path class="cls-53" d="M119.46,83.86h-4.87V79h4.87ZM106.14,79h-4.86v4.86h4.86Zm6.69,0H108v4.86h4.86ZM52.71,83.86V79H47.85v4.86ZM59.34,79H54.48v4.86h4.86ZM66,79H61.16v4.86H66Zm33.43,0H67.85v4.86H99.46Z"/><path class="cls-54" d="M99.46,79.7V79H67.85v.7Zm6.68,0V79h-4.86v.7Zm13.32,0V79h-4.87v.7Zm-6.63,0V79H108v.7Zm-60.12,0V79H47.85v.7Zm6.63,0V79H54.48v.7Zm6.69,0V79H61.16v.7Z"/><rect class="cls-54" x="74.17" y="63.65" width="18.96" height="11.91" rx="0.88"/><path class="cls-57" d="M35.3,110H132a.77.77,0,0,1,.79.87l-.79,3.09c-.6,1.33-.6,1.33-1.32,1.33H36.62c-.73,0-.73,0-1.32-1.33l-.8-3.09A.79.79,0,0,1,35.3,110Z"/><rect class="cls-53" x="54.4" y="107.89" width="58.5" height="2.06"/><path class="cls-68" d="M45,27.33,50.82,51c-.94,1.28-1.67,3.14-1.47,4L52,67.66a2.59,2.59,0,0,0,3.25,1.61l.18,0a2.92,2.92,0,0,0,2-1.52l.13.55a2.6,2.6,0,0,0,3.25,1.62l.18,0a2.92,2.92,0,0,0,2-1.56l.14.59a2.59,2.59,0,0,0,3.25,1.61l.18,0A3,3,0,0,0,68.37,69l3,12.27a2.61,2.61,0,0,0,3.26,1.62l.18-.05a2.59,2.59,0,0,0,2.12-2.94L71.38,57.33l2.39,2.5.82,3.53c1.52,6.46,4.93,4.88,4.93,4.88,1.48-.37.92-3,.55-4.48a62.74,62.74,0,0,0-1.54-6.26C78,56.3,71.26,47,71.26,47a5.32,5.32,0,0,0-4-2.2L61.93,23.17Z"/><path class="cls-56" d="M76.06,81a1.93,1.93,0,0,1-1.42,1.26l-.18,0A2.13,2.13,0,0,1,73,82.17a1.22,1.22,0,0,1-.68-.79l-.17-.67,3.7-.94.18.7a1.06,1.06,0,0,1,0,.53Z"/><path class="cls-56" d="M80.24,64.44l-.92.22c-.27.07-.19.4-.19.4l.74,3C80.81,67.46,80.56,65.8,80.24,64.44Z"/><path class="cls-3" d="M47.9,44.69c.23.92.64.82,1.15.69L66.7,41.05c.51-.13.92-.23.69-1.16L59.89.81H39.47Z"/><path class="cls-27" d="M44.78,41.94c.22.93.41.88,1.15.7l22.26-5.47c.77-.19.93-.23.7-1.16L62,.81H36.67Z"/><path class="cls-52" d="M44.78,41.94c.22.93.64.82,1.15.7L57.06,39.9,49,.81H36.3Z"/><path class="cls-3" d="M64.66,35.12A1,1,0,0,1,65.35,34a1,1,0,0,1,1.16.7,1,1,0,0,1-.7,1.15A.94.94,0,0,1,64.66,35.12Z"/><path class="cls-68" d="M87.72,67.71c0,1.52.08,4.2,1.6,4.21,0,0,3.69.72,3.63-5.92l0-3.62,1.72-2.87v22.2a2.39,2.39,0,0,0,4.77,0V67.34h1V86.47a2.39,2.39,0,0,0,4.77,0V67.34h1v15.8a2.34,2.34,0,0,0,2.38,2.33,2.28,2.28,0,0,0,2.39-2.32V67.34h1V77.91a2.18,2.18,0,0,0,2.3,2.35,2.33,2.33,0,0,0,2.48-2.35V53.42c0-1.2-1.4-2.84-3-4.21V24.43H96.13v22.2a5.09,5.09,0,0,0-3.85,3.19S87.93,60,87.72,61.26,87.72,67.71,87.72,67.71Z"/><path class="cls-56" d="M98.47,82v-.69l-2.87,0V82A1.29,1.29,0,0,0,97,83.41,1.33,1.33,0,0,0,98.47,82Z"/><path class="cls-56" d="M102.66,88.17a1.58,1.58,0,0,0,1.53-1.39v-.7l-2.87,0v.72C101.32,87,101.58,88.17,102.66,88.17Z"/><path class="cls-56" d="M109.92,83.45v-.7l-2.87,0v.72a1.44,1.44,0,0,0,2.87,0Z"/><path class="cls-56" d="M112.91,78.72c.28.53.48.89,1.21.89h.18c.51,0,.52-.17.87-.47a1.23,1.23,0,0,0,.48-.93v-.69l-2.87,0v.72a1,1,0,0,0,.13.51Z"/><path class="cls-56" d="M87.71,68.4h1c.28,0,.28.34.28.34v3.11C87.89,71.47,87.73,69.8,87.71,68.4Z"/><path class="cls-3" d="M95.76,42.93h18.17c.52,0,.95,0,.95-1V.81H94.81V42C94.81,42.93,95.24,42.93,95.76,42.93Z"/><path class="cls-27" d="M93.38,39.52h22.93c.76,0,1,0,1-1V.81H92.43V38.57C92.43,39.52,92.6,39.52,93.38,39.52Z"/><path class="cls-52" d="M117.26,38.57V.81H104.84V39.52h11.47C116.83,39.52,117.26,39.52,117.26,38.57Z"/><path class="cls-3" d="M96.33,36.68a1,1,0,1,0-1,1A1,1,0,0,0,96.33,36.68Z"/><path class="cls-69" d="M198.32,340.94H272.4a2.64,2.64,0,0,1,2.64,2.64V389a2.65,2.65,0,0,1-2.65,2.65H198.32a2.64,2.64,0,0,1-2.64-2.64V343.58A2.64,2.64,0,0,1,198.32,340.94Z"/><path class="cls-53" d="M259.67,345.82h4.87v4.86h-4.87ZM253,350.68h4.86v-4.86H253Zm-6.69,0h4.86v-4.86H246.3Zm-6.69,0h4.87v-4.86h-4.87Zm-6.68,0h4.86v-4.86h-4.86Zm-6.69,0h4.86v-4.86h-4.86Zm-6.69,0h4.87v-4.86h-4.87Zm-6.68,0h4.86v-4.86h-4.86Zm-6.69,0H211v-4.86h-4.86Zm60.12,0h4.86v-4.86H266.3Zm-66.74,0h4.86v-4.86h-4.86Z"/><path class="cls-54" d="M237.79,350v.7h-4.86V350Zm-18.24,0v.7h4.87V350Zm-6.68,0v.7h4.86V350Zm-13.31,0v.7h4.86V350Zm6.62,0v.7H211V350Zm20.06,0v.7h4.86V350Zm40.06,0v.7h4.86V350Zm-6.63,0v.7h4.87V350Zm-20.06,0v.7h4.87V350Zm6.69,0v.7h4.86V350Zm6.69,0v.7h4.86V350Z"/><path class="cls-53" d="M219.55,352.89h4.87v4.86h-4.87Zm13.38,4.86h4.86v-4.86h-4.86Zm-6.69,0h4.86v-4.86h-4.86Zm-13.37,0h4.86v-4.86h-4.86Zm40.12,0h4.86v-4.86H253Zm6.68-4.86v4.86h11.49v-4.86Zm-13.37,4.86h4.86v-4.86H246.3Zm-6.69,0h4.87v-4.86h-4.87Zm-40.05-4.86v4.86H211v-4.86Z"/><path class="cls-54" d="M237.79,357.05v.7h-4.86v-.7Zm-18.24,0v.7h4.87v-.7Zm-6.68,0v.7h4.86v-.7Zm-13.31,0v.7H211v-.7Zm26.68,0v.7h4.86v-.7Zm33.43,0v.7h11.49v-.7Zm-20.06,0v.7h4.87v-.7Zm6.69,0v.7h4.86v-.7Zm6.69,0v.7h4.86v-.7Z"/><path class="cls-53" d="M259.67,360h4.87v4.87h-4.87ZM253,364.82h4.86V360H253Zm-6.69,0h4.86V360H246.3Zm-6.69,0h4.87V360h-4.87Zm-6.68,0h4.86V360h-4.86Zm-6.69,0h4.86V360h-4.86Zm-6.69,0h4.87V360h-4.87Zm-6.68,0h4.86V360h-4.86Zm-6.69,0H211V360h-4.86Zm60.12,0h4.86V360H266.3Zm-66.74,0h4.86V360h-4.86Z"/><path class="cls-54" d="M237.79,364.12v.7h-4.86v-.7Zm-18.24,0v.7h4.87v-.7Zm-6.68,0v.7h4.86v-.7Zm-13.31,0v.7h4.86v-.7Zm6.62,0v.7H211v-.7Zm20.06,0v.7h4.86v-.7Zm40.06,0v.7h4.86v-.7Zm-6.63,0v.7h4.87v-.7Zm-20.06,0v.7h4.87v-.7Zm6.69,0v.7h4.86v-.7Zm6.69,0v.7h4.86v-.7Z"/><path class="cls-53" d="M199.56,367h4.86v4.86h-4.86Zm13.31,4.86h4.86V367h-4.86Zm-6.69,0H211V367h-4.86ZM266.3,367v4.86h4.86V367Zm-6.63,4.86h4.87V367h-4.87Zm-6.68,0h4.86V367H253Zm-33.44,0h31.61V367H219.55Z"/><path class="cls-54" d="M219.55,371.18v.7h31.61v-.7Zm-6.68,0v.7h4.86v-.7Zm-13.31,0v.7h4.86v-.7Zm6.62,0v.7H211v-.7Zm60.12,0v.7h4.86v-.7Zm-6.63,0v.7h4.87v-.7Zm-6.68,0v.7h4.86v-.7Z"/><rect class="cls-54" x="225.88" y="375.33" width="18.96" height="11.91" rx="0.88"/><path class="cls-69" d="M283.72,340.94H187a.78.78,0,0,1-.79-.88L187,337c.6-1.32.6-1.32,1.33-1.32h94.06c.73,0,.73,0,1.33,1.32l.79,3.09A.78.78,0,0,1,283.72,340.94Z"/><rect class="cls-53" x="206.11" y="340.94" width="58.5" height="2.06"/><path class="cls-64" d="M231.3,383.18c0-1.52-.08-4.21-1.61-4.21,0,0-3.69-.73-3.62,5.92l0,3.61-1.72,2.87v-22.2a2.39,2.39,0,0,0-4.77,0v14.38h-1V364.41a2.39,2.39,0,0,0-4.78,0v19.14h-1V367.74a2.34,2.34,0,0,0-2.39-2.32,2.28,2.28,0,0,0-2.39,2.32v15.81h-.95V373a2.18,2.18,0,0,0-2.29-2.35,2.32,2.32,0,0,0-2.48,2.35v24.49c0,1.19,1.41,2.83,3,4.21v24.77h17.44V404.26a5.09,5.09,0,0,0,3.84-3.19s4.35-10.15,4.56-11.44A62.21,62.21,0,0,0,231.3,383.18Z"/><path class="cls-65" d="M220.55,368.87v.69l2.87,0v-.72a1.3,1.3,0,0,0-1.41-1.4A1.33,1.33,0,0,0,220.55,368.87Z"/><path class="cls-65" d="M216.35,362.71a1.6,1.6,0,0,0-1.53,1.4v.69l2.87,0v-.72C217.69,363.93,217.43,362.71,216.35,362.71Z"/><path class="cls-65" d="M209.09,367.44v.69l2.87,0v-.72a1.44,1.44,0,0,0-2.87,0Z"/><path class="cls-65" d="M206.1,372.16c-.28-.53-.48-.88-1.21-.88h-.18c-.51,0-.52.17-.87.46a1.23,1.23,0,0,0-.48.93v.7l2.87,0v-.72a1.08,1.08,0,0,0-.13-.52Z"/><path class="cls-65" d="M231.3,382.49h-1c-.28,0-.28-.34-.28-.34V379C231.12,379.41,231.28,381.09,231.3,382.49Z"/><path class="cls-3" d="M223.25,408H205.08c-.52,0-1,0-1,1v41.16h20.08V408.91C224.21,408,223.78,408,223.25,408Z"/><path class="cls-70" d="M225.63,411.37H202.7c-.76,0-.95,0-.95.95v37.75h24.84V412.32C226.59,411.37,226.42,411.37,225.63,411.37Z"/><path class="cls-71" d="M201.75,412.32v37.75h12.42v-38.7H202.7C202.18,411.37,201.75,411.37,201.75,412.32Z"/><path class="cls-64" d="M266.52,400.79v25.13H248.83V403.4a5.18,5.18,0,0,1-3.9-3.23s-4.42-10.3-4.63-11.62a64,64,0,0,1,0-6.54c0-1.54.09-4.27,1.63-4.27,0,0,3.75-.74,3.68,6l0,3.68,1.74,2.91V367.8a2.42,2.42,0,0,1,4.84,0v14.6h1V363a2.42,2.42,0,0,1,4.84,0v19.43h1v-16a2.38,2.38,0,0,1,2.42-2.36,2.31,2.31,0,0,1,2.43,2.35v16.05h1V371.66a2.2,2.2,0,0,1,2.32-2.38,2.36,2.36,0,0,1,2.52,2.38v24.85C269.58,397.72,268.16,399.39,266.52,400.79Z"/><path class="cls-65" d="M251.2,367.49v.7l-2.91,0v-.73a1.32,1.32,0,0,1,1.43-1.42A1.35,1.35,0,0,1,251.2,367.49Z"/><path class="cls-65" d="M255.46,361.24a1.61,1.61,0,0,1,1.55,1.42v.7l-2.91,0v-.73C254.1,362.48,254.36,361.24,255.46,361.24Z"/><path class="cls-65" d="M262.83,366v.7l-2.92,0V366a1.46,1.46,0,0,1,2.92,0Z"/><path class="cls-65" d="M265.86,370.83c.29-.53.49-.89,1.23-.89h.18c.52,0,.53.17.88.47a1.22,1.22,0,0,1,.49.94v.71l-2.91,0v-.73a1.12,1.12,0,0,1,.13-.53Z"/><path class="cls-65" d="M240.29,381.31h1c.29,0,.29-.34.29-.34v-3.16C240.47,378.19,240.3,379.89,240.29,381.31Z"/><path class="cls-3" d="M247.49,449.87V408.12c0-1,.43-1,1-1h18.44c.53,0,1,0,1,1v41.75Z"/><path class="cls-70" d="M245.07,449.87V411.58c0-1,.17-1,1-1h23.27c.77,0,1,0,1,1v38.29Z"/><path class="cls-71" d="M257.67,449.87V410.62h11.64c.53,0,1,0,1,1v38.29Z"/></svg>