<svg id="Layer_1" data-name="Layer 1" xmlns="http://www.w3.org/2000/svg" viewBox="0 0 600 600"><defs><style>.cls-1{fill:#17786b;}.cls-2{fill:#fff;}.cls-3{fill:#20988a;}.cls-4{fill:#1b829c;}.cls-5{fill:#1f8ba9;}.cls-6{fill:#e2502f;}.cls-7{fill:#f1704d;}.cls-8{fill:#2d3e4f;}.cls-9{font-size:15.5px;fill:#1a1a1a;font-family:Arial-BoldMT, Arial;font-weight:700;}.cls-10{letter-spacing:-0.02em;}.cls-11{letter-spacing:0em;}.cls-12{letter-spacing:-0.07em;}.cls-13{letter-spacing:-0.07em;}.cls-14{font-size:16.45px;font-family:ArialMT, Arial;}</style></defs><path class="cls-1" d="M360.79,178a105.57,105.57,0,0,1-121.58,0c14.11,23.5,22.11,43.46,22.36,59.27-.25,15.82-8.25,30.88-22.36,54.37,14.89-9.31,38.25-10.91,60.53-9.6v0l.26,0,.26,0v0c22.28-1.31,45.64.29,60.53,9.6-14.11-23.49-22.11-38.55-22.36-54.37C338.68,221.49,346.68,201.53,360.79,178Z"/><circle class="cls-2" cx="300" cy="127.7" r="72.63" transform="translate(106.79 390.34) rotate(-76.72)"/><path class="cls-3" d="M300,61.59a66.11,66.11,0,1,1-66.11,66.11A66.19,66.19,0,0,1,300,61.59m0-13a79.16,79.16,0,1,0,79.16,79.15A79.16,79.16,0,0,0,300,48.55Z"/><path class="cls-4" d="M114.25,394.47A105.59,105.59,0,0,1,175,499.76c13.29-24,26.58-40.87,40.14-49,13.83-7.69,30.87-8.3,58.27-7.83-15.51-8.24-28.58-27.67-38.58-47.62h0l-.15-.22-.11-.23,0,0c-12.27-18.64-22.56-39.67-22-57.23-13.28,24-22.33,38.43-35.9,46.55C162.93,391.89,141.65,395,114.25,394.47Z"/><path class="cls-2" d="M101.13,544.93a72.91,72.91,0,0,1-63-36.33,72.65,72.65,0,0,1,62.83-109,72.65,72.65,0,0,1,.15,145.29Z"/><path class="cls-5" d="M101,406.17A66.11,66.11,0,1,1,68,415a66.35,66.35,0,0,1,33-8.86h0m0-13.05a79.16,79.16,0,1,0,68.63,39.59A78.82,78.82,0,0,0,101,393.12Z"/><path class="cls-6" d="M425,499.76a105.59,105.59,0,0,1,60.79-105.29c-27.4.48-48.68-2.58-62.51-10.27-13.57-8.12-22.62-22.58-35.9-46.55.61,17.56-9.68,38.59-21.95,57.23l0,0-.11.23-.15.22h0c-10,19.95-23.07,39.38-38.58,47.62,27.4-.47,44.44.14,58.27,7.83C398.38,458.89,411.67,475.8,425,499.76Z"/><path class="cls-2" d="M498.87,544.93a72.64,72.64,0,1,1,63-36.33A72.63,72.63,0,0,1,498.87,544.93Z"/><path class="cls-7" d="M499,406.17a66.12,66.12,0,1,1-57.32,33.06A66.1,66.1,0,0,1,499,406.17h0m0-13.05a79.17,79.17,0,1,0,39.5,10.61A79.13,79.13,0,0,0,499,393.12Z"/><circle class="cls-2" cx="300" cy="357.42" r="82.29"/><path class="cls-8" d="M300,282.53a74.9,74.9,0,1,1-74.9,74.89A75,75,0,0,1,300,282.53m0-14.79a89.68,89.68,0,1,0,89.68,89.68A89.68,89.68,0,0,0,300,267.74Z"/><text class="cls-9" transform="translate(270.01 323.96)">HUMAN <tspan x="-15.08" y="18.59">RESOURCE </tspan><tspan x="-19.24" y="37.19">PERSONNE</tspan><tspan class="cls-10" x="67.72" y="37.19">L</tspan><tspan class="cls-11" x="76.91" y="37.19"> </tspan><tspan x="-37.73" y="55.78">ADMINISTR</tspan><tspan class="cls-12" x="48.35" y="55.78">A</tspan><tspan class="cls-11" x="58.39" y="55.78">TION </tspan><tspan x="4.45" y="74.38">(HR</tspan><tspan class="cls-13" x="31.99" y="74.38">P</tspan><tspan x="41.18" y="74.38">A)</tspan></text><text class="cls-14" transform="translate(261.15 102.48)">Employee <tspan x="14.17" y="19.74">Line of</tspan><tspan x="-4.12" y="39.48">Accounting </tspan><tspan x="16.92" y="59.22">(LOA)</tspan></text><text class="cls-14" transform="translate(462.37 437.19)">Employee<tspan x="-1.83" y="19.74">personnel </tspan><tspan x="-26.52" y="39.48">information used </tspan><tspan x="-16" y="59.22">for manpower </tspan><tspan x="4.11" y="78.96">reporting</tspan></text><text class="cls-14" transform="translate(64.48 437.19)">Employee<tspan x="-2.75" y="19.74">identifying </tspan><tspan x="-4.11" y="39.48">information</tspan><tspan x="-22.38" y="59.22">(e.g., UIC, Cost </tspan><tspan x="9.15" y="78.96">Center)</tspan></text><polyline class="cls-2" points="285.92 259.62 301.41 252.18 317.09 259.82 301.41 237.5 285.92 259.62"/><polyline class="cls-2" points="222.34 418.52 208.15 408.83 206.93 391.42 195.44 416.17 222.34 418.52"/><polyline class="cls-2" points="391.74 394.13 390.44 411.27 375.98 421.03 403.16 418.61 391.74 394.13"/></svg>