<svg id="Layer_1" data-name="Layer 1" xmlns="http://www.w3.org/2000/svg" viewBox="0 0 300 300"><defs><style>.cls-1,.cls-20,.cls-21,.cls-27,.cls-28{fill:#fff;}.cls-2{fill:#d85827;}.cls-3{fill:#cdebf5;}.cls-4{fill:#8bc0b9;}.cls-5{fill:#696968;}.cls-6{fill:#929291;}.cls-7,.cls-8{fill:none;stroke-linecap:round;}.cls-7{stroke:#fff;stroke-width:0.6px;}.cls-20,.cls-21,.cls-27,.cls-28,.cls-7,.cls-8{stroke-miterlimit:10;}.cls-8{stroke:#8ec2bb;stroke-width:0.5px;}.cls-9{fill:#aeded7;}.cls-10{fill:#e8f6f9;}.cls-11{fill:#e94244;}.cls-12{fill:#7e1417;}.cls-13{fill:#edeff1;}.cls-14{fill:#eef2f2;}.cls-15{fill:#7f9ad0;}.cls-16{fill:#1f70b8;}.cls-17{fill:#0eb4a8;}.cls-18{fill:#189c8d;}.cls-19{fill:#012644;}.cls-20,.cls-21{stroke:#d85827;}.cls-20{stroke-width:0.29px;}.cls-21{stroke-width:0.24px;}.cls-22{fill:#050505;opacity:0.1;}.cls-23{fill:#b3b4b4;}.cls-24{fill:#cdcccc;}.cls-25{fill:#f5f4f2;}.cls-26{fill:#4e4a46;}.cls-27{stroke:#808282;}.cls-27,.cls-28{stroke-width:0.43px;}.cls-28{stroke:#aaacab;}.cls-29{fill:#63c5ef;}.cls-30{fill:#f6b84f;}.cls-31{fill:#f28068;}</style></defs><rect class="cls-1" x="-5.86" y="-5.3" width="311.82" height="310.4"/><rect class="cls-2" x="23.05" y="162.36" width="54.64" height="73.29" rx="0.71" transform="translate(-78.25 39.01) rotate(-24.59)"/><rect class="cls-3" x="27.97" y="167.71" width="43.71" height="60.24" transform="translate(-78.83 39.51) rotate(-24.96)"/><path class="cls-4" d="M24.35,164.76H48.53a2.93,2.93,0,0,1,2.93,2.93v5.54a0,0,0,0,1,0,0h-30a0,0,0,0,1,0,0V167.7A2.93,2.93,0,0,1,24.35,164.76Z" transform="translate(-67.7 31) rotate(-24.87)"/><path class="cls-5" d="M30.57,157.75h5a1.47,1.47,0,0,1,1.47,1.47V166a0,0,0,0,1,0,0h-8a0,0,0,0,1,0,0v-6.81A1.47,1.47,0,0,1,30.57,157.75Z" transform="translate(-65.61 29.37) rotate(-25.12)"/><path class="cls-6" d="M24.2,164H48a3.12,3.12,0,0,1,3.12,3.12v5.36a0,0,0,0,1,0,0h-30a0,0,0,0,1,0,0v-5.36A3.12,3.12,0,0,1,24.2,164Z" transform="translate(-67.42 30.79) rotate(-24.87)"/><circle class="cls-1" cx="32.92" cy="161.53" r="2.27"/><circle class="cls-2" cx="32.12" cy="190.82" r="4.89"/><polyline class="cls-7" points="30.24 191.93 32.41 192.59 32.94 188.14"/><circle class="cls-2" cx="38.46" cy="204.52" r="4.89"/><polyline class="cls-7" points="36.58 205.63 38.76 206.3 39.28 201.84"/><circle class="cls-2" cx="44.8" cy="218.23" r="4.89"/><polyline class="cls-7" points="42.92 219.34 45.1 220 45.62 215.55"/><line class="cls-8" x1="38.13" y1="184.97" x2="58.49" y2="175.55"/><line class="cls-8" x1="39.27" y1="187.44" x2="59.64" y2="178.02"/><line class="cls-8" x1="40.42" y1="189.91" x2="53.02" y2="184.08"/><line class="cls-8" x1="44.52" y1="198.78" x2="64.88" y2="189.36"/><line class="cls-8" x1="45.66" y1="201.25" x2="58.45" y2="195.33"/><line class="cls-8" x1="50.91" y1="212.59" x2="71.27" y2="203.17"/><line class="cls-8" x1="52.05" y1="215.06" x2="72.41" y2="205.63"/><polyline class="cls-3" points="253.54 138.12 287.87 146.6 265.46 237.24 191.82 219.04 209.29 148.34"/><rect class="cls-9" x="216.14" y="156.1" width="59.95" height="2.74" transform="translate(44.97 -54.45) rotate(13.88)"/><rect class="cls-9" x="214.83" y="161.38" width="59.95" height="2.74" transform="translate(46.2 -53.99) rotate(13.88)"/><rect class="cls-9" x="213.76" y="164.7" width="43.62" height="2.74" transform="translate(46.73 -51.67) rotate(13.88)"/><rect class="cls-9" x="210.91" y="177.23" width="59.95" height="2.74" transform="translate(49.89 -52.58) rotate(13.88)"/><rect class="cls-9" x="209.61" y="182.51" width="59.95" height="2.74" transform="translate(51.12 -52.12) rotate(13.88)"/><rect class="cls-9" x="208.7" y="184.53" width="32.74" height="2.74" transform="translate(51.18 -48.57) rotate(13.88)"/><rect class="cls-9" x="207" y="193.08" width="59.95" height="2.74" transform="translate(53.58 -51.18) rotate(13.88)"/><rect class="cls-9" x="205.69" y="198.36" width="59.95" height="2.74" transform="translate(54.81 -50.71) rotate(13.88)"/><rect class="cls-9" x="205.06" y="198.09" width="13.7" height="2.74" transform="translate(54.05 -45.02) rotate(13.88)"/><polygon class="cls-9" points="278.28 152.25 238.53 142.42 232.13 144.3 277.47 155.51 278.28 152.25"/><polygon class="cls-10" points="253.54 138.11 209.33 148.13 240.21 162.52 253.54 138.11"/><rect class="cls-11" x="273.41" y="82.61" width="5.44" height="33.51"/><rect class="cls-12" x="278.86" y="82.61" width="5.03" height="33.51"/><rect class="cls-1" x="274.32" y="83.87" width="4.5" height="20.66"/><rect class="cls-13" x="278.82" y="83.87" width="4.15" height="20.66"/><circle class="cls-14" cx="278.65" cy="110.65" r="2.09"/><rect class="cls-15" x="234.93" y="95.43" width="33.51" height="5.44" transform="translate(99.01 321.02) rotate(-76.89)"/><rect class="cls-16" x="240.03" y="96.82" width="33.51" height="5.03" transform="translate(101.8 326.9) rotate(-76.89)"/><rect class="cls-1" x="242.95" y="90.97" width="20.66" height="4.5" transform="translate(105.05 318.76) rotate(-76.89)"/><rect class="cls-13" x="247.16" y="92.12" width="20.66" height="4.15" transform="translate(107.36 323.62) rotate(-76.89)"/><circle class="cls-14" cx="251.57" cy="109.71" r="2.09"/><rect class="cls-17" x="262.93" y="82.63" width="5.44" height="33.51"/><rect class="cls-18" x="268.37" y="82.63" width="5.03" height="33.51"/><rect class="cls-1" x="263.84" y="83.88" width="4.5" height="20.66"/><rect class="cls-13" x="268.34" y="83.88" width="4.15" height="20.66"/><circle class="cls-14" cx="268.16" cy="110.66" r="2.09"/><rect class="cls-19" x="241.17" y="116.08" width="48.33" height="4.31"/><rect class="cls-4" x="28.51" y="56.54" width="58.65" height="2.3"/><rect class="cls-4" x="28.51" y="68.17" width="58.65" height="1.55"/><rect class="cls-4" x="28.51" y="71.4" width="58.65" height="1.55"/><rect class="cls-4" x="28.51" y="74.64" width="33.19" height="1.55"/><rect class="cls-4" x="28.51" y="77.88" width="58.65" height="1.55"/><rect class="cls-4" x="28.51" y="89.63" width="58.65" height="1.55"/><rect class="cls-4" x="28.51" y="92.87" width="58.65" height="1.55"/><rect class="cls-4" x="28.51" y="96.11" width="53.47" height="1.55"/><rect class="cls-4" x="28.51" y="99.34" width="39.34" height="1.55"/><rect class="cls-4" x="28.51" y="104.84" width="58.65" height="1.55"/><rect class="cls-4" x="28.51" y="108.08" width="58.65" height="1.55"/><rect class="cls-4" x="28.51" y="111.32" width="58.65" height="1.55"/><rect class="cls-4" x="28.51" y="114.55" width="39.98" height="1.55"/><rect class="cls-4" x="28.51" y="120.27" width="58.65" height="1.55"/><rect class="cls-4" x="28.51" y="123.51" width="21.86" height="1.55"/><rect class="cls-4" x="28.51" y="142.73" width="58.65" height="0.78"/><rect class="cls-4" x="28.51" y="81.11" width="58.65" height="1.55"/><rect class="cls-4" x="28.51" y="84.35" width="13.12" height="1.55"/><polygon class="cls-2" points="46.05 143.57 41.48 141.19 44.06 145.64 40.35 142.07 41.57 147.08 39.02 142.61 38.78 147.75 37.59 142.74 35.91 147.61 36.18 142.47 33.2 146.66 34.9 141.81 30.86 145 33.86 140.81 29.09 142.73 33.15 139.57 28.02 140.07 32.81 138.17 27.75 137.21 32.88 136.74 28.3 134.38 33.35 135.38 29.62 131.83 34.19 134.21 31.61 129.76 35.32 133.32 34.1 128.32 36.65 132.79 36.89 127.65 38.08 132.66 39.76 127.79 39.49 132.93 42.47 128.74 40.77 133.59 44.81 130.41 41.81 134.59 46.58 132.67 42.52 135.83 47.65 135.33 42.86 137.23 47.92 138.19 42.79 138.66 47.37 141.01 42.32 140.02 46.05 143.57"/><circle class="cls-20" cx="37.83" cy="137.7" r="6.59"/><circle class="cls-21" cx="37.83" cy="137.7" r="5.47"/><circle class="cls-2" cx="37.83" cy="137.7" r="4.78"/><path class="cls-22" d="M128.65,110l101,2.55-18.87,26.84a3.19,3.19,0,0,0-.58,1.84l.65,80.15a3.17,3.17,0,0,1-3.15,3.2l-120.41-.31a3.18,3.18,0,0,1-3.16-3.86L99.39,166.7a2.82,2.82,0,0,1,.24-.69l26.05-54.26A3.21,3.21,0,0,1,128.65,110Z"/><rect class="cls-23" x="97.62" y="138.26" width="97.52" height="4.75"/><rect class="cls-24" x="84.04" y="142.12" width="124.67" height="80.14" rx="1.94"/><rect class="cls-25" x="130.03" y="195.59" width="32.69" height="22.35" rx="0.99"/><rect class="cls-25" x="91.24" y="152.77" width="110.27" height="38.07" rx="0.99"/><rect class="cls-26" x="94.59" y="157.01" width="5.17" height="5.65" rx="0.28"/><rect class="cls-26" x="94.59" y="164.99" width="7.67" height="5.65" rx="0.28"/><rect class="cls-26" x="94.59" y="172.98" width="10.36" height="5.65" rx="0.28"/><rect class="cls-26" x="94.59" y="180.96" width="5.18" height="5.65" rx="0.28"/><rect class="cls-26" x="101.35" y="180.96" width="5.18" height="5.65" rx="0.28"/><rect class="cls-26" x="108.11" y="180.96" width="5.18" height="5.65" rx="0.28"/><rect class="cls-26" x="114.87" y="180.96" width="50.87" height="5.65" rx="0.28"/><rect class="cls-26" x="106.51" y="172.98" width="5.17" height="5.65" rx="0.28"/><rect class="cls-26" x="112.76" y="172.98" width="5.17" height="5.65" rx="0.28"/><rect class="cls-26" x="119.01" y="172.98" width="5.17" height="5.65" rx="0.28"/><rect class="cls-26" x="125.26" y="172.98" width="5.17" height="5.65" rx="0.28"/><rect class="cls-26" x="131.51" y="172.98" width="5.17" height="5.65" rx="0.28"/><rect class="cls-26" x="137.76" y="172.98" width="5.17" height="5.65" rx="0.28"/><rect class="cls-26" x="144.01" y="172.98" width="5.17" height="5.65" rx="0.28"/><rect class="cls-26" x="150.27" y="172.98" width="5.17" height="5.65" rx="0.28"/><rect class="cls-26" x="156.52" y="172.98" width="5.17" height="5.65" rx="0.28"/><rect class="cls-26" x="162.77" y="172.98" width="5.17" height="5.65" rx="0.28"/><rect class="cls-26" x="167.23" y="180.96" width="5.17" height="5.65" rx="0.28"/><rect class="cls-26" x="173.63" y="180.96" width="5.17" height="5.65" rx="0.28"/><rect class="cls-26" x="186.36" y="180.37" width="5.55" height="2.82" rx="0.28"/><rect class="cls-26" x="186.36" y="183.78" width="5.55" height="2.82" rx="0.28"/><rect class="cls-26" x="180.1" y="183.78" width="5.55" height="2.82" rx="0.28"/><rect class="cls-26" x="192.61" y="183.78" width="5.55" height="2.82" rx="0.28"/><rect class="cls-26" x="169.02" y="172.98" width="5.17" height="5.65" rx="0.28"/><rect class="cls-26" x="175.27" y="172.98" width="10.38" height="5.65" rx="0.28"/><rect class="cls-26" x="188.01" y="172.98" width="10.05" height="5.65" rx="0.28"/><rect class="cls-26" x="103.76" y="164.99" width="5.17" height="5.65" rx="0.28"/><rect class="cls-26" x="110.22" y="164.99" width="5.17" height="5.65" rx="0.28"/><rect class="cls-26" x="116.68" y="164.99" width="5.17" height="5.65" rx="0.28"/><rect class="cls-26" x="123.13" y="164.99" width="5.17" height="5.65" rx="0.28"/><rect class="cls-26" x="129.59" y="164.99" width="5.17" height="5.65" rx="0.28"/><rect class="cls-26" x="136.05" y="164.99" width="5.17" height="5.65" rx="0.28"/><rect class="cls-26" x="142.51" y="164.99" width="5.17" height="5.65" rx="0.28"/><rect class="cls-26" x="148.97" y="164.99" width="5.17" height="5.65" rx="0.28"/><rect class="cls-26" x="155.43" y="164.99" width="5.17" height="5.65" rx="0.28"/><rect class="cls-26" x="161.88" y="164.99" width="5.17" height="5.65" rx="0.28"/><rect class="cls-26" x="168.34" y="164.99" width="5.17" height="5.65" rx="0.28"/><rect class="cls-26" x="174.8" y="164.99" width="5.17" height="5.65" rx="0.28"/><rect class="cls-26" x="181.26" y="164.99" width="5.17" height="5.65" rx="0.28"/><rect class="cls-26" x="187.72" y="164.99" width="10.44" height="5.65" rx="0.28"/><rect class="cls-26" x="101.06" y="157.01" width="5.17" height="5.65" rx="0.28"/><rect class="cls-26" x="107.54" y="157.01" width="5.17" height="5.65" rx="0.28"/><rect class="cls-26" x="114.01" y="157.01" width="5.17" height="5.65" rx="0.28"/><rect class="cls-26" x="120.48" y="157.01" width="5.17" height="5.65" rx="0.28"/><rect class="cls-26" x="126.95" y="157.01" width="5.17" height="5.65" rx="0.28"/><rect class="cls-26" x="133.42" y="157.01" width="5.17" height="5.65" rx="0.28"/><rect class="cls-26" x="139.9" y="157.01" width="5.17" height="5.65" rx="0.28"/><rect class="cls-26" x="146.37" y="157.01" width="5.17" height="5.65" rx="0.28"/><rect class="cls-26" x="152.84" y="157.01" width="5.17" height="5.65" rx="0.28"/><rect class="cls-26" x="159.31" y="157.01" width="5.17" height="5.65" rx="0.28"/><rect class="cls-26" x="165.79" y="157.01" width="5.17" height="5.65" rx="0.28"/><rect class="cls-26" x="172.26" y="157.01" width="5.17" height="5.65" rx="0.28"/><rect class="cls-26" x="178.73" y="157.01" width="5.17" height="5.65" rx="0.28"/><rect class="cls-26" x="185.2" y="157.01" width="5.17" height="5.65" rx="0.28"/><rect class="cls-26" x="191.84" y="157.01" width="6.21" height="5.65" rx="0.28"/><path class="cls-24" d="M205,138.5H87.71a3,3,0,0,1-2.87-2.5L77.33,94.58a3.05,3.05,0,0,1,2.87-3.67H212.55a3,3,0,0,1,2.87,3.67L207.86,136A3,3,0,0,1,205,138.5Z"/><polygon class="cls-25" points="211.53 94.66 81.22 94.66 88.99 136.37 203.76 136.37 211.53 94.66"/><polygon class="cls-27" points="112.31 109.17 89.75 109.17 89.26 106.12 112.02 106.12 112.31 109.17"/><polygon class="cls-28" points="112.97 115.91 90.83 115.91 90.34 112.86 112.67 112.86 112.97 115.91"/><polygon class="cls-27" points="135.23 115.91 114.13 115.91 113.84 112.86 135.12 112.86 135.23 115.91"/><polygon class="cls-27" points="135.44 121.95 114.7 121.95 114.42 118.9 135.34 118.9 135.44 121.95"/><polygon class="cls-27" points="135.56 125.19 115.01 125.19 114.72 122.13 135.45 122.13 135.56 125.19"/><polygon class="cls-27" points="135.79 131.66 115.63 131.66 115.33 128.61 135.68 128.61 135.79 131.66"/><polygon class="cls-28" points="156.44 115.91 136.37 115.91 136.27 112.86 156.52 112.86 156.44 115.91"/><polygon class="cls-27" points="179.74 115.91 157.6 115.91 157.68 112.86 180.01 112.86 179.74 115.91"/><polygon class="cls-27" points="179.22 121.74 157.44 121.74 157.52 118.68 179.49 118.68 179.22 121.74"/><polygon class="cls-27" points="178.23 132.69 157.14 132.69 157.44 121.7 179.22 121.7 178.23 132.69"/><polygon class="cls-28" points="202 115.91 180.89 115.91 181.18 112.86 202.46 112.86 202 115.91"/><ellipse class="cls-29" cx="89.02" cy="99.98" rx="2.51" ry="1.2"/><ellipse class="cls-30" cx="98.54" cy="100.19" rx="2.51" ry="1.2"/><ellipse class="cls-31" cx="108.05" cy="100.4" rx="2.51" ry="1.2"/></svg>