<svg id="Layer_1" data-name="Layer 1" xmlns="http://www.w3.org/2000/svg" viewBox="0 0 150 150"><defs><style>.cls-1{fill:#28a79a;}.cls-2{fill:#106a5c;}.cls-3{fill:#141522;}.cls-4{fill:#2c3d51;}.cls-5{fill:#4e4f5e;}.cls-6{fill:#f1f1f1;}.cls-7{fill:#6fbec7;}.cls-8{fill:#2881bc;}.cls-9{fill:#dbe2e9;}.cls-10{fill:#965ba5;}.cls-11{fill:#94a5a6;}.cls-12{fill:#fecc0e;}.cls-13{fill:#7392cb;}.cls-14{fill:#ebf0f2;}.cls-15{fill:#d85827;}.cls-16{fill:#cdebf5;}.cls-17{fill:#8bc0b9;}.cls-18{fill:#696968;}.cls-19{fill:#929291;}.cls-20,.cls-21{fill:none;stroke-linecap:round;stroke-miterlimit:10;}.cls-20{stroke:#fff;stroke-width:0.37px;}.cls-21{stroke:#8ec2bb;stroke-width:0.31px;}</style></defs><rect class="cls-1" x="1.97" y="2.21" width="146.06" height="145.59"/><polygon class="cls-2" points="148.03 58.76 129.33 40.24 23.06 100.79 70.46 147.79 148.03 147.79 148.03 58.76"/><polygon class="cls-1" points="129.33 40.24 148.03 58.76 148.03 2.21 1.97 2.21 1.97 147.79 70.46 147.79 23.06 100.79 129.33 40.24"/><rect class="cls-3" x="52.54" y="84.75" width="21.21" height="22.09"/><path class="cls-4" d="M43.88,105.46H82.41a3.3,3.3,0,0,1,3.3,3.3v.92a0,0,0,0,1,0,0H40.58a0,0,0,0,1,0,0v-.92A3.3,3.3,0,0,1,43.88,105.46Z"/><path class="cls-4" d="M131.74,45.11a6.91,6.91,0,0,0-6.91-6.92h-23.2l30.11,30.14Z"/><path class="cls-3" d="M104.16,38.19h-2.83A6.33,6.33,0,0,0,95,44.52v58.83a6.33,6.33,0,0,0,6.33,6.33h24.08a6.32,6.32,0,0,0,6.33-6.33V65.77Z"/><rect class="cls-5" x="107.63" y="69.12" width="14.28" height="2.92"/><rect class="cls-5" x="107.63" y="76.38" width="14.28" height="2.92"/><rect class="cls-5" x="107.63" y="83.64" width="14.28" height="2.92"/><rect class="cls-5" x="107" y="47.5" width="17.75" height="9" rx="2.11"/><circle class="cls-6" cx="113.14" cy="98.71" r="4.58"/><circle class="cls-3" cx="113.14" cy="98.71" r="3.26"/><rect class="cls-4" x="17.36" y="37.92" width="91.56" height="59.89" rx="5.34"/><rect class="cls-7" x="20.92" y="42.09" width="84.44" height="51.81" rx="2.64"/><rect class="cls-8" x="33.11" y="47.58" width="60.08" height="7.15"/><rect class="cls-9" x="33.11" y="52.95" width="60.08" height="35.46"/><circle class="cls-10" cx="48.68" cy="62.78" r="1.53"/><rect class="cls-11" x="53.04" y="62" width="22.88" height="1.79"/><circle class="cls-12" cx="48.68" cy="70.68" r="1.53"/><rect class="cls-11" x="53.04" y="69.89" width="24.7" height="1.79"/><circle class="cls-13" cx="48.68" cy="78.57" r="1.53"/><rect class="cls-11" x="53.04" y="77.78" width="19.19" height="1.79"/><circle class="cls-14" cx="63.14" cy="95.52" r="1.38"/><rect class="cls-15" x="12.07" y="92.47" width="33.37" height="44.76" rx="1.71" transform="translate(-27.07 10.44) rotate(-14.08)"/><rect class="cls-16" x="15.22" y="95.69" width="26.69" height="36.79" transform="translate(-27.56 10.73) rotate(-14.45)"/><path class="cls-17" d="M15.94,94.6l14.31-3.66a1.78,1.78,0,0,1,2.17,1.29l.84,3.28h0l-17.74,4.54h0l-.84-3.27A1.79,1.79,0,0,1,15.94,94.6Z"/><path class="cls-18" d="M24.43,88.46a.9.9,0,0,0-1.09-.65l-3,.77h0a.9.9,0,0,0-.67,1.08l1.05,4,4.73-1.23Zm-.61,2.2A1.38,1.38,0,1,1,22.71,89,1.39,1.39,0,0,1,23.82,90.66Z"/><path class="cls-19" d="M15.93,94.08,30,90.48a1.9,1.9,0,0,1,2.32,1.37L33.14,95h0L15.39,99.56h0l-.81-3.17A1.9,1.9,0,0,1,15.93,94.08Z"/><circle class="cls-15" cx="18.72" cy="107.9" r="2.99"/><polyline class="cls-20" points="17.46 108.36 18.69 108.99 19.51 106.38"/><circle class="cls-15" cx="21" cy="116.83" r="2.99"/><polyline class="cls-20" points="19.74 117.29 20.98 117.93 21.79 115.31"/><circle class="cls-15" cx="23.27" cy="125.77" r="2.99"/><polyline class="cls-20" points="22.02 126.23 23.26 126.87 24.07 124.25"/><line class="cls-21" x1="22.98" y1="105.06" x2="36.25" y2="101.67"/><line class="cls-21" x1="23.38" y1="106.67" x2="36.66" y2="103.28"/><line class="cls-21" x1="23.8" y1="108.28" x2="32.01" y2="106.18"/><line class="cls-21" x1="25.27" y1="114.06" x2="38.55" y2="110.67"/><line class="cls-21" x1="25.68" y1="115.67" x2="34.02" y2="113.54"/><line class="cls-21" x1="27.57" y1="123.06" x2="40.85" y2="119.68"/><line class="cls-21" x1="27.98" y1="124.67" x2="41.26" y2="121.28"/></svg>