<svg id="Layer_1" data-name="Layer 1" xmlns="http://www.w3.org/2000/svg" viewBox="0 0 150 150"><defs><style>.cls-1{fill:#fcb03c;}.cls-2{fill:#e1a243;}.cls-3{fill:#0b73ba;}.cls-4{fill:#2d5276;}.cls-5{fill:#fff;}.cls-6{fill:#b3b4b4;}.cls-7{fill:#bbe2f8;}.cls-8{fill:#f5f6f7;}.cls-9{fill:#fbca84;}.cls-10{fill:#c8c6c7;}.cls-11{fill:#b8b6b6;}.cls-12{fill:#cdcccc;}.cls-13{fill:#a6d6f0;}.cls-14{fill:#a8d7f1;}.cls-15{fill:#999;}</style></defs><rect class="cls-1" x="1.16" y="8.54" width="147.68" height="132.91"/><path class="cls-1" d="M110.91,24.76s19.52,12.58,37.93,24.48V8.54H1.16V141.46H62.73L38.41,125.77Z"/><path class="cls-2" d="M148.84,49.24c-18.41-11.9-37.93-24.48-37.93-24.48l-72.5,101,24.32,15.69h86.11Z"/><rect class="cls-3" x="39.09" y="24.76" width="71.81" height="101.64"/><polygon class="cls-4" points="106.83 31.67 44.07 31.67 44.07 124.51 100.03 124.51 106.83 116.03 106.83 31.67"/><polygon class="cls-5" points="105.91 115.16 105.93 115.13 105.93 30.77 99.18 30.77 99.18 115.16 105.91 115.16"/><rect class="cls-5" x="43.17" y="30.77" width="56.01" height="84.39"/><polygon class="cls-6" points="99.18 115.16 99.18 123.55 105.91 115.16 99.18 115.16"/><polygon class="cls-5" points="43.17 115.16 43.17 123.61 99.13 123.61 99.18 123.55 99.18 115.16 43.17 115.16"/><rect class="cls-7" x="47.19" y="35.55" width="55.38" height="4.56"/><rect class="cls-8" x="47.19" y="38.91" width="55.38" height="34.75"/><rect class="cls-7" x="48.81" y="79.85" width="23.78" height="3.99"/><rect class="cls-8" x="48.81" y="82.79" width="23.78" height="30.39"/><rect class="cls-9" x="53.16" y="41.95" width="16.94" height="24.43"/><rect class="cls-10" x="53.16" y="69.48" width="43.6" height="0.75"/><rect class="cls-10" x="53.16" y="70.96" width="43.6" height="0.75"/><rect class="cls-11" x="54.64" y="85.01" width="12.13" height="0.75"/><rect class="cls-11" x="54.64" y="92.77" width="12.13" height="0.75"/><rect class="cls-11" x="49.96" y="88.01" width="21.48" height="0.75"/><rect class="cls-11" x="49.96" y="90.13" width="21.48" height="0.75"/><rect class="cls-11" x="49.96" y="95.4" width="21.48" height="0.75"/><rect class="cls-11" x="49.96" y="97.51" width="21.48" height="0.75"/><rect class="cls-11" x="49.96" y="99.52" width="21.48" height="0.75"/><rect class="cls-11" x="54.64" y="102.1" width="12.13" height="0.75"/><rect class="cls-11" x="49.96" y="105.1" width="21.48" height="0.75"/><rect class="cls-11" x="49.96" y="107.22" width="21.48" height="0.75"/><rect class="cls-11" x="49.96" y="109.39" width="21.48" height="1.76"/><rect class="cls-12" x="74.55" y="41.95" width="23.46" height="10.09"/><rect class="cls-13" x="74.55" y="56.29" width="23.46" height="10.09"/><rect class="cls-8" x="77.22" y="79.74" width="24.65" height="33.45"/><rect class="cls-11" x="78.81" y="81.54" width="21.48" height="0.75"/><rect class="cls-11" x="78.81" y="83.82" width="21.48" height="0.75"/><rect class="cls-11" x="78.81" y="105.86" width="21.48" height="0.75"/><rect class="cls-11" x="78.81" y="108.25" width="21.48" height="0.75"/><rect class="cls-11" x="78.81" y="110.64" width="21.48" height="0.75"/><rect class="cls-14" x="80.81" y="86.69" width="17.48" height="17.48"/><path class="cls-15" d="M58.95,28.09H90.8a5.36,5.36,0,0,1,5.36,5.36v0a0,0,0,0,1,0,0H53.59a0,0,0,0,1,0,0v0a5.36,5.36,0,0,1,5.36-5.36Z"/><path class="cls-15" d="M74.88,24.89a3.7,3.7,0,1,0,3.69,3.69A3.7,3.7,0,0,0,74.88,24.89Zm0,5.55a1.86,1.86,0,1,1,1.85-1.86A1.86,1.86,0,0,1,74.88,30.44Z"/></svg>