<svg id="Layer_1" data-name="Layer 1" xmlns="http://www.w3.org/2000/svg" viewBox="0 0 150 150"><defs><style>.cls-1{fill:#262626;}.cls-2{fill:#e58279;}.cls-3{fill:#4d4d4d;}.cls-4{fill:#cc9860;}.cls-5{fill:#cca279;}.cls-6{fill:none;}.cls-7{fill:#f4e2c2;}.cls-8{fill:#423733;}.cls-9{fill:#fff;}.cls-10{fill:#6c6d6d;}.cls-11{fill:#a2a3a2;}</style></defs><polygon class="cls-1" points="137.63 140.01 136.37 140.01 136.37 142.21 136.37 142.6 139.54 142.21 143.94 141.35 137.63 140.01"/><path class="cls-2" d="M8.14,137.7a2,2,0,0,0-2.08,1.89v3.23a2,2,0,0,0,2.08,1.88h3.44v-7Z"/><polygon class="cls-3" points="13.76 137.7 13.76 140.01 13.76 142.21 13.76 144.71 16.4 144.71 16.4 142.21 16.4 140.01 16.4 137.7 13.76 137.7"/><polygon class="cls-3" points="11.09 137.7 11.09 140.01 11.09 142.21 11.09 144.71 13.04 144.71 13.04 142.21 13.04 140.01 13.04 137.7 11.09 137.7"/><rect class="cls-4" x="15.99" y="141.54" width="110.56" height="3.17"/><rect class="cls-5" x="15.99" y="139.41" width="110.56" height="2.8"/><rect class="cls-4" x="12.64" y="137.7" width="1.55" height="2.81"/><rect class="cls-4" x="12.64" y="141.62" width="1.55" height="3.09"/><rect class="cls-4" x="15.99" y="137.7" width="110.56" height="2.31"/><rect class="cls-5" x="12.64" y="140.01" width="1.55" height="2.19"/><polygon class="cls-6" points="137.63 140.01 137.52 139.99 137.52 140.01 137.63 140.01"/><polygon class="cls-7" points="126.48 137.7 126.32 137.7 126.32 140.01 126.32 140.48 126.32 142.02 126.32 142.21 126.32 144.71 126.48 144.71 137.52 142.6 137.52 142.21 137.52 142.02 137.52 140.48 137.52 140.01 137.52 139.99 126.48 137.7"/><rect class="cls-8" x="30.03" y="5.3" width="89.94" height="119.68" rx="5.15"/><rect class="cls-9" x="33.52" y="17.03" width="82.97" height="98.22"/><rect class="cls-10" x="36.86" y="23.3" width="54.86" height="1.11"/><rect class="cls-10" x="36.86" y="29.19" width="77.02" height="1.11"/><rect class="cls-10" x="36.86" y="35.08" width="40.46" height="1.11"/><rect class="cls-10" x="36.86" y="40.96" width="67.05" height="1.11"/><rect class="cls-10" x="36.86" y="46.85" width="33.82" height="1.11"/><rect class="cls-10" x="36.86" y="52.74" width="60.96" height="1.11"/><rect class="cls-10" x="36.86" y="58.63" width="67.05" height="1.11"/><rect class="cls-10" x="36.86" y="64.52" width="75.36" height="1.11"/><rect class="cls-10" x="36.86" y="70.4" width="64.28" height="1.11"/><rect class="cls-10" x="36.86" y="76.29" width="76.46" height="1.11"/><rect class="cls-10" x="36.86" y="82.18" width="24.96" height="1.11"/><rect class="cls-10" x="36.86" y="88.07" width="71.48" height="1.11"/><rect class="cls-10" x="36.86" y="93.96" width="53.76" height="1.11"/><rect class="cls-10" x="36.86" y="99.84" width="22.74" height="1.11"/><polygon class="cls-11" points="90.89 13.62 90.89 16.48 87.41 16.48 87.41 13.62 64.75 13.62 64.75 16.48 61.27 16.48 61.27 13.62 57.7 13.62 57.7 19.06 94.28 19.06 94.28 13.62 90.89 13.62"/><path class="cls-11" d="M81,13.86c0-2-2.24-3.7-5-3.7s-5,1.66-5,3.7A.71.71,0,0,0,71,14H81C81,14,81,13.9,81,13.86Z"/></svg>