<svg xmlns="http://www.w3.org/2000/svg" xmlns:xlink="http://www.w3.org/1999/xlink" viewBox="0 0 150 150"><defs><style>.cls-1{mask:url(#mask);filter:url(#luminosity-noclip-2);}.cls-10,.cls-2{mix-blend-mode:multiply;}.cls-2{fill:url(#linear-gradient);}.cls-3{isolation:isolate;}.cls-4{fill:#d19656;mix-blend-mode:soft-light;}.cls-10,.cls-13,.cls-14,.cls-15,.cls-5{fill:#232323;}.cls-5{opacity:0.57;}.cls-18,.cls-6{fill:#fff;}.cls-7{fill:#d8d8d8;}.cls-8{fill:#66461b;}.cls-9{fill:#6f532a;}.cls-10{opacity:0.16;}.cls-11{fill:#0c0c0c;}.cls-12{opacity:0.11;}.cls-14,.cls-17{opacity:0.13;}.cls-15,.cls-18{opacity:0.32;}.cls-16{fill:url(#linear-gradient-2);}.cls-17{fill:#8e8e8e;}.cls-19{opacity:0.33;}.cls-20{fill:url(#radial-gradient);}.cls-21,.cls-26{fill:#b3b3b3;mix-blend-mode:darken;}.cls-21{opacity:0.82;}.cls-22{fill:#e2e2e2;}.cls-23{fill:url(#radial-gradient-2);}.cls-24{opacity:0.35;}.cls-25{fill:#333;}.cls-26{opacity:0.78;}.cls-27{fill:#636363;mix-blend-mode:screen;opacity:0.19;}.cls-28{fill:url(#radial-gradient-3);}.cls-29{fill:#494949;}.cls-30{mask:url(#mask-2);}.cls-31{opacity:0.05;fill:url(#linear-gradient-3);}.cls-32{filter:url(#luminosity-noclip);}</style><filter id="luminosity-noclip" x="34.25" y="-8471.09" width="63.18" height="32766" filterUnits="userSpaceOnUse" color-interpolation-filters="sRGB"><feFlood flood-color="#fff" result="bg"/><feBlend in="SourceGraphic" in2="bg"/></filter><mask id="mask" x="34.25" y="-8471.09" width="63.18" height="32766" maskUnits="userSpaceOnUse"><g class="cls-32"/></mask><linearGradient id="linear-gradient" x1="81.23" y1="37.41" x2="55.65" y2="58.75" gradientUnits="userSpaceOnUse"><stop offset="0" stop-color="#fff"/><stop offset="0.11" stop-color="#fafafa"/><stop offset="0.23" stop-color="#ececec"/><stop offset="0.36" stop-color="#d5d5d5"/><stop offset="0.5" stop-color="#b5b5b5"/><stop offset="0.64" stop-color="#8c8c8c"/><stop offset="0.79" stop-color="#595959"/><stop offset="0.93" stop-color="#1f1f1f"/><stop offset="1"/></linearGradient><linearGradient id="linear-gradient-2" x1="112.56" y1="103.76" x2="119.06" y2="91.85" gradientUnits="userSpaceOnUse"><stop offset="0" stop-color="#e6e6e6"/><stop offset="0.32" stop-color="#eaeaea"/><stop offset="0.54" stop-color="#f1f1f1"/><stop offset="0.92" stop-color="#f2f2f2"/><stop offset="1" stop-color="#e6e6e6"/></linearGradient><radialGradient id="radial-gradient" cx="81.92" cy="92.21" r="62.14" gradientUnits="userSpaceOnUse"><stop offset="0" stop-color="#e6e6e6"/><stop offset="0.58" stop-color="#d8d8d8"/><stop offset="0.98" stop-color="#ccc"/></radialGradient><radialGradient id="radial-gradient-2" cx="43.78" cy="76.35" r="49.84" xlink:href="#radial-gradient"/><radialGradient id="radial-gradient-3" cx="59.16" cy="52.01" r="30.45" xlink:href="#radial-gradient"/><filter id="luminosity-noclip-2" x="34.25" y="40.42" width="63.18" height="24.14" filterUnits="userSpaceOnUse" color-interpolation-filters="sRGB"><feFlood flood-color="#fff" result="bg"/><feBlend in="SourceGraphic" in2="bg"/></filter><mask id="mask-2" x="34.25" y="40.42" width="63.18" height="24.14" maskUnits="userSpaceOnUse"><g class="cls-1"><path class="cls-2" d="M34.25,40.53H95.79s2.14-.84,1.53,2.1-5.39,21.93-5.39,21.93-.26,0-4,0-13.54,0-13.54,0C70.84,54.38,61.29,46.37,34.25,40.53Z"/></g></mask><linearGradient id="linear-gradient-3" x1="81.23" y1="37.41" x2="55.65" y2="58.75" gradientUnits="userSpaceOnUse"><stop offset="0" stop-color="#f2f2f2"/><stop offset="0.57" stop-color="#f7f7f7"/><stop offset="1" stop-color="#fff"/></linearGradient></defs><g class="cls-3"><g id="Layer_1" data-name="Layer 1"><rect class="cls-4" x="1.87" y="29.29" width="146.26" height="91.41"/><ellipse class="cls-5" cx="116.01" cy="70.8" rx="9.39" ry="9.28"/><ellipse class="cls-6" cx="115.32" cy="70.26" rx="9.39" ry="9.28"/><ellipse class="cls-7" cx="115.46" cy="70.39" rx="9.25" ry="9.16"/><path class="cls-5" d="M125.26,69.34h-1.73a7.63,7.63,0,0,0-7.6-5.41c-4.31,0-7.79,3.08-7.79,6.88s3.48,6.88,7.79,6.88a7.63,7.63,0,0,0,7.6-5.41h1.73a1.11,1.11,0,0,0,1.13-1.09v-.76A1.11,1.11,0,0,0,125.26,69.34Z"/><path class="cls-6" d="M115.32,63.25a7,7,0,1,0,7,8.27h3a.58.58,0,0,0,.58-.57V69.64a.58.58,0,0,0-.58-.58h-3A7.11,7.11,0,0,0,115.32,63.25Z"/><ellipse class="cls-8" cx="115.32" cy="70.26" rx="6.21" ry="6.14"/><ellipse class="cls-9" cx="115.87" cy="70.93" rx="5.67" ry="5.48"/><rect class="cls-10" x="102.63" y="88.51" width="28.13" height="20.31" rx="2.54"/><rect class="cls-11" x="101.92" y="87.8" width="28.13" height="20.31" rx="2.54"/><g class="cls-12"><path class="cls-13" d="M120.34,95.1a6.43,6.43,0,0,0-.81-3.68c-.62-1.12-3-.94-3-.94s-2.38-.18-3,.94a6.43,6.43,0,0,0-.81,3.68c0,1.78-.09,5.7,0,6.35s.19,2.33,1,3.08a3,3,0,0,0,2.19.84h1.23a3,3,0,0,0,2.19-.84c.81-.75.9-2.43,1-3.08S120.34,96.88,120.34,95.1Z"/><path class="cls-14" d="M116.54,105.37h.61a3,3,0,0,0,2.19-.84c.81-.75.9-2.43,1-3.08s0-4.57,0-6.35a6.43,6.43,0,0,0-.81-3.68c-.62-1.12-3-.94-3-.94"/><path class="cls-15" d="M114.7,90.75s4,3.19,4.83,4.92a13.81,13.81,0,0,1,.87,4.52s.14-6.63-.43-7.74S119.56,90,114.7,90.75Z"/></g><path class="cls-16" d="M119.73,94.8a6.45,6.45,0,0,0-.81-3.69c-.62-1.12-3-.93-3-.93s-2.38-.19-3,.93a6.53,6.53,0,0,0-.8,3.69c0,1.77-.1,5.69,0,6.34s.19,2.34,1,3.08a3,3,0,0,0,2.19.84h1.23a3,3,0,0,0,2.19-.84c.81-.74.9-2.42,1-3.08S119.73,96.57,119.73,94.8Z"/><path class="cls-17" d="M115.93,105.06h.61a3,3,0,0,0,2.19-.84c.81-.74.9-2.42,1-3.08s0-4.57,0-6.34a6.45,6.45,0,0,0-.81-3.69c-.62-1.12-3-.93-3-.93"/><path class="cls-18" d="M114.09,90.44s4,3.2,4.83,4.93a13.73,13.73,0,0,1,.87,4.51s.15-6.62-.43-7.74S119,89.72,114.09,90.44Z"/><g class="cls-19"><path class="cls-13" d="M92.83,65.76h-65a2.59,2.59,0,0,0-2.6,2.6V107a2.6,2.6,0,0,0,2.6,2.6H55.37a.86.86,0,0,1,.86-.74h8.2a.86.86,0,0,1,.86.74H92.83a2.61,2.61,0,0,0,2.61-2.6V68.36A2.6,2.6,0,0,0,92.83,65.76Z"/></g><path class="cls-20" d="M91.71,64.74h-65a2.61,2.61,0,0,0-2.61,2.6V106a2.61,2.61,0,0,0,2.61,2.61H54.25a.88.88,0,0,1,.86-.75h8.21a.88.88,0,0,1,.86.75H91.71A2.61,2.61,0,0,0,94.32,106V67.34A2.61,2.61,0,0,0,91.71,64.74Z"/><rect class="cls-21" x="50.21" y="89.56" width="17.89" height="14.9" rx="1.12"/><rect class="cls-22" x="50.21" y="89.94" width="17.62" height="14.73" rx="1.12"/><rect class="cls-23" x="33.58" y="68.98" width="50.49" height="18.46"/><g class="cls-24"><rect class="cls-25" x="34.35" y="69.94" width="3.08" height="1.35" rx="0.34"/><rect class="cls-25" x="37.9" y="69.94" width="3.08" height="1.35" rx="0.34"/><rect class="cls-25" x="41.46" y="69.94" width="3.08" height="1.35" rx="0.34"/><rect class="cls-25" x="44.92" y="69.94" width="3.08" height="1.35" rx="0.34"/><rect class="cls-25" x="48.48" y="69.94" width="3.08" height="1.35" rx="0.34"/><rect class="cls-25" x="52.04" y="69.94" width="3.08" height="1.35" rx="0.34"/><rect class="cls-25" x="55.6" y="69.94" width="3.08" height="1.35" rx="0.34"/><rect class="cls-25" x="59.16" y="69.94" width="3.08" height="1.35" rx="0.34"/><rect class="cls-25" x="62.71" y="69.94" width="3.08" height="1.35" rx="0.34"/><rect class="cls-25" x="66.18" y="69.94" width="3.08" height="1.35" rx="0.34"/><rect class="cls-25" x="69.73" y="69.94" width="3.08" height="1.35" rx="0.34"/><rect class="cls-25" x="73.29" y="69.94" width="3.08" height="1.35" rx="0.34"/><rect class="cls-25" x="76.85" y="69.94" width="3.08" height="1.35" rx="0.34"/><rect class="cls-25" x="80.41" y="69.94" width="3.08" height="1.35" rx="0.34"/></g><g class="cls-24"><rect class="cls-25" x="75.36" y="71.88" width="2.99" height="2.49" rx="0.34"/><rect class="cls-25" x="71.97" y="71.87" width="3.02" height="2.51" rx="0.34"/><rect class="cls-25" x="68.57" y="71.87" width="3.02" height="2.51" rx="0.34"/><rect class="cls-25" x="65.17" y="71.87" width="3.02" height="2.51" rx="0.34"/><rect class="cls-25" x="61.81" y="71.88" width="2.99" height="2.49" rx="0.34"/><rect class="cls-25" x="58.42" y="71.87" width="3.02" height="2.51" rx="0.34"/><rect class="cls-25" x="55.02" y="71.87" width="3.02" height="2.51" rx="0.34"/><rect class="cls-25" x="51.63" y="71.87" width="3.02" height="2.51" rx="0.34"/><rect class="cls-25" x="48.27" y="71.88" width="2.99" height="2.49" rx="0.34"/><rect class="cls-25" x="44.78" y="71.87" width="3.02" height="2.51" rx="0.34"/><rect class="cls-25" x="41.29" y="71.87" width="3.02" height="2.51" rx="0.34"/><rect class="cls-25" x="37.8" y="71.87" width="3.02" height="2.51" rx="0.34"/><rect class="cls-25" x="34.35" y="71.87" width="3.02" height="2.51" rx="0.34"/><rect class="cls-25" x="78.81" y="71.88" width="4.67" height="2.49" rx="0.34"/></g><g class="cls-24"><rect class="cls-25" x="34.29" y="74.96" width="4.67" height="2.49" rx="0.34"/><rect class="cls-25" x="80.45" y="74.96" width="2.99" height="2.49" rx="0.34"/><rect class="cls-25" x="77.06" y="74.94" width="3.02" height="2.51" rx="0.34"/><rect class="cls-25" x="73.67" y="74.94" width="3.02" height="2.51" rx="0.34"/><rect class="cls-25" x="70.27" y="74.94" width="3.02" height="2.51" rx="0.34"/><rect class="cls-25" x="66.91" y="74.96" width="2.99" height="2.49" rx="0.34"/><rect class="cls-25" x="63.52" y="74.94" width="3.02" height="2.51" rx="0.34"/><rect class="cls-25" x="60.12" y="74.94" width="3.02" height="2.51" rx="0.34"/><rect class="cls-25" x="56.72" y="74.94" width="3.02" height="2.51" rx="0.34"/><rect class="cls-25" x="53.36" y="74.96" width="2.99" height="2.49" rx="0.34"/><rect class="cls-25" x="49.88" y="74.94" width="3.02" height="2.51" rx="0.34"/><rect class="cls-25" x="46.39" y="74.94" width="3.02" height="2.51" rx="0.34"/><rect class="cls-25" x="42.9" y="74.94" width="3.02" height="2.51" rx="0.34"/><rect class="cls-25" x="39.44" y="74.94" width="3.02" height="2.51" rx="0.34"/></g><g class="cls-24"><rect class="cls-25" x="76.27" y="81.11" width="7.21" height="2.49" rx="0.34"/><rect class="cls-25" x="34.35" y="81.11" width="7.12" height="2.49" rx="0.34"/><rect class="cls-25" x="72.77" y="81.1" width="3.02" height="2.51" rx="0.34"/><rect class="cls-25" x="69.41" y="81.11" width="2.99" height="2.49" rx="0.34"/><rect class="cls-25" x="66.02" y="81.1" width="3.02" height="2.51" rx="0.34"/><rect class="cls-25" x="62.62" y="81.1" width="3.02" height="2.51" rx="0.34"/><rect class="cls-25" x="59.23" y="81.1" width="3.02" height="2.51" rx="0.34"/><rect class="cls-25" x="55.86" y="81.11" width="2.99" height="2.49" rx="0.34"/><rect class="cls-25" x="52.38" y="81.1" width="3.02" height="2.51" rx="0.34"/><rect class="cls-25" x="48.89" y="81.1" width="3.02" height="2.51" rx="0.34"/><rect class="cls-25" x="45.4" y="81.1" width="3.02" height="2.51" rx="0.34"/><rect class="cls-25" x="41.94" y="81.1" width="3.02" height="2.51" rx="0.34"/></g><g class="cls-24"><rect class="cls-25" x="44.68" y="84.18" width="3.02" height="2.51" rx="0.34"/><rect class="cls-25" x="48.24" y="84.18" width="15.34" height="2.51" rx="0.34"/><rect class="cls-25" x="41.2" y="84.18" width="3.02" height="2.51" rx="0.34"/><rect class="cls-25" x="37.71" y="84.18" width="3.02" height="2.51" rx="0.34"/><rect class="cls-25" x="68.92" y="84.18" width="3.02" height="2.51" rx="0.34"/><rect class="cls-25" x="72.38" y="85.52" width="3.37" height="1.17" rx="0.34"/><rect class="cls-25" x="76.25" y="85.52" width="3.37" height="1.15" rx="0.34"/><rect class="cls-25" x="76.25" y="84.18" width="3.37" height="1.25" rx="0.34"/><rect class="cls-25" x="80.11" y="85.52" width="3.37" height="1.17" rx="0.34"/><rect class="cls-25" x="64.15" y="84.18" width="4.24" height="2.51" rx="0.34"/><rect class="cls-25" x="34.25" y="84.18" width="3.02" height="2.51" rx="0.34"/></g><g class="cls-24"><rect class="cls-25" x="34.39" y="78.03" width="5.44" height="2.49" rx="0.34"/><rect class="cls-25" x="78" y="78.03" width="5.48" height="2.49" rx="0.34"/><rect class="cls-25" x="74.53" y="78.02" width="3.02" height="2.51" rx="0.34"/><rect class="cls-25" x="71.14" y="78.02" width="3.02" height="2.51" rx="0.34"/><rect class="cls-25" x="67.77" y="78.03" width="2.99" height="2.49" rx="0.34"/><rect class="cls-25" x="64.38" y="78.02" width="3.02" height="2.51" rx="0.34"/><rect class="cls-25" x="60.99" y="78.02" width="3.02" height="2.51" rx="0.34"/><rect class="cls-25" x="57.59" y="78.02" width="3.02" height="2.51" rx="0.34"/><rect class="cls-25" x="54.23" y="78.03" width="2.99" height="2.49" rx="0.34"/><rect class="cls-25" x="50.74" y="78.02" width="3.02" height="2.51" rx="0.34"/><rect class="cls-25" x="47.25" y="78.02" width="3.02" height="2.51" rx="0.34"/><rect class="cls-25" x="43.76" y="78.02" width="3.02" height="2.51" rx="0.34"/><rect class="cls-25" x="40.31" y="78.02" width="3.02" height="2.51" rx="0.34"/></g><rect class="cls-26" x="33.56" y="68.94" width="50.69" height="18.55" rx="1.12"/><rect class="cls-22" x="33.56" y="69.21" width="50.48" height="18.08" rx="1.12"/><rect class="cls-11" x="34.25" y="69.75" width="3.08" height="1.35" rx="0.34"/><rect class="cls-11" x="37.81" y="69.75" width="3.08" height="1.35" rx="0.34"/><rect class="cls-11" x="41.37" y="69.75" width="3.08" height="1.35" rx="0.34"/><rect class="cls-11" x="44.83" y="69.75" width="3.08" height="1.35" rx="0.34"/><rect class="cls-11" x="48.39" y="69.75" width="3.08" height="1.35" rx="0.34"/><rect class="cls-11" x="51.94" y="69.75" width="3.08" height="1.35" rx="0.34"/><rect class="cls-11" x="55.5" y="69.75" width="3.08" height="1.35" rx="0.34"/><rect class="cls-11" x="59.06" y="69.75" width="3.08" height="1.35" rx="0.34"/><rect class="cls-11" x="62.62" y="69.75" width="3.08" height="1.35" rx="0.34"/><rect class="cls-11" x="66.08" y="69.75" width="3.08" height="1.35" rx="0.34"/><rect class="cls-11" x="69.64" y="69.75" width="3.08" height="1.35" rx="0.34"/><rect class="cls-11" x="73.2" y="69.75" width="3.08" height="1.35" rx="0.34"/><rect class="cls-11" x="76.75" y="69.75" width="3.08" height="1.35" rx="0.34"/><rect class="cls-11" x="80.31" y="69.75" width="3.08" height="1.35" rx="0.34"/><rect class="cls-11" x="75.26" y="71.69" width="2.99" height="2.49" rx="0.34"/><rect class="cls-11" x="71.87" y="71.67" width="3.02" height="2.51" rx="0.34"/><rect class="cls-11" x="68.47" y="71.67" width="3.02" height="2.51" rx="0.34"/><rect class="cls-11" x="65.08" y="71.67" width="3.02" height="2.51" rx="0.34"/><rect class="cls-11" x="61.72" y="71.69" width="2.99" height="2.49" rx="0.34"/><rect class="cls-11" x="58.32" y="71.67" width="3.02" height="2.51" rx="0.34"/><rect class="cls-11" x="54.93" y="71.67" width="3.02" height="2.51" rx="0.34"/><rect class="cls-11" x="51.53" y="71.67" width="3.02" height="2.51" rx="0.34"/><rect class="cls-11" x="48.17" y="71.69" width="2.99" height="2.49" rx="0.34"/><rect class="cls-11" x="44.68" y="71.67" width="3.02" height="2.51" rx="0.34"/><rect class="cls-11" x="41.2" y="71.67" width="3.02" height="2.51" rx="0.34"/><rect class="cls-11" x="37.71" y="71.67" width="3.02" height="2.51" rx="0.34"/><rect class="cls-11" x="34.25" y="71.67" width="3.02" height="2.51" rx="0.34"/><rect class="cls-11" x="78.72" y="71.69" width="4.67" height="2.49" rx="0.34"/><rect class="cls-11" x="34.19" y="74.76" width="4.67" height="2.49" rx="0.34"/><rect class="cls-11" x="80.36" y="74.76" width="2.99" height="2.49" rx="0.34"/><rect class="cls-11" x="76.97" y="74.75" width="3.02" height="2.51" rx="0.34"/><rect class="cls-11" x="73.57" y="74.75" width="3.02" height="2.51" rx="0.34"/><rect class="cls-11" x="70.17" y="74.75" width="3.02" height="2.51" rx="0.34"/><rect class="cls-11" x="66.81" y="74.76" width="2.99" height="2.49" rx="0.34"/><rect class="cls-11" x="63.42" y="74.75" width="3.02" height="2.51" rx="0.34"/><rect class="cls-11" x="60.03" y="74.75" width="3.02" height="2.51" rx="0.34"/><rect class="cls-11" x="56.63" y="74.75" width="3.02" height="2.51" rx="0.34"/><rect class="cls-11" x="53.27" y="74.76" width="2.99" height="2.49" rx="0.34"/><rect class="cls-11" x="49.78" y="74.75" width="3.02" height="2.51" rx="0.34"/><rect class="cls-11" x="46.29" y="74.75" width="3.02" height="2.51" rx="0.34"/><rect class="cls-11" x="42.8" y="74.75" width="3.02" height="2.51" rx="0.34"/><rect class="cls-11" x="39.35" y="74.75" width="3.02" height="2.51" rx="0.34"/><rect class="cls-11" x="76.18" y="80.82" width="7.21" height="2.49" rx="0.34"/><rect class="cls-11" x="34.25" y="80.82" width="7.12" height="2.49" rx="0.34"/><rect class="cls-11" x="72.68" y="80.8" width="3.02" height="2.51" rx="0.34"/><rect class="cls-11" x="69.31" y="80.82" width="2.99" height="2.49" rx="0.34"/><rect class="cls-11" x="65.92" y="80.8" width="3.02" height="2.51" rx="0.34"/><rect class="cls-11" x="62.53" y="80.8" width="3.02" height="2.51" rx="0.34"/><rect class="cls-11" x="59.13" y="80.8" width="3.02" height="2.51" rx="0.34"/><rect class="cls-11" x="55.77" y="80.82" width="2.99" height="2.49" rx="0.34"/><rect class="cls-11" x="52.28" y="80.8" width="3.02" height="2.51" rx="0.34"/><rect class="cls-11" x="48.79" y="80.8" width="3.02" height="2.51" rx="0.34"/><rect class="cls-11" x="45.3" y="80.8" width="3.02" height="2.51" rx="0.34"/><rect class="cls-11" x="41.85" y="80.8" width="3.02" height="2.51" rx="0.34"/><rect class="cls-11" x="44.69" y="83.88" width="3.02" height="2.51" rx="0.34"/><rect class="cls-11" x="48.25" y="83.88" width="15.34" height="2.51" rx="0.34"/><rect class="cls-11" x="41.2" y="83.88" width="3.02" height="2.51" rx="0.34"/><rect class="cls-11" x="37.71" y="83.88" width="3.02" height="2.51" rx="0.34"/><rect class="cls-11" x="68.92" y="83.88" width="3.02" height="2.51" rx="0.34"/><rect class="cls-11" x="72.38" y="85.23" width="3.37" height="1.17" rx="0.34"/><rect class="cls-11" x="76.25" y="85.23" width="3.37" height="1.15" rx="0.34"/><rect class="cls-11" x="76.25" y="83.88" width="3.37" height="1.25" rx="0.34"/><rect class="cls-11" x="80.12" y="85.23" width="3.37" height="1.17" rx="0.34"/><rect class="cls-11" x="64.16" y="83.88" width="4.24" height="2.51" rx="0.34"/><rect class="cls-11" x="34.25" y="83.88" width="3.02" height="2.51" rx="0.34"/><rect class="cls-11" x="34.29" y="77.84" width="5.44" height="2.49" rx="0.34"/><rect class="cls-11" x="77.91" y="77.84" width="5.48" height="2.49" rx="0.34"/><rect class="cls-11" x="74.44" y="77.83" width="3.02" height="2.51" rx="0.34"/><rect class="cls-11" x="71.04" y="77.83" width="3.02" height="2.51" rx="0.34"/><rect class="cls-11" x="67.68" y="77.84" width="2.99" height="2.49" rx="0.34"/><rect class="cls-11" x="64.29" y="77.83" width="3.02" height="2.51" rx="0.34"/><rect class="cls-11" x="60.89" y="77.83" width="3.02" height="2.51" rx="0.34"/><rect class="cls-11" x="57.49" y="77.83" width="3.02" height="2.51" rx="0.34"/><rect class="cls-11" x="54.13" y="77.84" width="2.99" height="2.49" rx="0.34"/><rect class="cls-11" x="50.65" y="77.83" width="3.02" height="2.51" rx="0.34"/><rect class="cls-11" x="47.16" y="77.83" width="3.02" height="2.51" rx="0.34"/><rect class="cls-11" x="43.67" y="77.83" width="3.02" height="2.51" rx="0.34"/><rect class="cls-11" x="40.21" y="77.83" width="3.02" height="2.51" rx="0.34"/><path d="M79.64,64.61v1.07a1.09,1.09,0,0,1-1.09,1.09H39.86a1.09,1.09,0,0,1-1.09-1.09V64.61"/><path class="cls-27" d="M24.45,65.69c30.28,12.24,51.85,26.41,63,42.89l4,0s2.6.51,2.64-3.93,0-37.9,0-37.9-.2-1.85-2.65-2-65.63,0-65.63,0S24.46,65.66,24.45,65.69Z"/><path class="cls-28" d="M92.45,64.75H25.86A2.34,2.34,0,0,1,23.6,63L18.1,42.2a2.34,2.34,0,0,1,2.26-2.93H98a2.34,2.34,0,0,1,2.26,2.93L94.72,63A2.36,2.36,0,0,1,92.45,64.75Z"/><path class="cls-11" d="M92.45,64.75H25.86a2.32,2.32,0,0,1-2.26-1.66L18.1,43.23a2.26,2.26,0,0,1,2.26-2.81H98a2.26,2.26,0,0,1,2.26,2.81L94.72,63.09A2.33,2.33,0,0,1,92.45,64.75Z"/><polygon class="cls-29" points="92.52 63.12 26.65 63.02 20.79 42.15 97.43 42.15 92.52 63.12"/><g class="cls-30"><path class="cls-31" d="M34.25,40.53H95.79s2.14-.84,1.53,2.1-5.39,21.93-5.39,21.93-.26,0-4,0-13.54,0-13.54,0C70.84,54.38,61.29,46.37,34.25,40.53Z"/></g></g></g></svg>