<svg id="Layer_1" data-name="Layer 1" xmlns="http://www.w3.org/2000/svg" viewBox="0 0 150 150"><defs><style>.cls-1,.cls-66,.cls-67,.cls-68{fill:#fff;}.cls-2{fill:#fdfdfd;}.cls-3{fill:#fafafa;}.cls-4{fill:#f8f8f8;}.cls-5{fill:#f5f5f5;}.cls-6{fill:#f3f3f3;}.cls-7{fill:#f0f0f0;}.cls-8{fill:#eee;}.cls-9{fill:#ebebeb;}.cls-10{fill:#e9e9e9;}.cls-11{fill:#e6e6e6;}.cls-12{fill:#e4e4e4;}.cls-13{fill:#e1e1e1;}.cls-14{fill:#dfdfdf;}.cls-15{fill:#dcdcdc;}.cls-16{fill:#dadada;}.cls-17{fill:#d7d7d7;}.cls-18{fill:#d5d5d5;}.cls-19{fill:#d2d2d2;}.cls-20{fill:#d0d0d0;}.cls-21{fill:#cdcdcd;}.cls-22{fill:#cbcbcb;}.cls-23{fill:#c8c8c8;}.cls-24{fill:#c6c6c6;}.cls-25{fill:#c3c3c3;}.cls-26{fill:#c1c1c1;}.cls-27{fill:#bebebe;}.cls-28{fill:#bcbcbc;}.cls-29{fill:#b9b9b9;}.cls-30{fill:#b7b7b7;}.cls-31{fill:#b4b4b4;}.cls-32{fill:#b2b2b2;}.cls-33{fill:#afafaf;}.cls-34{fill:#adadad;}.cls-35{fill:#aaa;}.cls-36{fill:#a8a8a8;}.cls-37{fill:#a5a5a5;}.cls-38{fill:#a3a3a3;}.cls-39{fill:#a0a0a0;}.cls-40{fill:#9e9e9e;}.cls-41{fill:#9b9b9b;}.cls-42{fill:#999;}.cls-43{fill:#969696;}.cls-44{fill:#949494;}.cls-45{fill:#919191;}.cls-46{fill:#8f8f8f;}.cls-47{fill:#8c8c8c;}.cls-48{fill:#8a8a8a;}.cls-49{fill:#878787;}.cls-50{fill:#858585;}.cls-51{fill:#828282;}.cls-52{fill:gray;}.cls-53{fill:#e5e5e5;}.cls-54{fill:#f8faf8;}.cls-55{fill:#263547;}.cls-56{fill:#68899f;}.cls-57{fill:#5c6d7d;}.cls-58{fill:#c7dde5;}.cls-59{fill:#6bc2ce;}.cls-60{fill:#2c3d51;}.cls-61{fill:#d3cdcd;}.cls-62{fill:none;stroke:#c3c3c3;stroke-width:0.46px;}.cls-62,.cls-66,.cls-67,.cls-68{stroke-miterlimit:10;}.cls-63{fill:#5b5b5c;}.cls-64{fill:#b3b4b4;}.cls-65{fill:#5a5a5e;}.cls-66{stroke:#5b5b5c;}.cls-66,.cls-68{stroke-width:0.98px;}.cls-67{stroke:#b3b4b4;stroke-width:1.07px;}.cls-68{stroke:#5a5a5e;}.cls-69{fill:#0c0c0c;opacity:0.01;}.cls-70{fill:#dbe2e9;}</style></defs><path class="cls-1" d="M97.1,145.68h24c-2.23-1.23-3.32-3.43-3-6.8h-18C100.69,142,99.67,144.24,97.1,145.68Z"/><rect class="cls-1" x="96.86" y="145.41" width="24.51" height="2.07"/><path class="cls-1" d="M147.29,92.26a3.43,3.43,0,0,0-3.53-3.32H74.47a3.43,3.43,0,0,0-3.53,3.32v38.59h76.35Z"/><path class="cls-1" d="M70.94,130.85v5a3.43,3.43,0,0,0,3.53,3.32h69.28a3.43,3.43,0,0,0,3.54-3.31h0v-5Z"/><rect class="cls-1" x="73.85" y="91.76" width="70.53" height="37.11"/><rect class="cls-1" x="77.36" y="94.95" width="63.42" height="1.56"/><rect class="cls-1" x="77.36" y="96.51" width="63.42" height="29.42"/><rect class="cls-1" x="80.41" y="96.93" width="3.59" height="1.32"/><rect class="cls-1" x="90.62" y="96.93" width="3.59" height="1.32"/><rect class="cls-1" x="95.46" y="96.93" width="3.59" height="1.32"/><rect class="cls-1" x="101.16" y="96.93" width="32.96" height="1.32"/><rect class="cls-1" x="134.11" y="96.93" width="3.61" height="1.32"/><rect class="cls-1" x="79.52" y="99.33" width="59.09" height="25.58"/><rect class="cls-1" x="82.85" y="101.49" width="52.6" height="8.11"/><rect class="cls-1" x="85.86" y="101.94" width="47.75" height="1.71"/><rect class="cls-1" x="85.86" y="104.78" width="11.27" height="1.71"/><rect class="cls-1" x="103.05" y="107.14" width="6.46" height="1.71"/><rect class="cls-1" x="117.2" y="105.58" width="16.37" height="1.71"/><rect class="cls-1" x="122.46" y="119.14" width="11.91" height="4.59"/><path class="cls-2" d="M97,145.49h24c-2.23-1.23-3.32-3.44-3-6.8H100C100.59,141.78,99.57,144.05,97,145.49Z"/><rect class="cls-2" x="96.76" y="145.22" width="24.51" height="2.07"/><path class="cls-2" d="M147.19,92.07a3.43,3.43,0,0,0-3.53-3.32H74.37a3.43,3.43,0,0,0-3.53,3.32v38.59h76.35Z"/><path class="cls-2" d="M70.84,130.66v5a3.42,3.42,0,0,0,3.53,3.31h69.28a3.42,3.42,0,0,0,3.54-3.31h0v-5Z"/><rect class="cls-2" x="73.75" y="91.57" width="70.53" height="37.11"/><rect class="cls-2" x="77.26" y="94.76" width="63.42" height="1.56"/><rect class="cls-2" x="77.26" y="96.32" width="63.42" height="29.42"/><rect class="cls-2" x="80.31" y="96.73" width="3.59" height="1.32"/><rect class="cls-2" x="90.52" y="96.73" width="3.59" height="1.32"/><rect class="cls-2" x="95.36" y="96.73" width="3.59" height="1.32"/><rect class="cls-2" x="101.06" y="96.73" width="32.96" height="1.32"/><rect class="cls-2" x="134.01" y="96.73" width="3.61" height="1.32"/><rect class="cls-2" x="79.42" y="99.14" width="59.09" height="25.58"/><rect class="cls-2" x="82.75" y="101.3" width="52.6" height="8.11"/><rect class="cls-2" x="85.76" y="101.75" width="47.75" height="1.71"/><rect class="cls-2" x="85.76" y="104.59" width="11.27" height="1.71"/><rect class="cls-2" x="102.95" y="106.95" width="6.46" height="1.71"/><rect class="cls-2" x="117.1" y="105.39" width="16.37" height="1.71"/><rect class="cls-2" x="122.36" y="118.95" width="11.91" height="4.59"/><path class="cls-3" d="M96.9,145.3h24c-2.23-1.24-3.32-3.44-3-6.8h-18C100.49,141.59,99.47,143.85,96.9,145.3Z"/><rect class="cls-3" x="96.66" y="145.03" width="24.51" height="2.07"/><path class="cls-3" d="M147.09,91.87a3.42,3.42,0,0,0-3.53-3.31H74.27a3.42,3.42,0,0,0-3.53,3.31v38.6h76.35Z"/><path class="cls-3" d="M70.74,130.47v5a3.42,3.42,0,0,0,3.53,3.31h69.28a3.43,3.43,0,0,0,3.54-3.31h0v-5Z"/><rect class="cls-3" x="73.65" y="91.38" width="70.53" height="37.11"/><rect class="cls-3" x="77.16" y="94.56" width="63.42" height="1.56"/><rect class="cls-3" x="77.16" y="96.12" width="63.42" height="29.42"/><rect class="cls-3" x="80.21" y="96.54" width="3.59" height="1.32"/><rect class="cls-3" x="90.42" y="96.54" width="3.59" height="1.32"/><rect class="cls-3" x="95.26" y="96.54" width="3.59" height="1.32"/><rect class="cls-3" x="100.96" y="96.54" width="32.96" height="1.32"/><rect class="cls-3" x="133.91" y="96.54" width="3.61" height="1.32"/><rect class="cls-3" x="79.32" y="98.94" width="59.09" height="25.58"/><rect class="cls-3" x="82.65" y="101.11" width="52.6" height="8.11"/><rect class="cls-3" x="85.66" y="101.56" width="47.75" height="1.71"/><rect class="cls-3" x="85.66" y="104.39" width="11.27" height="1.71"/><rect class="cls-3" x="102.85" y="106.76" width="6.46" height="1.71"/><rect class="cls-3" x="117" y="105.19" width="16.37" height="1.71"/><rect class="cls-3" x="122.26" y="118.76" width="11.91" height="4.59"/><path class="cls-4" d="M96.8,145.11h24c-2.23-1.24-3.32-3.44-3-6.8h-18C100.39,141.4,99.37,143.66,96.8,145.11Z"/><rect class="cls-4" x="96.56" y="144.84" width="24.51" height="2.07"/><path class="cls-4" d="M147,91.68a3.42,3.42,0,0,0-3.53-3.31H74.17a3.42,3.42,0,0,0-3.53,3.31v38.6H147Z"/><path class="cls-4" d="M70.64,130.28v5a3.42,3.42,0,0,0,3.53,3.31h69.28a3.43,3.43,0,0,0,3.54-3.31h0v-5Z"/><rect class="cls-4" x="73.55" y="91.19" width="70.53" height="37.11"/><rect class="cls-4" x="77.06" y="94.37" width="63.42" height="1.56"/><rect class="cls-4" x="77.06" y="95.93" width="63.42" height="29.42"/><rect class="cls-4" x="80.11" y="96.35" width="3.59" height="1.32"/><rect class="cls-4" x="90.32" y="96.35" width="3.59" height="1.32"/><rect class="cls-4" x="95.16" y="96.35" width="3.59" height="1.32"/><rect class="cls-4" x="100.86" y="96.35" width="32.96" height="1.32"/><rect class="cls-4" x="133.81" y="96.35" width="3.61" height="1.32"/><rect class="cls-4" x="79.22" y="98.75" width="59.09" height="25.58"/><rect class="cls-4" x="82.55" y="100.91" width="52.6" height="8.11"/><rect class="cls-4" x="85.56" y="101.36" width="47.75" height="1.71"/><rect class="cls-4" x="85.56" y="104.2" width="11.27" height="1.71"/><rect class="cls-4" x="102.75" y="106.57" width="6.46" height="1.71"/><rect class="cls-4" x="116.9" y="105" width="16.37" height="1.71"/><rect class="cls-4" x="122.16" y="118.57" width="11.91" height="4.59"/><path class="cls-5" d="M96.7,144.91h24c-2.23-1.23-3.32-3.43-3-6.8h-18C100.29,141.21,99.27,143.47,96.7,144.91Z"/><rect class="cls-5" x="96.46" y="144.64" width="24.51" height="2.07"/><path class="cls-5" d="M146.89,91.49a3.43,3.43,0,0,0-3.53-3.32H74.07a3.43,3.43,0,0,0-3.53,3.32v38.59h76.35Z"/><path class="cls-5" d="M70.54,130.08v5a3.43,3.43,0,0,0,3.53,3.32h69.28a3.43,3.43,0,0,0,3.54-3.31h0v-5Z"/><rect class="cls-5" x="73.45" y="91" width="70.53" height="37.11"/><rect class="cls-5" x="76.96" y="94.18" width="63.42" height="1.56"/><rect class="cls-5" x="76.96" y="95.74" width="63.42" height="29.42"/><rect class="cls-5" x="80.01" y="96.16" width="3.59" height="1.32"/><rect class="cls-5" x="90.22" y="96.16" width="3.59" height="1.32"/><rect class="cls-5" x="95.06" y="96.16" width="3.59" height="1.32"/><rect class="cls-5" x="100.76" y="96.16" width="32.96" height="1.32"/><rect class="cls-5" x="133.71" y="96.16" width="3.61" height="1.32"/><rect class="cls-5" x="79.12" y="98.56" width="59.09" height="25.58"/><rect class="cls-5" x="82.45" y="100.72" width="52.6" height="8.11"/><rect class="cls-5" x="85.46" y="101.17" width="47.75" height="1.71"/><rect class="cls-5" x="85.46" y="104.01" width="11.27" height="1.71"/><rect class="cls-5" x="102.65" y="106.37" width="6.46" height="1.71"/><rect class="cls-5" x="116.8" y="104.81" width="16.37" height="1.71"/><rect class="cls-5" x="122.06" y="118.37" width="11.91" height="4.59"/><path class="cls-6" d="M96.6,144.72h24c-2.23-1.23-3.32-3.43-3-6.8h-18C100.19,141,99.17,143.28,96.6,144.72Z"/><rect class="cls-6" x="96.36" y="144.45" width="24.51" height="2.07"/><path class="cls-6" d="M146.79,91.3A3.43,3.43,0,0,0,143.26,88H74a3.43,3.43,0,0,0-3.53,3.32v38.59h76.35Z"/><path class="cls-6" d="M70.44,129.89v5A3.43,3.43,0,0,0,74,138.18h69.28a3.43,3.43,0,0,0,3.54-3.31h0v-5Z"/><rect class="cls-6" x="73.35" y="90.8" width="70.53" height="37.11"/><rect class="cls-6" x="76.86" y="93.99" width="63.42" height="1.56"/><rect class="cls-6" x="76.86" y="95.55" width="63.42" height="29.42"/><rect class="cls-6" x="79.91" y="95.97" width="3.59" height="1.32"/><rect class="cls-6" x="90.12" y="95.97" width="3.59" height="1.32"/><rect class="cls-6" x="94.96" y="95.97" width="3.59" height="1.32"/><rect class="cls-6" x="100.66" y="95.97" width="32.96" height="1.32"/><rect class="cls-6" x="133.61" y="95.97" width="3.61" height="1.32"/><rect class="cls-6" x="79.02" y="98.37" width="59.09" height="25.58"/><rect class="cls-6" x="82.35" y="100.53" width="52.6" height="8.11"/><rect class="cls-6" x="85.36" y="100.98" width="47.75" height="1.71"/><rect class="cls-6" x="85.36" y="103.82" width="11.27" height="1.71"/><rect class="cls-6" x="102.55" y="106.18" width="6.46" height="1.71"/><rect class="cls-6" x="116.7" y="104.62" width="16.37" height="1.71"/><rect class="cls-6" x="121.96" y="118.18" width="11.91" height="4.59"/><path class="cls-7" d="M96.5,144.53h24c-2.23-1.24-3.32-3.44-3-6.8h-18C100.09,140.82,99.07,143.08,96.5,144.53Z"/><rect class="cls-7" x="96.26" y="144.26" width="24.51" height="2.07"/><path class="cls-7" d="M146.69,91.1a3.42,3.42,0,0,0-3.53-3.31H73.87a3.42,3.42,0,0,0-3.53,3.31v38.6h76.35Z"/><path class="cls-7" d="M70.34,129.7v5A3.42,3.42,0,0,0,73.87,138h69.28a3.42,3.42,0,0,0,3.54-3.31h0v-5Z"/><rect class="cls-7" x="73.25" y="90.61" width="70.53" height="37.11"/><rect class="cls-7" x="76.76" y="93.79" width="63.42" height="1.56"/><rect class="cls-7" x="76.76" y="95.35" width="63.42" height="29.42"/><rect class="cls-7" x="79.81" y="95.77" width="3.59" height="1.32"/><rect class="cls-7" x="90.02" y="95.77" width="3.59" height="1.32"/><rect class="cls-7" x="94.86" y="95.77" width="3.59" height="1.32"/><rect class="cls-7" x="100.56" y="95.77" width="32.96" height="1.32"/><rect class="cls-7" x="133.51" y="95.77" width="3.61" height="1.32"/><rect class="cls-7" x="78.92" y="98.18" width="59.09" height="25.58"/><rect class="cls-7" x="82.25" y="100.34" width="52.6" height="8.11"/><rect class="cls-7" x="85.26" y="100.79" width="47.75" height="1.71"/><rect class="cls-7" x="85.26" y="103.63" width="11.27" height="1.71"/><rect class="cls-7" x="102.45" y="105.99" width="6.46" height="1.71"/><rect class="cls-7" x="116.6" y="104.42" width="16.37" height="1.71"/><rect class="cls-7" x="121.86" y="117.99" width="11.91" height="4.59"/><path class="cls-8" d="M96.4,144.34h24c-2.23-1.24-3.32-3.44-3-6.8h-18C100,140.63,99,142.89,96.4,144.34Z"/><rect class="cls-8" x="96.16" y="144.07" width="24.51" height="2.07"/><path class="cls-8" d="M146.59,90.91a3.42,3.42,0,0,0-3.53-3.31H73.77a3.42,3.42,0,0,0-3.53,3.31v38.6h76.35Z"/><path class="cls-8" d="M70.24,129.51v5a3.42,3.42,0,0,0,3.53,3.31h69.28a3.43,3.43,0,0,0,3.54-3.31h0v-5Z"/><rect class="cls-8" x="73.15" y="90.42" width="70.53" height="37.11"/><rect class="cls-8" x="76.66" y="93.6" width="63.42" height="1.56"/><rect class="cls-8" x="76.66" y="95.16" width="63.42" height="29.42"/><rect class="cls-8" x="79.71" y="95.58" width="3.59" height="1.32"/><rect class="cls-8" x="89.92" y="95.58" width="3.59" height="1.32"/><rect class="cls-8" x="94.76" y="95.58" width="3.59" height="1.32"/><rect class="cls-8" x="100.46" y="95.58" width="32.96" height="1.32"/><rect class="cls-8" x="133.41" y="95.58" width="3.61" height="1.32"/><rect class="cls-8" x="78.82" y="97.98" width="59.09" height="25.58"/><rect class="cls-8" x="82.15" y="100.14" width="52.6" height="8.11"/><rect class="cls-8" x="85.16" y="100.59" width="47.75" height="1.71"/><rect class="cls-8" x="85.16" y="103.43" width="11.27" height="1.71"/><rect class="cls-8" x="102.35" y="105.8" width="6.46" height="1.71"/><rect class="cls-8" x="116.5" y="104.23" width="16.37" height="1.71"/><rect class="cls-8" x="121.76" y="117.8" width="11.91" height="4.59"/><path class="cls-9" d="M96.3,144.15h24c-2.23-1.24-3.32-3.44-3-6.8h-18C99.89,140.44,98.87,142.7,96.3,144.15Z"/><rect class="cls-9" x="96.06" y="143.88" width="24.51" height="2.07"/><path class="cls-9" d="M146.49,90.72A3.42,3.42,0,0,0,143,87.41H73.67a3.42,3.42,0,0,0-3.53,3.31v38.59h76.35Z"/><path class="cls-9" d="M70.14,129.31v5a3.43,3.43,0,0,0,3.53,3.32H143a3.43,3.43,0,0,0,3.54-3.31h0v-5Z"/><rect class="cls-9" x="73.05" y="90.23" width="70.53" height="37.11"/><rect class="cls-9" x="76.56" y="93.41" width="63.42" height="1.56"/><rect class="cls-9" x="76.56" y="94.97" width="63.42" height="29.42"/><rect class="cls-9" x="79.61" y="95.39" width="3.59" height="1.32"/><rect class="cls-9" x="89.82" y="95.39" width="3.59" height="1.32"/><rect class="cls-9" x="94.66" y="95.39" width="3.59" height="1.32"/><rect class="cls-9" x="100.36" y="95.39" width="32.96" height="1.32"/><rect class="cls-9" x="133.31" y="95.39" width="3.61" height="1.32"/><rect class="cls-9" x="78.72" y="97.79" width="59.09" height="25.58"/><rect class="cls-9" x="82.05" y="99.95" width="52.6" height="8.11"/><rect class="cls-9" x="85.06" y="100.4" width="47.75" height="1.71"/><rect class="cls-9" x="85.06" y="103.24" width="11.27" height="1.71"/><rect class="cls-9" x="102.25" y="105.6" width="6.46" height="1.71"/><rect class="cls-9" x="116.4" y="104.04" width="16.37" height="1.71"/><rect class="cls-9" x="121.66" y="117.61" width="11.91" height="4.59"/><path class="cls-10" d="M96.2,144h24c-2.23-1.23-3.32-3.43-3-6.8h-18C99.79,140.25,98.77,142.51,96.2,144Z"/><rect class="cls-10" x="95.96" y="143.68" width="24.51" height="2.07"/><path class="cls-10" d="M146.39,90.53a3.43,3.43,0,0,0-3.53-3.32H73.57A3.43,3.43,0,0,0,70,90.53v38.59h76.35Z"/><path class="cls-10" d="M70,129.12v5a3.43,3.43,0,0,0,3.53,3.32h69.28a3.43,3.43,0,0,0,3.54-3.31h0v-5Z"/><rect class="cls-10" x="72.95" y="90.03" width="70.53" height="37.11"/><rect class="cls-10" x="76.46" y="93.22" width="63.42" height="1.56"/><rect class="cls-10" x="76.46" y="94.78" width="63.42" height="29.42"/><rect class="cls-10" x="79.51" y="95.2" width="3.59" height="1.32"/><rect class="cls-10" x="89.72" y="95.2" width="3.59" height="1.32"/><rect class="cls-10" x="94.56" y="95.2" width="3.59" height="1.32"/><rect class="cls-10" x="100.26" y="95.2" width="32.96" height="1.32"/><rect class="cls-10" x="133.21" y="95.2" width="3.61" height="1.32"/><rect class="cls-10" x="78.62" y="97.6" width="59.09" height="25.58"/><rect class="cls-10" x="81.95" y="99.76" width="52.6" height="8.11"/><rect class="cls-10" x="84.96" y="100.21" width="47.75" height="1.71"/><rect class="cls-10" x="84.96" y="103.05" width="11.27" height="1.71"/><rect class="cls-10" x="102.15" y="105.41" width="6.46" height="1.71"/><rect class="cls-10" x="116.3" y="103.85" width="16.37" height="1.71"/><rect class="cls-10" x="121.56" y="117.41" width="11.91" height="4.59"/><path class="cls-11" d="M96.1,143.76h24c-2.23-1.23-3.31-3.44-3-6.8h-18C99.69,140.05,98.67,142.32,96.1,143.76Z"/><rect class="cls-11" x="95.86" y="143.49" width="24.51" height="2.07"/><path class="cls-11" d="M146.29,90.34A3.43,3.43,0,0,0,142.76,87H73.47a3.43,3.43,0,0,0-3.53,3.32v38.59h76.35Z"/><path class="cls-11" d="M69.94,128.93v5a3.42,3.42,0,0,0,3.53,3.31h69.28a3.41,3.41,0,0,0,3.54-3.31h0v-5Z"/><rect class="cls-11" x="72.85" y="89.84" width="70.53" height="37.11"/><rect class="cls-11" x="76.36" y="93.03" width="63.42" height="1.56"/><rect class="cls-11" x="76.36" y="94.59" width="63.42" height="29.42"/><rect class="cls-11" x="79.41" y="95" width="3.59" height="1.32"/><rect class="cls-11" x="89.62" y="95" width="3.59" height="1.32"/><rect class="cls-11" x="94.46" y="95" width="3.59" height="1.32"/><rect class="cls-11" x="100.16" y="95" width="32.96" height="1.32"/><rect class="cls-11" x="133.11" y="95" width="3.61" height="1.32"/><rect class="cls-11" x="78.52" y="97.41" width="59.09" height="25.58"/><rect class="cls-11" x="81.85" y="99.57" width="52.6" height="8.11"/><rect class="cls-11" x="84.86" y="100.02" width="47.75" height="1.71"/><rect class="cls-11" x="84.86" y="102.86" width="11.27" height="1.71"/><rect class="cls-11" x="102.05" y="105.22" width="6.46" height="1.71"/><rect class="cls-11" x="116.2" y="103.66" width="16.37" height="1.71"/><rect class="cls-11" x="121.47" y="117.22" width="11.91" height="4.59"/><path class="cls-12" d="M96,143.57h24c-2.23-1.24-3.31-3.44-3-6.8H99C99.59,139.86,98.57,142.12,96,143.57Z"/><rect class="cls-12" x="95.76" y="143.3" width="24.51" height="2.07"/><path class="cls-12" d="M146.19,90.14a3.42,3.42,0,0,0-3.53-3.31H73.37a3.42,3.42,0,0,0-3.53,3.31v38.6h76.35Z"/><path class="cls-12" d="M69.84,128.74v5A3.42,3.42,0,0,0,73.37,137h69.28a3.43,3.43,0,0,0,3.54-3.31h0v-5Z"/><rect class="cls-12" x="72.75" y="89.65" width="70.53" height="37.11"/><rect class="cls-12" x="76.26" y="92.83" width="63.42" height="1.56"/><rect class="cls-12" x="76.26" y="94.39" width="63.42" height="29.42"/><rect class="cls-12" x="79.31" y="94.81" width="3.59" height="1.32"/><rect class="cls-12" x="89.52" y="94.81" width="3.59" height="1.32"/><rect class="cls-12" x="94.36" y="94.81" width="3.59" height="1.32"/><rect class="cls-12" x="100.06" y="94.81" width="32.96" height="1.32"/><rect class="cls-12" x="133.01" y="94.81" width="3.61" height="1.32"/><rect class="cls-12" x="78.42" y="97.21" width="59.09" height="25.58"/><rect class="cls-12" x="81.75" y="99.38" width="52.6" height="8.11"/><rect class="cls-12" x="84.76" y="99.83" width="47.75" height="1.71"/><rect class="cls-12" x="84.76" y="102.66" width="11.27" height="1.71"/><rect class="cls-12" x="101.95" y="105.03" width="6.46" height="1.71"/><rect class="cls-12" x="116.1" y="103.46" width="16.37" height="1.71"/><rect class="cls-12" x="121.37" y="117.03" width="11.91" height="4.59"/><path class="cls-13" d="M95.9,143.38h24c-2.23-1.24-3.31-3.44-3-6.8h-18C99.49,139.67,98.47,141.93,95.9,143.38Z"/><rect class="cls-13" x="95.66" y="143.11" width="24.51" height="2.07"/><path class="cls-13" d="M146.09,90a3.42,3.42,0,0,0-3.53-3.31H73.27A3.42,3.42,0,0,0,69.74,90v38.6h76.35Z"/><path class="cls-13" d="M69.74,128.55v5a3.42,3.42,0,0,0,3.53,3.31h69.28a3.43,3.43,0,0,0,3.54-3.31h0v-5Z"/><rect class="cls-13" x="72.65" y="89.46" width="70.53" height="37.11"/><rect class="cls-13" x="76.16" y="92.64" width="63.42" height="1.56"/><rect class="cls-13" x="76.16" y="94.2" width="63.42" height="29.42"/><rect class="cls-13" x="79.21" y="94.62" width="3.59" height="1.32"/><rect class="cls-13" x="89.42" y="94.62" width="3.59" height="1.32"/><rect class="cls-13" x="94.26" y="94.62" width="3.59" height="1.32"/><rect class="cls-13" x="99.96" y="94.62" width="32.96" height="1.32"/><rect class="cls-13" x="132.91" y="94.62" width="3.61" height="1.32"/><rect class="cls-13" x="78.32" y="97.02" width="59.09" height="25.58"/><rect class="cls-13" x="81.65" y="99.18" width="52.6" height="8.11"/><rect class="cls-13" x="84.66" y="99.63" width="47.75" height="1.71"/><rect class="cls-13" x="84.66" y="102.47" width="11.27" height="1.71"/><rect class="cls-13" x="101.85" y="104.84" width="6.46" height="1.71"/><rect class="cls-13" x="116.01" y="103.27" width="16.37" height="1.71"/><rect class="cls-13" x="121.27" y="116.84" width="11.91" height="4.59"/><path class="cls-14" d="M95.81,143.18h24c-2.23-1.23-3.31-3.43-3-6.8h-18C99.39,139.48,98.37,141.74,95.81,143.18Z"/><rect class="cls-14" x="95.56" y="142.91" width="24.51" height="2.07"/><path class="cls-14" d="M146,89.76a3.43,3.43,0,0,0-3.53-3.32H73.17a3.43,3.43,0,0,0-3.53,3.32v38.59H146Z"/><path class="cls-14" d="M69.64,128.35v5a3.43,3.43,0,0,0,3.53,3.32h69.28a3.43,3.43,0,0,0,3.54-3.31h0v-5Z"/><rect class="cls-14" x="72.56" y="89.27" width="70.53" height="37.11"/><rect class="cls-14" x="76.06" y="92.45" width="63.42" height="1.56"/><rect class="cls-14" x="76.06" y="94.01" width="63.42" height="29.42"/><rect class="cls-14" x="79.11" y="94.43" width="3.59" height="1.32"/><rect class="cls-14" x="89.32" y="94.43" width="3.59" height="1.32"/><rect class="cls-14" x="94.16" y="94.43" width="3.59" height="1.32"/><rect class="cls-14" x="99.86" y="94.43" width="32.96" height="1.32"/><rect class="cls-14" x="132.81" y="94.43" width="3.61" height="1.32"/><rect class="cls-14" x="78.22" y="96.83" width="59.09" height="25.58"/><rect class="cls-14" x="81.55" y="98.99" width="52.6" height="8.11"/><rect class="cls-14" x="84.56" y="99.44" width="47.75" height="1.71"/><rect class="cls-14" x="84.56" y="102.28" width="11.27" height="1.71"/><rect class="cls-14" x="101.75" y="104.64" width="6.46" height="1.71"/><rect class="cls-14" x="115.91" y="103.08" width="16.37" height="1.71"/><rect class="cls-14" x="121.17" y="116.64" width="11.91" height="4.59"/><path class="cls-15" d="M95.71,143h24c-2.23-1.23-3.31-3.43-3-6.8h-18C99.29,139.28,98.27,141.55,95.71,143Z"/><rect class="cls-15" x="95.46" y="142.72" width="24.51" height="2.07"/><path class="cls-15" d="M145.9,89.57a3.44,3.44,0,0,0-3.54-3.32H73.08a3.43,3.43,0,0,0-3.54,3.32v38.59H145.9Z"/><path class="cls-15" d="M69.54,128.16v5a3.43,3.43,0,0,0,3.54,3.32h69.27a3.44,3.44,0,0,0,3.55-3.31h0v-5Z"/><rect class="cls-15" x="72.46" y="89.07" width="70.53" height="37.11"/><rect class="cls-15" x="75.96" y="92.26" width="63.42" height="1.56"/><rect class="cls-15" x="75.96" y="93.82" width="63.42" height="29.42"/><rect class="cls-15" x="79.01" y="94.24" width="3.59" height="1.32"/><rect class="cls-15" x="89.22" y="94.24" width="3.59" height="1.32"/><rect class="cls-15" x="94.07" y="94.24" width="3.59" height="1.32"/><rect class="cls-15" x="99.76" y="94.24" width="32.96" height="1.32"/><rect class="cls-15" x="132.71" y="94.24" width="3.61" height="1.32"/><rect class="cls-15" x="78.12" y="96.64" width="59.09" height="25.58"/><rect class="cls-15" x="81.45" y="98.8" width="52.6" height="8.11"/><rect class="cls-15" x="84.46" y="99.25" width="47.75" height="1.71"/><rect class="cls-15" x="84.46" y="102.09" width="11.27" height="1.71"/><rect class="cls-15" x="101.65" y="104.45" width="6.46" height="1.71"/><rect class="cls-15" x="115.81" y="102.89" width="16.37" height="1.71"/><rect class="cls-15" x="121.07" y="116.45" width="11.91" height="4.59"/><path class="cls-16" d="M95.61,142.8h24c-2.23-1.24-3.31-3.44-3-6.8h-18C99.19,139.09,98.17,141.35,95.61,142.8Z"/><rect class="cls-16" x="95.36" y="142.53" width="24.51" height="2.07"/><path class="cls-16" d="M145.8,89.37a3.43,3.43,0,0,0-3.54-3.31H73a3.43,3.43,0,0,0-3.54,3.31V128H145.8Z"/><path class="cls-16" d="M69.44,128v5A3.43,3.43,0,0,0,73,136.25h69.27a3.44,3.44,0,0,0,3.55-3.31h0v-5Z"/><rect class="cls-16" x="72.36" y="88.88" width="70.53" height="37.11"/><rect class="cls-16" x="75.86" y="92.06" width="63.42" height="1.56"/><rect class="cls-16" x="75.86" y="93.62" width="63.42" height="29.42"/><rect class="cls-16" x="78.91" y="94.04" width="3.59" height="1.32"/><rect class="cls-16" x="89.12" y="94.04" width="3.59" height="1.32"/><rect class="cls-16" x="93.97" y="94.04" width="3.59" height="1.32"/><rect class="cls-16" x="99.66" y="94.04" width="32.96" height="1.32"/><rect class="cls-16" x="132.61" y="94.04" width="3.61" height="1.32"/><rect class="cls-16" x="78.02" y="96.45" width="59.09" height="25.58"/><rect class="cls-16" x="81.35" y="98.61" width="52.6" height="8.11"/><rect class="cls-16" x="84.36" y="99.06" width="47.75" height="1.71"/><rect class="cls-16" x="84.36" y="101.9" width="11.27" height="1.71"/><rect class="cls-16" x="101.55" y="104.26" width="6.46" height="1.71"/><rect class="cls-16" x="115.71" y="102.69" width="16.37" height="1.71"/><rect class="cls-16" x="120.97" y="116.26" width="11.91" height="4.59"/><path class="cls-17" d="M95.51,142.61h24c-2.23-1.24-3.31-3.44-3-6.8h-18C99.09,138.9,98.07,141.16,95.51,142.61Z"/><rect class="cls-17" x="95.26" y="142.34" width="24.51" height="2.07"/><path class="cls-17" d="M145.7,89.18a3.43,3.43,0,0,0-3.54-3.31H72.88a3.43,3.43,0,0,0-3.54,3.31v38.6H145.7Z"/><path class="cls-17" d="M69.34,127.78v5a3.43,3.43,0,0,0,3.54,3.31h69.27a3.44,3.44,0,0,0,3.55-3.31h0v-5Z"/><rect class="cls-17" x="72.26" y="88.69" width="70.53" height="37.11"/><rect class="cls-17" x="75.76" y="91.87" width="63.42" height="1.56"/><rect class="cls-17" x="75.76" y="93.43" width="63.42" height="29.42"/><rect class="cls-17" x="78.81" y="93.85" width="3.59" height="1.32"/><rect class="cls-17" x="89.02" y="93.85" width="3.59" height="1.32"/><rect class="cls-17" x="93.87" y="93.85" width="3.59" height="1.32"/><rect class="cls-17" x="99.56" y="93.85" width="32.96" height="1.32"/><rect class="cls-17" x="132.51" y="93.85" width="3.61" height="1.32"/><rect class="cls-17" x="77.92" y="96.25" width="59.09" height="25.58"/><rect class="cls-17" x="81.25" y="98.41" width="52.6" height="8.11"/><rect class="cls-17" x="84.26" y="98.86" width="47.75" height="1.71"/><rect class="cls-17" x="84.26" y="101.7" width="11.27" height="1.71"/><rect class="cls-17" x="101.45" y="104.07" width="6.46" height="1.71"/><rect class="cls-17" x="115.61" y="102.5" width="16.37" height="1.71"/><rect class="cls-17" x="120.87" y="116.07" width="11.91" height="4.59"/><path class="cls-18" d="M95.41,142.42h24c-2.23-1.24-3.31-3.44-3-6.8h-18C99,138.71,98,141,95.41,142.42Z"/><rect class="cls-18" x="95.16" y="142.15" width="24.51" height="2.07"/><path class="cls-18" d="M145.6,89a3.43,3.43,0,0,0-3.54-3.31H72.78A3.43,3.43,0,0,0,69.24,89v38.59H145.6Z"/><path class="cls-18" d="M69.24,127.58v5a3.43,3.43,0,0,0,3.54,3.32h69.27a3.44,3.44,0,0,0,3.55-3.31h0v-5Z"/><rect class="cls-18" x="72.16" y="88.5" width="70.53" height="37.11"/><rect class="cls-18" x="75.66" y="91.68" width="63.42" height="1.56"/><rect class="cls-18" x="75.66" y="93.24" width="63.42" height="29.42"/><rect class="cls-18" x="78.71" y="93.66" width="3.59" height="1.32"/><rect class="cls-18" x="88.92" y="93.66" width="3.59" height="1.32"/><rect class="cls-18" x="93.77" y="93.66" width="3.59" height="1.32"/><rect class="cls-18" x="99.46" y="93.66" width="32.96" height="1.32"/><rect class="cls-18" x="132.41" y="93.66" width="3.61" height="1.32"/><rect class="cls-18" x="77.82" y="96.06" width="59.09" height="25.58"/><rect class="cls-18" x="81.15" y="98.22" width="52.6" height="8.11"/><rect class="cls-18" x="84.16" y="98.67" width="47.75" height="1.71"/><rect class="cls-18" x="84.16" y="101.51" width="11.27" height="1.71"/><rect class="cls-18" x="101.35" y="103.87" width="6.46" height="1.71"/><rect class="cls-18" x="115.51" y="102.31" width="16.37" height="1.71"/><rect class="cls-18" x="120.77" y="115.88" width="11.91" height="4.59"/><path class="cls-19" d="M95.31,142.22h24c-2.23-1.23-3.31-3.43-3-6.8h-18C98.89,138.52,97.87,140.78,95.31,142.22Z"/><rect class="cls-19" x="95.06" y="141.95" width="24.51" height="2.07"/><path class="cls-19" d="M145.5,88.8A3.44,3.44,0,0,0,142,85.48H72.68a3.43,3.43,0,0,0-3.54,3.32v38.59H145.5Z"/><path class="cls-19" d="M69.14,127.39v5a3.43,3.43,0,0,0,3.54,3.32H142a3.44,3.44,0,0,0,3.55-3.31h0v-5Z"/><rect class="cls-19" x="72.06" y="88.3" width="70.53" height="37.11"/><rect class="cls-19" x="75.56" y="91.49" width="63.42" height="1.56"/><rect class="cls-19" x="75.56" y="93.05" width="63.42" height="29.42"/><rect class="cls-19" x="78.61" y="93.47" width="3.59" height="1.32"/><rect class="cls-19" x="88.82" y="93.47" width="3.59" height="1.32"/><rect class="cls-19" x="93.67" y="93.47" width="3.59" height="1.32"/><rect class="cls-19" x="99.36" y="93.47" width="32.96" height="1.32"/><rect class="cls-19" x="132.31" y="93.47" width="3.61" height="1.32"/><rect class="cls-19" x="77.72" y="95.87" width="59.09" height="25.58"/><rect class="cls-19" x="81.05" y="98.03" width="52.6" height="8.11"/><rect class="cls-19" x="84.06" y="98.48" width="47.75" height="1.71"/><rect class="cls-19" x="84.06" y="101.32" width="11.27" height="1.71"/><rect class="cls-19" x="101.25" y="103.68" width="6.46" height="1.71"/><rect class="cls-19" x="115.41" y="102.12" width="16.37" height="1.71"/><rect class="cls-19" x="120.67" y="115.68" width="11.91" height="4.59"/><path class="cls-20" d="M95.21,142h24c-2.23-1.23-3.31-3.44-3-6.8h-18C98.79,138.32,97.77,140.59,95.21,142Z"/><rect class="cls-20" x="94.96" y="141.76" width="24.51" height="2.07"/><path class="cls-20" d="M145.4,88.61a3.43,3.43,0,0,0-3.54-3.32H72.58A3.43,3.43,0,0,0,69,88.61V127.2H145.4Z"/><path class="cls-20" d="M69,127.2v5a3.43,3.43,0,0,0,3.54,3.31h69.28a3.43,3.43,0,0,0,3.54-3.31h0v-5Z"/><rect class="cls-20" x="71.96" y="88.11" width="70.53" height="37.11"/><rect class="cls-20" x="75.46" y="91.3" width="63.42" height="1.56"/><rect class="cls-20" x="75.46" y="92.85" width="63.42" height="29.42"/><rect class="cls-20" x="78.51" y="93.27" width="3.59" height="1.32"/><rect class="cls-20" x="88.72" y="93.27" width="3.59" height="1.32"/><rect class="cls-20" x="93.57" y="93.27" width="3.59" height="1.32"/><rect class="cls-20" x="99.26" y="93.27" width="32.96" height="1.32"/><rect class="cls-20" x="132.21" y="93.27" width="3.61" height="1.32"/><rect class="cls-20" x="77.62" y="95.68" width="59.09" height="25.58"/><rect class="cls-20" x="80.95" y="97.84" width="52.6" height="8.11"/><rect class="cls-20" x="83.96" y="98.29" width="47.75" height="1.71"/><rect class="cls-20" x="83.96" y="101.13" width="11.27" height="1.71"/><rect class="cls-20" x="101.15" y="103.49" width="6.46" height="1.71"/><rect class="cls-20" x="115.31" y="101.93" width="16.37" height="1.71"/><rect class="cls-20" x="120.57" y="115.49" width="11.91" height="4.59"/><path class="cls-21" d="M95.11,141.84h24c-2.23-1.24-3.31-3.44-3-6.8h-18C98.69,138.13,97.67,140.39,95.11,141.84Z"/><rect class="cls-21" x="94.86" y="141.57" width="24.51" height="2.07"/><path class="cls-21" d="M145.3,88.41a3.43,3.43,0,0,0-3.54-3.31H72.48a3.43,3.43,0,0,0-3.54,3.31V127H145.3Z"/><path class="cls-21" d="M68.94,127v5a3.43,3.43,0,0,0,3.54,3.31h69.28A3.44,3.44,0,0,0,145.3,132h0v-5Z"/><rect class="cls-21" x="71.86" y="87.92" width="70.53" height="37.11"/><rect class="cls-21" x="75.36" y="91.1" width="63.42" height="1.56"/><rect class="cls-21" x="75.36" y="92.66" width="63.42" height="29.42"/><rect class="cls-21" x="78.41" y="93.08" width="3.59" height="1.32"/><rect class="cls-21" x="88.62" y="93.08" width="3.59" height="1.32"/><rect class="cls-21" x="93.47" y="93.08" width="3.59" height="1.32"/><rect class="cls-21" x="99.16" y="93.08" width="32.96" height="1.32"/><rect class="cls-21" x="132.12" y="93.08" width="3.61" height="1.32"/><rect class="cls-21" x="77.52" y="95.48" width="59.09" height="25.58"/><rect class="cls-21" x="80.85" y="97.65" width="52.6" height="8.11"/><rect class="cls-21" x="83.86" y="98.1" width="47.75" height="1.71"/><rect class="cls-21" x="83.86" y="100.93" width="11.27" height="1.71"/><rect class="cls-21" x="101.05" y="103.3" width="6.46" height="1.71"/><rect class="cls-21" x="115.21" y="101.73" width="16.37" height="1.71"/><rect class="cls-21" x="120.47" y="115.3" width="11.91" height="4.59"/><path class="cls-22" d="M95,141.65h24c-2.23-1.24-3.31-3.44-3-6.8H98C98.59,137.94,97.57,140.2,95,141.65Z"/><rect class="cls-22" x="94.76" y="141.38" width="24.51" height="2.07"/><path class="cls-22" d="M145.2,88.22a3.43,3.43,0,0,0-3.54-3.31H72.38a3.43,3.43,0,0,0-3.54,3.31v38.6H145.2Z"/><path class="cls-22" d="M68.84,126.82v5a3.43,3.43,0,0,0,3.54,3.31h69.28a3.44,3.44,0,0,0,3.54-3.31h0v-5Z"/><rect class="cls-22" x="71.76" y="87.73" width="70.53" height="37.11"/><rect class="cls-22" x="75.26" y="90.91" width="63.42" height="1.56"/><rect class="cls-22" x="75.26" y="92.47" width="63.42" height="29.42"/><rect class="cls-22" x="78.31" y="92.89" width="3.59" height="1.32"/><rect class="cls-22" x="88.52" y="92.89" width="3.59" height="1.32"/><rect class="cls-22" x="93.37" y="92.89" width="3.59" height="1.32"/><rect class="cls-22" x="99.06" y="92.89" width="32.96" height="1.32"/><rect class="cls-22" x="132.02" y="92.89" width="3.61" height="1.32"/><rect class="cls-22" x="77.42" y="95.29" width="59.09" height="25.58"/><rect class="cls-22" x="80.75" y="97.45" width="52.6" height="8.11"/><rect class="cls-22" x="83.76" y="97.9" width="47.75" height="1.71"/><rect class="cls-22" x="83.76" y="100.74" width="11.27" height="1.71"/><rect class="cls-22" x="100.95" y="103.1" width="6.46" height="1.71"/><rect class="cls-22" x="115.11" y="101.54" width="16.37" height="1.71"/><rect class="cls-22" x="120.37" y="115.11" width="11.91" height="4.59"/><path class="cls-23" d="M94.91,141.45h24c-2.23-1.23-3.31-3.43-3-6.8h-18C98.49,137.75,97.47,140,94.91,141.45Z"/><rect class="cls-23" x="94.66" y="141.18" width="24.51" height="2.07"/><path class="cls-23" d="M145.1,88a3.44,3.44,0,0,0-3.54-3.32H72.28A3.43,3.43,0,0,0,68.74,88v38.59H145.1Z"/><path class="cls-23" d="M68.74,126.62v5a3.43,3.43,0,0,0,3.54,3.32h69.28a3.44,3.44,0,0,0,3.54-3.31h0v-5Z"/><rect class="cls-23" x="71.66" y="87.54" width="70.53" height="37.11"/><rect class="cls-23" x="75.16" y="90.72" width="63.42" height="1.56"/><rect class="cls-23" x="75.16" y="92.28" width="63.42" height="29.42"/><rect class="cls-23" x="78.21" y="92.7" width="3.59" height="1.32"/><rect class="cls-23" x="88.42" y="92.7" width="3.59" height="1.32"/><rect class="cls-23" x="93.27" y="92.7" width="3.59" height="1.32"/><rect class="cls-23" x="98.96" y="92.7" width="32.96" height="1.32"/><rect class="cls-23" x="131.92" y="92.7" width="3.61" height="1.32"/><rect class="cls-23" x="77.32" y="95.1" width="59.09" height="25.58"/><rect class="cls-23" x="80.65" y="97.26" width="52.6" height="8.11"/><rect class="cls-23" x="83.66" y="97.71" width="47.75" height="1.71"/><rect class="cls-23" x="83.66" y="100.55" width="11.27" height="1.71"/><rect class="cls-23" x="100.85" y="102.91" width="6.46" height="1.71"/><rect class="cls-23" x="115.01" y="101.35" width="16.37" height="1.71"/><rect class="cls-23" x="120.27" y="114.91" width="11.91" height="4.59"/><path class="cls-24" d="M94.81,141.26h24c-2.23-1.23-3.31-3.43-3-6.8h-18C98.39,137.55,97.37,139.82,94.81,141.26Z"/><rect class="cls-24" x="94.56" y="140.99" width="24.51" height="2.07"/><path class="cls-24" d="M145,87.84a3.44,3.44,0,0,0-3.54-3.32H72.18a3.43,3.43,0,0,0-3.54,3.32v38.59H145Z"/><path class="cls-24" d="M68.64,126.43v5a3.43,3.43,0,0,0,3.54,3.32h69.28a3.44,3.44,0,0,0,3.54-3.31h0v-5Z"/><rect class="cls-24" x="71.56" y="87.34" width="70.53" height="37.11"/><rect class="cls-24" x="75.06" y="90.53" width="63.42" height="1.56"/><rect class="cls-24" x="75.06" y="92.09" width="63.42" height="29.42"/><rect class="cls-24" x="78.11" y="92.51" width="3.59" height="1.32"/><rect class="cls-24" x="88.32" y="92.51" width="3.59" height="1.32"/><rect class="cls-24" x="93.17" y="92.51" width="3.59" height="1.32"/><rect class="cls-24" x="98.86" y="92.51" width="32.96" height="1.32"/><rect class="cls-24" x="131.82" y="92.51" width="3.61" height="1.32"/><rect class="cls-24" x="77.22" y="94.91" width="59.09" height="25.58"/><rect class="cls-24" x="80.55" y="97.07" width="52.6" height="8.11"/><rect class="cls-24" x="83.56" y="97.52" width="47.75" height="1.71"/><rect class="cls-24" x="83.56" y="100.36" width="11.27" height="1.71"/><rect class="cls-24" x="100.75" y="102.72" width="6.46" height="1.71"/><rect class="cls-24" x="114.91" y="101.16" width="16.37" height="1.71"/><rect class="cls-24" x="120.17" y="114.72" width="11.91" height="4.59"/><path class="cls-25" d="M94.71,141.07h24c-2.23-1.24-3.31-3.44-3-6.8h-18C98.29,137.36,97.27,139.62,94.71,141.07Z"/><rect class="cls-25" x="94.46" y="140.8" width="24.51" height="2.07"/><path class="cls-25" d="M144.9,87.64a3.43,3.43,0,0,0-3.54-3.31H72.08a3.43,3.43,0,0,0-3.54,3.31v38.6H144.9Z"/><path class="cls-25" d="M68.54,126.24v5a3.43,3.43,0,0,0,3.54,3.31h69.28a3.43,3.43,0,0,0,3.54-3.31h0v-5Z"/><rect class="cls-25" x="71.46" y="87.15" width="70.53" height="37.11"/><rect class="cls-25" x="74.96" y="90.33" width="63.42" height="1.56"/><rect class="cls-25" x="74.96" y="91.89" width="63.42" height="29.42"/><rect class="cls-25" x="78.01" y="92.31" width="3.59" height="1.32"/><rect class="cls-25" x="88.22" y="92.31" width="3.59" height="1.32"/><rect class="cls-25" x="93.07" y="92.31" width="3.59" height="1.32"/><rect class="cls-25" x="98.76" y="92.31" width="32.96" height="1.32"/><rect class="cls-25" x="131.72" y="92.31" width="3.61" height="1.32"/><rect class="cls-25" x="77.12" y="94.72" width="59.09" height="25.58"/><rect class="cls-25" x="80.45" y="96.88" width="52.6" height="8.11"/><rect class="cls-25" x="83.46" y="97.33" width="47.75" height="1.71"/><rect class="cls-25" x="83.46" y="100.17" width="11.27" height="1.71"/><rect class="cls-25" x="100.65" y="102.53" width="6.46" height="1.71"/><rect class="cls-25" x="114.81" y="100.96" width="16.37" height="1.71"/><rect class="cls-25" x="120.07" y="114.53" width="11.91" height="4.59"/><path class="cls-26" d="M94.61,140.88h24c-2.23-1.24-3.31-3.44-3-6.8h-18C98.19,137.17,97.17,139.43,94.61,140.88Z"/><rect class="cls-26" x="94.37" y="140.61" width="24.51" height="2.07"/><path class="cls-26" d="M144.8,87.45a3.43,3.43,0,0,0-3.54-3.31H72a3.43,3.43,0,0,0-3.54,3.31v38.6H144.8Z"/><path class="cls-26" d="M68.44,126.05v5A3.43,3.43,0,0,0,72,134.33h69.28A3.44,3.44,0,0,0,144.8,131h0v-5Z"/><rect class="cls-26" x="71.36" y="86.96" width="70.53" height="37.11"/><rect class="cls-26" x="74.86" y="90.14" width="63.42" height="1.56"/><rect class="cls-26" x="74.86" y="91.7" width="63.42" height="29.42"/><rect class="cls-26" x="77.91" y="92.12" width="3.59" height="1.32"/><rect class="cls-26" x="88.12" y="92.12" width="3.59" height="1.32"/><rect class="cls-26" x="92.97" y="92.12" width="3.59" height="1.32"/><rect class="cls-26" x="98.66" y="92.12" width="32.96" height="1.32"/><rect class="cls-26" x="131.62" y="92.12" width="3.61" height="1.32"/><rect class="cls-26" x="77.02" y="94.52" width="59.09" height="25.58"/><rect class="cls-26" x="80.35" y="96.68" width="52.6" height="8.11"/><rect class="cls-26" x="83.36" y="97.13" width="47.75" height="1.71"/><rect class="cls-26" x="83.36" y="99.97" width="11.27" height="1.71"/><rect class="cls-26" x="100.55" y="102.34" width="6.46" height="1.71"/><rect class="cls-26" x="114.71" y="100.77" width="16.37" height="1.71"/><rect class="cls-26" x="119.97" y="114.34" width="11.91" height="4.59"/><path class="cls-27" d="M94.51,140.69h24c-2.23-1.24-3.31-3.44-3-6.8h-18C98.1,137,97.07,139.24,94.51,140.69Z"/><rect class="cls-27" x="94.27" y="140.41" width="24.51" height="2.07"/><path class="cls-27" d="M144.7,87.26A3.43,3.43,0,0,0,141.16,84H71.88a3.43,3.43,0,0,0-3.54,3.31v38.59H144.7Z"/><path class="cls-27" d="M68.34,125.85v5a3.43,3.43,0,0,0,3.54,3.32h69.28a3.44,3.44,0,0,0,3.54-3.31h0v-5Z"/><rect class="cls-27" x="71.26" y="86.77" width="70.53" height="37.11"/><rect class="cls-27" x="74.76" y="89.95" width="63.42" height="1.56"/><rect class="cls-27" x="74.76" y="91.51" width="63.42" height="29.42"/><rect class="cls-27" x="77.81" y="91.93" width="3.59" height="1.32"/><rect class="cls-27" x="88.02" y="91.93" width="3.59" height="1.32"/><rect class="cls-27" x="92.87" y="91.93" width="3.59" height="1.32"/><rect class="cls-27" x="98.56" y="91.93" width="32.96" height="1.32"/><rect class="cls-27" x="131.52" y="91.93" width="3.61" height="1.32"/><rect class="cls-27" x="76.92" y="94.33" width="59.09" height="25.58"/><rect class="cls-27" x="80.25" y="96.49" width="52.6" height="8.11"/><rect class="cls-27" x="83.26" y="96.94" width="47.75" height="1.71"/><rect class="cls-27" x="83.26" y="99.78" width="11.27" height="1.71"/><rect class="cls-27" x="100.45" y="102.14" width="6.46" height="1.71"/><rect class="cls-27" x="114.61" y="100.58" width="16.37" height="1.71"/><rect class="cls-27" x="119.87" y="114.15" width="11.91" height="4.59"/><path class="cls-28" d="M94.41,140.49h24c-2.23-1.23-3.31-3.43-3-6.8h-18C98,136.79,97,139.05,94.41,140.49Z"/><rect class="cls-28" x="94.17" y="140.22" width="24.51" height="2.07"/><path class="cls-28" d="M144.6,87.07a3.44,3.44,0,0,0-3.54-3.32H71.78a3.43,3.43,0,0,0-3.54,3.32v38.59H144.6Z"/><path class="cls-28" d="M68.24,125.66v5A3.43,3.43,0,0,0,71.78,134h69.28a3.43,3.43,0,0,0,3.54-3.31h0v-5Z"/><rect class="cls-28" x="71.16" y="86.57" width="70.53" height="37.11"/><rect class="cls-28" x="74.66" y="89.76" width="63.42" height="1.56"/><rect class="cls-28" x="74.66" y="91.32" width="63.42" height="29.42"/><rect class="cls-28" x="77.71" y="91.74" width="3.59" height="1.32"/><rect class="cls-28" x="87.92" y="91.74" width="3.59" height="1.32"/><rect class="cls-28" x="92.77" y="91.74" width="3.59" height="1.32"/><rect class="cls-28" x="98.46" y="91.74" width="32.96" height="1.32"/><rect class="cls-28" x="131.42" y="91.74" width="3.61" height="1.32"/><rect class="cls-28" x="76.82" y="94.14" width="59.09" height="25.58"/><rect class="cls-28" x="80.15" y="96.3" width="52.6" height="8.11"/><rect class="cls-28" x="83.16" y="96.75" width="47.75" height="1.71"/><rect class="cls-28" x="83.16" y="99.59" width="11.27" height="1.71"/><rect class="cls-28" x="100.35" y="101.95" width="6.46" height="1.71"/><rect class="cls-28" x="114.51" y="100.39" width="16.37" height="1.71"/><rect class="cls-28" x="119.77" y="113.95" width="11.91" height="4.59"/><path class="cls-29" d="M94.31,140.3h24c-2.23-1.23-3.31-3.44-3-6.8h-18C97.9,136.59,96.88,138.86,94.31,140.3Z"/><rect class="cls-29" x="94.07" y="140.03" width="24.51" height="2.07"/><path class="cls-29" d="M144.5,86.88A3.43,3.43,0,0,0,141,83.56H71.68a3.43,3.43,0,0,0-3.54,3.32v38.59H144.5Z"/><path class="cls-29" d="M68.14,125.47v5a3.43,3.43,0,0,0,3.54,3.31H141a3.43,3.43,0,0,0,3.54-3.31h0v-5Z"/><rect class="cls-29" x="71.06" y="86.38" width="70.53" height="37.11"/><rect class="cls-29" x="74.56" y="89.57" width="63.42" height="1.56"/><rect class="cls-29" x="74.56" y="91.12" width="63.42" height="29.42"/><rect class="cls-29" x="77.61" y="91.54" width="3.59" height="1.32"/><rect class="cls-29" x="87.82" y="91.54" width="3.59" height="1.32"/><rect class="cls-29" x="92.67" y="91.54" width="3.59" height="1.32"/><rect class="cls-29" x="98.36" y="91.54" width="32.96" height="1.32"/><rect class="cls-29" x="131.32" y="91.54" width="3.61" height="1.32"/><rect class="cls-29" x="76.72" y="93.95" width="59.09" height="25.58"/><rect class="cls-29" x="80.06" y="96.11" width="52.6" height="8.11"/><rect class="cls-29" x="83.06" y="96.56" width="47.75" height="1.71"/><rect class="cls-29" x="83.06" y="99.4" width="11.27" height="1.71"/><rect class="cls-29" x="100.25" y="101.76" width="6.46" height="1.71"/><rect class="cls-29" x="114.41" y="100.2" width="16.37" height="1.71"/><rect class="cls-29" x="119.67" y="113.76" width="11.91" height="4.59"/><path class="cls-30" d="M94.21,140.11h24c-2.23-1.24-3.31-3.44-3-6.8h-18C97.8,136.4,96.78,138.66,94.21,140.11Z"/><rect class="cls-30" x="93.97" y="139.84" width="24.51" height="2.07"/><path class="cls-30" d="M144.4,86.68a3.43,3.43,0,0,0-3.54-3.31H71.58A3.43,3.43,0,0,0,68,86.68v38.6H144.4Z"/><path class="cls-30" d="M68,125.28v5a3.43,3.43,0,0,0,3.54,3.31h69.28a3.43,3.43,0,0,0,3.54-3.31h0v-5Z"/><rect class="cls-30" x="70.96" y="86.19" width="70.53" height="37.11"/><rect class="cls-30" x="74.46" y="89.37" width="63.42" height="1.56"/><rect class="cls-30" x="74.46" y="90.93" width="63.42" height="29.42"/><rect class="cls-30" x="77.51" y="91.35" width="3.59" height="1.32"/><rect class="cls-30" x="87.72" y="91.35" width="3.59" height="1.32"/><rect class="cls-30" x="92.57" y="91.35" width="3.59" height="1.32"/><rect class="cls-30" x="98.26" y="91.35" width="32.96" height="1.32"/><rect class="cls-30" x="131.22" y="91.35" width="3.61" height="1.32"/><rect class="cls-30" x="76.62" y="93.75" width="59.09" height="25.58"/><rect class="cls-30" x="79.96" y="95.92" width="52.6" height="8.11"/><rect class="cls-30" x="82.96" y="96.37" width="47.75" height="1.71"/><rect class="cls-30" x="82.96" y="99.2" width="11.27" height="1.71"/><rect class="cls-30" x="100.15" y="101.57" width="6.46" height="1.71"/><rect class="cls-30" x="114.31" y="100" width="16.37" height="1.71"/><rect class="cls-30" x="119.57" y="113.57" width="11.91" height="4.59"/><path class="cls-31" d="M94.11,139.92h24c-2.23-1.24-3.31-3.44-3-6.8h-18C97.7,136.21,96.68,138.47,94.11,139.92Z"/><rect class="cls-31" x="93.87" y="139.65" width="24.51" height="2.07"/><path class="cls-31" d="M144.3,86.49a3.43,3.43,0,0,0-3.54-3.31H71.48a3.43,3.43,0,0,0-3.54,3.31v38.6H144.3Z"/><path class="cls-31" d="M67.94,125.09v5a3.43,3.43,0,0,0,3.54,3.31h69.28a3.43,3.43,0,0,0,3.54-3.31h0v-5Z"/><rect class="cls-31" x="70.86" y="86" width="70.53" height="37.11"/><rect class="cls-31" x="74.36" y="89.18" width="63.42" height="1.56"/><rect class="cls-31" x="74.36" y="90.74" width="63.42" height="29.42"/><rect class="cls-31" x="77.41" y="91.16" width="3.59" height="1.32"/><rect class="cls-31" x="87.62" y="91.16" width="3.59" height="1.32"/><rect class="cls-31" x="92.47" y="91.16" width="3.59" height="1.32"/><rect class="cls-31" x="98.16" y="91.16" width="32.96" height="1.32"/><rect class="cls-31" x="131.12" y="91.16" width="3.61" height="1.32"/><rect class="cls-31" x="76.52" y="93.56" width="59.09" height="25.58"/><rect class="cls-31" x="79.86" y="95.72" width="52.6" height="8.11"/><rect class="cls-31" x="82.86" y="96.17" width="47.75" height="1.71"/><rect class="cls-31" x="82.86" y="99.01" width="11.27" height="1.71"/><rect class="cls-31" x="100.05" y="101.37" width="6.46" height="1.71"/><rect class="cls-31" x="114.21" y="99.81" width="16.37" height="1.71"/><rect class="cls-31" x="119.47" y="113.38" width="11.91" height="4.59"/><path class="cls-32" d="M94,139.72h24c-2.23-1.23-3.31-3.43-3-6.8H97C97.6,136,96.58,138.28,94,139.72Z"/><rect class="cls-32" x="93.77" y="139.45" width="24.51" height="2.07"/><path class="cls-32" d="M144.2,86.3A3.43,3.43,0,0,0,140.66,83H71.38a3.44,3.44,0,0,0-3.54,3.32v38.59H144.2Z"/><path class="cls-32" d="M67.84,124.89v5a3.44,3.44,0,0,0,3.54,3.32h69.28a3.43,3.43,0,0,0,3.54-3.31h0v-5Z"/><rect class="cls-32" x="70.76" y="85.81" width="70.53" height="37.11"/><rect class="cls-32" x="74.26" y="88.99" width="63.42" height="1.56"/><rect class="cls-32" x="74.26" y="90.55" width="63.42" height="29.42"/><rect class="cls-32" x="77.31" y="90.97" width="3.59" height="1.32"/><rect class="cls-32" x="87.52" y="90.97" width="3.59" height="1.32"/><rect class="cls-32" x="92.37" y="90.97" width="3.59" height="1.32"/><rect class="cls-32" x="98.06" y="90.97" width="32.96" height="1.32"/><rect class="cls-32" x="131.02" y="90.97" width="3.61" height="1.32"/><rect class="cls-32" x="76.42" y="93.37" width="59.09" height="25.58"/><rect class="cls-32" x="79.76" y="95.53" width="52.6" height="8.11"/><rect class="cls-32" x="82.76" y="95.98" width="47.75" height="1.71"/><rect class="cls-32" x="82.76" y="98.82" width="11.27" height="1.71"/><rect class="cls-32" x="99.95" y="101.18" width="6.46" height="1.71"/><rect class="cls-32" x="114.11" y="99.62" width="16.37" height="1.71"/><rect class="cls-32" x="119.37" y="113.18" width="11.91" height="4.59"/><path class="cls-33" d="M93.91,139.53h24c-2.23-1.23-3.31-3.43-3-6.8h-18C97.5,135.82,96.48,138.09,93.91,139.53Z"/><rect class="cls-33" x="93.67" y="139.26" width="24.51" height="2.07"/><path class="cls-33" d="M144.1,86.11a3.43,3.43,0,0,0-3.54-3.32H71.28a3.44,3.44,0,0,0-3.54,3.32V124.7H144.1Z"/><path class="cls-33" d="M67.74,124.7v5A3.44,3.44,0,0,0,71.28,133h69.28a3.43,3.43,0,0,0,3.54-3.31h0v-5Z"/><rect class="cls-33" x="70.66" y="85.61" width="70.53" height="37.11"/><rect class="cls-33" x="74.16" y="88.8" width="63.42" height="1.56"/><rect class="cls-33" x="74.16" y="90.36" width="63.42" height="29.42"/><rect class="cls-33" x="77.21" y="90.78" width="3.59" height="1.32"/><rect class="cls-33" x="87.42" y="90.78" width="3.59" height="1.32"/><rect class="cls-33" x="92.27" y="90.78" width="3.59" height="1.32"/><rect class="cls-33" x="97.96" y="90.78" width="32.96" height="1.32"/><rect class="cls-33" x="130.92" y="90.78" width="3.61" height="1.32"/><rect class="cls-33" x="76.32" y="93.18" width="59.09" height="25.58"/><rect class="cls-33" x="79.66" y="95.34" width="52.6" height="8.11"/><rect class="cls-33" x="82.66" y="95.79" width="47.75" height="1.71"/><rect class="cls-33" x="82.66" y="98.63" width="11.27" height="1.71"/><rect class="cls-33" x="99.85" y="100.99" width="6.46" height="1.71"/><rect class="cls-33" x="114.01" y="99.43" width="16.37" height="1.71"/><rect class="cls-33" x="119.27" y="112.99" width="11.91" height="4.59"/><path class="cls-34" d="M93.81,139.34h24c-2.23-1.24-3.31-3.44-3-6.8h-18C97.4,135.63,96.38,137.89,93.81,139.34Z"/><rect class="cls-34" x="93.57" y="139.07" width="24.51" height="2.07"/><path class="cls-34" d="M144,85.91a3.43,3.43,0,0,0-3.54-3.31H71.18a3.43,3.43,0,0,0-3.54,3.31v38.6H144Z"/><path class="cls-34" d="M67.64,124.51v5a3.43,3.43,0,0,0,3.54,3.31h69.28a3.43,3.43,0,0,0,3.54-3.31h0v-5Z"/><rect class="cls-34" x="70.56" y="85.42" width="70.53" height="37.11"/><rect class="cls-34" x="74.06" y="88.6" width="63.42" height="1.56"/><rect class="cls-34" x="74.06" y="90.16" width="63.42" height="29.42"/><rect class="cls-34" x="77.11" y="90.58" width="3.59" height="1.32"/><rect class="cls-34" x="87.32" y="90.58" width="3.59" height="1.32"/><rect class="cls-34" x="92.17" y="90.58" width="3.59" height="1.32"/><rect class="cls-34" x="97.86" y="90.58" width="32.96" height="1.32"/><rect class="cls-34" x="130.82" y="90.58" width="3.61" height="1.32"/><rect class="cls-34" x="76.22" y="92.99" width="59.09" height="25.58"/><rect class="cls-34" x="79.56" y="95.15" width="52.6" height="8.11"/><rect class="cls-34" x="82.56" y="95.6" width="47.75" height="1.71"/><rect class="cls-34" x="82.56" y="98.44" width="11.27" height="1.71"/><rect class="cls-34" x="99.75" y="100.8" width="6.46" height="1.71"/><rect class="cls-34" x="113.91" y="99.23" width="16.37" height="1.71"/><rect class="cls-34" x="119.17" y="112.8" width="11.91" height="4.59"/><path class="cls-35" d="M93.71,139.15h24c-2.22-1.24-3.31-3.44-3-6.8h-18C97.3,135.44,96.28,137.7,93.71,139.15Z"/><rect class="cls-35" x="93.47" y="138.88" width="24.51" height="2.07"/><path class="cls-35" d="M143.9,85.72a3.43,3.43,0,0,0-3.54-3.31H71.08a3.43,3.43,0,0,0-3.54,3.31v38.6H143.9Z"/><path class="cls-35" d="M67.54,124.32v5a3.43,3.43,0,0,0,3.54,3.31h69.28a3.43,3.43,0,0,0,3.54-3.31h0v-5Z"/><rect class="cls-35" x="70.46" y="85.23" width="70.53" height="37.11"/><rect class="cls-35" x="73.96" y="88.41" width="63.42" height="1.56"/><rect class="cls-35" x="73.96" y="89.97" width="63.42" height="29.42"/><rect class="cls-35" x="77.01" y="90.39" width="3.59" height="1.32"/><rect class="cls-35" x="87.22" y="90.39" width="3.59" height="1.32"/><rect class="cls-35" x="92.07" y="90.39" width="3.59" height="1.32"/><rect class="cls-35" x="97.76" y="90.39" width="32.96" height="1.32"/><rect class="cls-35" x="130.72" y="90.39" width="3.61" height="1.32"/><rect class="cls-35" x="76.12" y="92.79" width="59.09" height="25.58"/><rect class="cls-35" x="79.46" y="94.95" width="52.6" height="8.11"/><rect class="cls-35" x="82.46" y="95.4" width="47.75" height="1.71"/><rect class="cls-35" x="82.46" y="98.24" width="11.27" height="1.71"/><rect class="cls-35" x="99.65" y="100.61" width="6.46" height="1.71"/><rect class="cls-35" x="113.81" y="99.04" width="16.37" height="1.71"/><rect class="cls-35" x="119.07" y="112.61" width="11.91" height="4.59"/><path class="cls-36" d="M93.61,139h24c-2.22-1.24-3.31-3.44-3-6.8h-18C97.2,135.25,96.18,137.51,93.61,139Z"/><rect class="cls-36" x="93.37" y="138.68" width="24.51" height="2.07"/><path class="cls-36" d="M143.8,85.53a3.43,3.43,0,0,0-3.54-3.32H71a3.44,3.44,0,0,0-3.54,3.32v38.59H143.8Z"/><path class="cls-36" d="M67.44,124.12v5A3.44,3.44,0,0,0,71,132.41h69.28a3.43,3.43,0,0,0,3.54-3.31h0v-5Z"/><rect class="cls-36" x="70.36" y="85.04" width="70.53" height="37.11"/><rect class="cls-36" x="73.86" y="88.22" width="63.42" height="1.56"/><rect class="cls-36" x="73.86" y="89.78" width="63.42" height="29.42"/><rect class="cls-36" x="76.91" y="90.2" width="3.59" height="1.32"/><rect class="cls-36" x="87.12" y="90.2" width="3.59" height="1.32"/><rect class="cls-36" x="91.97" y="90.2" width="3.59" height="1.32"/><rect class="cls-36" x="97.66" y="90.2" width="32.96" height="1.32"/><rect class="cls-36" x="130.62" y="90.2" width="3.61" height="1.32"/><rect class="cls-36" x="76.02" y="92.6" width="59.09" height="25.58"/><rect class="cls-36" x="79.36" y="94.76" width="52.6" height="8.11"/><rect class="cls-36" x="82.36" y="95.21" width="47.75" height="1.71"/><rect class="cls-36" x="82.36" y="98.05" width="11.27" height="1.71"/><rect class="cls-36" x="99.55" y="100.41" width="6.46" height="1.71"/><rect class="cls-36" x="113.71" y="98.85" width="16.37" height="1.71"/><rect class="cls-36" x="118.97" y="112.42" width="11.91" height="4.59"/><path class="cls-37" d="M93.51,138.76h24c-2.22-1.23-3.31-3.43-3-6.8h-18C97.1,135.06,96.08,137.32,93.51,138.76Z"/><rect class="cls-37" x="93.27" y="138.49" width="24.51" height="2.07"/><path class="cls-37" d="M143.7,85.34A3.43,3.43,0,0,0,140.16,82H70.88a3.44,3.44,0,0,0-3.54,3.32v38.59H143.7Z"/><path class="cls-37" d="M67.34,123.93v5a3.44,3.44,0,0,0,3.54,3.32h69.28a3.43,3.43,0,0,0,3.54-3.31h0v-5Z"/><rect class="cls-37" x="70.26" y="84.84" width="70.53" height="37.11"/><rect class="cls-37" x="73.76" y="88.03" width="63.42" height="1.56"/><rect class="cls-37" x="73.76" y="89.59" width="63.42" height="29.42"/><rect class="cls-37" x="76.82" y="90.01" width="3.59" height="1.32"/><rect class="cls-37" x="87.02" y="90.01" width="3.59" height="1.32"/><rect class="cls-37" x="91.87" y="90.01" width="3.59" height="1.32"/><rect class="cls-37" x="97.56" y="90.01" width="32.96" height="1.32"/><rect class="cls-37" x="130.52" y="90.01" width="3.61" height="1.32"/><rect class="cls-37" x="75.93" y="92.41" width="59.09" height="25.58"/><rect class="cls-37" x="79.26" y="94.57" width="52.6" height="8.11"/><rect class="cls-37" x="82.26" y="95.02" width="47.75" height="1.71"/><rect class="cls-37" x="82.26" y="97.86" width="11.27" height="1.71"/><rect class="cls-37" x="99.45" y="100.22" width="6.46" height="1.71"/><rect class="cls-37" x="113.61" y="98.66" width="16.37" height="1.71"/><rect class="cls-37" x="118.87" y="112.22" width="11.91" height="4.59"/><path class="cls-38" d="M93.41,138.57h24c-2.22-1.23-3.31-3.44-3-6.8h-18C97,134.86,96,137.13,93.41,138.57Z"/><rect class="cls-38" x="93.17" y="138.3" width="24.51" height="2.07"/><path class="cls-38" d="M143.6,85.15a3.43,3.43,0,0,0-3.54-3.32H70.78a3.43,3.43,0,0,0-3.54,3.32v38.59H143.6Z"/><path class="cls-38" d="M67.24,123.74v5A3.43,3.43,0,0,0,70.78,132h69.28a3.43,3.43,0,0,0,3.54-3.31h0v-5Z"/><rect class="cls-38" x="70.16" y="84.65" width="70.53" height="37.11"/><rect class="cls-38" x="73.66" y="87.84" width="63.42" height="1.56"/><rect class="cls-38" x="73.66" y="89.39" width="63.42" height="29.42"/><rect class="cls-38" x="76.72" y="89.81" width="3.59" height="1.32"/><rect class="cls-38" x="86.92" y="89.81" width="3.59" height="1.32"/><rect class="cls-38" x="91.77" y="89.81" width="3.59" height="1.32"/><rect class="cls-38" x="97.46" y="89.81" width="32.96" height="1.32"/><rect class="cls-38" x="130.42" y="89.81" width="3.61" height="1.32"/><rect class="cls-38" x="75.83" y="92.22" width="59.09" height="25.58"/><rect class="cls-38" x="79.16" y="94.38" width="52.6" height="8.11"/><rect class="cls-38" x="82.16" y="94.83" width="47.75" height="1.71"/><rect class="cls-38" x="82.16" y="97.67" width="11.27" height="1.71"/><rect class="cls-38" x="99.35" y="100.03" width="6.46" height="1.71"/><rect class="cls-38" x="113.51" y="98.47" width="16.37" height="1.71"/><rect class="cls-38" x="118.77" y="112.03" width="11.91" height="4.59"/><path class="cls-39" d="M93.31,138.38h24c-2.22-1.24-3.31-3.44-3-6.8h-18C96.9,134.67,95.88,136.93,93.31,138.38Z"/><rect class="cls-39" x="93.07" y="138.11" width="24.51" height="2.07"/><path class="cls-39" d="M143.5,85A3.43,3.43,0,0,0,140,81.64H70.68A3.43,3.43,0,0,0,67.14,85v38.6H143.5Z"/><path class="cls-39" d="M67.14,123.55v5a3.43,3.43,0,0,0,3.54,3.31H140a3.43,3.43,0,0,0,3.54-3.31h0v-5Z"/><rect class="cls-39" x="70.06" y="84.46" width="70.53" height="37.11"/><rect class="cls-39" x="73.56" y="87.64" width="63.42" height="1.56"/><rect class="cls-39" x="73.56" y="89.2" width="63.42" height="29.42"/><rect class="cls-39" x="76.62" y="89.62" width="3.59" height="1.32"/><rect class="cls-39" x="86.82" y="89.62" width="3.59" height="1.32"/><rect class="cls-39" x="91.67" y="89.62" width="3.59" height="1.32"/><rect class="cls-39" x="97.36" y="89.62" width="32.96" height="1.32"/><rect class="cls-39" x="130.32" y="89.62" width="3.61" height="1.32"/><rect class="cls-39" x="75.73" y="92.02" width="59.09" height="25.58"/><rect class="cls-39" x="79.06" y="94.19" width="52.6" height="8.11"/><rect class="cls-39" x="82.06" y="94.64" width="47.75" height="1.71"/><rect class="cls-39" x="82.06" y="97.47" width="11.27" height="1.71"/><rect class="cls-39" x="99.25" y="99.84" width="6.46" height="1.71"/><rect class="cls-39" x="113.41" y="98.27" width="16.37" height="1.71"/><rect class="cls-39" x="118.67" y="111.84" width="11.91" height="4.59"/><path class="cls-40" d="M93.21,138.19h24c-2.22-1.24-3.31-3.44-3-6.8h-18C96.8,134.48,95.78,136.74,93.21,138.19Z"/><rect class="cls-40" x="92.97" y="137.92" width="24.51" height="2.07"/><path class="cls-40" d="M143.4,84.76a3.43,3.43,0,0,0-3.54-3.31H70.58A3.43,3.43,0,0,0,67,84.76v38.6H143.4Z"/><path class="cls-40" d="M67,123.36v5a3.43,3.43,0,0,0,3.54,3.31h69.28a3.43,3.43,0,0,0,3.54-3.31h0v-5Z"/><rect class="cls-40" x="69.96" y="84.27" width="70.53" height="37.11"/><rect class="cls-40" x="73.46" y="87.45" width="63.42" height="1.56"/><rect class="cls-40" x="73.46" y="89.01" width="63.42" height="29.42"/><rect class="cls-40" x="76.52" y="89.43" width="3.59" height="1.32"/><rect class="cls-40" x="86.72" y="89.43" width="3.59" height="1.32"/><rect class="cls-40" x="91.57" y="89.43" width="3.59" height="1.32"/><rect class="cls-40" x="97.26" y="89.43" width="32.96" height="1.32"/><rect class="cls-40" x="130.22" y="89.43" width="3.61" height="1.32"/><rect class="cls-40" x="75.63" y="91.83" width="59.09" height="25.58"/><rect class="cls-40" x="78.96" y="93.99" width="52.6" height="8.11"/><rect class="cls-40" x="81.96" y="94.44" width="47.75" height="1.71"/><rect class="cls-40" x="81.96" y="97.28" width="11.27" height="1.71"/><rect class="cls-40" x="99.16" y="99.64" width="6.46" height="1.71"/><rect class="cls-40" x="113.31" y="98.08" width="16.37" height="1.71"/><rect class="cls-40" x="118.57" y="111.65" width="11.91" height="4.59"/><path class="cls-41" d="M93.11,138h24c-2.22-1.23-3.31-3.43-3-6.8h-18C96.7,134.29,95.68,136.55,93.11,138Z"/><rect class="cls-41" x="92.87" y="137.72" width="24.51" height="2.07"/><path class="cls-41" d="M143.3,84.57a3.43,3.43,0,0,0-3.54-3.32H70.48a3.44,3.44,0,0,0-3.54,3.32v38.59H143.3Z"/><path class="cls-41" d="M66.94,123.16v5a3.44,3.44,0,0,0,3.54,3.32h69.28a3.43,3.43,0,0,0,3.54-3.31h0v-5Z"/><rect class="cls-41" x="69.86" y="84.08" width="70.53" height="37.11"/><rect class="cls-41" x="73.36" y="87.26" width="63.42" height="1.56"/><rect class="cls-41" x="73.36" y="88.82" width="63.42" height="29.42"/><rect class="cls-41" x="76.42" y="89.24" width="3.59" height="1.32"/><rect class="cls-41" x="86.62" y="89.24" width="3.59" height="1.32"/><rect class="cls-41" x="91.47" y="89.24" width="3.59" height="1.32"/><rect class="cls-41" x="97.16" y="89.24" width="32.96" height="1.32"/><rect class="cls-41" x="130.12" y="89.24" width="3.61" height="1.32"/><rect class="cls-41" x="75.53" y="91.64" width="59.09" height="25.58"/><rect class="cls-41" x="78.86" y="93.8" width="52.6" height="8.11"/><rect class="cls-41" x="81.86" y="94.25" width="47.75" height="1.71"/><rect class="cls-41" x="81.86" y="97.09" width="11.27" height="1.71"/><rect class="cls-41" x="99.06" y="99.45" width="6.46" height="1.71"/><rect class="cls-41" x="113.21" y="97.89" width="16.37" height="1.71"/><rect class="cls-41" x="118.47" y="111.45" width="11.91" height="4.59"/><path class="cls-42" d="M93,137.8h24c-2.22-1.23-3.31-3.43-3-6.8H96C96.6,134.09,95.58,136.36,93,137.8Z"/><rect class="cls-42" x="92.77" y="137.53" width="24.51" height="2.07"/><path class="cls-42" d="M143.2,84.38a3.43,3.43,0,0,0-3.54-3.32H70.38a3.44,3.44,0,0,0-3.54,3.32V123H143.2Z"/><path class="cls-42" d="M66.84,123v5a3.44,3.44,0,0,0,3.54,3.32h69.28A3.43,3.43,0,0,0,143.2,128h0v-5Z"/><rect class="cls-42" x="69.76" y="83.88" width="70.53" height="37.11"/><rect class="cls-42" x="73.26" y="87.07" width="63.42" height="1.56"/><rect class="cls-42" x="73.26" y="88.63" width="63.42" height="29.42"/><rect class="cls-42" x="76.32" y="89.05" width="3.59" height="1.32"/><rect class="cls-42" x="86.52" y="89.05" width="3.59" height="1.32"/><rect class="cls-42" x="91.37" y="89.05" width="3.59" height="1.32"/><rect class="cls-42" x="97.06" y="89.05" width="32.96" height="1.32"/><rect class="cls-42" x="130.02" y="89.05" width="3.61" height="1.32"/><rect class="cls-42" x="75.43" y="91.45" width="59.09" height="25.58"/><rect class="cls-42" x="78.76" y="93.61" width="52.6" height="8.11"/><rect class="cls-42" x="81.76" y="94.06" width="47.75" height="1.71"/><rect class="cls-42" x="81.76" y="96.9" width="11.27" height="1.71"/><rect class="cls-42" x="98.96" y="99.26" width="6.46" height="1.71"/><rect class="cls-42" x="113.11" y="97.7" width="16.37" height="1.71"/><rect class="cls-42" x="118.37" y="111.26" width="11.91" height="4.59"/><path class="cls-43" d="M92.91,137.61h24c-2.22-1.24-3.31-3.44-3-6.8h-18C96.5,133.9,95.48,136.16,92.91,137.61Z"/><rect class="cls-43" x="92.67" y="137.34" width="24.51" height="2.07"/><path class="cls-43" d="M143.1,84.18a3.43,3.43,0,0,0-3.54-3.31H70.28a3.43,3.43,0,0,0-3.54,3.31v38.6H143.1Z"/><path class="cls-43" d="M66.74,122.78v5a3.43,3.43,0,0,0,3.54,3.31h69.28a3.43,3.43,0,0,0,3.54-3.31h0v-5Z"/><rect class="cls-43" x="69.66" y="83.69" width="70.53" height="37.11"/><rect class="cls-43" x="73.16" y="86.87" width="63.42" height="1.56"/><rect class="cls-43" x="73.16" y="88.43" width="63.42" height="29.42"/><rect class="cls-43" x="76.22" y="88.85" width="3.59" height="1.32"/><rect class="cls-43" x="86.42" y="88.85" width="3.59" height="1.32"/><rect class="cls-43" x="91.27" y="88.85" width="3.59" height="1.32"/><rect class="cls-43" x="96.96" y="88.85" width="32.96" height="1.32"/><rect class="cls-43" x="129.92" y="88.85" width="3.61" height="1.32"/><rect class="cls-43" x="75.33" y="91.25" width="59.09" height="25.58"/><rect class="cls-43" x="78.66" y="93.42" width="52.6" height="8.11"/><rect class="cls-43" x="81.66" y="93.87" width="47.75" height="1.71"/><rect class="cls-43" x="81.66" y="96.71" width="11.27" height="1.71"/><rect class="cls-43" x="98.86" y="99.07" width="6.46" height="1.71"/><rect class="cls-43" x="113.01" y="97.5" width="16.37" height="1.71"/><rect class="cls-43" x="118.27" y="111.07" width="11.91" height="4.59"/><path class="cls-44" d="M92.81,137.42h24c-2.22-1.24-3.31-3.44-3-6.8h-18C96.4,133.71,95.38,136,92.81,137.42Z"/><rect class="cls-44" x="92.57" y="137.15" width="24.51" height="2.07"/><path class="cls-44" d="M143,84a3.43,3.43,0,0,0-3.54-3.31H70.18A3.43,3.43,0,0,0,66.64,84v38.6H143Z"/><path class="cls-44" d="M66.64,122.59v5a3.43,3.43,0,0,0,3.54,3.31h69.28a3.43,3.43,0,0,0,3.54-3.31h0v-5Z"/><rect class="cls-44" x="69.56" y="83.5" width="70.53" height="37.11"/><rect class="cls-44" x="73.06" y="86.68" width="63.42" height="1.56"/><rect class="cls-44" x="73.06" y="88.24" width="63.42" height="29.42"/><rect class="cls-44" x="76.12" y="88.66" width="3.59" height="1.32"/><rect class="cls-44" x="86.32" y="88.66" width="3.59" height="1.32"/><rect class="cls-44" x="91.17" y="88.66" width="3.59" height="1.32"/><rect class="cls-44" x="96.86" y="88.66" width="32.96" height="1.32"/><rect class="cls-44" x="129.82" y="88.66" width="3.61" height="1.32"/><rect class="cls-44" x="75.23" y="91.06" width="59.09" height="25.58"/><rect class="cls-44" x="78.56" y="93.22" width="52.6" height="8.11"/><rect class="cls-44" x="81.56" y="93.67" width="47.75" height="1.71"/><rect class="cls-44" x="81.56" y="96.51" width="11.27" height="1.71"/><rect class="cls-44" x="98.76" y="98.88" width="6.46" height="1.71"/><rect class="cls-44" x="112.91" y="97.31" width="16.37" height="1.71"/><rect class="cls-44" x="118.17" y="110.88" width="11.91" height="4.59"/><path class="cls-45" d="M92.71,137.23h24c-2.22-1.24-3.31-3.44-3-6.8h-18C96.3,133.52,95.28,135.78,92.71,137.23Z"/><rect class="cls-45" x="92.47" y="136.95" width="24.51" height="2.07"/><path class="cls-45" d="M142.9,83.8a3.43,3.43,0,0,0-3.54-3.32H70.08a3.44,3.44,0,0,0-3.54,3.32v38.59H142.9Z"/><path class="cls-45" d="M66.54,122.39v5a3.44,3.44,0,0,0,3.54,3.32h69.28a3.43,3.43,0,0,0,3.54-3.31h0v-5Z"/><rect class="cls-45" x="69.46" y="83.31" width="70.53" height="37.11"/><rect class="cls-45" x="72.96" y="86.49" width="63.42" height="1.56"/><rect class="cls-45" x="72.96" y="88.05" width="63.42" height="29.42"/><rect class="cls-45" x="76.02" y="88.47" width="3.59" height="1.32"/><rect class="cls-45" x="86.23" y="88.47" width="3.59" height="1.32"/><rect class="cls-45" x="91.07" y="88.47" width="3.59" height="1.32"/><rect class="cls-45" x="96.76" y="88.47" width="32.96" height="1.32"/><rect class="cls-45" x="129.72" y="88.47" width="3.61" height="1.32"/><rect class="cls-45" x="75.13" y="90.87" width="59.09" height="25.58"/><rect class="cls-45" x="78.46" y="93.03" width="52.6" height="8.11"/><rect class="cls-45" x="81.46" y="93.48" width="47.75" height="1.71"/><rect class="cls-45" x="81.46" y="96.32" width="11.27" height="1.71"/><rect class="cls-45" x="98.66" y="98.68" width="6.46" height="1.71"/><rect class="cls-45" x="112.81" y="97.12" width="16.37" height="1.71"/><rect class="cls-45" x="118.07" y="110.69" width="11.91" height="4.59"/><path class="cls-46" d="M92.61,137h24c-2.22-1.23-3.31-3.43-3-6.8h-18C96.2,133.33,95.18,135.59,92.61,137Z"/><rect class="cls-46" x="92.37" y="136.76" width="24.51" height="2.07"/><path class="cls-46" d="M142.8,83.61a3.43,3.43,0,0,0-3.54-3.32H70a3.44,3.44,0,0,0-3.54,3.32V122.2H142.8Z"/><path class="cls-46" d="M66.44,122.2v5A3.44,3.44,0,0,0,70,130.49h69.28a3.43,3.43,0,0,0,3.54-3.31h0v-5Z"/><rect class="cls-46" x="69.36" y="83.11" width="70.53" height="37.11"/><rect class="cls-46" x="72.86" y="86.3" width="63.42" height="1.56"/><rect class="cls-46" x="72.86" y="87.86" width="63.42" height="29.42"/><rect class="cls-46" x="75.92" y="88.28" width="3.59" height="1.32"/><rect class="cls-46" x="86.13" y="88.28" width="3.59" height="1.32"/><rect class="cls-46" x="90.97" y="88.28" width="3.59" height="1.32"/><rect class="cls-46" x="96.66" y="88.28" width="32.96" height="1.32"/><rect class="cls-46" x="129.62" y="88.28" width="3.61" height="1.32"/><rect class="cls-46" x="75.03" y="90.68" width="59.09" height="25.58"/><rect class="cls-46" x="78.36" y="92.84" width="52.6" height="8.11"/><rect class="cls-46" x="81.36" y="93.29" width="47.75" height="1.71"/><rect class="cls-46" x="81.36" y="96.13" width="11.27" height="1.71"/><rect class="cls-46" x="98.56" y="98.49" width="6.46" height="1.71"/><rect class="cls-46" x="112.71" y="96.93" width="16.37" height="1.71"/><rect class="cls-46" x="117.97" y="110.49" width="11.91" height="4.59"/><path class="cls-47" d="M92.51,136.84h24c-2.22-1.23-3.31-3.44-3-6.8h-18C96.1,133.13,95.08,135.4,92.51,136.84Z"/><rect class="cls-47" x="92.27" y="136.57" width="24.51" height="2.07"/><path class="cls-47" d="M142.7,83.42a3.43,3.43,0,0,0-3.54-3.32H69.88a3.43,3.43,0,0,0-3.54,3.32V122H142.7Z"/><path class="cls-47" d="M66.34,122v5a3.43,3.43,0,0,0,3.54,3.31h69.28A3.43,3.43,0,0,0,142.7,127h0v-5Z"/><rect class="cls-47" x="69.26" y="82.92" width="70.53" height="37.11"/><rect class="cls-47" x="72.77" y="86.11" width="63.42" height="1.56"/><rect class="cls-47" x="72.77" y="87.66" width="63.42" height="29.42"/><rect class="cls-47" x="75.82" y="88.08" width="3.59" height="1.32"/><rect class="cls-47" x="86.03" y="88.08" width="3.59" height="1.32"/><rect class="cls-47" x="90.87" y="88.08" width="3.59" height="1.32"/><rect class="cls-47" x="96.56" y="88.08" width="32.96" height="1.32"/><rect class="cls-47" x="129.52" y="88.08" width="3.61" height="1.32"/><rect class="cls-47" x="74.93" y="90.49" width="59.09" height="25.58"/><rect class="cls-47" x="78.26" y="92.65" width="52.6" height="8.11"/><rect class="cls-47" x="81.26" y="93.1" width="47.75" height="1.71"/><rect class="cls-47" x="81.26" y="95.94" width="11.27" height="1.71"/><rect class="cls-47" x="98.46" y="98.3" width="6.46" height="1.71"/><rect class="cls-47" x="112.61" y="96.74" width="16.37" height="1.71"/><rect class="cls-47" x="117.87" y="110.3" width="11.91" height="4.59"/><path class="cls-48" d="M92.41,136.65h24c-2.22-1.24-3.31-3.44-3-6.8h-18C96,132.94,95,135.2,92.41,136.65Z"/><rect class="cls-48" x="92.17" y="136.38" width="24.51" height="2.07"/><path class="cls-48" d="M142.6,83.22a3.43,3.43,0,0,0-3.54-3.31H69.78a3.43,3.43,0,0,0-3.54,3.31v38.6H142.6Z"/><path class="cls-48" d="M66.24,121.82v5a3.43,3.43,0,0,0,3.54,3.31h69.28a3.43,3.43,0,0,0,3.54-3.31h0v-5Z"/><rect class="cls-48" x="69.16" y="82.73" width="70.53" height="37.11"/><rect class="cls-48" x="72.67" y="85.91" width="63.42" height="1.56"/><rect class="cls-48" x="72.67" y="87.47" width="63.42" height="29.42"/><rect class="cls-48" x="75.72" y="87.89" width="3.59" height="1.32"/><rect class="cls-48" x="85.93" y="87.89" width="3.59" height="1.32"/><rect class="cls-48" x="90.77" y="87.89" width="3.59" height="1.32"/><rect class="cls-48" x="96.47" y="87.89" width="32.96" height="1.32"/><rect class="cls-48" x="129.42" y="87.89" width="3.61" height="1.32"/><rect class="cls-48" x="74.83" y="90.29" width="59.09" height="25.58"/><rect class="cls-48" x="78.16" y="92.46" width="52.6" height="8.11"/><rect class="cls-48" x="81.16" y="92.91" width="47.75" height="1.71"/><rect class="cls-48" x="81.16" y="95.74" width="11.27" height="1.71"/><rect class="cls-48" x="98.36" y="98.11" width="6.46" height="1.71"/><rect class="cls-48" x="112.51" y="96.54" width="16.37" height="1.71"/><rect class="cls-48" x="117.77" y="110.11" width="11.91" height="4.59"/><path class="cls-49" d="M92.31,136.46h24c-2.22-1.24-3.31-3.44-3-6.8h-18C95.9,132.75,94.88,135,92.31,136.46Z"/><rect class="cls-49" x="92.07" y="136.19" width="24.51" height="2.07"/><path class="cls-49" d="M142.5,83A3.42,3.42,0,0,0,139,79.72H69.68A3.42,3.42,0,0,0,66.15,83v38.6H142.5Z"/><path class="cls-49" d="M66.15,121.63v5a3.42,3.42,0,0,0,3.53,3.31H139a3.43,3.43,0,0,0,3.54-3.31h0v-5Z"/><rect class="cls-49" x="69.06" y="82.54" width="70.53" height="37.11"/><rect class="cls-49" x="72.57" y="85.72" width="63.42" height="1.56"/><rect class="cls-49" x="72.57" y="87.28" width="63.42" height="29.42"/><rect class="cls-49" x="75.62" y="87.7" width="3.59" height="1.32"/><rect class="cls-49" x="85.83" y="87.7" width="3.59" height="1.32"/><rect class="cls-49" x="90.67" y="87.7" width="3.59" height="1.32"/><rect class="cls-49" x="96.37" y="87.7" width="32.96" height="1.32"/><rect class="cls-49" x="129.32" y="87.7" width="3.61" height="1.32"/><rect class="cls-49" x="74.73" y="90.1" width="59.09" height="25.58"/><rect class="cls-49" x="78.06" y="92.26" width="52.6" height="8.11"/><rect class="cls-49" x="81.06" y="92.71" width="47.75" height="1.71"/><rect class="cls-49" x="81.06" y="95.55" width="11.27" height="1.71"/><rect class="cls-49" x="98.26" y="97.91" width="6.46" height="1.71"/><rect class="cls-49" x="112.41" y="96.35" width="16.37" height="1.71"/><rect class="cls-49" x="117.67" y="109.92" width="11.91" height="4.59"/><path class="cls-50" d="M92.21,136.26h24c-2.23-1.23-3.32-3.43-3-6.8h-18C95.8,132.56,94.78,134.82,92.21,136.26Z"/><rect class="cls-50" x="91.97" y="135.99" width="24.51" height="2.07"/><path class="cls-50" d="M142.4,82.84a3.43,3.43,0,0,0-3.53-3.32H69.58a3.43,3.43,0,0,0-3.53,3.32v38.59H142.4Z"/><path class="cls-50" d="M66.05,121.43v5a3.43,3.43,0,0,0,3.53,3.32h69.28a3.43,3.43,0,0,0,3.54-3.31h0v-5Z"/><rect class="cls-50" x="68.96" y="82.35" width="70.53" height="37.11"/><rect class="cls-50" x="72.47" y="85.53" width="63.42" height="1.56"/><rect class="cls-50" x="72.47" y="87.09" width="63.42" height="29.42"/><rect class="cls-50" x="75.52" y="87.51" width="3.59" height="1.32"/><rect class="cls-50" x="85.73" y="87.51" width="3.59" height="1.32"/><rect class="cls-50" x="90.57" y="87.51" width="3.59" height="1.32"/><rect class="cls-50" x="96.27" y="87.51" width="32.96" height="1.32"/><rect class="cls-50" x="129.22" y="87.51" width="3.61" height="1.32"/><rect class="cls-50" x="74.63" y="89.91" width="59.09" height="25.58"/><rect class="cls-50" x="77.96" y="92.07" width="52.6" height="8.11"/><rect class="cls-50" x="80.96" y="92.52" width="47.75" height="1.71"/><rect class="cls-50" x="80.96" y="95.36" width="11.27" height="1.71"/><rect class="cls-50" x="98.16" y="97.72" width="6.46" height="1.71"/><rect class="cls-50" x="112.31" y="96.16" width="16.37" height="1.71"/><rect class="cls-50" x="117.57" y="109.72" width="11.91" height="4.59"/><path class="cls-51" d="M92.11,136.07h24c-2.23-1.23-3.32-3.43-3-6.8h-18C95.7,132.36,94.68,134.63,92.11,136.07Z"/><rect class="cls-51" x="91.87" y="135.8" width="24.51" height="2.07"/><path class="cls-51" d="M142.3,82.65a3.43,3.43,0,0,0-3.53-3.32H69.48A3.43,3.43,0,0,0,66,82.65v38.59H142.3Z"/><path class="cls-51" d="M66,121.24v5a3.43,3.43,0,0,0,3.53,3.32h69.28a3.43,3.43,0,0,0,3.54-3.31h0v-5Z"/><rect class="cls-51" x="68.86" y="82.15" width="70.53" height="37.11"/><rect class="cls-51" x="72.37" y="85.34" width="63.42" height="1.56"/><rect class="cls-51" x="72.37" y="86.9" width="63.42" height="29.42"/><rect class="cls-51" x="75.42" y="87.32" width="3.59" height="1.32"/><rect class="cls-51" x="85.63" y="87.32" width="3.59" height="1.32"/><rect class="cls-51" x="90.47" y="87.32" width="3.59" height="1.32"/><rect class="cls-51" x="96.17" y="87.32" width="32.96" height="1.32"/><rect class="cls-51" x="129.12" y="87.32" width="3.61" height="1.32"/><rect class="cls-51" x="74.53" y="89.72" width="59.09" height="25.58"/><rect class="cls-51" x="77.86" y="91.88" width="52.6" height="8.11"/><rect class="cls-51" x="80.86" y="92.33" width="47.75" height="1.71"/><rect class="cls-51" x="80.86" y="95.17" width="11.27" height="1.71"/><rect class="cls-51" x="98.06" y="97.53" width="6.46" height="1.71"/><rect class="cls-51" x="112.21" y="95.97" width="16.37" height="1.71"/><rect class="cls-51" x="117.47" y="109.53" width="11.91" height="4.59"/><path class="cls-52" d="M92,135.88h24c-2.23-1.24-3.32-3.44-3-6.8H95C95.6,132.17,94.58,134.43,92,135.88Z"/><rect class="cls-52" x="91.77" y="135.61" width="24.51" height="2.07"/><path class="cls-52" d="M142.2,82.45a3.42,3.42,0,0,0-3.53-3.31H69.38a3.42,3.42,0,0,0-3.53,3.31v38.6H142.2Z"/><path class="cls-52" d="M65.85,121.05v5a3.42,3.42,0,0,0,3.53,3.31h69.28A3.43,3.43,0,0,0,142.2,126h0v-5Z"/><rect class="cls-52" x="68.76" y="81.96" width="70.53" height="37.11"/><rect class="cls-52" x="72.27" y="85.14" width="63.42" height="1.56"/><rect class="cls-52" x="72.27" y="86.7" width="63.42" height="29.42"/><rect class="cls-52" x="75.32" y="87.12" width="3.59" height="1.32"/><rect class="cls-52" x="85.53" y="87.12" width="3.59" height="1.32"/><rect class="cls-52" x="90.37" y="87.12" width="3.59" height="1.32"/><rect class="cls-52" x="96.07" y="87.12" width="32.96" height="1.32"/><rect class="cls-52" x="129.02" y="87.12" width="3.61" height="1.32"/><rect class="cls-52" x="74.43" y="89.52" width="59.09" height="25.58"/><rect class="cls-52" x="77.76" y="91.69" width="52.6" height="8.11"/><rect class="cls-52" x="80.76" y="92.14" width="47.75" height="1.71"/><rect class="cls-52" x="80.76" y="94.98" width="11.27" height="1.71"/><rect class="cls-52" x="97.96" y="97.34" width="6.46" height="1.71"/><rect class="cls-52" x="112.11" y="95.77" width="16.37" height="1.71"/><rect class="cls-52" x="117.37" y="109.34" width="11.91" height="4.59"/><path class="cls-53" d="M91.76,135.69h24.5c-2.27-1.23-3.38-3.44-3.09-6.8H94.85C95.42,132,94.38,134.25,91.76,135.69Z"/><rect class="cls-54" x="91.52" y="135.42" width="24.99" height="2.07"/><path class="cls-55" d="M142.94,82.27a3.46,3.46,0,0,0-3.6-3.32H68.68a3.46,3.46,0,0,0-3.6,3.32v38.59h77.86Z"/><path class="cls-1" d="M65.08,120.86v5a3.46,3.46,0,0,0,3.6,3.31h70.65a3.46,3.46,0,0,0,3.61-3.31h0v-5Z"/><rect class="cls-56" x="68.05" y="81.77" width="71.92" height="37.11"/><rect class="cls-57" x="71.63" y="84.96" width="64.67" height="1.56"/><rect class="cls-58" x="71.63" y="86.51" width="64.67" height="29.42"/><rect class="cls-59" x="74.74" y="86.93" width="3.66" height="1.32"/><rect class="cls-59" x="85.15" y="86.93" width="3.66" height="1.32"/><rect class="cls-59" x="90.09" y="86.93" width="3.66" height="1.32"/><rect class="cls-1" x="95.9" y="86.93" width="33.61" height="1.32"/><rect class="cls-57" x="129.5" y="86.93" width="3.68" height="1.32"/><rect class="cls-1" x="73.83" y="89.34" width="60.26" height="25.58"/><rect class="cls-60" x="77.23" y="91.5" width="53.64" height="8.11"/><rect class="cls-61" x="80.29" y="91.95" width="48.7" height="1.71"/><rect class="cls-61" x="80.29" y="94.79" width="11.49" height="1.71"/><rect class="cls-61" x="97.82" y="97.15" width="6.59" height="1.71"/><rect class="cls-61" x="112.26" y="95.59" width="16.7" height="1.71"/><rect class="cls-59" x="117.62" y="109.15" width="12.15" height="4.59"/><line class="cls-62" x1="77.06" y1="100.87" x2="120.57" y2="100.87"/><line class="cls-62" x1="77.06" y1="102.13" x2="126.13" y2="102.13"/><line class="cls-62" x1="77.06" y1="103.39" x2="127.41" y2="103.39"/><line class="cls-62" x1="77.06" y1="104.65" x2="115.86" y2="104.65"/><line class="cls-62" x1="77.06" y1="106.54" x2="126.97" y2="106.54"/><line class="cls-62" x1="77.06" y1="107.81" x2="128.68" y2="107.81"/><line class="cls-62" x1="77.06" y1="109.07" x2="115.61" y2="109.07"/><line class="cls-62" x1="77.06" y1="110.33" x2="103.71" y2="110.33"/><line class="cls-62" x1="77.06" y1="111.95" x2="115.61" y2="111.95"/><line class="cls-62" x1="77.06" y1="113.21" x2="115.6" y2="113.21"/><polygon class="cls-63" points="114.66 74.13 113.69 74.13 113.69 56.02 98.73 56.02 98.73 38.42 76.36 38.42 76.36 24.34 52.96 24.34 52.96 23.37 77.33 23.37 77.33 37.45 99.7 37.45 99.7 55.04 114.66 55.04 114.66 74.13"/><polygon class="cls-64" points="110.89 74.45 109.92 74.45 109.92 31.32 53.09 31.32 53.09 30.34 110.89 30.34 110.89 74.45"/><polygon class="cls-65" points="107 73.35 106.02 73.35 106.02 52.34 101.87 52.34 101.87 34.75 69.79 34.75 69.79 38.14 53.47 38.14 53.47 37.16 68.81 37.16 68.81 33.77 102.85 33.77 102.85 51.37 107 51.37 107 73.35"/><circle class="cls-66" cx="52.65" cy="23.77" r="1.75"/><circle class="cls-67" cx="52.7" cy="30.68" r="1.75"/><circle class="cls-67" cx="110.47" cy="74.77" r="1.75"/><circle class="cls-66" cx="114.04" cy="74.77" r="1.75"/><circle class="cls-68" cx="52.6" cy="37.78" r="1.75"/><circle class="cls-68" cx="106.54" cy="74.77" r="1.75"/><path class="cls-69" d="M43.23,5.72H9.29A3.84,3.84,0,0,0,5.46,9.55v50.5a3.84,3.84,0,0,0,3.83,3.84H43.23a3.84,3.84,0,0,0,3.84-3.84V9.55A3.84,3.84,0,0,0,43.23,5.72Z"/><path class="cls-70" d="M43.23,4.63H9.29A3.84,3.84,0,0,0,5.46,8.47V59A3.84,3.84,0,0,0,9.29,62.8H43.23A3.84,3.84,0,0,0,47.07,59V8.47A3.84,3.84,0,0,0,43.23,4.63Z"/><polygon class="cls-60" points="32.85 9.38 19.68 9.38 10.61 9.38 10.61 10.93 19.68 10.93 32.85 10.93 41.92 10.93 41.92 9.38 32.85 9.38"/><rect class="cls-60" x="10.61" y="15.93" width="31.3" height="0.69"/><rect class="cls-60" x="10.61" y="17.57" width="31.3" height="0.69"/><rect class="cls-60" x="10.61" y="19.21" width="17.82" height="0.69"/><rect class="cls-60" x="10.61" y="20.85" width="31.3" height="0.69"/><rect class="cls-60" x="10.61" y="22.49" width="31.3" height="0.69"/><rect class="cls-60" x="10.61" y="24.13" width="6.9" height="0.69"/><rect class="cls-60" x="10.61" y="27.4" width="31.3" height="0.69"/><rect class="cls-60" x="10.61" y="29.04" width="31.3" height="0.69"/><rect class="cls-60" x="10.61" y="30.68" width="31.3" height="0.69"/><rect class="cls-60" x="10.61" y="32.32" width="21" height="0.69"/><rect class="cls-60" x="10.61" y="35.59" width="31.3" height="0.69"/><rect class="cls-60" x="10.61" y="37.23" width="31.3" height="0.69"/><rect class="cls-60" x="10.61" y="38.87" width="31.3" height="0.69"/><rect class="cls-60" x="10.61" y="40.51" width="21.15" height="0.69"/><rect class="cls-60" x="10.61" y="43.79" width="31.3" height="0.69"/><rect class="cls-60" x="10.61" y="45.43" width="11.55" height="0.69"/><rect class="cls-60" x="10.61" y="55.75" width="31.3" height="0.3"/><path class="cls-60" d="M15.57,50.1a3,3,0,1,0,3,3A3,3,0,0,0,15.57,50.1Zm0,5.47a2.51,2.51,0,1,1,2.51-2.5A2.51,2.51,0,0,1,15.57,55.57Z"/><path class="cls-60" d="M15.57,50.94a2.13,2.13,0,1,0,2.13,2.13A2.13,2.13,0,0,0,15.57,50.94Z"/><path class="cls-60" d="M19.72,53.07c0-.19.24-.33.25-.5s-.27-.19-.36-.45.16-.38.12-.55-.3-.12-.45-.36.07-.4,0-.56-.33,0-.53-.24,0-.41-.13-.54-.33,0-.57-.12-.12-.39-.25-.5-.31.1-.58,0-.21-.35-.36-.42-.28.16-.56.14-.29-.29-.45-.33-.24.23-.51.28-.35-.22-.52-.22-.17.28-.43.38S14,49,13.84,49s-.11.31-.33.47-.41,0-.56,0,0,.33-.21.54-.41,0-.54.16.05.33-.08.57-.39.15-.48.29.11.3,0,.57-.34.23-.41.39.19.27.18.55-.27.3-.3.47.24.22.3.49-.2.35-.18.52.28.16.41.41-.12.4-.06.56.31.09.49.3,0,.41.07.55.32,0,.54.19.08.4.2.52.32-.06.58,0,.16.37.31.46.3-.13.57-.08.25.33.41.38.26-.2.54-.21.31.26.48.27.21-.25.48-.33.37.18.53.16.15-.3.39-.43.4.09.56,0,.07-.32.27-.5.41,0,.55-.11,0-.32.15-.55.4-.1.51-.23-.08-.32,0-.57.37-.19.45-.34-.16-.29-.12-.57.31-.26.35-.43S19.75,53.34,19.72,53.07Zm-4.15,3.62a3.62,3.62,0,1,1,3.62-3.62A3.62,3.62,0,0,1,15.57,56.69Z"/><path class="cls-60" d="M13.31,50.81a.08.08,0,1,0-.11,0A.08.08,0,0,0,13.31,50.81Z"/><path class="cls-60" d="M12.85,51.25a.09.09,0,0,0,.11,0,.08.08,0,0,0,0-.11.08.08,0,0,0-.11,0A.09.09,0,0,0,12.85,51.25Z"/><path class="cls-60" d="M12.3,52.86a.09.09,0,0,0,.09-.07.1.1,0,0,0-.07-.09.09.09,0,0,0-.09.08A.08.08,0,0,0,12.3,52.86Z"/><path class="cls-60" d="M12.57,51.76a.07.07,0,0,0,.1,0,.07.07,0,0,0,0-.1.09.09,0,0,0-.11,0A.09.09,0,0,0,12.57,51.76Z"/><path class="cls-60" d="M12.57,54.36a.08.08,0,0,0,0,.11.07.07,0,0,0,.1,0,.07.07,0,0,0,0-.1A.08.08,0,0,0,12.57,54.36Z"/><path class="cls-60" d="M12.39,53.33a.09.09,0,0,0-.09-.07.08.08,0,0,0-.07.08.09.09,0,0,0,.09.08A.1.1,0,0,0,12.39,53.33Z"/><path class="cls-60" d="M12.84,54.87a.08.08,0,0,0,0,.11.06.06,0,0,0,.1,0,.07.07,0,0,0,0-.11A.09.09,0,0,0,12.84,54.87Z"/><path class="cls-60" d="M12.39,53.84a.08.08,0,0,0-.06.09.1.1,0,0,0,.1.06.07.07,0,0,0,.05-.1A.07.07,0,0,0,12.39,53.84Z"/><path class="cls-60" d="M13.19,55.31a.08.08,0,1,0,.11,0A.08.08,0,0,0,13.19,55.31Z"/><path class="cls-60" d="M12.43,52.13a.08.08,0,0,0-.09.06.07.07,0,0,0,.05.09.07.07,0,0,0,.1-.05A.1.1,0,0,0,12.43,52.13Z"/><path class="cls-60" d="M17.4,50.46a.08.08,0,0,0,.1,0,.07.07,0,0,0,0-.11.07.07,0,0,0-.1,0A.07.07,0,0,0,17.4,50.46Z"/><path class="cls-60" d="M16.92,50.18a.08.08,0,0,0,.11,0A.08.08,0,0,0,17,50a.08.08,0,0,0-.1,0A.07.07,0,0,0,16.92,50.18Z"/><path class="cls-60" d="M16.39,50a.08.08,0,0,0,.1-.06.08.08,0,0,0-.06-.09.07.07,0,0,0-.09,0A.08.08,0,0,0,16.39,50Z"/><path class="cls-60" d="M17.94,50.82a.08.08,0,1,0-.11,0A.08.08,0,0,0,17.94,50.82Z"/><path class="cls-60" d="M14.22,50.18a.08.08,0,0,0,0-.1.08.08,0,0,0-.11,0,.08.08,0,0,0,0,.1A.08.08,0,0,0,14.22,50.18Z"/><path class="cls-60" d="M14.75,50a.09.09,0,0,0,.06-.1.08.08,0,0,0-.1,0,.07.07,0,0,0-.05.09A.08.08,0,0,0,14.75,50Z"/><path class="cls-60" d="M15.79,49.82h0Z"/><path class="cls-60" d="M15.2,49.82h0Z"/><path class="cls-60" d="M13.75,50.45a.09.09,0,0,0,0-.11.09.09,0,0,0-.11,0,.07.07,0,0,0,0,.11S13.71,50.47,13.75,50.45Z"/><path class="cls-60" d="M18.74,52.8s.05.08.09.07a.08.08,0,0,0,.07-.08.07.07,0,0,0-.08-.07A.08.08,0,0,0,18.74,52.8Z"/><path class="cls-60" d="M18.83,53.27a.08.08,0,1,0,.07.09A.09.09,0,0,0,18.83,53.27Z"/><path class="cls-60" d="M18.56,54.37s-.09,0-.1,0a.09.09,0,0,0,0,.11.09.09,0,0,0,.11,0A.08.08,0,0,0,18.56,54.37Z"/><path class="cls-60" d="M18.74,52.3a.09.09,0,0,0,.06-.1.08.08,0,0,0-.1-.05.07.07,0,0,0-.05.09A.08.08,0,0,0,18.74,52.3Z"/><path class="cls-60" d="M18.57,51.77a.08.08,0,0,0,0-.1.07.07,0,0,0-.1,0,.07.07,0,0,0,0,.1A.08.08,0,0,0,18.57,51.77Z"/><path class="cls-60" d="M18.29,51.26a.09.09,0,0,0,0-.11.08.08,0,0,0-.11,0,.07.07,0,0,0,0,.11A.09.09,0,0,0,18.29,51.26Z"/><path class="cls-60" d="M18.7,54a.08.08,0,0,0,0-.15.08.08,0,0,0-.1,0A.09.09,0,0,0,18.7,54Z"/><path class="cls-60" d="M18.28,54.88a.09.09,0,0,0-.11,0,.09.09,0,0,0,0,.11.07.07,0,0,0,.11,0A.09.09,0,0,0,18.28,54.88Z"/><path class="cls-60" d="M14.21,56a.08.08,0,0,0-.11,0,.08.08,0,0,0,0,.1.07.07,0,0,0,.1,0A.07.07,0,0,0,14.21,56Z"/><path class="cls-60" d="M15.84,56.24a.08.08,0,0,0-.07.08s0,.08.09.07a.08.08,0,0,0,.07-.08A.09.09,0,0,0,15.84,56.24Z"/><path class="cls-60" d="M15.28,56.24a.07.07,0,0,0-.09.07.08.08,0,1,0,.09-.07Z"/><path class="cls-60" d="M14.74,56.14a.1.1,0,0,0-.1.06.08.08,0,0,0,.06.09.09.09,0,0,0,.1,0A.09.09,0,0,0,14.74,56.14Z"/><path class="cls-60" d="M13.74,55.68a.08.08,0,0,0-.11,0,.07.07,0,0,0,0,.11.07.07,0,0,0,.11,0A.08.08,0,0,0,13.74,55.68Z"/><path class="cls-60" d="M17.39,55.68a.07.07,0,0,0,0,.11.07.07,0,0,0,.1,0,.07.07,0,0,0,0-.11A.08.08,0,0,0,17.39,55.68Z"/><path class="cls-60" d="M17.82,55.32a.08.08,0,1,0,.11,0A.08.08,0,0,0,17.82,55.32Z"/><path class="cls-60" d="M16.91,56a.08.08,0,0,0,0,.11.07.07,0,0,0,.1,0,.07.07,0,0,0,0-.1A.09.09,0,0,0,16.91,56Z"/><path class="cls-60" d="M16.38,56.15a.08.08,0,0,0-.06.09.1.1,0,0,0,.1.06.07.07,0,0,0,0-.1A.07.07,0,0,0,16.38,56.15Z"/></svg>