<svg id="Layer_1" data-name="Layer 1" xmlns="http://www.w3.org/2000/svg" xmlns:xlink="http://www.w3.org/1999/xlink" viewBox="0 0 150 150"><defs><style>.cls-1{fill:none;}.cls-2{fill:#f8c456;}.cls-3{clip-path:url(#clip-path);}.cls-4{fill:#404041;}.cls-5{fill:#8aa2be;}.cls-6{fill:#6f3824;}.cls-7{fill:#603120;}.cls-8{fill:#804931;}.cls-9{fill:#9c5a42;}.cls-10{fill:#718097;}.cls-11{fill:#663929;}.cls-12{fill:#fff9e6;}.cls-13{fill:#f9f1d2;}.cls-14{fill:#e5dab7;}.cls-15{fill:#d1bcab;}.cls-16{fill:#bca796;}.cls-17{fill:#6db6bc;}.cls-18{fill:#566d70;}.cls-19{fill:#568387;}.cls-20{fill:#ffbd52;}.cls-21{fill:#b7bec7;}.cls-22{fill:#858689;}.cls-23{fill:#ecd8c7;}.cls-24{fill:#dac3b1;}.cls-25{fill:#f1dfce;}.cls-26{fill:#f8e7d6;}.cls-27{fill:#603813;}.cls-28{fill:#8c8d90;}</style><clipPath id="clip-path"><circle class="cls-1" cx="75" cy="75" r="72.48"/></clipPath></defs><circle class="cls-2" cx="75" cy="75" r="72.48"/><g class="cls-3"><path class="cls-4" d="M113.49,73.27s0,0,0-.08V68.62a2.68,2.68,0,0,1,2.68-2.68h15.16A2.68,2.68,0,0,1,134,68.62v4.57s0,0,0,.08h3.8v-5.5a3.66,3.66,0,0,0-3.67-3.66H113.36a3.66,3.66,0,0,0-3.67,3.66v5.5Z"/><rect class="cls-5" x="131.83" y="71.8" width="6.57" height="3.51"/><rect class="cls-5" x="109.08" y="71.8" width="6.57" height="3.51"/><rect class="cls-6" x="96.86" y="78.72" width="53.77" height="29.04" rx="1.36"/><path class="cls-7" d="M96.74,75V85.27A1.76,1.76,0,0,0,98,86.91l25.65,5.19a6.89,6.89,0,0,0,2.56,0l23.23-5.19a1.76,1.76,0,0,0,1.28-1.64V75Z"/><path class="cls-8" d="M96.74,73.56V83.84A1.76,1.76,0,0,0,98,85.49l25.65,5.18a6.89,6.89,0,0,0,2.56,0l23.23-5.18a1.76,1.76,0,0,0,1.28-1.65V73.56Z"/><rect class="cls-9" x="96.74" y="73.56" width="54.01" height="1.43"/><polygon class="cls-5" points="121.8 91.71 121.8 91.71 128.1 91.71 128.1 88.04 121.8 88.04 121.8 91.71"/><polygon class="cls-5" points="121.8 94.45 121.8 94.45 128.1 94.45 128.1 90.79 121.8 90.79 121.8 94.45"/><rect class="cls-10" x="121.8" y="90.79" width="6.3" height="0.92"/></g><path class="cls-11" d="M45.17,56.17H16.88a2.61,2.61,0,0,0-2.61,2.61V93.16a2.61,2.61,0,0,0,2.61,2.61H45.17a2.61,2.61,0,0,0,2.61-2.61V58.78A2.61,2.61,0,0,0,45.17,56.17Z"/><path class="cls-8" d="M45.17,55.36H16.88A2.61,2.61,0,0,0,14.27,58V92.35A2.61,2.61,0,0,0,16.88,95H45.17a2.61,2.61,0,0,0,2.61-2.61V58A2.61,2.61,0,0,0,45.17,55.36Z"/><path class="cls-11" d="M43.16,57.28H19.44a1.28,1.28,0,0,0-1.25,1.31v32.2a1.28,1.28,0,0,0,1.25,1.31H43.16a1.28,1.28,0,0,0,1.25-1.31V58.59A1.28,1.28,0,0,0,43.16,57.28Z"/><path class="cls-12" d="M42.56,58H19.49a1.3,1.3,0,0,0-1.3,1.3V89.74a1.3,1.3,0,0,0,1.3,1.3H42.56a1.3,1.3,0,0,0,1.3-1.3V59.27A1.3,1.3,0,0,0,42.56,58Z"/><path class="cls-13" d="M42.56,58H19.49a1.3,1.3,0,0,0-1.3,1.3v.44H43.86v-.44A1.3,1.3,0,0,0,42.56,58Z"/><path class="cls-5" d="M32.85,51.44H28.77a3.19,3.19,0,0,0-3.18,3.21v1.14h1.3V54.65a1.89,1.89,0,0,1,1.88-1.9h4.08a1.89,1.89,0,0,1,1.88,1.9v1.14H36V54.65A3.19,3.19,0,0,0,32.85,51.44Z"/><path class="cls-10" d="M26.89,54.65a1.9,1.9,0,0,1,.6-1.39H25.9a3.22,3.22,0,0,0-.31,1.39v1.14h1.3Z"/><path class="cls-10" d="M34.73,54.65v1.14H36V54.65a3.22,3.22,0,0,0-.31-1.39H34.13A1.9,1.9,0,0,1,34.73,54.65Z"/><path class="cls-14" d="M36.77,54.63H24.85a3.2,3.2,0,0,0-3.18,3.22v1.57H40V57.85A3.2,3.2,0,0,0,36.77,54.63Z"/><path class="cls-5" d="M36.77,54.05H24.85a3.2,3.2,0,0,0-3.18,3.21v1.58H40V57.26A3.2,3.2,0,0,0,36.77,54.05Z"/><path class="cls-10" d="M36.77,54.05H24.85a3.2,3.2,0,0,0-3.18,3.21v.24a3,3,0,0,1,3.18-2.75H36.77A3,3,0,0,1,40,57.5v-.24A3.2,3.2,0,0,0,36.77,54.05Z"/><rect class="cls-15" x="20.75" y="75.63" width="20.56" height="0.46"/><rect class="cls-15" x="20.75" y="76.7" width="20.56" height="0.46"/><rect class="cls-15" x="20.75" y="77.78" width="11.7" height="0.46"/><rect class="cls-15" x="20.75" y="78.86" width="20.56" height="0.46"/><rect class="cls-15" x="20.75" y="79.93" width="20.56" height="0.46"/><rect class="cls-15" x="20.75" y="81.01" width="4.53" height="0.46"/><rect class="cls-15" x="20.75" y="83.66" width="20.56" height="0.46"/><rect class="cls-15" x="20.75" y="84.74" width="20.56" height="0.46"/><rect class="cls-15" x="20.75" y="85.81" width="11.7" height="0.46"/><rect class="cls-15" x="29.6" y="85.81" width="11.7" height="0.46"/><rect class="cls-15" x="20.75" y="86.89" width="11.6" height="0.46"/><rect class="cls-14" x="20.75" y="68.97" width="20.56" height="0.46"/><rect class="cls-14" x="20.75" y="65.91" width="20.56" height="0.46"/><rect class="cls-14" x="20.75" y="62.85" width="20.56" height="0.46"/><rect class="cls-16" x="22.03" y="65.64" width="2.56" height="6.54"/><rect class="cls-17" x="25.79" y="64.55" width="2.56" height="7.63"/><rect class="cls-18" x="33.31" y="65" width="2.56" height="7.18"/><rect class="cls-19" x="29.55" y="63.52" width="2.56" height="8.66"/><rect class="cls-20" x="37.07" y="62.01" width="2.56" height="10.17"/><rect class="cls-15" x="20.75" y="72.04" width="20.56" height="0.46"/><path class="cls-21" d="M106.59,93.59c-4.35-2.93-9.42-4.88-14.17-7.06-1.13-.51-2.28-1-3.42-1.44-.63-.27-2.21-1.32-2.9-1.23l-6.89.93.33,4-.58.07a1,1,0,0,0-.88,1.22l4.46,26.38a110.73,110.73,0,0,0,16.82-1.32c-1.57.28-2.6.37-2.6.37,2.73-1.27,1.31-16.75,1.31-16.75,2.27,4.76,2.38,10.67,2.67,12.85s8,.46,8,.46l-.25.13c2.75-1.22,4.29-2.61,4.61-5C113.61,102.91,110.11,96,106.59,93.59Z"/><path class="cls-21" d="M73.12,88.33,72,87.13l.37-1.76-8.93-2S62.7,84.44,49.69,90a18.5,18.5,0,0,0-12.5,14.28s-1.93,4.8,4.08,8.18c.74.12,7.57,1.22,7.84-.84s.41-8.09,2.7-12.85c0,0-1.43,15.48,1.32,16.75H53a175.24,175.24,0,0,0,18.77,1l1.88-26.75A2,2,0,0,0,73.12,88.33Z"/><path class="cls-22" d="M41.27,112.46H41.2A30.31,30.31,0,0,0,53,115.51a43.69,43.69,0,0,1-9.13-1.89A17.35,17.35,0,0,1,41.27,112.46Z"/><path class="cls-22" d="M51.81,98.77c-2.29,4.76-2.41,10.67-2.7,12.85s-7.1,1-7.84.84a17.35,17.35,0,0,0,2.57,1.16A43.69,43.69,0,0,0,53,115.51h.16C50.38,114.25,51.81,98.77,51.81,98.77Z"/><path class="cls-22" d="M99.36,115.15a32.6,32.6,0,0,0,9.08-2.94,69.51,69.51,0,0,1-6.86,2.39C100.93,114.8,100.18,115,99.36,115.15Z"/><path class="cls-22" d="M100.74,111.62c-.29-2.18-.4-8.09-2.67-12.85,0,0,1.42,15.48-1.31,16.75,0,0,1-.09,2.6-.37.82-.17,1.57-.35,2.22-.55a69.51,69.51,0,0,0,6.86-2.39l.25-.13S101,113.8,100.74,111.62Z"/><path class="cls-4" d="M79.21,84.79l0-.48H72.59l-.21,1.06.93.21Z"/><path class="cls-4" d="M79,88.87l.58-.07-.33-4-5.9.79-.93-.21L72,87.13l1.11,1.2a2,2,0,0,1,.5,1.44l-1.88,26.75c2.23,0,3.63,0,3.64,0s3,.05,7.16,0L78.08,90.09A1,1,0,0,1,79,88.87Z"/><polygon class="cls-23" points="65.4 72.21 65.01 83.83 85.14 85.29 84.88 72.89 65.4 72.21"/><path class="cls-24" d="M62.39,59.94s-2.83-17.45,7.84-17.36S85.59,45.2,85.59,45.2s3.4,8.29,2.83,12.56l.73,3.58-.81,5.06s-4.77,13.78-10,15.26a11.64,11.64,0,0,1-2.69.32c-2.46.11-4.42.24-6.26-1.75A21.08,21.08,0,0,1,65.3,73s-4.61-9.34-4.53-10.21A9.94,9.94,0,0,1,62.39,59.94Z"/><path class="cls-25" d="M61.46,59.15S58.45,42,69.8,42s16.34,2.58,16.34,2.58,3.61,8.17,3,12.38l.77,3.53-.86,5S84,79.11,78.4,80.57a13.67,13.67,0,0,1-2.85.31c-2.62.11-4.71.24-6.66-1.72a20.45,20.45,0,0,1-4.34-7.1S59.65,62.85,59.74,62,61.46,59.15,61.46,59.15Z"/><path class="cls-26" d="M61.94,53.59s-.46-4.81,6.08-6,8.14,3.55,8.14,3.55,2.41,10.55-.46,27.3c-.29,1.73-3.68,1.69-4.9,1.27a5.55,5.55,0,0,1-2.29-2,40.12,40.12,0,0,1-2.83-4.36C65,72.24,64.42,71.12,63.82,70s-2.25-3.23-2.22-4.35Z"/><path class="cls-27" d="M61.54,56.8S60.28,47.74,65,45s7.8-1.72,7.8-1.72-.11.8,7,.92,6.07,2,6.88,3.55,1.83,3.79,2.52,9.18l1.72-.69s1.72-10.32-2.75-17-14.34-5.74-14.34-5.74-12.15.35-13.87,10.78-.81,13.88-.81,13.88l2.07.57Z"/><ellipse class="cls-25" cx="89.74" cy="60.92" rx="4.64" ry="2.34" transform="translate(15.45 139.95) rotate(-80.94)"/><ellipse class="cls-26" cx="60.35" cy="60.92" rx="2.34" ry="4.64" transform="translate(-8.84 10.26) rotate(-9.06)"/><path class="cls-28" d="M75.53,84.54s9.52.87,9.41-5.61c0,0,1-1.55,2.52,5.91,0,0,1.6,5.27-8.26,6.3L76.28,85l-1.89-.06-2.76,5.8S66.07,92,62.86,85.47c0,0,1.09-7.8,2.41-6.37C65.27,79.1,65.21,84.54,75.53,84.54Z"/><path class="cls-21" d="M75.53,84.35s9.52.52,9.41-6c0,0,1-1.55,2.52,5.91,0,0,1.6,5.27-8.26,6.3l-2.92-5.79-1.89,0L71.63,90.2s-5.56,1.21-8.77-5.27c0,0,1.09-7.8,2.41-6.37C65.27,78.56,65.21,84.35,75.53,84.35Z"/></svg>