<svg id="Layer_1" data-name="Layer 1" xmlns="http://www.w3.org/2000/svg" viewBox="0 0 150 150"><defs><style>.cls-1{fill:#3dc4ab;}.cls-2{fill:#0d7f6d;}.cls-3{fill:#484f5d;}.cls-4{fill:#646e81;}.cls-5{fill:#fff;}.cls-10,.cls-11,.cls-16,.cls-18,.cls-6{fill:none;}.cls-6{stroke:#b5b5b6;stroke-width:0.24px;}.cls-10,.cls-11,.cls-16,.cls-24,.cls-6{stroke-miterlimit:10;}.cls-7{fill:#b9b9ba;}.cls-8{fill:#b8b8b9;}.cls-9{fill:#ed5b49;}.cls-10{stroke:#ed5b49;}.cls-10,.cls-11{stroke-width:0.44px;}.cls-11{stroke:#0a3755;}.cls-12{fill:#0a3755;}.cls-13{fill:#eea12e;}.cls-14{fill:#e1ecf3;}.cls-15{fill:#c1c8cb;}.cls-16{stroke:#c1c8cb;stroke-width:0.29px;}.cls-17{fill:#f6f8fa;}.cls-19{fill:#b0bec5;}.cls-20{fill:#546e7a;}.cls-21{fill:#cfd9de;}.cls-22{fill:#e4d9d8;}.cls-23{fill:#f6eced;}.cls-24{fill:#beb3b3;stroke:#948e8e;stroke-width:0.23px;}</style></defs><circle class="cls-1" cx="75" cy="75" r="71.55"/><rect class="cls-2" x="71.07" y="16.2" width="21.39" height="5.27"/><rect class="cls-2" x="49.73" y="16.2" width="21.35" height="5.27"/><rect class="cls-2" x="71.07" y="21.47" width="21.39" height="53.53"/><rect class="cls-2" x="49.73" y="21.47" width="21.35" height="53.53"/><rect class="cls-2" x="58.12" y="53.32" width="5.66" height="3.15"/><rect class="cls-2" x="56.46" y="53.32" width="1.66" height="3.15"/><rect class="cls-2" x="63.78" y="53.32" width="5.66" height="3.15"/><rect class="cls-2" x="80.29" y="53.32" width="5.51" height="3.15"/><rect class="cls-2" x="75.1" y="53.32" width="5.19" height="3.15"/><rect class="cls-2" x="69.44" y="53.32" width="5.66" height="3.15"/><rect class="cls-2" x="75.1" y="51.04" width="5.19" height="2.29"/><rect class="cls-2" x="63.78" y="51.04" width="5.66" height="2.29"/><rect class="cls-2" x="69.44" y="51.04" width="5.66" height="2.29"/><rect class="cls-2" x="58.12" y="51.04" width="5.66" height="2.29"/><rect class="cls-2" x="56.46" y="51.04" width="1.66" height="2.29"/><rect class="cls-2" x="80.29" y="51.04" width="5.51" height="2.29"/><rect class="cls-2" x="82.25" y="54.16" width="2.02" height="0.84"/><rect class="cls-2" x="81.42" y="51.78" width="3.68" height="0.48"/><rect class="cls-2" x="76.72" y="54.16" width="2.02" height="0.84"/><rect class="cls-2" x="75.89" y="51.78" width="3.68" height="0.48"/><rect class="cls-2" x="71.2" y="54.16" width="2.02" height="0.84"/><rect class="cls-2" x="70.37" y="51.78" width="3.68" height="0.48"/><rect class="cls-2" x="65.68" y="54.16" width="2.02" height="0.84"/><rect class="cls-2" x="65.54" y="51.78" width="2.09" height="0.48"/><rect class="cls-2" x="60.15" y="54.16" width="2.02" height="0.84"/><rect class="cls-2" x="59.32" y="51.78" width="3.68" height="0.48"/><rect class="cls-2" x="56.41" y="54.16" width="0.8" height="0.84"/><rect class="cls-2" x="56.39" y="51.78" width="0.81" height="0.48"/><rect class="cls-2" x="56.39" y="47.79" width="1.84" height="1.37"/><rect class="cls-2" x="59.07" y="48.12" width="11.86" height="0.81"/><rect class="cls-2" x="72.03" y="48.12" width="2.03" height="0.81"/><rect class="cls-2" x="75" y="48.12" width="10.17" height="0.81"/><rect class="cls-2" x="56.39" y="58.6" width="29.55" height="0.9"/><rect class="cls-2" x="56.39" y="62.63" width="29.55" height="0.58"/><rect class="cls-2" x="56.39" y="63.79" width="14.84" height="0.58"/><rect class="cls-2" x="72.39" y="63.79" width="13.55" height="0.58"/><rect class="cls-2" x="56.39" y="64.95" width="29.55" height="0.58"/><rect class="cls-2" x="56.39" y="66.1" width="24.23" height="0.58"/><rect class="cls-2" x="56.39" y="61.31" width="10.35" height="0.78"/><rect class="cls-2" x="67.79" y="61.31" width="10.35" height="0.78"/><rect class="cls-2" x="79.19" y="61.31" width="6.75" height="0.78"/><circle class="cls-2" cx="60.96" cy="40.26" r="0.76"/><circle class="cls-2" cx="66.17" cy="41.66" r="0.76"/><circle class="cls-2" cx="71.28" cy="38.94" r="0.76"/><circle class="cls-2" cx="75.41" cy="40" r="0.76"/><circle class="cls-2" cx="79.92" cy="37.88" r="0.76"/><polyline class="cls-2" points="56.59 41.84 60.87 40.26 66.25 41.67 71.37 38.91 75.43 40.04 79.87 37.99"/><polyline class="cls-2" points="82.46 35.84 75.29 37.3 71.61 42.97 66.08 38.01 60.89 43.44 56.59 43.35"/><circle class="cls-2" cx="82.51" cy="35.82" r="0.76"/><circle class="cls-2" cx="75.31" cy="37.35" r="0.76"/><circle class="cls-2" cx="71.58" cy="42.85" r="0.76"/><circle class="cls-2" cx="66.11" cy="38.04" r="0.76"/><circle class="cls-2" cx="60.82" cy="43.39" r="0.76"/><polygon class="cls-2" points="85.48 46.17 56.3 46.17 56.3 33.49 56.74 33.49 56.74 45.73 85.48 45.73 85.48 46.17"/><rect class="cls-2" x="54.83" y="27.65" width="32.6" height="3.26"/><rect class="cls-2" x="56.77" y="28.75" width="28.36" height="0.78"/><rect class="cls-2" x="54.67" y="25.8" width="32.92" height="44.53"/><rect class="cls-2" x="53.29" y="24.51" width="35.78" height="46.92" rx="1.34"/><circle class="cls-2" cx="53.83" cy="18.87" r="1.13"/><circle class="cls-2" cx="56.59" cy="18.87" r="1.13"/><circle class="cls-2" cx="59.35" cy="18.87" r="1.13"/><rect class="cls-3" x="77.17" y="8.99" width="22.46" height="5.27"/><rect class="cls-4" x="56.91" y="8.99" width="21.35" height="5.27"/><rect class="cls-5" x="74.52" y="14.26" width="25.12" height="53.53"/><rect class="cls-5" x="56.91" y="14.26" width="21.35" height="53.53"/><rect class="cls-6" x="65.3" y="46.12" width="5.66" height="3.15"/><rect class="cls-6" x="63.64" y="46.12" width="1.66" height="3.15"/><rect class="cls-6" x="70.96" y="46.12" width="5.66" height="3.15"/><rect class="cls-6" x="87.47" y="46.12" width="5.51" height="3.15"/><rect class="cls-6" x="82.28" y="46.12" width="5.19" height="3.15"/><rect class="cls-6" x="76.62" y="46.12" width="5.66" height="3.15"/><rect class="cls-6" x="82.28" y="43.83" width="5.19" height="2.29"/><rect class="cls-6" x="70.96" y="43.83" width="5.66" height="2.29"/><rect class="cls-6" x="76.62" y="43.83" width="5.66" height="2.29"/><rect class="cls-6" x="65.3" y="43.83" width="5.66" height="2.29"/><rect class="cls-6" x="63.64" y="43.83" width="1.66" height="2.29"/><rect class="cls-6" x="87.47" y="43.83" width="5.51" height="2.29"/><rect class="cls-7" x="89.42" y="46.95" width="2.02" height="0.84"/><rect class="cls-7" x="88.59" y="44.57" width="3.68" height="0.48"/><rect class="cls-7" x="83.9" y="46.95" width="2.02" height="0.84"/><rect class="cls-7" x="83.07" y="44.57" width="3.68" height="0.48"/><rect class="cls-7" x="78.38" y="46.95" width="2.02" height="0.84"/><rect class="cls-7" x="77.55" y="44.57" width="3.68" height="0.48"/><rect class="cls-7" x="72.85" y="46.95" width="2.02" height="0.84"/><rect class="cls-7" x="72.72" y="44.57" width="2.09" height="0.48"/><rect class="cls-7" x="67.33" y="46.95" width="2.02" height="0.84"/><rect class="cls-7" x="66.5" y="44.57" width="3.68" height="0.48"/><rect class="cls-7" x="63.59" y="46.95" width="0.8" height="0.84"/><rect class="cls-7" x="63.57" y="44.57" width="0.81" height="0.48"/><rect class="cls-8" x="63.57" y="40.58" width="1.84" height="1.37"/><rect class="cls-8" x="66.25" y="40.91" width="11.86" height="0.81"/><rect class="cls-8" x="79.21" y="40.91" width="2.03" height="0.81"/><rect class="cls-8" x="82.18" y="40.91" width="10.17" height="0.81"/><rect class="cls-8" x="63.57" y="51.39" width="29.55" height="0.9"/><rect class="cls-8" x="63.57" y="55.43" width="29.55" height="0.58"/><rect class="cls-8" x="63.57" y="56.58" width="14.84" height="0.58"/><rect class="cls-8" x="79.57" y="56.58" width="13.55" height="0.58"/><rect class="cls-8" x="63.57" y="57.74" width="29.55" height="0.58"/><rect class="cls-8" x="63.57" y="58.9" width="24.23" height="0.58"/><rect class="cls-8" x="63.57" y="54.1" width="10.35" height="0.78"/><rect class="cls-8" x="74.97" y="54.1" width="10.35" height="0.78"/><rect class="cls-8" x="86.37" y="54.1" width="6.75" height="0.78"/><circle class="cls-9" cx="68.14" cy="33.05" r="0.76"/><circle class="cls-9" cx="73.35" cy="34.45" r="0.76"/><circle class="cls-9" cx="78.46" cy="31.73" r="0.76"/><circle class="cls-9" cx="82.58" cy="32.79" r="0.76"/><circle class="cls-9" cx="87.1" cy="30.68" r="0.76"/><polyline class="cls-10" points="63.77 34.63 68.04 33.05 73.42 34.47 78.55 31.7 82.61 32.84 87.04 30.78"/><polyline class="cls-11" points="89.64 28.64 82.46 30.1 78.78 35.76 73.26 30.81 68.07 36.23 63.77 36.14"/><circle class="cls-12" cx="89.69" cy="28.61" r="0.76"/><circle class="cls-12" cx="82.49" cy="30.15" r="0.76"/><circle class="cls-12" cx="78.76" cy="35.65" r="0.76"/><circle class="cls-12" cx="73.28" cy="30.83" r="0.76"/><circle class="cls-12" cx="67.99" cy="36.19" r="0.76"/><polygon class="cls-13" points="92.66 38.96 63.48 38.96 63.48 26.28 63.92 26.28 63.92 38.52 92.66 38.52 92.66 38.96"/><rect class="cls-14" x="62.01" y="20.44" width="32.6" height="3.26"/><rect class="cls-15" x="63.95" y="21.54" width="28.36" height="0.78"/><rect class="cls-16" x="61.85" y="18.59" width="32.92" height="44.53"/><rect class="cls-16" x="60.47" y="17.3" width="35.78" height="46.92" rx="1.34"/><circle class="cls-17" cx="61.01" cy="11.66" r="1.13"/><circle class="cls-17" cx="63.77" cy="11.66" r="1.13"/><circle class="cls-17" cx="66.53" cy="11.66" r="1.13"/><path class="cls-18" d="M26.09,30.17a2.83,2.83,0,0,0-2.84-2.83V33A2.84,2.84,0,0,0,26.09,30.17Z"/><path class="cls-18" d="M20.42,30.17A2.83,2.83,0,0,0,23.25,33V27.34A2.83,2.83,0,0,0,20.42,30.17Z"/><path class="cls-19" d="M34.39,22.19v0h0Z"/><path class="cls-20" d="M20.42,30.17a2.83,2.83,0,0,1,2.83-2.83V16.67h-2.4C20.09,23.37,15.3,19,15.3,19L12,22.32c4.21,5.28-2.25,5.59-2.25,5.59v4.66c6.7.76,2.36,5.55,2.36,5.55l3.3,3.3C20.68,37.21,21,43.67,21,43.67h2.25V33A2.83,2.83,0,0,1,20.42,30.17Z"/><path class="cls-19" d="M36.75,32.43V27.76c-6.5-.73-2.6-5.29-2.37-5.55L31.1,18.92c-5.28,4.21-5.59-2.25-5.59-2.25H23.25V27.34a2.83,2.83,0,1,1,0,5.66V43.67h2.41c.75-6.7,5.54-2.36,5.54-2.36L34.5,38C30.29,32.74,36.75,32.43,36.75,32.43Z"/><path class="cls-21" d="M31.14,30.17a7.89,7.89,0,1,1-7.89-7.88A7.88,7.88,0,0,1,31.14,30.17Zm-7.89-5.85a5.85,5.85,0,1,0,5.86,5.85A5.85,5.85,0,0,0,23.25,24.32Z"/><path class="cls-18" d="M37,50.94a2,2,0,0,0-2-2v4A2,2,0,0,0,37,50.94Z"/><path class="cls-18" d="M33,50.94a2,2,0,0,0,2,2v-4A2,2,0,0,0,33,50.94Z"/><path class="cls-19" d="M42.83,45.31h0Z"/><path class="cls-20" d="M33,50.94a2,2,0,0,1,2-2V41.4h-1.7c-.53,4.74-3.92,1.67-3.92,1.67L27,45.4c3,3.72-1.59,4-1.59,4v3.29c4.74.53,1.67,3.92,1.67,3.92l2.33,2.33c3.72-3,3.95,1.59,3.95,1.59H35V52.94A2,2,0,0,1,33,50.94Z"/><path class="cls-19" d="M44.5,52.53V49.24c-4.6-.52-1.84-3.74-1.68-3.92L40.5,43c-3.72,3-4-1.6-4-1.6H35v7.54a2,2,0,1,1,0,4v7.54h1.7c.53-4.74,3.92-1.67,3.92-1.67l2.32-2.33C39.93,52.76,44.5,52.53,44.5,52.53Z"/><path class="cls-21" d="M40.53,50.94A5.57,5.57,0,1,1,35,45.37,5.57,5.57,0,0,1,40.53,50.94ZM35,46.81a4.14,4.14,0,1,0,4.13,4.13A4.14,4.14,0,0,0,35,46.81Z"/><rect class="cls-5" x="34.43" y="88.55" width="81.95" height="24.83"/><rect class="cls-22" x="34.43" y="87.67" width="81.95" height="24.83"/><path class="cls-5" d="M31.93,82.49H120.3a0,0,0,0,1,0,0v43.18A3.32,3.32,0,0,1,117,129H34.31a2.38,2.38,0,0,1-2.38-2.38V82.49A0,0,0,0,1,31.93,82.49Z"/><path class="cls-23" d="M29.8,82.47h88.37a0,0,0,0,1,0,0v42.65a2.38,2.38,0,0,1-2.38,2.38H32.18a2.38,2.38,0,0,1-2.38-2.38V82.47A0,0,0,0,1,29.8,82.47Z"/><rect class="cls-24" x="36.06" y="90.08" width="4.59" height="2.88" rx="0.63"/><rect class="cls-24" x="36.06" y="94.7" width="4.94" height="3.67" rx="0.77"/><rect class="cls-24" x="36.06" y="99.93" width="9.26" height="3.7" rx="1.01"/><rect class="cls-24" x="36.06" y="105.1" width="6.17" height="3.7" rx="0.83"/><rect class="cls-24" x="43.14" y="105.1" width="5.04" height="3.7" rx="0.75"/><rect class="cls-24" x="49.58" y="105.1" width="5.04" height="3.7" rx="0.75"/><rect class="cls-24" x="55.71" y="105.1" width="33.7" height="3.7" rx="0.95"/><rect class="cls-24" x="90.48" y="105.1" width="5.25" height="3.7" rx="0.95"/><rect class="cls-24" x="96.82" y="105.1" width="5.25" height="3.7" rx="0.95"/><rect class="cls-24" x="103.17" y="105.1" width="5.25" height="3.7" rx="0.95"/><rect class="cls-24" x="109.52" y="105.1" width="5.25" height="3.7" rx="0.95"/><rect class="cls-24" x="46.61" y="99.93" width="4.76" height="3.7" rx="0.73"/><rect class="cls-24" x="52.95" y="99.93" width="4.76" height="3.7" rx="0.73"/><rect class="cls-24" x="59.29" y="99.93" width="4.76" height="3.7" rx="0.73"/><rect class="cls-24" x="65.63" y="99.93" width="4.76" height="3.7" rx="0.73"/><rect class="cls-24" x="71.97" y="99.93" width="4.76" height="3.7" rx="0.73"/><rect class="cls-24" x="78.31" y="99.93" width="4.76" height="3.7" rx="0.73"/><rect class="cls-24" x="84.65" y="99.93" width="4.76" height="3.7" rx="0.73"/><rect class="cls-24" x="90.99" y="99.93" width="4.76" height="3.7" rx="0.73"/><rect class="cls-24" x="97.33" y="99.93" width="4.76" height="3.7" rx="0.73"/><rect class="cls-24" x="103.67" y="99.93" width="4.76" height="3.7" rx="0.73"/><rect class="cls-24" x="110.01" y="99.93" width="4.76" height="3.7" rx="0.73"/><rect class="cls-24" x="42.29" y="94.7" width="4.94" height="3.67" rx="0.77"/><rect class="cls-24" x="48.52" y="94.7" width="4.94" height="3.67" rx="0.77"/><rect class="cls-24" x="54.75" y="94.7" width="4.94" height="3.67" rx="0.77"/><rect class="cls-24" x="60.98" y="94.7" width="4.94" height="3.67" rx="0.77"/><rect class="cls-24" x="67.21" y="94.7" width="4.94" height="3.67" rx="0.77"/><rect class="cls-24" x="73.44" y="94.7" width="4.94" height="3.67" rx="0.77"/><rect class="cls-24" x="79.68" y="94.7" width="4.94" height="3.67" rx="0.77"/><rect class="cls-24" x="85.91" y="94.7" width="4.94" height="3.67" rx="0.77"/><rect class="cls-24" x="92.14" y="94.7" width="4.94" height="3.67" rx="0.77"/><rect class="cls-24" x="98.37" y="94.7" width="4.94" height="3.67" rx="0.77"/><rect class="cls-24" x="104.6" y="94.7" width="10.16" height="3.67" rx="1.1"/><rect class="cls-24" x="42" y="90.08" width="4.2" height="2.88" rx="0.6"/><rect class="cls-24" x="47.72" y="90.08" width="4.2" height="2.88" rx="0.6"/><rect class="cls-24" x="53.43" y="90.08" width="4.2" height="2.88" rx="0.6"/><rect class="cls-24" x="59.14" y="90.08" width="4.2" height="2.88" rx="0.6"/><rect class="cls-24" x="64.86" y="90.08" width="4.2" height="2.88" rx="0.6"/><rect class="cls-24" x="70.57" y="90.08" width="4.2" height="2.88" rx="0.6"/><rect class="cls-24" x="76.28" y="90.08" width="4.2" height="2.88" rx="0.6"/><rect class="cls-24" x="82" y="90.08" width="4.2" height="2.88" rx="0.6"/><rect class="cls-24" x="87.71" y="90.08" width="4.2" height="2.88" rx="0.6"/><rect class="cls-24" x="93.42" y="90.08" width="4.2" height="2.88" rx="0.6"/><rect class="cls-24" x="99.14" y="90.08" width="4.2" height="2.88" rx="0.6"/><rect class="cls-24" x="104.85" y="90.08" width="4.2" height="2.88" rx="0.6"/><rect class="cls-24" x="110.56" y="90.08" width="4.2" height="2.88" rx="0.6"/><rect class="cls-22" x="66.11" y="115.05" width="18.6" height="10.01"/><path class="cls-5" d="M27.32,78h95.45A4.25,4.25,0,0,1,127,82.3v0a0,0,0,0,1,0,0h-104a0,0,0,0,1,0,0v0A4.25,4.25,0,0,1,27.32,78Z"/></svg>