<svg id="Layer_1" data-name="Layer 1" xmlns="http://www.w3.org/2000/svg" viewBox="0 0 150 150"><defs><style>.cls-1{fill:#99c865;}.cls-2{fill:#714842;}.cls-3{fill:#5c3831;}.cls-4{fill:#51d5ba;}.cls-5{fill:#e35c64;}.cls-6{fill:#cecdcd;}.cls-7{fill:#d8d7d7;}.cls-8{fill:#6accd7;}.cls-9{fill:#c0c6d2;}.cls-10{fill:#55c5d1;}.cls-11{fill:#6c6d81;}.cls-12{fill:#fcc82b;}.cls-13{fill:#8f9091;}.cls-14{fill:#c76691;}.cls-15{fill:#c1c7d2;}.cls-16{fill:#f0f1f1;}.cls-17{fill:#e2e1e1;}.cls-18{fill:#ebebeb;}.cls-19{fill:#f5f5f5;}.cls-20{fill:#fff;}.cls-21{fill:#f5f6f7;}.cls-22{fill:#d4d9df;}.cls-23{fill:#394258;}.cls-24{fill:#5b596d;}.cls-25{fill:#0b2338;}.cls-26{fill:#515f62;}.cls-27{fill:#cdcccc;}.cls-28{fill:#e7e8e8;}.cls-29{fill:none;}.cls-30{fill:#0a4258;}.cls-31{fill:#2a6a7b;}.cls-32{fill:#bd8e54;}</style></defs><circle class="cls-1" cx="75" cy="75" r="72.94"/><path class="cls-2" d="M55.52,18.34h-.1L31.28,22,33,33.54l17.9-2.71Z"/><path class="cls-3" d="M55.52,18.34,50.93,30.83l9.38-1.42L59,21A3.18,3.18,0,0,0,55.52,18.34Z"/><polygon class="cls-4" points="49.95 33.49 50.93 30.83 33.03 33.54 35.11 47.31 62.39 43.19 60.3 29.41 50.93 30.83 49.95 33.49"/><rect class="cls-5" x="53.99" y="18.55" width="1.87" height="22.54" transform="translate(-3.84 8.55) rotate(-8.6)"/><rect class="cls-6" x="21.43" y="30.29" width="38.06" height="46.48" transform="translate(-17.92 20.44) rotate(-23.37)"/><rect class="cls-7" x="21.55" y="30.9" width="37.99" height="47.85" transform="translate(-18.42 20.58) rotate(-23.37)"/><circle class="cls-8" cx="47.2" cy="46.09" r="0.16"/><path class="cls-9" d="M55.26,65.81c0,.08-.08.21-.07.3s.14.19.12.28-.18.12-.23.2,0,.24-.06.3-.22,0-.31,0-.14.19-.23.2-.17-.14-.26-.16-.23.08-.31,0-.06-.21-.12-.28-.22-.07-.26-.15.07-.21.06-.3-.14-.2-.12-.28.19-.13.23-.21,0-.23.07-.3.22,0,.3,0,.15-.2.23-.21.18.14.27.16.22-.08.3,0,.06.21.12.28S55.22,65.72,55.26,65.81Z"/><path class="cls-10" d="M34.39,60c-.13-.19-.71-.16-.73-.35l-.06,0c-.09,0-.24,0-.31,0s0,.22-.07.3-.21.11-.23.2.12.19.12.28-.1.21-.06.3.2.09.26.16,0,.23.12.28.22-.05.31,0,.17.16.26.15.15-.16.23-.2.24,0,.31,0,0-.22.06-.29a.12.12,0,0,1,0-.05C34.39,60.74,34.6,60.3,34.39,60Z"/><path class="cls-11" d="M36.33,59c0-.09.11-.21.07-.3s-.2-.09-.26-.16,0-.23-.12-.28-.22.05-.31,0-.17-.16-.26-.15-.12.09-.17.15a1.45,1.45,0,0,0,.23.59,1.28,1.28,0,0,0,.76.56c.07,0,.17-.09.18-.16S36.34,59.12,36.33,59Z"/><path class="cls-12" d="M40.89,70.85c0-.07,0-.21-.1-.25s-.21.05-.3,0-.18-.16-.27-.15-.12.11-.19.17l.16,1.25Z"/><path class="cls-9" d="M40.33,72s0,0,0,0l-.58.56-.28-.77,0,0c-.08,0-.23,0-.3,0s0,.22-.07.3-.21.11-.23.2.11.19.12.28-.1.21-.06.3.2.09.26.16,0,.23.12.28.22-.05.31,0,.17.16.26.15.14-.16.23-.2.24,0,.3,0,0-.22.07-.3.21-.11.23-.2-.11-.19-.12-.28.1-.21.07-.3S40.39,72.09,40.33,72Z"/><path class="cls-10" d="M47.79,52.58c-.08,0-.21,0-.27,0s0,.22-.06.3-.21.11-.22.21.07.15.11.23l1.33.24Z"/><path class="cls-9" d="M48.71,53.36h0l.37.72-.81,0a.08.08,0,0,1,0,0c0,.1-.09.22-.06.3s.21.09.27.16,0,.23.13.27.21,0,.3,0,.18.16.27.15.14-.17.23-.21.23,0,.3,0,0-.22.06-.3.21-.12.22-.21-.11-.19-.12-.28.1-.22.06-.3-.21-.08-.27-.15-.05-.23-.13-.28-.21,0-.3,0-.17-.16-.27-.15S48.79,53.33,48.71,53.36Z"/><circle class="cls-13" cx="27.48" cy="54.24" r="0.16"/><circle class="cls-14" cx="37.34" cy="50.16" r="0.16"/><rect class="cls-12" x="27.83" y="45.6" width="0.35" height="1.8" transform="translate(-16.15 14.92) rotate(-23.37)"/><rect class="cls-15" x="30.15" y="47.1" width="0.35" height="0.98" transform="translate(-16.39 15.94) rotate(-23.37)"/><rect class="cls-12" x="32.26" y="43.98" width="0.35" height="1.73" transform="translate(-15.13 16.55) rotate(-23.37)"/><rect class="cls-15" x="33.57" y="42.7" width="0.35" height="1.97" transform="translate(-14.56 16.97) rotate(-23.37)"/><rect class="cls-12" x="37.24" y="42.74" width="0.35" height="1.46" transform="translate(-14.17 18.41) rotate(-23.37)"/><rect class="cls-15" x="38.05" y="40.09" width="0.35" height="2.22" transform="translate(-13.21 18.54) rotate(-23.37)"/><rect class="cls-12" x="42.09" y="41.3" width="0.35" height="1.27" transform="translate(-13.17 20.21) rotate(-23.37)"/><rect class="cls-15" x="42.45" y="37.44" width="0.35" height="2.5" transform="translate(-11.85 20.08) rotate(-23.37)"/><rect class="cls-16" x="44.3" y="31.18" width="1.43" height="0.1" transform="translate(-8.69 20.42) rotate(-23.37)"/><rect class="cls-16" x="44.9" y="32.5" width="1.43" height="0.1" transform="translate(-9.17 20.77) rotate(-23.37)"/><rect class="cls-16" x="45.5" y="33.82" width="1.43" height="0.1" transform="translate(-9.64 21.11) rotate(-23.37)"/><rect class="cls-16" x="46.09" y="35.14" width="1.43" height="0.1" transform="translate(-10.12 21.46) rotate(-23.37)"/><rect class="cls-16" x="46.69" y="36.46" width="1.43" height="0.1" transform="translate(-10.59 21.8) rotate(-23.37)"/><rect class="cls-16" x="47.29" y="37.78" width="1.43" height="0.1" transform="translate(-11.07 22.15) rotate(-23.37)"/><rect class="cls-16" x="47.89" y="39.11" width="1.43" height="0.1" transform="translate(-11.54 22.49) rotate(-23.37)"/><rect class="cls-16" x="48.48" y="40.43" width="1.43" height="0.1" transform="translate(-12.02 22.84) rotate(-23.37)"/><rect class="cls-16" x="49.08" y="41.75" width="1.43" height="0.1" transform="translate(-12.49 23.18) rotate(-23.37)"/><rect class="cls-17" x="21.66" y="31.5" width="37.92" height="49.23" transform="translate(-18.93 20.72) rotate(-23.37)"/><circle class="cls-8" cx="47.34" cy="47.2" r="0.32"/><path class="cls-9" d="M56.33,67c.07.17-.15.42-.14.59s.28.39.24.56-.36.25-.45.41,0,.47-.14.6-.43,0-.61.06-.28.38-.46.4-.35-.27-.52-.31-.46.15-.61,0-.13-.42-.25-.56-.45-.14-.52-.31.15-.42.13-.6-.28-.38-.24-.56.36-.25.46-.4,0-.48.13-.6.44,0,.61-.06.28-.39.46-.4.35.27.53.31.45-.15.61-.06.12.42.24.56S56.25,66.79,56.33,67Z"/><path class="cls-10" d="M35,60.89c-.26-.39-1.43-.32-1.48-.7a.53.53,0,0,1-.12.1c-.17.07-.48-.06-.61.06s0,.44-.14.59-.41.23-.45.41.22.38.24.56-.21.43-.13.6.4.18.52.31.09.47.25.56.43-.09.6-.05.35.32.53.31.29-.33.46-.41.48.06.61,0,0-.44.14-.6a.28.28,0,0,1,.09-.1C35,62.4,35.41,61.51,35,60.89Z"/><path class="cls-11" d="M36.84,60.62c0-.18.21-.42.13-.6s-.41-.18-.52-.31-.09-.47-.25-.56-.43.1-.61.05-.34-.32-.52-.3-.23.18-.34.3a2.79,2.79,0,0,0,.47,1.18,2.37,2.37,0,0,0,1.52,1.11c.13-.1.33-.17.36-.31S36.86,60.8,36.84,60.62Z"/><path class="cls-12" d="M41.41,72.16c-.08-.16-.07-.42-.21-.5s-.43.09-.61,0-.34-.33-.53-.31-.25.24-.38.35L40,74.24Z"/><path class="cls-9" d="M41,73.07a.1.1,0,0,1,0,0L39.8,74.13l-.56-1.52-.07,0c-.17.08-.48-.06-.61.06s0,.44-.14.6-.41.22-.45.4.22.38.24.56-.21.43-.13.6.4.18.52.32.09.46.24.56.44-.1.61-.06.35.33.53.31.29-.33.46-.4.48.06.61-.06,0-.44.13-.6.42-.22.46-.4-.22-.38-.24-.57.21-.42.13-.59S41.13,73.21,41,73.07Z"/><path class="cls-10" d="M47.77,53.34c-.17,0-.42-.06-.54,0s0,.44-.12.6-.41.23-.45.41.15.31.23.47l2.66.48Z"/><path class="cls-9" d="M48.5,53.91l-.07,0,.74,1.44-1.62.1a.31.31,0,0,1,0,.08c0,.19-.19.44-.12.6s.41.17.54.31.09.46.25.55.43-.1.61-.07.35.32.53.3.29-.34.46-.41.47.05.6-.07,0-.44.13-.6.41-.24.44-.42-.23-.37-.25-.55.2-.44.12-.6-.41-.17-.53-.31-.1-.46-.26-.55-.42.1-.6.07-.35-.32-.54-.3S48.66,53.84,48.5,53.91Z"/><circle class="cls-13" cx="27.44" cy="55.52" r="0.32"/><circle class="cls-14" cx="37.39" cy="51.36" r="0.32"/><rect class="cls-12" x="27.62" y="45.83" width="0.69" height="3.59" transform="translate(-16.6 15) rotate(-23.37)"/><rect class="cls-15" x="29.97" y="47.75" width="0.69" height="1.96" transform="translate(-16.84 16.02) rotate(-23.37)"/><rect class="cls-12" x="32.09" y="44.21" width="0.69" height="3.45" transform="translate(-15.56 16.64) rotate(-23.37)"/><rect class="cls-15" x="33.42" y="42.78" width="0.69" height="3.94" transform="translate(-14.98 17.07) rotate(-23.37)"/><rect class="cls-12" x="37.12" y="43.06" width="0.69" height="2.91" transform="translate(-14.59 18.51) rotate(-23.37)"/><rect class="cls-15" x="37.94" y="39.98" width="0.69" height="4.45" transform="translate(-13.6 18.65) rotate(-23.37)"/><rect class="cls-12" x="42.01" y="41.69" width="0.69" height="2.54" transform="translate(-13.57 20.33) rotate(-23.37)"/><rect class="cls-15" x="42.38" y="37.14" width="0.69" height="5" transform="translate(-12.22 20.2) rotate(-23.37)"/><rect class="cls-16" x="43.71" y="31.93" width="2.87" height="0.2" transform="translate(-9 20.53) rotate(-23.37)"/><rect class="cls-16" x="44.31" y="33.28" width="2.87" height="0.2" transform="translate(-9.49 20.88) rotate(-23.37)"/><rect class="cls-16" x="44.91" y="34.63" width="2.87" height="0.2" transform="translate(-9.97 21.23) rotate(-23.37)"/><rect class="cls-16" x="45.51" y="35.97" width="2.87" height="0.2" transform="translate(-10.46 21.58) rotate(-23.37)"/><rect class="cls-16" x="46.12" y="37.32" width="2.87" height="0.2" transform="translate(-10.94 21.93) rotate(-23.37)"/><rect class="cls-16" x="46.72" y="38.67" width="2.87" height="0.2" transform="translate(-11.43 22.28) rotate(-23.37)"/><rect class="cls-16" x="47.32" y="40.02" width="2.87" height="0.2" transform="translate(-11.91 22.63) rotate(-23.37)"/><rect class="cls-16" x="47.92" y="41.37" width="2.87" height="0.2" transform="translate(-12.4 22.98) rotate(-23.37)"/><rect class="cls-16" x="48.53" y="42.72" width="2.87" height="0.2" transform="translate(-12.89 23.33) rotate(-23.37)"/><rect class="cls-18" x="21.78" y="32.11" width="37.85" height="50.61" transform="translate(-19.43 20.86) rotate(-23.37)"/><circle class="cls-8" cx="47.48" cy="48.31" r="0.49"/><path class="cls-9" d="M57.39,68.12c.12.26-.22.63-.19.9s.42.58.36.84-.55.37-.69.61,0,.71-.2.9-.66,0-.91.08-.43.58-.69.61-.53-.41-.79-.47-.68.23-.92.09-.18-.64-.37-.84-.67-.22-.78-.47.22-.63.19-.9-.42-.58-.36-.84.55-.38.69-.61,0-.71.2-.9.66,0,.92-.08.42-.58.69-.61.52.41.79.47.67-.23.91-.09.18.63.37.84S57.28,67.86,57.39,68.12Z"/><path class="cls-10" d="M35.58,61.79c-.39-.58-2.13-.47-2.21-1a.53.53,0,0,1-.19.15c-.26.11-.71-.09-.91.09s-.07.66-.2.89-.63.34-.69.61.33.57.36.84-.31.64-.2.9.61.27.79.47.13.7.37.84.64-.14.91-.08.51.49.79.46.43-.49.69-.6.71.08.91-.09.07-.66.21-.9a.47.47,0,0,1,.14-.14C35.56,64.05,36.21,62.72,35.58,61.79Z"/><path class="cls-11" d="M37.34,62.21c0-.27.31-.64.2-.89s-.61-.27-.79-.47-.13-.71-.36-.85-.65.15-.92.09-.51-.49-.79-.47-.34.28-.5.46a4.27,4.27,0,0,0,.7,1.78,3.72,3.72,0,0,0,2.28,1.66c.2-.15.5-.26.54-.47S37.37,62.49,37.34,62.21Z"/><path class="cls-12" d="M41.92,73.46c-.12-.23-.11-.63-.31-.75s-.65.14-.92.08-.51-.49-.79-.46-.38.36-.57.53l.48,3.73Z"/><path class="cls-9" d="M41.68,74.12a.19.19,0,0,1,0-.09l-1.75,1.68L39,73.43a.37.37,0,0,1-.12.07c-.26.12-.71-.08-.91.09s-.07.66-.2.9-.63.34-.69.61.33.56.36.84-.31.64-.2.89.61.27.79.47.13.71.37.84.64-.14.91-.08.52.49.79.47.43-.5.69-.61.71.09.91-.09.07-.66.21-.89.62-.34.68-.61-.33-.57-.36-.84.31-.64.2-.9S41.86,74.32,41.68,74.12Z"/><path class="cls-10" d="M47.75,54.09c-.26,0-.63-.08-.81.08s0,.66-.18.9-.62.35-.68.62.24.47.34.71l4,.71Z"/><path class="cls-9" d="M48.29,54.46l-.1,0,1.1,2.16-2.43.14a.38.38,0,0,1,0,.13c0,.28-.29.66-.18.9s.62.26.8.46.15.69.39.83.64-.16.91-.1.52.48.8.44.43-.5.68-.61.71.07.91-.11,0-.66.18-.9.62-.35.67-.62-.34-.56-.37-.84.29-.65.17-.9-.61-.25-.79-.45-.15-.7-.39-.83-.64.15-.91.1-.52-.48-.8-.45S48.54,54.35,48.29,54.46Z"/><circle class="cls-13" cx="27.4" cy="56.8" r="0.49"/><circle class="cls-14" cx="37.44" cy="52.55" r="0.49"/><rect class="cls-12" x="27.41" y="46.05" width="1.04" height="5.39" transform="translate(-17.04 15.08) rotate(-23.37)"/><rect class="cls-15" x="29.78" y="48.4" width="1.04" height="2.95" transform="translate(-17.3 16.11) rotate(-23.37)"/><rect class="cls-12" x="31.92" y="44.43" width="1.04" height="5.18" transform="translate(-15.99 16.73) rotate(-23.37)"/><rect class="cls-15" x="33.26" y="42.85" width="1.04" height="5.91" transform="translate(-15.4 17.16) rotate(-23.37)"/><rect class="cls-12" x="36.99" y="43.39" width="1.04" height="4.37" transform="translate(-15 18.62) rotate(-23.37)"/><rect class="cls-15" x="37.82" y="39.88" width="1.04" height="6.67" transform="translate(-14 18.76) rotate(-23.37)"/><rect class="cls-12" x="41.93" y="42.08" width="1.04" height="3.8" transform="translate(-13.97 20.45) rotate(-23.37)"/><rect class="cls-15" x="42.3" y="36.85" width="1.04" height="7.5" transform="translate(-12.59 20.32) rotate(-23.37)"/><rect class="cls-16" x="43.11" y="32.68" width="4.3" height="0.29" transform="translate(-9.31 20.65) rotate(-23.37)"/><rect class="cls-16" x="43.72" y="34.05" width="4.3" height="0.29" transform="translate(-9.8 21) rotate(-23.37)"/><rect class="cls-16" x="44.32" y="35.43" width="4.3" height="0.29" transform="translate(-10.3 21.36) rotate(-23.37)"/><rect class="cls-16" x="44.93" y="36.81" width="4.3" height="0.29" transform="matrix(0.92, -0.4, 0.4, 0.92, -10.8, 21.71)"/><rect class="cls-16" x="45.54" y="38.18" width="4.3" height="0.29" transform="translate(-11.29 22.06) rotate(-23.37)"/><rect class="cls-16" x="46.15" y="39.56" width="4.3" height="0.29" transform="translate(-11.79 22.42) rotate(-23.37)"/><rect class="cls-16" x="46.76" y="40.94" width="4.3" height="0.29" transform="translate(-12.28 22.77) rotate(-23.37)"/><rect class="cls-16" x="47.36" y="42.31" width="4.3" height="0.29" transform="translate(-12.78 23.13) rotate(-23.37)"/><rect class="cls-16" x="47.97" y="43.69" width="4.3" height="0.29" transform="translate(-13.28 23.48) rotate(-23.37)"/><rect class="cls-19" x="21.89" y="32.71" width="37.78" height="51.99" transform="translate(-19.94 21) rotate(-23.37)"/><circle class="cls-8" cx="47.62" cy="49.42" r="0.65"/><path class="cls-9" d="M58.46,69.28c.15.35-.29.84-.26,1.2s.56.77.48,1.12-.73.5-.91.81,0,1-.27,1.19-.88,0-1.22.12-.57.77-.92.81-.7-.54-1.06-.62-.9.29-1.21.11-.25-.85-.49-1.12-.9-.28-1.05-.63.29-.84.26-1.19-.56-.77-.48-1.13.73-.49.91-.81,0-1,.28-1.19.87,0,1.21-.12.57-.77.92-.81.7.54,1.06.62.9-.29,1.21-.11.25.85.49,1.12S58.31,68.94,58.46,69.28Z"/><path class="cls-10" d="M36.17,62.69c-.52-.78-2.84-.63-3-1.39a1,1,0,0,1-.24.19c-.35.15-.95-.12-1.22.11s-.09.88-.27,1.2-.84.45-.92.81.45.75.48,1.12-.41.85-.26,1.2.81.36,1.05.62.18.94.49,1.12.86-.19,1.22-.11.68.66,1.05.62.58-.65.92-.8.95.12,1.22-.12.09-.88.27-1.19a.57.57,0,0,1,.19-.19C36.15,65.7,37,63.93,36.17,62.69Z"/><path class="cls-11" d="M37.85,63.8c0-.35.41-.85.26-1.19s-.81-.36-1-.63-.18-.94-.49-1.12-.86.19-1.21.11-.69-.65-1.06-.62-.45.38-.67.62a5.65,5.65,0,0,0,.93,2.36,5,5,0,0,0,3,2.22c.27-.2.67-.35.73-.62S37.88,64.17,37.85,63.8Z"/><path class="cls-12" d="M42.43,74.77c-.16-.32-.14-.84-.42-1s-.86.2-1.21.11-.69-.65-1.06-.61-.5.47-.77.7l.64,5Z"/><path class="cls-9" d="M42.36,75.17a.36.36,0,0,1-.08-.12L40,77.29l-1.12-3.05a.72.72,0,0,1-.15.11c-.35.15-1-.12-1.22.11s-.09.89-.27,1.2-.84.45-.92.81.45.75.48,1.12-.41.85-.26,1.2.82.36,1,.62.18.94.49,1.12.86-.19,1.22-.11.68.66,1,.62.58-.65.92-.8,1,.12,1.22-.12.09-.88.27-1.19.84-.46.92-.81-.45-.76-.48-1.13.41-.85.26-1.19S42.59,75.44,42.36,75.17Z"/><path class="cls-10" d="M47.73,54.85c-.34.06-.84-.11-1.08.1s-.06.88-.25,1.2-.82.47-.89.83.31.62.45.94l5.34.94Z"/><path class="cls-9" d="M48.09,55l-.14,0,1.47,2.88-3.24.19a.41.41,0,0,1,0,.17c.05.38-.38.88-.24,1.2s.82.34,1.07.61.19.93.51,1.11.85-.21,1.21-.14.7.64,1.07.6.58-.68.91-.83S51.7,61,52,60.7s.07-.88.25-1.2.82-.46.89-.83-.46-.74-.5-1.11.39-.88.24-1.2-.82-.34-1.07-.6-.19-.94-.51-1.12-.85.21-1.21.14-.7-.64-1.07-.6S48.41,54.86,48.09,55Z"/><circle class="cls-13" cx="27.37" cy="58.08" r="0.65"/><circle class="cls-14" cx="37.49" cy="53.75" r="0.65"/><rect class="cls-12" x="27.21" y="46.27" width="1.39" height="7.18" transform="translate(-17.49 15.16) rotate(-23.37)"/><rect class="cls-15" x="29.6" y="49.05" width="1.39" height="3.93" transform="translate(-17.75 16.2) rotate(-23.37)"/><rect class="cls-12" x="31.76" y="44.65" width="1.39" height="6.9" transform="translate(-16.42 16.82) rotate(-23.37)"/><rect class="cls-15" x="33.11" y="42.93" width="1.39" height="7.88" transform="translate(-15.82 17.25) rotate(-23.37)"/><rect class="cls-12" x="36.87" y="43.71" width="1.39" height="5.83" transform="translate(-15.42 18.73) rotate(-23.37)"/><rect class="cls-15" x="37.71" y="39.77" width="1.39" height="8.9" transform="translate(-14.39 18.86) rotate(-23.37)"/><rect class="cls-12" x="41.85" y="42.47" width="1.39" height="5.07" transform="translate(-14.36 20.57) rotate(-23.37)"/><rect class="cls-15" x="42.23" y="36.55" width="1.39" height="10" transform="translate(-12.96 20.44) rotate(-23.37)"/><rect class="cls-16" x="42.51" y="33.43" width="5.74" height="0.39" transform="translate(-9.62 20.76) rotate(-23.37)"/><rect class="cls-16" x="43.13" y="34.83" width="5.74" height="0.39" transform="translate(-10.12 21.12) rotate(-23.37)"/><rect class="cls-16" x="43.74" y="36.24" width="5.74" height="0.39" transform="translate(-10.63 21.48) rotate(-23.37)"/><rect class="cls-16" x="44.35" y="37.64" width="5.74" height="0.39" transform="translate(-11.14 21.84) rotate(-23.37)"/><rect class="cls-16" x="44.97" y="39.04" width="5.74" height="0.39" transform="translate(-11.64 22.2) rotate(-23.37)"/><rect class="cls-16" x="45.58" y="40.45" width="5.74" height="0.39" transform="translate(-12.15 22.55) rotate(-23.37)"/><rect class="cls-16" x="46.19" y="41.85" width="5.74" height="0.39" transform="translate(-12.65 22.91) rotate(-23.37)"/><rect class="cls-16" x="46.81" y="43.26" width="5.74" height="0.39" transform="translate(-13.16 23.27) rotate(-23.37)"/><rect class="cls-16" x="47.42" y="44.66" width="5.74" height="0.39" transform="translate(-13.67 23.63) rotate(-23.37)"/><rect class="cls-20" x="22.01" y="33.31" width="37.72" height="53.36" transform="translate(-20.45 21.13) rotate(-23.37)"/><circle class="cls-8" cx="47.76" cy="50.53" r="0.81"/><path class="cls-9" d="M59.53,70.44c.19.43-.37,1-.33,1.49s.7,1,.6,1.41-.91.62-1.14,1,0,1.19-.34,1.49-1.09,0-1.52.15-.7,1-1.15,1-.87-.68-1.32-.78-1.13.37-1.52.14-.31-1-.61-1.4-1.13-.35-1.31-.78.37-1.05.33-1.5-.7-1-.6-1.4.91-.62,1.14-1,0-1.18.34-1.49,1.09,0,1.52-.14.7-1,1.15-1,.87.67,1.32.77,1.13-.37,1.52-.14.31,1.06.61,1.41S59.35,70,59.53,70.44Z"/><path class="cls-10" d="M36.77,63.58c-.66-1-3.56-.78-3.69-1.73a1.13,1.13,0,0,1-.31.24c-.43.18-1.19-.15-1.52.14s-.11,1.1-.34,1.49-1,.57-1.15,1,.56.94.61,1.4-.52,1.06-.33,1.5,1,.44,1.31.78.22,1.17.61,1.4,1.08-.24,1.52-.14.86.82,1.32.78.72-.82,1.15-1,1.19.15,1.52-.15.11-1.1.34-1.49a.78.78,0,0,1,.24-.24C36.74,67.36,37.81,65.14,36.77,63.58Z"/><path class="cls-11" d="M38.35,65.39c0-.44.52-1.06.33-1.49s-1-.45-1.31-.78-.22-1.17-.61-1.4-1.08.23-1.52.13-.86-.82-1.32-.77-.57.47-.84.77a7,7,0,0,0,1.17,2.95,6.09,6.09,0,0,0,3.8,2.77c.33-.25.83-.43.9-.77S38.4,65.85,38.35,65.39Z"/><path class="cls-12" d="M42.94,76.07c-.2-.39-.18-1-.52-1.25s-1.07.24-1.52.14-.86-.82-1.32-.78-.63.6-1,.88l.8,6.22Z"/><path class="cls-9" d="M43,76.22a1,1,0,0,1-.09-.15L40,78.87l-1.4-3.81a.8.8,0,0,1-.19.13c-.43.19-1.19-.15-1.52.15s-.11,1.1-.34,1.49-1,.56-1.14,1,.55,1,.6,1.41-.52,1.06-.33,1.49,1,.45,1.31.78.22,1.17.61,1.4,1.08-.24,1.53-.13.85.81,1.31.77.72-.82,1.15-1,1.19.15,1.53-.14.1-1.11.33-1.5,1.05-.56,1.15-1-.56-.94-.6-1.4.51-1.07.32-1.5S43.33,76.55,43,76.22Z"/><path class="cls-10" d="M47.71,55.6c-.43.08-1.06-.13-1.35.14s-.08,1.09-.31,1.49-1,.59-1.12,1,.39.78.57,1.17l6.67,1.18Z"/><path class="cls-9" d="M47.88,55.55a.48.48,0,0,1-.17.05l1.84,3.6-4,.24a1,1,0,0,1,.06.22c.06.47-.48,1.1-.3,1.5s1,.42,1.33.76.25,1.16.64,1.38,1.07-.26,1.52-.16.87.8,1.34.74.72-.84,1.13-1,1.18.13,1.51-.18.09-1.1.31-1.5,1-.58,1.12-1-.57-.93-.63-1.4.49-1.09.3-1.49-1-.43-1.33-.76-.24-1.16-.64-1.39-1.06.26-1.52.17-.86-.8-1.33-.74S48.28,55.37,47.88,55.55Z"/><circle class="cls-13" cx="27.33" cy="59.36" r="0.81"/><circle class="cls-14" cx="37.54" cy="54.95" r="0.81"/><rect class="cls-12" x="27" y="46.49" width="1.74" height="8.98" transform="translate(-17.94 15.24) rotate(-23.37)"/><rect class="cls-15" x="29.41" y="49.7" width="1.74" height="4.91" transform="translate(-18.2 16.29) rotate(-23.37)"/><rect class="cls-12" x="31.59" y="44.87" width="1.74" height="8.63" transform="translate(-16.85 16.91) rotate(-23.37)"/><rect class="cls-15" x="32.95" y="43" width="1.74" height="9.85" transform="translate(-16.24 17.35) rotate(-23.37)"/><rect class="cls-12" x="36.75" y="44.04" width="1.74" height="7.29" transform="translate(-15.83 18.84) rotate(-23.37)"/><rect class="cls-15" x="37.59" y="39.67" width="1.74" height="11.12" transform="translate(-14.79 18.97) rotate(-23.37)"/><rect class="cls-12" x="41.77" y="42.86" width="1.74" height="6.34" transform="translate(-14.76 20.69) rotate(-23.37)"/><rect class="cls-15" x="42.15" y="36.25" width="1.74" height="12.5" transform="translate(-13.33 20.56) rotate(-23.37)"/><rect class="cls-16" x="41.92" y="34.18" width="7.17" height="0.49" transform="translate(-9.92 20.87) rotate(-23.37)"/><rect class="cls-16" x="42.53" y="35.61" width="7.17" height="0.49" transform="translate(-10.44 21.24) rotate(-23.37)"/><rect class="cls-16" x="43.15" y="37.04" width="7.17" height="0.49" transform="translate(-10.96 21.6) rotate(-23.37)"/><rect class="cls-16" x="43.77" y="38.47" width="7.17" height="0.49" transform="matrix(0.92, -0.4, 0.4, 0.92, -11.47, 21.96)"/><rect class="cls-16" x="44.39" y="39.9" width="7.17" height="0.49" transform="matrix(0.92, -0.4, 0.4, 0.92, -11.99, 22.33)"/><rect class="cls-16" x="45.01" y="41.34" width="7.17" height="0.49" transform="translate(-12.51 22.69) rotate(-23.37)"/><rect class="cls-16" x="45.63" y="42.77" width="7.17" height="0.49" transform="translate(-13.03 23.05) rotate(-23.37)"/><rect class="cls-16" x="46.25" y="44.2" width="7.17" height="0.49" transform="translate(-13.54 23.42) rotate(-23.37)"/><rect class="cls-16" x="46.87" y="45.63" width="7.17" height="0.49" transform="translate(-14.06 23.78) rotate(-23.37)"/><path class="cls-20" d="M52.64,45.82h86.54a2.7,2.7,0,0,1,2.7,2.7v.95a0,0,0,0,1,0,0H49.94a0,0,0,0,1,0,0v-.95A2.7,2.7,0,0,1,52.64,45.82Z" transform="translate(9.29 -15.32) rotate(9.6)"/><path class="cls-21" d="M122.38,123.23l7.88-46.61a3.7,3.7,0,0,0-3-4.27l-69-11.68A3.72,3.72,0,0,0,54,63.25l-6.68,48.47L119,126.31A3.7,3.7,0,0,0,122.38,123.23Z"/><path class="cls-21" d="M54,63.25a2.37,2.37,0,0,0-.11.46L46,110.32a3.71,3.71,0,0,0,3,4.28l69,11.67a3.74,3.74,0,0,0,.88,0Z"/><path class="cls-22" d="M122.26,100.85l4.07-24.07a2,2,0,0,0-1.66-2.34L59.91,63.49a1.64,1.64,0,0,0-.44,0L56.15,89l65.92,12.4A1.77,1.77,0,0,0,122.26,100.85Z"/><path class="cls-22" d="M59.47,63.47a2,2,0,0,0-1.91,1.69L53.49,89.22a2,2,0,0,0,1.67,2.35l64.76,11a2,2,0,0,0,2.15-1.11Z"/><rect class="cls-23" x="61.38" y="66.61" width="3.62" height="1.91" rx="0.3" transform="matrix(0.99, 0.17, -0.17, 0.99, 12.15, -9.59)"/><rect class="cls-23" x="60.78" y="69.46" width="5.2" height="3.44" rx="0.49" transform="translate(12.76 -9.57) rotate(9.6)"/><rect class="cls-23" x="66.9" y="70.36" width="3.6" height="3.44" rx="0.4" transform="translate(12.98 -10.45) rotate(9.6)"/><rect class="cls-23" x="71.15" y="71.08" width="3.6" height="3.44" rx="0.4" transform="translate(13.16 -11.14) rotate(9.6)"/><rect class="cls-23" x="75.39" y="71.8" width="3.6" height="3.44" rx="0.4" transform="translate(13.34 -11.84) rotate(9.6)"/><rect class="cls-23" x="79.64" y="72.52" width="3.6" height="3.44" rx="0.4" transform="translate(13.52 -12.54) rotate(9.6)"/><rect class="cls-23" x="83.89" y="73.24" width="3.6" height="3.44" rx="0.4" transform="translate(13.7 -13.24) rotate(9.6)"/><rect class="cls-23" x="88.13" y="73.95" width="3.6" height="3.44" rx="0.4" transform="translate(13.88 -13.94) rotate(9.6)"/><rect class="cls-23" x="92.38" y="74.67" width="3.6" height="3.44" rx="0.4" transform="matrix(0.99, 0.17, -0.17, 0.99, 14.06, -14.63)"/><rect class="cls-23" x="96.63" y="75.39" width="3.6" height="3.44" rx="0.4" transform="translate(14.23 -15.33) rotate(9.6)"/><rect class="cls-23" x="100.87" y="76.11" width="3.6" height="3.44" rx="0.4" transform="translate(14.41 -16.03) rotate(9.6)"/><rect class="cls-23" x="105.12" y="76.83" width="3.6" height="3.44" rx="0.4" transform="translate(14.59 -16.73) rotate(9.6)"/><rect class="cls-23" x="109.37" y="77.55" width="3.6" height="3.44" rx="0.4" transform="translate(14.77 -17.43) rotate(9.6)"/><rect class="cls-23" x="113.61" y="78.26" width="3.6" height="3.44" rx="0.4" transform="translate(14.95 -18.12) rotate(9.6)"/><rect class="cls-23" x="117.86" y="78.98" width="3.6" height="3.44" rx="0.4" transform="translate(15.13 -18.82) rotate(9.6)"/><rect class="cls-23" x="116.19" y="83.14" width="4.56" height="3.44" rx="0.45" transform="translate(15.81 -18.56) rotate(9.6)"/><rect class="cls-23" x="111.7" y="82.3" width="3.58" height="3.44" rx="0.4" transform="matrix(0.99, 0.17, -0.17, 0.99, 15.6, -17.75)"/><rect class="cls-23" x="107.42" y="81.57" width="3.58" height="3.44" rx="0.4" transform="translate(15.42 -17.04) rotate(9.6)"/><rect class="cls-23" x="103.15" y="80.85" width="3.58" height="3.44" rx="0.4" transform="matrix(0.99, 0.17, -0.17, 0.99, 15.24, -16.34)"/><rect class="cls-23" x="98.88" y="80.13" width="3.58" height="3.44" rx="0.4" transform="matrix(0.99, 0.17, -0.17, 0.99, 15.06, -15.64)"/><rect class="cls-23" x="94.61" y="79.41" width="3.58" height="3.44" rx="0.4" transform="translate(14.88 -14.94) rotate(9.6)"/><rect class="cls-23" x="90.34" y="78.68" width="3.58" height="3.44" rx="0.4" transform="matrix(0.99, 0.17, -0.17, 0.99, 14.7, -14.24)"/><rect class="cls-23" x="86.06" y="77.96" width="3.58" height="3.44" rx="0.4" transform="translate(14.52 -13.53) rotate(9.6)"/><rect class="cls-23" x="81.79" y="77.24" width="3.58" height="3.44" rx="0.4" transform="translate(14.33 -12.83) rotate(9.6)"/><rect class="cls-23" x="77.52" y="76.52" width="3.58" height="3.44" rx="0.4" transform="translate(14.15 -12.13) rotate(9.6)"/><rect class="cls-23" x="73.25" y="75.79" width="3.58" height="3.44" rx="0.4" transform="translate(13.97 -11.43) rotate(9.6)"/><rect class="cls-23" x="68.98" y="75.07" width="3.58" height="3.44" rx="0.4" transform="matrix(0.99, 0.17, -0.17, 0.99, 13.79, -10.72)"/><rect class="cls-23" x="64.7" y="74.35" width="3.58" height="3.44" rx="0.4" transform="translate(13.61 -10.02) rotate(9.6)"/><rect class="cls-23" x="113.96" y="87.25" width="6.08" height="3.44" rx="0.53" transform="translate(16.47 -18.26) rotate(9.6)"/><rect class="cls-23" x="115.73" y="91.69" width="3.58" height="3.44" rx="0.4" transform="translate(17.22 -18.29) rotate(9.6)"/><rect class="cls-23" x="111.49" y="90.98" width="3.58" height="3.44" rx="0.4" transform="translate(17.04 -17.59) rotate(9.6)"/><rect class="cls-23" x="107.25" y="90.26" width="3.58" height="3.44" rx="0.4" transform="translate(16.86 -16.89) rotate(9.6)"/><rect class="cls-23" x="103.01" y="89.54" width="3.58" height="3.44" rx="0.4" transform="translate(16.68 -16.2) rotate(9.6)"/><rect class="cls-23" x="98.76" y="88.83" width="3.58" height="3.44" rx="0.4" transform="translate(16.5 -15.5) rotate(9.6)"/><rect class="cls-23" x="94.52" y="88.11" width="3.58" height="3.44" rx="0.4" transform="translate(16.33 -14.8) rotate(9.6)"/><rect class="cls-23" x="90.28" y="87.39" width="3.58" height="3.44" rx="0.4" transform="translate(16.15 -14.1) rotate(9.6)"/><rect class="cls-23" x="86.04" y="86.67" width="3.58" height="3.44" rx="0.4" transform="translate(15.97 -13.41) rotate(9.6)"/><rect class="cls-23" x="81.8" y="85.96" width="3.58" height="3.44" rx="0.4" transform="translate(15.79 -12.71) rotate(9.6)"/><rect class="cls-23" x="77.56" y="85.24" width="3.58" height="3.44" rx="0.4" transform="translate(15.61 -12.01) rotate(9.6)"/><rect class="cls-23" x="73.32" y="84.52" width="3.58" height="3.44" rx="0.4" transform="translate(15.43 -11.32) rotate(9.6)"/><rect class="cls-23" x="69.08" y="83.81" width="3.58" height="3.44" rx="0.4" transform="translate(15.25 -10.62) rotate(9.6)"/><rect class="cls-23" x="58.59" y="82.56" width="9.87" height="3.44" rx="0.67" transform="translate(14.94 -9.41) rotate(9.6)"/><rect class="cls-23" x="57.91" y="86.39" width="4.88" height="3.44" rx="0.46" transform="translate(15.53 -8.83) rotate(9.6)"/><rect class="cls-23" x="63.43" y="87.32" width="4.88" height="3.44" rx="0.46" transform="translate(15.77 -9.74) rotate(9.6)"/><rect class="cls-23" x="68.95" y="88.25" width="4.88" height="3.44" rx="0.46" transform="translate(16 -10.64) rotate(9.6)"/><rect class="cls-23" x="102.67" y="93.96" width="4.88" height="3.44" rx="0.46" transform="translate(17.42 -16.19) rotate(9.6)"/><rect class="cls-23" x="108.2" y="94.89" width="4.88" height="3.44" rx="0.46" transform="translate(17.66 -17.09) rotate(9.6)"/><rect class="cls-23" x="113.72" y="95.82" width="4.88" height="3.44" rx="0.46" transform="translate(17.89 -18) rotate(9.6)"/><rect class="cls-23" x="74.44" y="91.07" width="27.22" height="3.44" rx="0.46" transform="matrix(0.99, 0.17, -0.17, 0.99, 16.7, -13.38)"/><rect class="cls-23" x="109.61" y="86.3" width="3.55" height="3.44" rx="0.4" transform="translate(16.23 -17.34) rotate(9.6)"/><rect class="cls-23" x="105.38" y="85.58" width="3.55" height="3.44" rx="0.4" transform="translate(16.06 -16.64) rotate(9.6)"/><rect class="cls-23" x="101.15" y="84.87" width="3.55" height="3.44" rx="0.4" transform="translate(15.88 -15.95) rotate(9.6)"/><rect class="cls-23" x="96.92" y="84.15" width="3.55" height="3.44" rx="0.4" transform="translate(15.7 -15.25) rotate(9.6)"/><rect class="cls-23" x="92.69" y="83.44" width="3.55" height="3.44" rx="0.4" transform="translate(15.52 -14.56) rotate(9.6)"/><rect class="cls-23" x="88.46" y="82.72" width="3.55" height="3.44" rx="0.4" transform="translate(15.34 -13.86) rotate(9.6)"/><rect class="cls-23" x="84.23" y="82.01" width="3.55" height="3.44" rx="0.4" transform="translate(15.16 -13.17) rotate(9.6)"/><rect class="cls-23" x="80" y="81.29" width="3.55" height="3.44" rx="0.4" transform="translate(14.99 -12.47) rotate(9.6)"/><rect class="cls-23" x="75.77" y="80.58" width="3.55" height="3.44" rx="0.4" transform="translate(14.81 -11.78) rotate(9.6)"/><rect class="cls-23" x="71.54" y="79.86" width="3.55" height="3.44" rx="0.4" transform="translate(14.63 -11.08) rotate(9.6)"/><rect class="cls-23" x="67.31" y="79.15" width="3.55" height="3.44" rx="0.4" transform="translate(14.45 -10.39) rotate(9.6)"/><rect class="cls-23" x="63.08" y="78.43" width="3.55" height="3.44" rx="0.4" transform="translate(14.27 -9.69) rotate(9.6)"/><path class="cls-23" d="M63.39,77.28l-.56-.09a.35.35,0,0,0-.4.29l-.49,3.42c-.15.35-.49.41-.87.35L59.51,81c-.23,0-.41-.12-.37-.36l1.17-6.92a.43.43,0,0,1,.49-.35L64,73.9a.42.42,0,0,1,.35.49l-.43,2.54A.42.42,0,0,1,63.39,77.28Z"/><rect class="cls-23" x="65.77" y="67.35" width="3.62" height="1.91" rx="0.3" transform="matrix(0.99, 0.17, -0.17, 0.99, 12.34, -10.31)"/><rect class="cls-23" x="70.16" y="68.09" width="3.62" height="1.91" rx="0.3" transform="translate(12.52 -11.03) rotate(9.6)"/><rect class="cls-23" x="74.55" y="68.84" width="3.62" height="1.91" rx="0.3" transform="translate(12.71 -11.75) rotate(9.6)"/><rect class="cls-23" x="78.93" y="69.58" width="3.62" height="1.91" rx="0.3" transform="translate(12.89 -12.48) rotate(9.6)"/><rect class="cls-23" x="83.32" y="70.32" width="3.62" height="1.91" rx="0.3" transform="translate(13.08 -13.2) rotate(9.6)"/><rect class="cls-23" x="87.71" y="71.06" width="3.62" height="1.91" rx="0.3" transform="translate(13.26 -13.92) rotate(9.6)"/><rect class="cls-23" x="92.1" y="71.8" width="3.62" height="1.91" rx="0.3" transform="translate(13.45 -14.64) rotate(9.6)"/><rect class="cls-23" x="96.48" y="72.55" width="3.62" height="1.91" rx="0.3" transform="translate(13.63 -15.36) rotate(9.6)"/><rect class="cls-23" x="100.87" y="73.29" width="3.62" height="1.91" rx="0.3" transform="translate(13.82 -16.08) rotate(9.6)"/><rect class="cls-23" x="105.26" y="74.03" width="3.62" height="1.91" rx="0.3" transform="translate(14 -16.8) rotate(9.6)"/><rect class="cls-23" x="109.65" y="74.77" width="3.62" height="1.91" rx="0.3" transform="translate(14.19 -17.52) rotate(9.6)"/><rect class="cls-23" x="114.04" y="75.51" width="3.62" height="1.91" rx="0.3" transform="translate(14.37 -18.25) rotate(9.6)"/><rect class="cls-23" x="118.42" y="76.26" width="3.62" height="1.91" rx="0.3" transform="translate(14.56 -18.97) rotate(9.6)"/><path class="cls-24" d="M94.71,117.46l2.09-12.37a1.14,1.14,0,0,0-.94-1.32l-18.39-3.11a.89.89,0,0,0-.28,0L75.48,114l19.12,3.81A1.15,1.15,0,0,0,94.71,117.46Z"/><path class="cls-23" d="M77.19,100.65a1.15,1.15,0,0,0-1,.95L74.06,114a1.14,1.14,0,0,0,.94,1.32l18.39,3.11a1.12,1.12,0,0,0,1.21-.63Z"/><path class="cls-25" d="M139.57,55.52,52.06,40.72a1.57,1.57,0,0,0-1.76,2l5.16,16.8a1.56,1.56,0,0,0,1.23,1.08l72,12.17a1.56,1.56,0,0,0,1.52-.62L140.57,58A1.57,1.57,0,0,0,139.57,55.52Z"/><path class="cls-26" d="M137.39,56.77,54.25,42.71a1.17,1.17,0,0,0-1.32,1.48l4,14.36a1.18,1.18,0,0,0,.94.84l70.33,11.89a1.17,1.17,0,0,0,1.15-.47l8.75-12.19A1.19,1.19,0,0,0,137.39,56.77Z"/><polygon class="cls-27" points="61.91 45.69 108.97 53.65 104.96 65.79 64.52 58.96 61.91 45.69"/><polygon class="cls-28" points="106.48 54.15 94.31 52.09 92.68 62.34 103.41 64.16 106.48 54.15"/><polygon class="cls-28" points="80.69 54.11 91.31 55.91 90.87 59.39 80.69 57.67 80.69 54.11"/><polygon class="cls-28" points="80.85 49.82 91.86 51.68 91.37 55.51 80.85 53.73 80.85 49.82"/><polygon class="cls-28" points="68.54 47.74 80.23 49.71 80.25 53.64 69.07 51.75 68.54 47.74"/><polygon class="cls-27" points="123.09 56.04 132.9 57.7 128.63 63.98 119.62 62.45 123.09 56.04"/><path class="cls-29" d="M39.52,23.8l.14-.11a1.87,1.87,0,0,0,.57-2.22,1.91,1.91,0,1,0-1.68,2.67h.16L39.39,27l1.71-.74Z"/><path class="cls-30" d="M46.84,30.3h0l-.37.12Z"/><rect class="cls-30" x="37.72" y="32.64" width="3.04" transform="matrix(0.53, -0.85, 0.85, 0.53, -9.18, 48.78)"/><path class="cls-30" d="M41.32,32.07l.43-.34a1.57,1.57,0,0,1,.26-.19,1.57,1.57,0,0,0-.26.19Z"/><polygon class="cls-30" points="40.33 30.88 41.22 29.44 40.33 30.88 40.33 30.88"/><polygon class="cls-31" points="39.02 27.11 36.04 28.4 38.43 33.93 38.44 33.93 40.04 31.34 39.02 27.11"/><polygon class="cls-31" points="44.01 24.95 41.46 26.05 42.42 27.52 44.01 24.95"/><polygon class="cls-31" points="41.1 26.21 39.38 26.95 40.33 30.88 41.22 29.44 42.19 27.88 41.1 26.21"/><path class="cls-30" d="M38.44,33.93c.3-.14.59-.3.89-.47-.3.17-.59.33-.89.47Z"/><path class="cls-30" d="M42.93,31.19l-.32.07.32-.07L44.21,31h0Z"/><path class="cls-30" d="M40.73,32.54h0c.05,0,.11-.08.17-.13s.28-.22.42-.34c-.14.12-.28.24-.42.34S40.78,32.49,40.73,32.54Z"/><path class="cls-30" d="M44.61,30.88l1-.22-1,.22Z"/><rect class="cls-30" x="45.65" y="24.51" height="6.03"/><path class="cls-30" d="M40.2,32.91l.19-.13h0Z"/><path class="cls-30" d="M44.21,31l-2-3.08-1,1.56-.89,1.44.4,1.66c.05,0,.11-.08.17-.13s.28-.22.42-.34l.43-.34a1.57,1.57,0,0,1,.26-.19,2.73,2.73,0,0,1,.6-.28l.32-.07Z"/><path class="cls-30" d="M44,25l-1.59,2.57,2.19,3.36,1-.22.87-.24.37-.12-2.39-5.54Z"/><path class="cls-30" d="M40,31.34l-1.6,2.59c.3-.14.59-.3.89-.47s.58-.35.87-.55l.19-.13Z"/><polygon class="cls-30" points="41.22 29.44 42.19 27.88 42.19 27.88 41.22 29.44"/><rect class="cls-30" x="41.7" y="26.24" width="3.02" transform="translate(-1.86 49.13) rotate(-58.19)"/><path class="cls-32" d="M38.71,24.13h-.16a1.91,1.91,0,1,1,1.68-2.67,1.87,1.87,0,0,1-.57,2.22l-.14.11,1.58,2.41.36-.16L40,23.88a2.25,2.25,0,0,0,.55-2.56,2.29,2.29,0,1,0-4.2,1.82,2.31,2.31,0,0,0,2,1.39L39,27.11l.37-.16Z"/><rect class="cls-32" x="39.91" y="31.11" width="0.54" transform="translate(-9.04 18.5) rotate(-23.37)"/><polygon class="cls-32" points="42.19 27.88 42.42 27.52 41.46 26.05 41.1 26.21 42.19 27.88"/><polygon class="cls-32" points="40.33 30.88 39.38 26.95 39.02 27.11 40.04 31.34 40.33 30.88"/><path class="cls-32" d="M44.21,31h0l.4-.08h0Z"/><path class="cls-32" d="M40.39,32.78h0l.34-.24h0Z"/><path class="cls-32" d="M44.21,31l.4-.08-2.19-3.36-.23.36Z"/><path class="cls-32" d="M40.39,32.78l.34-.24-.4-1.66-.29.46Z"/><rect class="cls-32" x="42.3" y="27.48" height="0.43"/></svg>