<svg id="Layer_1" data-name="Layer 1" xmlns="http://www.w3.org/2000/svg" xmlns:xlink="http://www.w3.org/1999/xlink" viewBox="0 0 150 150"><defs><style>.cls-1{fill:#2c566d;}.cls-17,.cls-2,.cls-23,.cls-30,.cls-4{fill:none;}.cls-3{clip-path:url(#clip-path);}.cls-4{stroke:#92a3ad;stroke-width:1.77px;stroke-dasharray:3.53 3.53;}.cls-17,.cls-23,.cls-30,.cls-33,.cls-4{stroke-miterlimit:10;}.cls-5{clip-path:url(#clip-path-4);}.cls-6{fill:#bcbdc0;}.cls-7{fill:#e7e7e8;}.cls-8{fill:#5e4438;}.cls-9{fill:#775645;}.cls-10{fill:#a7a9ac;}.cls-11{fill:#3a2613;}.cls-12{fill:#87624d;}.cls-13{fill:#fff;}.cls-14{fill:#382616;}.cls-15{fill:#92a3ad;}.cls-16,.cls-33{fill:#434343;}.cls-17{stroke:#fff;}.cls-17,.cls-30{stroke-width:0.3px;}.cls-18{fill:#fef8f5;}.cls-19{fill:#e64826;}.cls-20{fill:#51d5ba;}.cls-21{fill:#d1d3d4;}.cls-22{fill:#e64d2b;}.cls-23{stroke:#a7a9ac;}.cls-23,.cls-33{stroke-width:0.59px;}.cls-24{fill:#e35c64;}.cls-25{fill:#fdd989;}.cls-26{fill:#5a9ce1;}.cls-27{fill:#6cc5d8;}.cls-28{fill:#65748a;}.cls-29{fill:#67798e;}.cls-30{stroke:#fef8f5;}.cls-31{fill:#bbbdc6;}.cls-32{fill:#dfe0e0;}.cls-33{stroke:#dfe0e0;}</style><clipPath id="clip-path"><ellipse class="cls-1" cx="75" cy="75" rx="74.22" ry="73.93"/></clipPath><clipPath id="clip-path-4"><ellipse class="cls-2" cx="75" cy="75" rx="74.22" ry="73.93"/></clipPath></defs><ellipse class="cls-1" cx="75" cy="75" rx="74.22" ry="73.93"/><g class="cls-3"><path class="cls-1" d="M69.17,150.46,53.32,131.19c-12.42-1.29-16.71,12.13-16.71,12.13s8.57,9.14,38,10.14h.29v-3Z"/><path class="cls-1" d="M94.72,130.33l-16,20.13H74.88v3c29.15.9,34.26-12.29,34.26-12.29C107.14,131.76,94.72,130.33,94.72,130.33Z"/><path class="cls-1" d="M80.54,126.25l-.24-8.48-17-.53L63.69,132,57,131l12.56,19.14h3.72V128.62A21.49,21.49,0,0,0,80.54,126.25Z"/><path class="cls-1" d="M84.92,136.85l-1.14-4.28-3.24-6.32a21.49,21.49,0,0,1-7.23,2.37v21.56h3.14Z"/><path class="cls-1" d="M68.82,151.39,57.67,134.8a.42.42,0,0,0-.48-.16l-1.52.51a.41.41,0,0,0-.29.44l.94,10a.43.43,0,0,0,.38.38l3.58.34a.42.42,0,0,1,.34.62l-3.16,5.85a.42.42,0,0,0,.42.62L68.52,152A.42.42,0,0,0,68.82,151.39Z"/><path class="cls-1" d="M70.59,150.8,59.45,134.21a.44.44,0,0,0-.49-.16l-1.52.51a.42.42,0,0,0-.28.44l.93,10a.43.43,0,0,0,.38.38l3.59.34a.42.42,0,0,1,.33.62l-3.16,5.85a.42.42,0,0,0,.43.62l10.64-1.38A.42.42,0,0,0,70.59,150.8Z"/><path class="cls-1" d="M75,79.84s-7.71-2.14-15.28,4.71-6,14-6,14a15.82,15.82,0,0,0-6,13.13c.43,8.57,3.28,11.57,3.28,11.57s2.43,7.14-5.28,12c0,0,9.14,6.85,19.56-2V121.53s-5-2.28-4.14-16.84L61,98.83s5.28-6.71,6.56-8.85a6.62,6.62,0,0,1,7.14-2.71Z"/><path class="cls-1" d="M85.73,107.54S89,125.1,73.31,126c0,0-10.28,1-12.71-10.28L60.46,99s2.14-2.14,5.85-8.85c0,0,3.85-4.42,8.42-3.71S85.73,107.54,85.73,107.54Z"/><path class="cls-1" d="M73.45,86.55v37.84s12.14,0,13.28-14.56l.14-9.86-5-4-5.14-4-1.57-3.43Z"/><path class="cls-1" d="M75.64,150.8l11.15-16.59a.42.42,0,0,1,.48-.16l1.52.51a.43.43,0,0,1,.29.44l-.94,10a.43.43,0,0,1-.38.38l-3.59.34a.42.42,0,0,0-.33.62L87,152.21a.42.42,0,0,1-.42.62l-10.65-1.38A.42.42,0,0,1,75.64,150.8Z"/><path class="cls-1" d="M84.3,80.7s-4.71-5.14-10.85-1.43V86s-1,6.28,6.14,10.28c2.27,1.27,5.06,3,6.07,5.56.45,1.14.21,2.76.21,4V115s-.62,5.85-5.33,8.85l0,8.42s2.57,14.57,17.27,10.14c0,0-3-3-2.71-6.57a5.72,5.72,0,0,0,5-5.57s-7.57,1-7.28-5.42c0,0,6.42-.72,4.85-12.14s-5.14-13.42-5.14-13.42S94.29,89.27,84.3,80.7Z"/></g><ellipse class="cls-1" cx="75" cy="75" rx="74.22" ry="73.93"/><g class="cls-3"><path class="cls-1" d="M69.17,150.46,53.32,131.19c-12.42-1.29-16.71,12.13-16.71,12.13s8.57,9.14,38,10.14h.29v-3Z"/><path class="cls-1" d="M94.72,130.33l-16,20.13H74.88v3c29.15.9,34.26-12.29,34.26-12.29C107.14,131.76,94.72,130.33,94.72,130.33Z"/><path class="cls-1" d="M80.54,126.25l-.24-8.48-17-.53L63.69,132,57,131l12.56,19.14h3.72V128.62A21.49,21.49,0,0,0,80.54,126.25Z"/><path class="cls-1" d="M84.92,136.85l-1.14-4.28-3.24-6.32a21.49,21.49,0,0,1-7.23,2.37v21.56h3.14Z"/><path class="cls-1" d="M68.82,151.39,57.67,134.8a.42.42,0,0,0-.48-.16l-1.52.51a.41.41,0,0,0-.29.44l.94,10a.43.43,0,0,0,.38.38l3.58.34a.42.42,0,0,1,.34.62l-3.16,5.85a.42.42,0,0,0,.42.62L68.52,152A.42.42,0,0,0,68.82,151.39Z"/><path class="cls-1" d="M70.59,150.8,59.45,134.21a.44.44,0,0,0-.49-.16l-1.52.51a.42.42,0,0,0-.28.44l.93,10a.43.43,0,0,0,.38.38l3.59.34a.42.42,0,0,1,.33.62l-3.16,5.85a.42.42,0,0,0,.43.62l10.64-1.38A.42.42,0,0,0,70.59,150.8Z"/><path class="cls-1" d="M75,79.84s-7.71-2.14-15.28,4.71-6,14-6,14a15.82,15.82,0,0,0-6,13.13c.43,8.57,3.28,11.57,3.28,11.57s2.43,7.14-5.28,12c0,0,9.14,6.85,19.56-2V121.53s-5-2.28-4.14-16.84L61,98.83s5.28-6.71,6.56-8.85a6.62,6.62,0,0,1,7.14-2.71Z"/><path class="cls-1" d="M85.73,107.54S89,125.1,73.31,126c0,0-10.28,1-12.71-10.28L60.46,99s2.14-2.14,5.85-8.85c0,0,3.85-4.42,8.42-3.71S85.73,107.54,85.73,107.54Z"/><path class="cls-1" d="M73.45,86.55v37.84s12.14,0,13.28-14.56l.14-9.86-5-4-5.14-4-1.57-3.43Z"/><path class="cls-1" d="M75.64,150.8l11.15-16.59a.42.42,0,0,1,.48-.16l1.52.51a.43.43,0,0,1,.29.44l-.94,10a.43.43,0,0,1-.38.38l-3.59.34a.42.42,0,0,0-.33.62L87,152.21a.42.42,0,0,1-.42.62l-10.65-1.38A.42.42,0,0,1,75.64,150.8Z"/><path class="cls-1" d="M84.3,80.7s-4.71-5.14-10.85-1.43V86s-1,6.28,6.14,10.28c2.27,1.27,5.06,3,6.07,5.56.45,1.14.21,2.76.21,4V115s-.62,5.85-5.33,8.85l0,8.42s2.57,14.57,17.27,10.14c0,0-3-3-2.71-6.57a5.72,5.72,0,0,0,5-5.57s-7.57,1-7.28-5.42c0,0,6.42-.72,4.85-12.14s-5.14-13.42-5.14-13.42S94.29,89.27,84.3,80.7Z"/></g><ellipse class="cls-1" cx="75" cy="75" rx="74.22" ry="73.93"/><g class="cls-3"><path class="cls-1" d="M69.17,150.46,53.32,131.19c-12.42-1.29-16.71,12.13-16.71,12.13s8.57,9.14,38,10.14h.29v-3Z"/><path class="cls-1" d="M94.72,130.33l-16,20.13H74.88v3c29.15.9,34.26-12.29,34.26-12.29C107.14,131.76,94.72,130.33,94.72,130.33Z"/><path class="cls-1" d="M80.54,126.25l-.24-8.48-17-.53L63.69,132,57,131l12.56,19.14h3.72V128.62A21.49,21.49,0,0,0,80.54,126.25Z"/><path class="cls-1" d="M84.92,136.85l-1.14-4.28-3.24-6.32a21.49,21.49,0,0,1-7.23,2.37v21.56h3.14Z"/><path class="cls-1" d="M68.82,151.39,57.67,134.8a.42.42,0,0,0-.48-.16l-1.52.51a.41.41,0,0,0-.29.44l.94,10a.43.43,0,0,0,.38.38l3.58.34a.42.42,0,0,1,.34.62l-3.16,5.85a.42.42,0,0,0,.42.62L68.52,152A.42.42,0,0,0,68.82,151.39Z"/><path class="cls-1" d="M70.59,150.8,59.45,134.21a.44.44,0,0,0-.49-.16l-1.52.51a.42.42,0,0,0-.28.44l.93,10a.43.43,0,0,0,.38.38l3.59.34a.42.42,0,0,1,.33.62l-3.16,5.85a.42.42,0,0,0,.43.62l10.64-1.38A.42.42,0,0,0,70.59,150.8Z"/><path class="cls-1" d="M75,79.84s-7.71-2.14-15.28,4.71-6,14-6,14a15.82,15.82,0,0,0-6,13.13c.43,8.57,3.28,11.57,3.28,11.57s2.43,7.14-5.28,12c0,0,9.14,6.85,19.56-2V121.53s-5-2.28-4.14-16.84L61,98.83s5.28-6.71,6.56-8.85a6.62,6.62,0,0,1,7.14-2.71Z"/><path class="cls-1" d="M85.73,107.54S89,125.1,73.31,126c0,0-10.28,1-12.71-10.28L60.46,99s2.14-2.14,5.85-8.85c0,0,3.85-4.42,8.42-3.71S85.73,107.54,85.73,107.54Z"/><path class="cls-1" d="M73.45,86.55v37.84s12.14,0,13.28-14.56l.14-9.86-5-4-5.14-4-1.57-3.43Z"/><path class="cls-1" d="M75.64,150.8l11.15-16.59a.42.42,0,0,1,.48-.16l1.52.51a.43.43,0,0,1,.29.44l-.94,10a.43.43,0,0,1-.38.38l-3.59.34a.42.42,0,0,0-.33.62L87,152.21a.42.42,0,0,1-.42.62l-10.65-1.38A.42.42,0,0,1,75.64,150.8Z"/><path class="cls-1" d="M84.3,80.7s-4.71-5.14-10.85-1.43V86s-1,6.28,6.14,10.28c2.27,1.27,5.06,3,6.07,5.56.45,1.14.21,2.76.21,4V115s-.62,5.85-5.33,8.85l0,8.42s2.57,14.57,17.27,10.14c0,0-3-3-2.71-6.57a5.72,5.72,0,0,0,5-5.57s-7.57,1-7.28-5.42c0,0,6.42-.72,4.85-12.14s-5.14-13.42-5.14-13.42S94.29,89.27,84.3,80.7Z"/></g><circle class="cls-4" cx="75" cy="75" r="61.8" transform="translate(-31.07 75) rotate(-45)"/><g class="cls-5"><path class="cls-6" d="M69.17,150.46,53.32,131.19c-12.42-1.29-16.71,12.13-16.71,12.13s8.57,9.14,38,10.14h.29v-3Z"/><path class="cls-7" d="M94.72,130.33l-16,20.13H74.88v3c29.15.9,34.26-12.29,34.26-12.29C107.14,131.76,94.72,130.33,94.72,130.33Z"/><path class="cls-8" d="M80.54,126.25l-.24-8.48-17-.53L63.69,132,57,131l12.56,19.14h3.72V128.62A21.49,21.49,0,0,0,80.54,126.25Z"/><path class="cls-9" d="M84.92,136.85l-1.14-4.28-3.24-6.32a21.49,21.49,0,0,1-7.23,2.37v21.56h3.14Z"/><path class="cls-10" d="M68.82,151.39,57.67,134.8a.42.42,0,0,0-.48-.16l-1.52.51a.41.41,0,0,0-.29.44l.94,10a.43.43,0,0,0,.38.38l3.58.34a.42.42,0,0,1,.34.62l-3.16,5.85a.42.42,0,0,0,.42.62L68.52,152A.42.42,0,0,0,68.82,151.39Z"/><path class="cls-7" d="M70.59,150.8,59.45,134.21a.44.44,0,0,0-.49-.16l-1.52.51a.42.42,0,0,0-.28.44l.93,10a.43.43,0,0,0,.38.38l3.59.34a.42.42,0,0,1,.33.62l-3.16,5.85a.42.42,0,0,0,.43.62l10.64-1.38A.42.42,0,0,0,70.59,150.8Z"/><path class="cls-11" d="M75,79.84s-7.71-2.14-15.28,4.71-6,14-6,14a15.82,15.82,0,0,0-6,13.13c.43,8.57,3.28,11.57,3.28,11.57s2.43,7.14-5.28,12c0,0,9.14,6.85,19.56-2V121.53s-5-2.28-4.14-16.84L61,98.83s5.28-6.71,6.56-8.85a6.62,6.62,0,0,1,7.14-2.71Z"/><path class="cls-9" d="M85.73,107.54S89,125.1,73.31,126c0,0-10.28,1-12.71-10.28L60.46,99s2.14-2.14,5.85-8.85c0,0,3.85-4.42,8.42-3.71S85.73,107.54,85.73,107.54Z"/><path class="cls-12" d="M73.45,86.55v37.84s12.14,0,13.28-14.56l.14-9.86-5-4-5.14-4-1.57-3.43Z"/><path class="cls-13" d="M75.64,150.8l11.15-16.59a.42.42,0,0,1,.48-.16l1.52.51a.43.43,0,0,1,.29.44l-.94,10a.43.43,0,0,1-.38.38l-3.59.34a.42.42,0,0,0-.33.62L87,152.21a.42.42,0,0,1-.42.62l-10.65-1.38A.42.42,0,0,1,75.64,150.8Z"/><path class="cls-14" d="M84.3,81.09S79.59,76,73.45,79.67v6.71s-1,6.28,6.14,10.28c2.27,1.27,5.06,3,6.07,5.55.45,1.14.21,2.77.21,4v4.71a35.33,35.33,0,0,1-.2,4.59c-.6,1.57-.76,4.59-5.13,8.31l0,8.82s2.57,14.56,17.27,10.14c0,0-3-3-2.71-6.57a5.72,5.72,0,0,0,5-5.57s-7.57,1-7.28-5.43c0,0,6.42-.71,4.85-12.13s-5.14-13.42-5.14-13.42S94.29,89.66,84.3,81.09Z"/></g><path class="cls-15" d="M38.9,129.57l-5.14-8,8.75,1.72A5.64,5.64,0,0,0,38.9,129.57Z"/><path class="cls-15" d="M132.81,106.59l-8.06,5,1.82-8.73A5.66,5.66,0,0,0,132.81,106.59Z"/><path class="cls-15" d="M23.22,34.55l8.66-3.91-3,8.41A5.65,5.65,0,0,0,23.22,34.55Z"/><rect class="cls-16" x="36.42" y="16.03" width="76.39" height="59.54"/><polyline class="cls-17" points="48.36 31.27 48.36 46.35 105.32 46.35"/><polygon class="cls-13" points="48.36 30.31 47.81 31.66 48.36 31.34 48.91 31.66 48.36 30.31"/><polygon class="cls-13" points="106.28 46.35 104.93 46.9 105.25 46.35 104.93 45.8 106.28 46.35"/><rect class="cls-18" x="39.99" y="18.74" width="69.25" height="54.11"/><polygon class="cls-19" points="48.55 46.33 48.27 45.99 62.76 33.67 69.16 31.55 74.18 33.27 87.27 31.03 92.05 32.78 96.62 31.13 102.08 31.04 105.27 29.12 105.49 29.5 102.21 31.48 96.66 31.58 92.05 33.26 87.22 31.49 74.14 33.73 69.16 32.02 62.94 34.08 48.55 46.33"/><circle class="cls-13" cx="105.38" cy="29.31" r="0.81"/><path class="cls-19" d="M105.38,30.27a1,1,0,1,1,1-1A1,1,0,0,1,105.38,30.27Zm0-1.62a.66.66,0,1,0,0,1.32.66.66,0,0,0,0-1.32Z"/><circle class="cls-13" cx="102.08" cy="31.04" r="0.81"/><path class="cls-19" d="M102.08,32a1,1,0,1,1,1-1A1,1,0,0,1,102.08,32Zm0-1.62a.66.66,0,1,0,.66.66A.66.66,0,0,0,102.08,30.38Z"/><circle class="cls-13" cx="96.56" cy="31.38" r="0.81"/><path class="cls-19" d="M96.56,32.34a1,1,0,1,1,1-1A1,1,0,0,1,96.56,32.34Zm0-1.62a.66.66,0,1,0,.66.66A.66.66,0,0,0,96.56,30.72Z"/><circle class="cls-13" cx="91.99" cy="32.95" r="0.81"/><path class="cls-19" d="M92,33.91a1,1,0,1,1,1-1A1,1,0,0,1,92,33.91Zm0-1.62a.66.66,0,1,0,.66.66A.67.67,0,0,0,92,32.29Z"/><circle class="cls-13" cx="87.25" cy="31.26" r="0.81"/><path class="cls-19" d="M87.25,32.22a1,1,0,1,1,1-1A1,1,0,0,1,87.25,32.22Zm0-1.62a.66.66,0,1,0,0,1.32.66.66,0,0,0,0-1.32Z"/><circle class="cls-13" cx="74.16" cy="33.5" r="0.81"/><path class="cls-19" d="M74.16,34.45a1,1,0,1,1,1-1A1,1,0,0,1,74.16,34.45Zm0-1.61a.66.66,0,0,0,0,1.32.66.66,0,0,0,0-1.32Z"/><circle class="cls-13" cx="69.23" cy="31.8" r="0.81"/><path class="cls-19" d="M69.23,32.75a1,1,0,0,1,0-1.91,1,1,0,1,1,0,1.91Zm0-1.62a.67.67,0,0,0,0,1.33.67.67,0,0,0,0-1.33Z"/><polygon class="cls-20" points="48.81 46.43 48.58 45.88 63 39.71 69.84 40.57 74 37.56 80.93 39.31 84.62 35.86 92.23 39.5 99.1 35.77 102.83 37.99 106.33 35.13 106.71 35.58 102.88 38.71 99.09 36.45 92.25 40.16 84.73 36.56 81.09 39.96 74.12 38.2 70 41.18 63.09 40.32 48.81 46.43"/><circle class="cls-13" cx="62.85" cy="33.71" r="0.81"/><path class="cls-19" d="M62.85,34.66a1,1,0,1,1,1-.95A1,1,0,0,1,62.85,34.66Zm0-1.61a.66.66,0,1,0,.66.66A.66.66,0,0,0,62.85,33.05Z"/><polygon class="cls-21" points="48.45 46.52 48.15 46.01 62.77 37.28 69.88 38.6 74.12 35.99 81.22 37.34 84.53 34.07 92.06 36.78 98.7 34.28 102.97 35.83 106.41 33.04 106.78 33.5 103.08 36.5 98.71 34.91 92.07 37.41 84.68 34.75 81.42 37.98 74.24 36.62 69.99 39.22 62.89 37.9 48.45 46.52"/><circle class="cls-22" cx="62.84" cy="37.59" r="0.81"/><path class="cls-13" d="M62.84,38.55a1,1,0,1,1,1-1A1,1,0,0,1,62.84,38.55Zm0-1.62a.66.66,0,1,0,.66.66A.66.66,0,0,0,62.84,36.93Z"/><circle class="cls-22" cx="74.35" cy="36.26" r="0.81"/><path class="cls-13" d="M74.35,37.21a1,1,0,1,1,1-1A1,1,0,0,1,74.35,37.21Zm0-1.61a.66.66,0,0,0,0,1.32.66.66,0,0,0,0-1.32Z"/><circle class="cls-22" cx="84.44" cy="34.4" r="0.81"/><path class="cls-13" d="M84.44,35.36a1,1,0,1,1,1-1A1,1,0,0,1,84.44,35.36Zm0-1.62a.66.66,0,1,0,.66.66A.66.66,0,0,0,84.44,33.74Z"/><circle class="cls-22" cx="92.1" cy="37.02" r="0.81"/><path class="cls-13" d="M92.1,38a1,1,0,1,1,1-1A1,1,0,0,1,92.1,38Zm0-1.62a.66.66,0,1,0,.66.66A.66.66,0,0,0,92.1,36.36Z"/><circle class="cls-22" cx="98.81" cy="34.5" r="0.81"/><path class="cls-13" d="M98.81,35.45a1,1,0,1,1,1-1A1,1,0,0,1,98.81,35.45Zm0-1.61a.66.66,0,1,0,.66.66A.66.66,0,0,0,98.81,33.84Z"/><polyline class="cls-23" points="48.34 31.68 48.34 46.52 104.91 46.52"/><polygon class="cls-10" points="48.34 30.31 47.55 32.25 48.34 31.79 49.13 32.25 48.34 30.31"/><polygon class="cls-10" points="106.28 46.52 104.34 47.31 104.8 46.52 104.34 45.73 106.28 46.52"/><path class="cls-16" d="M51.61,48.39a.35.35,0,0,1,.29.13A.87.87,0,0,1,52,49a.83.83,0,0,1-.12.51.36.36,0,0,1-.29.14.37.37,0,0,1-.3-.15A.8.8,0,0,1,51.2,49a.85.85,0,0,1,.12-.51A.35.35,0,0,1,51.61,48.39Zm0,.2a.11.11,0,0,0-.08,0,.19.19,0,0,0-.05.1,1.17,1.17,0,0,0,0,.32,1.7,1.7,0,0,0,0,.3.33.33,0,0,0,.06.12l.08,0a.13.13,0,0,0,.08,0,.15.15,0,0,0,.05-.1,1.62,1.62,0,0,0,0-.62.19.19,0,0,0-.05-.11A.13.13,0,0,0,51.61,48.59Z"/><path class="cls-16" d="M52.81,49.66h-.25v-.91a.87.87,0,0,1-.31.18v-.22a.78.78,0,0,0,.21-.12.48.48,0,0,0,.15-.2h.2Z"/><path class="cls-16" d="M41.64,43.57h-.25v-.92a.77.77,0,0,1-.31.19v-.22a.78.78,0,0,0,.21-.12.55.55,0,0,0,.15-.2h.2Z"/><path class="cls-16" d="M42.41,42.3a.35.35,0,0,1,.29.13.84.84,0,0,1,.12.52.83.83,0,0,1-.12.51.35.35,0,0,1-.29.13.36.36,0,0,1-.3-.14.87.87,0,0,1-.11-.51.83.83,0,0,1,.12-.51A.35.35,0,0,1,42.41,42.3Zm0,.2a.11.11,0,0,0-.08,0,.19.19,0,0,0,0,.1,1.17,1.17,0,0,0,0,.32,1,1,0,0,0,0,.3c0,.06,0,.1,0,.11a.13.13,0,0,0,.08,0,.11.11,0,0,0,.08,0,.19.19,0,0,0,0-.1,1.14,1.14,0,0,0,0-.31,1.85,1.85,0,0,0,0-.31.27.27,0,0,0-.06-.11A.11.11,0,0,0,42.41,42.5Z"/><path class="cls-16" d="M43.4,42.3a.33.33,0,0,1,.28.13.78.78,0,0,1,.13.52.76.76,0,0,1-.13.51.33.33,0,0,1-.28.13.34.34,0,0,1-.3-.14.79.79,0,0,1-.12-.51.82.82,0,0,1,.13-.51A.34.34,0,0,1,43.4,42.3Zm0,.2a.11.11,0,0,0-.08,0s0,0-.06.1a2.1,2.1,0,0,0,0,.32,1.8,1.8,0,0,0,0,.3c0,.06,0,.1.06.11a.11.11,0,0,0,.08,0,.13.13,0,0,0,.08,0,.19.19,0,0,0,.05-.1,1.24,1.24,0,0,0,0-.31,1.16,1.16,0,0,0,0-.31.15.15,0,0,0-.06-.11A.09.09,0,0,0,43.4,42.5Z"/><path class="cls-16" d="M44.38,42.3a.35.35,0,0,1,.29.13.84.84,0,0,1,.12.52.83.83,0,0,1-.12.51.35.35,0,0,1-.29.13.36.36,0,0,1-.3-.14.87.87,0,0,1-.11-.51.83.83,0,0,1,.12-.51A.35.35,0,0,1,44.38,42.3Zm0,.2a.13.13,0,0,0-.08,0,.19.19,0,0,0,0,.1,1.17,1.17,0,0,0,0,.32,1,1,0,0,0,0,.3c0,.06,0,.1,0,.11a.13.13,0,0,0,.08,0,.11.11,0,0,0,.08,0,.19.19,0,0,0,0-.1,1.14,1.14,0,0,0,0-.31,1.85,1.85,0,0,0,0-.31.27.27,0,0,0-.06-.11A.11.11,0,0,0,44.38,42.5Z"/><path class="cls-16" d="M41.83,40.2v.23H41a.62.62,0,0,1,.08-.24,1.7,1.7,0,0,1,.28-.31,1.72,1.72,0,0,0,.2-.2.3.3,0,0,0,.05-.15.17.17,0,0,0,0-.13.16.16,0,0,0-.12,0,.18.18,0,0,0-.13,0,.27.27,0,0,0,0,.16l-.24,0a.39.39,0,0,1,.14-.29.49.49,0,0,1,.28-.08.4.4,0,0,1,.3.1.32.32,0,0,1,.1.25.41.41,0,0,1,0,.16.65.65,0,0,1-.09.16l-.16.17a1.12,1.12,0,0,0-.15.14l0,.06Z"/><path class="cls-16" d="M42.41,39.16a.35.35,0,0,1,.29.13.83.83,0,0,1,.12.51.87.87,0,0,1-.12.52.35.35,0,0,1-.29.13.39.39,0,0,1-.3-.14A.89.89,0,0,1,42,39.8a.83.83,0,0,1,.12-.51A.35.35,0,0,1,42.41,39.16Zm0,.2a.11.11,0,0,0-.08,0,.15.15,0,0,0,0,.1,1.14,1.14,0,0,0,0,.31,1,1,0,0,0,0,.31.19.19,0,0,0,0,.11.13.13,0,0,0,.08,0,.11.11,0,0,0,.08,0,.19.19,0,0,0,0-.1,1.17,1.17,0,0,0,0-.32,1.8,1.8,0,0,0,0-.3c0-.06,0-.1-.06-.11A.11.11,0,0,0,42.41,39.36Z"/><path class="cls-16" d="M43.4,39.16a.33.33,0,0,1,.28.13.76.76,0,0,1,.13.51.79.79,0,0,1-.13.52.33.33,0,0,1-.28.13.36.36,0,0,1-.3-.14A.81.81,0,0,1,43,39.8a.82.82,0,0,1,.13-.51A.34.34,0,0,1,43.4,39.16Zm0,.2a.11.11,0,0,0-.08,0s0,0-.06.1a2.05,2.05,0,0,0,0,.31,1.85,1.85,0,0,0,0,.31.27.27,0,0,0,.06.11.11.11,0,0,0,.08,0,.13.13,0,0,0,.08,0,.19.19,0,0,0,.05-.1,1.29,1.29,0,0,0,0-.32,1.11,1.11,0,0,0,0-.3c0-.06,0-.1-.06-.11A.09.09,0,0,0,43.4,39.36Z"/><path class="cls-16" d="M44.38,39.16a.35.35,0,0,1,.29.13.83.83,0,0,1,.12.51.87.87,0,0,1-.12.52.35.35,0,0,1-.29.13.39.39,0,0,1-.3-.14A.89.89,0,0,1,44,39.8a.83.83,0,0,1,.12-.51A.35.35,0,0,1,44.38,39.16Zm0,.2a.13.13,0,0,0-.08,0,.15.15,0,0,0,0,.1,1.14,1.14,0,0,0,0,.31,1,1,0,0,0,0,.31.19.19,0,0,0,0,.11.13.13,0,0,0,.08,0,.11.11,0,0,0,.08,0,.19.19,0,0,0,0-.1,1.17,1.17,0,0,0,0-.32,1.8,1.8,0,0,0,0-.3c0-.06,0-.1-.06-.11A.11.11,0,0,0,44.38,39.36Z"/><path class="cls-16" d="M41,37l.24,0a.26.26,0,0,0,.06.14.17.17,0,0,0,.12,0,.18.18,0,0,0,.13-.06.25.25,0,0,0,0-.3.17.17,0,0,0-.12,0,.23.23,0,0,0-.11,0l0-.2a.21.21,0,0,0,.15,0,.16.16,0,0,0,.06-.12.18.18,0,0,0,0-.11.18.18,0,0,0-.1,0,.16.16,0,0,0-.11,0,.17.17,0,0,0,0,.12l-.23,0a.69.69,0,0,1,.07-.19.47.47,0,0,1,.13-.11.58.58,0,0,1,.19,0,.37.37,0,0,1,.29.12.29.29,0,0,1,.09.21.31.31,0,0,1-.18.27.27.27,0,0,1,.17.1.29.29,0,0,1,.07.2.38.38,0,0,1-.12.28.45.45,0,0,1-.31.12.39.39,0,0,1-.28-.1A.39.39,0,0,1,41,37Z"/><path class="cls-16" d="M42.41,36a.36.36,0,0,1,.29.14.83.83,0,0,1,.12.51.87.87,0,0,1-.12.52.35.35,0,0,1-.29.13.39.39,0,0,1-.3-.14.92.92,0,0,1-.11-.51.89.89,0,0,1,.12-.52A.38.38,0,0,1,42.41,36Zm0,.21-.08,0a.23.23,0,0,0,0,.11,1.62,1.62,0,0,0,0,.62.19.19,0,0,0,0,.11.13.13,0,0,0,.08,0,.11.11,0,0,0,.08,0,.19.19,0,0,0,0-.1,1.17,1.17,0,0,0,0-.32,1.7,1.7,0,0,0,0-.3.33.33,0,0,0-.06-.12Z"/><path class="cls-16" d="M43.4,36a.34.34,0,0,1,.28.14.76.76,0,0,1,.13.51.79.79,0,0,1-.13.52.33.33,0,0,1-.28.13.36.36,0,0,1-.3-.14.83.83,0,0,1-.12-.51.88.88,0,0,1,.13-.52A.36.36,0,0,1,43.4,36Zm0,.21-.08,0s0,.06-.06.11a2.41,2.41,0,0,0,0,.62.27.27,0,0,0,.06.11.11.11,0,0,0,.08,0,.13.13,0,0,0,.08,0,.19.19,0,0,0,.05-.1,1.29,1.29,0,0,0,0-.32,1.07,1.07,0,0,0,0-.3.17.17,0,0,0-.06-.12Z"/><path class="cls-16" d="M44.38,36a.36.36,0,0,1,.29.14.83.83,0,0,1,.12.51.87.87,0,0,1-.12.52.35.35,0,0,1-.29.13.39.39,0,0,1-.3-.14.92.92,0,0,1-.11-.51.89.89,0,0,1,.12-.52A.38.38,0,0,1,44.38,36Zm0,.21-.08,0a.23.23,0,0,0,0,.11,1.62,1.62,0,0,0,0,.62.19.19,0,0,0,0,.11.13.13,0,0,0,.08,0,.11.11,0,0,0,.08,0,.19.19,0,0,0,0-.1,1.17,1.17,0,0,0,0-.32,1.7,1.7,0,0,0,0-.3.33.33,0,0,0-.06-.12Z"/><path class="cls-16" d="M41.49,34.15v-.26H41v-.21l.55-.81h.21v.81h.15v.21h-.15v.26Zm0-.47v-.43l-.29.43Z"/><path class="cls-16" d="M42.41,32.87a.36.36,0,0,1,.29.14.83.83,0,0,1,.12.51.89.89,0,0,1-.12.52.35.35,0,0,1-.29.13.39.39,0,0,1-.3-.14.92.92,0,0,1-.11-.51.89.89,0,0,1,.12-.52A.38.38,0,0,1,42.41,32.87Zm0,.21a.11.11,0,0,0-.08,0,.23.23,0,0,0,0,.1,1.22,1.22,0,0,0,0,.32,1.09,1.09,0,0,0,0,.31.23.23,0,0,0,0,.11.13.13,0,0,0,.08,0,.11.11,0,0,0,.08,0,.19.19,0,0,0,0-.1,1.17,1.17,0,0,0,0-.32,1.7,1.7,0,0,0,0-.3.33.33,0,0,0-.06-.12A.11.11,0,0,0,42.41,33.08Z"/><path class="cls-16" d="M43.4,32.87a.34.34,0,0,1,.28.14.76.76,0,0,1,.13.51.81.81,0,0,1-.13.52.33.33,0,0,1-.28.13.36.36,0,0,1-.3-.14.83.83,0,0,1-.12-.51.88.88,0,0,1,.13-.52A.36.36,0,0,1,43.4,32.87Zm0,.21a.11.11,0,0,0-.08,0s0,.06-.06.1a2.21,2.21,0,0,0,0,.32,2,2,0,0,0,0,.31.36.36,0,0,0,.06.11.11.11,0,0,0,.08,0,.13.13,0,0,0,.08,0,.19.19,0,0,0,.05-.1,1.29,1.29,0,0,0,0-.32,1.07,1.07,0,0,0,0-.3.17.17,0,0,0-.06-.12A.08.08,0,0,0,43.4,33.08Z"/><path class="cls-16" d="M44.38,32.87a.36.36,0,0,1,.29.14.83.83,0,0,1,.12.51.89.89,0,0,1-.12.52.35.35,0,0,1-.29.13.39.39,0,0,1-.3-.14.92.92,0,0,1-.11-.51.89.89,0,0,1,.12-.52A.38.38,0,0,1,44.38,32.87Zm0,.21a.12.12,0,0,0-.08,0,.23.23,0,0,0,0,.1,1.22,1.22,0,0,0,0,.32,1.09,1.09,0,0,0,0,.31.23.23,0,0,0,0,.11.13.13,0,0,0,.08,0,.11.11,0,0,0,.08,0,.19.19,0,0,0,0-.1,1.17,1.17,0,0,0,0-.32,1.7,1.7,0,0,0,0-.3.33.33,0,0,0-.06-.12A.11.11,0,0,0,44.38,33.08Z"/><path class="cls-16" d="M58.84,48.39a.34.34,0,0,1,.29.13.86.86,0,0,1,.13.52.82.82,0,0,1-.13.51.34.34,0,0,1-.29.14.34.34,0,0,1-.29-.15.79.79,0,0,1-.12-.51.78.78,0,0,1,.13-.51A.32.32,0,0,1,58.84,48.39Zm0,.2a.13.13,0,0,0-.08,0,.19.19,0,0,0,0,.1,1.29,1.29,0,0,0,0,.32,1.07,1.07,0,0,0,0,.3.23.23,0,0,0,0,.12l.08,0a.11.11,0,0,0,.08,0s0-.05.06-.1a2.41,2.41,0,0,0,0-.62.27.27,0,0,0-.06-.11A.11.11,0,0,0,58.84,48.59Z"/><path class="cls-16" d="M60.24,49.44v.22h-.85a.57.57,0,0,1,.08-.24,1.63,1.63,0,0,1,.27-.3l.21-.21a.3.3,0,0,0,0-.15.19.19,0,0,0,0-.13.21.21,0,0,0-.12,0,.17.17,0,0,0-.12,0,.21.21,0,0,0-.05.15l-.24,0a.37.37,0,0,1,.13-.28.46.46,0,0,1,.29-.09.39.39,0,0,1,.29.1.34.34,0,0,1,.11.25.51.51,0,0,1,0,.17.59.59,0,0,1-.1.16l-.16.16-.14.14-.05.07Z"/><path class="cls-16" d="M66.08,48.39a.35.35,0,0,1,.29.13.87.87,0,0,1,.12.52.83.83,0,0,1-.12.51.36.36,0,0,1-.29.14.34.34,0,0,1-.3-.15.8.8,0,0,1-.11-.51.85.85,0,0,1,.12-.51A.35.35,0,0,1,66.08,48.39Zm0,.2a.11.11,0,0,0-.08,0,.19.19,0,0,0,0,.1,1.17,1.17,0,0,0,0,.32,1.7,1.7,0,0,0,0,.3.33.33,0,0,0,.06.12l.08,0a.13.13,0,0,0,.08,0,.15.15,0,0,0,0-.1,1.62,1.62,0,0,0,0-.62.19.19,0,0,0,0-.11A.13.13,0,0,0,66.08,48.59Z"/><path class="cls-16" d="M66.64,49.33l.24,0a.3.3,0,0,0,.06.14.16.16,0,0,0,.12,0,.21.21,0,0,0,.13,0,.25.25,0,0,0,0-.16.2.2,0,0,0,0-.14.14.14,0,0,0-.12-.06l-.11,0,0-.2a.21.21,0,0,0,.15,0,.14.14,0,0,0,.06-.12.15.15,0,0,0,0-.1.13.13,0,0,0-.1,0,.15.15,0,0,0-.11,0,.17.17,0,0,0,0,.13l-.23,0a.52.52,0,0,1,.07-.18.28.28,0,0,1,.13-.11.41.41,0,0,1,.19,0,.4.4,0,0,1,.29.11.32.32,0,0,1,.09.21.3.3,0,0,1-.18.27.28.28,0,0,1,.17.11.26.26,0,0,1,.07.19.4.4,0,0,1-.12.29.45.45,0,0,1-.31.12.43.43,0,0,1-.28-.1A.45.45,0,0,1,66.64,49.33Z"/><path class="cls-16" d="M73.31,48.39a.35.35,0,0,1,.29.13.87.87,0,0,1,.12.52.83.83,0,0,1-.12.51.36.36,0,0,1-.29.14.37.37,0,0,1-.3-.15A.87.87,0,0,1,72.9,49a.85.85,0,0,1,.12-.51A.35.35,0,0,1,73.31,48.39Zm0,.2a.13.13,0,0,0-.08,0,.19.19,0,0,0,0,.1,1.17,1.17,0,0,0,0,.32,1,1,0,0,0,0,.3.23.23,0,0,0,0,.12l.08,0a.11.11,0,0,0,.08,0,.15.15,0,0,0,0-.1,1.09,1.09,0,0,0,0-.31,2,2,0,0,0,0-.31.27.27,0,0,0-.06-.11A.11.11,0,0,0,73.31,48.59Z"/><path class="cls-16" d="M74.36,49.66v-.25h-.52v-.22l.56-.8h.2v.8h.16v.22H74.6v.25Zm0-.47v-.43l-.29.43Z"/><path class="cls-16" d="M80.55,48.39a.33.33,0,0,1,.28.13A.79.79,0,0,1,81,49a.76.76,0,0,1-.13.51.34.34,0,0,1-.28.14.34.34,0,0,1-.3-.15.79.79,0,0,1-.12-.51.84.84,0,0,1,.13-.51A.34.34,0,0,1,80.55,48.39Zm0,.2a.11.11,0,0,0-.08,0s0,.05-.06.1a2.1,2.1,0,0,0,0,.32,1.7,1.7,0,0,0,0,.3c0,.06,0,.1.06.12l.08,0a.09.09,0,0,0,.07,0s0-.05.06-.1a2,2,0,0,0,0-.31,1.2,1.2,0,0,0,0-.31.15.15,0,0,0-.06-.11A.09.09,0,0,0,80.55,48.59Z"/><path class="cls-16" d="M81.12,49.34l.25,0a.15.15,0,0,0,.06.13.17.17,0,0,0,.12.05.14.14,0,0,0,.12-.06.27.27,0,0,0,.06-.19.26.26,0,0,0,0-.17.2.2,0,0,0-.14-.06.26.26,0,0,0-.19.09l-.2,0,.13-.66h.64v.23h-.46l0,.21a.53.53,0,0,1,.17,0,.38.38,0,0,1,.28.12.45.45,0,0,1,.11.31.47.47,0,0,1-.09.28.43.43,0,0,1-.35.17.43.43,0,0,1-.28-.1A.39.39,0,0,1,81.12,49.34Z"/><path class="cls-16" d="M87.78,48.39a.35.35,0,0,1,.29.13.87.87,0,0,1,.12.52.83.83,0,0,1-.12.51.36.36,0,0,1-.29.14.37.37,0,0,1-.3-.15.87.87,0,0,1-.11-.51.85.85,0,0,1,.12-.51A.35.35,0,0,1,87.78,48.39Zm0,.2a.11.11,0,0,0-.08,0,.19.19,0,0,0,0,.1,1.17,1.17,0,0,0,0,.32,1,1,0,0,0,0,.3.23.23,0,0,0,0,.12l.08,0a.11.11,0,0,0,.08,0,.15.15,0,0,0,0-.1,1.09,1.09,0,0,0,0-.31,2,2,0,0,0,0-.31.27.27,0,0,0-.06-.11A.11.11,0,0,0,87.78,48.59Z"/><path class="cls-16" d="M89.18,48.71l-.24,0a.18.18,0,0,0,0-.11.17.17,0,0,0-.1,0,.16.16,0,0,0-.13.07.66.66,0,0,0-.06.29.25.25,0,0,1,.22-.11.36.36,0,0,1,.26.11.4.4,0,0,1,.11.3.48.48,0,0,1-.11.32.41.41,0,0,1-.3.12.42.42,0,0,1-.31-.15.8.8,0,0,1-.12-.49.85.85,0,0,1,.12-.51.43.43,0,0,1,.34-.15.36.36,0,0,1,.24.08A.39.39,0,0,1,89.18,48.71Zm-.55.53a.32.32,0,0,0,.05.18.18.18,0,0,0,.13.06.13.13,0,0,0,.11,0,.25.25,0,0,0,0-.17.26.26,0,0,0,0-.18.18.18,0,0,0-.13-.06.16.16,0,0,0-.11,0A.22.22,0,0,0,88.63,49.24Z"/><path class="cls-16" d="M95,48.39a.34.34,0,0,1,.29.13.86.86,0,0,1,.13.52.82.82,0,0,1-.13.51.34.34,0,0,1-.29.14.34.34,0,0,1-.29-.15A.79.79,0,0,1,94.6,49a.78.78,0,0,1,.13-.51A.33.33,0,0,1,95,48.39Zm0,.2a.09.09,0,0,0-.07,0,.14.14,0,0,0-.06.1,1.29,1.29,0,0,0,0,.32,1.07,1.07,0,0,0,0,.3.17.17,0,0,0,.06.12l.07,0a.11.11,0,0,0,.08,0s0-.05.06-.1a2.41,2.41,0,0,0,0-.62c0-.06,0-.09-.06-.11A.11.11,0,0,0,95,48.59Z"/><path class="cls-16" d="M95.59,48.64v-.23h.83v.18a1.21,1.21,0,0,0-.21.29,2,2,0,0,0-.16.4,1.42,1.42,0,0,0-.06.38h-.23a1.48,1.48,0,0,1,.11-.53,1.77,1.77,0,0,1,.27-.49Z"/><path class="cls-16" d="M102.25,48.39a.35.35,0,0,1,.29.13.87.87,0,0,1,.12.52.83.83,0,0,1-.12.51.36.36,0,0,1-.29.14.34.34,0,0,1-.3-.15.8.8,0,0,1-.11-.51.85.85,0,0,1,.12-.51A.35.35,0,0,1,102.25,48.39Zm0,.2a.11.11,0,0,0-.08,0,.19.19,0,0,0,0,.1,1.17,1.17,0,0,0,0,.32,1.7,1.7,0,0,0,0,.3.33.33,0,0,0,.06.12l.08,0a.13.13,0,0,0,.08,0,.15.15,0,0,0,0-.1,1.62,1.62,0,0,0,0-.62.19.19,0,0,0,0-.11A.13.13,0,0,0,102.25,48.59Z"/><path class="cls-16" d="M103,49a.31.31,0,0,1-.14-.11.42.42,0,0,1,0-.15.3.3,0,0,1,.1-.24.41.41,0,0,1,.28-.09.39.39,0,0,1,.28.09.3.3,0,0,1,.1.24.26.26,0,0,1,0,.15.35.35,0,0,1-.13.11.4.4,0,0,1,.16.12.32.32,0,0,1,.05.19.38.38,0,0,1-.11.29.41.41,0,0,1-.3.11.43.43,0,0,1-.28-.1.34.34,0,0,1-.14-.29.41.41,0,0,1,.05-.19A.3.3,0,0,1,103,49Zm0,.3a.23.23,0,0,0,0,.15.18.18,0,0,0,.13.06.17.17,0,0,0,.12-.05.21.21,0,0,0,0-.16.16.16,0,0,0,0-.14.14.14,0,0,0-.12-.06.17.17,0,0,0-.14.06A.23.23,0,0,0,103.06,49.28Zm0-.55a.21.21,0,0,0,0,.12.21.21,0,0,0,.11,0,.16.16,0,0,0,.11,0,.17.17,0,0,0,0-.12.15.15,0,0,0-.16-.15.14.14,0,0,0-.15.15Z"/><path class="cls-2" d="M99.56,57.57a3.35,3.35,0,0,0-3.35,3.36h3.35Z"/><path class="cls-2" d="M99.56,57.57v3.36h3.36A3.35,3.35,0,0,0,99.56,57.57Z"/><path class="cls-2" d="M96.21,60.93a3.35,3.35,0,0,0,3.35,3.35V60.93Z"/><path class="cls-2" d="M99.56,64.28a3.35,3.35,0,0,0,3.36-3.35H99.56Z"/><path class="cls-24" d="M102.92,60.93h1.93a5.29,5.29,0,0,0-5.29-5.29v1.93A3.35,3.35,0,0,1,102.92,60.93Z"/><path class="cls-25" d="M99.56,57.57V55.64a5.29,5.29,0,0,0-5.28,5.29h1.93A3.35,3.35,0,0,1,99.56,57.57Z"/><path class="cls-24" d="M102.92,60.93a3.35,3.35,0,0,1-3.36,3.35v1.93a5.29,5.29,0,0,0,5.29-5.28Z"/><path class="cls-26" d="M96.21,60.93H94.28a5.29,5.29,0,0,0,5.28,5.28V64.28A3.35,3.35,0,0,1,96.21,60.93Z"/><path class="cls-16" d="M97.56,61.7h-.3V60.55a1,1,0,0,1-.39.24v-.28a1.21,1.21,0,0,0,.26-.15.64.64,0,0,0,.19-.25h.24Z"/><path class="cls-16" d="M98.53,60.11a.41.41,0,0,1,.36.16,1.4,1.4,0,0,1,0,1.3.44.44,0,0,1-.36.16.45.45,0,0,1-.37-.18,1,1,0,0,1-.14-.63,1.09,1.09,0,0,1,.15-.65A.44.44,0,0,1,98.53,60.11Zm0,.25a.19.19,0,0,0-.1,0,.32.32,0,0,0-.06.13,1.83,1.83,0,0,0,0,.4,2.8,2.8,0,0,0,0,.38.26.26,0,0,0,.08.14.15.15,0,0,0,.09,0,.18.18,0,0,0,.1,0,.22.22,0,0,0,.07-.13,2.55,2.55,0,0,0,0-.78.3.3,0,0,0-.07-.14A.17.17,0,0,0,98.53,60.36Z"/><path class="cls-16" d="M99.77,60.11a.44.44,0,0,1,.36.16,1.48,1.48,0,0,1,0,1.3.49.49,0,0,1-.74,0,1.08,1.08,0,0,1-.14-.63,1,1,0,0,1,.16-.65A.41.41,0,0,1,99.77,60.11Zm0,.25a.17.17,0,0,0-.1,0,.32.32,0,0,0-.07.13,1.83,1.83,0,0,0,0,.4,1.57,1.57,0,0,0,0,.38.26.26,0,0,0,.07.14.18.18,0,0,0,.1,0,.21.21,0,0,0,.1,0,.22.22,0,0,0,.06-.13,1.67,1.67,0,0,0,0-.39,1.85,1.85,0,0,0,0-.39.45.45,0,0,0-.07-.14A.19.19,0,0,0,99.77,60.36Z"/><path class="cls-16" d="M100.49,60.51a.47.47,0,0,1,.09-.32.39.39,0,0,1,.52,0,.47.47,0,0,1,.09.32.46.46,0,0,1-.09.31.39.39,0,0,1-.52,0A.46.46,0,0,1,100.49,60.51Zm.24,0a.45.45,0,0,0,0,.21.08.08,0,0,0,.08,0,.08.08,0,0,0,.07,0s0-.1,0-.21a.31.31,0,0,0,0-.2.08.08,0,0,0-.07,0,.08.08,0,0,0-.08,0A.43.43,0,0,0,100.73,60.5Zm.34,1.26h-.23l.85-1.67h.22Zm.49-.42a.46.46,0,0,1,.09-.31.39.39,0,0,1,.52,0,.46.46,0,0,1,.09.31.47.47,0,0,1-.09.32.36.36,0,0,1-.52,0A.47.47,0,0,1,101.56,61.34Zm.24,0a.45.45,0,0,0,0,.21.09.09,0,0,0,.08,0,.07.07,0,0,0,.07,0s0-.1,0-.21a.31.31,0,0,0,0-.2.07.07,0,0,0-.07,0,.09.09,0,0,0-.08,0A.43.43,0,0,0,101.8,61.34Z"/><rect class="cls-27" x="45.13" y="55.01" width="44.76" height="11.07"/><path class="cls-2" d="M85.22,58.2a1.36,1.36,0,0,0-1.37,1.36h1.37Z"/><path class="cls-2" d="M85.22,58.2v1.36h1.36A1.36,1.36,0,0,0,85.22,58.2Z"/><path class="cls-2" d="M83.85,59.56a1.36,1.36,0,0,0,1.37,1.36V59.56Z"/><path class="cls-2" d="M85.22,60.92a1.36,1.36,0,0,0,1.36-1.36H85.22Z"/><path class="cls-28" d="M86.58,59.56h.78a2.14,2.14,0,0,0-2.14-2.14v.78A1.36,1.36,0,0,1,86.58,59.56Z"/><path class="cls-18" d="M85.22,58.2v-.78a2.14,2.14,0,0,0-2.15,2.14h.78A1.36,1.36,0,0,1,85.22,58.2Z"/><path class="cls-18" d="M86.58,59.56a1.36,1.36,0,0,1-1.36,1.36v.78a2.14,2.14,0,0,0,2.14-2.14Z"/><path class="cls-29" d="M83.85,59.56h-.78a2.14,2.14,0,0,0,2.15,2.14v-.78A1.36,1.36,0,0,1,83.85,59.56Z"/><path class="cls-18" d="M84.36,59.89h-.13V59.4a.59.59,0,0,1-.17.1v-.12l.11-.06a.26.26,0,0,0,.08-.11h.11Z"/><path class="cls-18" d="M84.77,59.21a.19.19,0,0,1,.16.07.48.48,0,0,1,.06.28.47.47,0,0,1-.06.27.19.19,0,0,1-.16.07.2.2,0,0,1-.16-.07.48.48,0,0,1-.06-.28.4.4,0,0,1,.07-.27A.18.18,0,0,1,84.77,59.21Zm0,.11h0l0,.05a.87.87,0,0,0,0,.18.62.62,0,0,0,0,.16.16.16,0,0,0,0,.06l0,0,0,0a.08.08,0,0,0,0-.05.65.65,0,0,0,0-.17c0-.08,0-.14,0-.17a.09.09,0,0,0,0-.06Z"/><path class="cls-18" d="M85.3,59.21a.19.19,0,0,1,.16.07.48.48,0,0,1,.06.28.47.47,0,0,1-.06.27.19.19,0,0,1-.16.07.2.2,0,0,1-.16-.07.48.48,0,0,1-.06-.28.4.4,0,0,1,.07-.27A.17.17,0,0,1,85.3,59.21Zm0,.11h0l0,.05a.87.87,0,0,0,0,.18.62.62,0,0,0,0,.16.16.16,0,0,0,0,.06l0,0,0,0a.08.08,0,0,0,0-.05.65.65,0,0,0,0-.17c0-.08,0-.14,0-.17a.09.09,0,0,0,0-.06Z"/><path class="cls-18" d="M85.61,59.38a.26.26,0,0,1,0-.14.15.15,0,0,1,.11,0,.12.12,0,0,1,.11,0,.2.2,0,0,1,0,.14.17.17,0,0,1,0,.13.13.13,0,0,1-.11.05.16.16,0,0,1-.11-.05A.22.22,0,0,1,85.61,59.38Zm.1,0a.2.2,0,0,0,0,.09h.06a.2.2,0,0,0,0-.09.14.14,0,0,0,0-.09s0,0,0,0l0,0A.14.14,0,0,0,85.71,59.38Zm.15.54h-.1l.37-.72h.09Zm.21-.18a.26.26,0,0,1,0-.14.15.15,0,0,1,.11,0,.12.12,0,0,1,.11,0,.27.27,0,0,1,0,.28.16.16,0,0,1-.11,0,.21.21,0,0,1-.11,0A.26.26,0,0,1,86.07,59.74Zm.1,0a.2.2,0,0,0,0,.09h0s0,0,0,0a.2.2,0,0,0,0-.09.14.14,0,0,0,0-.09s0,0,0,0l0,0A.14.14,0,0,0,86.17,59.74Z"/><path class="cls-2" d="M79.37,58.2A1.36,1.36,0,0,0,78,59.56h1.36Z"/><path class="cls-2" d="M79.37,58.2v1.36h1.36A1.36,1.36,0,0,0,79.37,58.2Z"/><path class="cls-2" d="M78,59.56a1.36,1.36,0,0,0,1.36,1.36V59.56Z"/><path class="cls-2" d="M79.37,60.92a1.36,1.36,0,0,0,1.36-1.36H79.37Z"/><path class="cls-28" d="M80.73,59.56h.78a2.14,2.14,0,0,0-2.14-2.14v.78A1.36,1.36,0,0,1,80.73,59.56Z"/><path class="cls-18" d="M79.37,58.2v-.78a2.14,2.14,0,0,0-2.14,2.14H78A1.36,1.36,0,0,1,79.37,58.2Z"/><path class="cls-29" d="M80.73,59.56a1.36,1.36,0,0,1-1.36,1.36v.78a2.14,2.14,0,0,0,2.14-2.14Z"/><path class="cls-18" d="M78,59.56h-.78a2.14,2.14,0,0,0,2.14,2.14v-.78A1.36,1.36,0,0,1,78,59.56Z"/><path class="cls-18" d="M78.51,59.89h-.13V59.4a.48.48,0,0,1-.17.1v-.12l.12-.06a.76.76,0,0,0,.08-.11h.1Z"/><path class="cls-18" d="M78.93,59.21a.16.16,0,0,1,.15.07.41.41,0,0,1,.07.28.4.4,0,0,1-.07.27.16.16,0,0,1-.15.07.19.19,0,0,1-.16-.07.48.48,0,0,1-.06-.28.4.4,0,0,1,.07-.27A.16.16,0,0,1,78.93,59.21Zm0,.11h0l0,.05a.87.87,0,0,0,0,.18.62.62,0,0,0,0,.16.16.16,0,0,0,0,.06.05.05,0,0,0,0,0l0,0,0-.05a.76.76,0,0,0,0-.17.72.72,0,0,0,0-.17.16.16,0,0,0,0-.06Z"/><path class="cls-18" d="M79.46,59.21a.16.16,0,0,1,.15.07.41.41,0,0,1,.07.28.4.4,0,0,1-.07.27.16.16,0,0,1-.15.07.19.19,0,0,1-.16-.07.48.48,0,0,1-.06-.28.4.4,0,0,1,.07-.27A.16.16,0,0,1,79.46,59.21Zm0,.11h0s0,0,0,.05a.87.87,0,0,0,0,.18.62.62,0,0,0,0,.16.16.16,0,0,0,0,.06l0,0a.05.05,0,0,0,0,0l0-.05a.76.76,0,0,0,0-.17.72.72,0,0,0,0-.17.16.16,0,0,0,0-.06Z"/><path class="cls-18" d="M79.77,59.38a.2.2,0,0,1,0-.14.17.17,0,0,1,.22,0,.2.2,0,0,1,0,.14.17.17,0,0,1,0,.13.15.15,0,0,1-.22,0A.17.17,0,0,1,79.77,59.38Zm.1,0a.2.2,0,0,0,0,.09H80a.2.2,0,0,0,0-.09.14.14,0,0,0,0-.09l0,0,0,0A.14.14,0,0,0,79.87,59.38Zm.15.54h-.1l.37-.72h.09Zm.21-.18a.2.2,0,0,1,0-.14.17.17,0,0,1,.22,0,.27.27,0,0,1,0,.28.17.17,0,0,1-.22,0A.2.2,0,0,1,80.23,59.74Zm.1,0a.2.2,0,0,0,0,.09s0,0,0,0h0a.2.2,0,0,0,0-.09.14.14,0,0,0,0-.09l0,0,0,0A.14.14,0,0,0,80.33,59.74Z"/><path class="cls-2" d="M73.53,58.2a1.36,1.36,0,0,0-1.36,1.36h1.36Z"/><path class="cls-2" d="M73.53,58.2v1.36h1.36A1.36,1.36,0,0,0,73.53,58.2Z"/><path class="cls-2" d="M72.17,59.56a1.36,1.36,0,0,0,1.36,1.36V59.56Z"/><path class="cls-2" d="M73.53,60.92a1.36,1.36,0,0,0,1.36-1.36H73.53Z"/><path class="cls-28" d="M74.89,59.56h.78a2.14,2.14,0,0,0-2.14-2.14v.78A1.36,1.36,0,0,1,74.89,59.56Z"/><path class="cls-18" d="M73.53,58.2v-.78a2.14,2.14,0,0,0-2.14,2.14h.78A1.36,1.36,0,0,1,73.53,58.2Z"/><path class="cls-28" d="M74.89,59.56a1.36,1.36,0,0,1-1.36,1.36v.78a2.14,2.14,0,0,0,2.14-2.14Z"/><path class="cls-29" d="M72.17,59.56h-.78a2.14,2.14,0,0,0,2.14,2.14v-.78A1.36,1.36,0,0,1,72.17,59.56Z"/><path class="cls-18" d="M72.67,59.89h-.13V59.4a.48.48,0,0,1-.17.1v-.12a.3.3,0,0,0,.11-.06.26.26,0,0,0,.08-.11h.11Z"/><path class="cls-18" d="M73.09,59.21a.18.18,0,0,1,.15.07.41.41,0,0,1,.07.28.4.4,0,0,1-.07.27.18.18,0,0,1-.15.07.19.19,0,0,1-.16-.07.48.48,0,0,1-.06-.28.47.47,0,0,1,.06-.27A.19.19,0,0,1,73.09,59.21Zm0,.11h0a.08.08,0,0,0,0,.05.74.74,0,0,0,0,.18c0,.08,0,.13,0,.16a.09.09,0,0,0,0,.06.05.05,0,0,0,0,0l0,0,0-.05a.76.76,0,0,0,0-.17.72.72,0,0,0,0-.17.16.16,0,0,0,0-.06Z"/><path class="cls-18" d="M73.62,59.21a.18.18,0,0,1,.15.07.41.41,0,0,1,.07.28.4.4,0,0,1-.07.27.18.18,0,0,1-.15.07.19.19,0,0,1-.16-.07.48.48,0,0,1-.06-.28.47.47,0,0,1,.06-.27A.19.19,0,0,1,73.62,59.21Zm0,.11h-.05a.08.08,0,0,0,0,.05.74.74,0,0,0,0,.18c0,.08,0,.13,0,.16a.09.09,0,0,0,0,.06.05.05,0,0,0,0,0l0,0,0-.05a.76.76,0,0,0,0-.17.72.72,0,0,0,0-.17.16.16,0,0,0,0-.06Z"/><path class="cls-18" d="M73.93,59.38a.2.2,0,0,1,0-.14.12.12,0,0,1,.11,0,.15.15,0,0,1,.11,0,.26.26,0,0,1,0,.14.22.22,0,0,1,0,.13.16.16,0,0,1-.11.05.13.13,0,0,1-.11-.05A.17.17,0,0,1,73.93,59.38Zm.1,0a.22.22,0,0,0,0,.09h.07a.22.22,0,0,0,0-.09c0-.05,0-.08,0-.09l0,0,0,0S74,59.33,74,59.38Zm.15.54h-.1l.36-.72h.1Zm.21-.18a.2.2,0,0,1,0-.14.12.12,0,0,1,.11,0,.15.15,0,0,1,.11,0,.26.26,0,0,1,0,.28.21.21,0,0,1-.11,0,.16.16,0,0,1-.11,0A.2.2,0,0,1,74.39,59.74Zm.1,0a.22.22,0,0,0,0,.09h.07a.22.22,0,0,0,0-.09c0-.05,0-.08,0-.09l0,0,0,0S74.49,59.69,74.49,59.74Z"/><path class="cls-18" d="M54.21,64.58h-.13v-.49a.69.69,0,0,1-.17.1v-.12A.34.34,0,0,0,54,64a.24.24,0,0,0,.09-.11h.1Z"/><path class="cls-18" d="M54.63,63.89a.2.2,0,0,1,.15.07.59.59,0,0,1,0,.56.17.17,0,0,1-.15.07.19.19,0,0,1-.16-.08.45.45,0,0,1-.06-.27.51.51,0,0,1,.06-.28A.22.22,0,0,1,54.63,63.89Zm0,.11a.05.05,0,0,0,0,0,.05.05,0,0,0,0,0,.65.65,0,0,0,0,.17.59.59,0,0,0,0,.17.06.06,0,0,0,0,.06h.08l0-.06a.72.72,0,0,0,0-.17.62.62,0,0,0,0-.16l0-.06Z"/><path class="cls-18" d="M55.16,63.89a.2.2,0,0,1,.15.07.59.59,0,0,1,0,.56.17.17,0,0,1-.15.07.19.19,0,0,1-.16-.08.45.45,0,0,1-.06-.27A.51.51,0,0,1,55,64,.22.22,0,0,1,55.16,63.89Zm0,.11,0,0a.05.05,0,0,0,0,0,.65.65,0,0,0,0,.17.59.59,0,0,0,0,.17.06.06,0,0,0,0,.06h.08a.16.16,0,0,0,0-.06.72.72,0,0,0,0-.17.62.62,0,0,0,0-.16.16.16,0,0,0,0-.06Z"/><path class="cls-18" d="M55.47,64.06a.17.17,0,0,1,0-.13.12.12,0,0,1,.11,0,.15.15,0,0,1,.11,0,.17.17,0,0,1,0,.13.18.18,0,0,1,0,.14.15.15,0,0,1-.11,0,.12.12,0,0,1-.11,0A.18.18,0,0,1,55.47,64.06Zm.1,0s0,.08,0,.09l0,0,0,0s0,0,0-.09a.22.22,0,0,0,0-.09h-.07A.22.22,0,0,0,55.57,64.06Zm.15.54h-.1l.36-.71h.1Zm.21-.17a.18.18,0,0,1,0-.14.12.12,0,0,1,.11,0,.15.15,0,0,1,.11,0,.18.18,0,0,1,0,.14.17.17,0,0,1,0,.13.14.14,0,0,1-.11,0,.13.13,0,0,1-.11,0A.17.17,0,0,1,55.93,64.43Zm.1,0s0,.07,0,.08,0,0,0,0,0,0,0,0,0,0,0-.08,0-.08,0-.09,0,0,0,0,0,0,0,0S56,64.38,56,64.43Z"/><path class="cls-18" d="M58.78,64.58h-.13v-.49a.69.69,0,0,1-.17.1v-.12l.11-.07a.18.18,0,0,0,.08-.11h.11Z"/><path class="cls-18" d="M59.2,63.89a.21.21,0,0,1,.15.07.59.59,0,0,1,0,.56.18.18,0,0,1-.15.07.19.19,0,0,1-.16-.08.45.45,0,0,1-.06-.27A.51.51,0,0,1,59,64,.22.22,0,0,1,59.2,63.89Zm0,.11-.05,0a.08.08,0,0,0,0,0,.65.65,0,0,0,0,.17c0,.08,0,.14,0,.17l0,.06h.09l0-.06a.72.72,0,0,0,0-.17.62.62,0,0,0,0-.16l0-.06Z"/><path class="cls-18" d="M59.73,63.89a.21.21,0,0,1,.15.07.59.59,0,0,1,0,.56.18.18,0,0,1-.15.07.19.19,0,0,1-.16-.08.45.45,0,0,1-.06-.27.51.51,0,0,1,.06-.28A.22.22,0,0,1,59.73,63.89Zm0,.11,0,0a.08.08,0,0,0,0,0,.65.65,0,0,0,0,.17c0,.08,0,.14,0,.17a.16.16,0,0,0,0,.06h.09a.16.16,0,0,0,0-.06.72.72,0,0,0,0-.17.62.62,0,0,0,0-.16.16.16,0,0,0,0-.06Z"/><path class="cls-18" d="M60,64.06a.17.17,0,0,1,0-.13.12.12,0,0,1,.11,0,.15.15,0,0,1,.11,0,.22.22,0,0,1,0,.13.23.23,0,0,1,0,.14.15.15,0,0,1-.11,0,.12.12,0,0,1-.11,0A.18.18,0,0,1,60,64.06Zm.1,0s0,.08,0,.09l0,0,0,0s0,0,0-.09a.22.22,0,0,0,0-.09h-.07A.22.22,0,0,0,60.14,64.06Zm.15.54h-.1l.36-.71h.1Zm.21-.17a.18.18,0,0,1,0-.14.12.12,0,0,1,.11,0,.15.15,0,0,1,.11,0,.23.23,0,0,1,0,.14.22.22,0,0,1,0,.13.16.16,0,0,1-.11,0,.13.13,0,0,1-.11,0A.17.17,0,0,1,60.5,64.43Zm.1,0s0,.07,0,.08,0,0,0,0,0,0,0,0,0,0,0-.08,0-.08,0-.09,0,0,0,0,0,0,0,0S60.6,64.38,60.6,64.43Z"/><path class="cls-18" d="M63,64.58h-.13v-.49a1,1,0,0,1-.17.1v-.12l.11-.07a.23.23,0,0,0,.08-.11H63Z"/><path class="cls-18" d="M63.43,63.89a.22.22,0,0,1,.16.07.68.68,0,0,1,0,.56.19.19,0,0,1-.16.07.21.21,0,0,1-.16-.08.45.45,0,0,1-.06-.27.43.43,0,0,1,.07-.28A.2.2,0,0,1,63.43,63.89Zm0,.11,0,0,0,0a.76.76,0,0,0,0,.17.72.72,0,0,0,0,.17.16.16,0,0,0,0,.06h.08a.06.06,0,0,0,0-.06.59.59,0,0,0,0-.17c0-.08,0-.13,0-.16a.09.09,0,0,0,0-.06A.05.05,0,0,0,63.43,64Z"/><path class="cls-18" d="M64,63.89a.22.22,0,0,1,.16.07.68.68,0,0,1,0,.56.19.19,0,0,1-.16.07.21.21,0,0,1-.16-.08.45.45,0,0,1-.06-.27.43.43,0,0,1,.07-.28A.2.2,0,0,1,64,63.89ZM64,64l0,0,0,0a.76.76,0,0,0,0,.17.72.72,0,0,0,0,.17.16.16,0,0,0,0,.06H64a.06.06,0,0,0,0-.06.59.59,0,0,0,0-.17.51.51,0,0,0,0-.16A.06.06,0,0,0,64,64Z"/><path class="cls-18" d="M64.27,64.06a.22.22,0,0,1,0-.13.15.15,0,0,1,.11,0,.12.12,0,0,1,.11,0,.17.17,0,0,1,0,.13.18.18,0,0,1,0,.14.12.12,0,0,1-.11,0,.15.15,0,0,1-.11,0A.23.23,0,0,1,64.27,64.06Zm.1,0a.14.14,0,0,0,0,.09l0,0s0,0,0,0a.14.14,0,0,0,0-.09.2.2,0,0,0,0-.09h-.06A.2.2,0,0,0,64.37,64.06Zm.15.54h-.1l.37-.71h.09Zm.21-.17a.23.23,0,0,1,0-.14.15.15,0,0,1,.11,0,.12.12,0,0,1,.11,0,.18.18,0,0,1,0,.14.17.17,0,0,1,0,.13.13.13,0,0,1-.11,0,.16.16,0,0,1-.11,0A.22.22,0,0,1,64.73,64.43Zm.1,0a.13.13,0,0,0,0,.08s0,0,0,0,0,0,0,0a.13.13,0,0,0,0-.08.14.14,0,0,0,0-.09s0,0,0,0,0,0,0,0A.14.14,0,0,0,64.83,64.43Z"/><line class="cls-30" x1="68.16" y1="60.96" x2="47.89" y2="60.96"/><line class="cls-30" x1="47.89" y1="57.58" x2="47.89" y2="64.39"/><line class="cls-30" x1="52.31" y1="57.58" x2="52.31" y2="64.39"/><line class="cls-30" x1="56.74" y1="57.58" x2="56.74" y2="64.39"/><line class="cls-30" x1="61.16" y1="57.58" x2="61.16" y2="64.39"/><line class="cls-30" x1="65.59" y1="57.58" x2="65.59" y2="64.39"/><path class="cls-18" d="M46.39,62.6a.23.23,0,0,1,.17.08.56.56,0,0,1,.07.31.55.55,0,0,1-.07.3.2.2,0,0,1-.17.08.22.22,0,0,1-.18-.08.47.47,0,0,1-.07-.3.56.56,0,0,1,.07-.31A.23.23,0,0,1,46.39,62.6Zm0,.12,0,0a.06.06,0,0,0,0,.06.78.78,0,0,0,0,.19c0,.09,0,.15,0,.18a.43.43,0,0,0,0,.07h0a0,0,0,0,0,0,0,.06.06,0,0,0,0-.06.62.62,0,0,0,0-.18c0-.09,0-.15,0-.19a.15.15,0,0,0,0-.06Z"/><path class="cls-18" d="M47.1,63.36H47v-.55a.4.4,0,0,1-.19.11v-.13a.33.33,0,0,0,.13-.07A.27.27,0,0,0,47,62.6h.12Z"/><path class="cls-18" d="M46.33,60.5a.19.19,0,0,1,.17.08.47.47,0,0,1,.07.3.49.49,0,0,1-.07.31.21.21,0,0,1-.17.08.2.2,0,0,1-.18-.09.44.44,0,0,1-.07-.3.52.52,0,0,1,.08-.31A.19.19,0,0,1,46.33,60.5Zm0,.12h0s0,0,0,.06a.78.78,0,0,0,0,.19.62.62,0,0,0,0,.18.09.09,0,0,0,0,.07l0,0,0,0a.06.06,0,0,0,0-.06.78.78,0,0,0,0-.19.77.77,0,0,0,0-.18.16.16,0,0,0,0-.07Z"/><path class="cls-18" d="M47.15,61.12v.13h-.5a.27.27,0,0,1,.05-.14.79.79,0,0,1,.16-.18l.12-.12a.16.16,0,0,0,0-.09.11.11,0,0,0,0-.08l-.07,0-.07,0a.12.12,0,0,0,0,.09h-.14a.19.19,0,0,1,.08-.17.29.29,0,0,1,.17,0,.24.24,0,0,1,.17.06.2.2,0,0,1,.06.15.28.28,0,0,1,0,.09.53.53,0,0,1-.06.1L47,61l-.08.08,0,0Z"/><path class="cls-18" d="M46.32,58.24a.2.2,0,0,1,.17.08.48.48,0,0,1,.08.31.47.47,0,0,1-.08.3.2.2,0,0,1-.17.08.21.21,0,0,1-.17-.08.49.49,0,0,1-.07-.31.47.47,0,0,1,.07-.3A.21.21,0,0,1,46.32,58.24Zm0,.12a.05.05,0,0,0,0,0,.09.09,0,0,0,0,.06.92.92,0,0,0,0,.19.82.82,0,0,0,0,.18.09.09,0,0,0,0,.06s0,0,0,0,0,0,0,0a.16.16,0,0,0,0-.06.68.68,0,0,0,0-.18.78.78,0,0,0,0-.19.16.16,0,0,0,0-.06Z"/><path class="cls-18" d="M46.66,58.8l.14,0a.1.1,0,0,0,0,.08.11.11,0,0,0,.08,0,.11.11,0,0,0,.07,0,.16.16,0,0,0,0-.09.12.12,0,0,0,0-.09.09.09,0,0,0-.07,0h-.07l0-.12.09,0a.11.11,0,0,0,0-.08.14.14,0,0,0,0-.06l-.06,0a.09.09,0,0,0-.07,0,.24.24,0,0,0,0,.07l-.13,0a.28.28,0,0,1,0-.11.27.27,0,0,1,.08-.07l.11,0a.21.21,0,0,1,.17.07.17.17,0,0,1,.06.12.18.18,0,0,1-.11.16.17.17,0,0,1,.1.07.15.15,0,0,1,0,.11.26.26,0,0,1-.07.17.24.24,0,0,1-.18.07.24.24,0,0,1-.17-.06A.22.22,0,0,1,46.66,58.8Z"/><circle class="cls-18" cx="53.26" cy="58.58" r="0.38"/><circle class="cls-18" cx="55.73" cy="62.13" r="0.38"/><circle class="cls-18" cx="60.17" cy="57.62" r="0.38"/><circle class="cls-18" cx="64.88" cy="57.62" r="0.38"/><rect class="cls-31" x="46.93" y="67.24" width="34.08" height="0.62"/><circle class="cls-32" cx="34.69" cy="45.57" r="3.41"/><path class="cls-33" d="M39.65,28.23h0a0,0,0,0,1,0,0V63.37a0,0,0,0,1,0,0h0a2.14,2.14,0,0,1-2.14-2.14V30.37A2.14,2.14,0,0,1,39.65,28.23Z"/><path class="cls-32" d="M36.84,30.83h.61a0,0,0,0,1,0,0V60.52a0,0,0,0,1,0,0h-.61a2.29,2.29,0,0,1-2.29-2.29V33.12a2.29,2.29,0,0,1,2.29-2.29Z"/></svg>