<svg id="Layer_1" data-name="Layer 1" xmlns="http://www.w3.org/2000/svg" viewBox="0 0 150 150"><defs><style>.cls-1{fill:#f8c456;}.cls-2{fill:#172432;}.cls-3{fill:#2a3849;}.cls-4{fill:#4d6071;}.cls-13,.cls-5{fill:#fff;}.cls-5{opacity:0.17;}.cls-6{fill:#3b4b5b;}.cls-7{fill:#424242;}.cls-8{fill:#a1a1a1;}.cls-9{fill:#535351;}.cls-10{fill:#63a836;}.cls-11{fill:#c44e1d;}.cls-12{fill:#88d2f7;}.cls-14,.cls-16,.cls-20,.cls-21,.cls-26{fill:none;}.cls-15{fill:#fdf6d7;opacity:0.12;}.cls-16{stroke:#b5b5b6;stroke-width:0.14px;}.cls-16,.cls-20,.cls-21,.cls-26{stroke-miterlimit:10;}.cls-17{fill:#b9b9ba;}.cls-18{fill:#b8b8b9;}.cls-19{fill:#ed5b49;}.cls-20{stroke:#ed5b49;}.cls-20,.cls-21{stroke-width:0.26px;}.cls-21{stroke:#0a3755;}.cls-22{fill:#0a3755;}.cls-23{fill:#eea12e;}.cls-24{fill:#e1ecf3;}.cls-25{fill:#c1c8cb;}.cls-26{stroke:#c1c8cb;stroke-width:0.17px;}</style></defs><rect class="cls-1" x="7.8" y="21.52" width="133.85" height="105.67"/><rect class="cls-1" x="7.8" y="21.52" width="133.85" height="105.67"/><path class="cls-2" d="M126.51,80.12H125.1a.11.11,0,0,0-.12.11v2.18a.11.11,0,0,0,.12.11h0a.11.11,0,0,1,.11.12V83a.11.11,0,0,0,.11.11h1a.11.11,0,0,0,.11-.11v-.4a.12.12,0,0,1,.12-.12h0a.11.11,0,0,0,.11-.11V80.23A.11.11,0,0,0,126.51,80.12Z"/><rect class="cls-2" x="84.5" y="80.56" width="4.5" height="1.29"/><path class="cls-2" d="M121.57,110.46H102.63a4.51,4.51,0,0,1-4.51-4.5V85.45a4,4,0,0,0-4-4H88.48v-.54h5.67a4.51,4.51,0,0,1,4.51,4.51V106a4,4,0,0,0,4,4h18.94a4,4,0,0,0,4-4V82.19h.54V106A4.51,4.51,0,0,1,121.57,110.46Z"/><polygon class="cls-3" points="22.73 80.26 19.79 82.19 85.95 82.19 83.08 80.26 22.73 80.26"/><polygon class="cls-3" points="35.63 82.43 33.28 84.71 50.41 84.71 49.99 82.43 35.63 82.43"/><rect class="cls-2" x="26.41" y="77.46" width="6.49" height="2.79"/><rect class="cls-2" x="72.28" y="77.46" width="6.49" height="2.79"/><rect class="cls-3" x="22.09" y="38.25" width="60.99" height="40.35" rx="1.93"/><rect class="cls-4" x="23.45" y="40.21" width="58.27" height="36.42"/><path class="cls-5" d="M61.6,38.25c-6.18,10.6-18.89,27.34-39.51,32.49V39.59a1.35,1.35,0,0,1,1.35-1.34Z"/><polygon class="cls-6" points="92.18 85.1 13 85.1 22.09 79.29 83.08 79.29 92.18 85.1"/><path class="cls-3" d="M91,87H14.22a1.25,1.25,0,0,1-.91-.55l-.54-.82c-.2-.31-.12-.57.19-.57H92.22c.31,0,.39.26.18.57l-.54.82A1.23,1.23,0,0,1,91,87Z"/><path class="cls-3" d="M136.69,45.36l.09,34.06a.71.71,0,0,1-.76.67l-20.32,0a.72.72,0,0,1-.77-.67l-.1-34.07a.73.73,0,0,1,.77-.67l20.32,0A.73.73,0,0,1,136.69,45.36Z"/><path class="cls-7" d="M128,46.34h-4.38a.38.38,0,0,1-.41-.36h0a.39.39,0,0,1,.41-.37H128a.4.4,0,0,1,.42.37h0A.38.38,0,0,1,128,46.34Z"/><path class="cls-8" d="M118.26,45.88a.81.81,0,1,1-.81-.7A.76.76,0,0,1,118.26,45.88Z"/><path class="cls-9" d="M117.82,45.89a.34.34,0,0,1-.36.31.35.35,0,0,1-.37-.31.37.37,0,0,1,.73,0Z"/><path class="cls-10" d="M120.15,79h-2.5a.43.43,0,0,1-.43-.43h0a.43.43,0,0,1,.43-.43h2.5a.42.42,0,0,1,.43.42h0A.43.43,0,0,1,120.15,79Z"/><path class="cls-11" d="M134,79h-2.5a.43.43,0,0,1-.43-.43h0a.43.43,0,0,1,.43-.43H134a.43.43,0,0,1,.43.43h0A.42.42,0,0,1,134,79Z"/><path class="cls-12" d="M126.41,78.6a.6.6,0,1,1-.6-.6A.6.6,0,0,1,126.41,78.6Z"/><rect class="cls-13" x="115.48" y="47.18" width="20.66" height="30.51" transform="matrix(1, 0, 0, 1, -0.13, 0.27)"/><rect class="cls-14" x="115.48" y="47.14" width="20.66" height="30.54" transform="matrix(1, 0, 0, 1, -0.13, 0.27)"/><path class="cls-15" d="M133.76,44.68c-.37.75-.78,1.57-1.24,2.43l0,0c-.53,1-1.12,2.06-1.76,3.16-.29.49-.6,1-.91,1.5q-.66,1.06-1.38,2.16c-.48.73-1,1.46-1.52,2.19-.26.37-.53.74-.81,1.1-.59.8-1.22,1.59-1.87,2.37-.31.38-.64.76-1,1.13A44.46,44.46,0,0,1,118,65.86l-.6.48q-.93.73-1.89,1.38l-.66.44-.06-22.78a.73.73,0,0,1,.77-.67Z"/><rect class="cls-16" x="118.44" y="65.54" width="3.16" height="1.95"/><rect class="cls-16" x="117.52" y="65.54" width="0.92" height="1.95"/><rect class="cls-16" x="121.6" y="65.54" width="3.16" height="1.95"/><rect class="cls-16" x="130.8" y="65.54" width="3.07" height="1.95"/><rect class="cls-16" x="127.91" y="65.54" width="2.89" height="1.95"/><rect class="cls-16" x="124.75" y="65.54" width="3.16" height="1.95"/><rect class="cls-16" x="127.91" y="64.12" width="2.89" height="1.42"/><rect class="cls-16" x="121.6" y="64.12" width="3.16" height="1.42"/><rect class="cls-16" x="124.75" y="64.12" width="3.16" height="1.42"/><rect class="cls-16" x="118.44" y="64.12" width="3.16" height="1.42"/><rect class="cls-16" x="117.52" y="64.12" width="0.92" height="1.42"/><rect class="cls-16" x="130.8" y="64.12" width="3.07" height="1.42"/><rect class="cls-17" x="131.89" y="66.06" width="1.13" height="0.52"/><rect class="cls-17" x="131.43" y="64.58" width="2.05" height="0.3"/><rect class="cls-17" x="128.81" y="66.06" width="1.13" height="0.52"/><rect class="cls-17" x="128.35" y="64.58" width="2.05" height="0.3"/><rect class="cls-17" x="125.73" y="66.06" width="1.13" height="0.52"/><rect class="cls-17" x="125.27" y="64.58" width="2.05" height="0.3"/><rect class="cls-17" x="122.65" y="66.06" width="1.13" height="0.52"/><rect class="cls-17" x="122.58" y="64.58" width="1.17" height="0.3"/><rect class="cls-17" x="119.58" y="66.06" width="1.13" height="0.52"/><rect class="cls-17" x="119.11" y="64.58" width="2.05" height="0.3"/><rect class="cls-17" x="117.49" y="66.06" width="0.45" height="0.52"/><rect class="cls-17" x="117.48" y="64.58" width="0.45" height="0.3"/><rect class="cls-18" x="117.48" y="62.11" width="1.03" height="0.85"/><rect class="cls-18" x="118.97" y="62.31" width="6.61" height="0.5"/><rect class="cls-18" x="126.2" y="62.31" width="1.13" height="0.5"/><rect class="cls-18" x="127.85" y="62.31" width="5.67" height="0.5"/><rect class="cls-18" x="117.48" y="68.8" width="16.48" height="0.56"/><rect class="cls-18" x="117.48" y="71.3" width="16.48" height="0.36"/><rect class="cls-18" x="117.48" y="72.02" width="8.27" height="0.36"/><rect class="cls-18" x="126.4" y="72.02" width="7.56" height="0.36"/><rect class="cls-18" x="117.48" y="72.74" width="16.48" height="0.36"/><rect class="cls-18" x="117.48" y="73.45" width="13.51" height="0.36"/><rect class="cls-18" x="117.48" y="70.49" width="5.77" height="0.48"/><rect class="cls-18" x="123.83" y="70.49" width="5.77" height="0.48"/><rect class="cls-18" x="130.19" y="70.49" width="3.76" height="0.48"/><ellipse class="cls-19" cx="120.02" cy="57.44" rx="0.42" ry="0.47"/><ellipse class="cls-19" cx="122.93" cy="58.31" rx="0.42" ry="0.47"/><ellipse class="cls-19" cx="125.78" cy="56.63" rx="0.42" ry="0.47"/><ellipse class="cls-19" cx="128.08" cy="57.28" rx="0.42" ry="0.47"/><ellipse class="cls-19" cx="130.6" cy="55.98" rx="0.42" ry="0.47"/><polyline class="cls-20" points="117.59 58.42 119.97 57.44 122.97 58.32 125.83 56.61 128.09 57.31 130.56 56.04"/><polyline class="cls-21" points="132.01 54.71 128.01 55.62 125.96 59.13 122.88 56.05 119.98 59.42 117.59 59.36"/><ellipse class="cls-22" cx="132.04" cy="54.69" rx="0.42" ry="0.47"/><ellipse class="cls-22" cx="128.03" cy="55.65" rx="0.42" ry="0.47"/><ellipse class="cls-22" cx="125.95" cy="59.05" rx="0.42" ry="0.47"/><ellipse class="cls-22" cx="122.89" cy="56.07" rx="0.42" ry="0.47"/><ellipse class="cls-22" cx="119.95" cy="59.39" rx="0.42" ry="0.47"/><polygon class="cls-23" points="133.7 61.11 117.43 61.11 117.43 53.25 117.67 53.25 117.67 60.84 133.7 60.84 133.7 61.11"/><rect class="cls-24" x="116.61" y="49.64" width="18.17" height="2.02"/><rect class="cls-25" x="117.69" y="50.32" width="15.81" height="0.48"/><rect class="cls-26" x="116.52" y="48.49" width="18.36" height="27.58"/><rect class="cls-26" x="115.75" y="47.69" width="19.95" height="29.07" rx="0.79"/><path class="cls-14" d="M57.85,135.16,14.22,87,86,82.19l.8-1h7.54a4.31,4.31,0,0,1,4,3.79c.6,3.7,0,20.9,0,20.9a4.21,4.21,0,0,0,3.77,4.17c3.78.46,19.48-.14,19.48-.14s3.76.9,4-4,0-24.92,0-24.92L131,73.82"/></svg>