<svg id="Layer_1" data-name="Layer 1" xmlns="http://www.w3.org/2000/svg" xmlns:xlink="http://www.w3.org/1999/xlink" viewBox="0 0 150 150"><defs><style>.cls-1,.cls-17,.cls-19,.cls-20{fill:none;}.cls-2{fill:#353f49;}.cls-3{fill:#232e38;}.cls-18,.cls-4{fill:#fff;}.cls-5{fill:#cccbca;}.cls-6{fill:#dad9d8;}.cls-7{fill:#ededed;}.cls-8{fill:#fdca5c;}.cls-9{fill:#f77b54;}.cls-10{fill:#3b454f;}.cls-11{clip-path:url(#clip-path);}.cls-12{fill:#ddd;}.cls-13{fill:#ff916f;}.cls-14{fill:#92deeb;}.cls-15{fill:#d9d8d7;}.cls-16{fill:#e0f5f9;}.cls-17,.cls-18,.cls-19,.cls-20{stroke:#353f49;stroke-miterlimit:10;}.cls-17{stroke-width:0.55px;}.cls-18{stroke-width:0.37px;}.cls-19{stroke-width:0.74px;stroke-dasharray:0.37 0.74;}.cls-20{stroke-width:0.35px;}</style><clipPath id="clip-path"><rect class="cls-1" x="15.03" y="26.13" width="43.15" height="29.18"/></clipPath></defs><circle class="cls-2" cx="74.61" cy="109.52" r="30.25"/><path class="cls-3" d="M49,91.33h51.21A1.77,1.77,0,0,1,102,93.1v31.82a0,0,0,0,1,0,0H47.22a0,0,0,0,1,0,0V93.1A1.77,1.77,0,0,1,49,91.33Z"/><rect class="cls-4" x="50.19" y="94.15" width="48.86" height="30.76"/><polygon class="cls-5" points="108.67 125.57 41.33 125.57 48.7 127.77 100.53 127.77 108.67 125.57"/><rect class="cls-4" x="41.5" y="124.24" width="67.18" height="1.35"/><rect class="cls-6" x="68.69" y="124.73" width="11.95" height="0.58"/><circle class="cls-4" cx="74.71" cy="92.82" r="0.85"/><rect class="cls-7" x="57.35" y="120.01" width="5.32" height="0.85"/><rect class="cls-7" x="57.35" y="118.54" width="10.17" height="0.85"/><rect class="cls-7" x="57.35" y="117.07" width="10.17" height="0.85"/><rect class="cls-8" x="57.35" y="109.96" width="10.17" height="5.28"/><rect class="cls-9" x="57.35" y="97.79" width="10.17" height="10.19"/><rect class="cls-7" x="69.53" y="120.01" width="5.32" height="0.85"/><rect class="cls-7" x="69.53" y="118.54" width="10.17" height="0.85"/><rect class="cls-7" x="69.53" y="117.07" width="10.17" height="0.85"/><rect class="cls-7" x="69.53" y="102.22" width="11.59" height="0.85"/><rect class="cls-7" x="69.53" y="100.75" width="22.35" height="0.85"/><rect class="cls-7" x="69.53" y="99.28" width="22.35" height="0.85"/><rect class="cls-8" x="69.53" y="109.96" width="10.17" height="5.28"/><rect class="cls-10" x="69.53" y="97.52" width="22.35" height="1.19"/><rect class="cls-7" x="81.72" y="120.01" width="5.32" height="0.85"/><rect class="cls-7" x="81.72" y="118.54" width="10.17" height="0.85"/><rect class="cls-7" x="81.72" y="117.07" width="10.17" height="0.85"/><rect class="cls-8" x="81.72" y="109.96" width="10.17" height="5.28"/><path class="cls-4" d="M66.05,103.28v-.8h-.71a2.46,2.46,0,0,0-.17-.62l.62-.36-.4-.69-.62.35a2.79,2.79,0,0,0-.46-.45l.35-.62-.69-.4-.36.62a2.46,2.46,0,0,0-.62-.17v-.7h-.8v.7a2.66,2.66,0,0,0-.63.17l-.35-.61-.69.41.34.6a3.33,3.33,0,0,0-.46.46l-.6-.34-.4.69.6.35a3.25,3.25,0,0,0-.17.63h-.69v.8h.7a2.74,2.74,0,0,0,.17.64l-.6.34.4.7.6-.35a2.92,2.92,0,0,0,.47.46l-.35.6.7.4.35-.6a2.65,2.65,0,0,0,.63.16v.7H63v-.71a2.66,2.66,0,0,0,.63-.17l.35.61.69-.4-.35-.62a2.45,2.45,0,0,0,.45-.46l.62.36.4-.7-.62-.35a2.65,2.65,0,0,0,.16-.63Zm-3.46.64a1,1,0,1,1,1-1A1,1,0,0,1,62.59,103.92Z"/><circle class="cls-2" cx="36.78" cy="40.67" r="30.25"/><path class="cls-3" d="M11.15,22.47H62.36a1.77,1.77,0,0,1,1.77,1.77V56.05a0,0,0,0,1,0,0H9.39a0,0,0,0,1,0,0V24.24A1.77,1.77,0,0,1,11.15,22.47Z"/><rect class="cls-4" x="12.36" y="25.3" width="48.86" height="30.76"/><g class="cls-11"><polygon class="cls-4" points="58.18 55.31 15.03 55.31 15.03 26.13 58.18 26.13 58.18 55.31 58.18 55.31"/></g><path class="cls-12" d="M39.25,38v.07l.2,0,.27-.29,0,0-.46.2Zm3,.3a1.9,1.9,0,0,0,.27.11c.14,0,.13-.07.12-.16a2,2,0,0,0,0-.24s0-.06,0-.06a.45.45,0,0,0-.16,0,3.54,3.54,0,0,0-.19.39Zm-.81-.38,0,0c-.07,0-.16,0-.22,0a1.35,1.35,0,0,0-.41.28c-.06.06,0,.23,0,.32a3.45,3.45,0,0,0,.33.45c-.2.29-.2.36.1.53a.29.29,0,0,0,.24,0,.21.21,0,0,0,.06-.19,3,3,0,0,0-.11-.43v-.08l.16.07s0,0-.21-.14l0-.16c-.24,0-.28-.11-.14-.32a3.31,3.31,0,0,1,.26-.27Zm-2.34.16-.22-.28a1.84,1.84,0,0,1-.07.24s0,.14-.08.15c-.32.07-.18.35-.3.59l.86-.19s.09,0,.13,0,.34.11.51.15.15,0,.16-.07a.28.28,0,0,0-.05-.2,2.26,2.26,0,0,0-.45-.31c-.07,0-.17,0-.26,0l-.37.07-.05-.1.19-.12Zm8.48,6.42a1.47,1.47,0,0,1-.31-.9c0-.11-.15-.22-.17-.34s-.25-.45-.15-.72c0,0,0-.1-.13-.2s0,.13-.06.16-.22,0-.2-.09c0-.28-.14-.42-.27-.61s-.11-.2-.18-.32l-.17.2c-.13,0-.28,0-.29.23,0,.06-.12.13-.18.2l-.34.32s0,.07-.07.08c-.2.08-.23.2-.19.41a.73.73,0,0,1-.15.65.37.37,0,0,1-.17.1s-.07-.09-.09-.14c-.12-.3-.25-.61-.37-.92a2.2,2.2,0,0,1-.12-.44,2.67,2.67,0,0,1,0-.4,1.11,1.11,0,0,1-.29,0c-.06,0-.15,0-.16-.09,0-.22-.2-.32-.36-.44s0-.06-.07,0l-.45-.09a.45.45,0,0,1-.66-.24.36.36,0,0,1-.48,0c-.12-.11-.23-.24-.35-.35l0-.06h-.31l.34.42c.07.09.2.12.19.29s.28.16.4,0a1.51,1.51,0,0,0,.09-.14l.45.39c.12.1.09.2,0,.3s-.1.07-.1.11c0,.36-.36.39-.58.55l-.38.23c-.21.13-.5.06-.67.31s-.26,0-.23-.2c.06-.39-.19-.62-.35-.91l-.19-.39-.18-.33c-.05-.08-.09-.17-.15-.25a.35.35,0,0,0-.11-.13l-.33-.21c.13.19.22.33.32.46s.23.22.12.41a.12.12,0,0,0,0,.1,5.44,5.44,0,0,1,.52,1c.06.11.18.19.24.31a.57.57,0,0,0,1,.19l.06,0,.16.19a6.89,6.89,0,0,1-.35.83,2.71,2.71,0,0,1-.56.61,1.39,1.39,0,0,0-.47,1.5,1,1,0,0,1,0,.89s0,.08-.06.08c-.26,0-.32.29-.49.41s0,.16,0,.24,0,.24,0,.35a.41.41,0,0,1-.13.19s-.13.07-.13.1c0,.25-.16.42-.25.62a.59.59,0,0,1-.13.19l-.22.24a1.2,1.2,0,0,1-.56.18.32.32,0,0,0-.24.06c-.13.14-.25.07-.35,0s-.2-.2-.08-.33a5.11,5.11,0,0,0-.21-.47c0-.09-.11-.15-.13-.23a3.15,3.15,0,0,1-.09-.42,2.27,2.27,0,0,0-.16-.61.84.84,0,0,1,0-1c.18-.23,0-.47,0-.7a1.06,1.06,0,0,0-.08-.4,1.46,1.46,0,0,0-.26-.34c-.11-.12-.22-.21-.09-.41a.67.67,0,0,0,.05-.43s-.1-.09-.17-.11-.39,0-.42-.3c0,0-.09-.06-.14-.06a.6.6,0,0,0-.27.07.8.8,0,0,1-.6.13.42.42,0,0,0-.31.1c-.13.13-.24.1-.32,0l-.74-1s0-.07,0-.07c-.23,0-.09-.18,0-.29l-.2-.17c.36-.18.17-.49.2-.76a2.51,2.51,0,0,1,.14-.78,1.79,1.79,0,0,1,.49-.5.39.39,0,0,0,.16-.36c0-.17,0-.29.24-.34s.15-.2.23-.32l.25.09c.05,0,.13,0,.16,0a1.7,1.7,0,0,1,1-.3,1.94,1.94,0,0,1,.34,0c.07,0,.2,0,.2.08s.16.3-.09.39V40l.39.15.4.19.26.13c0-.11,0-.21.09-.29s.17-.14.31-.06.31.23.53.21c.06,0,.13.07.14.07s.27-.09.36-.06a.24.24,0,0,0,.33-.19,2.69,2.69,0,0,0,.08-.53c-.23.09-.43-.12-.66,0-.06,0-.25-.09-.31-.19a.82.82,0,0,1-.06-.39s0-.06.06-.09l-.29,0-.19.22.15.12c0,.07-.06.17-.11.18s-.2,0-.22,0c-.11-.2-.18-.42-.29-.61s-.17-.15-.25-.23-.23-.26-.34-.39L36.85,38s-.08.09-.08.13.3.46.4.53a2.72,2.72,0,0,1,.38.31l0,.06-.15,0-.22.46-.25-.14,0-.05.23,0c.08-.24-.12-.31-.23-.43s-.33-.28-.49-.42l0-.08-.36.18-.31-.08,0,.08c-.12.14-.24.29-.37.42s-.17.1-.09.24-.1.17-.13.27-.19.1-.31.08-.22.2-.31,0c0,0-.05,0-.06,0-.23.11-.27-.08-.33-.21s0-.13,0-.16.1-.31.08-.48,0-.25.19-.24l.32,0,.32,0a1.13,1.13,0,0,0,.05-.4c0-.11-.15-.19-.23-.29l-.11-.12.12-.08.23-.14a1.44,1.44,0,0,0,.31-.13,3.1,3.1,0,0,0,.33-.28c0-.27.29-.22.52-.32a.94.94,0,0,0-.06-.24c-.13-.21-.13-.25.13-.34a.21.21,0,0,1,0-.11s0-.06,0-.08.07,0,.07,0,0,.23.05.34a1,1,0,0,0,0,.3c0,.05.16,0,.24.05.23,0,.41-.16.67-.11s.17-.24.22-.39a1.84,1.84,0,0,0,.05-.25L38,36l.06,0c-.15-.13-.19-.25.05-.4-.35,0-.47-.18-.48-.43,0-.09.08-.19.13-.28s.09-.08.13-.12l.21-.23c-.08,0-.19-.08-.27-.06s-.09.14-.14.2a1.05,1.05,0,0,1-.26.29c-.18.11-.25.27-.11.43a.3.3,0,0,1,0,.5,2.72,2.72,0,0,0-.27.44s-.11.05-.16.08l-.06-.14a1,1,0,0,0-.18-.36c0-.06-.17-.07-.25-.06A2.08,2.08,0,0,0,36,36c-.07-.2-.14-.37-.19-.54a.34.34,0,0,1,.23-.4,1.06,1.06,0,0,0,.62-.64.62.62,0,0,1,.49-.44,2.32,2.32,0,0,0,.48-.23l-.17-.24H38v-.12c.18-.07.35.13.52,0,0,0,.06,0,.07,0,.14.31.49.29.72.46a2,2,0,0,0,.25.13c.06.05.14.13.13.18s-.09.17-.16.18a2,2,0,0,1-.43,0,.57.57,0,0,0,.25.47,2.45,2.45,0,0,0,0-.27l.26.12c.18,0-.2-.23.07-.27s.24-.06.39-.1l-.13-.4c.18-.06.29,0,.31.16s.11.17.19.08c.21-.26.51-.24.79-.29a2.73,2.73,0,0,0,.34-.08l.09.11h0l0-.27a.77.77,0,0,1,.83.34l.05-.06-.13-.22c-.1-.15-.26-.29,0-.47,0,0,0-.16.07-.23s.11-.18.17-.18a.27.27,0,0,1,.19.16,6,6,0,0,1,.16.64s0,0,0,.07c.13.25.2.48-.21.58l0,.07a.66.66,0,0,0,.25-.06.45.45,0,0,0,.12-.2c.11-.27.1-.28.34-.15,0-.18-.07-.21-.25-.16a.21.21,0,0,1-.15,0c0-.23-.08-.46-.11-.7l0-.07.29.45.06,0c0-.05,0-.13,0-.15s.14-.12.18-.1a4.45,4.45,0,0,0,.45.27l-.24-.27c0-.07-.12-.15-.11-.21a.3.3,0,0,1,.19-.13,2.66,2.66,0,0,1,.4,0l-.15-.23.22-.13c.17-.09.37,0,.56-.15s.35,0,.53,0h.11a.47.47,0,0,1,0-.17c.05-.08.1-.19.18-.21A.36.36,0,0,1,46,32c.09.1.15.19.31.08s.57.09.59.25-.08.24-.16.32-.18.09-.27.14a.34.34,0,0,0-.12.12A1.9,1.9,0,0,1,48,33c.19-.24.45-.29.61-.1s0,.16,0,.29c.21.15.38.16.45,0l.8.07c-.14-.21,0-.29.11-.33s.4.22.65.16a.55.55,0,0,1,.3.07c.22.13.41.29.7.18a.45.45,0,0,1,.49.17,1.14,1.14,0,0,0,.19.19c.29-.28.58,0,.88-.06,0-.14.12-.13.28-.14.32,0,.57.18.86.22a.12.12,0,0,1,.1,0c.15.17.39.19.57.31a.35.35,0,0,1,.09.11l.62.07a.22.22,0,0,1,0,.18s-.12.06-.2.09a.6.6,0,0,1,.06.11c0,.05,0,.1,0,.16a.88.88,0,0,1-.17,0,4,4,0,0,1-.47-.22,1.54,1.54,0,0,1-.25-.29v.29l-.21.15c.12.15.42.15.33.45-.42-.08-.59,0-.74.41-.13,0-.29-.12-.39-.08s-.43.12-.42.39c.09.09.18.17.27.27-.14.33-.28.65-.42,1-.08-.06-.15-.09-.16-.13-.12-.3-.36-.58-.25-.92a1.8,1.8,0,0,1,.38-.59c.13-.16.15-.15,0-.31l-.08.13c-.06.1-.1.09-.19,0s-.21-.15-.27-.12a.48.48,0,0,0-.19.29c-.07.3-.16.34-.4.17,0,0-.12,0-.19,0a2.44,2.44,0,0,1-.26.06,2.77,2.77,0,0,0-.41,0,.57.57,0,0,0-.28.18,2.64,2.64,0,0,0-.15.29,2.27,2.27,0,0,1-.18.25l.27.24c.14-.13.25-.13.36,0a.44.44,0,0,1,.09.24A1.8,1.8,0,0,1,51,38.16c-.12.18-.19.43-.5.34,0,0-.14.07-.17.13s-.12.29-.17.42a3.76,3.76,0,0,1,.31.52.23.23,0,0,1-.21.33s-.14-.06-.14-.11a.63.63,0,0,0-.36-.57l.11-.15c-.19-.17-.29.12-.46.07l-.06-.29a2.28,2.28,0,0,0-.27.27.17.17,0,0,0,0,.17.36.36,0,0,0,.19,0c.08,0,.18-.07.25,0s.12.14,0,.21-.27.27-.07.48.16.49.25.73a.18.18,0,0,1,0,.12c-.07.12-.19.2-.19.37s-.16.16-.22.25a.5.5,0,0,1-.47.22c-.16,0-.31.14-.47.23l-.11-.17a1.42,1.42,0,0,1-.11.18c-.2.21-.21.29,0,.48a.67.67,0,0,1,.23.81,2.25,2.25,0,0,1-.44.52c-.11-.17.07-.52-.29-.4,0,0,0,0,0-.05A1.79,1.79,0,0,0,47.5,43a.24.24,0,0,0-.12,0,1.31,1.31,0,0,0,0,.28c0,.27.25.41.42.59a.69.69,0,0,1,.09.59s-.16,0-.24.05l-.07,0Z"/><path class="cls-12" d="M25.35,33.7a.52.52,0,0,1,.29-.37.31.31,0,0,1,.21.16,2.94,2.94,0,0,1,.09.48c.12-.08.22-.26.26,0a1.23,1.23,0,0,0,.05.25,2.3,2.3,0,0,1,.25-.43.33.33,0,0,1,.28,0s.06.15.07.24,0,.1,0,.15,0,.21-.08.23a.59.59,0,0,1-.3,0h-.14c-.06.26-.23.13-.34.1s.14.18.12.24-.16.12-.23.19c-.25.28-.66.43-.76.85h.06a1.16,1.16,0,0,1,.14.27c0,.13.08.14.19.14a.7.7,0,0,1,.27.11c.17.12.32.28.56.24.09.22-.16.47.06.67.25,0,.33-.15.31-.39a.3.3,0,0,1,.15-.34c.05,0,0-.21,0-.31s-.12-.29.07-.41c0,0,0-.13,0-.21a1.53,1.53,0,0,1,0-.3c0-.13.12-.22.27-.1s.1,0,.14,0a1.45,1.45,0,0,1,.29.11.51.51,0,0,1,.19.2c0,.15,0,.37.06.42.29.18.33-.18.48-.31a5.6,5.6,0,0,0,.3.48c.07.09-.14.15,0,.26s.12.15.23.19,0,.09.1.18a.35.35,0,0,1,.15.44.1.1,0,0,1,0,.05c-.34,0-.63.29-1,.21-.14,0-.32.13-.47.25.18,0,.31-.28.52-.06-.1.21-.05.3.18.37a1.08,1.08,0,0,1,.18.11l-.17.14a2.51,2.51,0,0,1-.29.2.73.73,0,0,1-.22,0l0-.08.37-.32L28.16,38l-.22.16a2.26,2.26,0,0,1-.35.28c-.2.08-.3.17-.2.35-.17.09-.32.17-.46.26a.28.28,0,0,0-.1.14,3.15,3.15,0,0,0-.16.32c0,.3,0,.3-.29.49s-.48.36-.38.86c0,.2.06.4.1.64a.59.59,0,0,1-.39-.62.17.17,0,0,0,0-.1c-.08-.18-.58-.3-.71-.17s0,.11,0,.23l-.35-.19s0,0-.06.1l-.14-.1h0c-.19.23-.47.41-.47.75a2.11,2.11,0,0,0,.11.71c0,.08.24.13.36.13a.42.42,0,0,0,.3-.2.34.34,0,0,1,.35-.23c.12,0,.17.08.13.2s-.1.41-.15.59l.55.11c0,.18-.06.31-.08.45,0,.3.12.42.42.38.11,0,.24.09.39.14,0-.26.29-.37.5-.52a.4.4,0,0,1,.35,0,.68.68,0,0,0,.78.16.16.16,0,0,1,.18,0c.1.11.19.23.29.33s.21.2.33.31c.2-.2.34,0,.47.13.3.25.35.48.23.72l.27.07h.12a.47.47,0,0,1,.41.14c.09.08.26.08.38.12a1.61,1.61,0,0,1,.38.16c.15.12.34.24.36.46a.75.75,0,0,1-.13.37c-.11.19-.24.37-.36.55a.09.09,0,0,0,0,.09c.11.41-.12.76-.21,1.14,0,.09-.21.16-.34.19-.35.09-.45.25-.53.62a.84.84,0,0,1-.33.61s0,.06-.06.1-.15.28-.27.36-.21,0-.32,0c0,.16.29.31.1.49a1.8,1.8,0,0,1-.54.24c0,.39,0,.39-.31.27,0,0,0,0,0,0a.48.48,0,0,1-.11.7c-.12.1-.13.14,0,.21A.22.22,0,0,1,28,52a1.74,1.74,0,0,1-.13.36c-.14.28-.14.27-.11.51l.5.3c-.38.18-.53.14-.56-.17l-.1.17-.54-.66s-.08-.1-.07-.13c.05-.23-.08-.46,0-.69a.33.33,0,0,0-.07-.42.14.14,0,0,1,0-.09,4.48,4.48,0,0,1-.06-.63.72.72,0,0,1,.06-.29.74.74,0,0,0,0-.6.45.45,0,0,1,0-.28,6.25,6.25,0,0,0,.17-.84,3.86,3.86,0,0,0-.08-1,.41.41,0,0,0-.24-.26,1.07,1.07,0,0,1-.6-.7c-.11-.26-.23-.51-.35-.75,0-.06-.15-.1-.15-.16a2.4,2.4,0,0,1,.09-.41.44.44,0,0,1,.14-.55.64.64,0,0,0,.14-.88s0-.1-.09-.14c-.08.22-.15.23-.29.13a4.79,4.79,0,0,1-.45-.25.75.75,0,0,1-.19-.35.48.48,0,0,0-.37-.28.66.66,0,0,1-.25-.13c-.12-.12-.22-.2-.4-.14a.32.32,0,0,1-.25,0c-.28-.16-.55-.33-.82-.51a.15.15,0,0,1-.05-.13c0-.21-.1-.34-.2-.49a2.67,2.67,0,0,1-.47-.84c0-.09-.13-.16-.2-.25l-.07,0c.2.4.41.8.63,1.22a.3.3,0,0,1-.38-.23.5.5,0,0,0-.38-.42.27.27,0,0,0-.05-.43l0-.06c0-.27-.08-.54-.39-.63,0-.15-.25-.23-.11-.41,0,0,0-.06,0-.07-.3-.24-.13-.54-.09-.81s.11-.4.16-.61a.29.29,0,0,0,0-.16,4,4,0,0,1-.22-.89s0-.05,0-.06-.21-.24-.13-.38l-.26-.32a.61.61,0,0,0-.16-.16c-.09-.06-.22-.06-.29-.13a.53.53,0,0,0-.49-.22s-.07-.08-.12-.09-.19-.24-.28,0c0,.11-.19.2-.3.28s-.13,0-.2,0l0-.06.32-.37a.22.22,0,0,0-.11,0,1.2,1.2,0,0,0-.42.57s0,.06,0,.08a.66.66,0,0,1,0,.24h-.12a1.09,1.09,0,0,1,0-.22c-.1.07-.2.18-.32.25a6.65,6.65,0,0,1-.75.39c-.07,0-.18,0-.33,0,.37-.33.9-.29,1.12-.8a1.47,1.47,0,0,1-.38,0c-.24,0,0-.17-.06-.26-.23,0-.24,0-.22-.21,0,0-.05-.1-.07-.13a1.16,1.16,0,0,1,.22-.29,2.55,2.55,0,0,1,.33-.11.43.43,0,0,0,.2-.2c-.34.24-.49,0-.62-.23.22-.29.56-.08.88-.17l-.15-.08c-.07,0-.16,0-.21,0a2.41,2.41,0,0,1-.21-.24.89.89,0,0,1,.26-.09c.12,0,.22,0,.24-.17s0-.07,0-.08l.48-.19.22,0c.05,0,.12,0,.13,0,.08.22.19.08.31,0,.09.23.27.14.43.15a3.31,3.31,0,0,1,1.27.32l.14,0c.17-.29.4-.42.58-.33l-.15.11v0a1.28,1.28,0,0,0,.2-.11,1.11,1.11,0,0,0,.12-.18c.12.26.31.25.52.2a.2.2,0,0,1,.11,0c.22.05.43.11.65.15s.18.07.16.28c.25-.29.36.07.54.1.06-.31.12-.33.37-.17A.6.6,0,0,0,25,34c.1-.08.21-.11.3.1.08-.11.16-.19.17-.28s-.11-.11-.17-.17Z"/><path class="cls-12" d="M33.06,33.43a.77.77,0,0,1-.91.57c-.17,0-.25.06-.27.2a.24.24,0,0,1-.24.24l-.35,0c-.16,0-.22.08-.26.25a3.29,3.29,0,0,1-.32.78c0,.05-.19.1-.22.07-.21-.2-.52-.32-.55-.69a2.54,2.54,0,0,0-.19-.57.32.32,0,0,1,.14-.4c.07,0,.11-.13.17-.2l-.2-.15-.1-.06.21-.12v-.06l-.21,0a5.4,5.4,0,0,0-.21-.73c-.1-.28-.21-.31-.49-.28a.76.76,0,0,1-.67-.11l-.09-.12.37-.05v-.08l-.24,0-.28,0,.22-.15.55-.32c0-.19.06-.3.3-.29a.22.22,0,0,0,.14-.09c.09-.2.28-.22.45-.27s.18,0,.29.07.18-.11.24,0a.45.45,0,0,0,.11.13l.06-.16s0,0,0-.1l.43.11,0-.28s0,0,.07,0c.2.12.33.07.52-.09a1,1,0,0,1,.81-.13s.07.06.14.13l-.39.12v.06c.34,0,.68-.31,1-.06v.07l-.44.08.12.25.32-.16.05.05-.2.34c.09-.05.15-.06.18-.1a1,1,0,0,1,.73-.24.84.84,0,0,1,.25.09c-.06.06-.12.15-.19.18s-.39.12-.6.18l.2.11a2.6,2.6,0,0,0-.3.22s-.05.11-.08.16l.15.05.2.1a.52.52,0,0,1-.1.18c-.12.09-.11.18,0,.25l.15.09-.54.48-.2-.06,0,0,.13.14a2.43,2.43,0,0,1,.2.25l-.11.11-.24-.12c-.12-.07-.2-.06-.26.15l.5,0Z"/><path class="cls-12" d="M52.49,46.21c0,.09,0,.17.07.24s0,.21.06.28a.79.79,0,0,1,.21.58c0,.13,0,.24.16.27a.13.13,0,0,1,.07.05c.15.24.29.48.43.73a.36.36,0,0,1,0,.15c0,.23,0,.46-.07.68a.18.18,0,0,1,0,.13c-.12.17-.26.33-.38.5a2.75,2.75,0,0,0-.17.29.26.26,0,0,1-.07.1,1,1,0,0,1-1.15,0s-.08-.13-.06-.17c.07-.22,0-.25-.23-.23,0-.09.08-.16.14-.28l-.34.29a.79.79,0,0,1,0-.13.46.46,0,0,0-.64-.32,1.18,1.18,0,0,1-.27.06c-.09,0-.22,0-.25.1-.13.24-.34.2-.55.21a1.09,1.09,0,0,0-.3.07v.06l-.2-.09c-.17-.1-.18-.19,0-.35a.21.21,0,0,0,.07-.16.88.88,0,0,0-.09-.37c-.17-.25-.06-.53-.11-.78s0-.27.19-.24h0c.18-.26.5-.22.73-.36a1.46,1.46,0,0,0,.32-.41,1.81,1.81,0,0,0,.31-.27c.15-.2.2-.22.35,0s.15.08.16,0,.14-.29.37-.27L51,46.31a1.59,1.59,0,0,1,.22,0l.43.13c.13,0,.11.09.06.17l-.17.24.45.33s.13,0,.14,0a.84.84,0,0,0,.12-.32.67.67,0,0,1,.21-.65Z"/><path class="cls-12" d="M28.12,35l.18.28c-.09,0-.15,0-.19,0a1.94,1.94,0,0,1-.33-.23c-.15-.13-.28-.31-.52-.15,0,0-.13-.07-.2-.12a.75.75,0,0,1,.15-.2s.12,0,.19,0a.38.38,0,0,0,.33-.38c0-.16-.08-.2-.35-.21,0,0,0-.09,0-.12l-.16-.2c-.25.2-.5-.12-.75,0-.07,0-.21,0-.16-.14,0,0,0-.06,0-.08-.2-.12-.1-.29-.05-.43a.28.28,0,0,1,.38-.19l-.07.31,0,0c.11-.19.15-.5.47-.37s0,.22,0,.3.27-.1.39-.12.23.1.29.23a.36.36,0,0,0,.16.14,2.15,2.15,0,0,0,.27.1c.28.11.31.21.1.5l.36.2c.09,0,.26.12.26.16a1.12,1.12,0,0,1-.17.37.32.32,0,0,1-.16-.05c-.06-.06-.1-.15-.16-.2s-.11,0-.16,0a.43.43,0,0,0,0,.17c.07.07.2.1.21.17a1.23,1.23,0,0,1,0,.41l-.29-.21,0,0Z"/><path class="cls-12" d="M27.63,31.15c-.36.05-.79.37-1-.2a2.45,2.45,0,0,1,.35-.19c.06,0,.15,0,.22,0s.2,0,.22,0,.21-.13.35-.12.12,0,.21-.05l.16.15c.12-.23.32-.2.52-.18a3.87,3.87,0,0,1,.48,0,.74.74,0,0,1,.22.14c-.06,0-.11.11-.18.12a2.7,2.7,0,0,1-.41.07.41.41,0,0,1-.51.51.33.33,0,0,0-.25.08c-.16.14-.31.29-.47.45.08.12,0,.28-.17.31a3.39,3.39,0,0,1-.78,0c-.08,0-.15-.14-.19-.18a4.07,4.07,0,0,1,.44-.27c.25-.11,0-.3.1-.47l.19.08a1.83,1.83,0,0,1,.25-.15,1.11,1.11,0,0,1,.26-.07v-.07Z"/><path class="cls-12" d="M23.56,33.06c.13,0,.25-.21.38,0,.17-.13.21.06.33.17-.05-.3.22-.29.32-.44s.11,0,.12,0c-.06.16-.17.29-.14.41s.16.21.27.33l-.12,0c.06.27.05.28-.24.29a3.53,3.53,0,0,1-.65,0,5.31,5.31,0,0,1-.65-.19v-.1l.35-.11v0H23.3c-.06,0-.1-.06-.15-.1l.13-.1.28-.2Z"/><path class="cls-12" d="M49,45.26c-.18.1-.31.05-.4-.16a2.91,2.91,0,0,1-.17-.3.35.35,0,0,1,0-.2s.1,0,.14,0a2.8,2.8,0,0,0,.4-.27c.15-.14.28-.3.43-.47l.41.17a2.1,2.1,0,0,1-.15.22c-.12.1-.15.19,0,.31a.24.24,0,0,1,0,.19,4.37,4.37,0,0,1-.25.48c0,.08-.09.18-.16.19s-.13-.07-.23-.12Z"/><path class="cls-12" d="M51.38,45.33l.5-.34a.38.38,0,0,1,.2,0,4.09,4.09,0,0,0,.65.21c.06.08.13.16.18.24s.22.18.2.37.14.12.21.19l.12.15a.82.82,0,0,1-.19.06.45.45,0,0,1-.4-.26c-.12-.19-.2-.19-.32,0s-.18.17-.33.07A.51.51,0,0,0,52,46l-.14,0s0-.11,0-.13.08-.2,0-.27a2.21,2.21,0,0,0-.34-.18l-.16-.06Z"/><path class="cls-12" d="M41.43,46.83c0,.13-.09.25-.12.36a4,4,0,0,0-.23.84.49.49,0,0,1-.36.43.13.13,0,0,1-.1,0,.54.54,0,0,1-.13-.6c.08-.11.15-.19.07-.36s0-.4.29-.5.18-.19.25-.3a1.67,1.67,0,0,0,.12-.23l.14.22c0,.06,0,.12.07.17Z"/><path class="cls-12" d="M35.1,36.16l.13.24c.08.16.12.34.28.44a.17.17,0,0,1,0,.18.47.47,0,0,1-.43.27,1.87,1.87,0,0,0-.42.11l.16-.25c0-.14,0-.25,0-.37l.22-.1-.39-.34c.11-.2.09-.23-.15-.31l.08-.19.1.18c.14-.38.29,0,.44,0l0,.16Z"/><path class="cls-12" d="M47.58,44.52l.07,0,.17.42c0,.1.09.16.19,0s.15,0,.17,0c0,.16-.06.26-.09.36s-.05.17-.1.19a.23.23,0,0,1-.2-.07,2.78,2.78,0,0,1-.61-.93c0-.14-.23-.23-.35-.35l-.15-.13s.06-.09.08-.09a.72.72,0,0,1,.22.08c.21.13.4.27.6.41Z"/><path class="cls-12" d="M42.37,32.18l-.21.09a7,7,0,0,0-.77.4c-.37.25-.38.42-.08.73a.3.3,0,0,1-.46,0c-.22-.25-.1-.45,0-.67a1.09,1.09,0,0,1,.87-.5A.58.58,0,0,0,42,32.1c.14-.09.24-.07.38.08Z"/><path class="cls-12" d="M36.82,31.42c.12-.06.19-.12.27-.12s.1.09.15.14a.86.86,0,0,0,.2.18c.09.06.2.08.29.14s.07.09.06.12a.15.15,0,0,1-.13.09.8.8,0,0,1-.22,0l-.15-.2-.15.24a1,1,0,0,0-.07.15.48.48,0,0,1-.14-.09c-.08-.12-.28-.21-.1-.41-.13,0-.23.09-.31.07s-.09-.14-.11-.22a.27.27,0,0,1,.08-.16s.08,0,.13,0l.2,0Z"/><path class="cls-12" d="M23.56,33.06h0c-.2.09-.41.16-.61.26s-.26.17-.42,0-.19-.2,0-.32l0,0a1.4,1.4,0,0,1,.18-.32A.66.66,0,0,1,23,32.6l.42.15c.15.06.22.14.16.31Z"/><path class="cls-12" d="M51.88,39.14c0,.08-.09.17-.07.23.11.33-.22.53-.55.4v.14A.74.74,0,0,1,51,40a1.26,1.26,0,0,1-.28-.18l.43-.26,0,0,.07-.2c.24,0,.31-.1.29-.4a.52.52,0,0,1,0-.18.1.1,0,0,1,.1,0s.07,0,.09.08.07.21.11.32Z"/><path class="cls-12" d="M33.39,34.94l-.46-.13.07-.22-.23,0c0-.26,0-.29.28-.26a3.17,3.17,0,0,0,.53,0c.1,0,.23-.11.28.09a.29.29,0,0,1-.16.38l-.31.14Z"/><path class="cls-12" d="M26.33,32.05c0,.29.2.33.42.35H27c.25,0,.29,0,.24.27h-.82c-.12,0-.52-.29-.52-.42a.28.28,0,0,1,.13-.19.93.93,0,0,1,.29,0Z"/><path class="cls-12" d="M50.36,44.53a1.39,1.39,0,0,0,0,.15l-.52.09,0,.17.26-.09L50,45.2a.55.55,0,0,1,.1.17.93.93,0,0,1,0,.23,1.39,1.39,0,0,1-.19-.15s0-.08,0-.13l0,0-.06.22s-.1,0-.1,0-.24-.25-.11-.43.16-.19.16-.28c0-.26.14-.23.32-.2s.16,0,.3-.08Z"/><path class="cls-12" d="M55.3,50.64c.07,0,.17.08.2.14s0,.14-.09.2-.33.41-.5.6-.18.18-.25.17a.34.34,0,0,1-.19-.24.42.42,0,0,1,.15-.25c.18-.14.39-.25.57-.38s.06-.14.11-.24Z"/><path class="cls-12" d="M26.37,31.85l-.23-.24c-.05-.05-.14-.13-.13-.16a1.36,1.36,0,0,1,.2-.4s.19,0,.26.06c.26.17.3.29.23.51s-.14.21-.33.23Z"/><path class="cls-12" d="M24.89,32.55c-.38.06-.7.11-1,.14-.14,0-.23,0-.16-.21a.15.15,0,0,1,.1-.08.44.44,0,0,0,.43-.23.13.13,0,0,1,.13,0c.17.12.33.26.51.41Z"/><path class="cls-12" d="M28.74,37.86c0-.28.05-.42.37-.6l.07.2c.25,0,.34.29.21.57-.09-.12-.3,0-.35-.19a1.23,1.23,0,0,0-.3,0Z"/><path class="cls-12" d="M55.68,50.86a.32.32,0,0,1-.08-.45.31.31,0,0,0,0-.44.4.4,0,0,1,0-.19l.08,0a.51.51,0,0,1,.09.16c.06.16.14.3.34.32a.28.28,0,0,1-.14.35,2.26,2.26,0,0,0-.29.27Z"/><path class="cls-12" d="M49.16,46c-.2-.08-.4.16-.61-.08-.06-.06-.23,0-.34,0a.76.76,0,0,1-.2-.13c.06-.05.13-.15.19-.14a2.9,2.9,0,0,1,.59.09,2.83,2.83,0,0,1,.4.17l0,.13Z"/><path class="cls-12" d="M34.49,36.45c.18,0,.28,0,.22.2a.27.27,0,0,0,0,.13c0,.15,0,.2-.19.26s-.38.19-.3-.21c0-.13,0-.22.14-.24s.12-.1.15-.14Z"/><path class="cls-12" d="M24.89,32.93l.2.13a.54.54,0,0,1,0-.2s0-.11,0-.12a.75.75,0,0,1,.26,0,.27.27,0,0,1,0,.13.45.45,0,0,1,0,.23c0,.08,0,.2-.1.23a.22.22,0,0,1-.23,0c-.08-.1-.31-.12-.19-.35Z"/><path class="cls-12" d="M25.42,41.72a1.57,1.57,0,0,1,.28-.1,1.89,1.89,0,0,1,.91.35c.1.05.09.13,0,.19s-.28,0-.36-.15a.68.68,0,0,0-.66-.25l-.11,0,0-.07Z"/><path class="cls-12" d="M51.91,38.61h-.3a.32.32,0,0,1-.14,0,.17.17,0,0,1,0-.1.38.38,0,0,0,.07-.43s0-.08,0-.07.28.18.4.28a.35.35,0,0,1,0,.23.32.32,0,0,1-.1.12Z"/><path class="cls-12" d="M49.58,32.4c.27-.41.31.06.48,0,0,0,0,.08,0,.08a4.79,4.79,0,0,1-.65,0c-.05,0-.11-.12-.14-.19s.06-.13.08-.12a.52.52,0,0,1,.21.07s0,0,0,.1Z"/><path class="cls-12" d="M50,42.73a.24.24,0,0,1-.36,0s-.09-.12-.07-.16a1.4,1.4,0,0,1,.16-.38.14.14,0,0,1,.12-.06.22.22,0,0,1,.11.12c0,.16,0,.33,0,.49Z"/><path class="cls-12" d="M50.39,44l-.14-.16-.12-.16-.16.12-.06,0c.05-.09.1-.18.16-.27l.13.07c.08-.07.17-.21.31-.07s.09.31-.12.51Z"/><path class="cls-12" d="M37.67,31.57c-.12,0-.2,0-.24-.07a1,1,0,0,1-.13-.25,1.06,1.06,0,0,1,.23-.05,3.05,3.05,0,0,1,.43,0l.12,0s0,.1,0,.11a4,4,0,0,1-.37.22Z"/><path class="cls-12" d="M23.18,32.45,23,32.28a.79.79,0,0,1,.18-.14,2.44,2.44,0,0,1,.44-.19.15.15,0,0,1,.14.05.33.33,0,0,1-.05.19c-.18,0-.25.12-.36.21a.5.5,0,0,1-.19.05Z"/><path class="cls-12" d="M51.46,37.51c-.08-.32-.15-.59-.21-.86,0,0,0,0,.06,0a1.05,1.05,0,0,1,.27.51.49.49,0,0,0,.05.16l.08.23Z"/><path class="cls-12" d="M25.14,32.25a.56.56,0,0,1,.18-.07c.06,0,.17.06.18.09a.32.32,0,0,1-.09.24.34.34,0,0,1-.52-.24s0-.08.05-.13l.2.11Z"/><path class="cls-12" d="M26.58,42.25l.21,0c0-.07.05-.17.1-.2s.36.09.5.3h-.8v-.08Z"/><path class="cls-12" d="M52.5,50.8c-.06.33-.16.44-.35.39S52,51,52,50.89s.18-.19.47-.09Z"/><path class="cls-12" d="M25.58,33.24c0-.49.15-.62.63-.43l-.63.43Z"/><path class="cls-12" d="M45,31.26a.59.59,0,0,0-.2.07c-.22.16-.33.05-.42-.14a1.41,1.41,0,0,1,.35-.21s.15,0,.2.08,0,.14.07.21Z"/><path class="cls-12" d="M25.07,31.5a3,3,0,0,1,.32.24s0,.13,0,.19a.77.77,0,0,1-.26,0,.4.4,0,0,1-.16-.13,1.09,1.09,0,0,1-.13-.17l.2-.14Z"/><path class="cls-12" d="M26.65,34.79a1.59,1.59,0,0,1-.25.17.58.58,0,0,1-.18.08,1.14,1.14,0,0,1-.09-.26.22.22,0,0,1,.12-.15.3.3,0,0,1,.4.16Z"/><path class="cls-12" d="M45,31.27c.22,0,.27.16.35.33a.67.67,0,0,1-.6-.1l.25-.24Z"/><path class="cls-12" d="M45.54,31.89c-.1-.09-.21-.17-.2-.19s.12-.25.17-.25.19.12.29.18l-.26.26Z"/><path class="cls-12" d="M44.88,43.41a.4.4,0,0,1,.26.45A.2.2,0,0,1,45,44s-.12-.06-.13-.1a4,4,0,0,1,0-.48Z"/><path class="cls-12" d="M26,31.78c-.1.08-.17.18-.22.17s-.17-.1-.17-.16.09-.16.16-.18.12.09.23.17Z"/><path class="cls-12" d="M50.75,39.87a1.47,1.47,0,0,1,0,.26,1,1,0,0,1,0,.22,1.58,1.58,0,0,0-.12-.15c-.13-.15-.13-.18.12-.33Z"/><path class="cls-12" d="M29.08,52.65l-.47.14v-.24c.15,0,.32-.15.47.1Z"/><path class="cls-12" d="M49.72,41.22a.81.81,0,0,1,.07.22.53.53,0,0,1,0,.2s-.1,0-.11,0a.58.58,0,0,1-.07-.21c0-.06.06-.13.09-.19Z"/><path class="cls-12" d="M25.34,33.69c0,.06-.05.15-.1.16a.49.49,0,0,1-.24,0c0-.06,0-.15,0-.17a.41.41,0,0,1,.22,0s.06,0,.09.06Z"/><path class="cls-12" d="M50.21,32.36h.37c.05,0,.09.06.14.1s-.09.09-.13.09-.31,0-.38-.19Z"/><path class="cls-12" d="M24.48,31.73l-.41.08L24,31.74a1.05,1.05,0,0,1,.25-.18c.07,0,.16.05.24.08l0,.09Z"/><path class="cls-12" d="M49.73,43.21c-.07.17-.15.33-.25.53-.08-.2-.08-.2.17-.56l.08,0Z"/><path class="cls-12" d="M53.55,45.31c0,.24,0,.36-.2.34a.15.15,0,0,1-.11-.08s0-.07.07-.09.09,0,.13-.07l.11-.1Z"/><path class="cls-12" d="M48.43,42a.2.2,0,0,1,0,.34s-.14,0-.15,0,0-.24.16-.32Z"/><path class="cls-12" d="M54,33.47c.08-.23.18-.32.34-.26s0,.09,0,.14l-.39.12Z"/><path class="cls-12" d="M50.79,44.85c-.24-.11-.24-.13,0-.51v.51Z"/><path class="cls-12" d="M24.44,31.84c0,.27-.25.16-.34.3-.05-.25-.05-.25.34-.3Z"/><path class="cls-12" d="M50.07,46l-.42.24c.15-.35.2-.38.42-.24Z"/><path class="cls-12" d="M53.7,45.37,53.5,45c.27,0,.34.15.2.38Z"/><path class="cls-12" d="M51.44,45.15c.07-.32.09-.32.38-.17l-.38.17Z"/><path class="cls-12" d="M54.87,47.74c.26-.09.33,0,.31.23l-.31-.23Z"/><path class="cls-12" d="M25.67,32.69c0-.06-.07-.13-.05-.18a.24.24,0,0,1,.16-.11s.12.06.12.1a.66.66,0,0,1-.06.2Z"/><path class="cls-12" d="M25.62,31.26l.19.14-.16.11-.12-.17.09-.08Z"/><path class="cls-12" d="M50.28,43.07,50,42.94s.06-.11.09-.11.2,0,.19.24Z"/><path class="cls-12" d="M29.93,33.79l-.36,0c.06-.09.09-.17.12-.18a1.07,1.07,0,0,1,.25,0v.11Z"/><path class="cls-12" d="M27.17,34.28l.11-.23.11.07a1.43,1.43,0,0,1-.12.21l-.1,0Z"/><path class="cls-12" d="M36.36,39.14c-.07-.24-.06-.25.15-.27,0,.11,0,.2-.08.3l-.07,0Z"/><path class="cls-12" d="M49.74,42.88l.21.17,0,.05c-.06,0-.15,0-.19,0s-.05-.12-.06-.18l.06,0Z"/><path class="cls-12" d="M26.43,42.38h-.28a.51.51,0,0,0,0-.1h.28v.11Z"/><polygon class="cls-5" points="70.84 56.71 3.49 56.71 10.87 58.91 62.7 58.91 70.84 56.71"/><rect class="cls-4" x="3.67" y="55.38" width="67.18" height="1.35"/><rect class="cls-6" x="30.86" y="55.88" width="11.95" height="0.58"/><circle class="cls-4" cx="36.88" cy="23.96" r="0.85"/><circle class="cls-13" cx="116.07" cy="40.67" r="30.44"/><rect class="cls-2" x="96.51" y="13.85" width="42.65" height="4.41"/><rect class="cls-4" x="96.51" y="18.26" width="42.65" height="41.63"/><rect class="cls-14" x="96.51" y="59.89" width="42.65" height="7.34"/><rect class="cls-9" x="100.37" y="30.92" width="3.44" height="3.03"/><rect class="cls-9" x="105.18" y="26.6" width="3.44" height="7.35"/><rect class="cls-9" x="109.98" y="29.02" width="3.44" height="4.93"/><rect class="cls-9" x="114.78" y="24.29" width="3.44" height="9.66"/><rect class="cls-9" x="119.59" y="21.33" width="3.44" height="12.62"/><rect class="cls-10" x="124.71" y="21.33" width="10.73" height="1.16"/><rect class="cls-6" x="124.71" y="23.4" width="10.73" height="1.16"/><rect class="cls-6" x="124.71" y="25.47" width="10.73" height="1.16"/><rect class="cls-6" x="124.71" y="27.55" width="5.25" height="1.16"/><rect class="cls-2" x="100.37" y="34.75" width="22.66" height="1.34"/><rect class="cls-14" x="100.37" y="39.27" width="10.13" height="10.44"/><rect class="cls-14" x="112.84" y="39.27" width="10.13" height="10.44"/><rect class="cls-14" x="125.31" y="39.27" width="10.13" height="10.44"/><rect class="cls-15" x="102" y="51.69" width="33.44" height="0.88"/><rect class="cls-15" x="102" y="53.53" width="33.44" height="0.88"/><rect class="cls-16" x="117.85" y="62.31" width="17.59" height="0.88"/><rect class="cls-16" x="117.85" y="64.16" width="8.63" height="0.88"/><rect class="cls-15" x="102" y="55.38" width="16.07" height="0.88"/><circle class="cls-2" cx="96.6" cy="56.49" r="11.14"/><path class="cls-9" d="M103.52,63.36A9.75,9.75,0,0,0,96.6,46.74v9.75Z"/><path class="cls-4" d="M96.6,56.49V46.74a9.75,9.75,0,1,0,6.92,16.62Z"/><line class="cls-17" x1="95.31" y1="55.15" x2="103.02" y2="62.91"/><circle class="cls-18" cx="96.6" cy="56.49" r="0.76"/><circle class="cls-19" cx="96.6" cy="56.49" r="8.65"/><polygon class="cls-2" points="97.92 42.49 95.23 42.49 95.23 43.83 95.57 43.83 95.57 45.7 97.63 45.7 97.63 43.83 97.92 43.83 97.92 42.49"/><polygon class="cls-2" points="88.1 45.97 86.04 47.7 86.91 48.73 87.17 48.51 88.37 49.94 89.94 48.62 88.74 47.19 88.96 46.99 88.1 45.97"/><polygon class="cls-2" points="105.1 45.97 107.16 47.7 106.29 48.73 106.03 48.51 104.83 49.94 103.26 48.62 104.46 47.19 104.24 46.99 105.1 45.97"/><circle class="cls-20" cx="96.6" cy="42.54" r="2.78"/></svg>