<svg id="Layer_1" data-name="Layer 1" xmlns="http://www.w3.org/2000/svg" viewBox="0 0 150 150"><defs><style>.cls-1{fill:#99c865;}.cls-2{fill:#fff;}.cls-3{fill:#e4d9d8;}.cls-4{fill:#f6eced;}.cls-5{fill:#beb3b3;stroke:#948e8e;stroke-miterlimit:10;stroke-width:0.22px;}.cls-6{fill:#fdd989;}.cls-7{fill:#cdcccc;}.cls-8{fill:#eef3f5;}.cls-9{fill:#2c3d51;}.cls-10{fill:#e35c64;}.cls-11{fill:#4f3518;}.cls-12{fill:#6c6d6d;}.cls-13{fill:#a2a3a2;}.cls-14{fill:#334a5c;}.cls-15{fill:#5bb7ef;opacity:0.5;}</style></defs><circle class="cls-1" cx="73.72" cy="79.27" r="69.01"/><rect class="cls-2" x="34.37" y="89.92" width="78.79" height="23.87"/><rect class="cls-3" x="34.37" y="89.07" width="78.79" height="23.87"/><path class="cls-2" d="M32,84.09h85a0,0,0,0,1,0,0V125.6a3.19,3.19,0,0,1-3.19,3.19H34.25A2.29,2.29,0,0,1,32,126.51V84.09A0,0,0,0,1,32,84.09Z"/><path class="cls-4" d="M29.91,84.07h85a0,0,0,0,1,0,0v41a2.29,2.29,0,0,1-2.29,2.29H32.2a2.29,2.29,0,0,1-2.29-2.29v-41A0,0,0,0,1,29.91,84.07Z"/><rect class="cls-5" x="35.93" y="91.39" width="4.41" height="2.77" rx="0.61"/><rect class="cls-5" x="35.93" y="95.83" width="4.75" height="3.53" rx="0.74"/><rect class="cls-5" x="35.93" y="100.86" width="8.9" height="3.55" rx="0.97"/><rect class="cls-5" x="35.93" y="105.83" width="5.93" height="3.55" rx="0.8"/><rect class="cls-5" x="42.74" y="105.83" width="4.84" height="3.55" rx="0.72"/><rect class="cls-5" x="48.93" y="105.83" width="4.84" height="3.55" rx="0.72"/><rect class="cls-5" x="54.82" y="105.83" width="32.4" height="3.55" rx="0.92"/><rect class="cls-5" x="88.25" y="105.83" width="5.04" height="3.55" rx="0.92"/><rect class="cls-5" x="94.35" y="105.83" width="5.04" height="3.55" rx="0.92"/><rect class="cls-5" x="100.46" y="105.83" width="5.04" height="3.55" rx="0.92"/><rect class="cls-5" x="106.56" y="105.83" width="5.04" height="3.55" rx="0.92"/><rect class="cls-5" x="46.07" y="100.86" width="4.58" height="3.55" rx="0.7"/><rect class="cls-5" x="52.17" y="100.86" width="4.58" height="3.55" rx="0.7"/><rect class="cls-5" x="58.26" y="100.86" width="4.58" height="3.55" rx="0.7"/><rect class="cls-5" x="64.36" y="100.86" width="4.58" height="3.55" rx="0.7"/><rect class="cls-5" x="70.46" y="100.86" width="4.58" height="3.55" rx="0.7"/><rect class="cls-5" x="76.55" y="100.86" width="4.58" height="3.55" rx="0.7"/><rect class="cls-5" x="82.65" y="100.86" width="4.58" height="3.55" rx="0.7"/><rect class="cls-5" x="88.74" y="100.86" width="4.58" height="3.55" rx="0.7"/><rect class="cls-5" x="94.84" y="100.86" width="4.58" height="3.55" rx="0.7"/><rect class="cls-5" x="100.93" y="100.86" width="4.58" height="3.55" rx="0.7"/><rect class="cls-5" x="107.03" y="100.86" width="4.58" height="3.55" rx="0.7"/><rect class="cls-5" x="41.92" y="95.83" width="4.75" height="3.53" rx="0.74"/><rect class="cls-5" x="47.91" y="95.83" width="4.75" height="3.53" rx="0.74"/><rect class="cls-5" x="53.9" y="95.83" width="4.75" height="3.53" rx="0.74"/><rect class="cls-5" x="59.89" y="95.83" width="4.75" height="3.53" rx="0.74"/><rect class="cls-5" x="65.88" y="95.83" width="4.75" height="3.53" rx="0.74"/><rect class="cls-5" x="71.88" y="95.83" width="4.75" height="3.53" rx="0.74"/><rect class="cls-5" x="77.87" y="95.83" width="4.75" height="3.53" rx="0.74"/><rect class="cls-5" x="83.86" y="95.83" width="4.75" height="3.53" rx="0.74"/><rect class="cls-5" x="89.85" y="95.83" width="4.75" height="3.53" rx="0.74"/><rect class="cls-5" x="95.84" y="95.83" width="4.75" height="3.53" rx="0.74"/><rect class="cls-5" x="101.83" y="95.83" width="9.77" height="3.53" rx="1.06"/><rect class="cls-5" x="41.65" y="91.39" width="4.04" height="2.77" rx="0.58"/><rect class="cls-5" x="47.14" y="91.39" width="4.04" height="2.77" rx="0.58"/><rect class="cls-5" x="52.63" y="91.39" width="4.04" height="2.77" rx="0.58"/><rect class="cls-5" x="58.13" y="91.39" width="4.04" height="2.77" rx="0.58"/><rect class="cls-5" x="63.62" y="91.39" width="4.04" height="2.77" rx="0.58"/><rect class="cls-5" x="69.11" y="91.39" width="4.04" height="2.77" rx="0.58"/><rect class="cls-5" x="74.61" y="91.39" width="4.04" height="2.77" rx="0.58"/><rect class="cls-5" x="80.1" y="91.39" width="4.04" height="2.77" rx="0.58"/><rect class="cls-5" x="85.59" y="91.39" width="4.04" height="2.77" rx="0.58"/><rect class="cls-5" x="91.08" y="91.39" width="4.04" height="2.77" rx="0.58"/><rect class="cls-5" x="96.58" y="91.39" width="4.04" height="2.77" rx="0.58"/><rect class="cls-5" x="102.07" y="91.39" width="4.04" height="2.77" rx="0.58"/><rect class="cls-5" x="107.56" y="91.39" width="4.04" height="2.77" rx="0.58"/><rect class="cls-3" x="64.82" y="115.4" width="17.88" height="9.62"/><path class="cls-2" d="M27.65,79.82h91.54a4.2,4.2,0,0,1,4.2,4.2v.12a0,0,0,0,1,0,0H23.45a0,0,0,0,1,0,0V84A4.2,4.2,0,0,1,27.65,79.82Z"/><ellipse class="cls-6" cx="124.63" cy="53.24" rx="20.67" ry="21.07"/><circle class="cls-7" cx="124.48" cy="52.23" r="16.45"/><circle class="cls-8" cx="124.93" cy="53.56" r="16.45"/><rect class="cls-9" x="114.24" y="49.25" width="13.51" height="2.61" transform="translate(53.38 -61.8) rotate(36.28)"/><rect class="cls-9" x="119.33" y="48.91" width="17.83" height="1.52" transform="translate(254.04 -5.9) rotate(135)"/><rect class="cls-10" x="113.76" y="57.95" width="17.83" height="1.12" transform="translate(218.94 -37.43) rotate(109.59)"/><rect class="cls-11" x="51.32" y="1.71" width="44.41" height="59.09" rx="2.54"/><rect class="cls-2" x="53.04" y="7.51" width="40.96" height="48.49"/><rect class="cls-12" x="54.69" y="10.6" width="27.09" height="0.55"/><rect class="cls-12" x="54.69" y="13.51" width="38.03" height="0.55"/><rect class="cls-12" x="54.69" y="16.42" width="19.98" height="0.55"/><rect class="cls-12" x="54.69" y="19.32" width="33.1" height="0.55"/><rect class="cls-12" x="54.69" y="22.23" width="16.7" height="0.55"/><rect class="cls-12" x="54.69" y="25.14" width="30.1" height="0.55"/><rect class="cls-12" x="54.69" y="28.04" width="33.1" height="0.55"/><rect class="cls-12" x="54.69" y="30.95" width="37.21" height="0.55"/><rect class="cls-12" x="54.69" y="33.86" width="31.74" height="0.55"/><rect class="cls-12" x="54.69" y="36.77" width="37.75" height="0.55"/><rect class="cls-12" x="54.69" y="39.67" width="12.32" height="0.55"/><rect class="cls-12" x="54.69" y="42.58" width="35.29" height="0.55"/><rect class="cls-12" x="54.69" y="45.49" width="26.54" height="0.55"/><rect class="cls-12" x="54.69" y="48.39" width="11.23" height="0.55"/><polygon class="cls-13" points="81.37 5.82 81.37 7.23 79.65 7.23 79.65 5.82 68.46 5.82 68.46 7.23 66.75 7.23 66.75 5.82 64.98 5.82 64.98 8.51 83.04 8.51 83.04 5.82 81.37 5.82"/><path class="cls-13" d="M76.48,5.94c0-1-1.1-1.82-2.47-1.82s-2.47.81-2.47,1.82c0,0,0,0,0,.07h4.93Z"/><path class="cls-14" d="M49.34,56.05l2.47,2.49c1.36-4.06,6.94-9,6.94-9l-1.38-1.45h0l-1.43-1.4s-5,5.58-9,6.91l2.45,2.48h0Z"/><polygon class="cls-2" points="51.82 58.53 46.89 53.56 45.95 54.49 50.89 59.45 51.82 58.53"/><path class="cls-14" d="M46,54.49,33.28,67.06c-1.94,1.93-2.42,4.61-1.05,6s4,.92,6-1L50.89,59.46Z"/><circle class="cls-15" cx="67.79" cy="37.88" r="12.87"/><path class="cls-14" d="M68.14,22.56A15.32,15.32,0,1,0,83.45,37.88,15.31,15.31,0,0,0,68.14,22.56Zm-.32,27.89A12.53,12.53,0,1,1,80.35,37.93,12.52,12.52,0,0,1,67.82,50.45Z"/><path class="cls-2" d="M71.79,29.78a13.9,13.9,0,0,1,4.15.63A10.71,10.71,0,0,0,58.1,41.46,13.85,13.85,0,0,1,71.79,29.78Z"/></svg>