<svg id="Layer_1" data-name="Layer 1" xmlns="http://www.w3.org/2000/svg" viewBox="0 0 150 150"><defs><style>.cls-1{fill:#432623;}.cls-2{fill:#321715;}.cls-3{fill:#c03a2d;}.cls-4{fill:#992b1f;}.cls-5{fill:#fff;}.cls-6{fill:#1e81a7;}.cls-7{fill:#166281;}.cls-8{fill:#c0a75d;}.cls-9{fill:#907f44;}</style></defs><path class="cls-1" d="M142.12,2.6H7.88A5.39,5.39,0,0,0,2.49,8V142a5.39,5.39,0,0,0,5.39,5.39H142.12a5.39,5.39,0,0,0,5.39-5.39V8A5.39,5.39,0,0,0,142.12,2.6Z"/><path class="cls-1" d="M30.11,75.42l19.08.32,11,4.85,61.24,2.7,26.08,25.44V8a5.39,5.39,0,0,0-5.39-5.39H7.88A5.39,5.39,0,0,0,2.49,8V142a5.39,5.39,0,0,0,5.39,5.39H75.76c-22.26-23.11-47.26-49-47.26-49Z"/><path class="cls-2" d="M121.43,83.29l-61.24-2.7-11-4.85-19.08-.32-1.61,23s25,25.91,47.26,49h66.36a5.39,5.39,0,0,0,5.39-5.39V108.73Z"/><path class="cls-3" d="M37.36,54.8l-13-7.48,13.64-3,7.79,3c0-.06.06-.11.08-.16L33,39.71l3.74-6.49L46.77,39a13.67,13.67,0,1,0-9.3,15.75Z"/><path class="cls-4" d="M33,39.71l13,7.48A13.72,13.72,0,0,0,47,41.75,14.15,14.15,0,0,0,46.77,39L36.69,33.22Z"/><path class="cls-4" d="M24.4,47.32l13,7.48h.11a14.09,14.09,0,0,0,8.44-7.6L39.68,43Z"/><circle class="cls-5" cx="33.36" cy="35.74" r="4.17"/><path class="cls-5" d="M33.39,41.42h-.06a13.86,13.86,0,0,0-8.65,2.95.83.83,0,0,0-.31.65v2.3h18V45a.85.85,0,0,0-.3-.65A13.88,13.88,0,0,0,33.39,41.42Z"/><path class="cls-6" d="M79.73,54.8l-13-7.48,13.63-3,7.8,3,.08-.16-13-7.48,3.74-6.49L89.14,39a13.67,13.67,0,1,0-9.3,15.75Z"/><path class="cls-7" d="M75.32,39.71l13,7.48a13.72,13.72,0,0,0,1.13-5.44A14.15,14.15,0,0,0,89.14,39L79.06,33.22Z"/><path class="cls-7" d="M66.77,47.32l13,7.48h.11a14.09,14.09,0,0,0,8.44-7.6L82.05,43Z"/><circle class="cls-5" cx="75.73" cy="35.74" r="4.17"/><path class="cls-5" d="M75.76,41.42H75.7a13.84,13.84,0,0,0-8.65,2.95.83.83,0,0,0-.31.65v2.3h18V45a.85.85,0,0,0-.3-.65A13.88,13.88,0,0,0,75.76,41.42Z"/><path class="cls-8" d="M122.1,54.8l-13-7.48,13.64-3,7.8,3a.8.8,0,0,1,.08-.16l-13-7.48,3.75-6.49L131.5,39a13.67,13.67,0,1,0-9.3,15.75Z"/><path class="cls-9" d="M117.68,39.71l13,7.48a13.71,13.71,0,0,0,1.12-5.44A13.39,13.39,0,0,0,131.5,39l-10.07-5.82Z"/><path class="cls-9" d="M109.13,47.32l13,7.48h.1a14.08,14.08,0,0,0,8.45-7.6L124.42,43Z"/><circle class="cls-5" cx="118.09" cy="35.74" r="4.17"/><path class="cls-5" d="M118.13,41.42h-.07a13.88,13.88,0,0,0-8.65,2.95.85.85,0,0,0-.3.65v2.3h18V45a.85.85,0,0,0-.3-.65A13.88,13.88,0,0,0,118.13,41.42Z"/><path class="cls-5" d="M63.78,83.29h57.65L119,77.9H62.12a20.51,20.51,0,1,0-.85,19h3.2l3.16-5.46H79.7l5.18-3.74,4.6,2.23h7.83l2.45-3.09,4.81,1.87,5.18-2,4.16,1.26h5.21l1.34-3H64C63.93,84.36,63.87,83.82,63.78,83.29Zm-27.41,8a5,5,0,1,1,5-5A5,5,0,0,1,36.37,91.34Z"/></svg>