<svg id="Layer_1" data-name="Layer 1" xmlns="http://www.w3.org/2000/svg" viewBox="0 0 150 150"><defs><style>.cls-1{fill:#fff;}.cls-16,.cls-2{fill:none;}.cls-3{fill:#b6bfc7;}.cls-4{fill:#dbe5eb;}.cls-5{fill:#63c5ef;}.cls-6{fill:#00455f;}.cls-7{fill:#acb0b4;}.cls-8{fill:#bdbec0;}.cls-9{fill:#fafbfa;}.cls-10{fill:#e6ddb5;}.cls-11{fill:#464f5d;}.cls-12{fill:#4da591;}.cls-13{fill:#666d7d;}.cls-14{fill:#545a67;}.cls-15{fill:#dce6eb;}.cls-16,.cls-17{opacity:0.08;}.cls-17{fill:#020202;}.cls-18{fill:#596476;}.cls-19{fill:#28a79a;}.cls-20{fill:#52787f;}.cls-21{fill:#f8faf9;}.cls-22{fill:#dce5eb;}</style></defs><rect class="cls-1" x="94.65" y="59.82" width="37.67" height="53.16" transform="translate(91.82 -54.58) rotate(43.98)"/><rect class="cls-2" x="111.75" y="69.08" width="31.17" height="6.06" transform="translate(85.78 -68.2) rotate(43.98)"/><rect class="cls-3" x="111.75" y="69.08" width="31.17" height="6.06" transform="translate(85.78 -68.2) rotate(43.98)"/><rect class="cls-4" x="108.32" y="74.88" width="31.17" height="1.58" transform="translate(87.29 -64.82) rotate(43.98)"/><rect class="cls-3" x="120.47" y="84.21" width="13.47" height="1.58" transform="translate(94.69 -64.49) rotate(43.98)"/><rect class="cls-4" x="118.86" y="85.88" width="13.47" height="1.58" transform="translate(95.4 -62.91) rotate(43.98)"/><rect class="cls-4" x="117.25" y="87.55" width="13.47" height="1.58" transform="translate(96.11 -61.32) rotate(43.98)"/><rect class="cls-4" x="115.64" y="89.22" width="13.47" height="1.58" transform="translate(96.81 -59.74) rotate(43.98)"/><rect class="cls-4" x="96.63" y="86.18" width="31.82" height="1.58" transform="translate(91.95 -53.76) rotate(43.98)"/><rect class="cls-4" x="94.93" y="87.94" width="31.82" height="1.58" transform="translate(92.7 -52.09) rotate(43.98)"/><rect class="cls-4" x="93.26" y="89.67" width="31.82" height="1.58" transform="translate(93.43 -50.45) rotate(43.98)"/><rect class="cls-3" x="91.63" y="89.25" width="21.34" height="1.58" transform="translate(91.21 -45.79) rotate(43.98)"/><rect class="cls-5" x="108.84" y="100.52" width="8.34" height="6.43" transform="translate(103.72 -49.38) rotate(43.98)"/><rect class="cls-4" x="89.93" y="91.01" width="21.34" height="1.58" transform="translate(91.95 -44.12) rotate(43.98)"/><rect class="cls-4" x="88.26" y="92.74" width="21.34" height="1.58" transform="translate(92.68 -42.47) rotate(43.98)"/><rect class="cls-4" x="83.68" y="99.65" width="32.06" height="1.58" transform="translate(97.7 -41.07) rotate(43.98)"/><rect class="cls-4" x="83" y="98.89" width="24.82" height="1.58" transform="translate(95.97 -38.3) rotate(43.98)"/><rect class="cls-4" x="116.39" y="78.69" width="5.01" height="1.65" transform="translate(-20.88 109.86) rotate(-46.02)"/><rect class="cls-5" x="113.98" y="81.84" width="3.75" height="1.65" transform="translate(-24.08 108.63) rotate(-46.02)"/><rect class="cls-5" x="112.57" y="80.95" width="1.55" height="1.65" transform="translate(-24.21 106.56) rotate(-46.02)"/><rect class="cls-4" x="112.78" y="77.8" width="7.21" height="1.65" transform="translate(-21.01 107.78) rotate(-46.02)"/><rect class="cls-4" x="115.23" y="74.34" width="2.27" height="1.65" transform="translate(-18.53 106.7) rotate(-46.02)"/><rect class="cls-5" x="110.08" y="77.49" width="6.49" height="1.65" transform="translate(-21.72 105.48) rotate(-46.02)"/><rect class="cls-4" x="112.63" y="73.02" width="3.27" height="1.65" transform="translate(-18.21 104.79) rotate(-46.02)"/><rect class="cls-5" x="108.48" y="76.17" width="5.49" height="1.65" transform="translate(-21.41 103.57) rotate(-46.02)"/><rect class="cls-4" x="108.89" y="72.24" width="5.68" height="1.65" transform="translate(-18.43 102.73) rotate(-46.02)"/><rect class="cls-5" x="107.15" y="75.39" width="3.08" height="1.65" transform="translate(-21.63 101.5) rotate(-46.02)"/><rect class="cls-4" x="108.54" y="69.97" width="4.04" height="1.65" transform="translate(-17.15 101.19) rotate(-46.02)"/><rect class="cls-5" x="105.16" y="73.12" width="4.72" height="1.65" transform="translate(-20.35 99.96) rotate(-46.02)"/><rect class="cls-4" x="105.97" y="68.63" width="5.01" height="1.65" transform="translate(-16.83 99.29) rotate(-46.02)"/><rect class="cls-5" x="103.56" y="71.78" width="3.75" height="1.65" transform="translate(-20.03 98.06) rotate(-46.02)"/><ellipse class="cls-6" cx="75" cy="73.92" rx="72.64" ry="72.49"/><path class="cls-7" d="M93.08,47.34a2.26,2.26,0,0,0-2.25-2.26H19.12a2.26,2.26,0,0,0-2.25,2.26V80.7L93.08,49.2Z"/><path class="cls-8" d="M16.87,80.7v7.58a4.62,4.62,0,0,0,4.62,4.62h67a4.62,4.62,0,0,0,4.62-4.62V49.2Z"/><rect class="cls-4" x="36.81" y="45.08" width="36.33" height="1.74"/><rect class="cls-9" x="10.63" y="40.85" width="88.69" height="4.2" rx="2.1"/><rect class="cls-9" x="28.3" y="50.57" width="4.01" height="2.94"/><rect class="cls-9" x="28.3" y="54.85" width="4.01" height="4.01"/><rect class="cls-9" x="28.3" y="60.46" width="6.65" height="4.01"/><rect class="cls-9" x="28.3" y="66.07" width="9.44" height="3.62"/><rect class="cls-9" x="28.3" y="71.21" width="3.84" height="3.9"/><rect class="cls-9" x="33.85" y="71.21" width="3.84" height="3.9"/><rect class="cls-9" x="66.57" y="71.21" width="3.88" height="3.9"/><rect class="cls-9" x="72.17" y="71.21" width="3.88" height="3.9"/><rect class="cls-9" x="77.77" y="71.21" width="3.88" height="3.9"/><rect class="cls-9" x="39.39" y="71.21" width="25.81" height="3.9"/><rect class="cls-9" x="39.19" y="66.07" width="4.39" height="3.62"/><rect class="cls-9" x="44.59" y="66.07" width="4.39" height="3.62"/><rect class="cls-9" x="49.98" y="66.07" width="4.39" height="3.62"/><rect class="cls-9" x="55.38" y="66.07" width="4.39" height="3.62"/><rect class="cls-9" x="60.78" y="66.07" width="4.39" height="3.62"/><rect class="cls-9" x="66.17" y="66.07" width="4.39" height="3.62"/><rect class="cls-9" x="71.89" y="66.07" width="9.75" height="3.62"/><rect class="cls-9" x="36.19" y="60.46" width="4.46" height="4.01"/><rect class="cls-9" x="41.62" y="60.46" width="4.46" height="4.01"/><rect class="cls-9" x="47.06" y="60.46" width="4.46" height="4.01"/><rect class="cls-9" x="52.5" y="60.46" width="4.46" height="4.01"/><rect class="cls-9" x="57.94" y="60.46" width="4.46" height="4.01"/><rect class="cls-9" x="63.38" y="60.46" width="4.46" height="4.01"/><rect class="cls-9" x="68.82" y="60.46" width="4.46" height="4.01"/><rect class="cls-9" x="74.26" y="60.46" width="7.39" height="4.01"/><rect class="cls-9" x="33.78" y="54.85" width="4.01" height="4.01"/><rect class="cls-9" x="39.26" y="54.85" width="4.01" height="4.01"/><rect class="cls-9" x="44.73" y="54.85" width="4.01" height="4.01"/><rect class="cls-9" x="50.21" y="54.85" width="4.01" height="4.01"/><rect class="cls-9" x="55.69" y="54.85" width="4.01" height="4.01"/><rect class="cls-9" x="61.16" y="54.85" width="4.01" height="4.01"/><rect class="cls-9" x="66.64" y="54.85" width="4.01" height="4.01"/><rect class="cls-9" x="71.94" y="54.85" width="9.66" height="4.01"/><rect class="cls-9" x="33.78" y="50.57" width="4.01" height="2.94"/><rect class="cls-9" x="39.26" y="50.57" width="4.01" height="2.94"/><rect class="cls-9" x="44.73" y="50.57" width="4.01" height="2.94"/><rect class="cls-9" x="50.21" y="50.57" width="4.01" height="2.94"/><rect class="cls-9" x="55.69" y="50.57" width="4.01" height="2.94"/><rect class="cls-9" x="61.16" y="50.57" width="4.01" height="2.94"/><rect class="cls-9" x="66.64" y="50.57" width="4.01" height="2.94"/><rect class="cls-9" x="72.12" y="50.57" width="4.01" height="2.94"/><rect class="cls-9" x="77.59" y="50.57" width="4.01" height="2.94"/><rect class="cls-9" x="44.18" y="77.26" width="21.1" height="10.15"/><path class="cls-10" d="M85.18,126.22a15.16,15.16,0,0,0-10.1-26.41h-.16a15.16,15.16,0,0,0-10.1,26.41c2.38,2.15,3.27,5.77,3.24,9.06H81.94C81.91,132,82.8,128.37,85.18,126.22Z"/><path class="cls-11" d="M81.94,135.28H68.06v.06c0,5.47,0,9.31,0,9.31a3.92,3.92,0,0,0,3.92,3.91h6.12A3.92,3.92,0,0,0,82,144.65s0-3.84,0-9.31Z"/><path class="cls-12" d="M82.13,119.44a2,2,0,0,1,0-2.83,2,2,0,0,1,1.67-.56,8.24,8.24,0,0,0,0-3.13,1.9,1.9,0,0,1-.25,0,2,2,0,0,1-1.22-3.59,9.1,9.1,0,0,0-2.21-2.21,1.56,1.56,0,0,1-.16.2,2,2,0,0,1-3.4-1.67,8.76,8.76,0,0,0-3.12,0,2.28,2.28,0,0,1,0,.26,2,2,0,0,1-2,2,2,2,0,0,1-1.58-.79,9.1,9.1,0,0,0-2.21,2.21,1.63,1.63,0,0,1,.2.17,2,2,0,0,1,0,2.83,2,2,0,0,1-1.67.56,8.24,8.24,0,0,0,0,3.13,1.9,1.9,0,0,1,.25,0,2,2,0,0,1,1.22,3.59,8.92,8.92,0,0,0,2.21,2.21,1.56,1.56,0,0,1,.16-.2,2,2,0,0,1,3.4,1.67,8.19,8.19,0,0,0,3.12,0,2.11,2.11,0,0,1,0-.26,2,2,0,0,1,2-2,2,2,0,0,1,1.58.79,8.92,8.92,0,0,0,2.21-2.21A1.06,1.06,0,0,1,82.13,119.44Z"/><circle class="cls-13" cx="75" cy="114.49" r="4.44"/><circle class="cls-14" cx="75" cy="114.49" r="3.04"/><circle class="cls-15" cx="75" cy="114.49" r="1.84"/><path class="cls-16" d="M80.12,107.15a1.56,1.56,0,0,1-.16.2,2,2,0,0,1-3.4-1.67,8.76,8.76,0,0,0-3.12,0,2.28,2.28,0,0,1,0,.26,2,2,0,0,1-2,2,2,2,0,0,1-1.58-.79,9.1,9.1,0,0,0-2.21,2.21,1.63,1.63,0,0,1,.2.17,2,2,0,0,1,0,2.83,2,2,0,0,1-1.67.56,8.24,8.24,0,0,0,0,3.13,1.9,1.9,0,0,1,.25,0,2,2,0,0,1,1.22,3.59,9.4,9.4,0,0,0,1,1.23L81.36,108.2A8.3,8.3,0,0,0,80.12,107.15Z"/><path class="cls-17" d="M83.55,113a2,2,0,0,1-1.22-3.59,9.77,9.77,0,0,0-1-1.16L68.71,120.84a8.44,8.44,0,0,0,1.17,1,1.56,1.56,0,0,1,.16-.2,2,2,0,0,1,3.4,1.67,8.19,8.19,0,0,0,3.12,0,2.11,2.11,0,0,1,0-.26,2,2,0,0,1,2-2,2,2,0,0,1,1.58.79,8.92,8.92,0,0,0,2.21-2.21,1.06,1.06,0,0,1-.2-.17,2,2,0,0,1,0-2.83,2,2,0,0,1,1.67-.56,8.24,8.24,0,0,0,0-3.13A1.9,1.9,0,0,1,83.55,113Z"/><rect class="cls-18" x="67.57" y="136.54" width="14.86" height="1.47" rx="0.73"/><rect class="cls-18" x="67.57" y="139.04" width="14.86" height="1.47" rx="0.73"/><rect class="cls-18" x="67.57" y="141.55" width="14.86" height="1.47" rx="0.73"/><rect class="cls-18" x="67.57" y="144.05" width="14.86" height="1.47" rx="0.73"/><path class="cls-19" d="M133.52,38.82,123,34.93,110,70l10.47,3.89A2,2,0,0,0,123,72.72l11.66-31.39A2,2,0,0,0,133.52,38.82Z"/><path class="cls-20" d="M109.91,32.14,98.25,63.52A2,2,0,0,0,99.4,66L110,70l13-35.05L112.43,31A2,2,0,0,0,109.91,32.14Z"/><rect class="cls-21" x="105.37" y="37.37" width="21.53" height="31.86" transform="translate(25.68 -36.96) rotate(20.29)"/><rect class="cls-22" x="112.13" y="40.35" width="17.37" height="1.09" transform="translate(22.71 -40.61) rotate(21.02)"/><rect class="cls-22" x="111.2" y="42.85" width="17.37" height="1.09" transform="translate(23.54 -40.11) rotate(21.02)"/><rect class="cls-22" x="110.27" y="45.35" width="17.37" height="1.09" transform="translate(24.38 -39.61) rotate(21.02)"/><rect class="cls-22" x="109.34" y="47.85" width="17.37" height="1.09" transform="translate(25.21 -39.11) rotate(21.02)"/><rect class="cls-22" x="108.41" y="50.35" width="17.37" height="1.09" transform="translate(26.05 -38.62) rotate(21.02)"/><rect class="cls-22" x="107.48" y="52.85" width="17.37" height="1.09" transform="translate(26.88 -38.12) rotate(21.02)"/><rect class="cls-22" x="106.55" y="55.35" width="17.37" height="1.09" transform="translate(27.72 -37.62) rotate(21.02)"/><rect class="cls-22" x="105.63" y="57.84" width="17.37" height="1.09" transform="translate(28.55 -37.12) rotate(21.02)"/><rect class="cls-22" x="104.7" y="60.34" width="17.37" height="1.09" transform="translate(29.39 -36.62) rotate(21.02)"/><rect class="cls-22" x="103.77" y="62.84" width="17.37" height="1.09" transform="translate(30.22 -36.12) rotate(21.02)"/><rect class="cls-22" x="102.84" y="65.34" width="17.37" height="1.09" transform="translate(31.06 -35.62) rotate(21.02)"/><line class="cls-2" x1="108.67" y1="73.65" x2="125.72" y2="28.38"/><path class="cls-11" d="M124.37,31.57A2.48,2.48,0,0,0,121.19,33a2.41,2.41,0,0,0,1.47,3.12,2.5,2.5,0,0,0,3.18-1.44A2.41,2.41,0,0,0,124.37,31.57Zm-2.26,1.83a1.48,1.48,0,0,1,1.89-.85,1.44,1.44,0,0,1,.87,1.85Z"/><path class="cls-11" d="M126.08,39.28l-8.23-3.07a2.09,2.09,0,0,1-1.24-2.71h0a2.16,2.16,0,0,1,2.76-1.21l8.24,3.07a2.1,2.1,0,0,1,1.24,2.71h0A2.16,2.16,0,0,1,126.08,39.28Z"/></svg>