<svg id="Layer_1" data-name="Layer 1" xmlns="http://www.w3.org/2000/svg" viewBox="0 0 5000 5000"><defs><style>.cls-1{fill:#77c6ca;}.cls-2,.cls-7{fill:#a2ebed;}.cls-3{fill:#2a6f7f;}.cls-4{fill:#208f8d;}.cls-5{fill:#2d9e98;}.cls-6,.cls-9{fill:#fff;}.cls-6,.cls-7,.cls-8{fill-rule:evenodd;}.cls-16,.cls-8{fill:#65666a;}.cls-10{fill:#9ddbd7;}.cls-11{fill:#cf2004;}.cls-12{fill:#566d70;}.cls-13{fill:#dd5e48;}.cls-14{fill:#a6d2dd;}.cls-15{fill:#c7e5f0;}.cls-17{fill:#f7c3a6;}.cls-18{fill:#ffd6bb;}.cls-19{fill:#ffe2ca;}.cls-20{fill:#56575b;}.cls-21{fill:#e2caaa;}.cls-22{fill:#efbca3;}.cls-23{fill:#ebf1ff;}.cls-24{fill:#1d827d;}.cls-25{fill:#64666b;}.cls-26{fill:#c8eded;}</style></defs><rect class="cls-1" width="5000" height="5000"/><path class="cls-2" d="M3040.45,3579.7H913.34a336.52,336.52,0,0,1-336.52-336.51V2379.25h30v863.94A306.51,306.51,0,0,0,913.34,3549.7H3040.45Z"/><path class="cls-2" d="M3916.28,3579.7H1789.16a336.5,336.5,0,0,1-336.51-336.51V2379.25h30v863.94a306.49,306.49,0,0,0,306.51,306.51H3916.28Z"/><path class="cls-2" d="M4086.66,3579.7H1959.55v-30H4086.66a306.51,306.51,0,0,0,306.52-306.51V2379.25h30v863.94a336.5,336.5,0,0,1-336.52,336.51Z"/><path class="cls-2" d="M3210.84,3579.7H1083.72v-30H3210.84a306.49,306.49,0,0,0,306.51-306.51V2379.25h30v863.94a336.5,336.5,0,0,1-336.51,336.51Z"/><path class="cls-3" d="M2824.91,1296.41a545.79,545.79,0,0,0-7.35-120.45l141.08-65.35a703.17,703.17,0,0,0-126.48-267.39l-148.29,58.21a543,543,0,0,0-90.3-80l53.54-146a701.75,701.75,0,0,0-278.51-99.67l-63.69,146a543.79,543.79,0,0,0-120.43,7.33l-65.34-141.08a702.83,702.83,0,0,0-267.43,126.48l58.22,148.29a543,543,0,0,0-80,90.29l-146-53.56a702.91,702.91,0,0,0-99.66,278.52l146,63.69a545,545,0,0,0,7.35,120.45l-141.06,65.33A703.24,703.24,0,0,0,1723.05,1695l148.27-58.2a544.27,544.27,0,0,0,90.31,80.06l-53.54,145.93a703.12,703.12,0,0,0,278.5,99.68l63.69-146a544,544,0,0,0,120.47-7.36l65.31,141a702.9,702.9,0,0,0,267.44-126.46l-58.21-148.25a545.15,545.15,0,0,0,80-90.33l145.93,53.55a702.6,702.6,0,0,0,99.67-278.5Zm-619.42,173.91c-111.1-39.82-168.92-162.24-129.11-273.33s162.25-168.93,273.35-129.11,168.92,162.24,129.1,273.36S2316.58,1510.14,2205.49,1470.32Z"/><path class="cls-4" d="M2824.91,1296.41a545.79,545.79,0,0,0-7.35-120.45l141.08-65.35a703.17,703.17,0,0,0-126.48-267.39l-148.29,58.21a543,543,0,0,0-90.3-80l53.54-146a701.75,701.75,0,0,0-278.51-99.67l-63.69,146a543.79,543.79,0,0,0-120.43,7.33l-65.34-141.08a702.83,702.83,0,0,0-267.43,126.48l58.22,148.29a543,543,0,0,0-80,90.29l-146-53.56a702.91,702.91,0,0,0-99.66,278.52l146,63.69a545,545,0,0,0,7.35,120.45l-141.06,65.33A703.24,703.24,0,0,0,1723.05,1695l148.27-58.2a544.27,544.27,0,0,0,90.31,80.06l-53.54,145.93a703.12,703.12,0,0,0,278.5,99.68l63.69-146a544,544,0,0,0,120.47-7.36l65.31,141a702.9,702.9,0,0,0,267.44-126.46l-58.21-148.25a545.15,545.15,0,0,0,80-90.33l145.93,53.55a702.6,702.6,0,0,0,99.67-278.5Zm-619.42,173.91c-111.1-39.82-168.92-162.24-129.11-273.33s162.25-168.93,273.35-129.11,168.92,162.24,129.1,273.36S2316.58,1510.14,2205.49,1470.32Z"/><path class="cls-5" d="M2394,944.35c-179.3-64.26-376.85,29.09-441.11,208.38s29,376.82,208.33,441.08,376.85-29,441.11-208.31S2573.31,1008.62,2394,944.35Zm-185.63,517.93c-106.68-38.23-162.18-155.75-123.95-262.41s155.75-162.17,262.42-123.94,162.19,155.73,123.95,262.43S2315,1500.52,2208.37,1462.28Z"/><path class="cls-5" d="M4426.78,835.63a361.15,361.15,0,0,0-34.55-71.94l70.11-75.22a465,465,0,0,0-144.18-132.22l-76.3,72.65a359.26,359.26,0,0,0-75.27-26.49L4163,499.65a464.36,464.36,0,0,0-195.45,8.44L3965,613.43A359.46,359.46,0,0,0,3893,648l-75.22-70.11A464.87,464.87,0,0,0,3685.55,722l72.65,76.3a359.91,359.91,0,0,0-26.49,75.26L3629,877.21a465.2,465.2,0,0,0,8.44,195.45l105.33,2.59a360.1,360.1,0,0,0,34.55,71.94l-70.1,75.2a465.07,465.07,0,0,0,144.16,132.23l76.29-72.63a360.4,360.4,0,0,0,75.29,26.5l3.61,102.74a465.21,465.21,0,0,0,195.45-8.42l2.58-105.33a360,360,0,0,0,72-34.56l75.18,70.1A464.9,464.9,0,0,0,4484,1188.84l-72.64-76.27a360.66,360.66,0,0,0,26.49-75.3l102.74-3.61a464.54,464.54,0,0,0-8.43-195.44Zm-336,261.05A141.36,141.36,0,1,1,4226,949.43,141.39,141.39,0,0,1,4090.78,1096.68Z"/><path class="cls-4" d="M4075,727.5c-125.85,5.37-223.57,111.83-218.2,237.67s111.79,223.56,237.65,218.19,223.57-111.78,218.2-237.63S4200.89,722.13,4075,727.5ZM4090.54,1091a135.72,135.72,0,1,1,129.81-141.37A135.73,135.73,0,0,1,4090.54,1091Z"/><path class="cls-6" d="M3166.36,664.68a154.75,154.75,0,0,0,.27-27.91l59.77-32.54A220.93,220.93,0,0,0,3196.66,531l-65.16,18.79a151.69,151.69,0,0,0-19.6-19.89l19.27-65.28a221.92,221.92,0,0,0-72.82-30.75l-32.81,59.34a157.57,157.57,0,0,0-27.91-.27l-32.53-59.79a222.72,222.72,0,0,0-73.26,29.75l18.77,65.19a150.6,150.6,0,0,0-19.86,19.57l-65.29-19.27a221.93,221.93,0,0,0-30.77,72.86L2854.06,634a154.05,154.05,0,0,0-.29,27.93L2794,694.45a222.07,222.07,0,0,0,29.74,73.26l65.14-18.78a158.23,158.23,0,0,0,19.61,19.89l-19.27,65.28a222.48,222.48,0,0,0,72.84,30.75l32.79-59.34a155.89,155.89,0,0,0,27.93.25l32.52,59.77a221.36,221.36,0,0,0,73.27-29.73l-18.79-65.15a154.78,154.78,0,0,0,19.88-19.6l65.26,19.24a222.48,222.48,0,0,0,30.8-72.8ZM3044,732.43a89.69,89.69,0,1,1,49.34-116.86A89.67,89.67,0,0,1,3044,732.43Z"/><path class="cls-7" d="M1772.5,654.2a153.84,153.84,0,0,0,.26-27.91l59.78-32.54a221.67,221.67,0,0,0-29.74-73.27l-65.16,18.79a152.23,152.23,0,0,0-19.6-19.88l19.27-65.28a221.67,221.67,0,0,0-72.83-30.75l-32.8,59.34a157.68,157.68,0,0,0-27.92-.27l-32.52-59.79A222.08,222.08,0,0,0,1498,452.39l18.77,65.18a152.54,152.54,0,0,0-19.86,19.58l-65.29-19.28a222.54,222.54,0,0,0-30.77,72.86l59.37,32.78a155,155,0,0,0-.29,27.93L1400.14,684a221.74,221.74,0,0,0,29.75,73.27L1495,738.45a159,159,0,0,0,19.62,19.89l-19.28,65.27a222.5,222.5,0,0,0,72.84,30.76L1601,795a156.93,156.93,0,0,0,27.94.26l32.51,59.77a221.13,221.13,0,0,0,73.27-29.73l-18.78-65.15a154.76,154.76,0,0,0,19.87-19.61l65.26,19.25a222.37,222.37,0,0,0,30.81-72.8ZM1650.1,722a89.7,89.7,0,1,1,49.34-116.86A89.68,89.68,0,0,1,1650.1,722Z"/><path class="cls-8" d="M3714.25,474.11a214.1,214.1,0,0,0,13.57-36.29l93.44-14.14A307.06,307.06,0,0,0,3817.18,314l-93.94-6.37a210.32,210.32,0,0,0-16.15-35.24l56.1-76.05a307.86,307.86,0,0,0-80.46-74.65l-70.95,61.88a217.49,217.49,0,0,0-36.3-13.58l-14.1-93.45a308.52,308.52,0,0,0-109.71,4.09l-6.41,94a210.93,210.93,0,0,0-35.2,16.13L3334,134.58a308.76,308.76,0,0,0-74.7,80.5L3321.24,286a214,214,0,0,0-13.62,36.32l-93.41,14.1a307.93,307.93,0,0,0,4.09,109.71l93.9,6.37a220,220,0,0,0,16.17,35.26l-56.1,76a308.68,308.68,0,0,0,80.48,74.66l70.92-61.89A217.67,217.67,0,0,0,3460,590.15l14.1,93.42a307.64,307.64,0,0,0,109.71-4.06l6.38-93.93a214.57,214.57,0,0,0,35.22-16.17l76.05,56.06a309,309,0,0,0,74.71-80.39ZM3522.41,504.5a124.54,124.54,0,1,1,119.78-129.12A124.5,124.5,0,0,1,3522.41,504.5Z"/><path class="cls-8" d="M1469.19,1183.71a316.12,316.12,0,0,0,.55-57.08L1592,1060.06a452.37,452.37,0,0,0-60.82-149.85l-133.28,38.43A311.5,311.5,0,0,0,1357.8,908l39.42-133.51a453.26,453.26,0,0,0-149-62.89l-67.11,121.37a321,321,0,0,0-57.1-.55l-66.52-122.3a455.1,455.1,0,0,0-149.85,60.85l38.39,133.33a310.64,310.64,0,0,0-40.63,40L771.91,904.87a454.92,454.92,0,0,0-62.94,149l121.44,67a316.66,316.66,0,0,0-.6,57.13l-122.23,66.51a453.79,453.79,0,0,0,60.85,149.86L901.65,1356a324.09,324.09,0,0,0,40.12,40.68l-39.43,133.51a454.83,454.83,0,0,0,149,62.9l67.07-121.38a319.42,319.42,0,0,0,57.13.53l66.52,122.26a453.43,453.43,0,0,0,149.85-60.81l-38.41-133.27a315.69,315.69,0,0,0,40.64-40.1l133.49,39.37a455.09,455.09,0,0,0,63-148.9Zm-250.34,138.57a183.4,183.4,0,0,1-239-100.9c-38.15-93.83,7.06-200.94,100.89-239s200.91,7.07,239.06,100.9S1312.72,1284.13,1218.85,1322.28Z"/><path class="cls-7" d="M3569,1278.84,3678,1257.41a371.48,371.48,0,0,0-10.76-131.34l-110.67-2.57a261.3,261.3,0,0,0-22.24-43.43l61.85-92.21a370.11,370.11,0,0,0-100.49-85.24l-80,76.41A259.48,259.48,0,0,0,3369.2,964l-21.47-109a373.52,373.52,0,0,0-131.31,10.77l-2.58,110.68a262.51,262.51,0,0,0-43.44,22.23l-92.2-61.84A369.92,369.92,0,0,0,2993,1037.37l76.39,80a263.82,263.82,0,0,0-15,46.42l-108.92,21.49a369.59,369.59,0,0,0,10.77,131.29l110.64,2.57a261.81,261.81,0,0,0,22.25,43.44l-61.84,92.2a370.18,370.18,0,0,0,100.49,85.26l80-76.4a259.58,259.58,0,0,0,46.46,15l21.48,108.94a370.11,370.11,0,0,0,131.3-10.74l2.57-110.68a263,263,0,0,0,43.41-22.23l92.21,61.83a369.88,369.88,0,0,0,85.24-100.49l-76.39-80A261,261,0,0,0,3569,1278.84Zm-245.1,91.47a149.5,149.5,0,1,1,136.71-161.26A149.53,149.53,0,0,1,3323.94,1370.31Z"/><path class="cls-6" d="M920.85,506.19l87.68-47.51a333.4,333.4,0,0,0-44.35-109.75l-95.59,27.39A234.08,234.08,0,0,0,837.91,345l28.38-95.61a332.33,332.33,0,0,0-109-46.22l-48.2,86.92a233.38,233.38,0,0,0-43.85-.5l-47.55-87.69A335.56,335.56,0,0,0,508,246.27l27.39,95.6a236.05,236.05,0,0,0-31.31,30.69l-95.6-28.38a332.37,332.37,0,0,0-46.22,109l86.9,48.19a237.47,237.47,0,0,0-.48,43.83L361,592.74a332.48,332.48,0,0,0,44.34,109.7l95.57-27.38a235.38,235.38,0,0,0,30.69,31.3L503.26,802a332.64,332.64,0,0,0,109,46.24l48.19-86.91a233.51,233.51,0,0,0,43.86.47l47.55,87.67a332.67,332.67,0,0,0,109.72-44.32l-27.39-95.59a235.15,235.15,0,0,0,31.28-30.68l95.61,28.37a332.26,332.26,0,0,0,46.22-109L920.37,550A236.7,236.7,0,0,0,920.85,506.19Zm-185.73,144a134.29,134.29,0,1,1,74.11-174.83A134.3,134.3,0,0,1,735.12,650.16Z"/><path class="cls-2" d="M4903.72,1098.81A189.43,189.43,0,0,0,5000,1263.64v-42.51a153.67,153.67,0,0,1,0-244.65V934A189.45,189.45,0,0,0,4903.72,1098.81Z"/><path class="cls-2" d="M4974,706.05a406.94,406.94,0,0,0-83.06,35.6l-81.72-83a526.43,526.43,0,0,0-156.59,156.76l78.53,89.83a406.69,406.69,0,0,0-33.61,83.88l-116.45-.87a526.74,526.74,0,0,0,.12,221.55l119.05,8a407.88,407.88,0,0,0,35.62,83.06l-83,81.7a526.68,526.68,0,0,0,156.74,156.58l89.82-78.5a407.87,407.87,0,0,0,83.91,33.62l-.88,116.42q8.69,1.86,17.47,3.43V1468.57l-8.8-2.44a378.1,378.1,0,0,1-77.88-31.2l-17.82-9.57-15.24,13.31-72.86,63.69a497.53,497.53,0,0,1-116.57-116l65.57-64.59,16-15.74-11.06-19.51a379.3,379.3,0,0,1-33.07-77.11l-5.86-19.34-20.16-1.36-96.58-6.5a497.2,497.2,0,0,1-.38-164.48l92.06.7,22.42.16,6-21.61a378.27,378.27,0,0,1,31.19-77.85l9.56-17.83L4753.17,886l-63.71-72.87a497.19,497.19,0,0,1,116.05-116.59l64.6,65.58,15.74,16,19.51-11.06A379,379,0,0,1,4982.47,734l17.53-5.31V583.43q-9.06,1.62-18,3.56Z"/><path class="cls-2" d="M4834.7,1098.81c0,109.85,68.61,203.7,165.3,241V1308.3a229.43,229.43,0,0,1,0-419V857.72C4903.31,895.09,4834.7,989,4834.7,1098.81Z"/><path class="cls-2" d="M69.56,1402.09a525.33,525.33,0,0,0-11.85-111L0,1287.15v29.3l33.28,2.24a498,498,0,0,1,7,83.4,497.25,497.25,0,0,1-6.66,81.07L0,1482.91v29.23l57.82.44A525.2,525.2,0,0,0,69.56,1402.09Z"/><path class="cls-2" d="M47.9,890.52l6.73-8.64L23.9,839.27c.61-1.22,1.2-2.45,1.78-3.69l52.6-3L80.81,822a180.35,180.35,0,0,0,3.61-64.3L83.08,746.8l-51.86-8.4q-.64-1.95-1.35-3.87L65,695.16l-5.69-9.26a182.27,182.27,0,0,0-19.37-26,184.15,184.15,0,0,0-23.57-22l-8.65-6.75L0,636.68v36.05l6.66-4.81A153.37,153.37,0,0,1,18.13,679.4a154.92,154.92,0,0,1,10.28,12.84L0,724.11V738.6a101.28,101.28,0,0,1,5.59,16.3l2.34,9.33,48.42,7.86a151.5,151.5,0,0,1-1.83,32.55L5.37,807.46,2,816.38c-.63,1.68-1.32,3.34-2,5V856.1l17.86,24.77A153.39,153.39,0,0,1,6.37,892.33C4.29,894.19,2.17,896,0,897.72v35.67a180.48,180.48,0,0,0,25.87-19.28A181.48,181.48,0,0,0,47.9,890.52Z"/><path class="cls-2" d="M30.52,1281.41l80.12-26.63q6.93,7.13,14.53,13.62l-20.68,82.15,9.34,5.57a290.62,290.62,0,0,0,97.27,36.55l10.78,2,37.8-75.45c6.71.11,13.34-.1,19.93-.63l43.47,72.71,10.53-2.64a289.41,289.41,0,0,0,49.31-17.25,292.67,292.67,0,0,0,45.3-25.65l9-6.23-26.65-80.17c4.76-4.61,9.31-9.47,13.61-14.51l82.16,20.67,5.57-9.33a290.48,290.48,0,0,0,36.53-97.27l2-10.78L475,1110.29c.1-6.67-.1-13.32-.62-19.91l72.74-43.45-2.66-10.55a292.68,292.68,0,0,0-42.93-94.63l-6.24-9-80.13,26.64c-4.62-4.76-9.48-9.31-14.53-13.61l20.69-82.17L412,858a290.67,290.67,0,0,0-97.26-36.53l-10.78-2L266.11,895q-10-.16-19.93.62L202.7,822.86l-10.56,2.68a294.28,294.28,0,0,0-94.57,42.92l-9,6.23,26.64,80.16c-4.75,4.61-9.3,9.47-13.62,14.53L19.41,948.69,13.84,958A290.88,290.88,0,0,0,0,984.12v94.32l50.8,25.45c-.1,6.65.1,13.3.62,19.9L0,1154.54v75.54a291.49,291.49,0,0,0,24.28,42.33Zm52.06-142.19-1.18-9.46a182.67,182.67,0,0,1-1-33.83l.59-9.64L8.24,1049.87a260.85,260.85,0,0,1,25.34-67.46l79.12,19.92,5.86-7.53a182.4,182.4,0,0,1,23.15-24.68l7.24-6.4-25.67-77.21a266,266,0,0,1,65.61-29.76l41.86,70,9.47-1.19a180,180,0,0,1,33.8-1l9.66.61,36.45-72.74a260.93,260.93,0,0,1,67.44,25.35l-19.92,79.13,7.54,5.86a180.58,180.58,0,0,1,24.66,23.13l6.4,7.24,77.22-25.67a263.8,263.8,0,0,1,29.75,65.63l-70,41.83,1.19,9.48a182.32,182.32,0,0,1,1,33.82l-.59,9.64,72.71,36.44a260.54,260.54,0,0,1-25.35,67.45l-79.13-19.91-5.85,7.54a183,183,0,0,1-23.13,24.66l-7.23,6.4,25.67,77.21a263.73,263.73,0,0,1-65.6,29.75L295,1287.35l-9.49,1.21a180.75,180.75,0,0,1-33.8,1.06l-9.64-.59-36.43,72.71a261.18,261.18,0,0,1-67.45-25.37l19.92-79.12-7.54-5.85a181.62,181.62,0,0,1-24.68-23.14l-6.4-7.24-77.2,25.67a262.51,262.51,0,0,1-29.75-65.6Z"/><path class="cls-2" d="M263,1233.68a126.58,126.58,0,0,0,115.16-178.94A126.58,126.58,0,1,0,263,1233.68Zm-40.35-215.24a97.35,97.35,0,1,1,40.35,186,97.37,97.37,0,0,1-40.35-186Z"/><rect class="cls-9" x="137.26" y="1723.43" width="852.73" height="1057.16"/><rect class="cls-10" x="247.27" y="2239.77" width="632.71" height="14.02"/><rect class="cls-10" x="247.27" y="2272.89" width="632.71" height="14.02"/><rect class="cls-10" x="247.27" y="2306.01" width="360.21" height="14.02"/><rect class="cls-10" x="247.27" y="2339.12" width="632.71" height="14.02"/><rect class="cls-10" x="247.27" y="2372.24" width="632.71" height="14.02"/><rect class="cls-10" x="247.27" y="2405.36" width="139.38" height="14.02"/><rect class="cls-10" x="247.27" y="2487.07" width="632.71" height="14.02"/><rect class="cls-10" x="247.27" y="2520.19" width="632.71" height="14.02"/><rect class="cls-10" x="247.27" y="2553.31" width="360.21" height="14.02"/><rect class="cls-10" x="519.77" y="2553.31" width="360.21" height="14.02"/><rect class="cls-10" x="247.27" y="2586.42" width="357.04" height="14.02"/><rect class="cls-2" x="247.27" y="2034.97" width="632.71" height="14.02"/><rect class="cls-2" x="247.27" y="1940.67" width="632.71" height="14.02"/><rect class="cls-2" x="247.27" y="1846.37" width="632.71" height="14.02"/><rect class="cls-3" x="286.69" y="1932.32" width="78.93" height="201.4"/><rect class="cls-11" x="402.44" y="1898.9" width="78.93" height="234.83"/><rect class="cls-12" x="633.96" y="1912.73" width="78.93" height="220.99"/><rect class="cls-10" x="518.2" y="1867.23" width="78.93" height="266.49"/><rect class="cls-13" x="749.72" y="1820.65" width="78.93" height="313.07"/><rect class="cls-10" x="247.27" y="2129.27" width="632.71" height="14.02"/><rect class="cls-9" x="1112.37" y="1723.43" width="852.73" height="1057.16"/><rect class="cls-14" x="1199.67" y="2218.1" width="308.41" height="19.49"/><rect class="cls-14" x="1658.71" y="2218.1" width="114.76" height="19.49"/><rect class="cls-14" x="1802.15" y="2218.1" width="43.04" height="19.49"/><rect class="cls-15" x="1536.78" y="2218.1" width="93.24" height="19.49"/><rect class="cls-15" x="1436.36" y="2179.12" width="93.24" height="19.49"/><rect class="cls-14" x="1199.67" y="2179.12" width="64.55" height="19.49"/><rect class="cls-14" x="1292.91" y="2179.12" width="114.76" height="19.49"/><rect class="cls-14" x="1558.29" y="2179.12" width="286.9" height="19.49"/><rect class="cls-14" x="1199.67" y="2037.79" width="308.41" height="19.49"/><rect class="cls-14" x="1658.71" y="2037.79" width="114.76" height="19.49"/><rect class="cls-14" x="1802.15" y="2037.79" width="43.04" height="19.49"/><rect class="cls-15" x="1536.78" y="2037.79" width="93.24" height="19.49"/><rect class="cls-15" x="1436.36" y="2076.77" width="93.24" height="19.49"/><rect class="cls-14" x="1199.67" y="2076.77" width="64.55" height="19.49"/><rect class="cls-14" x="1292.91" y="2076.77" width="114.76" height="19.49"/><rect class="cls-14" x="1558.29" y="2076.77" width="286.9" height="19.49"/><rect class="cls-13" x="1615.67" y="2115.76" width="57.38" height="19.49"/><rect class="cls-14" x="1242.71" y="2115.76" width="222.34" height="19.49"/><rect class="cls-14" x="1493.74" y="2115.76" width="93.24" height="19.49"/><rect class="cls-14" x="1206.85" y="1901.33" width="186.48" height="19.49"/><rect class="cls-14" x="1328.78" y="1940.32" width="308.41" height="19.49"/><rect class="cls-15" x="1422.02" y="1901.33" width="143.45" height="19.49"/><rect class="cls-15" x="1206.85" y="1940.32" width="93.24" height="19.49"/><rect class="cls-14" x="1242.71" y="1979.31" width="57.38" height="19.49"/><rect class="cls-14" x="1450.71" y="1979.31" width="222.34" height="19.49"/><rect class="cls-15" x="1328.78" y="1979.31" width="93.24" height="19.49"/><rect class="cls-14" x="1594.16" y="1901.33" width="93.24" height="19.49"/><rect class="cls-14" x="1794.98" y="1901.33" width="93.24" height="19.49"/><rect class="cls-14" x="1716.09" y="1901.33" width="50.21" height="19.49"/><rect class="cls-14" x="1665.88" y="1940.32" width="222.35" height="19.49"/><rect class="cls-14" x="1199.67" y="2289.38" width="308.41" height="19.49"/><rect class="cls-14" x="1658.71" y="2289.38" width="114.76" height="19.49"/><rect class="cls-14" x="1802.15" y="2289.38" width="43.04" height="19.49"/><rect class="cls-15" x="1536.78" y="2289.38" width="93.24" height="19.49"/><rect class="cls-15" x="1436.36" y="2328.37" width="93.24" height="19.49"/><rect class="cls-14" x="1199.67" y="2328.37" width="64.55" height="19.49"/><rect class="cls-14" x="1292.91" y="2328.37" width="114.76" height="19.49"/><rect class="cls-14" x="1558.29" y="2328.37" width="286.9" height="19.49"/><rect class="cls-14" x="1199.67" y="2469.7" width="308.41" height="19.49"/><rect class="cls-14" x="1658.71" y="2469.7" width="114.76" height="19.49"/><rect class="cls-14" x="1802.15" y="2469.7" width="43.04" height="19.49"/><rect class="cls-15" x="1536.78" y="2469.7" width="93.24" height="19.49"/><rect class="cls-15" x="1436.36" y="2430.71" width="93.24" height="19.49"/><rect class="cls-14" x="1199.67" y="2430.71" width="64.55" height="19.49"/><rect class="cls-14" x="1292.91" y="2430.71" width="114.76" height="19.49"/><rect class="cls-14" x="1558.29" y="2430.71" width="286.9" height="19.49"/><rect class="cls-14" x="1615.67" y="2391.72" width="57.38" height="19.49"/><rect class="cls-14" x="1242.71" y="2391.72" width="222.34" height="19.49"/><rect class="cls-14" x="1493.74" y="2391.72" width="93.24" height="19.49"/><rect class="cls-14" x="1206.85" y="2606.15" width="186.48" height="19.49"/><rect class="cls-14" x="1328.78" y="2567.16" width="308.41" height="19.49"/><rect class="cls-15" x="1422.02" y="2606.15" width="143.45" height="19.49"/><rect class="cls-15" x="1206.85" y="2567.16" width="93.24" height="19.49"/><rect class="cls-14" x="1242.71" y="2528.18" width="57.38" height="19.49"/><rect class="cls-14" x="1450.71" y="2528.18" width="222.34" height="19.49"/><rect class="cls-15" x="1328.78" y="2528.18" width="93.24" height="19.49"/><rect class="cls-14" x="1594.16" y="2606.15" width="93.24" height="19.49"/><rect class="cls-14" x="1794.98" y="2606.15" width="93.24" height="19.49"/><rect class="cls-14" x="1716.09" y="2606.15" width="50.21" height="19.49"/><rect class="cls-14" x="1665.88" y="2567.16" width="222.35" height="19.49"/><rect class="cls-3" x="1112.37" y="1723.43" width="852.73" height="101.96"/><path class="cls-9" d="M1823.47,1774.41a11.49,11.49,0,0,1-11.27,11.7H1152.58a11.49,11.49,0,0,1-11.27-11.7h0a11.49,11.49,0,0,1,11.27-11.69H1812.2a11.49,11.49,0,0,1,11.27,11.69Z"/><path class="cls-10" d="M1868.55,1774.41a11.28,11.28,0,1,1-11.27-11.69A11.49,11.49,0,0,1,1868.55,1774.41Z"/><path class="cls-13" d="M1902.36,1774.41a11.28,11.28,0,1,1-11.27-11.69A11.49,11.49,0,0,1,1902.36,1774.41Z"/><path class="cls-2" d="M1936.17,1774.41a11.28,11.28,0,1,1-11.27-11.69A11.49,11.49,0,0,1,1936.17,1774.41Z"/><rect class="cls-9" x="4010.01" y="1723.43" width="852.73" height="1057.16"/><rect class="cls-14" x="4251.13" y="2255.31" width="108.31" height="15.09"/><rect class="cls-14" x="4321.95" y="2285.49" width="179.12" height="15.09"/><rect class="cls-15" x="4376.1" y="2255.31" width="83.31" height="15.09"/><rect class="cls-15" x="4251.13" y="2285.49" width="54.15" height="15.09"/><rect class="cls-14" x="4271.96" y="2315.67" width="33.32" height="15.09"/><rect class="cls-14" x="4392.77" y="2315.67" width="129.13" height="15.09"/><rect class="cls-15" x="4321.95" y="2315.67" width="54.15" height="15.09"/><rect class="cls-14" x="4476.08" y="2255.31" width="54.15" height="15.09"/><rect class="cls-14" x="4592.72" y="2255.31" width="54.15" height="15.09"/><rect class="cls-14" x="4546.89" y="2255.31" width="29.16" height="15.09"/><rect class="cls-14" x="4517.73" y="2285.49" width="129.14" height="15.09"/><polygon class="cls-3" points="4209.67 2405.32 4087.34 2282.99 4209.67 2160.66 4230.89 2181.88 4129.77 2282.99 4230.89 2384.11 4209.67 2405.32"/><polygon class="cls-3" points="4687.07 2405.32 4809.4 2282.99 4687.07 2160.66 4665.86 2181.88 4766.97 2282.99 4665.86 2384.11 4687.07 2405.32"/><rect class="cls-16" x="4010.01" y="1723.43" width="852.73" height="101.96"/><path class="cls-9" d="M4721.1,1774.41a11.49,11.49,0,0,1-11.27,11.7H4050.22a11.49,11.49,0,0,1-11.27-11.7h0a11.49,11.49,0,0,1,11.27-11.69h659.61a11.49,11.49,0,0,1,11.27,11.69Z"/><path class="cls-10" d="M4766.18,1774.41a11.28,11.28,0,1,1-11.27-11.69A11.49,11.49,0,0,1,4766.18,1774.41Z"/><path class="cls-13" d="M4800,1774.41a11.28,11.28,0,1,1-11.27-11.69A11.49,11.49,0,0,1,4800,1774.41Z"/><path class="cls-2" d="M4833.8,1774.41a11.28,11.28,0,1,1-11.27-11.69A11.49,11.49,0,0,1,4833.8,1774.41Z"/><rect class="cls-9" x="3047.88" y="1723.43" width="852.73" height="1057.16"/><polygon class="cls-16" points="3618.76 1798.04 3329.73 1798.04 3130.91 1798.04 3130.91 1828.31 3329.73 1828.31 3618.76 1828.31 3817.58 1828.31 3817.58 1798.04 3618.76 1798.04"/><rect class="cls-10" x="3130.91" y="1926.04" width="686.68" height="13.54"/><rect class="cls-10" x="3130.91" y="1958.03" width="686.68" height="13.55"/><rect class="cls-10" x="3130.91" y="1990.03" width="390.93" height="13.55"/><rect class="cls-10" x="3130.91" y="2022.02" width="686.68" height="13.55"/><rect class="cls-10" x="3130.91" y="2054.02" width="686.68" height="13.55"/><rect class="cls-10" x="3130.91" y="2086.02" width="151.27" height="13.55"/><rect class="cls-10" x="3130.91" y="2150.01" width="686.68" height="13.55"/><rect class="cls-10" x="3130.91" y="2182.01" width="686.68" height="13.55"/><rect class="cls-10" x="3130.91" y="2214" width="686.68" height="13.55"/><rect class="cls-10" x="3130.91" y="2246" width="460.62" height="13.55"/><rect class="cls-10" x="3130.91" y="2309.99" width="686.68" height="13.55"/><rect class="cls-10" x="3130.91" y="2341.99" width="686.68" height="13.54"/><rect class="cls-10" x="3130.91" y="2373.99" width="686.68" height="13.54"/><rect class="cls-10" x="3130.91" y="2405.98" width="464.02" height="13.54"/><rect class="cls-10" x="3130.91" y="2469.98" width="686.68" height="13.55"/><rect class="cls-10" x="3130.91" y="2501.97" width="253.28" height="13.55"/><rect class="cls-10" x="3130.91" y="2703.62" width="686.68" height="5.93"/><path class="cls-4" d="M2964.54,3337.08c-6.09-121.67,92.57-175.08,24.28-223.41-90.47-64-297.27-69.42-543-65.76-245.7-3.66-469-3.12-559.51,60.91-68.29,48.33,30.37,92,24.29,213.69-5.7,114-159,1428.92,179,1428.92,96.63,0,224.37,12.37,356.26,20.94h0c131.89-8.57,259.63-20.94,356.26-20.94C3140.08,4751.43,2970.24,3451.06,2964.54,3337.08Z"/><path class="cls-4" d="M2896.54,3094.25c121.63-40.55,315.21,289.81,436.2,437.2,146.51,178.5,291.82,447.4,335.31,564.81,31.41,84.81,3.66,115.77-38.93,131.15-112.88,40.76-266.1-126.27-266.1-126.27s-106.3-225.07-192.46-331.5-207.78-212.85-207.78-212.85S2672.58,3168.9,2896.54,3094.25Z"/><path class="cls-4" d="M1886.34,3108.82c-97,44.58-195.42,232.55-316.4,379.94-146.52,178.5-340.93,464-384.41,581.42-31.42,84.81,4.14,102.15,38.92,131.14,13.57,11.3,55.06,87.24,117.33,79.59,97.4-12,224.72-115.36,215.11-122.43-15.75-11.6-66.34-83.42-66.34-83.42l418.05-534.69S2100.86,3010.26,1886.34,3108.82Z"/><path class="cls-4" d="M3062.77,4085.8c70.22-32.28,495.86-101,547.52-51.56,75.89,72.57,140.26,214.49,89.77,234-30.76,11.91-486.46,194-570.51,75.34C3102.57,4305.54,2992.54,4118.08,3062.77,4085.8Z"/><path class="cls-17" d="M2815,4088.87c5.63,18,23.62,30.95,40.16,28.85l128.16-16.25c16.52-2.12,25.37-18.41,19.71-36.45h0c-5.63-18-23.62-30.94-40.16-28.84l-128.16,16.25c-16.54,2.09-25.37,18.41-19.71,36.44Z"/><path class="cls-17" d="M2946.77,4054.1c-4.74,16.05,5.06,35.93,21.9,44.43L3099,4164.39c16.82,8.49,34.3,2.4,39-13.64h0c4.75-16.05-5.07-35.93-21.9-44.45l-130.37-65.85c-16.81-8.5-34.28-2.38-39,13.65Z"/><path class="cls-18" d="M3258.6,4245.92c-12-54.05-97.21-139.91-97.21-139.91l-80.61-13.67-126.48,41.94,31.81,61.43L3113.05,4180l20.71,82.17s-93.48,8-37,64.77c24.58,24.71,48.26,40,79.1,39.5C3215.17,4365.84,3270.63,4300,3258.6,4245.92Z"/><path class="cls-18" d="M2861.28,4273.7c13.54,14.21,33.47,16.56,44.53,5.27l85.74-87.57c11-11.31,9.07-32-4.47-46.19h0c-13.54-14.22-33.47-16.56-44.52-5.26l-85.73,87.58c-11.06,11.3-9.07,32,4.45,46.17Z"/><path class="cls-18" d="M2911.31,4343.06c13.53,14.22,33.46,16.57,44.51,5.26l85.74-87.58c11.06-11.3,9.08-32-4.46-46.18h0c-13.54-14.21-33.47-16.56-44.53-5.26l-85.74,87.58c-11,11.3-9.06,32,4.48,46.18Z"/><path class="cls-18" d="M2989.4,4384c13.54,14.21,33.48,16.58,44.54,5.27l69.52-70.91c11-11.32,9.06-32-4.47-46.19h0c-13.54-14.21-33.47-16.56-44.54-5.27L2985,4337.84c-11.07,11.29-9.08,32,4.44,46.16Z"/><polygon class="cls-18" points="3132.29 4125.33 2995.13 4207.19 3021.3 4265.87 3167.95 4219.83 3132.29 4125.33"/><polygon class="cls-18" points="3189.91 4187.03 3056.5 4264.84 3079.81 4322.27 3196.24 4326.9 3189.91 4187.03"/><path class="cls-19" d="M2863.85,4259.7c7.72,8.71,19,11.15,25.21,5.48l12-10.94c6.18-5.69-21.79-37.21-28-31.52l-11.94,10.95c-6.23,5.66-5,17.34,2.75,26Z"/><path class="cls-18" d="M2825.87,4081.52c3.24,10.69,13,18.54,21.87,17.53l17-1.93c8.83-1-2.91-39.77-11.75-38.76l-17,2c-8.85,1-13.38,10.5-10.14,21.2Z"/><path class="cls-19" d="M2916.45,4326.49c7.71,8.71,19,11.16,25.21,5.48l12-10.94c6.19-5.68-21.78-37.21-28-31.52l-11.95,10.95c-6.22,5.66-5,17.34,2.76,26Z"/><path class="cls-19" d="M2992.52,4372.09c7.72,8.7,19,11.15,25.21,5.48l12-10.95c6.18-5.68-21.78-37.2-28-31.52l-11.93,11c-6.24,5.65-5,17.33,2.74,26Z"/><path class="cls-18" d="M2985.66,4088.12a3.6,3.6,0,0,0,3.41,2.74h0a2.25,2.25,0,0,0,2-3l-10.67-42.51a3.61,3.61,0,0,0-3.41-2.74h0a2.26,2.26,0,0,0-2,3Z"/><path class="cls-18" d="M2968.79,4073a3.61,3.61,0,0,0,3.41,2.73h0a2.24,2.24,0,0,0,2-3l-6.62-26.29a3.56,3.56,0,0,0-3.4-2.73h0a2.25,2.25,0,0,0-2,3Z"/><path class="cls-19" d="M2970.91,4172.66c1.12,1.3,2.87,1.64,3.93.74h0a2.9,2.9,0,0,0-.13-4l-18.52-21.63c-1.12-1.3-2.89-1.64-3.92-.73h0c-1.07.91-1,2.7.13,4Z"/><path class="cls-19" d="M3026.79,4237.3c1.12,1.29,2.87,1.63,3.93.73h0c1.05-.91,1-2.71-.13-4l-18.52-21.62c-1.12-1.31-2.88-1.64-3.92-.72h0c-1.06.89-1,2.69.13,4Z"/><path class="cls-4" d="M2042.63,4072.25c-70.22-32.28-495.86-101-547.52-51.56-75.89,72.57-140.26,214.49-89.77,234,30.76,11.91,486.46,194,570.51,75.33C2002.83,4292,2112.85,4104.53,2042.63,4072.25Z"/><path class="cls-17" d="M2290.38,4075.32c-5.63,18-23.62,31-40.17,28.85l-128.15-16.25c-16.52-2.11-25.37-18.41-19.71-36.45h0c5.63-18,23.62-30.94,40.16-28.84l128.16,16.25c16.54,2.09,25.37,18.42,19.71,36.44Z"/><path class="cls-17" d="M2158.63,4040.55c4.73,16-5.06,35.93-21.9,44.43l-130.36,65.86c-16.82,8.49-34.3,2.4-39-13.64h0c-4.74-16,5.08-35.93,21.91-44.45l130.37-65.85c16.81-8.5,34.28-2.38,39,13.65Z"/><path class="cls-18" d="M1846.8,4232.37c12-54.05,97.21-139.91,97.21-139.91l80.61-13.67,126.48,41.94-31.81,61.43-126.94-15.71-20.71,82.17s93.47,8,37,64.77c-24.58,24.71-48.27,40-79.1,39.5C1890.23,4352.29,1834.76,4286.42,1846.8,4232.37Z"/><path class="cls-18" d="M2244.12,4260.15c-13.54,14.21-33.47,16.56-44.53,5.27l-85.74-87.57c-11.06-11.31-9.07-32,4.47-46.19h0c13.54-14.22,33.46-16.56,44.52-5.26l85.73,87.59c11.06,11.29,9.07,32-4.45,46.16Z"/><path class="cls-18" d="M2194.09,4329.51c-13.53,14.23-33.46,16.57-44.51,5.26l-85.75-87.57c-11-11.31-9.07-32,4.47-46.19h0c13.54-14.21,33.46-16.55,44.53-5.26l85.74,87.58c11,11.3,9,32-4.48,46.18Z"/><path class="cls-18" d="M2116,4370.45c-13.53,14.22-33.47,16.58-44.53,5.27l-69.52-70.91c-11-11.31-9.06-32,4.47-46.19h0c13.54-14.21,33.47-16.56,44.54-5.27l69.49,70.94c11.07,11.3,9.07,32-4.45,46.16Z"/><polygon class="cls-18" points="1973.11 4111.79 2110.27 4193.64 2084.1 4252.33 1937.44 4206.28 1973.11 4111.79"/><polygon class="cls-18" points="1915.48 4173.48 2048.9 4251.29 2025.59 4308.73 1909.15 4313.35 1915.48 4173.48"/><path class="cls-19" d="M2241.55,4246.15c-7.72,8.71-19,11.15-25.21,5.48l-12-10.94c-6.18-5.69,21.79-37.21,28-31.52l11.94,10.95c6.23,5.66,5,17.34-2.75,26Z"/><path class="cls-18" d="M2279.53,4068c-3.24,10.69-13,18.55-21.87,17.54l-17-1.94c-8.83-1,2.91-39.77,11.74-38.76l17,2c8.85,1,13.38,10.5,10.14,21.2Z"/><path class="cls-19" d="M2189,4312.94c-7.71,8.71-19,11.16-25.21,5.48l-12-10.94c-6.18-5.68,21.79-37.2,28-31.52l11.95,10.95c6.22,5.66,5,17.34-2.76,26Z"/><path class="cls-19" d="M2112.88,4358.54c-7.72,8.71-19,11.16-25.21,5.48l-12-11c-6.18-5.68,21.78-37.2,28-31.52l11.94,11c6.23,5.65,5,17.33-2.74,26Z"/><path class="cls-18" d="M2119.74,4074.58a3.6,3.6,0,0,1-3.41,2.73h0a2.25,2.25,0,0,1-2-3l10.68-42.5a3.59,3.59,0,0,1,3.41-2.74h0a2.25,2.25,0,0,1,2,3Z"/><path class="cls-18" d="M2136.6,4059.47a3.57,3.57,0,0,1-3.4,2.73h0a2.25,2.25,0,0,1-2-3l6.63-26.28a3.56,3.56,0,0,1,3.4-2.74h0a2.25,2.25,0,0,1,2,3Z"/><path class="cls-19" d="M2134.49,4159.11a2.88,2.88,0,0,1-3.94.74h0c-1-.91-1-2.72.14-4l18.52-21.62c1.12-1.31,2.89-1.64,3.92-.74h0c1.07.91,1,2.7-.13,4Z"/><path class="cls-19" d="M2078.6,4223.76c-1.11,1.29-2.87,1.63-3.93.73h0a2.9,2.9,0,0,1,.14-4l18.51-21.63c1.13-1.31,2.89-1.64,3.92-.72h0c1.07.89,1,2.7-.12,4Z"/><path class="cls-4" d="M1380.15,4047.36S1610.47,4083.48,1676,4079s153.55-13.55,153.55-13.55l-58.71,212.26s-437.12,14-476.46-6.77c-81.29-42.91-115.16-131-115.16-131Z"/><path class="cls-18" d="M2511.88,2820.42h-118c-75.55,0-136.78,34.41-136.78,76.89v147.86c0,42.48,61.23,76.9,136.78,76.9h118c75.55,0,136.79-34.42,136.79-76.9V2897.31C2648.67,2854.83,2587.43,2820.42,2511.88,2820.42Z"/><path class="cls-20" d="M2722.76,2164.57c-36.72,0-140.05-39.75-140.05-3.05,0,0,54.79,35.91,85,134.14S2698,2565.82,2698,2565.82c0,16,18.24,54.16,37.78,60.45,25.33,8.14,24.3.19,24.3-20.54l29.18-374.68A66.48,66.48,0,0,0,2722.76,2164.57Z"/><path class="cls-18" d="M2731.59,2441.55c-25.57,0-80.3,38.66-80.3,64.24l-.27,107.72c0,25.57,55,58.52,80.57,58.52a46.29,46.29,0,0,0,46.28-46.28l15.37-112.41C2797.47,2464,2757.14,2441.55,2731.59,2441.55Z"/><path class="cls-21" d="M2721.82,2494.65c-12.14,0-36.48,16.18-42.12,29.46a35.21,35.21,0,0,1-.63,67.07c4.53,13,30.2,27.75,42.75,27.75a25,25,0,0,0,25-24.94l8.28-60.64C2757.35,2506.74,2735.6,2494.65,2721.82,2494.65Z"/><path class="cls-17" d="M2511.88,2820.42h-118c-75.55,0-136.78,34.41-136.78,76.89v67.91c73,34.23,163.51,60,231.85,60,59.62,0,115-16.54,159.73-40.73v-87.17C2648.67,2854.83,2587.43,2820.42,2511.88,2820.42Z"/><path class="cls-18" d="M2130.88,2796.11c0,68,222.67,169,358.06,169,147.43,0,268.62-101,268.62-169V2202.33H2130.88Z"/><path class="cls-18" d="M2130.88,2796.11c0,68,222.67,169,358.06,169,147.43,0,268.62-101,268.62-169V2202.33H2130.88Z"/><path class="cls-17" d="M2514.41,2524.07c0,156.54-7.82,305.61-22,441.06,145.84-1.58,265.12-101.57,265.12-169V2202.33H2503C2510.42,2304.28,2514.41,2412.26,2514.41,2524.07Z"/><path class="cls-22" d="M2138.61,2214.7c-3,32.61,6.28,69.45,33.69,82.68,58.7,28.33,112.6-22,245.24,14,94.61,25.69,184.46,48.13,263.95,37.57,32.16-4.28,56.94-19.18,76.07-39.71V2202.33H2139.74Z"/><path class="cls-20" d="M2181.15,2164.57a66.47,66.47,0,0,0-66.47,66.48v354.5c0,20.72,28.15,48.86,53.47,40.72,19.56-6.29,37.8-44.46,37.8-60.45,0,0,0-171.92,30.23-270.16s85-134.14,85-134.14C2321.19,2124.82,2217.86,2164.57,2181.15,2164.57Z"/><path class="cls-18" d="M2137.5,2441.55c-25.57,0-65.87,22.43-61.66,71.79l15.37,112.41A46.28,46.28,0,0,0,2137.5,2672c25.56,0,80.55-33,80.55-58.52l-.26-107.72C2217.79,2480.21,2163.06,2441.55,2137.5,2441.55Z"/><path class="cls-22" d="M2165.2,2557.53a35.21,35.21,0,0,1,24.17-33.42c-5.63-13.28-30-29.46-42.11-29.46-13.78,0-35.53,12.09-33.25,38.7l8.28,60.64a25,25,0,0,0,25,24.94c12.55,0,38.24-14.71,42.75-27.75A35.23,35.23,0,0,1,2165.2,2557.53Z"/><path class="cls-20" d="M2820.12,2043.88c-48.17-2.57-4.64,50.11-162.21,50.11-45.82,0-117.5-20.5-189.45-40.08-240.36-65.43-300.81,33.1-310.36,60.46-5.72,16.44-8.76,33.85-8.17,49.24.86,22.26,2.11,85.72,56.27,116.76,56.57,32.4,98.37-30.92,233.74-7.13,96.56,17,188.07,31.15,266.27,13.4C2847.45,2254.57,2868.28,2046.45,2820.12,2043.88Z"/><polygon class="cls-9" points="2264.25 3097.1 2239.26 3140.97 2274.41 3230.45 2423.89 3871.79 2491.5 3884.01 2631.67 3257.16 2684.74 3082.63 2503.91 3117.43 2264.25 3097.1"/><path class="cls-23" d="M2568.84,3132.56c-43.66,12.11-102,17.26-116.18,18.38-14.2-1.12-72.51-6.27-116.17-18.38-50.06-13.88-79.74-50.22-79.74-50.22l-61.25,74.86,214.26,68,42.9-68.81,42.9,68.81,214.27-68-61.26-74.86S2618.89,3118.68,2568.84,3132.56Z"/><polygon class="cls-13" points="2451.87 3105.63 2451.47 3105.49 2361.35 3140.14 2398.79 3207.41 2452.88 3211.9 2453.28 3211.93 2453.69 3211.89 2507.64 3206.39 2543.29 3138.44 2452.28 3105.78 2451.87 3105.63"/><path class="cls-9" d="M2256.75,3032.25l-61.25,74.87,214.26,68,46.13-74s-69.34-4.73-119.4-18.61S2256.75,3032.25,2256.75,3032.25Z"/><path class="cls-9" d="M2568.84,3082.48c-50.06,13.88-119.4,18.61-119.4,18.61l46.12,74,214.27-68-61.26-74.87S2618.89,3068.59,2568.84,3082.48Z"/><polyline class="cls-13" points="2402.91 3550.59 2406.14 3829.23 2461.04 3896.55 2504.92 3829.23 2508.14 3269.66 2474.64 3187.63 2455.95 3180.02 2455.91 3178.08 2453.59 3179.07 2451.26 3178.11 2451.26 3180.07 2432.81 3187.99 2399.71 3273.82 2402.91 3550.59"/><polygon class="cls-24" points="2659.05 3033.35 2648.01 3021.98 2463.6 3884.01 2460.49 3973.19 2770.18 3299.16 2675.85 3265.52 2825.62 3151.26 2659.05 3033.35"/><polygon class="cls-24" points="2246.28 3033.35 2079.71 3151.26 2254.92 3261.63 2157.48 3296.7 2460.49 3973.19 2463.6 3884.01 2257.31 3021.98 2246.28 3033.35"/><rect class="cls-20" x="1029.41" y="4423.61" width="2974.15" height="576.39"/><rect class="cls-25" x="869.42" y="4253.42" width="3246.48" height="267.45" rx="70.39"/><rect class="cls-2" x="2109.76" y="4156.14" width="934.2" height="98.8" rx="41.82"/><path class="cls-26" d="M3581.39,3755.66c0-.26,0-.52-.06-.78v0a39.16,39.16,0,0,0-39-35.19H3137.15a39.22,39.22,0,0,0-39.22,39.22h0v389.86a39.24,39.24,0,0,0,39.22,39.23H3542.3a39.24,39.24,0,0,0,39.23-39.23V3758.89h0C3581.53,3757.8,3581.47,3756.73,3581.39,3755.66Z"/><path class="cls-26" d="M4048.8,2944.87H2633.32a81.77,81.77,0,0,0-81.78,81.77v858.88a81.78,81.78,0,0,0,81.78,81.78H4048.8a81.78,81.78,0,0,0,81.78-81.78V3026.64A81.77,81.77,0,0,0,4048.8,2944.87Z"/><rect class="cls-26" x="2922.76" y="4156.14" width="852.11" height="98.8" rx="41.82"/></svg>