<svg id="Layer_1" data-name="Layer 1" xmlns="http://www.w3.org/2000/svg" viewBox="0 0 150 150"><defs><style>.cls-1{fill:#1e81a7;}.cls-2{fill:#80abd7;}.cls-3{fill:#5c95b6;}.cls-4{fill:#81a8c4;}.cls-5{fill:#95b3cd;}.cls-6{fill:#a8bfd5;}.cls-7{opacity:0.1;}.cls-8{fill:#080100;}.cls-9{fill:#9f9f9f;}.cls-10{fill:#d3d3d3;}.cls-11{fill:#c1c1c1;}.cls-12{fill:#8a8a8a;}.cls-13{fill:#979797;}.cls-14{fill:#e2e3e4;}.cls-15{fill:#f6f6f7;}.cls-16{fill:#074c74;}.cls-17{fill:#012644;}</style></defs><circle class="cls-1" cx="76.99" cy="85.21" r="62.67"/><path class="cls-2" d="M129.18,73.77a1.09,1.09,0,0,0,0,2.17,1.09,1.09,0,1,0,0-2.17Zm0,1.36a.28.28,0,1,1,.28-.28A.27.27,0,0,1,129.18,75.13Zm2.78,2a.27.27,0,0,1,0-.37l.21-.22a.25.25,0,0,1,.36,0l.07.06a2.81,2.81,0,0,0,.26-.62l-.2-.07a.26.26,0,0,1-.16-.33l.1-.28a.25.25,0,0,1,.33-.16l.09,0c0-.11,0-.22,0-.34s0-.22,0-.33h-.21a.26.26,0,0,1-.27-.24l0-.31a.26.26,0,0,1,.24-.27h.1a3.12,3.12,0,0,0-.26-.62l-.19.09a.25.25,0,0,1-.34-.12l-.13-.27a.26.26,0,0,1,.11-.35l.09,0a4.25,4.25,0,0,0-.47-.48l-.14.16a.26.26,0,0,1-.37,0l-.22-.2a.25.25,0,0,1,0-.36l.06-.08a4.26,4.26,0,0,0-.62-.26l-.07.21a.27.27,0,0,1-.33.16l-.28-.1a.26.26,0,0,1-.16-.33l0-.1h-.67v.22a.26.26,0,0,1-.24.27l-.31,0a.26.26,0,0,1-.27-.24V71.2a4.39,4.39,0,0,0-.63.26l.1.19a.26.26,0,0,1-.12.35l-.28.13a.25.25,0,0,1-.34-.12l0-.09a5.44,5.44,0,0,0-.48.48l.16.14a.25.25,0,0,1,0,.36l-.2.23a.25.25,0,0,1-.36,0l-.08-.06a3.84,3.84,0,0,0-.26.62l.21.07a.26.26,0,0,1,.16.32l-.1.29a.26.26,0,0,1-.33.16l-.1,0c0,.11,0,.22,0,.33s0,.23,0,.34h.22a.26.26,0,0,1,.27.24l0,.3a.26.26,0,0,1-.25.28h-.1a4.26,4.26,0,0,0,.26.62l.19-.09a.26.26,0,0,1,.35.12l.13.27a.27.27,0,0,1-.12.35l-.09,0a5.44,5.44,0,0,0,.48.48l.14-.16a.25.25,0,0,1,.36,0l.23.21a.25.25,0,0,1,0,.36l-.07.08a3.45,3.45,0,0,0,.63.25l.07-.2a.26.26,0,0,1,.32-.16l.29.1a.25.25,0,0,1,.16.33l0,.09.33,0,.34,0v-.21a.26.26,0,0,1,.24-.27l.3,0a.25.25,0,0,1,.27.24v.1a2.81,2.81,0,0,0,.62-.26l-.09-.19a.25.25,0,0,1,.12-.34l.27-.13a.26.26,0,0,1,.35.12l0,.09a5.44,5.44,0,0,0,.48-.48Zm-2.78-.5A1.82,1.82,0,1,1,131,74.85,1.82,1.82,0,0,1,129.18,76.67Z"/><path class="cls-3" d="M118.79,80.87a1.78,1.78,0,1,0,1.78,1.78A1.78,1.78,0,0,0,118.79,80.87Zm0,2.23a.45.45,0,0,1-.45-.45.46.46,0,0,1,.45-.46.47.47,0,0,1,.46.46A.46.46,0,0,1,118.79,83.1Zm4.55,3.34a.42.42,0,0,1,0-.59l.34-.38a.41.41,0,0,1,.59,0l.13.11a7.54,7.54,0,0,0,.42-1l-.33-.12a.41.41,0,0,1-.26-.53l.16-.48a.43.43,0,0,1,.54-.26l.15.06a5.07,5.07,0,0,0,0-.55,5.25,5.25,0,0,0,0-.56l-.35,0a.42.42,0,0,1-.44-.4l0-.5a.42.42,0,0,1,.39-.45h.17a6,6,0,0,0-.43-1l-.31.15a.42.42,0,0,1-.56-.2l-.22-.45a.42.42,0,0,1,.19-.56l.15-.07a6.39,6.39,0,0,0-.78-.78l-.23.26a.43.43,0,0,1-.6,0l-.37-.33a.42.42,0,0,1,0-.59l.11-.13a5.75,5.75,0,0,0-1-.42l-.11.33a.42.42,0,0,1-.54.26l-.47-.16a.42.42,0,0,1-.26-.54l0-.15a4.93,4.93,0,0,0-.55,0,5.07,5.07,0,0,0-.55,0l0,.35a.41.41,0,0,1-.39.44l-.5,0a.41.41,0,0,1-.45-.39v-.17a6.44,6.44,0,0,0-1,.42l.15.32a.41.41,0,0,1-.19.56l-.45.22a.42.42,0,0,1-.56-.19l-.08-.15a7.18,7.18,0,0,0-.78.78l.27.23a.43.43,0,0,1,0,.6l-.33.37a.43.43,0,0,1-.6,0l-.12-.1a6,6,0,0,0-.42,1l.33.12a.42.42,0,0,1,.26.54l-.16.47a.42.42,0,0,1-.54.26l-.15-.05a4.93,4.93,0,0,0,0,.55,5.07,5.07,0,0,0,0,.55l.34,0a.41.41,0,0,1,.45.39l0,.5a.43.43,0,0,1-.4.45h-.16a6.44,6.44,0,0,0,.42,1l.32-.16a.42.42,0,0,1,.56.2l.22.45a.42.42,0,0,1-.2.56l-.14.07a5.17,5.17,0,0,0,.77.78l.24-.26a.41.41,0,0,1,.59,0l.38.33a.43.43,0,0,1,0,.6l-.11.12a6.44,6.44,0,0,0,1,.42l.12-.33a.41.41,0,0,1,.53-.26l.47.16a.43.43,0,0,1,.27.54l-.06.15a5.07,5.07,0,0,0,.55,0,4.93,4.93,0,0,0,.55,0l0-.34a.43.43,0,0,1,.4-.45l.5,0a.43.43,0,0,1,.45.4v.16a6,6,0,0,0,1-.42l-.15-.32a.42.42,0,0,1,.2-.56l.45-.22a.42.42,0,0,1,.56.2l.07.14a5.75,5.75,0,0,0,.78-.78Zm-4.55-.81a3,3,0,1,1,3-3A3,3,0,0,1,118.79,85.63Z"/><path class="cls-4" d="M113.75,63.11a3.46,3.46,0,1,0,3.46,3.46A3.46,3.46,0,0,0,113.75,63.11Zm0,4.34a.88.88,0,1,1,.88-.88A.88.88,0,0,1,113.75,67.45Zm8.83,6.49a.81.81,0,0,1-.06-1.15l.64-.73a.82.82,0,0,1,1.16-.07l.24.21a12.31,12.31,0,0,0,.82-2l-.64-.22a.82.82,0,0,1-.51-1l.32-.92a.82.82,0,0,1,1-.51l.3.11c0-.36,0-.71,0-1.07s0-.72,0-1.08l-.68,0a.8.8,0,0,1-.86-.77l-.06-1a.81.81,0,0,1,.77-.87l.32,0a12.31,12.31,0,0,0-.82-2l-.61.3a.84.84,0,0,1-1.1-.38l-.43-.88a.83.83,0,0,1,.38-1.09l.29-.14a12.75,12.75,0,0,0-1.51-1.52l-.46.51a.81.81,0,0,1-1.15.07l-.73-.65a.81.81,0,0,1-.07-1.15l.21-.24a12.35,12.35,0,0,0-2-.83l-.22.65a.82.82,0,0,1-1,.51l-.92-.32a.83.83,0,0,1-.51-1.05l.11-.3c-.36,0-.71-.05-1.07-.05s-.72,0-1.08.05l0,.68a.82.82,0,0,1-.77.87L111,56a.82.82,0,0,1-.87-.77l0-.33a12.35,12.35,0,0,0-2,.83l.3.61a.84.84,0,0,1-.38,1.1l-.88.42a.81.81,0,0,1-1.09-.38l-.14-.29a12.13,12.13,0,0,0-1.52,1.52l.51.45a.82.82,0,0,1,.07,1.16l-.65.72a.81.81,0,0,1-1.15.07l-.24-.21a12.35,12.35,0,0,0-.83,2l.65.22a.83.83,0,0,1,.51,1.05l-.32.91a.83.83,0,0,1-1,.51l-.3-.1c0,.35,0,.71,0,1.07s0,.72,0,1.07l.68,0a.83.83,0,0,1,.87.77l.06,1a.83.83,0,0,1-.77.87h-.33a12.46,12.46,0,0,0,.83,2l.61-.3a.82.82,0,0,1,1.1.38l.42.87a.82.82,0,0,1-.38,1.1l-.29.14a12.75,12.75,0,0,0,1.52,1.51l.45-.51a.82.82,0,0,1,1.16-.06l.72.64a.82.82,0,0,1,.07,1.16l-.21.24a12.31,12.31,0,0,0,2,.82l.22-.65a.83.83,0,0,1,1-.5l.91.32a.81.81,0,0,1,.51,1l-.1.3c.35,0,.71.05,1.07.05s.72,0,1.07-.05l0-.68a.83.83,0,0,1,.77-.87l1,0a.83.83,0,0,1,.87.77l0,.32a12.7,12.7,0,0,0,2-.82l-.3-.62a.81.81,0,0,1,.38-1.09l.87-.43a.84.84,0,0,1,1.1.38l.14.29a12.67,12.67,0,0,0,1.51-1.51Zm-8.83-1.57a5.81,5.81,0,1,1,5.8-5.8A5.81,5.81,0,0,1,113.75,72.37Z"/><path class="cls-4" d="M68,120.66a3.46,3.46,0,1,0,3.46,3.46A3.46,3.46,0,0,0,68,120.66ZM68,125a.88.88,0,1,1,.88-.88A.88.88,0,0,1,68,125Zm8.84,6.5a.82.82,0,0,1-.07-1.16l.64-.72a.82.82,0,0,1,1.16-.07l.24.21a12.35,12.35,0,0,0,.83-2l-.65-.22a.83.83,0,0,1-.51-1l.32-.91a.82.82,0,0,1,1-.51l.3.1a11.47,11.47,0,0,0,0-2.14l-.67,0a.83.83,0,0,1-.87-.77l-.06-1a.83.83,0,0,1,.77-.87l.33,0a12.74,12.74,0,0,0-.83-2l-.61.3a.82.82,0,0,1-1.1-.38l-.42-.87a.82.82,0,0,1,.38-1.1l.29-.14a12,12,0,0,0-1.52-1.51l-.45.51a.83.83,0,0,1-1.16.06l-.72-.64a.82.82,0,0,1-.07-1.16l.21-.24a12.31,12.31,0,0,0-2-.82l-.22.64a.83.83,0,0,1-1.05.51l-.91-.32a.81.81,0,0,1-.51-1l.1-.3c-.35,0-.71,0-1.07,0s-.72,0-1.07,0l0,.68a.81.81,0,0,1-.77.86l-1,.06a.83.83,0,0,1-.87-.77l0-.32a12.31,12.31,0,0,0-2,.82l.3.61a.82.82,0,0,1-.38,1.1l-.87.42a.82.82,0,0,1-1.1-.38l-.14-.28a12.67,12.67,0,0,0-1.51,1.51l.5.45a.82.82,0,0,1,.07,1.16l-.64.73a.82.82,0,0,1-1.16.07l-.24-.21a11.7,11.7,0,0,0-.82,2l.64.23a.82.82,0,0,1,.51,1l-.32.92a.82.82,0,0,1-1,.51l-.3-.11c0,.36-.05.71-.05,1.07s0,.72.05,1.08l.68,0a.82.82,0,0,1,.86.78l.06,1a.82.82,0,0,1-.77.87l-.32,0a11.46,11.46,0,0,0,.82,2l.61-.3a.84.84,0,0,1,1.1.38l.42.88a.81.81,0,0,1-.38,1.09l-.28.14a12,12,0,0,0,1.51,1.52l.45-.51a.82.82,0,0,1,1.16-.07l.73.65a.81.81,0,0,1,.07,1.15l-.22.24a12.74,12.74,0,0,0,2,.83l.23-.65a.82.82,0,0,1,1-.51l.92.32A.82.82,0,0,1,67,136l-.1.3c.35,0,.71,0,1.07,0s.72,0,1.07,0l0-.68a.83.83,0,0,1,.77-.87l1-.06a.83.83,0,0,1,.87.77l0,.33a12.35,12.35,0,0,0,2-.83l-.3-.61a.84.84,0,0,1,.38-1.1l.88-.42a.81.81,0,0,1,1.09.38l.14.29A12.13,12.13,0,0,0,77.34,132ZM68,129.93a5.81,5.81,0,1,1,5.8-5.81A5.81,5.81,0,0,1,68,129.93Z"/><path class="cls-5" d="M46.71,103.55a4.3,4.3,0,1,0,4.29,4.3A4.3,4.3,0,0,0,46.71,103.55Zm0,5.39a1.1,1.1,0,1,1,1.09-1.09A1.09,1.09,0,0,1,46.71,108.94Zm11,8.07a1,1,0,0,1-.09-1.44l.8-.9a1,1,0,0,1,1.44-.09l.3.27a15.55,15.55,0,0,0,1-2.46l-.8-.28a1,1,0,0,1-.63-1.3l.39-1.13a1,1,0,0,1,1.3-.63l.37.13c0-.44.07-.89.07-1.33s0-.9-.07-1.34l-.84,0a1,1,0,0,1-1.07-1l-.08-1.2a1,1,0,0,1,1-1.08l.4,0a15.06,15.06,0,0,0-1-2.45l-.76.36a1,1,0,0,1-1.36-.47l-.53-1.08A1,1,0,0,1,58,98.3l.36-.18a15.18,15.18,0,0,0-1.88-1.88l-.56.63a1,1,0,0,1-1.44.09l-.9-.8a1,1,0,0,1-.09-1.44l.27-.3a15.55,15.55,0,0,0-2.46-1l-.28.8a1,1,0,0,1-1.3.63l-1.13-.39a1,1,0,0,1-.63-1.3l.13-.37c-.44,0-.88-.06-1.33-.06s-.9,0-1.33.06l0,.84a1,1,0,0,1-1,1.08l-1.2.07a1,1,0,0,1-1.08-1l0-.4a16,16,0,0,0-2.45,1l.36.76a1,1,0,0,1-.47,1.37l-1.08.52a1,1,0,0,1-1.36-.47L37,96.24a14.67,14.67,0,0,0-1.89,1.89l.63.56a1,1,0,0,1,.09,1.43l-.8.9a1,1,0,0,1-1.44.09l-.3-.26a16,16,0,0,0-1,2.45l.8.28a1,1,0,0,1,.63,1.3L33.3,106a1,1,0,0,1-1.3.63l-.37-.13c0,.43-.06.88-.06,1.33s0,.89.06,1.33l.84-.05a1,1,0,0,1,1.08,1l.07,1.21a1,1,0,0,1-1,1.07l-.4,0a15.59,15.59,0,0,0,1,2.46l.75-.37a1,1,0,0,1,1.37.47l.52,1.08a1,1,0,0,1-.47,1.36l-.36.18A16,16,0,0,0,37,119.45l.56-.63a1,1,0,0,1,1.44-.09l.9.8A1,1,0,0,1,40,121l-.26.3a14.81,14.81,0,0,0,2.46,1l.27-.8a1,1,0,0,1,1.3-.63l1.14.39a1,1,0,0,1,.63,1.3l-.13.37c.44,0,.88.06,1.33.06s.89,0,1.33-.06l0-.84A1,1,0,0,1,49,121l1.2-.07a1,1,0,0,1,1.07,1l0,.4a15.55,15.55,0,0,0,2.46-1l-.37-.76a1,1,0,0,1,.47-1.36l1.08-.53a1,1,0,0,1,1.37.47l.17.36a15.18,15.18,0,0,0,1.88-1.88Zm-11-2a7.21,7.21,0,1,1,7.2-7.2A7.2,7.2,0,0,1,46.71,115.05Z"/><path class="cls-6" d="M103.23,50.7V43h-2.79a15.17,15.17,0,0,0-1.57-3.91l2-2-5.41-5.42-2,2A15.49,15.49,0,0,0,89.64,32V29.13H82v2.79a15.2,15.2,0,0,0-3.91,1.58l-2-2-5.41,5.42,2,2a15.17,15.17,0,0,0-1.65,3.88H68.06v7.66h2.8a15.17,15.17,0,0,0,1.57,3.91l-2,2,5.41,5.42,2-2a15.33,15.33,0,0,0,3.87,1.66V64.3h7.66V61.51a15.2,15.2,0,0,0,3.91-1.58l2,2,5.41-5.42-2-2a15.17,15.17,0,0,0,1.65-3.88Zm-28.6-3.91A11.09,11.09,0,0,1,92.1,37.71l-5.22,5.71a3.58,3.58,0,0,0-1.23-.22,3.5,3.5,0,0,0-3.17,5L77.25,54A11.07,11.07,0,0,1,74.63,46.79Zm12.43-.08a1.26,1.26,0,1,1-1.25-1.25A1.25,1.25,0,0,1,87.06,46.71ZM85.73,57.89a11,11,0,0,1-6.42-2l5.28-5.77a3.67,3.67,0,0,0,1.06.16,3.52,3.52,0,0,0,3.52-3.52,3.4,3.4,0,0,0-.28-1.35l5.28-5.77a11.09,11.09,0,0,1-8.44,18.3Z"/><g class="cls-7"><path class="cls-8" d="M80.87,113.86a56.19,56.19,0,0,1-37.84,0,4.63,4.63,0,0,1-3.11-4.36v-9.14a2.7,2.7,0,0,1,2.7-2.7H84v11.82A4.64,4.64,0,0,1,80.87,113.86Z"/><path class="cls-8" d="M80.87,98.33a56.13,56.13,0,0,1-37.84,0A4.63,4.63,0,0,1,39.92,94V84.84a2.7,2.7,0,0,1,2.7-2.7H84V94A4.62,4.62,0,0,1,80.87,98.33Z"/><path class="cls-8" d="M80.87,82.8a56.19,56.19,0,0,1-37.84,0,4.65,4.65,0,0,1-3.11-4.37V69.32a3.9,3.9,0,0,1,2.37-3.47,6.19,6.19,0,0,0,1.11-.34l5.67-2.41L84,66.61V78.43A4.62,4.62,0,0,1,80.87,82.8Z"/></g><path class="cls-9" d="M50.71,96.83l13.6-3.6-4.46,5.71S53.13,99.33,50.71,96.83Z"/><path class="cls-9" d="M50.71,81.43l13.6-3.6-4.46,5.71S53.13,83.93,50.71,81.43Z"/><path class="cls-10" d="M43.41,93.88v11.91c4.08,4.46,17.6,6.06,28.87,4.91V93.88Z"/><path class="cls-10" d="M87.52,93.88H83.14v14.48a13.13,13.13,0,0,0,4.38-2.57Z"/><path class="cls-11" d="M72.28,93.88V110.7a42.84,42.84,0,0,0,10.86-2.34V93.88Z"/><path class="cls-12" d="M61,86.85a52.33,52.33,0,0,0-9.19,1.38l13.88,4.38Z"/><path class="cls-13" d="M51.8,88.23c-5.13,1.3-8.43,3.31-8.43,5.57,0,3.92,9.9,7.09,22.11,7.09,2.33,0,4.58-.12,6.69-.33l-6.49-8Z"/><path class="cls-13" d="M87.6,93.8c0-3.92-9.9-7.09-22.12-7.09-1.54,0-3,.05-4.49.14l4.69,5.76,17.4,5.48C85.91,96.9,87.6,95.41,87.6,93.8Z"/><path class="cls-12" d="M72.17,100.56a39.66,39.66,0,0,0,10.91-2.47l-17.4-5.48Z"/><path class="cls-10" d="M43.41,78.48V90.4c4.08,4.45,17.6,6,28.87,4.91V78.48Z"/><path class="cls-10" d="M87.52,78.48H83.14V93a13.12,13.12,0,0,0,4.38-2.56Z"/><path class="cls-11" d="M72.28,78.48V95.31A43.25,43.25,0,0,0,83.14,93V78.48Z"/><path class="cls-12" d="M61,71.45a52.33,52.33,0,0,0-9.19,1.38l13.88,4.38Z"/><path class="cls-13" d="M51.8,72.83c-5.13,1.3-8.43,3.31-8.43,5.57,0,3.92,9.9,7.09,22.11,7.09a64.87,64.87,0,0,0,6.69-.33l-6.49-8Z"/><path class="cls-13" d="M87.6,78.4c0-3.92-9.9-7.09-22.12-7.09-1.54,0-3,0-4.49.14l4.69,5.76,17.4,5.49C85.91,81.5,87.6,80,87.6,78.4Z"/><path class="cls-12" d="M72.17,85.16A39.69,39.69,0,0,0,83.08,82.7l-17.4-5.49Z"/><path class="cls-10" d="M43.41,63.56V75.47c4.08,4.46,17.6,6.06,28.87,4.91V63.56Z"/><path class="cls-10" d="M87.52,63.56H83.14V78a13.12,13.12,0,0,0,4.38-2.56Z"/><path class="cls-11" d="M72.28,63.56V80.38A42.82,42.82,0,0,0,83.14,78V63.56Z"/><path class="cls-11" d="M61,56.53A51.46,51.46,0,0,0,51.8,57.9l13.88,4.38Z"/><path class="cls-14" d="M51.8,57.9c-5.13,1.3-8.43,3.31-8.43,5.57,0,3.92,9.9,7.1,22.11,7.1a64.79,64.79,0,0,0,6.69-.34l-6.49-8Z"/><path class="cls-14" d="M87.6,63.47c0-3.91-9.9-7.09-22.12-7.09-1.54,0-3,0-4.49.15l4.69,5.75,17.4,5.49C85.91,66.58,87.6,65.09,87.6,63.47Z"/><path class="cls-11" d="M72.17,70.23a39.33,39.33,0,0,0,10.91-2.46l-17.4-5.49Z"/><path class="cls-15" d="M50.71,66.5l13.6-3.6-4.46,5.71S53.13,69,50.71,66.5Z"/><g class="cls-7"><path class="cls-8" d="M105.41,128.08a56.19,56.19,0,0,1-37.84,0,4.65,4.65,0,0,1-3.11-4.37V114.6a2.71,2.71,0,0,1,2.71-2.71h41.37v11.82A4.62,4.62,0,0,1,105.41,128.08Z"/><path class="cls-8" d="M105.41,112.55a56.13,56.13,0,0,1-37.84,0,4.64,4.64,0,0,1-3.11-4.36V99.07a2.7,2.7,0,0,1,2.71-2.7h41.37v11.82A4.61,4.61,0,0,1,105.41,112.55Z"/><path class="cls-8" d="M105.41,97a56.19,56.19,0,0,1-37.84,0,4.63,4.63,0,0,1-3.11-4.36V83.54a3.88,3.88,0,0,1,2.38-3.46,8.72,8.72,0,0,0,1.1-.34l5.67-2.41,34.93,3.51V92.66A4.64,4.64,0,0,1,105.41,97Z"/></g><path class="cls-9" d="M75.25,111.05l13.6-3.59-4.46,5.7S77.67,113.55,75.25,111.05Z"/><path class="cls-9" d="M75.25,95.65l13.6-3.59-4.46,5.7S77.67,98.15,75.25,95.65Z"/><path class="cls-10" d="M68,108.11V120c4.08,4.46,17.6,6.06,28.87,4.91V108.11Z"/><path class="cls-10" d="M112.06,108.11h-4.37v14.47a13.17,13.17,0,0,0,4.37-2.56Z"/><path class="cls-11" d="M96.82,108.11v16.82a43,43,0,0,0,10.87-2.35V108.11Z"/><path class="cls-12" d="M85.53,101.08a51.2,51.2,0,0,0-9.18,1.37l13.87,4.38Z"/><path class="cls-13" d="M76.35,102.45c-5.14,1.3-8.44,3.31-8.44,5.57,0,3.92,9.9,7.1,22.12,7.1,2.32,0,4.57-.12,6.68-.33l-6.49-8Z"/><path class="cls-13" d="M112.14,108c0-3.91-9.9-7.09-22.11-7.09-1.54,0-3,0-4.5.15l4.69,5.75,17.4,5.49C110.45,111.13,112.14,109.64,112.14,108Z"/><path class="cls-12" d="M96.71,114.79a39.57,39.57,0,0,0,10.91-2.47l-17.4-5.49Z"/><path class="cls-10" d="M68,92.71v11.91c4.08,4.46,17.6,6.06,28.87,4.91V92.71Z"/><path class="cls-10" d="M112.06,92.71h-4.37v14.48a13.18,13.18,0,0,0,4.37-2.57Z"/><path class="cls-11" d="M96.82,92.71v16.82a43.46,43.46,0,0,0,10.87-2.34V92.71Z"/><path class="cls-12" d="M85.53,85.68a53.07,53.07,0,0,0-9.18,1.37l13.87,4.38Z"/><path class="cls-13" d="M76.35,87.05c-5.14,1.3-8.44,3.32-8.44,5.58,0,3.91,9.9,7.09,22.12,7.09,2.32,0,4.57-.12,6.68-.33l-6.49-8Z"/><path class="cls-13" d="M112.14,92.63c0-3.92-9.9-7.1-22.11-7.1-1.54,0-3,0-4.5.15l4.69,5.75,17.4,5.49C110.45,95.73,112.14,94.24,112.14,92.63Z"/><path class="cls-12" d="M96.71,99.39a39.57,39.57,0,0,0,10.91-2.47l-17.4-5.49Z"/><path class="cls-10" d="M68,77.78V89.69c4.08,4.46,17.6,6.06,28.87,4.91V77.78Z"/><path class="cls-10" d="M112.06,77.78h-4.37V92.26a13.18,13.18,0,0,0,4.37-2.57Z"/><path class="cls-11" d="M96.82,77.78V94.6a43.46,43.46,0,0,0,10.87-2.34V77.78Z"/><path class="cls-11" d="M85.53,70.75a52.06,52.06,0,0,0-9.18,1.38L90.22,76.5Z"/><path class="cls-14" d="M76.35,72.13c-5.14,1.3-8.44,3.31-8.44,5.57,0,3.91,9.9,7.09,22.12,7.09,2.32,0,4.57-.12,6.68-.33l-6.49-8Z"/><path class="cls-14" d="M112.14,77.7c0-3.92-9.9-7.1-22.11-7.1-1.54,0-3,.06-4.5.15l4.69,5.75L107.62,82C110.45,80.8,112.14,79.31,112.14,77.7Z"/><path class="cls-11" d="M96.71,84.46A39.57,39.57,0,0,0,107.62,82L90.22,76.5Z"/><path class="cls-15" d="M75.25,80.72l13.6-3.59-4.46,5.71S77.67,83.23,75.25,80.72Z"/><path class="cls-16" d="M22.55,48.62l-11.31-9.2L14,36l9.39,4.22-6.07-8.31,2.79-3.42,11.32,9.2-1.73,2.13-8.91-7.25,7.08,9.49-1.79,2.2-10.73-5,8.91,7.25Z"/><path class="cls-16" d="M43.24,28.44l-2.53,2-3-1.84-4.6,3.57,1.08,3.36-2.47,1.92-4.46-15,2.46-1.91Zm-7.82-1.23-4.91-3.05,1.76,5.49Z"/><path class="cls-16" d="M41.05,24.39l2.45-1.51a3.54,3.54,0,0,0,1.87,1.44A3.19,3.19,0,0,0,47.59,24a3.28,3.28,0,0,0,1.66-1.48,1.79,1.79,0,0,0,0-1.58,1.33,1.33,0,0,0-.66-.66,2.43,2.43,0,0,0-1.23-.1c-.36,0-1.16.2-2.39.47a8.09,8.09,0,0,1-3.62.17,3.78,3.78,0,0,1-2.5-2.05,3.67,3.67,0,0,1-.35-2.15,4,4,0,0,1,1-2.13,7.46,7.46,0,0,1,2.35-1.72A6.21,6.21,0,0,1,46.09,12a4.23,4.23,0,0,1,2.73,2.24l-2.59,1.42a2.52,2.52,0,0,0-1.44-1.1A3,3,0,0,0,42.9,15a3.36,3.36,0,0,0-1.57,1.36,1.06,1.06,0,0,0,0,1,1.1,1.1,0,0,0,.78.6A7.78,7.78,0,0,0,45,17.62a14.25,14.25,0,0,1,3.32-.46,4.12,4.12,0,0,1,2.1.62,4.29,4.29,0,0,1,1.54,1.83A4.22,4.22,0,0,1,52.32,22a4.1,4.1,0,0,1-1,2.33,8.29,8.29,0,0,1-2.61,1.88,6.34,6.34,0,0,1-4.38.72A5.53,5.53,0,0,1,41.05,24.39Z"/><path class="cls-16" d="M58.4,22.11,55.19,10.43,51,11.57l-.65-2.38L61.54,6.12l.65,2.38L58,9.65l3.21,11.68Z"/><path class="cls-16" d="M66.33,20.08,65.16,5.54l10.78-.87.2,2.46-7.85.63L68.55,11l7.3-.59.2,2.45-7.3.59.32,4,8.12-.65.2,2.45Z"/><path class="cls-16" d="M78.89,19.21,80.66,4.73l6.15.75a10.5,10.5,0,0,1,3.33.81,3.29,3.29,0,0,1,1.51,1.59A4.16,4.16,0,0,1,92,10.24a3.88,3.88,0,0,1-1.28,2.57,4.66,4.66,0,0,1-3,1,7,7,0,0,1,1.42,1.41,17.32,17.32,0,0,1,1.37,2.55l1.43,3-3.5-.42L86.68,17a20.48,20.48,0,0,0-1.28-2.32,2.24,2.24,0,0,0-.81-.71,4.65,4.65,0,0,0-1.45-.34l-.59-.08-.74,6.05Zm3.94-8,2.17.27a11,11,0,0,0,2.65.14,1.57,1.57,0,0,0,.89-.51,1.93,1.93,0,0,0,.43-1,1.72,1.72,0,0,0-.25-1.23,1.74,1.74,0,0,0-1-.7c-.23-.06-.94-.17-2.13-.31l-2.28-.28Z"/><path class="cls-17" d="M103.11,9.12,108,11.28a10.9,10.9,0,0,1,2.43,1.37,4.9,4.9,0,0,1,1.47,2.12,6.4,6.4,0,0,1,.33,2.72,10.68,10.68,0,0,1-1,3.35,9.48,9.48,0,0,1-1.66,2.66,6.24,6.24,0,0,1-2.47,1.73,5.2,5.2,0,0,1-2.36.24,9.1,9.1,0,0,1-2.51-.77l-5.07-2.23Zm1.71,3.44-3.89,8.85,2,.88a8.17,8.17,0,0,0,1.69.59A2.67,2.67,0,0,0,106,22.8a3,3,0,0,0,1.28-1,9.41,9.41,0,0,0,1.34-2.32,9,9,0,0,0,.78-2.5,3.36,3.36,0,0,0-.2-1.63,2.86,2.86,0,0,0-1-1.18,14.09,14.09,0,0,0-2.16-1.1Z"/><path class="cls-17" d="M120.34,35.88,117.75,34l.91-3.43-4.73-3.42-2.91,2-2.54-1.84,13.16-8.48,2.52,1.83Zm-1-7.86,1.55-5.56-4.77,3.23Z"/><path class="cls-17" d="M121.83,37.83l8.68-8.46-3-3.1,1.76-1.72,8.09,8.3-1.77,1.73-3-3.1-8.69,8.46Z"/><path class="cls-17" d="M134,53.48l-1.81-2.65,2-2.92-3.29-4.81-3.42.87-1.76-2.58L141,37.85l1.76,2.57Zm1.7-7.74L139,41l-5.58,1.43Z"/></svg>