<svg id="Layer_1" data-name="Layer 1" xmlns="http://www.w3.org/2000/svg" viewBox="0 0 287.37 334.94"><defs><style>.cls-1{fill:#30ad63;}.cls-2,.cls-9{opacity:0.1;}.cls-3{fill:#2f81b7;}.cls-4{fill:#8d48ab;}.cls-5{fill:#3a99d8;}.cls-6{fill:#f0c330;}.cls-7{fill:#e54d42;}.cls-8{fill:#239f85;}.cls-10{font-size:22.99px;fill:#ecf0f1;}.cls-10,.cls-12,.cls-14,.cls-16{font-family:Arial-BoldMT, Arial;font-weight:700;}.cls-11{fill:#e47e30;}.cls-12{font-size:19.46px;letter-spacing:-0.07em;}.cls-12,.cls-13,.cls-14,.cls-15,.cls-16{fill:#fcfbfa;}.cls-13{font-size:7.78px;letter-spacing:-0.07em;}.cls-13,.cls-15{font-family:ArialMT, Arial;}.cls-14{font-size:10.9px;letter-spacing:-0.07em;}.cls-15{font-size:6.23px;letter-spacing:-0.07em;}.cls-16{font-size:16.35px;letter-spacing:-0.07em;}</style></defs><g id="Arrow_26" data-name="Arrow 26"><circle class="cls-1" cx="81.5" cy="231.26" r="3.49"/><circle class="cls-1" cx="88.35" cy="224.42" r="4.36"/><circle class="cls-1" cx="96.58" cy="216.19" r="5.45"/><circle class="cls-1" cx="106.54" cy="206.23" r="6.81"/><circle class="cls-1" cx="58.92" cy="253.84" r="26.62"/><g class="cls-2"><circle cx="81.5" cy="231.26" r="3.49"/><circle cx="88.35" cy="224.42" r="4.36"/><circle cx="96.58" cy="216.19" r="5.45"/><circle cx="106.54" cy="206.23" r="6.81"/><circle cx="58.92" cy="253.84" r="26.62"/></g><circle class="cls-3" cx="145.42" cy="257.74" r="3.49"/><circle class="cls-3" cx="145.42" cy="248.06" r="4.36"/><circle class="cls-3" cx="145.42" cy="236.42" r="5.45"/><circle class="cls-3" cx="145.42" cy="222.33" r="6.81"/><circle class="cls-3" cx="145.42" cy="289.67" r="26.62"/><g class="cls-2"><circle cx="145.42" cy="257.74" r="3.49"/><circle cx="145.42" cy="248.06" r="4.36"/><circle cx="145.42" cy="236.42" r="5.45"/><circle cx="145.42" cy="222.33" r="6.81"/><circle cx="145.42" cy="289.67" r="26.62"/></g><circle class="cls-4" cx="209.34" cy="231.26" r="3.49"/><circle class="cls-4" cx="202.5" cy="224.42" r="4.36"/><circle class="cls-4" cx="194.27" cy="216.19" r="5.45"/><circle class="cls-4" cx="184.3" cy="206.23" r="6.81"/><circle class="cls-4" cx="231.92" cy="253.84" r="26.62"/><g class="cls-2"><circle cx="209.34" cy="231.26" r="3.49"/><circle cx="202.5" cy="224.42" r="4.36"/><circle cx="194.27" cy="216.19" r="5.45"/><circle cx="184.3" cy="206.23" r="6.81"/><circle cx="231.92" cy="253.84" r="26.62"/></g><circle class="cls-5" cx="219.48" cy="167.35" r="2.14"/><circle class="cls-5" cx="213.55" cy="167.35" r="2.67"/><circle class="cls-5" cx="206.41" cy="167.35" r="3.34"/><circle class="cls-5" cx="197.77" cy="167.35" r="4.18"/><circle class="cls-5" cx="239.06" cy="167.35" r="16.32"/><g class="cls-2"><circle cx="219.48" cy="167.35" r="2.14"/><circle cx="213.55" cy="167.35" r="2.67"/><circle cx="206.41" cy="167.35" r="3.34"/><circle cx="197.77" cy="167.35" r="4.18"/><circle cx="239.06" cy="167.35" r="16.32"/></g><circle class="cls-5" cx="218.96" cy="167.35" r="2.14"/><circle class="cls-5" cx="213.02" cy="167.35" r="2.67"/><circle class="cls-5" cx="205.89" cy="167.35" r="3.34"/><circle class="cls-5" cx="197.25" cy="167.35" r="4.18"/><circle class="cls-5" cx="238.54" cy="167.35" r="16.32"/><circle class="cls-6" cx="209.34" cy="103.43" r="3.49"/><circle class="cls-6" cx="202.5" cy="110.27" r="4.36"/><circle class="cls-6" cx="194.27" cy="118.5" r="5.45"/><circle class="cls-6" cx="184.3" cy="128.46" r="6.81"/><circle class="cls-6" cx="231.92" cy="80.85" r="26.62"/><g class="cls-2"><circle cx="209.34" cy="103.43" r="3.49"/><circle cx="202.5" cy="110.27" r="4.36"/><circle cx="194.27" cy="118.5" r="5.45"/><circle cx="184.3" cy="128.46" r="6.81"/><circle cx="231.92" cy="80.85" r="26.62"/></g><circle class="cls-7" cx="145.42" cy="76.95" r="3.49"/><circle class="cls-7" cx="145.42" cy="86.63" r="4.36"/><circle class="cls-7" cx="145.42" cy="98.27" r="5.45"/><circle class="cls-7" cx="145.42" cy="112.36" r="6.81"/><circle class="cls-7" cx="145.42" cy="45.02" r="26.62"/><g class="cls-2"><circle cx="145.42" cy="76.95" r="3.49"/><circle cx="145.42" cy="86.63" r="4.36"/><circle cx="145.42" cy="98.27" r="5.45"/><circle cx="145.42" cy="112.36" r="6.81"/><circle cx="145.42" cy="45.02" r="26.62"/></g><circle class="cls-8" cx="145.59" cy="167.35" r="45.17"/><circle class="cls-9" cx="145.59" cy="167.35" r="45.17"/><circle class="cls-8" cx="144.59" cy="167.35" r="45.17"/><text class="cls-10" transform="translate(104.03 175.19)">GFEBS</text><circle class="cls-7" cx="144.42" cy="76.95" r="3.49"/><circle class="cls-7" cx="144.42" cy="86.63" r="4.36"/><circle class="cls-7" cx="144.42" cy="98.27" r="5.45"/><circle class="cls-7" cx="144.42" cy="112.36" r="6.81"/><circle class="cls-7" cx="144.42" cy="45.02" r="26.62"/><circle class="cls-3" cx="144.42" cy="257.74" r="3.49"/><circle class="cls-3" cx="144.42" cy="248.06" r="4.36"/><circle class="cls-3" cx="144.42" cy="236.42" r="5.45"/><circle class="cls-3" cx="144.42" cy="222.33" r="6.81"/><circle class="cls-3" cx="144.42" cy="289.67" r="26.62"/><circle class="cls-11" cx="81.5" cy="103.43" r="3.49"/><circle class="cls-11" cx="88.35" cy="110.27" r="4.36"/><circle class="cls-11" cx="96.58" cy="118.5" r="5.45"/><circle class="cls-11" cx="106.54" cy="128.46" r="6.81"/><circle class="cls-11" cx="58.92" cy="80.85" r="26.62"/><g class="cls-2"><circle cx="81.5" cy="103.43" r="3.49"/><circle cx="88.35" cy="110.27" r="4.36"/><circle cx="96.58" cy="118.5" r="5.45"/><circle cx="106.54" cy="128.46" r="6.81"/><circle cx="58.92" cy="80.85" r="26.62"/></g><circle class="cls-11" cx="80.5" cy="103.43" r="3.49"/><circle class="cls-11" cx="87.35" cy="110.27" r="4.36"/><circle class="cls-11" cx="95.58" cy="118.5" r="5.45"/><circle class="cls-11" cx="105.54" cy="128.46" r="6.81"/><circle class="cls-11" cx="57.92" cy="80.85" r="26.62"/><circle class="cls-4" cx="208.34" cy="231.26" r="3.49"/><circle class="cls-4" cx="201.5" cy="224.42" r="4.36"/><circle class="cls-4" cx="193.27" cy="216.19" r="5.45"/><circle class="cls-4" cx="183.3" cy="206.23" r="6.81"/><circle class="cls-4" cx="230.92" cy="253.84" r="26.62"/><circle class="cls-1" cx="80.5" cy="231.26" r="3.49"/><circle class="cls-1" cx="87.35" cy="224.42" r="4.36"/><circle class="cls-1" cx="95.58" cy="216.19" r="5.45"/><circle class="cls-1" cx="105.54" cy="206.23" r="6.81"/><circle class="cls-1" cx="57.92" cy="253.84" r="26.62"/><circle class="cls-6" cx="208.34" cy="103.43" r="3.49"/><circle class="cls-6" cx="201.5" cy="110.27" r="4.36"/><circle class="cls-6" cx="193.27" cy="118.5" r="5.45"/><circle class="cls-6" cx="183.3" cy="128.46" r="6.81"/><circle class="cls-6" cx="230.92" cy="80.85" r="26.62"/><text class="cls-12" transform="translate(43.63 75.87)">CM</text><text class="cls-13" transform="translate(50.9 84.63)">Cost <tspan x="-13.08" y="9.34">Management</tspan></text><text class="cls-12" transform="translate(217.86 75.28)">FM</text><text class="cls-13" transform="translate(221.5 83.7)">Funds<tspan x="-10.54" y="9.34">Management</tspan></text><text class="cls-14" transform="translate(233.2 161.91)">BI</text><text class="cls-15" transform="translate(227.88 167.79)">Business<tspan x="-2.25" y="7.47">Intelligence</tspan></text><text class="cls-13" transform="translate(208.62 263.07)">Reimbursables</text><text class="cls-12" transform="translate(216.86 253.32)">RM</text><text class="cls-16" transform="translate(37.54 251.32)">PP&amp;E</text><text class="cls-13" transform="translate(36.15 259.43)">Plant, Property<tspan x="2.37" y="9.34">&amp; Equipment</tspan></text><text class="cls-13" transform="translate(129.73 296.25)">Spending<tspan x="5.46" y="9.34">Chain</tspan></text><text class="cls-16" transform="translate(133.49 284.77)">SC</text><text class="cls-12" transform="translate(136.08 44.01)">FI</text><text class="cls-13" transform="translate(129.84 56.72)">Financials</text></g></svg>