<?xml version="1.0" encoding="utf-8"?>
<!-- Generator: Adobe Illustrator 25.4.1, SVG Export Plug-In . SVG Version: 6.00 Build 0)  -->
<svg version="1.1" id="Layer_1" xmlns="http://www.w3.org/2000/svg" xmlns:xlink="http://www.w3.org/1999/xlink" x="0px" y="0px"
	 viewBox="0 0 406.6 338.9" style="enable-background:new 0 0 406.6 338.9;" xml:space="preserve">
<style type="text/css">
	.st0{fill:#E03838;}
	.st1{fill:#EFEFED;}
	.st2{fill:#4D99CE;}
	.st3{fill:#D8D8D8;}
	.st4{fill:#346C84;}
	.st5{fill:#4389AF;}
	.st6{fill:#44443F;}
	.st7{fill:#353533;}
	.st8{fill:#A32828;}
	.st9{fill:#3F81A5;}
	.st10{fill:#C43030;}
	.st11{fill:#C13434;}
	.st12{fill:#EF9F20;}
	.st13{fill:#754725;}
</style>
<circle class="st0" cx="170.2" cy="169.6" r="42.8"/>
<g>
	<g>
		<g>
			<circle class="st1" cx="173.6" cy="169.1" r="122"/>
			<circle class="st2" cx="171.3" cy="169.6" r="83.5"/>
			<path class="st3" d="M232.5,240.8l13.3,16.6c21.8-18.8,36.5-45.6,39.6-75.9l-21.2-2C261.7,203.8,250,225.4,232.5,240.8z"/>
			<path class="st4" d="M267.7,174.7l-19.2-1.8c-2.5,24.2-14.1,45.5-31.3,60.9l12.1,15C250.4,230.2,264.5,204.1,267.7,174.7z"/>
			<path class="st3" d="M228.3,244.8l15,18.7c24.6-21.2,41.2-51.5,44.7-85.7l-23.9-2.3C261.3,203,248.1,227.4,228.3,244.8z"/>
			<path class="st5" d="M206.5,212.6l15.4,19.1c15.9-14.3,26.7-34.1,29.1-56.6l-24.4-2.4C224.8,188.4,217.3,202.3,206.5,212.6z"/>
			<path class="st6" d="M169.9,285.7c-64.2,0-116.2-52-116.2-116.2s52-116.2,116.2-116.2s116.2,52,116.2,116.2c0,4.1-0.1,8.1-0.5,12
				l23.1,2.2c0.5-4.7,0.7-9.4,0.7-14.2c0-77-62.5-139.5-139.5-139.5S30.4,92.4,30.4,169.4s62.5,139.5,139.5,139.5
				c34.6,0,66.2-12.6,90.6-33.4l-14.6-18.1C225.5,275,198.9,285.7,169.9,285.7z"/>
			<path class="st6" d="M169.9,285.7c-64.2,0-116.2-52-116.2-116.2s52-116.2,116.2-116.2s116.2,52,116.2,116.2c0,4.1,0,9.4-0.4,13.3
				l22.3,4.1c0.5-4.7,1.3-12.6,1.3-17.4c0-77-62.5-139.5-139.5-139.5S30.4,92.4,30.4,169.4s62.5,139.5,139.5,139.5
				c34.6,0,68.2-14.4,92.6-35.2l-14-18.4C228.1,272.9,198.9,285.7,169.9,285.7z"/>
			<path class="st1" d="M169.9,53.2c-64.2,0-116.2,52-116.2,116.2s52,116.2,116.2,116.2c29.1,0,55.6-10.7,76-28.3l-13.3-16.6
				c-16.7,14.7-38.6,23.6-62.7,23.6c-52.4,0-95-42.5-95-95c0-52.4,42.5-95,95-95c52.4,0,95,42.5,95,95c0,3.4-0.4,6.9-0.7,10.2
				l21.4,1.8c0.4-4,0.6-8,0.6-12C286.1,105.3,234.1,53.2,169.9,53.2z"/>
			<path class="st7" d="M308.7,183.7l-23.1-2.4c-3.1,30.2-17.9,57.2-39.7,76.1l14.6,18.1C287,252.8,304.9,220.3,308.7,183.7z"/>
			<path class="st8" d="M228.2,174.2l-19.3-1.8c-1.2,10.2-5.9,19.3-12.8,26.2l12.2,15.2C219.1,203.7,226.4,189.9,228.2,174.2z"/>
			<path class="st9" d="M169.9,248.5c-43.6,0-79-35.4-79-79s35.4-79,79-79s79,35.4,79,79c0,2.9-0.2,5.7-0.5,8.5l15.9,1.5
				c0.3-3.3,0.5-6.6,0.5-10c0-52.4-42.5-95-95-95c-52.4,0-95,42.5-95,95c0,52.4,42.5,95,95,95c24,0,45.9-8.9,62.7-23.6l-10-12.4
				C208.6,240.8,190.1,248.5,169.9,248.5z"/>
			<path class="st4" d="M264.3,179.5l-15.9-1.5c-2.1,20-11.7,37.7-25.9,50.4l10,12.4C250,225.4,261.7,203.8,264.3,179.5z"/>
			<path class="st5" d="M208.9,211.4l13.7,17c14.2-12.7,23.8-30.4,25.9-50.4l-21.7-2.1C225.2,189.9,218.6,202.3,208.9,211.4z"/>
			<path class="st2" d="M169.9,90.4c-43.6,0-79,35.4-79,79s35.4,79,79,79c20.2,0,38.7-7.6,52.7-20.1l-13.7-17
				c-10.2,9.5-23.9,15.3-39,15.3c-31.6,0-57.3-25.6-57.3-57.3c0-31.6,25.6-57.3,57.3-57.3c31.6,0,57.3,25.6,57.3,57.3
				c0,2.2-0.1,4.4-0.4,6.5l21.7,2.1c0.3-2.8,0.5-5.6,0.5-8.5C248.9,125.8,213.5,90.4,169.9,90.4z"/>
			<circle class="st0" cx="168.8" cy="165.4" r="48.4"/>
			<path class="st8" d="M226.8,175.9l-17.3-1.6c-1.1,9.1-5.3,17.3-11.5,23.5l10.9,13.6C218.6,202.3,225.2,189.9,226.8,175.9z"/>
			<path class="st10" d="M169.9,209.3c-22,0-39.9-17.8-39.9-39.9s17.8-39.9,39.9-39.9s39.9,17.8,39.9,39.9c0,1.6-0.1,3.3-0.3,4.8
				l17.3,1.6c0.2-2.1,0.4-4.3,0.4-6.5c0-31.6-25.6-57.3-57.3-57.3c-31.6,0-57.3,25.6-57.3,57.3c0,31.6,25.6,57.3,57.3,57.3
				c15.1,0,28.8-5.8,39-15.3L198,197.7C190.7,204.9,180.8,209.3,169.9,209.3z"/>
			<path class="st11" d="M197.9,197.8c6.2-6.2,10.4-14.3,11.5-23.5l-32.9-3.1L197.9,197.8z"/>
			<path class="st0" d="M169.9,129.6c-22,0-39.9,17.8-39.9,39.9s17.8,39.9,39.9,39.9c10.9,0,20.8-4.4,28.1-11.5l-21.4-26.6l32.9,3.1
				c0.2-1.6,0.3-3.2,0.3-4.8C209.7,147.4,191.9,129.6,169.9,129.6z"/>
		</g>
		<circle class="st12" cx="169.9" cy="169.4" r="20.3"/>
	</g>
	<path class="st0" d="M368.6,107.9c-14.5,4-29.2,9.8-43.7,13.8c-1.6,0.4-2.5,1.6-4.2,1.2c-1.2-3.4-2.6-9.2-4.1-12.5
		c-1.2-2.7-0.7-4.1,2-5.3c13.5-6.2,27-12.4,40.5-18.8c2.5-1.2,3.4-0.6,4,2C364.8,94.9,366.8,101.4,368.6,107.9z"/>
	<path class="st0" d="M375.9,138.5c0.8,2.6,0.3,3.5-2.5,3.7c-14.9,1.1-29.7,2.3-44.5,3.6c-2.9,0.3-4.1-0.7-4.4-3.6
		c-0.3-3.6-2-9.3-2.6-12.9c1.3-1.2,2.7-0.6,4.3-1c14.6-3.7,30.2-5.9,44.8-9.6C372.7,125.3,374.2,131.9,375.9,138.5z"/>
	<path class="st13" d="M175.2,171.3c-2.8,0.5-5-0.1-5.8-3.1s1-4.1,3.6-4.9c5.2-1.5,181.2-51.4,195.7-55.4c7.2,1.8,8.3,6.9,2.7,11.4
		C371.4,119.3,180.7,170.3,175.2,171.3z"/>
</g>
</svg>
