<svg xmlns="http://www.w3.org/2000/svg" viewBox="0 0 962.58 724.83"><defs><style>.a{fill:#333;}.b{fill:#e0ae0c;}</style></defs><path class="a" d="M245.84,106.42h-.06a24.85,24.85,0,0,0-17.68,7.32,25.13,25.13,0,0,0-7.42,17.92V510.1a25.32,25.32,0,0,0,25.26,25.24c58.75.14,157.18,12.38,225.07,83.43v-396a24.13,24.13,0,0,0-3.47-12.78c-55.73-89.75-162.82-103.38-221.7-103.52Zm0,0"/><path class="a" d="M745.44,510.1V131.66A25.14,25.14,0,0,0,738,113.74a24.86,24.86,0,0,0-17.69-7.32h-.05c-58.87.14-166,13.77-221.69,103.52a24.13,24.13,0,0,0-3.47,12.78v396c67.89-71,166.31-83.28,225.07-83.42a25.35,25.35,0,0,0,25.26-25.24Zm0,0"/><path class="b" d="M256.41,93.79h-.06a24.9,24.9,0,0,0-17.69,7.33A25.17,25.17,0,0,0,231.24,119V497.48a25.31,25.31,0,0,0,25.27,25.23c58.74.14,157.17,12.39,225.06,83.44v-396a24.12,24.12,0,0,0-3.46-12.78c-56-90.17-163.75-103.39-221.7-103.53Zm0,0"/><path class="b" d="M734.87,497.49V119a25.13,25.13,0,0,0-7.43-17.91,24.84,24.84,0,0,0-17.68-7.33h-.06c-58.87.14-166,13.77-221.69,103.52a24.13,24.13,0,0,0-3.47,12.78v396c67.89-71,166.32-83.29,225.07-83.43a25.34,25.34,0,0,0,25.26-25.23Zm0,0"/><path class="b" d="M818.35,179.48h-18.3V495.89a64.57,64.57,0,0,1-64.36,64.41C685.86,560.42,573.46,576,515.28,631c100.63-24.64,237-14.42,297.42-.63a25.24,25.24,0,0,0,30.88-24.6V204.71a25.25,25.25,0,0,0-25.23-25.23Zm0,0"/><path class="b" d="M162.53,495.89V179.48h-18.3A25.25,25.25,0,0,0,119,204.71V605.79a25.24,25.24,0,0,0,30.88,24.6c60.46-13.78,209.85-24,310.48.64C402.18,576,276.72,560.42,226.89,560.3a64.56,64.56,0,0,1-64.36-64.41Zm0,0"/><path class="a" d="M345.84,206.85,312.2,176.94l-33.64,15.61V94.48s25.17,1.54,38.16,4.26c4.07.85,8.47,1.47,12.53,2.33,9,1.93,16.59,3.9,16.59,3.9Z"/></svg>