<svg id="Layer_1" data-name="Layer 1" xmlns="http://www.w3.org/2000/svg" xmlns:xlink="http://www.w3.org/1999/xlink" viewBox="0 0 301.03 301.02"><defs><style>.cls-1{fill:none;}.cls-2{fill:#97d8e7;}.cls-3{fill:#cccbca;}.cls-4{fill:#e6e5e5;}.cls-5{fill:#353f49;}.cls-6{fill:#fff;}.cls-7{fill:#ff916e;}.cls-8{fill:#f77b55;}.cls-9{fill:#ee643c;}.cls-10{fill:#474f59;}.cls-11{clip-path:url(#clip-path);}.cls-12{fill:#656a73;}</style><clipPath id="clip-path"><path class="cls-1" d="M224.89,165.69a23.22,23.22,0,1,1-23.21-23.23,23.21,23.21,0,0,1,23.21,23.23Z"/></clipPath></defs><rect class="cls-2" x="3.03" y="3.02" width="294.98" height="294.98"/><circle class="cls-2" cx="150.51" cy="150.51" r="95.87"/><polygon class="cls-3" points="187.62 230.08 142.42 230.08 144.88 208.39 185.18 208.39 187.62 230.08"/><path class="cls-4" d="M196.66,232.6H133.38v-1.07a1.43,1.43,0,0,1,1.44-1.45h60.47a1.45,1.45,0,0,1,1,.42,1.46,1.46,0,0,1,.43,1Z"/><path class="cls-4" d="M246.38,204.77a3.63,3.63,0,0,1-3.61,3.62H87.27a3.63,3.63,0,0,1-3.61-3.62V193.92H246.38Z"/><path class="cls-5" d="M246.38,89.73a3.59,3.59,0,0,0-3.58-3.61H87.27a3.6,3.6,0,0,0-3.61,3.58V193.92H246.38Z"/><rect class="cls-6" x="91.8" y="94.25" width="146.44" height="91.52"/><rect class="cls-7" x="102.2" y="162.08" width="10.47" height="15.12"/><rect class="cls-8" x="112.67" y="135.96" width="10.47" height="41.25"/><rect class="cls-9" x="123.14" y="149.7" width="10.47" height="27.49"/><rect class="cls-7" x="133.61" y="143.74" width="10.47" height="33.45"/><rect class="cls-8" x="144.08" y="154.51" width="10.47" height="22.68"/><rect class="cls-9" x="154.56" y="127.24" width="10.47" height="49.95"/><rect class="cls-7" x="165.03" y="144.66" width="10.47" height="32.54"/><rect class="cls-8" x="175.48" y="147.86" width="10.49" height="29.34"/><rect class="cls-9" x="185.97" y="135.96" width="10.47" height="41.25"/><rect class="cls-7" x="196.44" y="122.65" width="10.47" height="54.54"/><rect class="cls-8" x="206.91" y="116.69" width="10.47" height="60.5"/><rect class="cls-9" x="217.39" y="130.68" width="10.47" height="46.52"/><rect class="cls-9" x="154.56" y="104.97" width="5.71" height="5.71"/><rect class="cls-4" x="163.11" y="107.81" width="12.85" height="2.86"/><rect class="cls-7" x="180.5" y="104.97" width="5.71" height="5.71"/><rect class="cls-4" x="189.05" y="107.81" width="12.85" height="2.86"/><rect class="cls-8" x="206.44" y="104.97" width="5.71" height="5.71"/><rect class="cls-4" x="215" y="107.81" width="12.85" height="2.86"/><rect class="cls-5" x="102.2" y="100.2" width="41.89" height="10.47"/><rect class="cls-6" x="106.98" y="104.19" width="16.15" height="2.86"/><rect class="cls-4" x="102.2" y="113.52" width="41.89" height="2.85"/><rect class="cls-4" x="102.2" y="119.23" width="20.94" height="2.85"/><rect class="cls-10" x="198.18" y="194.07" width="6.98" height="8.51"/><path class="cls-5" d="M230.7,165.69a29,29,0,1,1-29-29h0A29,29,0,0,1,230.7,165.69Z"/><path class="cls-6" d="M224.89,165.69a23.22,23.22,0,1,1-23.21-23.23,23.21,23.21,0,0,1,23.21,23.23Z"/><rect class="cls-10" x="196.18" y="208.39" width="11" height="24.22"/><rect class="cls-5" x="195.26" y="202.58" width="12.82" height="5.81"/><g class="cls-11"><rect class="cls-9" x="178.46" y="177.68" width="15.47" height="60.97"/><rect class="cls-7" x="193.94" y="158.03" width="15.47" height="80.62"/><rect class="cls-8" x="209.41" y="149.23" width="15.49" height="89.42"/></g><rect class="cls-5" x="54.65" y="148.42" width="58.02" height="84.2" rx="3.16"/><rect class="cls-10" x="79.06" y="225.94" width="9.2" height="3.16" rx="1.4"/><path class="cls-10" d="M83.66,154a1.48,1.48,0,1,1,1.47-1.47A1.47,1.47,0,0,1,83.66,154Z"/><path class="cls-5" d="M83.66,153.12a.61.61,0,1,1,.6-.6.6.6,0,0,1-.6.6Z"/><rect class="cls-6" x="57.94" y="156.63" width="51.44" height="65.78"/><rect class="cls-4" x="64.9" y="210.7" width="37.52" height="1.3"/><rect class="cls-3" x="64.9" y="204.86" width="37.52" height="4.56"/><rect class="cls-4" x="64.9" y="213.3" width="37.52" height="1.3"/><rect class="cls-4" x="64.9" y="215.88" width="18.76" height="1.3"/><path class="cls-4" d="M93.47,182.8a9.78,9.78,0,0,1-3,6.93l5,5a16.76,16.76,0,0,0,4.92-11.9Z"/><path class="cls-8" d="M90.59,189.74a9.8,9.8,0,1,1-10.69-16l-2.69-6.47a16.81,16.81,0,1,0,18.34,27.49Z"/><path class="cls-12" d="M83.66,173v-7a16.44,16.44,0,0,0-6.45,1.29l2.69,6.47A9.71,9.71,0,0,1,83.66,173Z"/><path class="cls-5" d="M83.66,173a9.81,9.81,0,0,1,9.81,9.81h7A16.8,16.8,0,0,0,83.69,166h0Z"/></svg>