<svg id="Layer_1" data-name="Layer 1" xmlns="http://www.w3.org/2000/svg" xmlns:xlink="http://www.w3.org/1999/xlink" viewBox="0 0 150 150"><defs><style>.cls-1{fill:#ba872b;}.cls-13,.cls-2{fill:none;}.cls-3{fill:#fcb715;}.cls-4{clip-path:url(#clip-path);}.cls-18,.cls-5{fill:#58bd79;}.cls-5{stroke:#fff;stroke-width:0.37px;}.cls-19,.cls-5{stroke-linejoin:bevel;}.cls-6{fill:#f16041;}.cls-7{fill:#165f58;}.cls-8{fill:#e2c68e;}.cls-9{fill:#f4dcb6;}.cls-10{fill:#fefefb;}.cls-11,.cls-19{fill:#fff;}.cls-12{clip-path:url(#clip-path-2);}.cls-13{stroke:#e2c68e;stroke-miterlimit:10;stroke-width:0.12px;}.cls-14{fill:#465b65;}.cls-15{fill:#a73132;}.cls-16{fill:#431210;}.cls-17{fill:#174548;}.cls-19{stroke:#2b6463;stroke-width:0.15px;}.cls-20{fill:#f8afa1;}.cls-21{fill:#5fa88e;}.cls-22{fill:#106a5c;}.cls-23{fill:#edc299;}.cls-24{fill:#f6d7aa;}.cls-25{fill:#fefdfc;}.cls-26{fill:#232e3f;}.cls-27{fill:#e6e7e8;}.cls-28{fill:#443f37;}.cls-29{fill:#5bbe7b;}.cls-30{fill:#7f9392;}.cls-31{fill:#e87e04;}.cls-32{fill:#0a7a6b;}.cls-33{fill:#e35c64;}.cls-34{fill:#fabf37;}.cls-35{fill:#468875;}.cls-36{fill:#fefaf9;}.cls-37{fill:#18353b;}.cls-38{fill:#d34f45;}.cls-39{fill:#96a4a6;}.cls-40{fill:#ce4628;}.cls-41{fill:#e45332;}</style><clipPath id="clip-path"><rect class="cls-1" x="89.33" y="59.42" width="6" height="3.51"/></clipPath><clipPath id="clip-path-2"><rect class="cls-2" x="90.37" y="58.26" width="6" height="3.51"/></clipPath></defs><circle class="cls-3" cx="99.1" cy="61.87" r="13.02"/><path class="cls-1" d="M97.6,59.86h0a7.47,7.47,0,0,1-3.14-.69,7.45,7.45,0,0,0-.78,3.33H97.6Z"/><path class="cls-1" d="M94.43,59.17a7.42,7.42,0,0,1-2.34-1.69,7.52,7.52,0,0,0-2,5h3.59A7.45,7.45,0,0,1,94.43,59.17Z"/><path class="cls-1" d="M97.6,59.86V62.5h3.93a7.67,7.67,0,0,0-.79-3.34A7.33,7.33,0,0,1,97.6,59.86Z"/><path class="cls-1" d="M100.74,59.16a7.67,7.67,0,0,1,.79,3.34h3.56a7.52,7.52,0,0,0-2-5A7.47,7.47,0,0,1,100.74,59.16Z"/><path class="cls-1" d="M93.65,62.5a7.9,7.9,0,0,0,.76,3.32,7.42,7.42,0,0,1,3.16-.7h0V62.5Z"/><path class="cls-1" d="M94.41,65.82a7.9,7.9,0,0,1-.76-3.32H90.06v.12a7.49,7.49,0,0,0,1.91,5A7.51,7.51,0,0,1,94.41,65.82Z"/><path class="cls-1" d="M97.6,65.12a7.58,7.58,0,0,1,3.16.71,7.92,7.92,0,0,0,.77-3.33H97.6Z"/><path class="cls-1" d="M105.09,62.5h-3.56a7.92,7.92,0,0,1-.77,3.33,7.65,7.65,0,0,1,2.41,1.8,7.5,7.5,0,0,0,1.92-5Z"/><path class="cls-1" d="M97.57,65.12a7.42,7.42,0,0,0-3.16.7,14.58,14.58,0,0,0,3.16,4.31,14.58,14.58,0,0,1-3.16-4.31A7.51,7.51,0,0,0,92,67.63a7.53,7.53,0,0,0,5.6,2.5h0v-5Z"/><path class="cls-1" d="M100.76,65.83a14.55,14.55,0,0,1-3.16,4.3,7.49,7.49,0,0,0,5.57-2.5A7.65,7.65,0,0,0,100.76,65.83Z"/><path class="cls-1" d="M97.6,65.12v5a14.55,14.55,0,0,0,3.16-4.3A7.58,7.58,0,0,0,97.6,65.12Z"/><path class="cls-1" d="M100.74,59.16A13.63,13.63,0,0,0,97.6,55.1v4.76A7.33,7.33,0,0,0,100.74,59.16Z"/><path class="cls-1" d="M100.74,59.16a7.47,7.47,0,0,0,2.32-1.68A7.51,7.51,0,0,0,97.6,55.1,13.63,13.63,0,0,1,100.74,59.16Z"/><path class="cls-1" d="M94.43,59.17a13.66,13.66,0,0,1,3.14-4.07,13.66,13.66,0,0,0-3.14,4.07,7.47,7.47,0,0,0,3.14.69h0V55.1h0a7.5,7.5,0,0,0-5.48,2.38A7.42,7.42,0,0,0,94.43,59.17Z"/><rect class="cls-1" x="103.53" y="66.44" width="1.74" height="4.59" transform="translate(-16.61 100.05) rotate(-47.87)"/><rect class="cls-1" x="101.73" y="66.14" width="0.98" height="1.26" transform="translate(-15.87 97.78) rotate(-47.87)"/><circle class="cls-1" cx="99.8" cy="64.42" r="3.03"/><path class="cls-1" d="M99.11,62.47a2.19,2.19,0,0,1,0-.36,2.4,2.4,0,1,0,3,2.67,2.41,2.41,0,0,1-3.06-2.31Z"/><path class="cls-1" d="M99.8,62a2.39,2.39,0,0,0-.66.09,2.19,2.19,0,0,0,0,.36,2.41,2.41,0,0,0,3.06,2.31,2.19,2.19,0,0,0,0-.36A2.39,2.39,0,0,0,99.8,62Z"/><ellipse class="cls-1" cx="100.28" cy="62.92" rx="0.39" ry="0.54"/><polygon class="cls-1" points="95.33 59.42 92.33 56.94 89.33 59.42 89.33 62.93 95.33 62.93 95.33 59.42"/><polygon class="cls-1" points="92.33 61.32 89.32 59.42 95.32 59.42 92.33 61.32"/><rect class="cls-1" x="89.33" y="59.42" width="6" height="3.51"/><g class="cls-4"><line class="cls-1" x1="92.33" y1="61.26" x2="89.33" y2="62.93"/><line class="cls-1" x1="95.33" y1="62.93" x2="92.33" y2="61.26"/></g><path class="cls-5" d="M98.64,58.7h0A7.47,7.47,0,0,1,95.47,58a7.45,7.45,0,0,0-.78,3.33h4Z"/><path class="cls-5" d="M95.47,58a7.42,7.42,0,0,1-2.34-1.69,7.52,7.52,0,0,0-2,5h3.59A7.45,7.45,0,0,1,95.47,58Z"/><path class="cls-5" d="M98.64,58.7v2.64h3.93a7.67,7.67,0,0,0-.79-3.34A7.33,7.33,0,0,1,98.64,58.7Z"/><path class="cls-5" d="M101.78,58a7.67,7.67,0,0,1,.79,3.34h3.56a7.52,7.52,0,0,0-2-5A7.47,7.47,0,0,1,101.78,58Z"/><path class="cls-5" d="M94.69,61.34a7.9,7.9,0,0,0,.76,3.32,7.42,7.42,0,0,1,3.16-.7h0V61.34Z"/><path class="cls-5" d="M95.45,64.66a7.9,7.9,0,0,1-.76-3.32H91.1v.12a7.49,7.49,0,0,0,1.91,5A7.65,7.65,0,0,1,95.45,64.66Z"/><path class="cls-5" d="M98.64,64a7.58,7.58,0,0,1,3.16.71,7.92,7.92,0,0,0,.77-3.33H98.64Z"/><path class="cls-5" d="M106.13,61.34h-3.56a7.92,7.92,0,0,1-.77,3.33,7.65,7.65,0,0,1,2.41,1.8,7.5,7.5,0,0,0,1.92-5Z"/><path class="cls-5" d="M98.61,64a7.42,7.42,0,0,0-3.16.7A14.58,14.58,0,0,0,98.61,69a14.58,14.58,0,0,1-3.16-4.31A7.65,7.65,0,0,0,93,66.47a7.53,7.53,0,0,0,5.6,2.5h0V64Z"/><path class="cls-5" d="M101.8,64.67A14.55,14.55,0,0,1,98.64,69a7.49,7.49,0,0,0,5.57-2.5A7.65,7.65,0,0,0,101.8,64.67Z"/><path class="cls-5" d="M98.64,64v5a14.55,14.55,0,0,0,3.16-4.3A7.58,7.58,0,0,0,98.64,64Z"/><path class="cls-5" d="M101.78,58a13.63,13.63,0,0,0-3.14-4.06V58.7A7.33,7.33,0,0,0,101.78,58Z"/><path class="cls-5" d="M101.78,58a7.47,7.47,0,0,0,2.32-1.68,7.51,7.51,0,0,0-5.46-2.38A13.63,13.63,0,0,1,101.78,58Z"/><path class="cls-5" d="M95.47,58a13.66,13.66,0,0,1,3.14-4.07A13.66,13.66,0,0,0,95.47,58a7.47,7.47,0,0,0,3.14.69h0V53.94h0a7.5,7.5,0,0,0-5.48,2.38A7.42,7.42,0,0,0,95.47,58Z"/><rect class="cls-6" x="104.57" y="65.28" width="1.74" height="4.59" transform="translate(-15.41 100.44) rotate(-47.87)"/><rect class="cls-7" x="102.77" y="64.98" width="0.98" height="1.26" transform="translate(-14.67 98.17) rotate(-47.87)"/><circle class="cls-7" cx="100.84" cy="63.26" r="3.03"/><path class="cls-8" d="M100.15,61.31a2.19,2.19,0,0,1,0-.36,2.4,2.4,0,1,0,3,2.67,2.41,2.41,0,0,1-3.06-2.31Z"/><path class="cls-9" d="M100.84,60.86a2.39,2.39,0,0,0-.66.09,2.19,2.19,0,0,0,0,.36,2.41,2.41,0,0,0,3.06,2.31,2.19,2.19,0,0,0,0-.36A2.39,2.39,0,0,0,100.84,60.86Z"/><ellipse class="cls-10" cx="101.32" cy="61.76" rx="0.39" ry="0.54"/><polygon class="cls-11" points="96.37 58.26 93.37 55.78 90.37 58.26 90.37 61.77 96.37 61.77 96.37 58.26"/><polygon class="cls-8" points="93.37 60.16 90.36 58.26 96.36 58.26 93.37 60.16"/><g class="cls-12"><line class="cls-13" x1="93.37" y1="60.1" x2="90.37" y2="61.77"/><line class="cls-13" x1="96.37" y1="61.77" x2="93.37" y2="60.1"/></g><polygon class="cls-14" points="57.36 94.67 2.52 94.67 2.52 69.69 9.37 69.69 9.37 70.19 3.01 70.19 3.01 94.17 57.36 94.17 57.36 94.67"/><circle class="cls-15" cx="134.46" cy="68.32" r="13.02"/><rect class="cls-16" x="125.37" y="63.35" width="17.87" height="11.03" rx="0.72"/><rect class="cls-17" x="126.12" y="62.1" width="17.87" height="11.03" rx="0.72"/><rect class="cls-18" x="126.93" y="63.16" width="16.26" height="8.91"/><rect class="cls-6" x="127.53" y="63.7" width="15.06" height="1.26"/><rect class="cls-11" x="127.53" y="64.96" width="15.06" height="6.57"/><path class="cls-19" d="M139.2,67.36h0a2.09,2.09,0,0,1-.87-.19,2.07,2.07,0,0,0-.22.92h1.1Z"/><path class="cls-19" d="M138.32,67.17a1.9,1.9,0,0,1-.65-.47,2.11,2.11,0,0,0-.56,1.39h1A2.07,2.07,0,0,1,138.32,67.17Z"/><path class="cls-19" d="M139.2,67.36v.73h1.09a2,2,0,0,0-.22-.92A2.09,2.09,0,0,1,139.2,67.36Z"/><path class="cls-19" d="M140.07,67.17a2,2,0,0,1,.22.92h1a2.07,2.07,0,0,0-.57-1.39A2.17,2.17,0,0,1,140.07,67.17Z"/><path class="cls-19" d="M138.1,68.09a2.24,2.24,0,0,0,.21.93,2,2,0,0,1,.88-.2h0v-.73Z"/><path class="cls-19" d="M138.31,69a2.24,2.24,0,0,1-.21-.93h-1v0a2.09,2.09,0,0,0,.53,1.39A2.18,2.18,0,0,1,138.31,69Z"/><path class="cls-19" d="M139.2,68.82a2,2,0,0,1,.88.2,2.24,2.24,0,0,0,.21-.93H139.2Z"/><path class="cls-19" d="M141.28,68.09h-1a2.24,2.24,0,0,1-.21.93,2.18,2.18,0,0,1,.67.5,2.09,2.09,0,0,0,.53-1.39Z"/><path class="cls-19" d="M139.19,68.82a2,2,0,0,0-.88.2,4.28,4.28,0,0,0,.88,1.19,4.28,4.28,0,0,1-.88-1.19,2.18,2.18,0,0,0-.67.5,2.1,2.1,0,0,0,1.55.69h0V68.82Z"/><path class="cls-19" d="M140.08,69a4.28,4.28,0,0,1-.88,1.19,2.1,2.1,0,0,0,1.55-.69A2.18,2.18,0,0,0,140.08,69Z"/><path class="cls-19" d="M139.2,68.82v1.39a4.28,4.28,0,0,0,.88-1.19A2,2,0,0,0,139.2,68.82Z"/><path class="cls-19" d="M140.07,67.17A3.78,3.78,0,0,0,139.2,66v1.32A2.09,2.09,0,0,0,140.07,67.17Z"/><path class="cls-19" d="M140.07,67.17a2.17,2.17,0,0,0,.64-.47A2.06,2.06,0,0,0,139.2,66,3.78,3.78,0,0,1,140.07,67.17Z"/><path class="cls-19" d="M138.32,67.17a3.78,3.78,0,0,1,.87-1.13,3.78,3.78,0,0,0-.87,1.13,2.09,2.09,0,0,0,.87.19h0V66h0a2.1,2.1,0,0,0-1.52.66A1.9,1.9,0,0,0,138.32,67.17Z"/><rect class="cls-6" x="128.67" y="67.24" width="1.94" height="3.33"/><rect class="cls-3" x="131.24" y="66.44" width="1.94" height="4.13"/><rect class="cls-18" x="133.81" y="65.83" width="1.94" height="4.75"/><rect class="cls-20" x="128.07" y="63.91" width="4.77" height="0.42"/><circle class="cls-21" cx="23.12" cy="67.3" r="13.02"/><rect class="cls-22" x="17.51" y="61.3" width="9.25" height="7.2" rx="0.8"/><rect class="cls-22" x="17.91" y="62.03" width="8.47" height="5.72"/><rect class="cls-22" x="18.27" y="62.39" width="7.74" height="4.99"/><rect class="cls-22" x="18.59" y="62.76" width="0.9" height="0.9"/><rect class="cls-22" x="19.6" y="63.06" width="1.81" height="0.29"/><rect class="cls-22" x="18.59" y="63.89" width="0.9" height="0.9"/><rect class="cls-22" x="19.6" y="64.19" width="1.81" height="0.29"/><rect class="cls-22" x="18.59" y="65.02" width="0.9" height="0.9"/><rect class="cls-22" x="19.6" y="65.32" width="1.81" height="0.29"/><rect class="cls-22" x="18.59" y="66.15" width="0.9" height="0.9"/><rect class="cls-22" x="19.6" y="66.45" width="1.81" height="0.29"/><path class="cls-22" d="M23,62.81a1,1,0,0,0-1,.93.92.92,0,0,0,.55.81,3.34,3.34,0,0,1-.22.46h0a2.63,2.63,0,0,0,.68-.36h0a.93.93,0,1,0,0-1.85Z"/><rect class="cls-22" x="21.94" y="67.94" width="0.39" height="0.37"/><path class="cls-22" d="M17.91,67.39a.86.86,0,0,1-.12-.31l-1.4-.35-.17-1.06.47-1.1c.31-1.2-.39-1.24-.39-1.24h-.07l-.13.55s0,.06-.07,0l-.18,0s0,.1,0,.14l-.65,1.16a1.17,1.17,0,0,0-.1.41c0,.25-.31,2.48-.31,2.48a.81.81,0,0,0,.31.61L14.47,71l3.07,1.19.65-2.58c.35-.17.68-.41.73-.62l.07-.27A9.35,9.35,0,0,1,17.91,67.39Z"/><path class="cls-22" d="M16.23,63.33v0c-.22,0-.32.32-.39.57h0C15.92,63.64,16,63.34,16.23,63.33Z"/><path class="cls-22" d="M16.1,63.88l.13-.55c-.19,0-.31.31-.38.55l.18,0S16.1,63.88,16.1,63.88Z"/><rect class="cls-22" x="15.16" y="69.11" width="1.84" height="3.76" transform="translate(-55.85 59.83) rotate(-68.41)"/><rect class="cls-22" x="14.86" y="69.35" width="2.01" height="4.4" transform="translate(-56.51 59.98) rotate(-68.41)"/><path class="cls-22" d="M23.63,66.34Z"/><path class="cls-22" d="M29.91,67.19a1.31,1.31,0,0,0-.09-.8l-1.51-2a.49.49,0,0,0-.68,0l0,0a.51.51,0,0,0-.2.41l-.07-.09a.48.48,0,0,0-.68,0l0,0a.5.5,0,0,0-.2.41L26.37,65a.49.49,0,0,0-.68,0l0,0a.51.51,0,0,0-.2.38l-1.54-1.94a.47.47,0,0,0-.67,0l0,0a.48.48,0,0,0-.11.67L26,67.58l-.6-.26-.43-.56c-.8-1-1.23-.5-1.23-.5l0,0,.37.47s0,.06,0,.09l-.14.11.09.11a12.53,12.53,0,0,0,.79,1c.18.18,2.09,1.32,2.09,1.32a1.31,1.31,0,0,0,1,0l2,1.81,2-1.57ZM23.32,64l-.09-.11a.15.15,0,0,1,0-.09h0a.37.37,0,0,1,.14-.33l0,0a.33.33,0,0,1,.24-.08.21.21,0,0,1,.18.09l.09.1Z"/><path class="cls-22" d="M23.59,63.34a.33.33,0,0,0-.24.08l0,0a.37.37,0,0,0-.14.33h0a.15.15,0,0,0,0,.09l.09.11.54-.43-.09-.1A.21.21,0,0,0,23.59,63.34Z"/><path class="cls-22" d="M23.64,66.31a0,0,0,0,0,0,0s0,0,0,0Z"/><path class="cls-22" d="M23.63,66.34c-.08.17.09.43.25.64h0C23.73,66.77,23.56,66.5,23.63,66.34Z"/><path class="cls-22" d="M24,66.78l-.37-.47s0,0,0,0h0c-.07.16.1.43.25.64l.14-.11S24,66.78,24,66.78Z"/><rect class="cls-22" x="28.84" y="69.26" width="3.47" height="1.84" transform="translate(-39.62 39.64) rotate(-42.95)"/><rect class="cls-22" x="28.96" y="69.61" width="4.05" height="2.01" transform="translate(-39.81 40.04) rotate(-42.95)"/><path class="cls-23" d="M22.68,63.28l0,0a.53.53,0,0,0-.72-.15h0l-1,.69a.53.53,0,0,0-.13.13.5.5,0,0,0-.32-.25.41.41,0,0,0-.51.27s0,0,0,.06l-.73,2.9-2.07-.52L17,65.33l.46-1.09C17.74,63,17,63,17,63H17l-.14.54s0,.07-.06.05l-.18,0a1,1,0,0,0,0,.14l-.65,1.16a1.19,1.19,0,0,0-.11.41c0,.24-.3,2.48-.3,2.48a.78.78,0,0,0,.31.61l-.6,2.35,3.08,1.19.65-2.58c.35-.18.67-.41.73-.63l.14-1.26c.1.14.14-.45.3-.48l.93-.06c.26-.09.66.62.58.37v0a.53.53,0,0,0-.39-.41l.38-.09a.49.49,0,0,0,.31-.61v0a.53.53,0,0,0-.39-.4l.38-.09a.48.48,0,0,0,.3-.61v0a.51.51,0,0,0-.46-.4l.79-.53A.52.52,0,0,0,22.68,63.28Z"/><path class="cls-24" d="M17,63v0c-.22,0-.33.31-.39.57h0C16.66,63.3,16.78,63,17,63Z"/><path class="cls-24" d="M16.83,63.54,17,63c-.19,0-.31.3-.38.55l.18,0C16.82,63.61,16.83,63.54,16.83,63.54Z"/><rect class="cls-25" x="14.94" y="69.74" width="3.76" height="1.84" transform="translate(27.18 -1.23) rotate(21.59)"/><rect class="cls-26" x="14.4" y="70.21" width="4.4" height="2.01" transform="translate(27.37 -1.11) rotate(21.59)"/><rect class="cls-27" x="16.95" y="59.7" width="10.43" height="8.12" rx="0.8"/><rect class="cls-28" x="17.4" y="60.52" width="9.55" height="6.45"/><rect class="cls-11" x="17.63" y="60.7" width="9.1" height="6.1"/><rect class="cls-29" x="18.16" y="61.34" width="1.02" height="1.02"/><rect class="cls-30" x="19.3" y="61.68" width="2.04" height="0.33"/><rect class="cls-29" x="18.16" y="62.61" width="1.02" height="1.02"/><rect class="cls-30" x="19.3" y="62.96" width="2.04" height="0.33"/><rect class="cls-29" x="18.16" y="63.89" width="1.02" height="1.02"/><rect class="cls-30" x="19.3" y="64.23" width="2.04" height="0.33"/><rect class="cls-29" x="18.16" y="65.16" width="1.02" height="1.02"/><rect class="cls-30" x="19.3" y="65.51" width="2.04" height="0.33"/><path class="cls-31" d="M23.12,61.4a1.11,1.11,0,0,0-1.16,1,1,1,0,0,0,.62.93,4.29,4.29,0,0,1-.25.52h0a3.08,3.08,0,0,0,.76-.4h0a1.05,1.05,0,1,0,0-2.09Z"/><path class="cls-23" d="M24.36,66h0Z"/><path class="cls-23" d="M30.64,66.86a1.23,1.23,0,0,0-.09-.8l-1.5-2a.48.48,0,0,0-.68-.05l0,0a.48.48,0,0,0-.2.41l-.07-.09a.49.49,0,0,0-.68,0l0,0a.51.51,0,0,0-.19.42l-.07-.08a.47.47,0,0,0-.68,0l0,0a.54.54,0,0,0-.19.38L24.67,63A.49.49,0,0,0,24,63l0,0a.48.48,0,0,0-.11.67l2.83,3.57-.6-.26-.43-.56c-.8-1-1.24-.5-1.24-.5a.1.1,0,0,0,0,0l.38.47s0,0,0,.08l-.14.11.09.11a9.44,9.44,0,0,0,.78,1c.19.17,2.1,1.31,2.1,1.31a1.28,1.28,0,0,0,1,0l2,1.81,2-1.57Zm-6.59-3.23L24,63.52a.2.2,0,0,1,0-.09h0a.33.33,0,0,1,.14-.32l0,0a.33.33,0,0,1,.25-.08.25.25,0,0,1,.18.08l.08.11Z"/><path class="cls-24" d="M24.33,63a.33.33,0,0,0-.25.08l0,0a.33.33,0,0,0-.14.32h0a.2.2,0,0,0,0,.09l.08.11.54-.43-.08-.11A.25.25,0,0,0,24.33,63Z"/><path class="cls-24" d="M24.38,66a0,0,0,0,0,0,0v0Z"/><path class="cls-24" d="M24.36,66c-.07.17.1.43.26.63h0C24.47,66.44,24.3,66.17,24.36,66Z"/><path class="cls-24" d="M24.76,66.45,24.38,66v0h0c-.06.16.11.43.26.63l.14-.11S24.76,66.45,24.76,66.45Z"/><rect class="cls-25" x="29.58" y="68.93" width="3.47" height="1.84" transform="translate(-39.2 40.06) rotate(-42.95)"/><rect class="cls-26" x="29.7" y="69.28" width="4.05" height="2.01" transform="translate(-39.39 40.45) rotate(-42.95)"/><path class="cls-23" d="M15.67,68.21A1.82,1.82,0,0,0,16.83,68a1.23,1.23,0,0,0,.4-.76,2.27,2.27,0,0,0,0-.45,1.41,1.41,0,0,0,0-.21c0-.08-.07-.11-.11-.17a.42.42,0,0,1,0-.15L17,65.84,17,65.31l.46-1.09C17.74,63,17,63,17,63H17l-.14.54s0,.07-.06.06l-.18,0a1,1,0,0,0,0,.14l-.65,1.16a1.19,1.19,0,0,0-.11.41c0,.24-.3,2.48-.3,2.48A.8.8,0,0,0,15.67,68.21Z"/><rect class="cls-32" x="25.75" y="71.54" width="1.54" height="2.17"/><rect class="cls-32" x="23.45" y="70.16" width="1.54" height="3.55"/><rect class="cls-32" x="21.14" y="69.52" width="1.54" height="4.19"/><rect class="cls-32" x="18.83" y="71.54" width="1.54" height="2.17"/><rect class="cls-32" x="18.22" y="73.57" width="9.68" height="0.62"/><rect class="cls-18" x="26.95" y="71.01" width="1.54" height="2.17"/><rect class="cls-33" x="24.64" y="69.63" width="1.54" height="3.55"/><rect class="cls-34" x="22.34" y="68.99" width="1.54" height="4.19"/><rect class="cls-35" x="20.03" y="71.01" width="1.54" height="2.17"/><rect class="cls-36" x="19.42" y="73.04" width="9.68" height="0.62"/><polygon class="cls-14" points="134.59 99.41 81.36 99.41 81.36 99.03 134.21 99.03 134.21 82.18 134.59 82.18 134.59 99.41"/><polygon class="cls-14" points="118.75 82.73 68.16 82.73 68.16 82.35 118.37 82.35 118.37 61.97 113.16 61.97 113.16 61.59 118.75 61.59 118.75 82.73"/><path class="cls-37" d="M42.47,71.62H78.8a2.14,2.14,0,0,1,2.14,2.14V96.58a0,0,0,0,1,0,0H40.32a0,0,0,0,1,0,0V73.76A2.14,2.14,0,0,1,42.47,71.62Z"/><rect class="cls-11" x="42.24" y="73.6" width="36.78" height="20.34"/><rect class="cls-38" x="66.15" y="78.4" width="10.11" height="14.1"/><rect class="cls-34" x="43.44" y="74.68" width="34.32" height="3.06"/><rect class="cls-11" x="44.9" y="75.96" width="9.74" height="0.56"/><ellipse class="cls-11" cx="76.36" cy="76.18" rx="0.8" ry="0.76"/><rect class="cls-39" x="44.76" y="78.43" width="9.9" height="0.53"/><rect class="cls-39" x="44.76" y="79.54" width="9.9" height="0.53"/><rect class="cls-39" x="44.76" y="80.65" width="9.9" height="0.53"/><rect class="cls-39" x="44.76" y="81.76" width="9.9" height="0.53"/><rect class="cls-39" x="44.76" y="82.87" width="9.9" height="0.53"/><rect class="cls-39" x="55.47" y="78.43" width="9.9" height="0.53"/><rect class="cls-39" x="55.47" y="79.54" width="9.9" height="0.53"/><rect class="cls-39" x="55.47" y="80.65" width="9.9" height="0.53"/><rect class="cls-39" x="55.47" y="81.76" width="9.9" height="0.53"/><rect class="cls-39" x="55.47" y="82.87" width="9.9" height="0.53"/><rect class="cls-39" x="55.47" y="91.96" width="9.9" height="0.53"/><rect class="cls-39" x="44.76" y="83.98" width="9.9" height="0.53"/><rect class="cls-39" x="44.76" y="85.09" width="9.9" height="0.53"/><rect class="cls-39" x="44.76" y="86.2" width="9.9" height="0.53"/><rect class="cls-39" x="44.76" y="87.31" width="9.9" height="0.53"/><rect class="cls-39" x="44.76" y="88.42" width="9.9" height="0.53"/><rect class="cls-34" x="44.76" y="89.9" width="9.9" height="2.6"/><path class="cls-40" d="M63.17,87.68c0-.07,0-.13,0-.19l.64-.12-.16-.84-.68.13a2.46,2.46,0,0,0-.69-1l.36-.55-.71-.48-.38.57a2.59,2.59,0,0,0-1-.2h-.17l-.13-.64-.84.16.13.67a2.63,2.63,0,0,0-1,.7L58,85.58l-.48.71.55.38a2.6,2.6,0,0,0-.2,1s0,.11,0,.17l-.62.12.16.84.65-.12a2.62,2.62,0,0,0,.71,1l-.36.53.71.48.38-.56a2.51,2.51,0,0,0,1,.2h.18l.12.63.84-.16-.12-.67a2.56,2.56,0,0,0,1-.7l.54.36.48-.71L63,88.67A2.54,2.54,0,0,0,63.17,87.68Zm-2.63,1.46A1.47,1.47,0,1,1,62,87.68,1.47,1.47,0,0,1,60.54,89.14Z"/><path class="cls-37" d="M35.64,97.24h50a0,0,0,0,1,0,0v1.68a2.24,2.24,0,0,1-2.24,2.24H37.88a2.24,2.24,0,0,1-2.24-2.24V97.24A0,0,0,0,1,35.64,97.24Z"/><circle class="cls-41" cx="60.63" cy="99.07" r="0.84"/></svg>