<svg id="Layer_1" data-name="Layer 1" xmlns="http://www.w3.org/2000/svg" viewBox="0 0 150 150"><defs><style>.cls-1{fill:#2373ba;}.cls-2{fill:#174d7d;}.cls-3{fill:#5e4467;}.cls-4{fill:#bcdfc0;}.cls-5{fill:#bb621d;}.cls-6{fill:#fff;}.cls-7{fill:#f0ecc5;}.cls-8{fill:#565a81;}</style></defs><path class="cls-1" d="M111.94,42l34.66,18A73.14,73.14,0,1,0,75,148.13h.55L29.19,101.57Z"/><path class="cls-2" d="M111.94,42,29.19,101.57l46.36,46.55A73.18,73.18,0,0,0,146.6,60.06Z"/><path class="cls-3" d="M36.44,40.66h78.49a4.16,4.16,0,0,1,4.16,4.16V93.6a0,0,0,0,1,0,0H32.27a0,0,0,0,1,0,0V44.82A4.16,4.16,0,0,1,36.44,40.66Z"/><rect class="cls-4" x="37.09" y="45.17" width="77.19" height="43.91"/><rect class="cls-5" x="37.09" y="76.87" width="3.59" height="12.22"/><rect class="cls-6" x="37.09" y="75.58" width="3.59" height="1.29"/><rect class="cls-5" x="43.22" y="80.64" width="3.59" height="8.45"/><rect class="cls-6" x="43.22" y="79.35" width="3.59" height="1.29"/><rect class="cls-5" x="49.36" y="81.11" width="3.59" height="7.98"/><rect class="cls-6" x="49.36" y="79.82" width="3.59" height="1.29"/><rect class="cls-5" x="55.49" y="77.81" width="3.59" height="11.27"/><rect class="cls-6" x="55.49" y="76.52" width="3.59" height="1.29"/><rect class="cls-5" x="61.62" y="71.22" width="3.59" height="17.87"/><rect class="cls-6" x="61.62" y="69.93" width="3.59" height="1.29"/><rect class="cls-5" x="67.75" y="65.1" width="3.59" height="23.99"/><rect class="cls-6" x="67.75" y="63.81" width="3.59" height="1.29"/><rect class="cls-5" x="73.89" y="70.75" width="3.59" height="18.34"/><rect class="cls-6" x="73.89" y="69.46" width="3.59" height="1.29"/><rect class="cls-5" x="80.02" y="78.76" width="3.59" height="10.33"/><rect class="cls-6" x="80.02" y="77.47" width="3.59" height="1.29"/><rect class="cls-5" x="86.15" y="82.52" width="3.59" height="6.56"/><rect class="cls-6" x="86.15" y="81.23" width="3.59" height="1.29"/><rect class="cls-5" x="92.29" y="76.87" width="3.59" height="12.22"/><rect class="cls-6" x="92.29" y="75.58" width="3.59" height="1.29"/><rect class="cls-5" x="98.42" y="79.23" width="3.59" height="9.86"/><rect class="cls-6" x="98.42" y="77.94" width="3.59" height="1.29"/><rect class="cls-5" x="104.55" y="76.4" width="3.59" height="12.69"/><rect class="cls-6" x="104.55" y="75.11" width="3.59" height="1.29"/><rect class="cls-5" x="110.69" y="58.03" width="3.59" height="31.06"/><rect class="cls-6" x="110.69" y="56.74" width="3.59" height="1.29"/><path class="cls-7" d="M75.77,93.79H25.36c1.08,4.16,6.23,8.6,10.54,8.59h79.56c4.32,0,9.47-4.43,10.54-8.59Z"/><rect class="cls-8" x="66.41" y="93.49" width="17.18" height="3.76"/></svg>