<?xml version="1.0" encoding="utf-8"?>
<!-- Generator: Adobe Illustrator 25.4.1, SVG Export Plug-In . SVG Version: 6.00 Build 0)  -->
<svg version="1.1" id="Layer_1" xmlns="http://www.w3.org/2000/svg" xmlns:xlink="http://www.w3.org/1999/xlink" x="0px" y="0px"
	 viewBox="0 0 151 151" style="enable-background:new 0 0 151 151;" xml:space="preserve">
<style type="text/css">
	.st0{fill:#565656;}
	.st1{fill:#494949;}
	.st2{fill:none;stroke:#4D4D4D;stroke-miterlimit:10;}
	.st3{fill:#F2F2F2;}
</style>
<path class="st0" d="M75.3,6.2l-8.1,2l0.3,134.3l7.8,1.8c38.2,0,69.1-30.9,69.1-69.1S113.5,6.2,75.3,6.2z"/>
<path class="st1" d="M6.2,75.3c0,38.2,30.9,69.1,69.1,69.1c0,0,0,0,0,0l0,0V6.2C37.1,6.2,6.2,37.1,6.2,75.3L6.2,75.3z"/>
<circle class="st2" cx="75.5" cy="75.5" r="75"/>
<path class="st3" d="M41.7,87.5c1.8,1.3,3.7,2.3,5.7,3.1l-1.3,3.1c-2.6-1-5.1-2.4-7.3-4.2c-2.5,1.4-5.4,2.1-8.3,2.1
	c-2.9,0-5.8-0.7-8.3-2.2c-2.5-1.5-4.5-3.6-5.8-6.2c-1.4-2.8-2.1-5.9-2-9c0-3.1,0.6-6.3,2-9.1c1.2-2.6,3.3-4.8,5.8-6.2
	c2.6-1.5,5.5-2.2,8.4-2.2c3,0,5.9,0.7,8.4,2.2c2.5,1.5,4.5,3.6,5.7,6.2c1.4,2.8,2,5.9,2,9c0,2.6-0.4,5.1-1.3,7.5
	C44.8,83.9,43.4,85.9,41.7,87.5z M31.9,81.8c2.3,0.6,4.5,1.7,6.4,3.2c2.6-2.4,3.9-6,3.9-10.8c0.1-2.5-0.4-4.9-1.4-7.2
	c-0.9-2-2.3-3.6-4.1-4.8c-4.6-2.8-10.5-2.1-14.3,1.7c-2.2,2.3-3.3,5.7-3.3,10.2c0,4.4,1.1,7.8,3.3,10.1c2.1,2.3,5.2,3.6,8.3,3.5
	c1.5,0,3.1-0.3,4.5-0.9c-1.4-0.9-2.8-1.5-4.4-1.9L31.9,81.8z"/>
<path class="st3" d="M84.7,87.1c-1.3,1.4-2.8,2.6-4.5,3.4c-1.6,0.8-3.4,1.2-5.2,1.2c-3.1,0.1-6.2-1.1-8.2-3.5
	c-1.6-1.7-2.5-4-2.5-6.4c0-2.1,0.7-4.1,2-5.7c1.6-1.9,3.7-3.4,6-4.4c-1.2-1.3-2.2-2.7-3.1-4.2c-0.5-1-0.7-2.1-0.8-3.2
	c0-2,0.9-3.9,2.4-5.3c1.6-1.5,3.8-2.3,6-2.2c2.1-0.1,4.1,0.7,5.7,2.1c1.4,1.3,2.2,3.2,2.2,5.1c0,3.2-2.1,5.9-6.4,8.2l6.1,7.7
	c0.7-1.5,1.3-3.1,1.6-4.7l4.3,0.9c-0.6,2.6-1.6,5-3,7.3c1.5,2,3.3,3.8,5.3,5.2l-2.8,3.3C87.9,90.5,86.2,88.9,84.7,87.1z M82.1,83.8
	l-7.6-9.4c-1.7,0.9-3.3,2.2-4.5,3.7c-0.7,1-1.2,2.2-1.2,3.4c0.1,1.6,0.7,3.1,1.6,4.3c1.1,1.5,2.8,2.3,4.6,2.2c1.4,0,2.7-0.4,3.8-1.2
	C80.2,86.1,81.3,85,82.1,83.8L82.1,83.8z M76.3,69.5c1.3-0.7,2.5-1.6,3.5-2.8c0.5-0.8,0.8-1.7,0.8-2.7c0-1-0.4-2.1-1.1-2.8
	c-0.7-0.7-1.7-1.1-2.7-1.1c-1,0-2.1,0.4-2.8,1.1c-0.7,0.7-1.1,1.6-1.1,2.6c0,0.6,0.1,1.1,0.4,1.7c0.3,0.7,0.7,1.3,1.2,1.8L76.3,69.5
	z"/>
<path class="st3" d="M104.2,91.1l13-33.8h4.8l13.8,33.8h-5.1l-3.9-10.2h-14.2l-3.7,10.2H104.2z M113.9,77.2h11.4l-3.5-9.3
	c-1.1-2.9-1.9-5.2-2.4-7c-0.4,2.2-1,4.3-1.8,6.4L113.9,77.2z"/>
</svg>
