<svg id="Layer_1" data-name="Layer 1" xmlns="http://www.w3.org/2000/svg" viewBox="0 0 150 150"><defs><style>.cls-1{fill:#5c97bf;}.cls-2{fill:#050505;opacity:0.1;}.cls-3{fill:#ededee;}.cls-4{fill:#c2c4c6;}.cls-5{fill:#8a8c8e;}.cls-6{fill:#3f3f3f;}.cls-7{fill:#fff;}.cls-8{fill:#4eb792;}.cls-9{fill:#232324;}.cls-10{fill:#cb7d52;}.cls-11{opacity:0.5;}.cls-12{fill:#03859d;}.cls-13{fill:#e6e7e8;}.cls-14{fill:#2d2d2d;}</style></defs><circle class="cls-1" cx="75" cy="75" r="73.5"/><path class="cls-1" d="M145,52.64a73.51,73.51,0,1,0-129.95,65l93.83-97.88Z"/><path class="cls-2" d="M108.92,19.71,15.09,117.59A73.53,73.53,0,0,0,145,52.64Z"/><polygon class="cls-3" points="105.96 64.13 93.31 109.43 120.55 117.03 131.84 110.89 142.08 74.22 105.96 64.13"/><polygon class="cls-4" points="123 108.43 120.59 117.05 131.88 110.91 123 108.43"/><rect class="cls-5" x="122.3" y="63.97" width="0.74" height="20.12" transform="translate(18.38 172.27) rotate(-74.4)"/><rect class="cls-5" x="121.54" y="61.03" width="0.74" height="31.41" transform="translate(15.22 173.52) rotate(-74.4)"/><rect class="cls-5" x="120.75" y="63.85" width="0.74" height="31.41" transform="translate(11.92 174.82) rotate(-74.4)"/><rect class="cls-5" x="119.97" y="66.67" width="0.74" height="31.41" transform="translate(8.63 176.12) rotate(-74.4)"/><rect class="cls-5" x="119.18" y="69.49" width="0.74" height="31.41" transform="translate(5.33 177.43) rotate(-74.4)"/><rect class="cls-5" x="118.39" y="72.31" width="0.74" height="31.41" transform="translate(2.04 178.73) rotate(-74.4)"/><rect class="cls-5" x="117.6" y="75.14" width="0.74" height="31.41" transform="translate(-1.25 180.04) rotate(-74.4)"/><rect class="cls-5" x="116.81" y="77.96" width="0.74" height="31.41" transform="translate(-4.55 181.34) rotate(-74.4)"/><rect class="cls-5" x="116.03" y="80.78" width="0.74" height="31.41" transform="translate(-7.84 182.65) rotate(-74.4)"/><rect class="cls-5" x="115.24" y="83.6" width="0.74" height="31.41" transform="translate(-11.13 183.95) rotate(-74.4)"/><rect class="cls-5" x="114.45" y="86.42" width="0.74" height="31.41" transform="translate(-14.43 185.25) rotate(-74.4)"/><rect class="cls-5" x="113.66" y="89.25" width="0.74" height="31.41" transform="translate(-17.72 186.56) rotate(-74.4)"/><rect class="cls-6" x="9.23" y="59.67" width="99.05" height="62.61" rx="5.38"/><path class="cls-6" d="M108.92,19.71H7.6a2.42,2.42,0,0,0-2.4,2.7l4,34a4.19,4.19,0,0,0,4.16,3.69h91a4.19,4.19,0,0,0,4.18-3.84l2.79-33.89A2.42,2.42,0,0,0,108.92,19.71Z"/><path class="cls-7" d="M106.57,22.29H9.82A2.38,2.38,0,0,0,7.46,25L11.14,55a4,4,0,0,0,4,3.51h87.07a4,4,0,0,0,4-3.64l2.76-30A2.37,2.37,0,0,0,106.57,22.29Z"/><rect class="cls-8" x="21.69" y="25.54" width="22.56" height="1.19"/><rect class="cls-9" x="21.69" y="29.41" width="22.56" height="1.19"/><rect class="cls-9" x="48.77" y="29.41" width="13.69" height="1.19"/><rect class="cls-9" x="25.32" y="32.21" width="22.93" height="1.19"/><rect class="cls-9" x="50.97" y="32.21" width="6.3" height="1.19"/><rect class="cls-8" x="48.53" y="25.54" width="7.41" height="1.19"/><ellipse class="cls-8" cx="78.89" cy="26.64" rx="1.92" ry="1.35"/><ellipse class="cls-10" cx="86.82" cy="26.64" rx="1.92" ry="1.35"/><ellipse class="cls-8" cx="94.75" cy="26.64" rx="1.92" ry="1.35"/><rect class="cls-8" x="21.45" y="37.16" width="7.83" height="19.51"/><rect class="cls-8" x="32.95" y="45.09" width="7.83" height="11.58"/><rect class="cls-8" x="44.45" y="39.59" width="7.83" height="17.08"/><rect class="cls-8" x="55.95" y="37.23" width="7.83" height="19.44"/><rect class="cls-8" x="67.45" y="43.3" width="7.83" height="13.37"/><rect class="cls-8" x="78.95" y="34.74" width="7.83" height="21.93"/><rect class="cls-8" x="90.45" y="32.46" width="7.83" height="24.21"/><g class="cls-11"><polygon class="cls-12" points="16.43 57.51 14.99 55.35 32.39 43.76 47.72 48.64 66.18 41.8 82.88 44.03 102.43 34.12 103.6 36.43 83.33 46.7 66.47 44.45 47.79 51.37 32.79 46.6 16.43 57.51"/></g><ellipse class="cls-12" cx="32.76" cy="45.54" rx="2.41" ry="1.87"/><ellipse class="cls-12" cx="67.51" cy="43.23" rx="2.41" ry="1.87"/><ellipse class="cls-12" cx="98.06" cy="37.53" rx="2.41" ry="1.87"/><rect class="cls-13" x="12.05" y="68.66" width="94.05" height="29.53" rx="4.9"/><rect class="cls-14" x="16.41" y="72.25" width="4.19" height="4.01"/><rect class="cls-14" x="23.21" y="72.25" width="4.19" height="4.01"/><rect class="cls-14" x="30.01" y="72.25" width="4.19" height="4.01"/><rect class="cls-14" x="36.81" y="72.25" width="4.19" height="4.01"/><rect class="cls-14" x="43.61" y="72.25" width="4.19" height="4.01"/><rect class="cls-14" x="50.41" y="72.25" width="4.19" height="4.01"/><rect class="cls-14" x="57.21" y="72.25" width="4.19" height="4.01"/><rect class="cls-14" x="64.01" y="72.25" width="4.19" height="4.01"/><rect class="cls-14" x="70.81" y="72.25" width="4.19" height="4.01"/><rect class="cls-14" x="77.61" y="72.25" width="4.19" height="4.01"/><rect class="cls-14" x="84.41" y="72.25" width="4.19" height="4.01"/><rect class="cls-14" x="91.21" y="72.25" width="4.19" height="4.01"/><rect class="cls-14" x="98.01" y="72.25" width="4.19" height="4.01"/><rect class="cls-14" x="16.41" y="78.42" width="4.19" height="4.01"/><rect class="cls-14" x="23.21" y="78.42" width="4.19" height="4.01"/><rect class="cls-14" x="30.01" y="78.42" width="4.19" height="4.01"/><rect class="cls-14" x="36.81" y="78.42" width="4.19" height="4.01"/><rect class="cls-14" x="43.61" y="78.42" width="4.19" height="4.01"/><rect class="cls-14" x="50.41" y="78.42" width="4.19" height="4.01"/><rect class="cls-14" x="57.21" y="78.42" width="4.19" height="4.01"/><rect class="cls-14" x="64.01" y="78.42" width="4.19" height="4.01"/><rect class="cls-14" x="70.81" y="78.42" width="4.19" height="4.01"/><rect class="cls-14" x="77.61" y="78.42" width="4.19" height="4.01"/><rect class="cls-14" x="84.41" y="78.42" width="4.19" height="4.01"/><rect class="cls-14" x="91.21" y="78.42" width="4.19" height="4.01"/><rect class="cls-14" x="16.41" y="84.58" width="4.19" height="4.01"/><rect class="cls-14" x="23.21" y="84.58" width="4.19" height="4.01"/><rect class="cls-14" x="30.01" y="84.58" width="4.19" height="4.01"/><rect class="cls-14" x="36.81" y="84.58" width="4.19" height="4.01"/><rect class="cls-14" x="43.61" y="84.58" width="4.19" height="4.01"/><rect class="cls-14" x="50.41" y="84.58" width="4.19" height="4.01"/><rect class="cls-14" x="57.21" y="84.58" width="4.19" height="4.01"/><rect class="cls-14" x="64.01" y="84.58" width="4.19" height="4.01"/><rect class="cls-14" x="70.81" y="84.58" width="4.19" height="4.01"/><rect class="cls-14" x="77.61" y="84.58" width="4.19" height="4.01"/><rect class="cls-14" x="84.41" y="84.58" width="4.19" height="4.01"/><rect class="cls-14" x="91.21" y="84.58" width="4.19" height="4.01"/><polygon class="cls-14" points="98.01 78.42 98.01 84.58 98.01 86.58 98.01 88.59 102.2 88.59 102.2 86.58 102.2 84.58 102.2 78.42 98.01 78.42"/><rect class="cls-14" x="16.41" y="90.74" width="4.19" height="4.01"/><rect class="cls-14" x="23.21" y="90.74" width="4.19" height="4.01"/><rect class="cls-14" x="30.01" y="90.74" width="4.19" height="4.01"/><rect class="cls-14" x="36.81" y="90.74" width="4.19" height="4.01"/><rect class="cls-14" x="43.61" y="90.74" width="4.19" height="4.01"/><polygon class="cls-14" points="75 90.74 70.81 90.74 68.2 90.74 64.01 90.74 61.4 90.74 57.21 90.74 54.6 90.74 53.51 90.74 50.41 90.74 50.41 94.75 53.51 94.75 54.6 94.75 57.21 94.75 61.4 94.75 64.01 94.75 68.2 94.75 70.81 94.75 75 94.75 81.8 94.75 81.8 90.74 75 90.74"/><rect class="cls-14" x="84.41" y="90.74" width="4.19" height="4.01"/><rect class="cls-14" x="91.21" y="90.74" width="4.19" height="4.01"/><rect class="cls-14" x="98.01" y="90.74" width="4.19" height="4.01"/><rect class="cls-13" x="16.62" y="62.05" width="83.28" height="4.22" rx="2.11"/><circle class="cls-7" cx="58.26" cy="64.16" r="1.48"/><rect class="cls-7" x="50.75" y="100.92" width="17.98" height="17.39" rx="2.26"/><path class="cls-13" d="M59.31,100.92H53a2.26,2.26,0,0,0-2.25,2.26v3.37h8.56Z"/><path class="cls-13" d="M68.73,106.55v-3.37a2.26,2.26,0,0,0-2.26-2.26H60.13v5.63Z"/><rect class="cls-7" x="59.31" y="100.92" width="0.82" height="5.63"/><path class="cls-7" d="M60.13,106.55v11.77h6.34a2.26,2.26,0,0,0,2.26-2.26v-9.51Z"/><path class="cls-7" d="M50.75,106.55v9.51A2.26,2.26,0,0,0,53,118.32h6.31V106.55Z"/><rect class="cls-7" x="59.31" y="106.55" width="0.82" height="11.77"/></svg>