<svg id="Layer_1" data-name="Layer 1" xmlns="http://www.w3.org/2000/svg" viewBox="0 0 150 150"><defs><style>.cls-1{fill:#7fccc5;}.cls-2{fill:#fff;}.cls-3{fill:#d2d1d0;}.cls-4{fill:#f3744c;}.cls-5{fill:#485362;}.cls-6{fill:#f26d41;}.cls-7{fill:#3f4a5a;}.cls-8{fill:#cccbca;}.cls-9{fill:#5f6b7a;}.cls-10{fill:#ccdbe9;}.cls-11{fill:#afd8e8;}.cls-12{fill:#ffcf83;}.cls-13{fill:#fffffd;}.cls-14{fill:#fee49b;}.cls-15{fill:#606776;}.cls-16{fill:#dfe1e3;}.cls-17{fill:#fbfcfc;}.cls-18{fill:#e64925;}.cls-19{fill:#e5e5e3;}.cls-20{fill:#f05626;}.cls-21{fill:#e6e6e7;}.cls-22{fill:#f9f9f9;}.cls-23{fill:#c8ccce;}.cls-24{fill:#171819;opacity:0.05;}.cls-25{fill:#000102;opacity:0.1;}.cls-26{fill:#cadce9;}</style></defs><rect class="cls-1" x="1" y="0.07" width="148.01" height="149.86"/><rect class="cls-2" x="59.04" y="10.84" width="39.83" height="35.5"/><rect class="cls-3" x="64.77" y="37.01" width="0.64" height="6.32"/><rect class="cls-3" x="65.82" y="35.52" width="0.64" height="7.81"/><rect class="cls-3" x="66.87" y="38.87" width="0.64" height="4.47"/><rect class="cls-3" x="67.91" y="37.74" width="0.64" height="5.59"/><rect class="cls-3" x="68.96" y="35.12" width="0.64" height="8.21"/><rect class="cls-3" x="70.01" y="36.29" width="0.64" height="7.04"/><rect class="cls-3" x="71.05" y="34.9" width="0.64" height="8.43"/><rect class="cls-4" x="71.05" y="31.89" width="0.64" height="3.22"/><rect class="cls-3" x="72.1" y="35.45" width="0.64" height="7.88"/><rect class="cls-4" x="72.1" y="32.63" width="0.64" height="3.13"/><rect class="cls-3" x="73.15" y="37.67" width="0.64" height="5.66"/><rect class="cls-3" x="74.2" y="39.78" width="0.64" height="3.55"/><rect class="cls-3" x="75.24" y="36.27" width="0.64" height="7.06"/><rect class="cls-3" x="76.29" y="35.11" width="0.64" height="8.22"/><rect class="cls-4" x="76.29" y="31.99" width="0.64" height="3.33"/><rect class="cls-3" x="77.34" y="35.47" width="0.64" height="7.86"/><rect class="cls-3" x="78.38" y="34.62" width="0.64" height="8.71"/><rect class="cls-4" x="78.38" y="30.51" width="0.64" height="4.56"/><rect class="cls-3" x="79.43" y="34.94" width="0.64" height="8.39"/><rect class="cls-4" x="79.43" y="31.42" width="0.64" height="4.28"/><rect class="cls-3" x="80.48" y="34.73" width="0.64" height="8.6"/><rect class="cls-4" x="80.48" y="32.27" width="0.64" height="3.58"/><rect class="cls-3" x="81.52" y="35.97" width="0.64" height="7.36"/><rect class="cls-3" x="82.57" y="38.14" width="0.64" height="5.19"/><rect class="cls-3" x="83.62" y="36.43" width="0.64" height="6.9"/><rect class="cls-3" x="84.66" y="37.3" width="0.64" height="6.03"/><rect class="cls-3" x="85.71" y="35.7" width="0.64" height="7.63"/><rect class="cls-3" x="86.76" y="36.3" width="0.64" height="7.03"/><rect class="cls-3" x="87.8" y="35.04" width="0.64" height="8.29"/><rect class="cls-4" x="87.8" y="32.27" width="0.64" height="3.65"/><rect class="cls-3" x="88.85" y="35.09" width="0.64" height="8.24"/><rect class="cls-3" x="89.9" y="39.23" width="0.64" height="4.1"/><rect class="cls-3" x="90.94" y="36.19" width="0.64" height="7.15"/><rect class="cls-3" x="91.99" y="37.1" width="0.64" height="6.23"/><rect class="cls-3" x="93.04" y="35.58" width="0.64" height="7.76"/><rect class="cls-5" x="63.2" y="44.17" width="31.31" height="0.38"/><rect class="cls-5" x="56.53" y="37.16" width="15.22" height="0.38" transform="translate(26.78 101.49) rotate(-90)"/><rect class="cls-5" x="63.23" y="43.46" width="0.85" height="0.33"/><rect class="cls-5" x="63.23" y="42.79" width="0.85" height="0.33"/><rect class="cls-5" x="63.23" y="42.11" width="0.85" height="0.33"/><rect class="cls-5" x="63.23" y="41.44" width="0.85" height="0.33"/><rect class="cls-5" x="63.23" y="40.76" width="0.85" height="0.33"/><rect class="cls-5" x="63.23" y="40.09" width="0.85" height="0.33"/><rect class="cls-5" x="63.23" y="39.41" width="0.85" height="0.33"/><rect class="cls-5" x="63.23" y="38.74" width="0.85" height="0.33"/><rect class="cls-5" x="63.23" y="38.06" width="0.85" height="0.33"/><rect class="cls-5" x="63.23" y="37.39" width="0.85" height="0.33"/><rect class="cls-5" x="63.23" y="36.72" width="0.85" height="0.33"/><rect class="cls-5" x="63.23" y="36.04" width="0.85" height="0.33"/><rect class="cls-5" x="63.23" y="35.37" width="0.85" height="0.33"/><rect class="cls-5" x="63.23" y="34.69" width="0.85" height="0.33"/><rect class="cls-5" x="63.23" y="34.02" width="0.85" height="0.33"/><rect class="cls-5" x="63.23" y="33.34" width="0.85" height="0.33"/><rect class="cls-5" x="63.23" y="32.67" width="0.85" height="0.33"/><rect class="cls-5" x="63.23" y="31.99" width="0.85" height="0.33"/><rect class="cls-5" x="63.23" y="31.32" width="0.85" height="0.33"/><rect class="cls-5" x="63.23" y="30.64" width="0.85" height="0.33"/><rect class="cls-5" x="63.23" y="29.97" width="0.85" height="0.33"/><rect class="cls-6" x="63.52" y="15.35" width="11.97" height="11.97"/><rect class="cls-7" x="77.67" y="15.35" width="16.85" height="1.07"/><rect class="cls-8" x="77.67" y="17.52" width="16.85" height="1.07"/><rect class="cls-8" x="77.67" y="19.7" width="16.85" height="1.07"/><rect class="cls-8" x="77.67" y="21.87" width="16.85" height="1.07"/><rect class="cls-8" x="77.67" y="24.05" width="16.85" height="1.07"/><rect class="cls-8" x="77.67" y="26.23" width="9.01" height="1.07"/><path class="cls-8" d="M58.72,4.83H92.09a0,0,0,0,1,0,0V11.3a0,0,0,0,1,0,0H52.25a0,0,0,0,1,0,0v0A6.48,6.48,0,0,1,58.72,4.83Z"/><path class="cls-2" d="M98.87,10.33a5.76,5.76,0,0,0-11.5,0A5.29,5.29,0,0,0,88,12.8H98.25A5.29,5.29,0,0,0,98.87,10.33Z"/><path class="cls-9" d="M17.1,45.39H133a3.73,3.73,0,0,1,3.73,3.73V121.2a0,0,0,0,1,0,0H13.29a0,0,0,0,1,0,0v-72A3.81,3.81,0,0,1,17.1,45.39Z"/><path class="cls-10" d="M94.08,141.57H55.73c.83-.23,3.57-.94,4.92-1.29a1.33,1.33,0,0,0,.94-.95c.45-1.84,1.5-6.57,1.08-9.42l24.86-.1a91.19,91.19,0,0,0,.77,9.4,1.22,1.22,0,0,0,.88,1C90.57,140.67,93.35,141.48,94.08,141.57Z"/><rect class="cls-2" x="18.15" y="50.59" width="113.32" height="63.36"/><rect class="cls-11" x="22.89" y="63.89" width="105.25" height="26.71"/><rect class="cls-12" x="30.65" y="67.24" width="30.53" height="9.08"/><rect class="cls-13" x="32.59" y="68.63" width="26.65" height="5.84"/><rect class="cls-12" x="32.31" y="65.39" width="8.85" height="2.6"/><rect class="cls-14" x="29.47" y="70.19" width="32.9" height="18.67"/><circle class="cls-2" cx="45.99" cy="79.41" r="6.42"/><path class="cls-15" d="M50.46,78.84h-.94a3.5,3.5,0,0,0-.2-.74l.81-.47a.27.27,0,0,0,.1-.37L50,76.78a.27.27,0,0,0-.37-.1l-.81.47a4,4,0,0,0-.55-.54l.46-.81a.28.28,0,0,0-.1-.38l-.47-.27a.28.28,0,0,0-.38.1l-.47.81a3.65,3.65,0,0,0-.74-.19v-.94a.28.28,0,0,0-.28-.27h-.55a.27.27,0,0,0-.27.27v.94a3.79,3.79,0,0,0-.75.21l-.46-.81a.28.28,0,0,0-.38-.1l-.47.27a.28.28,0,0,0-.1.38l.47.81a3.58,3.58,0,0,0-.55.55l-.81-.47a.28.28,0,0,0-.37.1l-.27.48a.26.26,0,0,0,.1.37l.81.47a3.18,3.18,0,0,0-.19.75h-.94a.27.27,0,0,0-.27.27v.55a.27.27,0,0,0,.27.28h.94a3.5,3.5,0,0,0,.2.74l-.81.47a.27.27,0,0,0-.1.37L42,82a.27.27,0,0,0,.37.1l.82-.47a3.13,3.13,0,0,0,.55.54l-.47.81a.28.28,0,0,0,.1.38l.48.27a.27.27,0,0,0,.37-.1l.47-.81a3.75,3.75,0,0,0,.75.19v.94a.27.27,0,0,0,.27.27h.55a.28.28,0,0,0,.28-.27V83a3.89,3.89,0,0,0,.74-.21l.47.81a.27.27,0,0,0,.37.1l.48-.27a.29.29,0,0,0,.1-.38l-.47-.81a3.51,3.51,0,0,0,.54-.55l.81.47A.27.27,0,0,0,50,82l.28-.48a.27.27,0,0,0-.1-.37l-.82-.47a3.77,3.77,0,0,0,.2-.75h.93a.28.28,0,0,0,.28-.27v-.55A.28.28,0,0,0,50.46,78.84Z"/><circle class="cls-16" cx="45.99" cy="79.41" r="1.76"/><circle class="cls-17" cx="45.99" cy="79.41" r="0.66"/><rect class="cls-18" x="101.81" y="66.84" width="2.02" height="2.02"/><rect class="cls-19" x="104.58" y="67.76" width="3.93" height="1.1"/><rect class="cls-6" x="109.9" y="66.84" width="2.02" height="2.02"/><rect class="cls-19" x="112.68" y="67.76" width="3.93" height="1.1"/><rect class="cls-20" x="117.99" y="66.84" width="2.02" height="2.02"/><rect class="cls-19" x="120.77" y="67.76" width="3.93" height="1.1"/><rect class="cls-9" x="85.18" y="65.08" width="13.64" height="3.55"/><rect class="cls-21" x="85.18" y="69.42" width="13.64" height="0.95"/><rect class="cls-21" x="85.18" y="71.27" width="6.85" height="0.95"/><rect class="cls-22" x="86.87" y="66.43" width="5.13" height="1.12"/><rect class="cls-23" x="22.89" y="54.87" width="36.54" height="4.16"/><rect class="cls-23" x="62.43" y="54.87" width="65.71" height="4.16"/><rect class="cls-6" x="85.29" y="84.43" width="3.31" height="4.93"/><rect class="cls-20" x="88.61" y="76.28" width="3.31" height="13.08"/><rect class="cls-18" x="91.92" y="80.66" width="3.31" height="8.7"/><rect class="cls-6" x="95.24" y="78.84" width="3.31" height="10.52"/><rect class="cls-20" x="98.55" y="82.3" width="3.31" height="7.07"/><rect class="cls-18" x="101.86" y="73.77" width="3.31" height="15.6"/><rect class="cls-6" x="105.18" y="79.21" width="3.31" height="10.15"/><rect class="cls-20" x="108.49" y="80.22" width="3.31" height="9.15"/><rect class="cls-18" x="111.81" y="76.32" width="3.31" height="13.04"/><rect class="cls-6" x="115.12" y="72.26" width="3.31" height="17.11"/><rect class="cls-20" x="118.44" y="70.57" width="3.31" height="18.8"/><rect class="cls-18" x="121.75" y="74.8" width="3.31" height="14.57"/><rect class="cls-23" x="22.88" y="94.38" width="33.35" height="5.23"/><rect class="cls-23" x="22.88" y="101.03" width="33.35" height="0.86"/><rect class="cls-23" x="22.88" y="102.53" width="33.35" height="0.86"/><rect class="cls-23" x="22.88" y="104.04" width="33.35" height="0.86"/><rect class="cls-23" x="22.88" y="105.54" width="33.35" height="0.86"/><rect class="cls-23" x="22.88" y="107.04" width="33.35" height="0.86"/><rect class="cls-23" x="22.88" y="108.55" width="23.34" height="0.86"/><rect class="cls-23" x="58.84" y="94.38" width="33.35" height="5.23"/><rect class="cls-23" x="58.84" y="101.03" width="33.35" height="0.86"/><rect class="cls-23" x="58.84" y="102.53" width="33.35" height="0.86"/><rect class="cls-23" x="58.84" y="104.04" width="33.35" height="0.86"/><rect class="cls-23" x="58.84" y="105.54" width="33.35" height="0.86"/><rect class="cls-23" x="58.84" y="107.04" width="33.35" height="0.86"/><rect class="cls-23" x="58.84" y="108.55" width="23.34" height="0.86"/><rect class="cls-23" x="94.8" y="94.38" width="33.35" height="5.23"/><rect class="cls-23" x="94.8" y="101.03" width="33.35" height="0.86"/><rect class="cls-23" x="94.8" y="102.53" width="33.35" height="0.86"/><rect class="cls-23" x="94.8" y="104.04" width="33.35" height="0.86"/><rect class="cls-23" x="94.8" y="105.54" width="33.35" height="0.86"/><rect class="cls-23" x="94.8" y="107.04" width="33.35" height="0.86"/><rect class="cls-23" x="94.8" y="108.55" width="31.07" height="0.86"/><path class="cls-24" d="M136.71,49.12A3.73,3.73,0,0,0,133,45.39H101.41L45.52,121.2h91.19Z"/><path class="cls-25" d="M87.53,129.81l-24.86.1a16.82,16.82,0,0,1-.09,4.16H87.75A38.58,38.58,0,0,1,87.53,129.81Z"/><path class="cls-10" d="M88.3,139.21c-.13-1.11-.37-3.17-.55-5.14H62.58a46.75,46.75,0,0,1-1,5.26,1.33,1.33,0,0,1-.94.95c-1.35.35-4.09,1.06-4.92,1.29H94.08c-.73-.09-3.51-.9-4.9-1.31A1.22,1.22,0,0,1,88.3,139.21Z"/><path class="cls-26" d="M13.29,119.35H136.71a0,0,0,0,1,0,0v7.79a4.08,4.08,0,0,1-4.08,4.08H17.37a4.08,4.08,0,0,1-4.08-4.08v-7.79a0,0,0,0,1,0,0Z"/><circle class="cls-23" cx="75.39" cy="123.78" r="3.01"/><rect class="cls-9" x="55.73" y="141.44" width="38.35" height="3.73"/></svg>