<svg id="Layer_1" data-name="Layer 1" xmlns="http://www.w3.org/2000/svg" viewBox="0 0 300 300"><defs><style>.cls-1{fill:#777e7f;}.cls-2{fill:#6a7172;}.cls-3{fill:#6ea3a3;}.cls-4{fill:#d5dfe2;}.cls-5{fill:#f2f2f2;}.cls-6{fill:#bf4949;}.cls-7{fill:#e5a548;}</style></defs><rect class="cls-1" x="4.1" y="3.46" width="293.07" height="293.07"/><path class="cls-2" d="M272.32,176.45c11.87,28.51-44.6,53.35-120.83,55.19C76.94,233.43,16.71,208.4,29,176.45,36.57,156.61,83.44,138,150.64,138S264.15,156.83,272.32,176.45Z"/><ellipse class="cls-3" cx="150.68" cy="176.81" rx="121.68" ry="38.47"/><ellipse class="cls-4" cx="150.68" cy="173.38" rx="102.81" ry="32.5"/><ellipse class="cls-3" cx="150.68" cy="171.46" rx="80.96" ry="25.59"/><ellipse class="cls-4" cx="150.68" cy="171.84" rx="61.74" ry="19.52"/><ellipse class="cls-3" cx="150.68" cy="171.68" rx="41.11" ry="13"/><ellipse class="cls-4" cx="150.68" cy="170.32" rx="22.48" ry="7.11"/><ellipse class="cls-3" cx="150.68" cy="171.45" rx="9.97" ry="3.15"/><path class="cls-5" d="M95.44,131.61c0-2.52-.17-17.51-.21-22.49,0-6.78-1.14-14.37-8.93-16-3.17-.64-6.45-.25-9.68-.17-.72,0-1.66-.28-1.89-.82a.27.27,0,0,1-.06-.12c-.09-.42,1.16-1.18,1.91-1.61,5.63-3.26,7.92-8.06,6.44-13.64a11.6,11.6,0,0,0-8.19-8.2,10.38,10.38,0,0,0-2.71-.34h0a10.38,10.38,0,0,0-2.71.34,11.6,11.6,0,0,0-8.2,8.2c-1.48,5.58.81,10.38,6.44,13.64.75.43,2,1.19,1.91,1.61a.2.2,0,0,1-.06.12c-.22.54-1.16.84-1.88.82-3.24-.08-6.51-.47-9.68.17-7.8,1.58-8.88,9.17-8.93,16,0,5-.19,20-.22,22.49,0,1.45,0,3.06,1,4.2a4.83,4.83,0,0,0,4.73,1.37c3-.64,3-3.14,3-5.58V105c0-.81-.28-2.3.76-2.26s.74,1.38.74,2.13c0,10.82-.06,21.64-.11,32.48.05.86.08,27,.07,27-.08,4.76-.14,9.51,7,8.18,2.34-1.27,2.18-3.63,2.53-5.78V163a0,0,0,0,0,0,0V144.61c0-3.32-.7-6.1,3.66-6.22,4.37.12,3.67,2.9,3.67,6.22V163a0,0,0,0,0,0,0v3.75c.35,2.15.19,4.51,2.53,5.78,7.09,1.33,7-3.42,7-8.18,0,0,0-26.15.07-27,0-10.84-.11-21.66-.11-32.48,0-.75-.29-2.1.74-2.13s.76,1.45.76,2.26V131.6c0,2.44,0,4.94,3,5.58a4.84,4.84,0,0,0,4.73-1.37C95.46,134.67,95.46,133.06,95.44,131.61Z"/><path class="cls-6" d="M252.49,131.61c0-2.52-.18-17.51-.22-22.49-.05-6.78-1.13-14.37-8.93-16-3.17-.64-6.44-.25-9.68-.17-.72,0-1.66-.28-1.89-.82a.18.18,0,0,1-.05-.12c-.09-.42,1.16-1.18,1.91-1.61,5.63-3.26,7.92-8.06,6.44-13.64a11.6,11.6,0,0,0-8.2-8.2,10.38,10.38,0,0,0-2.71-.34h0a10.38,10.38,0,0,0-2.71.34,11.6,11.6,0,0,0-8.2,8.2c-1.48,5.58.81,10.38,6.44,13.64.75.43,2,1.19,1.91,1.61a.18.18,0,0,1-.05.12c-.23.54-1.17.84-1.89.82-3.23-.08-6.51-.47-9.68.17-7.79,1.58-8.88,9.17-8.93,16,0,5-.19,20-.22,22.49,0,1.45,0,3.06,1,4.2a4.84,4.84,0,0,0,4.73,1.37c3-.64,3-3.14,3-5.58V105c0-.81-.28-2.3.76-2.26s.74,1.38.74,2.13c0,10.82-.06,21.64-.11,32.48.05.86.08,27,.07,27-.08,4.76-.14,9.51,7,8.18,2.34-1.27,2.18-3.63,2.53-5.78V163a0,0,0,0,0,0,0V144.61c0-3.32-.7-6.1,3.67-6.22,4.36.12,3.66,2.9,3.66,6.22V163a0,0,0,0,0,0,0v3.75c.35,2.15.19,4.51,2.53,5.78,7.09,1.33,7-3.42,7-8.18,0,0,0-26.15.07-27-.05-10.84-.11-21.66-.11-32.48,0-.75-.29-2.1.74-2.13s.76,1.45.76,2.26V131.6c0,2.44,0,4.94,3,5.58a4.83,4.83,0,0,0,4.73-1.37C252.51,134.67,252.5,133.06,252.49,131.61Z"/><path class="cls-5" d="M213.23,131.61c0-2.52-.18-17.51-.22-22.49,0-6.78-1.14-14.37-8.93-16-3.17-.64-6.44-.25-9.68-.17-.72,0-1.66-.28-1.89-.82a.18.18,0,0,1,0-.12c-.09-.42,1.16-1.18,1.91-1.61,5.63-3.26,7.92-8.06,6.44-13.64a11.6,11.6,0,0,0-8.2-8.2,10.38,10.38,0,0,0-2.71-.34h0a10.38,10.38,0,0,0-2.71.34,11.6,11.6,0,0,0-8.2,8.2c-1.48,5.58.81,10.38,6.44,13.64.75.43,2,1.19,1.91,1.61a.18.18,0,0,1-.05.12c-.23.54-1.17.84-1.89.82-3.24-.08-6.51-.47-9.68.17-7.79,1.58-8.88,9.17-8.93,16,0,5-.19,20-.22,22.49,0,1.45,0,3.06,1,4.2a4.83,4.83,0,0,0,4.73,1.37c3-.64,3-3.14,3-5.58V105c0-.81-.28-2.3.76-2.26s.74,1.38.74,2.13c0,10.82-.06,21.64-.11,32.48,0,.86.08,27,.07,27-.08,4.76-.14,9.51,6.95,8.18,2.34-1.27,2.18-3.63,2.53-5.78V163a0,0,0,0,0,0,0V144.61c0-3.32-.7-6.1,3.66-6.22,4.37.12,3.67,2.9,3.67,6.22V163a0,0,0,0,0,0,0v3.75c.35,2.15.19,4.51,2.53,5.78,7.09,1.33,7-3.42,6.95-8.18,0,0,0-26.15.07-27-.05-10.84-.11-21.66-.11-32.48,0-.75-.29-2.1.74-2.13s.76,1.45.76,2.26V131.6c0,2.44,0,4.94,3,5.58a4.83,4.83,0,0,0,4.73-1.37C213.25,134.67,213.24,133.06,213.23,131.61Z"/><path class="cls-6" d="M134.71,131.61c0-2.52-.18-17.51-.22-22.49-.05-6.78-1.14-14.37-8.93-16-3.17-.64-6.45-.25-9.68-.17-.72,0-1.66-.28-1.89-.82a.27.27,0,0,1-.06-.12c-.09-.42,1.16-1.18,1.91-1.61,5.63-3.26,7.92-8.06,6.44-13.64a11.58,11.58,0,0,0-8.19-8.2,10.38,10.38,0,0,0-2.71-.34h0a10.38,10.38,0,0,0-2.71.34,11.6,11.6,0,0,0-8.2,8.2c-1.48,5.58.81,10.38,6.44,13.64.75.43,2,1.19,1.91,1.61a.18.18,0,0,1,0,.12c-.23.54-1.17.84-1.89.82-3.24-.08-6.51-.47-9.68.17-7.8,1.58-8.88,9.17-8.93,16,0,5-.19,20-.22,22.49,0,1.45,0,3.06,1,4.2a4.83,4.83,0,0,0,4.73,1.37c3-.64,3-3.14,3-5.58V105c0-.81-.28-2.3.76-2.26s.74,1.38.74,2.13c0,10.82-.06,21.64-.11,32.48,0,.86.08,27,.07,27-.08,4.76-.14,9.51,7,8.18,2.34-1.27,2.18-3.63,2.53-5.78V163a0,0,0,0,0,0,0V144.61c0-3.32-.7-6.1,3.66-6.22,4.37.12,3.67,2.9,3.67,6.22V163a0,0,0,0,0,0,0v3.75c.35,2.15.19,4.51,2.53,5.78,7.09,1.33,7-3.42,7-8.18,0,0,0-26.15.07-27,0-10.84-.11-21.66-.11-32.48,0-.75-.29-2.1.74-2.13s.76,1.45.76,2.26V131.6c0,2.44,0,4.94,3,5.58a4.84,4.84,0,0,0,4.73-1.37C134.72,134.67,134.72,133.06,134.71,131.61Z"/><path class="cls-7" d="M174,131.61c0-2.52-.18-17.51-.22-22.49-.05-6.78-1.14-14.37-8.93-16-3.17-.64-6.45-.25-9.68-.17-.72,0-1.66-.28-1.89-.82a.18.18,0,0,1-.05-.12c-.09-.42,1.16-1.18,1.91-1.61,5.63-3.26,7.92-8.06,6.44-13.64a11.6,11.6,0,0,0-8.2-8.2,10.38,10.38,0,0,0-2.71-.34h0a10.38,10.38,0,0,0-2.71.34,11.6,11.6,0,0,0-8.2,8.2c-1.48,5.58.81,10.38,6.44,13.64.75.43,2,1.19,1.91,1.61a.18.18,0,0,1,0,.12c-.23.54-1.17.84-1.89.82-3.24-.08-6.51-.47-9.68.17-7.8,1.58-8.88,9.17-8.93,16,0,5-.19,20-.22,22.49,0,1.45,0,3.06,1,4.2a4.83,4.83,0,0,0,4.73,1.37c3-.64,3-3.14,3-5.58V105c0-.81-.28-2.3.76-2.26s.74,1.38.74,2.13c0,10.82-.06,21.64-.11,32.48.05.86.08,27,.07,27-.08,4.76-.14,9.51,6.95,8.18,2.34-1.27,2.18-3.63,2.53-5.78V163a0,0,0,0,0,0,0V144.61c0-3.32-.7-6.1,3.66-6.22,4.37.12,3.67,2.9,3.67,6.22V163a0,0,0,0,0,0,0v3.75c.35,2.15.19,4.51,2.53,5.78,7.09,1.33,7-3.42,6.95-8.18,0,0,0-26.15.07-27,0-10.84-.11-21.66-.11-32.48,0-.75-.29-2.1.74-2.13s.76,1.45.76,2.26V131.6c0,2.44,0,4.94,3,5.58a4.84,4.84,0,0,0,4.73-1.37C174,134.67,174,133.06,174,131.61Z"/></svg>