<svg id="Layer_1" data-name="Layer 1" xmlns="http://www.w3.org/2000/svg" viewBox="0 0 300 300"><defs><style>.cls-1{fill:#4d9850;}.cls-2{fill:#417b41;}.cls-3{fill:#7f3b1c;}.cls-4{fill:#b0856e;}.cls-5{fill:#fff;}.cls-6,.cls-7,.cls-8{fill:none;}.cls-7,.cls-8{stroke:#3a3b3d;}.cls-7{stroke-miterlimit:10.06;stroke-width:7.38px;}.cls-8{stroke-miterlimit:10;stroke-width:5.24px;}.cls-9{fill:#3a3b3d;}.cls-10{fill:#95949a;}.cls-11{fill:#a1a1a9;}.cls-12{fill:#1a1a1a;}.cls-13{fill:#bdbdbe;}.cls-14{fill:#a2a1a9;}.cls-15{fill:#519e53;}</style></defs><g id="Background"><path class="cls-1" d="M296.54,12.3a8.87,8.87,0,0,0-8.84-8.84H12.3A8.87,8.87,0,0,0,3.46,12.3V287.7a8.87,8.87,0,0,0,8.84,8.84H287.7a8.87,8.87,0,0,0,8.84-8.84V109.39L196.28,12.16l100.26,97.2Z"/><path class="cls-1" d="M196.28,12.16l100.26,97.2V12.3a8.87,8.87,0,0,0-8.84-8.84H12.3A8.87,8.87,0,0,0,3.46,12.3V287.7a8.87,8.87,0,0,0,8.84,8.84H134.36l-29.78-28.88Z"/><path class="cls-2" d="M196.28,12.16l-91.7,255.5,29.78,28.88H287.7a8.87,8.87,0,0,0,8.84-8.84V109.39Z"/></g><g id="Clipboard_and_Paper" data-name="Clipboard and Paper"><path class="cls-3" d="M261.69,213.71,201.48,19.14a13.18,13.18,0,0,0-16.42-8.64L50.6,52.11A13.16,13.16,0,0,0,42,68.52l60.21,194.57a13.16,13.16,0,0,0,16.35,8.65L253,230.12A13.15,13.15,0,0,0,261.69,213.71Zm-57.81,4.91c-.53,5.67-1.76,12.07-5.5,16.57-5.79,6.95-25,3.86-30.86-4.72-3.87-5.66-4.78-16.21-2-22.55,2.09-4.61,11-3.57,15-3.52a45.49,45.49,0,0,1,16.84,3.82c2.27,1,4.27,2,5.63,4.2a6.86,6.86,0,0,1,.89,2.1A12.27,12.27,0,0,1,203.88,218.62Z"/><path class="cls-4" d="M203,212.41c-1.36-2.15-3.36-3.21-5.63-4.2a45.49,45.49,0,0,0-16.84-3.82c-4,0-12.9-1-15,3.52-2.83,6.34-1.92,16.88,2,22.55,5.88,8.58,25.07,11.67,30.86,4.72,3.74-4.5,5-10.9,5.5-16.57a12.94,12.94,0,0,0,0-4.12A6.85,6.85,0,0,0,203,212.41Z"/><path class="cls-5" d="M243.88,193.65,196.15,39.52a13.15,13.15,0,0,0-16.4-8.65L66.21,66a13.16,13.16,0,0,0-8.66,16.41l47.71,154.12a13.15,13.15,0,0,0,16.42,8.66L168,230.87v-.07c-3.87-5.65-4.76-16.19-1.94-22.54,2.1-4.6,11-3.57,15-3.51a45.23,45.23,0,0,1,16.78,3.82c2.27,1,4.27,2,5.63,4.19a6.59,6.59,0,0,1,.89,2.1,12.88,12.88,0,0,1,0,4.11,2.32,2.32,0,0,1-.07.69l31-9.59A13.13,13.13,0,0,0,243.88,193.65Z"/><path class="cls-6" d="M198.81,235.52c3.59-4.31,4.86-10.37,5.44-15.88L168,230.87C173.92,239.41,193,242.47,198.81,235.52Z"/><path class="cls-5" d="M204.31,214.85a6.59,6.59,0,0,0-.89-2.1c-1.36-2.15-3.36-3.22-5.63-4.19A45.23,45.23,0,0,0,181,204.74c-4-.06-12.91-1.05-14.95,3.51-2.82,6.3-1.93,16.89,1.94,22.54v.07l36.25-11.23c0-.22,0-.45.07-.68A13.74,13.74,0,0,0,204.31,214.85Z"/></g><g id="Paper_content" data-name="Paper content"><rect class="cls-7" x="95.79" y="70.01" width="88.98" height="55.16" transform="translate(-22.72 46.29) rotate(-17.35)"/><line class="cls-8" x1="105.45" y1="171.44" x2="208.53" y2="140.86"/><line class="cls-8" x1="102.07" y1="161.18" x2="205.14" y2="130.6"/><line class="cls-8" x1="108.84" y1="182.86" x2="211.91" y2="152.28"/><line class="cls-8" x1="112.82" y1="196.26" x2="215.89" y2="165.67"/><path class="cls-9" d="M167.72,208.12l-20.37,6a28.46,28.46,0,0,1-1.56,3.53l20.37-6a18.54,18.54,0,0,1,.88-2.5A4.49,4.49,0,0,1,167.72,208.12Z"/><path class="cls-9" d="M182,205.67a35.05,35.05,0,0,1,3.54.23l38.55-11.44-.84-2.82-46.84,14C178.54,205.51,180.58,205.65,182,205.67Z"/><path class="cls-6" d="M120.18,222.22l27.17-8.06a22.35,22.35,0,0,0,1.49-9.12c-.4-4.85-8.8-6.7-12.42-7.88A42.89,42.89,0,0,0,120,195.39c-2.37.18-4.51.53-6.42,2.1a6.58,6.58,0,0,0-1.47,1.64,12.47,12.47,0,0,0-1.3,3.75c-1.3,5.36-2.21,11.59-.25,16.87,3,8.16,21.39,11.33,29.37,5.32a21.57,21.57,0,0,0,5.83-7.34L121,225.07Z"/><path class="cls-10" d="M120.18,222.22l.84,2.83,24.77-7.35a28.46,28.46,0,0,0,1.56-3.53Z"/><path class="cls-6" d="M204.46,213.59c-1.36-2.09-3.36-3.14-5.64-4.14a47.47,47.47,0,0,0-13.28-3.55l-19.38,5.75c-1.68,6.3-.56,14.91,2.83,19.82,5.88,8.5,25.07,11.53,30.86,4.67,3.75-4.44,5-10.79,5.51-16.4a12.63,12.63,0,0,0,0-4.07A6.63,6.63,0,0,0,204.46,213.59Z"/><path class="cls-6" d="M167.72,208.12l8.69-2.58C173.08,205.59,169.48,206.07,167.72,208.12Z"/><path class="cls-10" d="M182,205.67c-1.42,0-3.46-.16-5.59-.13l-8.69,2.58a4.3,4.3,0,0,0-.68,1,18.54,18.54,0,0,0-.88,2.5l19.38-5.74A32.42,32.42,0,0,0,182,205.67Z"/></g><g id="Glasses"><path class="cls-11" d="M112,199.79c.07.13,5.53-.49,5.95-.49a29.49,29.49,0,0,1,12.25,2.42c6.95,3.15,14.46,4.73,21.87,6.38,3.76.84,7.58,1.63,11.26,2.8s7.45,1.35,11.12,2.33c7,1.86,11.08,7.07,15.73,12.21q4.49,5,8.89,10l2.55-2.82q-3.06-3.93-6.22-7.74a109.78,109.78,0,0,0-9.9-9.87c-5.77-5.37-14.38-7.43-21.65-10.33l-20.33-4.4-17.68-5-12.79-1.34-2.47,3.27Z"/><path class="cls-11" d="M107.58,214.49a2.53,2.53,0,0,1,.42-.31c4.48-2.78,8.9-5.82,13.71-8a28.66,28.66,0,0,1,12.2-2.82c4.66,0,9.23,1.13,13.87,1.44,4.19.29,8.39.46,12.58.75l10,.73,16.45,1,7.87,1,9.81,2.29c.38.09,1.25,2.52,1.46,2.95a2.46,2.46,0,0,1-2.41,1.05c-5.89-.65-11.78-1.21-17.67-1.78-9.06-1.28-18-2.9-27.14-3.86l-9-1.14c-6.67-.84-13.64-1.74-20.32-.13-3.51.84-6.34,2.72-9.44,4.49-4,2.26-8,4.42-12,6.73l-.55-3.51a1.19,1.19,0,0,1,0-.7A.8.8,0,0,1,107.58,214.49Z"/><path class="cls-6" d="M136.92,197.68a42.83,42.83,0,0,0-16.17-2.58,10.36,10.36,0,0,0-6.44,1.69,6.31,6.31,0,0,0-1.52,1.53,12.15,12.15,0,0,0-1.45,3.61c-1.5,5.17-2.68,11.23-1,16.49,2.68,8.15,20.69,12.17,28.88,6.7,5.4-3.61,9.88-12.59,9.62-19.11C148.69,201.26,140.44,199,136.92,197.68Z"/><path class="cls-6" d="M203.33,215.22a6.15,6.15,0,0,0-.84-2c-1.29-2-3.15-3-5.35-4a43.17,43.17,0,0,0-16-3.61c-3.77,0-12.25-1-14.2,3.33-2.67,6-1.82,16,1.86,21.32,5.58,8.12,23.8,11,29.3,4.46,3.55-4.2,4.71-10.3,5.25-15.67A12.32,12.32,0,0,0,203.33,215.22Z"/><path class="cls-12" d="M213.25,209.85c-11.32-3.75-23.36-7.71-35.29-8.69-4.32-.35-8.39,1.25-12.7,1.58a34.64,34.64,0,0,1-6.11-.25,20.78,20.78,0,0,1-9.2-3.26c-2.7-1.68-5.31-3.6-8.39-4.55-11.44-3.5-24.13-4.28-36-5l-1.36,6.84c3.64,2,3,5,3,5s-1.81,10.84-1.48,14.31c1,10.35,16.26,16.16,25.32,14.75,7.24-1.13,15.06-4.39,18.64-11.16,1-1.83,1.23-3.93,2-5.81a5.33,5.33,0,0,1,1.54-2.33A13.56,13.56,0,0,1,157.2,210a1.09,1.09,0,0,1,.36,0,.81.81,0,0,1,.33.14,12.48,12.48,0,0,1,2.9,2.1,4.31,4.31,0,0,1,.68,2.61c.08,2.1-.49,4.19-.26,6.35.82,7.62,6.88,13.55,13.19,17.27,7.89,4.67,24.23,4.92,29-4.33,1.58-3.15,3.92-13.85,3.92-13.85s.57-3.06,4.68-3.55Zm-74,15.29c-8.19,5.48-26.22,1.45-28.88-6.7-1.73-5.25-.55-11.32,1-16.49a12.15,12.15,0,0,1,1.45-3.61,6.31,6.31,0,0,1,1.52-1.53c2-1.4,4.09-1.64,6.44-1.69a43,43,0,0,1,16.17,2.56c3.52,1.34,11.77,3.58,12,8.39C149.15,212.59,144.67,221.53,139.27,225.14Zm58.85,9.63c-5.5,6.58-23.72,3.66-29.3-4.46C165.14,225,164.29,215,167,209c1.95-4.37,10.43-3.38,14.2-3.33a43.17,43.17,0,0,1,16,3.61c2.16.92,4.06,1.93,5.35,4a6.15,6.15,0,0,1,.84,2,12,12,0,0,1,0,3.88C202.83,224.47,201.67,230.52,198.12,234.77Z"/><path class="cls-12" d="M106.71,214.34l-9.5,4.52a3.23,3.23,0,0,0-.93,3.14c.57,2.31,4.34,1.77,5.89,1.05.63-.3,5.89-3.7,5.79-4.05Z"/><path class="cls-12" d="M201.67,232.62l7.75,7.12a3.23,3.23,0,0,1,0,3.24c-1.26,2.1-5,.3-6.12-.94-.41-.44-4.34-5.09-4.19-5.38Z"/></g><g id="Clip"><path class="cls-13" d="M81.19,64.87l89.49-27.49a9.5,9.5,0,0,1,4.43-.27l-1.8-5.77a8.88,8.88,0,0,0-11.09-5.79L78.4,51.77a8.86,8.86,0,0,0-5.82,11.1l0,.07,2.48,7.88A9.33,9.33,0,0,1,81.19,64.87Z"/><path class="cls-13" d="M175.9,39.63l-.79-2.52-1.8-5.77a8.88,8.88,0,0,0-11.09-5.79L78.4,51.77a8.86,8.86,0,0,0-5.82,11.1l0,.07,2.48,7.88v0l.12.39Z"/><path class="cls-14" d="M175.9,39.63l-.79-2.52a9.5,9.5,0,0,0-4.43.27L81.19,64.87a9.31,9.31,0,0,0-6.11,5.91l.13.41Z"/><path class="cls-13" d="M135.62,25.29A18.76,18.76,0,0,0,118,11.11a18.86,18.86,0,0,0-17.67,11.41c-3.26,7.65.93,14.18,3.25,21.41l34.14-10.7Zm-30.36,12a15,15,0,0,0-.82,1.84,15,15,0,0,1,.82-1.84,19,19,0,0,1,1.68-2.66A19,19,0,0,0,105.26,37.31Z"/><path class="cls-13" d="M133.47,20.14a18.58,18.58,0,0,0-15.47-9,18.86,18.86,0,0,0-17.67,11.41c-3.26,7.65.93,14.18,3.25,21.41C103.58,33.48,115.75,24.45,133.47,20.14Z"/><path class="cls-14" d="M133.47,20.14c-17.72,4.31-29.89,13.34-29.89,23.79l34.14-10.7-2.1-7.94A18.49,18.49,0,0,0,133.47,20.14Z"/><circle class="cls-15" cx="114.83" cy="20.87" r="5"/></g></svg>