<svg xmlns="http://www.w3.org/2000/svg" viewBox="0 0 1204.74 581.07"><defs><style>.a{fill:#fcfcfc;}.b{fill:#fed431;}.c{fill:#fad232;}.d{fill:#fed533;}.e{fill:#fcd230;}.f{fill:#c8b15e;}.g{fill:#c7c6c6;}.h{fill:#b8a870;}.i{fill:#fad030;}.j{fill:#efefef;}</style></defs><path class="a" d="M728.28,320.46a12.3,12.3,0,0,1-.68-2.85q0-125.67,0-251.32c0-.61.06-1.21.12-2.27,6.29-.82,12.56-1.77,18.86-2.42a496.55,496.55,0,0,1,71-2.44c18,.7,35.64,3.1,52,11.44,14.6,7.43,26,17.79,31.31,33.66,9.61,28.85-.51,58.88-33,74-1.57.73-3.16,1.41-5.29,2.36,24.2,7.22,40.87,21.61,48.23,46.61,4.72-12.41,9.17-24.13,13.87-36.5,2.71,7.94,5.23,15.24,7.7,22.55,3.55,10.51,7.16,21,10.54,31.58.84,2.61,2,3.34,4.77,3.32,18-.15,36.09-.07,54.14-.07h4.1l-29.48,22.59c7.19,1.59,13.63,3.31,20.17,4.4,12,2,24,2.76,35.88-.35,9.46-2.46,17.37-7.14,21.07-16.82,4.39-11.51.59-23.14-10-31-8.7-6.43-18.69-10.27-28.73-14-17-6.32-33-14.22-46.81-26.25-32.74-28.46-28.65-75.92-4.43-101.49,13.94-14.71,31.39-22.57,51-26.11,5.35-1,10.82-1.29,16.24-1.94a4.53,4.53,0,0,0,1.25-.58h14.85c3.38.4,6.76.88,10.15,1.19,15.06,1.4,29.61,4.77,43.38,11.18.73.34,1.44.73,2.35,1.2-4.21,15.74-8.39,31.4-12.62,47.22a113.39,113.39,0,0,0-38.72-11.62c-10.71-1.19-21.42-1.63-31.74,2.22-9.33,3.47-16.27,9.33-17.49,19.93-1,8.5,2.09,15.74,9.09,20.36a188.47,188.47,0,0,0,23.17,12.7c11.69,5.52,24,9.89,35.45,15.79,14.88,7.64,27.49,18.21,35.2,33.53,15.58,31,10.17,82.59-37.13,104.13-2.33,1.07-4.69,2.07-7,3.1a89.36,89.36,0,0,0-23.27-18.57c-19.41-10.61-40.48-15.72-62.1-19.3-6.25-1-11.58-.94-16.2,4-1.31,1.39-1.85,2.3-1.25,4.17,2,6.26,3.93,12.55,5.68,18.88a4.46,4.46,0,0,0,3.55,3.55c12.05,3.52,23.76,7.89,34.47,14.58l-33.93-4.7c1.51,5.12,3.1,10.72,4.89,16.27a3.15,3.15,0,0,0,2.31,1.74c15.13.07,30.27,0,45.41,0q24.75.07,49.5.13a5.52,5.52,0,0,0,1.18-.25c1.23.07,2.46.21,3.68.21h59.78V346H1028.15c-1.23,0-2.46-.1-3.7-.1h-889c-1.23,0-2.47.06-3.7.09H81.25v-7.83c6.86,0,13.62,0,20.38,0,4,0,8-.16,12-.25l21.93.17c1.14,0,2.27.09,3.4.09h538c1.23,0,2.47,0,3.71-.07l2.54,0,3.09,0,2.47,0c.72,0,1.44,0,2.16,0q90.93,0,181.86.07c2.91,0,4.23-.69,5-3.68,3-11.3,6.42-22.5,9.68-33.75,1.37-4.39,2.77-8.78,4.08-13.2.19-.62.25-1.76-.09-2-2.53-1.72-4.39-4.65-8.24-3.94-6.56,1.22-13.21,2-19.78,3.21a889.57,889.57,0,0,0-114.9,29.22C741.79,316.25,735,318.33,728.28,320.46Zm124.87-73.4c1-11.32-1.45-21.05-9.75-28.74-4.78-4.43-10.53-7.13-16.69-9-14-4.24-28.35-3.08-42.63-3.08-.16,0-.32.22-.4.28v73c2,.15,3.86.32,5.69.4,11.84.52,23.69,1.05,35.3-2.08,11.4-3.07,20.74-8.85,25.81-20.12.72-1.62.59-2.52-.88-3.55-3.07-2.15-6-4.48-9.53-7.12Zm-69.56-82.53c11.07-.58,21.8-.65,32.41-1.83,9.57-1.06,18.41-4.62,24.93-12.24,13.69-16,5.92-40.19-14.85-46.24-9.33-2.72-18.9-2.75-28.5-2.15-4.68.29-9.35.75-14,1.13Zm86.15,91.14c1.62,1.24,2.66,2.06,3.73,2.85,8.91,6.66,17.78,13.38,26.77,19.93,2.35,1.71,3.37,3.15,2.17,6.25-1.82,4.68-2.95,9.63-4.36,14.46-1.89,6.44-3.76,12.87-5.83,20,1.65-1.09,2.68-1.75,3.68-2.45,9-6.32,18.06-12.61,27-19,1.6-1.14,2.69-1.15,4.26,0,4.44,3.35,9,6.52,13.53,9.76,5.56,4,11.13,8,17.28,12.33-.33-1.2-.46-1.68-.6-2.14q-4.65-15.51-9.31-31c-1.83-6.09-1.83-6.09,3.11-9.93,1.47-1.14,2.95-2.25,4.43-3.37L978,256.2H937.62l-12.78-37.62c-4.48,11.84-8.77,22.85-12.77,34-1,2.64-2.25,3.23-4.91,3.2C894.93,255.58,882.69,255.67,869.74,255.67ZM925,309.27,884.08,338h81Z"/><path class="a" d="M290.69,198.83c0,1.24-.13,2.47-.13,3.7q0,51.6,0,103.21v3.81c-46.78,14.9-93.87,20.73-141.9,6l-14-5.75A106.28,106.28,0,0,1,87,263.91c-10.56-19.67-15.45-40.84-16.41-63a16.89,16.89,0,0,0-.59-2.77V190.7c.41-4,.85-8,1.22-12,2.78-29.5,12.64-56,33-78.09C123,80.17,146.67,68,173.57,62.27a196.36,196.36,0,0,1,98.6,4.15c3.42,1,6.71,2.46,10.36,3.81-4,16-7.88,31.7-11.84,47.59a8.41,8.41,0,0,1-1.56-.36c-14.88-7-30.7-9.68-47-10.36-12.62-.53-25.14-.14-37.34,3.45-29.52,8.68-47,28.54-52.79,58.44-4.23,21.75-2.95,43.27,6,63.85,7.39,16.9,19.44,29.36,36.53,36.71l12.15,4c6,.9,11.92,2.27,17.93,2.62a92.62,92.62,0,0,0,28.81-2.43c1.32-.35,2.48-.56,2.46-2.48-.12-11.84-.12-23.68-.17-35.52V218.26H197.61v-46h93v22C290.64,195.76,290.67,197.3,290.69,198.83Z"/><path class="a" d="M96.37,412.9H81.25V405h13l42.33,0c1.12.05,2.25.14,3.38.14h872.7c1.24,0,2.47-.08,3.7-.13h26.23c7,0,14,.12,21,.12q33.86,0,67.69,0h3.45v7.62H1039c-1.23,0-2.47.09-3.7.13l-24.77-.08h-.81c-1.24,0-2.47-.07-3.71-.07H483c-1.33,0-2.67.08-4,.13l-8.63-.08h-1.95c-.82,0-1.65-.07-2.47-.07H147.36c-.82,0-1.64.05-2.47.07l-1,0Z"/><path class="b" d="M96.37,412.9l47.56-.11.8,1c4.9,3.73,9.5,8,14.75,11.13,28.78,17.27,60.36,24.93,93.64,26,11.91.38,23.86,0,35.77-.52s24-1,35.82-2.56c19.8-2.65,39.61-5.51,59.17-9.49a492.79,492.79,0,0,0,84.7-24.9l1.75-.61,8.63.08c-10.65,4.26-21.21,8.79-32,12.72-12.58,4.58-25.25,9-38.06,12.88-26.63,8.12-53.25,16.32-80.11,23.6-13.5,3.66-27.47,5.68-41.31,7.89-9.79,1.56-19.72,2.34-29.6,3.22-7.13.63-14.3.86-21.44,1.28-3.27.19-6.54.58-9.8.59a270,270,0,0,1-44.53-3.88c-14.85-2.47-29.3-6.43-42.89-13-17.61-8.51-32.13-20.38-40.42-38.66C97.84,417.4,97.18,415.12,96.37,412.9Z"/><path class="c" d="M1001.86,324.77c-10.71-6.69-22.42-11.06-34.47-14.58a4.46,4.46,0,0,1-3.55-3.55c-1.75-6.33-3.66-12.62-5.68-18.88-.6-1.87-.06-2.78,1.25-4.17,4.62-4.94,10-5,16.2-4,21.62,3.58,42.69,8.69,62.1,19.3A89.36,89.36,0,0,1,1061,317.46c4.07,5.69,7.77,11.58,9.73,18.38.2.69.34,1.39.51,2.09a5.52,5.52,0,0,1-1.18.25q-24.75,0-49.5-.13Z"/><path class="d" d="M1010.57,412.82l24.77.08c-14.46,15.67-31.27,28.52-48.33,41.19-29.77,22.11-62.07,39.65-96,54.32-12.74,5.5-25.76,10.35-38.67,15.46a12.34,12.34,0,0,1-3.55.67c37.21-17.87,72.39-39.2,106.86-61.68a228.34,228.34,0,0,0,53.18-47.66c.44-.55.8-1.18,1.2-1.77C1010.2,413.23,1010.38,413,1010.57,412.82Z"/><path class="e" d="M136.61,405l-42.33,0q0-8.07-.07-16.13c7.05,4.43,14.65,3.94,22.39,2.62,2.89-.5,4.23-1.61,3.93-4.81-.34-3.57-.08-7.19-.08-10.79v-5H106.6v6.68h5.22v7.62c-5,.8-9.48.43-12.77-3.69-4-5-2.71-10.26-.18-15.21,2.07-4.06,6.26-4.66,10.36-4.52,2.71.1,5.41.68,8.27,1.07l1.56-6.41c-5-2.23-9.92-1.89-14.84-1.78l4.2-8.65h23.37c-.93,2.72-2.21,5.36-2.71,8.15-1.14,6.3-1.88,12.67-2.79,19l0-.07-.54,2.14c-.32,4.24-.35,8.42,2.16,12.16C129.19,394.05,132.83,399.56,136.61,405Z"/><path class="b" d="M1028.15,346h38.47l4.07.92a54.46,54.46,0,0,1-4,18.45l-7.38-.37v17.09l-6.14,9h-.53l-.89-5.59c-11.37,1.31-14.17.5-14.53-4.22h16.5c2.44-8.78-3-16.63-11.29-16.77a13.69,13.69,0,0,0-11.62,5.82C1031.17,362,1031.21,353.85,1028.15,346Z"/><path class="a" d="M1059.28,382.07V365l7.38.37v2c2.76-1,5.45-2.4,8.28-2.81,3.15-.46,5.73,1.27,7.44,4a32.11,32.11,0,0,1,3.86-2.95c6.24-3.43,12.72.12,13.8,7.5a19.77,19.77,0,0,1,.1,2.78c0,5.32,0,10.65,0,16.11H1092c0-4.43,0-8.73,0-13a26.48,26.48,0,0,0-.32-4c-.36-2.11-1.39-3.82-3.81-3.62a3.94,3.94,0,0,0-3.77,4.15c-.15,4.22-.08,8.44-.11,12.66V392h-8.29c0-4.11,0-8.2,0-12.29,0-1.44-.08-2.88-.2-4.31-.2-2.3-1.23-4.16-3.77-4s-3.78,1.95-3.81,4.44c-.05,4.63,0,9.27,0,13.9,0,.69-.07,1.39-.11,2.23h-8.48Z"/><path class="a" d="M104.22,354.63c4.92-.11,9.86-.45,14.84,1.78l-1.56,6.41c-2.86-.39-5.56-1-8.27-1.07-4.1-.14-8.29.46-10.36,4.52-2.53,5-3.78,10.24.18,15.21,3.29,4.12,7.76,4.49,12.77,3.69v-7.62H106.6v-6.68h13.85v5c0,3.6-.26,7.22.08,10.79.3,3.2-1,4.31-3.93,4.81-7.74,1.32-15.34,1.81-22.39-2.62-9.48-7.52-8.26-23.36-.6-29.1C96.7,357.47,100.66,356.31,104.22,354.63Z"/><path class="f" d="M134.66,309.83l14,5.75c-4,6.55-8,13.09-12,19.66a18.43,18.43,0,0,0-1.13,2.82l-21.93-.17q8.65-11.77,17.32-23.55C132.09,312.77,133.42,311.33,134.66,309.83Z"/><path class="c" d="M1042.62,405h-26.23l6.39-12.22,0,.07.63-.41c3-.49,1.26-3,1.94-4.52q1.55-3.57,3.11-7.14c2.46,8.48,6,11.72,13.75,11.75,3.34,0,6.68-.79,10-1.22l.41.43Z"/><path class="a" d="M1123.5,371.46c-2.51-.32-4.72-.75-6.93-.82a2.6,2.6,0,0,0-2,1.48,2.66,2.66,0,0,0,1.25,2.11c1.7.94,3.58,1.52,5.34,2.35,3.29,1.55,5.06,4.11,4.87,7.84-.18,3.5-2.26,6.14-6,7.33a20.59,20.59,0,0,1-14.43-.9c.47-2,.92-4,1.37-5.87a46.89,46.89,0,0,0,7.27,1.58c1.11.07,2.3-1.14,3.46-1.77a12.21,12.21,0,0,0-2.42-2.71c-1.74-1.05-3.85-1.51-5.53-2.62a7.52,7.52,0,0,1-.15-12.7c4.88-3.38,10-2.72,15.35-.75Z"/><path class="c" d="M1052.61,391h.53l-.54.71-.41-.43A.5.5,0,0,1,1052.61,391Z"/><path class="g" d="M1010.57,412.82c-.19.2-.37.41-.55.61l-.26-.6Z"/><path class="a" d="M530.36,60.87H683.68v48.24h-97v54h91.4v48H586.68v61.72H689v48.23H530.36Z"/><path class="a" d="M335.07,60.9h152.1v48.21h-95.5v59.36h89v48.12H391.38V321.12H335.07Z"/><path class="e" d="M728.28,320.46c6.75-2.13,13.51-4.21,20.24-6.38a889.57,889.57,0,0,1,114.9-29.22c6.57-1.18,13.22-2,19.78-3.21,3.85-.71,5.71,2.22,8.24,3.94.34.24.28,1.38.09,2-1.31,4.42-2.71,8.81-4.08,13.2l-1.33.06c-11.51.65-23,.93-34.51,2a658.23,658.23,0,0,0-78.56,12.76c-9.22,2-18.37,4.41-27.55,6.64-1.21.21-2.45.32-3.63.64q-26.58,7.23-53.17,14.5l-2.46.66-3.09,0-.15-.63,40.75-15.07C725.28,321.77,726.77,321.09,728.28,320.46Z"/><path class="d" d="M186.73,273.54l-12.15-4c14.29-10.56,28.52-21.22,42.91-31.65,5.9-4.27,12.17-8,18.27-12v9.87c-13.71,9.91-27.48,19.73-41.07,29.81C191.7,267.75,189.37,270.85,186.73,273.54Z"/><path class="h" d="M290.69,198.83c0-1.53-.05-3.07-.07-4.6,4.21-1.86,8.4-3.76,12.63-5.56,1.59-.68,3.26-1.16,4.89-1.74l.08.1Z"/><path class="f" d="M683,337.41l.15.63-2.54,0Z"/><path class="h" d="M308.14,186.93l.7-.53.19.36-.81.27Z"/><path class="i" d="M869.74,255.67c13,0,25.19-.09,37.42.08,2.66,0,4-.56,4.91-3.2,4-11.12,8.29-22.13,12.77-34l12.78,37.62H978l-22.36,17.14c-1.48,1.12-3,2.23-4.43,3.37-4.94,3.84-4.94,3.84-3.11,9.93q4.65,15.5,9.31,31c.14.46.27.94.6,2.14-6.15-4.38-11.72-8.35-17.28-12.33-4.53-3.24-9.09-6.41-13.53-9.76-1.57-1.19-2.66-1.18-4.26,0-9,6.4-18,12.69-27,19-1,.7-2,1.36-3.68,2.45,2.07-7.09,3.94-13.52,5.83-20,1.41-4.83,2.54-9.78,4.36-14.46,1.2-3.1.18-4.54-2.17-6.25-9-6.55-17.86-13.27-26.77-19.93C872.4,257.73,871.36,256.91,869.74,255.67Zm74.39,45.2a2.34,2.34,0,0,0,.26,0s.07,0,.1-.07l-.4.09a14.52,14.52,0,0,0-.24-2.89c-1.39-4.84-2.85-9.66-4.3-14.48-1.77-5.85-1.78-5.84,3.14-9.59,4.27-3.27,8.54-6.56,13.5-10.38-1.93-.1-2.9-.19-3.88-.19-5.46,0-10.93-.16-16.38.06-2.68.1-4-.58-4.8-3.31-1.62-5.63-3.67-11.13-5.56-16.67-.26-.77-.66-1.49-1.25-2.8-1.85,4.89-3.42,9.12-5.05,13.32-1.15,3-1.62,7.09-3.8,8.49-2.35,1.5-6.35.44-9.63.45-4.43,0-8.86,0-14.15,0,6.52,4.87,12.14,9.21,17.92,13.33,1.81,1.29,2.22,2.45,1.55,4.57-2.07,6.52-3.91,13.12-6,20.31l19.91-13.89c.57.38.93.6,1.26.84Z"/><path class="f" d="M688.7,337.41c0,.23,0,.46,0,.69l-2.47,0Z"/><path class="g" d="M468.58,413.43l-.2-.6h1.95Z"/><path class="g" d="M144.89,412.83c0,.31-.1.62-.16.93l-.8-1Z"/><path class="a" d="M126.29,373.14c2.07-3.6,4.38-6.89,8.71-8.1,10.4-2.91,17.88,4.52,15.91,16.11H134c.85,4.62,1.44,4.8,14.77,4.44.33,1.66.66,3.35,1,5-6.66,3.89-16.71,2.38-21.83-3.23-2.51-3.74-2.48-7.92-2.16-12.16l.54-2.14Zm17,2.21c-.39-3.5-2-5.28-4.52-5.24s-4.41,2.06-4.67,5.24Z"/><path class="a" d="M1028.42,380.78q1.18-5.26,2.36-10.52a13.69,13.69,0,0,1,11.62-5.82c8.34.14,13.73,8,11.29,16.77h-16.5c.36,4.72,3.16,5.53,14.53,4.22l.89,5.59a.5.5,0,0,0-.42.29c-3.34.43-6.68,1.23-10,1.22C1034.46,392.5,1030.88,389.26,1028.42,380.78Zm17.81-5.42c-.63-3.74-2.2-5.37-4.77-5.22s-4.3,2.14-4.25,5.22Z"/><path class="a" d="M1022.78,392.78c-.7-.07-1.4-.19-2.1-.2-6.93,0-9.61-2.75-9.64-9.77,0-3.69,0-7.38,0-11.26l-3.55-.34v-6l3.41-.29v-5.59l8.16-1.9v7.47h6.06v6.3l-5.93.26c0,2.92,0,5.66,0,8.41.1,5.11.57,5.57,5.8,5.76.1.73.2,1.5.31,2.28-.68,1.49,1.08,4-1.94,4.52l-.63.41Z"/><path class="a" d="M886.12,300.85c-8.21,7.17-18,11.43-28.2,14.68-17.39,5.53-35.37,7.45-53.51,8.18a474.69,474.69,0,0,1-58.91-1.44c9.18-2.23,18.33-4.61,27.55-6.64a658.23,658.23,0,0,1,78.56-12.76C863.07,301.78,874.61,301.5,886.12,300.85Z"/><path class="a" d="M701.12,391.73V355.18c6,0,11.81-.46,17.56.12,6.18.63,9.85,5.53,8.26,10.61-.76,2.43-3,4.41-4.45,6.49a9,9,0,0,1,6.07,9.08c0,4.46-2.8,7.87-7.43,9.53C716.89,392.53,706.41,392.93,701.12,391.73Zm8.45-5.76c3.46.14,7.11.86,9.23-2.58a5.53,5.53,0,0,0,.08-4.83c-2.08-3.36-5.74-2.89-9.31-2.88Zm-.07-16.46c3.46-.11,7,.73,8.75-2.76a4.5,4.5,0,0,0-.58-4.15c-2.27-2.26-5.24-2.1-8.17-1.38Z"/><path class="a" d="M405.9,366.65V353.19h8.5V392h-7.1l-.59-2.43c-2.32,1-4.54,2.65-6.9,2.89a13.44,13.44,0,0,1-7.29-1.53c-4.65-2.5-6.72-9.17-5.59-15.58C388.32,367.39,396.12,361,405.9,366.65Zm0,11.71c0-.93.35-2.08-.07-2.73-1-1.6-2.15-3.59-3.74-4.28-2.22-1-4.47.16-5.58,2.52a11.41,11.41,0,0,0-1.06,3.79c-.42,4.73,1.87,8.18,5.34,8.3S405.94,383.38,405.88,378.36Z"/><path class="a" d="M574.2,390.26v12.45h-8.36V365.17h6.92l.42,2.65c2.16-1.05,4.14-2.4,6.31-3,5.34-1.47,10.51,1.35,12.7,6.7a17.71,17.71,0,0,1,.23,13C589.69,392.2,581.87,394.83,574.2,390.26Zm.08-11.48c0,1-.38,2.28.08,3,1,1.54,2.22,3.66,3.67,3.95,1.6.33,3.9-.75,5.25-1.95,1-.91,1.34-2.93,1.47-4.5.4-4.83-1.88-8.07-5.42-8.07S574.23,373.63,574.28,378.78Z"/><path class="a" d="M433.4,355.16h22.44v6.76H441.9v7.49h13.26v7H441.9v8.44h14.65v7.09H433.4Z"/><path class="a" d="M951.18,356.16l-1.86,6.39c-3.15-.43-6-1.19-8.74-1a5.84,5.84,0,0,0-4.2,2.77c-1,2.07,1.09,3.27,2.8,4.08,2.5,1.18,5.11,2.12,7.57,3.38a9.89,9.89,0,0,1,5.81,10,10.27,10.27,0,0,1-7.46,9.61,24.42,24.42,0,0,1-18.14-1c.59-2.36,1.13-4.51,1.62-6.49,3.48.58,6.74,1.3,10,1.59,2.2.19,4.45-.39,5-3s-1.36-3.86-3.37-4.81c-2.51-1.17-5.16-2.07-7.56-3.42a9.46,9.46,0,0,1-5.2-9.72,10,10,0,0,1,6.78-8.77C939.84,353.57,945.36,354,951.18,356.16Z"/><path class="a" d="M963.84,365.25c1.71,5.63,3.43,11.28,5.35,17.58,1.58-6.31,3-11.91,4.43-17.63h9.06c-.46,1.36-.85,2.66-1.33,3.93-3.13,8.23-6.11,16.54-9.49,24.67-1.9,4.56-5.12,8.18-10.13,9.71-1,.29-1.93.47-3,.72-.58-2.45-1.09-4.61-1.6-6.75,1.81-1.12,3.61-2.05,5.2-3.26,1.88-1.42,2.48-3.1,1.4-5.61-3.26-7.62-6.2-15.37-9.39-23.36Z"/><path class="a" d="M471,392.05h-8.4V365.28h6.94c.19.78.43,1.74.71,2.87.87-.71,1.55-1.33,2.29-1.85,6-4.16,14.12-1.34,15,5.8.81,6.46.17,13.1.17,19.86h-8.09V378.65c0-5.07-1.33-7.36-4.21-7.29S471,373.88,471,378.6Z"/><path class="a" d="M751.18,365.2h8.49V392H752.6c-.13-.93-.26-1.81-.35-2.48-2.42,1.06-4.69,2.5-7.16,3a8.48,8.48,0,0,1-10.57-8.05c-.44-6.34-.1-12.73-.1-19.27h8.21c0,4,0,8.13,0,12.2a36.38,36.38,0,0,0,.28,4.3c.31,2.4,1.45,4.2,4.16,4s4-2,4.07-4.59c.09-4.43,0-8.86,0-13.29Z"/><path class="a" d="M340.24,365.19h8.43v26.74h-6.92c-.18-.78-.4-1.73-.54-2.31-2.48,1-4.78,2.49-7.26,3-6.05,1.17-10.53-3.19-10.78-10.42-.2-5.55,0-11.11,0-16.89h8.57c0,4,0,8.11,0,12.19a26.82,26.82,0,0,0,.11,3.7c.35,2.36,1.1,4.51,4.06,4.55,2.45,0,4.3-2,4.35-5,.08-4.53,0-9.06,0-13.59Z"/><path class="a" d="M381.14,392h-8.32c0-4.21,0-8.3,0-12.39,0-1.33-.07-2.67-.17-4-.17-2.47-1.4-4.24-4-4.23a4.19,4.19,0,0,0-4.35,4.33c-.2,3.79-.11,7.6-.13,11.4,0,1.53,0,3.06,0,4.8h-8.38V365.2h6.85l.75,2.94c2.94-2.82,6.3-4.31,10.34-3.5a8.77,8.77,0,0,1,7.29,8.46C381.4,379.33,381.14,385.59,381.14,392Z"/><path class="a" d="M296.06,355.17h22.37v6.73h-13.9v8.4h12.88v6.86H304.52v14.78h-8.46Z"/><path class="a" d="M806.24,365.13h7.21c.12.94.23,1.82.36,2.78.3-.08.65-.07.83-.24,3.4-3.21,7.33-4.17,11.66-2.38,4.17,1.72,5.45,5.46,5.57,9.55.17,5.64,0,11.29,0,17.13h-8.45c0-4.11,0-8.19,0-12.27a32.59,32.59,0,0,0-.07-3.7c-.37-3.09-2.06-4.95-4.37-4.61-2.73.41-4.13,2.22-4.17,4.93-.07,4.53,0,9.07,0,13.6,0,.6,0,1.21-.09,2h-8.48V365.13Z"/><path class="a" d="M181.94,392h-8.35c0-4.63,0-9.14,0-13.64,0-5-1.24-7.07-4.1-7s-4.32,2.34-4.32,6.9V392h-8.58V365.22h7l.64,3c3.09-3.07,6.53-4.53,10.7-3.51,3.92,1,6.7,3.77,6.91,8.07C182.17,379.16,181.94,385.52,181.94,392Z"/><path class="a" d="M253.09,373.85c-1.33-4.1-4.73-4.5-12-1.67-.1-.12-.27-.24-.33-.4-2-5.21-1.75-5.83,3.78-6.7a28.1,28.1,0,0,1,8.23-.28c5.69.79,8.7,4.3,8.86,10.06s0,11.28,0,17.39c-2.59-1-6.06,1.95-7.89-1.95a42.05,42.05,0,0,1-6.15,2.26,8.55,8.55,0,0,1-9.77-5.19,8.76,8.76,0,0,1,3.76-10.7,20.4,20.4,0,0,1,5.4-2.1A47.76,47.76,0,0,1,253.09,373.85ZM253,379c-1.93.57-4.1.75-5.6,1.84a4.26,4.26,0,0,0-1,4.07c.51.94,2.75,1.61,4,1.35C253.08,385.75,253.84,383.4,253,379Z"/><path class="a" d="M210.73,385.48l1.07,5.57c-5.87,1.73-11.56,2.59-17.21,0-6.67-3-9.07-12-5.37-19.44a13.47,13.47,0,0,1,17.95-5.85c4.62,2.45,6.91,8.49,5.64,15.39H196.07C196.87,386,199.21,386.64,210.73,385.48Zm-5.57-10.12c-.29-3.5-1.75-5.21-4.4-5.26s-4.46,2-4.76,5.26Z"/><path class="a" d="M862.41,381.25H845.89c.57,4.74,3.26,5.5,14.51,4.18.36,1.72.73,3.47,1.19,5.7-6.64,1.69-13,2.85-19.09-1.05-5.58-3.59-6.92-12.6-3.12-19.2a13.5,13.5,0,0,1,17.21-5.22C861.62,368.12,864.31,375.13,862.41,381.25ZM855,375.36c-.59-3.7-2.15-5.36-4.72-5.24s-4.15,1.89-4.62,5.24Z"/><path class="a" d="M521.7,381.12c1.59,4.88,2.77,5.2,15,4.42.34,1.66.69,3.34,1.12,5.4-6.43,2-12.84,3-18.9-.75-5.67-3.5-7.09-12.56-3.4-19.14a13.42,13.42,0,0,1,17.12-5.45c4.36,2,6.91,7,6.6,12.91-.05.81-.19,1.62-.3,2.61Zm9.39-5.76c-.42-3.59-2-5.29-4.43-5.25-2.65,0-4.5,2.12-4.67,5.25Z"/><path class="a" d="M683.67,381.28h-17c1,4.82,4.06,5.7,14.64,4.14l1.26,5.52c-6.1,2-12.11,2.77-18-.15-6.29-3.13-8.29-12.43-4.47-19.52A13.49,13.49,0,0,1,678,365.88a11.17,11.17,0,0,1,5.62,8.4C684,376.45,683.67,378.73,683.67,381.28Zm-17-5.8c2.45,0,4.87,0,7.3,0,.59,0,1.19-.09,1.77-.13,0-3.19-1.36-5-3.9-5.22S667.11,371.92,666.62,375.48Z"/><path class="a" d="M766.52,385.07a55.87,55.87,0,0,0,7.59,1.49c1,.06,2.07-1.17,3.11-1.82A10.68,10.68,0,0,0,775,382.2c-1.57-.94-3.4-1.43-5-2.27a7.09,7.09,0,0,1-4.24-6.65,7.92,7.92,0,0,1,4.7-7.41c4.55-2.21,9.15-1.67,14,.08-.5,2-1,3.87-1.39,5.57a58.57,58.57,0,0,0-6.48-.91c-.8,0-1.64.88-2.47,1.37.57.85.95,2,1.74,2.48,1.57.93,3.4,1.42,5.06,2.22a8,8,0,0,1-.69,14.86c-4.94,1.77-9.89,1.4-15.12-.7Z"/><path class="a" d="M509.87,385.54v7c-2.29,0-4.52.16-6.7,0-4-.35-6.59-2.66-6.87-6.66-.32-4.69-.07-9.42-.07-14.21l-3.63-.44v-6l3.07-.28c.24-1.89-.17-4.73.86-5.41,2-1.33,4.81-1.46,7.67-2.18V365h5.87v6.22H504.4c0,4.05-.23,7.93.07,11.77C504.73,386.25,507.65,385.44,509.87,385.54Z"/><path class="a" d="M653.4,366.15c-.51,2-1,3.71-1.42,5.37a48.09,48.09,0,0,0-6.39-.9c-.87,0-1.76,1-2.63,1.58.57.76,1,1.78,1.75,2.22,1.41.81,3,1.2,4.53,1.89,3.34,1.56,5.45,4,5.32,7.9-.12,3.66-2.18,6.35-6.15,7.57a20.55,20.55,0,0,1-14.34-.94c.5-2.1,1-4,1.39-5.79a56.34,56.34,0,0,0,7.67,1.51c1,.07,2.06-1.21,3.09-1.87a11,11,0,0,0-2.26-2.52c-1.67-1-3.65-1.41-5.3-2.41-5.41-3.29-5.24-10.35.25-13.58C642.79,363.9,648,363.85,653.4,366.15Z"/><path class="a" d="M866.69,390.79l1.44-5.76a54.42,54.42,0,0,0,7.43,1.54c1,.07,2.16-1.08,3.25-1.68-.76-.94-1.34-2.17-2.31-2.76-1.64-1-3.65-1.42-5.29-2.43a7.64,7.64,0,0,1,.17-13.4c4.73-2.77,9.61-2.2,14.67-.3l-1.46,5.65a25.14,25.14,0,0,0-5.23-1c-1.24,0-2.48.89-3.72,1.38a15.66,15.66,0,0,0,2.64,2.85,36.24,36.24,0,0,0,4.22,1.82,8,8,0,0,1-.67,14.85A20.12,20.12,0,0,1,866.69,390.79Z"/><path class="a" d="M1003.36,366c-.5,2-1,3.87-1.36,5.51a56.71,56.71,0,0,0-6.58-.88c-.77,0-1.58.95-2.37,1.47.52.78.87,1.87,1.6,2.28,1.68.95,3.58,1.49,5.33,2.34a7.52,7.52,0,0,1,4.54,7.71c-.22,3.69-2.24,6.6-5.74,7.12-4.15.63-8.48.21-12.72,0-.58,0-1.49-1.64-1.5-2.54a14.83,14.83,0,0,1,.9-3.89,56.25,56.25,0,0,0,7.71,1.48c1,.06,2-1.22,3.07-1.89a11.11,11.11,0,0,0-2.28-2.48c-1.57-.93-3.44-1.36-5-2.27-5.67-3.25-5.69-10.46,0-13.72C993.57,363.54,998.35,364.13,1003.36,366Z"/><path class="a" d="M910.26,366l-1.44,5.69a25.55,25.55,0,0,0-5.21-1c-1.24,0-2.48.89-3.71,1.38a17.5,17.5,0,0,0,2.62,2.86,19.12,19.12,0,0,0,3.41,1.37c3.79,1.69,5.69,4.51,5.5,8.09s-2.35,6.35-6.28,7.49a19.88,19.88,0,0,1-14.25-1.06c.5-2,1-3.86,1.45-5.75a45.34,45.34,0,0,0,7.14,1.56c1.14.08,2.37-1.06,3.55-1.66a13.67,13.67,0,0,0-2.57-2.91c-1.54-1-3.47-1.31-5-2.28a7.63,7.63,0,0,1,.15-13.39C900.32,363.5,905.19,364.13,910.26,366Z"/><path class="a" d="M277,392.08h-8.23V353.17H277Z"/><path class="a" d="M553,392.07h-8.5V365.2h6.92c.16,1.19.31,2.29.51,3.81,2.38-3,4.93-5.22,9-4.33v7.77c-1,0-2-.06-2.86,0-3,.24-4.9,1.93-5,5.15C552.89,382.32,553,387,553,392.07Z"/><path class="a" d="M607.55,392.07h-8.49V365.22h6.87c.17,1.21.33,2.4.54,4,2.25-3.26,4.82-5.36,8.95-4.58v7.8c-.92,0-1.73,0-2.53,0-3.43.19-5.28,2-5.33,5.48C607.5,382.54,607.55,387.16,607.55,392.07Z"/><path class="a" d="M218.62,365.12h6.89c.15,1.26.31,2.51.52,4.17,2.23-3.39,4.88-5.32,9-4.69v7.82c-.79,0-1.58,0-2.36,0-3.52.15-5.51,2.05-5.58,5.6-.1,4.6,0,9.2,0,14h-8.42Z"/><path class="a" d="M791,365.18h8.18V392H791Z"/><path class="a" d="M628.51,392h-8.4V365.28h8.4Z"/><path class="a" d="M624.45,353.4a4.29,4.29,0,1,1-.21,8.56,4,4,0,0,1-4.23-4.23C620,355,621.68,353.38,624.45,353.4Z"/><path class="a" d="M790.67,357.39a4.18,4.18,0,0,1,4.81-4,4.14,4.14,0,0,1,4.06,4.73c-.18,2.41-2,3.92-4.65,3.83A4.07,4.07,0,0,1,790.67,357.39Z"/><path class="a" d="M944.13,300.88l-17.82-12.77c-.33-.24-.69-.46-1.26-.84l-19.91,13.89c2.11-7.19,4-13.79,6-20.31.67-2.12.26-3.28-1.55-4.57-5.78-4.12-11.4-8.46-17.92-13.33,5.29,0,9.72,0,14.15,0,3.28,0,7.28,1.05,9.63-.45,2.18-1.4,2.65-5.53,3.8-8.49,1.63-4.2,3.2-8.43,5.05-13.32.59,1.31,1,2,1.25,2.8,1.89,5.54,3.94,11,5.56,16.67.79,2.73,2.12,3.41,4.8,3.31,5.45-.22,10.92-.08,16.38-.06,1,0,2,.09,3.88.19-5,3.82-9.23,7.11-13.5,10.38-4.92,3.75-4.91,3.74-3.14,9.59,1.45,4.82,2.91,9.64,4.3,14.48a14.52,14.52,0,0,1,.24,2.89Z"/><path class="a" d="M944.09,300.93l.4-.09s-.07.07-.1.07-.17,0-.26,0Z"/><path class="j" d="M143.25,375.35h-9.19c.26-3.18,2.05-5.2,4.67-5.24S142.86,371.85,143.25,375.35Z"/><path class="i" d="M1046.23,375.36h-9c0-3.08,1.59-5.07,4.25-5.22S1045.6,371.62,1046.23,375.36Z"/><path class="j" d="M709.57,386V375.68c3.57,0,7.23-.48,9.31,2.88a5.53,5.53,0,0,1-.08,4.83C716.68,386.83,713,386.11,709.57,386Z"/><path class="j" d="M709.5,369.51v-8.29c2.93-.72,5.9-.88,8.17,1.38a4.5,4.5,0,0,1,.58,4.15C716.45,370.24,713,369.4,709.5,369.51Z"/><path class="j" d="M253,379c.85,4.36.09,6.71-2.62,7.26-1.27.26-3.51-.41-4-1.35a4.26,4.26,0,0,1,1-4.07C248.89,379.79,251.06,379.61,253,379Z"/><path class="j" d="M205.16,375.36H196c.3-3.25,2.18-5.31,4.76-5.26S204.87,371.86,205.16,375.36Z"/><path class="j" d="M855,375.36h-9.34c.47-3.35,2.07-5.13,4.62-5.24S854.44,371.66,855,375.36Z"/><path class="j" d="M531.09,375.36H522c.17-3.14,2-5.22,4.67-5.26C529.14,370.07,530.67,371.77,531.09,375.36Z"/><path class="j" d="M666.62,375.48c.49-3.56,2.54-5.61,5.17-5.36s3.91,2,3.9,5.22c-.58,0-1.18.13-1.77.13C671.49,375.49,669.07,375.48,666.62,375.48Z"/></svg>